<?xml version="1.0" encoding="UTF-8"?>
<svg xmlns="http://www.w3.org/2000/svg"
     xmlns:xlink="http://www.w3.org/1999/xlink"
     xmlns:gadfly="http://www.gadflyjl.org/ns"
     version="1.2"
     width="141.42mm" height="100mm" viewBox="0 0 141.42 100"
     stroke="none"
     fill="#000000"
     stroke-width="0.3"
     font-size="3.88"
>
<defs>
  <marker id="arrow" markerWidth="15" markerHeight="7" refX="5" refY="3.5" orient="auto" markerUnits="strokeWidth">
    <path d="M0,0 L15,3.5 L0,7 z" stroke="context-stroke" fill="context-stroke"/>
  </marker>
</defs>
<g class="plotroot xscalable yscalable" id="img-10d8b35a-1">
  <g font-size="3.88" font-family="'PT Sans','Helvetica Neue','Helvetica',sans-serif" fill="#564A55" stroke="#000000" stroke-opacity="0.000" id="img-10d8b35a-2">
    <g transform="translate(69.63,88.39)">
      <g class="primitive">
        <text text-anchor="middle" dy="0.6em">step</text>
      </g>
    </g>
  </g>
  <g class="guide xlabels" font-size="2.82" font-family="'PT Sans Caption','Helvetica Neue','Helvetica',sans-serif" fill="#6C606B" id="img-10d8b35a-3">
    <g transform="translate(23.3,81.72)">
      <g class="primitive">
        <text text-anchor="middle" dy="0.6em">0</text>
      </g>
    </g>
    <g transform="translate(54.19,81.72)">
      <g class="primitive">
        <text text-anchor="middle" dy="0.6em">50</text>
      </g>
    </g>
    <g transform="translate(85.07,81.72)">
      <g class="primitive">
        <text text-anchor="middle" dy="0.6em">100</text>
      </g>
    </g>
    <g transform="translate(115.95,81.72)">
      <g class="primitive">
        <text text-anchor="middle" dy="0.6em">150</text>
      </g>
    </g>
  </g>
  <g class="guide colorkey" id="img-10d8b35a-4">
    <g fill="#4C404B" font-size="2.82" font-family="'PT Sans','Helvetica Neue','Helvetica',sans-serif" id="img-10d8b35a-5">
      <g transform="translate(121.76,42.86)" id="img-10d8b35a-6" class="color_NelderMead">
        <g class="primitive">
          <text dy="0.35em">NelderMead</text>
        </g>
      </g>
      <g transform="translate(121.76,46.48)" id="img-10d8b35a-7" class="color_BOBYQA">
        <g class="primitive">
          <text dy="0.35em">BOBYQA</text>
        </g>
      </g>
    </g>
    <g fill-opacity="1" id="img-10d8b35a-8">
      <g transform="translate(119.85,42.86)" id="img-10d8b35a-9" class="color_NelderMead" fill="#00BFFF" stroke="#FFFFFF">
        <path d="M-0.91,-0.91 L0.91,-0.91 0.91,0.91 -0.91,0.91  z" class="primitive"/>
      </g>
      <g transform="translate(119.85,46.48)" id="img-10d8b35a-10" class="color_BOBYQA" fill="#D4CA3A" stroke="#FFFFFF">
        <path d="M-0.91,-0.91 L0.91,-0.91 0.91,0.91 -0.91,0.91  z" class="primitive"/>
      </g>
    </g>
    <g fill="#362A35" font-size="3.88" font-family="'PT Sans','Helvetica Neue','Helvetica',sans-serif" stroke="#000000" stroke-opacity="0.000" id="img-10d8b35a-11">
      <g transform="translate(118.95,39.04)" id="img-10d8b35a-12">
        <g class="primitive">
          <text dy="-0em">algorithm</text>
        </g>
      </g>
    </g>
  </g>
  <g clip-path="url(#img-10d8b35a-13)">
    <g id="img-10d8b35a-14">
      <g pointer-events="visible" stroke-width="0.3" fill="#000000" fill-opacity="0.000" stroke="#000000" stroke-opacity="0.000" class="guide background" id="img-10d8b35a-15">
        <g transform="translate(69.63,42.86)" id="img-10d8b35a-16">
          <path d="M-48.32,-37.86 L48.32,-37.86 48.32,37.86 -48.32,37.86  z" class="primitive"/>
        </g>
      </g>
      <g class="guide ygridlines xfixed" stroke-dasharray="0.5,0.5" stroke-width="0.2" stroke="#D0D0E0" id="img-10d8b35a-17">
        <g transform="translate(69.63,78.72)" id="img-10d8b35a-18">
          <path fill="none" d="M-48.32,0 L48.32,0 " class="primitive"/>
        </g>
        <g transform="translate(69.63,54.81)" id="img-10d8b35a-19">
          <path fill="none" d="M-48.32,0 L48.32,0 " class="primitive"/>
        </g>
        <g transform="translate(69.63,30.91)" id="img-10d8b35a-20">
          <path fill="none" d="M-48.32,0 L48.32,0 " class="primitive"/>
        </g>
        <g transform="translate(69.63,7)" id="img-10d8b35a-21">
          <path fill="none" d="M-48.32,0 L48.32,0 " class="primitive"/>
        </g>
      </g>
      <g class="guide xgridlines yfixed" stroke-dasharray="0.5,0.5" stroke-width="0.2" stroke="#D0D0E0" id="img-10d8b35a-22">
        <g transform="translate(23.3,42.86)" id="img-10d8b35a-23">
          <path fill="none" d="M0,-37.86 L0,37.86 " class="primitive"/>
        </g>
        <g transform="translate(54.19,42.86)" id="img-10d8b35a-24">
          <path fill="none" d="M0,-37.86 L0,37.86 " class="primitive"/>
        </g>
        <g transform="translate(85.07,42.86)" id="img-10d8b35a-25">
          <path fill="none" d="M0,-37.86 L0,37.86 " class="primitive"/>
        </g>
        <g transform="translate(115.95,42.86)" id="img-10d8b35a-26">
          <path fill="none" d="M0,-37.86 L0,37.86 " class="primitive"/>
        </g>
      </g>
      <g class="plotpanel" id="img-10d8b35a-27">
        <metadata>
          <boundingbox value="21.304999999999993mm 5.0mm 96.64302290397617mm 75.715mm"/>
          <unitbox value="-3.238236303136911 1904.1832252666807 156.4764726062738 -158.36645053336125"/>
        </metadata>
        <g stroke-width="0.3" fill="#000000" fill-opacity="0.000" class="geometry" id="img-10d8b35a-28">
          <g transform="translate(67.16,75.38)" id="img-10d8b35a-29" class="color_NelderMead" stroke-opacity="1" stroke-dasharray="none" stroke="#00BFFF">
            <path fill="none" d="M-43.23,-13.23 L-42.62,-17.16 -42,-20.09 -41.38,-24.66 -40.76,-15.5 -40.15,-8.76 -39.53,-47.82 -38.91,-1.67 -38.29,-7.87 -37.67,-17.94 -37.06,-3.21 -36.44,-13.26 -35.82,-5.54 -35.2,-16.89 -34.59,-2.32 -33.97,-2.08 -33.35,-2.84 -32.73,-2.51 -32.12,-6.06 -31.5,-7.25 -30.88,0.3 -30.26,-13.89 -29.65,-1.64 -29.03,-2.24 -28.41,0.52 -27.79,-0.55 -27.18,-3.26 -26.56,1.05 -25.94,0.05 -25.32,0.82 -24.7,1.76 -24.09,2.16 -23.47,-0.04 -22.85,1.22 -22.23,1.67 -21.62,1.34 -21,1.32 -20.38,1.78 -19.76,1.86 -19.15,2.36 -18.53,2.31 -17.91,1.67 -17.29,2.11 -16.68,1.8 -16.06,2.15 -15.44,2.28 -14.82,2.31 -14.21,2.38 -13.59,2.12 -12.97,2.27 -12.35,2.37 -11.73,2.24 -11.12,2.38 -10.5,2.3 -9.88,2.4 -9.26,2.39 -8.65,2.34 -8.03,2.41 -7.41,2.36 -6.79,2.41 -6.18,2.38 -5.56,2.41 -4.94,2.39 -4.32,2.41 -3.71,2.4 -3.09,2.41 -2.47,2.41 -1.85,2.41 -1.24,2.4 -0.62,2.41 0,2.4 0.62,2.41 1.24,2.41 1.85,2.41 2.47,2.41 3.09,2.41 3.71,2.41 4.32,2.41 4.94,2.41 5.56,2.41 6.18,2.41 6.79,2.41 7.41,2.41 8.03,2.41 8.65,2.41 9.26,2.41 9.88,2.41 10.5,2.41 11.12,2.41 11.73,2.41 12.35,2.41 12.97,2.41 13.59,2.41 14.21,2.41 14.82,2.41 15.44,2.41 16.06,2.41 16.68,2.41 17.29,2.41 17.91,2.41 18.53,2.41 19.15,2.41 19.76,2.41 20.38,2.41 21,2.41 21.62,2.41 22.23,2.41 22.85,2.41 23.47,2.41 24.09,2.41 24.7,2.41 25.32,2.41 25.94,2.41 26.56,2.41 27.18,2.41 27.79,2.41 28.41,2.41 29.03,2.41 29.65,2.41 30.26,2.41 30.88,2.41 31.5,2.41 32.12,2.41 32.73,2.41 33.35,2.41 33.97,2.41 34.59,2.41 35.2,2.41 35.82,2.41 36.44,2.41 37.06,2.41 37.67,2.41 38.29,2.41 38.91,2.41 39.53,2.41 40.15,2.41 40.76,2.41 41.38,2.41 42,2.41 42.62,2.41 43.23,2.41 " class="primitive"/>
          </g>
          <g transform="translate(45.85,74.19)" id="img-10d8b35a-30" class="color_BOBYQA" stroke-opacity="1" stroke-dasharray="none" stroke="#D4CA3A">
            <path fill="none" d="M-21.93,-12.04 L-21.31,-15.97 -20.69,-18.9 -20.07,-23.47 -19.46,-22.37 -18.84,-18.72 -18.22,-16.88 -17.6,-8.88 -16.98,-5.93 -16.37,-7.28 -15.75,-6.16 -15.13,-2.13 -14.51,-11.4 -13.9,-3.81 -13.28,0.73 -12.66,-1.97 -12.04,1.4 -11.43,0.81 -10.81,0.4 -10.19,1.95 -9.57,1.98 -8.96,-0.22 -8.34,2.14 -7.72,0.95 -7.1,2.5 -6.49,2.4 -5.87,2.86 -5.25,3.33 -4.63,2.98 -4.01,3.11 -3.4,3.15 -2.78,3.29 -2.16,3.38 -1.54,3.41 -0.93,3.44 -0.31,3.44 0.31,3.39 0.93,3.46 1.54,3.46 2.16,3.48 2.78,3.5 3.4,3.52 4.01,3.55 4.63,3.55 5.25,3.59 5.87,3.58 6.49,3.59 7.1,3.57 7.72,3.58 8.34,3.59 8.96,3.59 9.57,3.59 10.19,3.57 10.81,3.59 11.43,3.59 12.04,3.59 12.66,3.6 13.28,3.59 13.9,3.6 14.51,3.6 15.13,3.6 15.75,3.6 16.37,3.6 16.98,3.6 17.6,3.6 18.22,3.6 18.84,3.6 19.46,3.6 20.07,3.6 20.69,3.6 21.31,3.6 21.93,3.6 " class="primitive"/>
          </g>
        </g>
      </g>
    </g>
  </g>
  <g class="guide ylabels" font-size="2.82" font-family="'PT Sans Caption','Helvetica Neue','Helvetica',sans-serif" fill="#6C606B" id="img-10d8b35a-31">
    <g transform="translate(20.3,78.72)" id="img-10d8b35a-32">
      <g class="primitive">
        <text text-anchor="end" dy="0.35em">1750</text>
      </g>
    </g>
    <g transform="translate(20.3,54.81)" id="img-10d8b35a-33">
      <g class="primitive">
        <text text-anchor="end" dy="0.35em">1800</text>
      </g>
    </g>
    <g transform="translate(20.3,30.91)" id="img-10d8b35a-34">
      <g class="primitive">
        <text text-anchor="end" dy="0.35em">1850</text>
      </g>
    </g>
    <g transform="translate(20.3,7)" id="img-10d8b35a-35">
      <g class="primitive">
        <text text-anchor="end" dy="0.35em">1900</text>
      </g>
    </g>
  </g>
  <g font-size="3.88" font-family="'PT Sans','Helvetica Neue','Helvetica',sans-serif" fill="#564A55" stroke="#000000" stroke-opacity="0.000" id="img-10d8b35a-36">
    <g transform="translate(8.81,40.86)" id="img-10d8b35a-37">
      <g class="primitive">
        <text text-anchor="middle" dy="0.35em" transform="rotate(-90,0, 2)">objective</text>
      </g>
    </g>
  </g>
</g>
<defs>
  <clipPath id="img-10d8b35a-13">
    <path d="M21.3,5 L117.95,5 117.95,80.72 21.3,80.72 " />
  </clipPath>
</defs>
</svg>
