<?xml version="1.0" encoding="UTF-8"?>
<svg xmlns="http://www.w3.org/2000/svg"
     xmlns:xlink="http://www.w3.org/1999/xlink"
     xmlns:gadfly="http://www.gadflyjl.org/ns"
     version="1.2"
     width="203.2mm" height="101.6mm" viewBox="0 0 203.2 101.6"
     stroke="none"
     fill="#000000"
     stroke-width="0.3"
     font-size="3.88"
>
<g class="plotroot xscalable yscalable" id="img-a5a3f5c1-1">
  <g font-size="3.88" font-family="'PT Sans','Helvetica Neue','Helvetica',sans-serif" fill="#564A55" stroke="#000000" stroke-opacity="0.000" id="img-a5a3f5c1-2">
    <text x="107.12" y="89.99" text-anchor="middle" dy="0.6em">Parametric bootstrap estimates of σ₁²</text>
  </g>
  <g class="guide xlabels" font-size="2.82" font-family="'PT Sans Caption','Helvetica Neue','Helvetica',sans-serif" fill="#6C606B" id="img-a5a3f5c1-3">
    <text x="18.04" y="83.32" text-anchor="middle" dy="0.6em">-5.0×10³</text>
    <text x="77.43" y="83.32" text-anchor="middle" dy="0.6em">0</text>
    <text x="136.81" y="83.32" text-anchor="middle" dy="0.6em">5.0×10³</text>
    <text x="196.2" y="83.32" text-anchor="middle" dy="0.6em">1.0×10⁴</text>
  </g>
<g clip-path="url(#img-a5a3f5c1-4)">
  <g id="img-a5a3f5c1-5">
    <g pointer-events="visible" opacity="1" fill="#000000" fill-opacity="0.000" stroke="#000000" stroke-opacity="0.000" class="guide background" id="img-a5a3f5c1-6">
      <rect x="16.04" y="5" width="182.16" height="77.32"/>
    </g>
    <g class="guide ygridlines xfixed" stroke-dasharray="0.5,0.5" stroke-width="0.2" stroke="#D0D0E0" id="img-a5a3f5c1-7">
      <path fill="none" d="M16.04,80.32 L 198.2 80.32"/>
      <path fill="none" d="M16.04,61.99 L 198.2 61.99"/>
      <path fill="none" d="M16.04,43.66 L 198.2 43.66"/>
      <path fill="none" d="M16.04,25.33 L 198.2 25.33"/>
      <path fill="none" d="M16.04,7 L 198.2 7"/>
    </g>
    <g class="guide xgridlines yfixed" stroke-dasharray="0.5,0.5" stroke-width="0.2" stroke="#D0D0E0" id="img-a5a3f5c1-8">
      <path fill="none" d="M18.04,5 L 18.04 82.32"/>
      <path fill="none" d="M77.43,5 L 77.43 82.32"/>
      <path fill="none" d="M136.81,5 L 136.81 82.32"/>
      <path fill="none" d="M196.2,5 L 196.2 82.32"/>
    </g>
    <g class="plotpanel" id="img-a5a3f5c1-9">
      <g stroke-width="0.3" fill="#000000" fill-opacity="0.000" class="geometry" stroke-dasharray="none" stroke="#00BFFF" id="img-a5a3f5c1-10">
        <path fill="none" d="M73.44,80.29 L 73.82 80.23 74.2 80.02 74.58 79.41 74.95 77.87 75.33 74.56 75.71 68.5 76.09 59.07 76.46 46.82 76.84 33.78 77.22 23.01 77.6 17.13 77.97 16.91 78.35 20.99 78.73 26.79 79.11 32.01 79.49 35.5 79.86 37.23 80.24 37.75 80.62 37.65 81 37.35 81.37 37.05 81.75 36.81 82.13 36.67 82.51 36.6 82.88 36.62 83.26 36.72 83.64 36.89 84.02 37.12 84.39 37.37 84.77 37.64 85.15 37.9 85.53 38.15 85.91 38.41 86.28 38.68 86.66 38.98 87.04 39.3 87.42 39.65 87.79 40.05 88.17 40.51 88.55 41.04 88.93 41.66 89.3 42.35 89.68 43.12 90.06 43.95 90.44 44.8 90.81 45.62 91.19 46.38 91.57 47.06 91.95 47.7 92.33 48.36 92.7 49.09 93.08 49.89 93.46 50.75 93.84 51.62 94.21 52.47 94.59 53.26 94.97 53.98 95.35 54.65 95.72 55.27 96.1 55.88 96.48 56.47 96.86 57.08 97.23 57.7 97.61 58.35 97.99 59 98.37 59.65 98.75 60.28 99.12 60.88 99.5 61.46 99.88 62.03 100.26 62.57 100.63 63.09 101.01 63.6 101.39 64.11 101.77 64.62 102.14 65.13 102.52 65.63 102.9 66.1 103.28 66.54 103.66 66.98 104.03 67.4 104.41 67.83 104.79 68.25 105.17 68.65 105.54 69.02 105.92 69.36 106.3 69.68 106.68 69.99 107.05 70.3 107.43 70.62 107.81 70.95 108.19 71.26 108.56 71.56 108.94 71.84 109.32 72.12 109.7 72.4 110.08 72.67 110.45 72.93 110.83 73.18 111.21 73.44 111.59 73.7 111.96 73.96 112.34 74.22 112.72 74.46 113.1 74.69 113.47 74.91 113.85 75.12 114.23 75.33 114.61 75.54 114.98 75.74 115.36 75.93 115.74 76.1 116.12 76.25 116.5 76.39 116.87 76.53 117.25 76.68 117.63 76.85 118.01 77.03 118.38 77.2 118.76 77.36 119.14 77.5 119.52 77.62 119.89 77.72 120.27 77.8 120.65 77.88 121.03 77.95 121.4 78.01 121.78 78.07 122.16 78.14 122.54 78.2 122.92 78.26 123.29 78.33 123.67 78.4 124.05 78.48 124.43 78.55 124.8 78.62 125.18 78.7 125.56 78.76 125.94 78.82 126.31 78.88 126.69 78.93 127.07 78.98 127.45 79.02 127.82 79.07 128.2 79.11 128.58 79.15 128.96 79.19 129.34 79.23 129.71 79.28 130.09 79.33 130.47 79.38 130.85 79.44 131.22 79.5 131.6 79.54 131.98 79.57 132.36 79.6 132.73 79.63 133.11 79.66 133.49 79.69 133.87 79.72 134.24 79.74 134.62 79.75 135 79.75 135.38 79.76 135.76 79.78 136.13 79.8 136.51 79.82 136.89 79.85 137.27 79.87 137.64 79.89 138.02 79.9 138.4 79.92 138.78 79.93 139.15 79.95 139.53 79.97 139.91 79.99 140.29 80 140.66 80.02 141.04 80.03 141.42 80.04 141.8 80.06 142.18 80.07 142.55 80.08 142.93 80.09 143.31 80.09 143.69 80.1 144.06 80.1 144.44 80.11 144.82 80.12 145.2 80.13 145.57 80.14 145.95 80.14 146.33 80.15 146.71 80.15 147.09 80.15 147.46 80.15 147.84 80.15 148.22 80.15 148.6 80.16 148.97 80.16 149.35 80.17 149.73 80.18 150.11 80.19 150.48 80.2 150.86 80.22 151.24 80.23 151.62 80.25 151.99 80.26 152.37 80.27 152.75 80.27 153.13 80.27 153.51 80.26 153.88 80.25 154.26 80.25 154.64 80.25 155.02 80.25 155.39 80.25 155.77 80.26 156.15 80.26 156.53 80.27 156.9 80.28 157.28 80.29 157.66 80.29 158.04 80.29 158.41 80.29 158.79 80.29 159.17 80.29 159.55 80.29 159.93 80.29 160.3 80.29 160.68 80.29 161.06 80.29 161.44 80.3 161.81 80.3 162.19 80.3 162.57 80.3 162.95 80.29 163.32 80.29 163.7 80.29 164.08 80.29 164.46 80.29 164.83 80.29 165.21 80.29 165.59 80.29 165.97 80.29 166.35 80.29 166.72 80.29 167.1 80.3 167.48 80.3 167.86 80.3 168.23 80.29 168.61 80.29 168.99 80.3 169.37 80.3 169.74 80.3 170.12 80.3 170.5 80.31 170.88 80.31 171.25 80.31 171.63 80.31 172.01 80.31 172.39 80.31 172.77 80.31 173.14 80.31 173.52 80.31 173.9 80.31 174.28 80.31 174.65 80.31 175.03 80.31 175.41 80.31 175.79 80.31 176.16 80.31 176.54 80.31 176.92 80.31 177.3 80.31 177.67 80.31 178.05 80.31 178.43 80.31 178.81 80.31 179.19 80.31 179.56 80.31 179.94 80.31 180.32 80.31 180.7 80.31 181.07 80.31 181.45 80.31 181.83 80.31 182.21 80.31 182.58 80.31 182.96 80.31 183.34 80.31 183.72 80.31 184.09 80.31 184.47 80.31 184.85 80.31 185.23 80.31 185.61 80.31 185.98 80.31 186.36 80.31"/>
      </g>
    </g>
  </g>
</g>
  <g class="guide ylabels" font-size="2.82" font-family="'PT Sans Caption','Helvetica Neue','Helvetica',sans-serif" fill="#6C606B" id="img-a5a3f5c1-11">
    <text x="15.04" y="80.32" text-anchor="end" dy="0.35em">0.0000</text>
    <text x="15.04" y="61.99" text-anchor="end" dy="0.35em">0.0002</text>
    <text x="15.04" y="43.66" text-anchor="end" dy="0.35em">0.0004</text>
    <text x="15.04" y="25.33" text-anchor="end" dy="0.35em">0.0006</text>
    <text x="15.04" y="7" text-anchor="end" dy="0.35em">0.0008</text>
  </g>
</g>
<defs>
  <clipPath id="img-a5a3f5c1-4">
  <path d="M16.04,5 L 198.2 5 198.2 82.32 16.04 82.32" />
</clipPath>
</defs>
</svg>
