<?xml version="1.0" encoding="UTF-8"?>
<svg xmlns="http://www.w3.org/2000/svg"
     xmlns:xlink="http://www.w3.org/1999/xlink"
     xmlns:gadfly="http://www.gadflyjl.org/ns"
     version="1.2"
     width="203.2mm" height="101.6mm" viewBox="0 0 203.2 101.6"
     stroke="none"
     fill="#000000"
     stroke-width="0.3"
     font-size="3.88"
>
<g class="plotroot xscalable yscalable" id="img-a5a3f5c1-1">
  <g font-size="3.88" font-family="'PT Sans','Helvetica Neue','Helvetica',sans-serif" fill="#564A55" stroke="#000000" stroke-opacity="0.000" id="img-a5a3f5c1-2">
    <text x="107.54" y="90.07" text-anchor="middle" dy="0.6em">Parametric bootstrap estimates of σ₁²</text>
  </g>
  <g class="guide xlabels" font-size="2.82" font-family="'PT Sans Caption','Helvetica Neue','Helvetica',sans-serif" fill="#6C606B" id="img-a5a3f5c1-3">
    <text x="18.88" y="83.6" text-anchor="middle" dy="0.6em">-5.0×10³</text>
    <text x="77.99" y="83.6" text-anchor="middle" dy="0.6em">0</text>
    <text x="137.09" y="83.6" text-anchor="middle" dy="0.6em">5.0×10³</text>
    <text x="196.2" y="83.6" text-anchor="middle" dy="0.6em">1.0×10⁴</text>
  </g>
<g clip-path="url(#img-a5a3f5c1-4)">
  <g id="img-a5a3f5c1-5">
    <g pointer-events="visible" opacity="1" fill="#000000" fill-opacity="0.000" stroke="#000000" stroke-opacity="0.000" class="guide background" id="img-a5a3f5c1-6">
      <rect x="16.88" y="5" width="181.32" height="77.6"/>
    </g>
    <g class="guide ygridlines xfixed" stroke-dasharray="0.5,0.5" stroke-width="0.2" stroke="#D0D0E0" id="img-a5a3f5c1-7">
      <path fill="none" d="M16.88,80.6 L 198.2 80.6"/>
      <path fill="none" d="M16.88,62.2 L 198.2 62.2"/>
      <path fill="none" d="M16.88,43.8 L 198.2 43.8"/>
      <path fill="none" d="M16.88,25.4 L 198.2 25.4"/>
      <path fill="none" d="M16.88,7 L 198.2 7"/>
    </g>
    <g class="guide xgridlines yfixed" stroke-dasharray="0.5,0.5" stroke-width="0.2" stroke="#D0D0E0" id="img-a5a3f5c1-8">
      <path fill="none" d="M18.88,5 L 18.88 82.6"/>
      <path fill="none" d="M77.99,5 L 77.99 82.6"/>
      <path fill="none" d="M137.09,5 L 137.09 82.6"/>
      <path fill="none" d="M196.2,5 L 196.2 82.6"/>
    </g>
    <g class="plotpanel" id="img-a5a3f5c1-9">
      <g stroke-width="0.3" fill="#000000" fill-opacity="0.000" class="geometry" stroke-dasharray="none" stroke="#00BFFF" id="img-a5a3f5c1-10">
        <path fill="none" d="M74.02,80.59 L 74.46 80.51 74.9 80.21 75.34 79.19 75.78 76.35 76.22 70.09 76.66 59.08 77.11 44.06 77.55 28.74 77.99 18.33 78.43 15.97 78.87 20.44 79.31 27.56 79.75 33.5 80.19 36.79 80.63 37.9 81.07 37.88 81.51 37.51 81.95 37.14 82.39 36.88 82.83 36.74 83.28 36.72 83.72 36.81 84.16 37 84.6 37.28 85.04 37.58 85.48 37.89 85.92 38.19 86.36 38.48 86.8 38.8 87.24 39.15 87.68 39.54 88.12 39.98 88.56 40.49 89.01 41.1 89.45 41.82 89.89 42.65 90.33 43.58 90.77 44.58 91.21 45.56 91.65 46.46 92.09 47.26 92.53 48.02 92.97 48.82 93.41 49.72 93.85 50.71 94.29 51.74 94.73 52.74 95.18 53.65 95.62 54.48 96.06 55.23 96.5 55.95 96.94 56.65 97.38 57.36 97.82 58.1 98.26 58.87 98.7 59.64 99.14 60.39 99.58 61.1 100.02 61.78 100.46 62.43 100.9 63.06 101.35 63.67 101.79 64.27 102.23 64.87 102.67 65.47 103.11 66.04 103.55 66.58 103.99 67.1 104.43 67.6 104.87 68.1 105.31 68.59 105.75 69.05 106.19 69.47 106.63 69.85 107.08 70.22 107.52 70.59 107.96 70.97 108.4 71.34 108.84 71.7 109.28 72.04 109.72 72.37 110.16 72.69 110.6 73.01 111.04 73.31 111.48 73.61 111.92 73.92 112.36 74.23 112.8 74.53 113.25 74.81 113.69 75.07 114.13 75.32 114.57 75.57 115.01 75.82 115.45 76.06 115.89 76.27 116.33 76.46 116.77 76.63 117.21 76.79 117.65 76.97 118.09 77.17 118.53 77.38 118.97 77.57 119.42 77.74 119.86 77.89 120.3 78.01 120.74 78.1 121.18 78.19 121.62 78.27 122.06 78.34 122.5 78.41 122.94 78.49 123.38 78.56 123.82 78.65 124.26 78.73 124.7 78.82 125.15 78.91 125.59 78.99 126.03 79.07 126.47 79.14 126.91 79.2 127.35 79.25 127.79 79.31 128.23 79.36 128.67 79.41 129.11 79.46 129.55 79.51 129.99 79.56 130.43 79.62 130.87 79.68 131.32 79.75 131.76 79.81 132.2 79.85 132.64 79.89 133.08 79.92 133.52 79.96 133.96 79.99 134.4 80.02 134.84 80.03 135.28 80.04 135.72 80.05 136.16 80.07 136.6 80.1 137.05 80.13 137.49 80.15 137.93 80.17 138.37 80.19 138.81 80.21 139.25 80.23 139.69 80.25 140.13 80.27 140.57 80.29 141.01 80.31 141.45 80.32 141.89 80.34 142.33 80.36 142.77 80.37 143.22 80.38 143.66 80.38 144.1 80.39 144.54 80.4 144.98 80.41 145.42 80.42 145.86 80.42 146.3 80.43 146.74 80.43 147.18 80.44 147.62 80.44 148.06 80.44 148.5 80.44 148.94 80.45 149.39 80.45 149.83 80.46 150.27 80.48 150.71 80.49 151.15 80.51 151.59 80.53 152.03 80.54 152.47 80.55 152.91 80.56 153.35 80.56 153.79 80.55 154.23 80.54 154.67 80.54 155.12 80.54 155.56 80.54 156 80.55 156.44 80.55 156.88 80.56 157.32 80.57 157.76 80.58 158.2 80.58 158.64 80.58 159.08 80.58 159.52 80.58 159.96 80.57 160.4 80.58 160.84 80.58 161.29 80.58 161.73 80.59 162.17 80.59 162.61 80.58 163.05 80.58 163.49 80.58 163.93 80.58 164.37 80.58 164.81 80.58 165.25 80.58 165.69 80.58 166.13 80.58 166.57 80.58 167.01 80.58 167.46 80.58 167.9 80.58 168.34 80.58 168.78 80.58 169.22 80.58 169.66 80.59 170.1 80.59 170.54 80.59 170.98 80.59 171.42 80.6 171.86 80.6 172.3 80.6 172.74 80.6 173.19 80.6 173.63 80.6 174.07 80.6 174.51 80.6 174.95 80.6 175.39 80.6 175.83 80.6 176.27 80.6 176.71 80.6 177.15 80.6 177.59 80.6 178.03 80.6 178.47 80.6 178.91 80.6 179.36 80.6 179.8 80.6 180.24 80.6 180.68 80.6 181.12 80.6 181.56 80.6 182 80.6 182.44 80.6 182.88 80.6 183.32 80.6 183.76 80.6 184.2 80.6 184.64 80.6 185.08 80.6 185.53 80.6 185.97 80.6 186.41 80.6"/>
      </g>
    </g>
  </g>
</g>
  <g class="guide ylabels" font-size="2.82" font-family="'PT Sans Caption','Helvetica Neue','Helvetica',sans-serif" fill="#6C606B" id="img-a5a3f5c1-11">
    <text x="15.88" y="80.6" text-anchor="end" dy="0.35em">0.0000</text>
    <text x="15.88" y="62.2" text-anchor="end" dy="0.35em">0.0002</text>
    <text x="15.88" y="43.8" text-anchor="end" dy="0.35em">0.0004</text>
    <text x="15.88" y="25.4" text-anchor="end" dy="0.35em">0.0006</text>
    <text x="15.88" y="7" text-anchor="end" dy="0.35em">0.0008</text>
  </g>
</g>
<defs>
  <clipPath id="img-a5a3f5c1-4">
  <path d="M16.88,5 L 198.2 5 198.2 82.6 16.88 82.6" />
</clipPath>
</defs>
</svg>
