<?xml version="1.0" encoding="UTF-8"?>
<svg xmlns="http://www.w3.org/2000/svg"
     xmlns:xlink="http://www.w3.org/1999/xlink"
     xmlns:gadfly="http://www.gadflyjl.org/ns"
     version="1.2"
     width="203.2mm" height="101.6mm" viewBox="0 0 203.2 101.6"
     stroke="none"
     fill="#000000"
     stroke-width="0.3"
     font-size="3.88"
>
<g class="plotroot xscalable yscalable" id="img-f2b48a63-1">
  <g font-size="3.88" font-family="'PT Sans','Helvetica Neue','Helvetica',sans-serif" fill="#564A55" stroke="#000000" stroke-opacity="0.000" id="img-f2b48a63-2">
    <text x="107.54" y="90.07" text-anchor="middle" dy="0.6em">Parametric bootstrap estimates of σ²</text>
  </g>
  <g class="guide xlabels" font-size="2.82" font-family="'PT Sans Caption','Helvetica Neue','Helvetica',sans-serif" fill="#6C606B" id="img-f2b48a63-3">
    <text x="18.88" y="83.6" text-anchor="middle" dy="0.6em">0</text>
    <text x="63.21" y="83.6" text-anchor="middle" dy="0.6em">2.0×10³</text>
    <text x="107.54" y="83.6" text-anchor="middle" dy="0.6em">4.0×10³</text>
    <text x="151.87" y="83.6" text-anchor="middle" dy="0.6em">6.0×10³</text>
    <text x="196.2" y="83.6" text-anchor="middle" dy="0.6em">8.0×10³</text>
  </g>
<g clip-path="url(#img-f2b48a63-4)">
  <g id="img-f2b48a63-5">
    <g pointer-events="visible" opacity="1" fill="#000000" fill-opacity="0.000" stroke="#000000" stroke-opacity="0.000" class="guide background" id="img-f2b48a63-6">
      <rect x="16.88" y="5" width="181.32" height="77.6"/>
    </g>
    <g class="guide ygridlines xfixed" stroke-dasharray="0.5,0.5" stroke-width="0.2" stroke="#D0D0E0" id="img-f2b48a63-7">
      <path fill="none" d="M16.88,80.6 L 198.2 80.6"/>
      <path fill="none" d="M16.88,68.34 L 198.2 68.34"/>
      <path fill="none" d="M16.88,56.07 L 198.2 56.07"/>
      <path fill="none" d="M16.88,43.8 L 198.2 43.8"/>
      <path fill="none" d="M16.88,31.53 L 198.2 31.53"/>
      <path fill="none" d="M16.88,19.27 L 198.2 19.27"/>
      <path fill="none" d="M16.88,7 L 198.2 7"/>
    </g>
    <g class="guide xgridlines yfixed" stroke-dasharray="0.5,0.5" stroke-width="0.2" stroke="#D0D0E0" id="img-f2b48a63-8">
      <path fill="none" d="M18.88,5 L 18.88 82.6"/>
      <path fill="none" d="M63.21,5 L 63.21 82.6"/>
      <path fill="none" d="M107.54,5 L 107.54 82.6"/>
      <path fill="none" d="M151.87,5 L 151.87 82.6"/>
      <path fill="none" d="M196.2,5 L 196.2 82.6"/>
    </g>
    <g class="plotpanel" id="img-f2b48a63-9">
      <g stroke-width="0.3" fill="#000000" fill-opacity="0.000" class="geometry" stroke-dasharray="none" stroke="#00BFFF" id="img-f2b48a63-10">
        <path fill="none" d="M25.2,80.6 L 25.77 80.6 26.34 80.6 26.91 80.6 27.48 80.6 28.05 80.6 28.62 80.59 29.19 80.59 29.75 80.57 30.32 80.55 30.89 80.52 31.46 80.49 32.03 80.45 32.6 80.4 33.17 80.34 33.74 80.25 34.3 80.14 34.87 80 35.44 79.83 36.01 79.62 36.58 79.39 37.15 79.12 37.72 78.82 38.29 78.48 38.85 78.07 39.42 77.58 39.99 77 40.56 76.35 41.13 75.63 41.7 74.85 42.27 74.04 42.84 73.2 43.4 72.34 43.97 71.43 44.54 70.45 45.11 69.37 45.68 68.16 46.25 66.79 46.82 65.26 47.39 63.57 47.95 61.76 48.52 59.84 49.09 57.88 49.66 55.93 50.23 54.01 50.8 52.15 51.37 50.31 51.94 48.43 52.5 46.44 53.07 44.32 53.64 42.1 54.21 39.88 54.78 37.7 55.35 35.6 55.92 33.51 56.49 31.43 57.05 29.38 57.62 27.44 58.19 25.64 58.76 23.96 59.33 22.34 59.9 20.72 60.47 19.11 61.04 17.55 61.6 16.09 62.17 14.76 62.74 13.56 63.31 12.49 63.88 11.58 64.45 10.82 65.02 10.19 65.59 9.62 66.15 9.05 66.72 8.46 67.29 7.93 67.86 7.53 68.43 7.33 69 7.34 69.57 7.53 70.14 7.86 70.7 8.28 71.27 8.78 71.84 9.35 72.41 10.02 72.98 10.81 73.55 11.73 74.12 12.73 74.69 13.77 75.25 14.81 75.82 15.83 76.39 16.84 76.96 17.86 77.53 18.93 78.1 20.07 78.67 21.28 79.24 22.53 79.8 23.81 80.37 25.15 80.94 26.61 81.51 28.2 82.08 29.87 82.65 31.53 83.22 33.12 83.79 34.62 84.35 36.03 84.92 37.37 85.49 38.65 86.06 39.9 86.63 41.14 87.2 42.43 87.77 43.76 88.34 45.11 88.9 46.42 89.47 47.68 90.04 48.9 90.61 50.11 91.18 51.32 91.75 52.51 92.32 53.7 92.89 54.88 93.45 56.03 94.02 57.16 94.59 58.24 95.16 59.29 95.73 60.29 96.3 61.26 96.87 62.16 97.44 63.01 98 63.82 98.57 64.61 99.14 65.4 99.71 66.16 100.28 66.89 100.85 67.59 101.42 68.23 101.99 68.82 102.55 69.36 103.12 69.85 103.69 70.31 104.26 70.76 104.83 71.22 105.4 71.7 105.97 72.19 106.54 72.66 107.11 73.1 107.67 73.49 108.24 73.85 108.81 74.21 109.38 74.58 109.95 74.96 110.52 75.32 111.09 75.64 111.66 75.9 112.22 76.1 112.79 76.27 113.36 76.46 113.93 76.68 114.5 76.92 115.07 77.17 115.64 77.42 116.21 77.65 116.77 77.86 117.34 78.07 117.91 78.26 118.48 78.43 119.05 78.57 119.62 78.68 120.19 78.76 120.76 78.83 121.32 78.9 121.89 79 122.46 79.12 123.03 79.26 123.6 79.4 124.17 79.52 124.74 79.62 125.31 79.7 125.87 79.77 126.44 79.85 127.01 79.93 127.58 80 128.15 80.05 128.72 80.08 129.29 80.1 129.86 80.12 130.42 80.13 130.99 80.15 131.56 80.17 132.13 80.18 132.7 80.2 133.27 80.21 133.84 80.23 134.41 80.25 134.97 80.27 135.54 80.3 136.11 80.33 136.68 80.34 137.25 80.36 137.82 80.37 138.39 80.38 138.96 80.4 139.52 80.42 140.09 80.44 140.66 80.46 141.23 80.47 141.8 80.49 142.37 80.49 142.94 80.5 143.51 80.5 144.07 80.5 144.64 80.51 145.21 80.51 145.78 80.52 146.35 80.53 146.92 80.53 147.49 80.54 148.06 80.54 148.62 80.55 149.19 80.55 149.76 80.55 150.33 80.56 150.9 80.57 151.47 80.58 152.04 80.58 152.61 80.59 153.17 80.58 153.74 80.58 154.31 80.58 154.88 80.57 155.45 80.58 156.02 80.58 156.59 80.59 157.16 80.59 157.72 80.6 158.29 80.6 158.86 80.6 159.43 80.6 160 80.59 160.57 80.6 161.14 80.6 161.71 80.6 162.27 80.6 162.84 80.6 163.41 80.6 163.98 80.6 164.55 80.6 165.12 80.6 165.69 80.6 166.26 80.6 166.82 80.6 167.39 80.6 167.96 80.6 168.53 80.6 169.1 80.6 169.67 80.6 170.24 80.6"/>
      </g>
    </g>
  </g>
</g>
  <g class="guide ylabels" font-size="2.82" font-family="'PT Sans Caption','Helvetica Neue','Helvetica',sans-serif" fill="#6C606B" id="img-f2b48a63-11">
    <text x="15.88" y="80.6" text-anchor="end" dy="0.35em">0.0000</text>
    <text x="15.88" y="68.34" text-anchor="end" dy="0.35em">0.0001</text>
    <text x="15.88" y="56.07" text-anchor="end" dy="0.35em">0.0002</text>
    <text x="15.88" y="43.8" text-anchor="end" dy="0.35em">0.0003</text>
    <text x="15.88" y="31.53" text-anchor="end" dy="0.35em">0.0004</text>
    <text x="15.88" y="19.27" text-anchor="end" dy="0.35em">0.0005</text>
    <text x="15.88" y="7" text-anchor="end" dy="0.35em">0.0006</text>
  </g>
</g>
<defs>
  <clipPath id="img-f2b48a63-4">
  <path d="M16.88,5 L 198.2 5 198.2 82.6 16.88 82.6" />
</clipPath>
</defs>
</svg>
