<?xml version="1.0" encoding="UTF-8"?>
<svg xmlns="http://www.w3.org/2000/svg"
     xmlns:xlink="http://www.w3.org/1999/xlink"
     xmlns:gadfly="http://www.gadflyjl.org/ns"
     version="1.2"
     width="152.4mm" height="101.6mm" viewBox="0 0 152.4 101.6"
     stroke="none"
     fill="#000000"
     stroke-width="0.3"
     font-size="3.88"
>
<g class="plotroot xscalable yscalable" id="img-f2b48a63-1">
  <g font-size="3.88" font-family="'PT Sans','Helvetica Neue','Helvetica',sans-serif" fill="#564A55" stroke="#000000" stroke-opacity="0.000" id="img-f2b48a63-2">
    <text x="81.72" y="89.99" text-anchor="middle" dy="0.6em">Parametric bootstrap estimates of σ²</text>
  </g>
  <g class="guide xlabels" font-size="2.82" font-family="'PT Sans Caption','Helvetica Neue','Helvetica',sans-serif" fill="#6C606B" id="img-f2b48a63-3">
    <text x="18.04" y="83.32" text-anchor="middle" dy="0.6em">0</text>
    <text x="49.88" y="83.32" text-anchor="middle" dy="0.6em">2.0×10³</text>
    <text x="81.72" y="83.32" text-anchor="middle" dy="0.6em">4.0×10³</text>
    <text x="113.56" y="83.32" text-anchor="middle" dy="0.6em">6.0×10³</text>
    <text x="145.4" y="83.32" text-anchor="middle" dy="0.6em">8.0×10³</text>
  </g>
<g clip-path="url(#img-f2b48a63-4)">
  <g id="img-f2b48a63-5">
    <g pointer-events="visible" opacity="1" fill="#000000" fill-opacity="0.000" stroke="#000000" stroke-opacity="0.000" class="guide background" id="img-f2b48a63-6">
      <rect x="16.04" y="5" width="131.36" height="77.32"/>
    </g>
    <g class="guide ygridlines xfixed" stroke-dasharray="0.5,0.5" stroke-width="0.2" stroke="#D0D0E0" id="img-f2b48a63-7">
      <path fill="none" d="M16.04,80.32 L 147.4 80.32"/>
      <path fill="none" d="M16.04,68.1 L 147.4 68.1"/>
      <path fill="none" d="M16.04,55.88 L 147.4 55.88"/>
      <path fill="none" d="M16.04,43.66 L 147.4 43.66"/>
      <path fill="none" d="M16.04,31.44 L 147.4 31.44"/>
      <path fill="none" d="M16.04,19.22 L 147.4 19.22"/>
      <path fill="none" d="M16.04,7 L 147.4 7"/>
    </g>
    <g class="guide xgridlines yfixed" stroke-dasharray="0.5,0.5" stroke-width="0.2" stroke="#D0D0E0" id="img-f2b48a63-8">
      <path fill="none" d="M18.04,5 L 18.04 82.32"/>
      <path fill="none" d="M49.88,5 L 49.88 82.32"/>
      <path fill="none" d="M81.72,5 L 81.72 82.32"/>
      <path fill="none" d="M113.56,5 L 113.56 82.32"/>
      <path fill="none" d="M145.4,5 L 145.4 82.32"/>
    </g>
    <g class="plotpanel" id="img-f2b48a63-9">
      <g stroke-width="0.3" fill="#000000" fill-opacity="0.000" class="geometry" stroke-dasharray="none" stroke="#00BFFF" id="img-f2b48a63-10">
        <path fill="none" d="M22.58,80.31 L 22.93 80.31 23.28 80.31 23.63 80.31 23.98 80.31 24.33 80.31 24.67 80.31 25.02 80.31 25.37 80.3 25.72 80.29 26.07 80.27 26.42 80.25 26.76 80.23 27.11 80.2 27.46 80.17 27.81 80.13 28.16 80.08 28.51 80.01 28.86 79.93 29.2 79.83 29.55 79.71 29.9 79.56 30.25 79.39 30.6 79.2 30.95 78.99 31.29 78.75 31.64 78.49 31.99 78.19 32.34 77.84 32.69 77.44 33.04 76.98 33.38 76.45 33.73 75.87 34.08 75.25 34.43 74.59 34.78 73.9 35.13 73.2 35.47 72.47 35.82 71.72 36.17 70.94 36.52 70.09 36.87 69.17 37.22 68.15 37.56 67.02 37.91 65.78 38.26 64.42 38.61 62.95 38.96 61.39 39.31 59.76 39.66 58.09 40 56.43 40.35 54.78 40.7 53.18 41.05 51.61 41.4 50.05 41.75 48.45 42.09 46.79 42.44 45.02 42.79 43.16 43.14 41.26 43.49 39.37 43.84 37.53 44.18 35.74 44.53 33.97 44.88 32.2 45.23 30.44 45.58 28.72 45.93 27.09 46.27 25.57 46.62 24.14 46.97 22.76 47.32 21.39 47.67 20.01 48.02 18.65 48.36 17.34 48.71 16.11 49.06 14.97 49.41 13.92 49.76 12.96 50.11 12.11 50.46 11.37 50.8 10.75 51.15 10.21 51.5 9.72 51.85 9.24 52.2 8.75 52.55 8.26 52.89 7.83 53.24 7.51 53.59 7.33 53.94 7.31 54.29 7.44 54.64 7.67 54.98 7.99 55.33 8.36 55.68 8.78 56.03 9.25 56.38 9.8 56.73 10.44 57.07 11.17 57.42 11.99 57.77 12.85 58.12 13.73 58.47 14.62 58.82 15.49 59.16 16.35 59.51 17.21 59.86 18.09 60.21 19 60.56 19.97 60.91 20.99 61.26 22.04 61.6 23.12 61.95 24.22 62.3 25.39 62.65 26.64 63 28 63.35 29.42 63.69 30.84 64.04 32.23 64.39 33.54 64.74 34.79 65.09 35.98 65.44 37.13 65.78 38.22 66.13 39.28 66.48 40.33 66.83 41.4 67.18 42.5 67.53 43.64 67.87 44.78 68.22 45.91 68.57 46.99 68.92 48.04 69.27 49.08 69.62 50.1 69.96 51.13 70.31 52.14 70.66 53.15 71.01 54.16 71.36 55.15 71.71 56.13 72.06 57.07 72.4 57.99 72.75 58.89 73.1 59.75 73.45 60.59 73.8 61.39 74.15 62.14 74.49 62.85 74.84 63.54 75.19 64.22 75.54 64.88 75.89 65.54 76.24 66.18 76.58 66.8 76.93 67.38 77.28 67.93 77.63 68.43 77.98 68.91 78.33 69.34 78.67 69.75 79.02 70.13 79.37 70.51 79.72 70.9 80.07 71.3 80.42 71.72 80.76 72.13 81.11 72.53 81.46 72.89 81.81 73.23 82.16 73.53 82.51 73.84 82.86 74.15 83.2 74.47 83.55 74.79 83.9 75.09 84.25 75.36 84.6 75.58 84.95 75.76 85.29 75.92 85.64 76.07 85.99 76.23 86.34 76.42 86.69 76.63 87.04 76.84 87.38 77.06 87.73 77.26 88.08 77.44 88.43 77.62 88.78 77.8 89.13 77.96 89.47 78.11 89.82 78.24 90.17 78.34 90.52 78.43 90.87 78.49 91.22 78.55 91.56 78.61 91.91 78.69 92.26 78.78 92.61 78.89 92.96 79.01 93.31 79.13 93.66 79.23 94 79.32 94.35 79.39 94.7 79.46 95.05 79.52 95.4 79.59 95.75 79.65 96.09 79.71 96.44 79.75 96.79 79.79 97.14 79.81 97.49 79.82 97.84 79.84 98.18 79.85 98.53 79.86 98.88 79.88 99.23 79.89 99.58 79.91 99.93 79.92 100.27 79.93 100.62 79.94 100.97 79.96 101.32 79.98 101.67 80 102.02 80.03 102.36 80.04 102.71 80.06 103.06 80.07 103.41 80.08 103.76 80.09 104.11 80.11 104.46 80.12 104.8 80.14 105.15 80.15 105.5 80.17 105.85 80.18 106.2 80.19 106.55 80.2 106.89 80.21 107.24 80.21 107.59 80.21 107.94 80.22 108.29 80.22 108.64 80.22 108.98 80.23 109.33 80.24 109.68 80.24 110.03 80.25 110.38 80.25 110.73 80.25 111.07 80.26 111.42 80.26 111.77 80.26 112.12 80.27 112.47 80.27 112.82 80.28 113.16 80.29 113.51 80.29 113.86 80.3 114.21 80.3 114.56 80.3 114.91 80.29 115.26 80.29 115.6 80.29 115.95 80.29 116.3 80.29 116.65 80.3 117 80.3 117.35 80.3 117.69 80.31 118.04 80.31 118.39 80.31 118.74 80.31 119.09 80.31 119.44 80.31 119.78 80.31 120.13 80.31 120.48 80.31 120.83 80.31 121.18 80.31 121.53 80.31 121.87 80.31 122.22 80.31 122.57 80.31 122.92 80.31 123.27 80.31 123.62 80.31 123.96 80.31 124.31 80.31 124.66 80.31 125.01 80.31 125.36 80.31 125.71 80.31 126.06 80.31 126.4 80.31 126.75 80.31"/>
      </g>
    </g>
  </g>
</g>
  <g class="guide ylabels" font-size="2.82" font-family="'PT Sans Caption','Helvetica Neue','Helvetica',sans-serif" fill="#6C606B" id="img-f2b48a63-11">
    <text x="15.04" y="80.32" text-anchor="end" dy="0.35em">0.0000</text>
    <text x="15.04" y="68.1" text-anchor="end" dy="0.35em">0.0001</text>
    <text x="15.04" y="55.88" text-anchor="end" dy="0.35em">0.0002</text>
    <text x="15.04" y="43.66" text-anchor="end" dy="0.35em">0.0003</text>
    <text x="15.04" y="31.44" text-anchor="end" dy="0.35em">0.0004</text>
    <text x="15.04" y="19.22" text-anchor="end" dy="0.35em">0.0005</text>
    <text x="15.04" y="7" text-anchor="end" dy="0.35em">0.0006</text>
  </g>
</g>
<defs>
  <clipPath id="img-f2b48a63-4">
  <path d="M16.04,5 L 147.4 5 147.4 82.32 16.04 82.32" />
</clipPath>
</defs>
</svg>
