<?xml version="1.0" encoding="UTF-8"?>
<svg xmlns="http://www.w3.org/2000/svg"
     xmlns:xlink="http://www.w3.org/1999/xlink"
     xmlns:gadfly="http://www.gadflyjl.org/ns"
     version="1.2"
     width="152.4mm" height="101.6mm" viewBox="0 0 152.4 101.6"
     stroke="none"
     fill="#000000"
     stroke-width="0.3"
     font-size="3.88"
>
<g class="plotroot xscalable yscalable" id="img-a5a3f5c1-1">
  <g font-size="3.88" font-family="'PT Sans','Helvetica Neue','Helvetica',sans-serif" fill="#564A55" stroke="#000000" stroke-opacity="0.000" id="img-a5a3f5c1-2">
    <text x="81.72" y="89.99" text-anchor="middle" dy="0.6em">Parametric bootstrap estimates of σ₁²</text>
  </g>
  <g class="guide xlabels" font-size="2.82" font-family="'PT Sans Caption','Helvetica Neue','Helvetica',sans-serif" fill="#6C606B" id="img-a5a3f5c1-3">
    <text x="18.04" y="83.32" text-anchor="middle" dy="0.6em">-5.0×10³</text>
    <text x="60.49" y="83.32" text-anchor="middle" dy="0.6em">0</text>
    <text x="102.95" y="83.32" text-anchor="middle" dy="0.6em">5.0×10³</text>
    <text x="145.4" y="83.32" text-anchor="middle" dy="0.6em">1.0×10⁴</text>
  </g>
<g clip-path="url(#img-a5a3f5c1-4)">
  <g id="img-a5a3f5c1-5">
    <g pointer-events="visible" opacity="1" fill="#000000" fill-opacity="0.000" stroke="#000000" stroke-opacity="0.000" class="guide background" id="img-a5a3f5c1-6">
      <rect x="16.04" y="5" width="131.36" height="77.32"/>
    </g>
    <g class="guide ygridlines xfixed" stroke-dasharray="0.5,0.5" stroke-width="0.2" stroke="#D0D0E0" id="img-a5a3f5c1-7">
      <path fill="none" d="M16.04,80.32 L 147.4 80.32"/>
      <path fill="none" d="M16.04,61.99 L 147.4 61.99"/>
      <path fill="none" d="M16.04,43.66 L 147.4 43.66"/>
      <path fill="none" d="M16.04,25.33 L 147.4 25.33"/>
      <path fill="none" d="M16.04,7 L 147.4 7"/>
    </g>
    <g class="guide xgridlines yfixed" stroke-dasharray="0.5,0.5" stroke-width="0.2" stroke="#D0D0E0" id="img-a5a3f5c1-8">
      <path fill="none" d="M18.04,5 L 18.04 82.32"/>
      <path fill="none" d="M60.49,5 L 60.49 82.32"/>
      <path fill="none" d="M102.95,5 L 102.95 82.32"/>
      <path fill="none" d="M145.4,5 L 145.4 82.32"/>
    </g>
    <g class="plotpanel" id="img-a5a3f5c1-9">
      <g stroke-width="0.3" fill="#000000" fill-opacity="0.000" class="geometry" stroke-dasharray="none" stroke="#00BFFF" id="img-a5a3f5c1-10">
        <path fill="none" d="M57.65,80.29 L 57.92 80.23 58.19 80.02 58.46 79.41 58.73 77.87 59 74.56 59.27 68.5 59.54 59.07 59.81 46.82 60.08 33.78 60.35 23.01 60.62 17.13 60.89 16.91 61.16 20.99 61.43 26.79 61.7 32.01 61.96 35.5 62.23 37.23 62.5 37.75 62.77 37.65 63.04 37.35 63.31 37.05 63.58 36.81 63.85 36.67 64.12 36.6 64.39 36.62 64.66 36.72 64.93 36.89 65.2 37.12 65.47 37.37 65.74 37.64 66.01 37.9 66.28 38.15 66.55 38.41 66.82 38.68 67.09 38.98 67.36 39.3 67.63 39.65 67.9 40.05 68.17 40.51 68.44 41.04 68.71 41.66 68.98 42.35 69.25 43.12 69.52 43.95 69.79 44.8 70.06 45.62 70.33 46.38 70.6 47.06 70.87 47.7 71.14 48.36 71.41 49.09 71.68 49.89 71.95 50.75 72.22 51.62 72.49 52.47 72.76 53.26 73.03 53.98 73.3 54.65 73.57 55.27 73.84 55.88 74.11 56.47 74.38 57.08 74.65 57.7 74.92 58.35 75.19 59 75.46 59.65 75.73 60.28 76 60.88 76.27 61.46 76.54 62.03 76.81 62.57 77.08 63.09 77.35 63.6 77.62 64.11 77.89 64.62 78.16 65.13 78.43 65.63 78.7 66.1 78.97 66.54 79.24 66.98 79.51 67.4 79.78 67.83 80.05 68.25 80.32 68.65 80.59 69.02 80.86 69.36 81.13 69.68 81.4 69.99 81.67 70.3 81.94 70.62 82.21 70.95 82.48 71.26 82.75 71.56 83.02 71.84 83.29 72.12 83.56 72.4 83.83 72.67 84.1 72.93 84.37 73.18 84.64 73.44 84.91 73.7 85.18 73.96 85.45 74.22 85.72 74.46 85.99 74.69 86.26 74.91 86.53 75.12 86.8 75.33 87.07 75.54 87.34 75.74 87.61 75.93 87.88 76.1 88.15 76.25 88.42 76.39 88.69 76.53 88.96 76.68 89.23 76.85 89.5 77.03 89.77 77.2 90.04 77.36 90.31 77.5 90.58 77.62 90.85 77.72 91.12 77.8 91.39 77.88 91.66 77.95 91.93 78.01 92.2 78.07 92.47 78.14 92.74 78.2 93.01 78.26 93.28 78.33 93.55 78.4 93.82 78.48 94.09 78.55 94.36 78.62 94.63 78.7 94.9 78.76 95.17 78.82 95.44 78.88 95.71 78.93 95.98 78.98 96.25 79.02 96.52 79.07 96.79 79.11 97.06 79.15 97.33 79.19 97.6 79.23 97.87 79.28 98.14 79.33 98.41 79.38 98.68 79.44 98.95 79.5 99.22 79.54 99.49 79.57 99.76 79.6 100.03 79.63 100.3 79.66 100.57 79.69 100.84 79.72 101.11 79.74 101.38 79.75 101.65 79.75 101.92 79.76 102.19 79.78 102.46 79.8 102.73 79.82 103 79.85 103.27 79.87 103.54 79.89 103.81 79.9 104.08 79.92 104.35 79.93 104.62 79.95 104.89 79.97 105.16 79.99 105.43 80 105.7 80.02 105.97 80.03 106.24 80.04 106.51 80.06 106.78 80.07 107.05 80.08 107.32 80.09 107.59 80.09 107.86 80.1 108.13 80.1 108.4 80.11 108.67 80.12 108.94 80.13 109.21 80.14 109.48 80.14 109.75 80.15 110.02 80.15 110.29 80.15 110.56 80.15 110.83 80.15 111.1 80.15 111.37 80.16 111.64 80.16 111.91 80.17 112.18 80.18 112.45 80.19 112.72 80.2 112.99 80.22 113.26 80.23 113.53 80.25 113.8 80.26 114.07 80.27 114.34 80.27 114.61 80.27 114.88 80.26 115.15 80.25 115.42 80.25 115.69 80.25 115.96 80.25 116.23 80.25 116.5 80.26 116.77 80.26 117.04 80.27 117.31 80.28 117.58 80.29 117.85 80.29 118.12 80.29 118.39 80.29 118.66 80.29 118.93 80.29 119.2 80.29 119.47 80.29 119.74 80.29 120.01 80.29 120.28 80.29 120.55 80.3 120.82 80.3 121.09 80.3 121.36 80.3 121.63 80.29 121.9 80.29 122.17 80.29 122.44 80.29 122.71 80.29 122.98 80.29 123.25 80.29 123.52 80.29 123.79 80.29 124.06 80.29 124.33 80.29 124.6 80.3 124.87 80.3 125.14 80.3 125.41 80.29 125.68 80.29 125.95 80.3 126.22 80.3 126.49 80.3 126.76 80.3 127.03 80.31 127.3 80.31 127.57 80.31 127.84 80.31 128.11 80.31 128.38 80.31 128.65 80.31 128.92 80.31 129.19 80.31 129.46 80.31 129.73 80.31 130 80.31 130.27 80.31 130.54 80.31 130.81 80.31 131.08 80.31 131.35 80.31 131.62 80.31 131.89 80.31 132.16 80.31 132.43 80.31 132.7 80.31 132.97 80.31 133.24 80.31 133.51 80.31 133.78 80.31 134.05 80.31 134.32 80.31 134.59 80.31 134.86 80.31 135.13 80.31 135.4 80.31 135.67 80.31 135.94 80.31 136.21 80.31 136.48 80.31 136.75 80.31 137.02 80.31 137.29 80.31 137.56 80.31 137.83 80.31 138.1 80.31 138.37 80.31"/>
      </g>
    </g>
  </g>
</g>
  <g class="guide ylabels" font-size="2.82" font-family="'PT Sans Caption','Helvetica Neue','Helvetica',sans-serif" fill="#6C606B" id="img-a5a3f5c1-11">
    <text x="15.04" y="80.32" text-anchor="end" dy="0.35em">0.0000</text>
    <text x="15.04" y="61.99" text-anchor="end" dy="0.35em">0.0002</text>
    <text x="15.04" y="43.66" text-anchor="end" dy="0.35em">0.0004</text>
    <text x="15.04" y="25.33" text-anchor="end" dy="0.35em">0.0006</text>
    <text x="15.04" y="7" text-anchor="end" dy="0.35em">0.0008</text>
  </g>
</g>
<defs>
  <clipPath id="img-a5a3f5c1-4">
  <path d="M16.04,5 L 147.4 5 147.4 82.32 16.04 82.32" />
</clipPath>
</defs>
</svg>
