<?xml version="1.0" encoding="UTF-8"?>
<svg xmlns="http://www.w3.org/2000/svg"
     xmlns:xlink="http://www.w3.org/1999/xlink"
     xmlns:gadfly="http://www.gadflyjl.org/ns"
     version="1.2"
     width="203.2mm" height="101.6mm" viewBox="0 0 203.2 101.6"
     stroke="none"
     fill="#000000"
     stroke-width="0.3"
     font-size="3.88"
>
<g class="plotroot xscalable yscalable" id="img-59845c2c-1">
  <g font-size="3.88" font-family="'PT Sans','Helvetica Neue','Helvetica',sans-serif" fill="#564A55" stroke="#000000" stroke-opacity="0.000" id="img-59845c2c-2">
    <g transform="translate(105.11,89.99)">
      <g class="primitive">
        <text text-anchor="middle" dy="0.6em">θ₃</text>
      </g>
    </g>
  </g>
  <g class="guide xlabels" font-size="2.82" font-family="'PT Sans Caption','Helvetica Neue','Helvetica',sans-serif" fill="#6C606B" id="img-59845c2c-3">
    <g transform="translate(14.02,83.32)">
      <g class="primitive">
        <text text-anchor="middle" dy="0.6em">0.0</text>
      </g>
    </g>
    <g transform="translate(59.56,83.32)">
      <g class="primitive">
        <text text-anchor="middle" dy="0.6em">0.1</text>
      </g>
    </g>
    <g transform="translate(105.11,83.32)">
      <g class="primitive">
        <text text-anchor="middle" dy="0.6em">0.2</text>
      </g>
    </g>
    <g transform="translate(150.66,83.32)">
      <g class="primitive">
        <text text-anchor="middle" dy="0.6em">0.3</text>
      </g>
    </g>
    <g transform="translate(196.2,83.32)">
      <g class="primitive">
        <text text-anchor="middle" dy="0.6em">0.4</text>
      </g>
    </g>
  </g>
  <g clip-path="url(#img-59845c2c-4)">
    <g id="img-59845c2c-5">
      <g pointer-events="visible" opacity="1" fill="#000000" fill-opacity="0.000" stroke="#000000" stroke-opacity="0.000" class="guide background" id="img-59845c2c-6">
        <g transform="translate(105.11,43.66)">
          <path d="M-93.09,-38.66 L 93.09 -38.66 93.09 38.66 -93.09 38.66 z" class="primitive"/>
        </g>
      </g>
      <g class="guide ygridlines xfixed" stroke-dasharray="0.5,0.5" stroke-width="0.2" stroke="#D0D0E0" id="img-59845c2c-7">
        <g transform="translate(105.11,80.32)">
          <path fill="none" d="M-93.09,0 L 93.09 0" class="primitive"/>
        </g>
        <g transform="translate(105.11,61.99)">
          <path fill="none" d="M-93.09,0 L 93.09 0" class="primitive"/>
        </g>
        <g transform="translate(105.11,43.66)">
          <path fill="none" d="M-93.09,0 L 93.09 0" class="primitive"/>
        </g>
        <g transform="translate(105.11,25.33)">
          <path fill="none" d="M-93.09,0 L 93.09 0" class="primitive"/>
        </g>
        <g transform="translate(105.11,7)">
          <path fill="none" d="M-93.09,0 L 93.09 0" class="primitive"/>
        </g>
      </g>
      <g class="guide xgridlines yfixed" stroke-dasharray="0.5,0.5" stroke-width="0.2" stroke="#D0D0E0" id="img-59845c2c-8">
        <g transform="translate(14.02,43.66)">
          <path fill="none" d="M0,-38.66 L 0 38.66" class="primitive"/>
        </g>
        <g transform="translate(59.56,43.66)">
          <path fill="none" d="M0,-38.66 L 0 38.66" class="primitive"/>
        </g>
        <g transform="translate(105.11,43.66)">
          <path fill="none" d="M0,-38.66 L 0 38.66" class="primitive"/>
        </g>
        <g transform="translate(150.66,43.66)">
          <path fill="none" d="M0,-38.66 L 0 38.66" class="primitive"/>
        </g>
        <g transform="translate(196.2,43.66)">
          <path fill="none" d="M0,-38.66 L 0 38.66" class="primitive"/>
        </g>
      </g>
      <g class="plotpanel" id="img-59845c2c-9">
        <metadata>
          <boundingbox value="12.02000000000001mm 5.0mm 186.17999999999998mm 77.315mm"/>
          <unitbox value="-0.00439126138983423 410.91181886380684 0.4087825227796684 -421.82363772761374"/>
        </metadata>
        <g shape-rendering="crispEdges" stroke-width="0.3" id="img-59845c2c-10">
          <g stroke="#000000" stroke-opacity="0.000" class="geometry" fill="#00BFFF" id="img-59845c2c-11">
            <g transform="translate(14.61,51.81)">
              <path d="M-0.62,-28.5 L 0.62 -28.5 0.62 28.5 -0.62 28.5 z" class="primitive"/>
            </g>
            <g transform="translate(15.79,80.13)">
              <path d="M-0.62,-0.18 L 0.62 -0.18 0.62 0.18 -0.62 0.18 z" class="primitive"/>
            </g>
            <g transform="translate(16.98,80.22)">
              <path d="M-0.62,-0.09 L 0.62 -0.09 0.62 0.09 -0.62 0.09 z" class="primitive"/>
            </g>
            <g transform="translate(18.16,80.13)">
              <path d="M-0.62,-0.18 L 0.62 -0.18 0.62 0.18 -0.62 0.18 z" class="primitive"/>
            </g>
            <g transform="translate(19.34,80.13)">
              <path d="M-0.62,-0.18 L 0.62 -0.18 0.62 0.18 -0.62 0.18 z" class="primitive"/>
            </g>
            <g transform="translate(20.53,80.13)">
              <path d="M-0.62,-0.18 L 0.62 -0.18 0.62 0.18 -0.62 0.18 z" class="primitive"/>
            </g>
            <g transform="translate(21.71,80.22)">
              <path d="M-0.62,-0.09 L 0.62 -0.09 0.62 0.09 -0.62 0.09 z" class="primitive"/>
            </g>
            <g transform="translate(22.89,80.13)">
              <path d="M-0.62,-0.18 L 0.62 -0.18 0.62 0.18 -0.62 0.18 z" class="primitive"/>
            </g>
            <g transform="translate(24.07,79.95)">
              <path d="M-0.62,-0.37 L 0.62 -0.37 0.62 0.37 -0.62 0.37 z" class="primitive"/>
            </g>
            <g transform="translate(25.26,80.22)">
              <path d="M-0.62,-0.09 L 0.62 -0.09 0.62 0.09 -0.62 0.09 z" class="primitive"/>
            </g>
            <g transform="translate(26.44,80.13)">
              <path d="M-0.62,-0.18 L 0.62 -0.18 0.62 0.18 -0.62 0.18 z" class="primitive"/>
            </g>
            <g transform="translate(27.62,79.77)">
              <path d="M-0.62,-0.55 L 0.62 -0.55 0.62 0.55 -0.62 0.55 z" class="primitive"/>
            </g>
            <g transform="translate(28.8,79.95)">
              <path d="M-0.62,-0.37 L 0.62 -0.37 0.62 0.37 -0.62 0.37 z" class="primitive"/>
            </g>
            <g transform="translate(29.99,79.86)">
              <path d="M-0.62,-0.46 L 0.62 -0.46 0.62 0.46 -0.62 0.46 z" class="primitive"/>
            </g>
            <g transform="translate(31.17,80.13)">
              <path d="M-0.62,-0.18 L 0.62 -0.18 0.62 0.18 -0.62 0.18 z" class="primitive"/>
            </g>
            <g transform="translate(32.35,79.95)">
              <path d="M-0.62,-0.37 L 0.62 -0.37 0.62 0.37 -0.62 0.37 z" class="primitive"/>
            </g>
            <g transform="translate(33.54,79.58)">
              <path d="M-0.62,-0.73 L 0.62 -0.73 0.62 0.73 -0.62 0.73 z" class="primitive"/>
            </g>
            <g transform="translate(34.72,79.95)">
              <path d="M-0.62,-0.37 L 0.62 -0.37 0.62 0.37 -0.62 0.37 z" class="primitive"/>
            </g>
            <g transform="translate(35.9,79.12)">
              <path d="M-0.62,-1.19 L 0.62 -1.19 0.62 1.19 -0.62 1.19 z" class="primitive"/>
            </g>
            <g transform="translate(37.08,79.31)">
              <path d="M-0.62,-1.01 L 0.62 -1.01 0.62 1.01 -0.62 1.01 z" class="primitive"/>
            </g>
            <g transform="translate(38.27,79.31)">
              <path d="M-0.62,-1.01 L 0.62 -1.01 0.62 1.01 -0.62 1.01 z" class="primitive"/>
            </g>
            <g transform="translate(39.45,79.12)">
              <path d="M-0.62,-1.19 L 0.62 -1.19 0.62 1.19 -0.62 1.19 z" class="primitive"/>
            </g>
            <g transform="translate(40.63,79.31)">
              <path d="M-0.62,-1.01 L 0.62 -1.01 0.62 1.01 -0.62 1.01 z" class="primitive"/>
            </g>
            <g transform="translate(41.82,79.03)">
              <path d="M-0.62,-1.28 L 0.62 -1.28 0.62 1.28 -0.62 1.28 z" class="primitive"/>
            </g>
            <g transform="translate(43,79.4)">
              <path d="M-0.62,-0.92 L 0.62 -0.92 0.62 0.92 -0.62 0.92 z" class="primitive"/>
            </g>
            <g transform="translate(44.18,79.22)">
              <path d="M-0.62,-1.1 L 0.62 -1.1 0.62 1.1 -0.62 1.1 z" class="primitive"/>
            </g>
            <g transform="translate(45.36,79.58)">
              <path d="M-0.62,-0.73 L 0.62 -0.73 0.62 0.73 -0.62 0.73 z" class="primitive"/>
            </g>
            <g transform="translate(46.55,79.31)">
              <path d="M-0.62,-1.01 L 0.62 -1.01 0.62 1.01 -0.62 1.01 z" class="primitive"/>
            </g>
            <g transform="translate(47.73,79.22)">
              <path d="M-0.62,-1.1 L 0.62 -1.1 0.62 1.1 -0.62 1.1 z" class="primitive"/>
            </g>
            <g transform="translate(48.91,78.94)">
              <path d="M-0.62,-1.37 L 0.62 -1.37 0.62 1.37 -0.62 1.37 z" class="primitive"/>
            </g>
            <g transform="translate(50.09,78.12)">
              <path d="M-0.62,-2.2 L 0.62 -2.2 0.62 2.2 -0.62 2.2 z" class="primitive"/>
            </g>
            <g transform="translate(51.28,79.22)">
              <path d="M-0.62,-1.1 L 0.62 -1.1 0.62 1.1 -0.62 1.1 z" class="primitive"/>
            </g>
            <g transform="translate(52.46,78.12)">
              <path d="M-0.62,-2.2 L 0.62 -2.2 0.62 2.2 -0.62 2.2 z" class="primitive"/>
            </g>
            <g transform="translate(53.64,77.75)">
              <path d="M-0.62,-2.57 L 0.62 -2.57 0.62 2.57 -0.62 2.57 z" class="primitive"/>
            </g>
            <g transform="translate(54.83,77.84)">
              <path d="M-0.62,-2.47 L 0.62 -2.47 0.62 2.47 -0.62 2.47 z" class="primitive"/>
            </g>
            <g transform="translate(56.01,78.02)">
              <path d="M-0.62,-2.29 L 0.62 -2.29 0.62 2.29 -0.62 2.29 z" class="primitive"/>
            </g>
            <g transform="translate(57.19,77.93)">
              <path d="M-0.62,-2.38 L 0.62 -2.38 0.62 2.38 -0.62 2.38 z" class="primitive"/>
            </g>
            <g transform="translate(58.37,77.84)">
              <path d="M-0.62,-2.47 L 0.62 -2.47 0.62 2.47 -0.62 2.47 z" class="primitive"/>
            </g>
            <g transform="translate(59.56,76.37)">
              <path d="M-0.62,-3.94 L 0.62 -3.94 0.62 3.94 -0.62 3.94 z" class="primitive"/>
            </g>
            <g transform="translate(60.74,77.02)">
              <path d="M-0.62,-3.3 L 0.62 -3.3 0.62 3.3 -0.62 3.3 z" class="primitive"/>
            </g>
            <g transform="translate(61.92,76.56)">
              <path d="M-0.62,-3.76 L 0.62 -3.76 0.62 3.76 -0.62 3.76 z" class="primitive"/>
            </g>
            <g transform="translate(63.11,76.37)">
              <path d="M-0.62,-3.94 L 0.62 -3.94 0.62 3.94 -0.62 3.94 z" class="primitive"/>
            </g>
            <g transform="translate(64.29,76.56)">
              <path d="M-0.62,-3.76 L 0.62 -3.76 0.62 3.76 -0.62 3.76 z" class="primitive"/>
            </g>
            <g transform="translate(65.47,76.1)">
              <path d="M-0.62,-4.22 L 0.62 -4.22 0.62 4.22 -0.62 4.22 z" class="primitive"/>
            </g>
            <g transform="translate(66.65,74.54)">
              <path d="M-0.62,-5.77 L 0.62 -5.77 0.62 5.77 -0.62 5.77 z" class="primitive"/>
            </g>
            <g transform="translate(67.84,76.37)">
              <path d="M-0.62,-3.94 L 0.62 -3.94 0.62 3.94 -0.62 3.94 z" class="primitive"/>
            </g>
            <g transform="translate(69.02,74.17)">
              <path d="M-0.62,-6.14 L 0.62 -6.14 0.62 6.14 -0.62 6.14 z" class="primitive"/>
            </g>
            <g transform="translate(70.2,74.27)">
              <path d="M-0.62,-6.05 L 0.62 -6.05 0.62 6.05 -0.62 6.05 z" class="primitive"/>
            </g>
            <g transform="translate(71.39,74.72)">
              <path d="M-0.62,-5.59 L 0.62 -5.59 0.62 5.59 -0.62 5.59 z" class="primitive"/>
            </g>
            <g transform="translate(72.57,74.08)">
              <path d="M-0.62,-6.23 L 0.62 -6.23 0.62 6.23 -0.62 6.23 z" class="primitive"/>
            </g>
            <g transform="translate(73.75,71.61)">
              <path d="M-0.62,-8.71 L 0.62 -8.71 0.62 8.71 -0.62 8.71 z" class="primitive"/>
            </g>
            <g transform="translate(74.93,73.72)">
              <path d="M-0.62,-6.6 L 0.62 -6.6 0.62 6.6 -0.62 6.6 z" class="primitive"/>
            </g>
            <g transform="translate(76.12,71.79)">
              <path d="M-0.62,-8.52 L 0.62 -8.52 0.62 8.52 -0.62 8.52 z" class="primitive"/>
            </g>
            <g transform="translate(77.3,72.98)">
              <path d="M-0.62,-7.33 L 0.62 -7.33 0.62 7.33 -0.62 7.33 z" class="primitive"/>
            </g>
            <g transform="translate(78.48,70.69)">
              <path d="M-0.62,-9.62 L 0.62 -9.62 0.62 9.62 -0.62 9.62 z" class="primitive"/>
            </g>
            <g transform="translate(79.66,71.43)">
              <path d="M-0.62,-8.89 L 0.62 -8.89 0.62 8.89 -0.62 8.89 z" class="primitive"/>
            </g>
            <g transform="translate(80.85,70.51)">
              <path d="M-0.62,-9.81 L 0.62 -9.81 0.62 9.81 -0.62 9.81 z" class="primitive"/>
            </g>
            <g transform="translate(82.03,70.42)">
              <path d="M-0.62,-9.9 L 0.62 -9.9 0.62 9.9 -0.62 9.9 z" class="primitive"/>
            </g>
            <g transform="translate(83.21,69.59)">
              <path d="M-0.62,-10.72 L 0.62 -10.72 0.62 10.72 -0.62 10.72 z" class="primitive"/>
            </g>
            <g transform="translate(84.4,68.13)">
              <path d="M-0.62,-12.19 L 0.62 -12.19 0.62 12.19 -0.62 12.19 z" class="primitive"/>
            </g>
            <g transform="translate(85.58,68.49)">
              <path d="M-0.62,-11.82 L 0.62 -11.82 0.62 11.82 -0.62 11.82 z" class="primitive"/>
            </g>
            <g transform="translate(86.76,65.56)">
              <path d="M-0.62,-14.75 L 0.62 -14.75 0.62 14.75 -0.62 14.75 z" class="primitive"/>
            </g>
            <g transform="translate(87.94,66.48)">
              <path d="M-0.62,-13.84 L 0.62 -13.84 0.62 13.84 -0.62 13.84 z" class="primitive"/>
            </g>
            <g transform="translate(89.13,67.21)">
              <path d="M-0.62,-13.11 L 0.62 -13.11 0.62 13.11 -0.62 13.11 z" class="primitive"/>
            </g>
            <g transform="translate(90.31,66.11)">
              <path d="M-0.62,-14.2 L 0.62 -14.2 0.62 14.2 -0.62 14.2 z" class="primitive"/>
            </g>
            <g transform="translate(91.49,66.66)">
              <path d="M-0.62,-13.65 L 0.62 -13.65 0.62 13.65 -0.62 13.65 z" class="primitive"/>
            </g>
            <g transform="translate(92.68,65.29)">
              <path d="M-0.62,-15.03 L 0.62 -15.03 0.62 15.03 -0.62 15.03 z" class="primitive"/>
            </g>
            <g transform="translate(93.86,66.48)">
              <path d="M-0.62,-13.84 L 0.62 -13.84 0.62 13.84 -0.62 13.84 z" class="primitive"/>
            </g>
            <g transform="translate(95.04,63.82)">
              <path d="M-0.62,-16.5 L 0.62 -16.5 0.62 16.5 -0.62 16.5 z" class="primitive"/>
            </g>
            <g transform="translate(96.22,63.36)">
              <path d="M-0.62,-16.95 L 0.62 -16.95 0.62 16.95 -0.62 16.95 z" class="primitive"/>
            </g>
            <g transform="translate(97.41,64.37)">
              <path d="M-0.62,-15.95 L 0.62 -15.95 0.62 15.95 -0.62 15.95 z" class="primitive"/>
            </g>
            <g transform="translate(98.59,63.64)">
              <path d="M-0.62,-16.68 L 0.62 -16.68 0.62 16.68 -0.62 16.68 z" class="primitive"/>
            </g>
            <g transform="translate(99.77,63.64)">
              <path d="M-0.62,-16.68 L 0.62 -16.68 0.62 16.68 -0.62 16.68 z" class="primitive"/>
            </g>
            <g transform="translate(100.95,62.63)">
              <path d="M-0.62,-17.69 L 0.62 -17.69 0.62 17.69 -0.62 17.69 z" class="primitive"/>
            </g>
            <g transform="translate(102.14,61.07)">
              <path d="M-0.62,-19.25 L 0.62 -19.25 0.62 19.25 -0.62 19.25 z" class="primitive"/>
            </g>
            <g transform="translate(103.32,62.9)">
              <path d="M-0.62,-17.41 L 0.62 -17.41 0.62 17.41 -0.62 17.41 z" class="primitive"/>
            </g>
            <g transform="translate(104.5,64.28)">
              <path d="M-0.62,-16.04 L 0.62 -16.04 0.62 16.04 -0.62 16.04 z" class="primitive"/>
            </g>
            <g transform="translate(105.69,60.7)">
              <path d="M-0.62,-19.61 L 0.62 -19.61 0.62 19.61 -0.62 19.61 z" class="primitive"/>
            </g>
            <g transform="translate(106.87,62.54)">
              <path d="M-0.62,-17.78 L 0.62 -17.78 0.62 17.78 -0.62 17.78 z" class="primitive"/>
            </g>
            <g transform="translate(108.05,63.91)">
              <path d="M-0.62,-16.4 L 0.62 -16.4 0.62 16.4 -0.62 16.4 z" class="primitive"/>
            </g>
            <g transform="translate(109.23,64.46)">
              <path d="M-0.62,-15.85 L 0.62 -15.85 0.62 15.85 -0.62 15.85 z" class="primitive"/>
            </g>
            <g transform="translate(110.42,61.99)">
              <path d="M-0.62,-18.33 L 0.62 -18.33 0.62 18.33 -0.62 18.33 z" class="primitive"/>
            </g>
            <g transform="translate(111.6,64.37)">
              <path d="M-0.62,-15.95 L 0.62 -15.95 0.62 15.95 -0.62 15.95 z" class="primitive"/>
            </g>
            <g transform="translate(112.78,60.89)">
              <path d="M-0.62,-19.43 L 0.62 -19.43 0.62 19.43 -0.62 19.43 z" class="primitive"/>
            </g>
            <g transform="translate(113.97,64.74)">
              <path d="M-0.62,-15.58 L 0.62 -15.58 0.62 15.58 -0.62 15.58 z" class="primitive"/>
            </g>
            <g transform="translate(115.15,63.91)">
              <path d="M-0.62,-16.4 L 0.62 -16.4 0.62 16.4 -0.62 16.4 z" class="primitive"/>
            </g>
            <g transform="translate(116.33,66.02)">
              <path d="M-0.62,-14.3 L 0.62 -14.3 0.62 14.3 -0.62 14.3 z" class="primitive"/>
            </g>
            <g transform="translate(117.51,64.37)">
              <path d="M-0.62,-15.95 L 0.62 -15.95 0.62 15.95 -0.62 15.95 z" class="primitive"/>
            </g>
            <g transform="translate(118.7,67.76)">
              <path d="M-0.62,-12.56 L 0.62 -12.56 0.62 12.56 -0.62 12.56 z" class="primitive"/>
            </g>
            <g transform="translate(119.88,64.19)">
              <path d="M-0.62,-16.13 L 0.62 -16.13 0.62 16.13 -0.62 16.13 z" class="primitive"/>
            </g>
            <g transform="translate(121.06,66.66)">
              <path d="M-0.62,-13.65 L 0.62 -13.65 0.62 13.65 -0.62 13.65 z" class="primitive"/>
            </g>
            <g transform="translate(122.24,67.3)">
              <path d="M-0.62,-13.01 L 0.62 -13.01 0.62 13.01 -0.62 13.01 z" class="primitive"/>
            </g>
            <g transform="translate(123.43,67.85)">
              <path d="M-0.62,-12.46 L 0.62 -12.46 0.62 12.46 -0.62 12.46 z" class="primitive"/>
            </g>
            <g transform="translate(124.61,67.12)">
              <path d="M-0.62,-13.2 L 0.62 -13.2 0.62 13.2 -0.62 13.2 z" class="primitive"/>
            </g>
            <g transform="translate(125.79,67.39)">
              <path d="M-0.62,-12.92 L 0.62 -12.92 0.62 12.92 -0.62 12.92 z" class="primitive"/>
            </g>
            <g transform="translate(126.98,67.85)">
              <path d="M-0.62,-12.46 L 0.62 -12.46 0.62 12.46 -0.62 12.46 z" class="primitive"/>
            </g>
            <g transform="translate(128.16,69.41)">
              <path d="M-0.62,-10.91 L 0.62 -10.91 0.62 10.91 -0.62 10.91 z" class="primitive"/>
            </g>
            <g transform="translate(129.34,69.13)">
              <path d="M-0.62,-11.18 L 0.62 -11.18 0.62 11.18 -0.62 11.18 z" class="primitive"/>
            </g>
            <g transform="translate(130.52,71.98)">
              <path d="M-0.62,-8.34 L 0.62 -8.34 0.62 8.34 -0.62 8.34 z" class="primitive"/>
            </g>
            <g transform="translate(131.71,70.05)">
              <path d="M-0.62,-10.26 L 0.62 -10.26 0.62 10.26 -0.62 10.26 z" class="primitive"/>
            </g>
            <g transform="translate(132.89,72.16)">
              <path d="M-0.62,-8.16 L 0.62 -8.16 0.62 8.16 -0.62 8.16 z" class="primitive"/>
            </g>
            <g transform="translate(134.07,72.71)">
              <path d="M-0.62,-7.61 L 0.62 -7.61 0.62 7.61 -0.62 7.61 z" class="primitive"/>
            </g>
            <g transform="translate(135.26,71.61)">
              <path d="M-0.62,-8.71 L 0.62 -8.71 0.62 8.71 -0.62 8.71 z" class="primitive"/>
            </g>
            <g transform="translate(136.44,73.17)">
              <path d="M-0.62,-7.15 L 0.62 -7.15 0.62 7.15 -0.62 7.15 z" class="primitive"/>
            </g>
            <g transform="translate(137.62,74.45)">
              <path d="M-0.62,-5.87 L 0.62 -5.87 0.62 5.87 -0.62 5.87 z" class="primitive"/>
            </g>
            <g transform="translate(138.8,73.26)">
              <path d="M-0.62,-7.06 L 0.62 -7.06 0.62 7.06 -0.62 7.06 z" class="primitive"/>
            </g>
            <g transform="translate(139.99,73.99)">
              <path d="M-0.62,-6.32 L 0.62 -6.32 0.62 6.32 -0.62 6.32 z" class="primitive"/>
            </g>
            <g transform="translate(141.17,75.64)">
              <path d="M-0.62,-4.67 L 0.62 -4.67 0.62 4.67 -0.62 4.67 z" class="primitive"/>
            </g>
            <g transform="translate(142.35,74.91)">
              <path d="M-0.62,-5.41 L 0.62 -5.41 0.62 5.41 -0.62 5.41 z" class="primitive"/>
            </g>
            <g transform="translate(143.53,75.27)">
              <path d="M-0.62,-5.04 L 0.62 -5.04 0.62 5.04 -0.62 5.04 z" class="primitive"/>
            </g>
            <g transform="translate(144.72,76.19)">
              <path d="M-0.62,-4.12 L 0.62 -4.12 0.62 4.12 -0.62 4.12 z" class="primitive"/>
            </g>
            <g transform="translate(145.9,76.1)">
              <path d="M-0.62,-4.22 L 0.62 -4.22 0.62 4.22 -0.62 4.22 z" class="primitive"/>
            </g>
            <g transform="translate(147.08,78.12)">
              <path d="M-0.62,-2.2 L 0.62 -2.2 0.62 2.2 -0.62 2.2 z" class="primitive"/>
            </g>
            <g transform="translate(148.27,77.47)">
              <path d="M-0.62,-2.84 L 0.62 -2.84 0.62 2.84 -0.62 2.84 z" class="primitive"/>
            </g>
            <g transform="translate(149.45,77.47)">
              <path d="M-0.62,-2.84 L 0.62 -2.84 0.62 2.84 -0.62 2.84 z" class="primitive"/>
            </g>
            <g transform="translate(150.63,77.47)">
              <path d="M-0.62,-2.84 L 0.62 -2.84 0.62 2.84 -0.62 2.84 z" class="primitive"/>
            </g>
            <g transform="translate(151.81,78.12)">
              <path d="M-0.62,-2.2 L 0.62 -2.2 0.62 2.2 -0.62 2.2 z" class="primitive"/>
            </g>
            <g transform="translate(153,77.38)">
              <path d="M-0.62,-2.93 L 0.62 -2.93 0.62 2.93 -0.62 2.93 z" class="primitive"/>
            </g>
            <g transform="translate(154.18,78.21)">
              <path d="M-0.62,-2.11 L 0.62 -2.11 0.62 2.11 -0.62 2.11 z" class="primitive"/>
            </g>
            <g transform="translate(155.36,78.57)">
              <path d="M-0.62,-1.74 L 0.62 -1.74 0.62 1.74 -0.62 1.74 z" class="primitive"/>
            </g>
            <g transform="translate(156.55,78.57)">
              <path d="M-0.62,-1.74 L 0.62 -1.74 0.62 1.74 -0.62 1.74 z" class="primitive"/>
            </g>
            <g transform="translate(157.73,79.4)">
              <path d="M-0.62,-0.92 L 0.62 -0.92 0.62 0.92 -0.62 0.92 z" class="primitive"/>
            </g>
            <g transform="translate(158.91,79.77)">
              <path d="M-0.62,-0.55 L 0.62 -0.55 0.62 0.55 -0.62 0.55 z" class="primitive"/>
            </g>
            <g transform="translate(160.09,79.12)">
              <path d="M-0.62,-1.19 L 0.62 -1.19 0.62 1.19 -0.62 1.19 z" class="primitive"/>
            </g>
            <g transform="translate(161.28,78.94)">
              <path d="M-0.62,-1.37 L 0.62 -1.37 0.62 1.37 -0.62 1.37 z" class="primitive"/>
            </g>
            <g transform="translate(162.46,79.22)">
              <path d="M-0.62,-1.1 L 0.62 -1.1 0.62 1.1 -0.62 1.1 z" class="primitive"/>
            </g>
            <g transform="translate(163.64,79.67)">
              <path d="M-0.62,-0.64 L 0.62 -0.64 0.62 0.64 -0.62 0.64 z" class="primitive"/>
            </g>
            <g transform="translate(164.82,79.86)">
              <path d="M-0.62,-0.46 L 0.62 -0.46 0.62 0.46 -0.62 0.46 z" class="primitive"/>
            </g>
            <g transform="translate(166.01,79.77)">
              <path d="M-0.62,-0.55 L 0.62 -0.55 0.62 0.55 -0.62 0.55 z" class="primitive"/>
            </g>
            <g transform="translate(167.19,79.49)">
              <path d="M-0.62,-0.82 L 0.62 -0.82 0.62 0.82 -0.62 0.82 z" class="primitive"/>
            </g>
            <g transform="translate(168.37,79.86)">
              <path d="M-0.62,-0.46 L 0.62 -0.46 0.62 0.46 -0.62 0.46 z" class="primitive"/>
            </g>
            <g transform="translate(169.56,79.86)">
              <path d="M-0.62,-0.46 L 0.62 -0.46 0.62 0.46 -0.62 0.46 z" class="primitive"/>
            </g>
            <g transform="translate(170.74,80.04)">
              <path d="M-0.62,-0.27 L 0.62 -0.27 0.62 0.27 -0.62 0.27 z" class="primitive"/>
            </g>
            <g transform="translate(171.92,79.77)">
              <path d="M-0.62,-0.55 L 0.62 -0.55 0.62 0.55 -0.62 0.55 z" class="primitive"/>
            </g>
            <g transform="translate(173.1,80.04)">
              <path d="M-0.62,-0.27 L 0.62 -0.27 0.62 0.27 -0.62 0.27 z" class="primitive"/>
            </g>
            <g transform="translate(174.29,79.95)">
              <path d="M-0.62,-0.37 L 0.62 -0.37 0.62 0.37 -0.62 0.37 z" class="primitive"/>
            </g>
            <g transform="translate(175.47,79.95)">
              <path d="M-0.62,-0.37 L 0.62 -0.37 0.62 0.37 -0.62 0.37 z" class="primitive"/>
            </g>
            <g transform="translate(176.65,80.04)">
              <path d="M-0.62,-0.27 L 0.62 -0.27 0.62 0.27 -0.62 0.27 z" class="primitive"/>
            </g>
            <g transform="translate(177.84,80.13)">
              <path d="M-0.62,-0.18 L 0.62 -0.18 0.62 0.18 -0.62 0.18 z" class="primitive"/>
            </g>
            <g transform="translate(179.02,80.13)">
              <path d="M-0.62,-0.18 L 0.62 -0.18 0.62 0.18 -0.62 0.18 z" class="primitive"/>
            </g>
            <g transform="translate(180.2,80.22)">
              <path d="M-0.62,-0.09 L 0.62 -0.09 0.62 0.09 -0.62 0.09 z" class="primitive"/>
            </g>
            <g transform="translate(181.38,80.13)">
              <path d="M-0.62,-0.18 L 0.62 -0.18 0.62 0.18 -0.62 0.18 z" class="primitive"/>
            </g>
            <g transform="translate(182.57,80.22)">
              <path d="M-0.62,-0.09 L 0.62 -0.09 0.62 0.09 -0.62 0.09 z" class="primitive"/>
            </g>
            <g transform="translate(183.75,80.32)">
              <path d="M-0.62,-0 L 0.62 -0 0.62 0 -0.62 0 z" class="primitive"/>
            </g>
            <g transform="translate(184.93,80.32)">
              <path d="M-0.62,-0 L 0.62 -0 0.62 0 -0.62 0 z" class="primitive"/>
            </g>
            <g transform="translate(186.12,80.32)">
              <path d="M-0.62,-0 L 0.62 -0 0.62 0 -0.62 0 z" class="primitive"/>
            </g>
            <g transform="translate(187.3,80.22)">
              <path d="M-0.62,-0.09 L 0.62 -0.09 0.62 0.09 -0.62 0.09 z" class="primitive"/>
            </g>
            <g transform="translate(188.48,80.13)">
              <path d="M-0.62,-0.18 L 0.62 -0.18 0.62 0.18 -0.62 0.18 z" class="primitive"/>
            </g>
            <g transform="translate(189.66,80.22)">
              <path d="M-0.62,-0.09 L 0.62 -0.09 0.62 0.09 -0.62 0.09 z" class="primitive"/>
            </g>
            <g transform="translate(190.85,80.22)">
              <path d="M-0.62,-0.09 L 0.62 -0.09 0.62 0.09 -0.62 0.09 z" class="primitive"/>
            </g>
          </g>
        </g>
      </g>
    </g>
  </g>
  <g class="guide ylabels" font-size="2.82" font-family="'PT Sans Caption','Helvetica Neue','Helvetica',sans-serif" fill="#6C606B" id="img-59845c2c-12">
    <g transform="translate(11.02,80.32)">
      <g class="primitive">
        <text text-anchor="end" dy="0.35em">0</text>
      </g>
    </g>
    <g transform="translate(11.02,61.99)">
      <g class="primitive">
        <text text-anchor="end" dy="0.35em">100</text>
      </g>
    </g>
    <g transform="translate(11.02,43.66)">
      <g class="primitive">
        <text text-anchor="end" dy="0.35em">200</text>
      </g>
    </g>
    <g transform="translate(11.02,25.33)">
      <g class="primitive">
        <text text-anchor="end" dy="0.35em">300</text>
      </g>
    </g>
    <g transform="translate(11.02,7)">
      <g class="primitive">
        <text text-anchor="end" dy="0.35em">400</text>
      </g>
    </g>
  </g>
</g>
<defs>
  <clipPath id="img-59845c2c-4">
    <path d="M12.02,5 L 198.2 5 198.2 82.32 12.02 82.32" />
  </clipPath>
</defs>
</svg>
