<?xml version="1.0" encoding="UTF-8"?>
<svg xmlns="http://www.w3.org/2000/svg"
     xmlns:xlink="http://www.w3.org/1999/xlink"
     xmlns:gadfly="http://www.gadflyjl.org/ns"
     version="1.2"
     width="203.2mm" height="101.6mm" viewBox="0 0 203.2 101.6"
     stroke="none"
     fill="#000000"
     stroke-width="0.3"
     font-size="3.88"
>
<g class="plotroot xscalable yscalable" id="img-f2b48a63-1">
  <g font-size="3.88" font-family="'PT Sans','Helvetica Neue','Helvetica',sans-serif" fill="#564A55" stroke="#000000" stroke-opacity="0.000" id="img-f2b48a63-2">
    <text x="105.45" y="89.99" text-anchor="middle" dy="0.6em">Parametric bootstrap estimates of σ</text>
  </g>
  <g class="guide xlabels" font-size="2.82" font-family="'PT Sans Caption','Helvetica Neue','Helvetica',sans-serif" fill="#6C606B" id="img-f2b48a63-3">
    <text x="14.69" y="83.32" text-anchor="middle" dy="0.6em">0</text>
    <text x="105.45" y="83.32" text-anchor="middle" dy="0.6em">50</text>
    <text x="196.2" y="83.32" text-anchor="middle" dy="0.6em">100</text>
  </g>
<g clip-path="url(#img-f2b48a63-4)">
  <g id="img-f2b48a63-5">
    <g pointer-events="visible" opacity="1" fill="#000000" fill-opacity="0.000" stroke="#000000" stroke-opacity="0.000" class="guide background" id="img-f2b48a63-6">
      <rect x="12.69" y="5" width="185.51" height="77.32"/>
    </g>
    <g class="guide ygridlines xfixed" stroke-dasharray="0.5,0.5" stroke-width="0.2" stroke="#D0D0E0" id="img-f2b48a63-7">
      <path fill="none" d="M12.69,80.32 L 198.2 80.32"/>
      <path fill="none" d="M12.69,68.1 L 198.2 68.1"/>
      <path fill="none" d="M12.69,55.88 L 198.2 55.88"/>
      <path fill="none" d="M12.69,43.66 L 198.2 43.66"/>
      <path fill="none" d="M12.69,31.44 L 198.2 31.44"/>
      <path fill="none" d="M12.69,19.22 L 198.2 19.22"/>
      <path fill="none" d="M12.69,7 L 198.2 7"/>
    </g>
    <g class="guide xgridlines yfixed" stroke-dasharray="0.5,0.5" stroke-width="0.2" stroke="#D0D0E0" id="img-f2b48a63-8">
      <path fill="none" d="M14.69,5 L 14.69 82.32"/>
      <path fill="none" d="M105.45,5 L 105.45 82.32"/>
      <path fill="none" d="M196.2,5 L 196.2 82.32"/>
    </g>
    <g class="plotpanel" id="img-f2b48a63-9">
      <g stroke-width="0.3" fill="#000000" fill-opacity="0.000" class="geometry" id="img-f2b48a63-10">
        <g stroke-dasharray="none" stroke="#00BFFF" id="img-f2b48a63-11">
          <path fill="none" d="M51.98,80.31 L 52.43 80.31 52.88 80.31 53.33 80.31 53.78 80.31 54.23 80.31 54.68 80.31 55.13 80.31 55.58 80.3 56.02 80.3 56.47 80.29 56.92 80.28 57.37 80.27 57.82 80.27 58.27 80.26 58.72 80.25 59.17 80.25 59.62 80.24 60.07 80.23 60.52 80.21 60.97 80.19 61.41 80.17 61.86 80.15 62.31 80.12 62.76 80.09 63.21 80.05 63.66 80.01 64.11 79.96 64.56 79.9 65.01 79.83 65.46 79.75 65.91 79.66 66.36 79.57 66.81 79.48 67.25 79.39 67.7 79.29 68.15 79.19 68.6 79.07 69.05 78.94 69.5 78.77 69.95 78.58 70.4 78.35 70.85 78.1 71.3 77.82 71.75 77.52 72.2 77.21 72.65 76.88 73.09 76.53 73.54 76.16 73.99 75.78 74.44 75.39 74.89 74.99 75.34 74.59 75.79 74.19 76.24 73.75 76.69 73.26 77.14 72.72 77.59 72.13 78.04 71.48 78.48 70.76 78.93 69.96 79.38 69.08 79.83 68.13 80.28 67.11 80.73 66.03 81.18 64.9 81.63 63.73 82.08 62.54 82.53 61.36 82.98 60.2 83.43 59.06 83.88 57.94 84.32 56.82 84.77 55.65 85.22 54.4 85.67 53.02 86.12 51.5 86.57 49.88 87.02 48.25 87.47 46.67 87.92 45.16 88.37 43.68 88.82 42.18 89.27 40.59 89.72 38.94 90.16 37.29 90.61 35.71 91.06 34.25 91.51 32.88 91.96 31.52 92.41 30.13 92.86 28.67 93.31 27.18 93.76 25.71 94.21 24.3 94.66 22.96 95.11 21.69 95.56 20.48 96 19.34 96.45 18.3 96.9 17.37 97.35 16.54 97.8 15.75 98.25 14.96 98.7 14.13 99.15 13.28 99.6 12.47 100.05 11.78 100.5 11.25 100.95 10.91 101.39 10.72 101.84 10.65 102.29 10.66 102.74 10.73 103.19 10.86 103.64 11.07 104.09 11.39 104.54 11.85 104.99 12.42 105.44 13.06 105.89 13.74 106.34 14.42 106.79 15.11 107.23 15.8 107.68 16.53 108.13 17.32 108.58 18.2 109.03 19.16 109.48 20.18 109.93 21.28 110.38 22.48 110.83 23.81 111.28 25.27 111.73 26.8 112.18 28.34 112.63 29.84 113.07 31.26 113.52 32.61 113.97 33.91 114.42 35.18 114.87 36.45 115.32 37.76 115.77 39.12 116.22 40.52 116.67 41.92 117.12 43.3 117.57 44.66 118.02 46.01 118.47 47.37 118.91 48.73 119.36 50.09 119.81 51.45 120.26 52.79 120.71 54.09 121.16 55.36 121.61 56.58 122.06 57.75 122.51 58.86 122.96 59.92 123.41 60.95 123.86 61.95 124.3 62.93 124.75 63.86 125.2 64.74 125.65 65.56 126.1 66.32 126.55 67.01 127 67.67 127.45 68.32 127.9 68.97 128.35 69.62 128.8 70.27 129.25 70.88 129.7 71.47 130.14 72.02 130.59 72.56 131.04 73.08 131.49 73.56 131.94 73.99 132.39 74.37 132.84 74.72 133.29 75.05 133.74 75.4 134.19 75.76 134.64 76.12 135.09 76.48 135.54 76.81 135.98 77.11 136.43 77.37 136.88 77.59 137.33 77.78 137.78 77.95 138.23 78.12 138.68 78.3 139.13 78.49 139.58 78.69 140.03 78.87 140.48 79.04 140.93 79.19 141.37 79.32 141.82 79.43 142.27 79.51 142.72 79.58 143.17 79.62 143.62 79.66 144.07 79.69 144.52 79.72 144.97 79.76 145.42 79.79 145.87 79.83 146.32 79.87 146.77 79.91 147.21 79.94 147.66 79.98 148.11 80.01 148.56 80.04 149.01 80.07 149.46 80.1 149.91 80.13 150.36 80.15 150.81 80.16 151.26 80.17 151.71 80.18 152.16 80.19 152.61 80.21 153.05 80.22 153.5 80.23 153.95 80.24 154.4 80.25 154.85 80.26 155.3 80.27 155.75 80.28 156.2 80.28 156.65 80.28 157.1 80.28 157.55 80.29 158 80.29 158.45 80.3 158.89 80.3 159.34 80.3 159.79 80.3 160.24 80.31 160.69 80.31 161.14 80.31 161.59 80.31 162.04 80.31 162.49 80.31 162.94 80.31 163.39 80.31 163.84 80.31 164.28 80.31 164.73 80.31 165.18 80.31 165.63 80.31 166.08 80.31 166.53 80.31"/>
        </g>
      </g>
    </g>
  </g>
</g>
  <g class="guide ylabels" font-size="2.82" font-family="'PT Sans Caption','Helvetica Neue','Helvetica',sans-serif" fill="#6C606B" id="img-f2b48a63-12">
    <text x="11.69" y="80.32" text-anchor="end" dy="0.35em">0.00</text>
    <text x="11.69" y="68.1" text-anchor="end" dy="0.35em">0.01</text>
    <text x="11.69" y="55.88" text-anchor="end" dy="0.35em">0.02</text>
    <text x="11.69" y="43.66" text-anchor="end" dy="0.35em">0.03</text>
    <text x="11.69" y="31.44" text-anchor="end" dy="0.35em">0.04</text>
    <text x="11.69" y="19.22" text-anchor="end" dy="0.35em">0.05</text>
    <text x="11.69" y="7" text-anchor="end" dy="0.35em">0.06</text>
  </g>
</g>
<defs>
  <clipPath id="img-f2b48a63-4">
  <path d="M12.69,5 L 198.2 5 198.2 82.32 12.69 82.32" />
</clipPath>
</defs>
</svg>
