<?xml version="1.0" encoding="UTF-8"?>
<svg xmlns="http://www.w3.org/2000/svg"
     xmlns:xlink="http://www.w3.org/1999/xlink"
     xmlns:gadfly="http://www.gadflyjl.org/ns"
     version="1.2"
     width="203.2mm" height="101.6mm" viewBox="0 0 203.2 101.6"
     stroke="none"
     fill="#000000"
     stroke-width="0.3"
     font-size="3.88"
>
<g class="plotroot xscalable yscalable" id="img-af6dcd96-1">
  <g font-size="3.88" font-family="'PT Sans','Helvetica Neue','Helvetica',sans-serif" fill="#564A55" stroke="#000000" stroke-opacity="0.000" id="img-af6dcd96-2">
    <text x="103.44" y="89.99" text-anchor="middle" dy="0.6em">σ₁</text>
  </g>
  <g class="guide xlabels" font-size="2.82" font-family="'PT Sans Caption','Helvetica Neue','Helvetica',sans-serif" fill="#6C606B" id="img-af6dcd96-3">
    <text x="10.67" y="83.32" text-anchor="middle" dy="0.6em">0.0</text>
    <text x="72.52" y="83.32" text-anchor="middle" dy="0.6em">0.5</text>
    <text x="134.36" y="83.32" text-anchor="middle" dy="0.6em">1.0</text>
    <text x="196.2" y="83.32" text-anchor="middle" dy="0.6em">1.5</text>
  </g>
<g clip-path="url(#img-af6dcd96-4)">
  <g id="img-af6dcd96-5">
    <g pointer-events="visible" opacity="1" fill="#000000" fill-opacity="0.000" stroke="#000000" stroke-opacity="0.000" class="guide background" id="img-af6dcd96-6">
      <rect x="8.67" y="5" width="189.53" height="77.32"/>
    </g>
    <g class="guide ygridlines xfixed" stroke-dasharray="0.5,0.5" stroke-width="0.2" stroke="#D0D0E0" id="img-af6dcd96-7">
      <path fill="none" d="M8.67,80.31 L 198.2 80.31"/>
      <path fill="none" d="M8.67,61.99 L 198.2 61.99"/>
      <path fill="none" d="M8.67,43.66 L 198.2 43.66"/>
      <path fill="none" d="M8.67,25.33 L 198.2 25.33"/>
      <path fill="none" d="M8.67,7 L 198.2 7"/>
    </g>
    <g class="guide xgridlines yfixed" stroke-dasharray="0.5,0.5" stroke-width="0.2" stroke="#D0D0E0" id="img-af6dcd96-8">
      <path fill="none" d="M10.67,5 L 10.67 82.32"/>
      <path fill="none" d="M72.52,5 L 72.52 82.32"/>
      <path fill="none" d="M134.36,5 L 134.36 82.32"/>
      <path fill="none" d="M196.2,5 L 196.2 82.32"/>
    </g>
    <g class="plotpanel" id="img-af6dcd96-9">
      <g stroke-width="0.3" fill="#000000" fill-opacity="0.000" class="geometry" id="img-af6dcd96-10">
        <g stroke-dasharray="none" stroke="#00BFFF" id="img-af6dcd96-11">
          <path fill="none" d="M47.38,80.31 L 47.92 80.31 48.46 80.31 49.01 80.31 49.55 80.31 50.09 80.31 50.63 80.31 51.18 80.31 51.72 80.31 52.26 80.31 52.8 80.3 53.35 80.3 53.89 80.29 54.43 80.28 54.97 80.28 55.51 80.27 56.06 80.26 56.6 80.25 57.14 80.25 57.68 80.24 58.23 80.24 58.77 80.23 59.31 80.23 59.85 80.22 60.4 80.21 60.94 80.18 61.48 80.15 62.02 80.11 62.57 80.06 63.11 80 63.65 79.94 64.19 79.87 64.74 79.79 65.28 79.71 65.82 79.63 66.36 79.54 66.9 79.44 67.45 79.33 67.99 79.21 68.53 79.07 69.07 78.92 69.62 78.76 70.16 78.59 70.7 78.41 71.24 78.21 71.79 78.01 72.33 77.8 72.87 77.58 73.41 77.34 73.96 77.09 74.5 76.82 75.04 76.51 75.58 76.18 76.13 75.83 76.67 75.44 77.21 75.04 77.75 74.63 78.29 74.22 78.84 73.82 79.38 73.44 79.92 73.07 80.46 72.71 81.01 72.35 81.55 71.97 82.09 71.55 82.63 71.07 83.18 70.55 83.72 69.95 84.26 69.3 84.8 68.61 85.35 67.88 85.89 67.13 86.43 66.37 86.97 65.62 87.52 64.87 88.06 64.12 88.6 63.36 89.14 62.58 89.68 61.75 90.23 60.87 90.77 59.91 91.31 58.85 91.85 57.7 92.4 56.46 92.94 55.14 93.48 53.77 94.02 52.37 94.57 50.96 95.11 49.55 95.65 48.18 96.19 46.83 96.74 45.52 97.28 44.27 97.82 43.08 98.36 41.97 98.91 40.94 99.45 40 99.99 39.15 100.53 38.39 101.07 37.7 101.62 37.07 102.16 36.48 102.7 35.92 103.24 35.36 103.79 34.78 104.33 34.16 104.87 33.5 105.41 32.79 105.96 32.04 106.5 31.26 107.04 30.48 107.58 29.71 108.13 28.97 108.67 28.26 109.21 27.6 109.75 26.99 110.3 26.43 110.84 25.95 111.38 25.57 111.92 25.32 112.46 25.22 113.01 25.3 113.55 25.53 114.09 25.89 114.63 26.35 115.18 26.83 115.72 27.3 116.26 27.71 116.8 28.05 117.35 28.33 117.89 28.58 118.43 28.86 118.97 29.21 119.52 29.66 120.06 30.26 120.6 30.99 121.14 31.84 121.68 32.79 122.23 33.79 122.77 34.8 123.31 35.81 123.85 36.79 124.4 37.74 124.94 38.66 125.48 39.56 126.02 40.45 126.57 41.35 127.11 42.27 127.65 43.2 128.19 44.14 128.74 45.1 129.28 46.09 129.82 47.09 130.36 48.11 130.91 49.16 131.45 50.22 131.99 51.3 132.53 52.38 133.07 53.45 133.62 54.51 134.16 55.55 134.7 56.57 135.24 57.56 135.79 58.52 136.33 59.45 136.87 60.34 137.41 61.18 137.96 61.97 138.5 62.72 139.04 63.43 139.58 64.1 140.13 64.77 140.67 65.43 141.21 66.09 141.75 66.77 142.3 67.46 142.84 68.14 143.38 68.82 143.92 69.48 144.46 70.11 145.01 70.71 145.55 71.28 146.09 71.82 146.63 72.34 147.18 72.84 147.72 73.31 148.26 73.75 148.8 74.17 149.35 74.55 149.89 74.91 150.43 75.25 150.97 75.56 151.52 75.87 152.06 76.16 152.6 76.45 153.14 76.74 153.69 77.03 154.23 77.32 154.77 77.61 155.31 77.89 155.85 78.15 156.4 78.4 156.94 78.61 157.48 78.8 158.02 78.96 158.57 79.08 159.11 79.17 159.65 79.24 160.19 79.29 160.74 79.32 161.28 79.36 161.82 79.39 162.36 79.43 162.91 79.48 163.45 79.54 163.99 79.61 164.53 79.68 165.08 79.75 165.62 79.82 166.16 79.88 166.7 79.93 167.24 79.97 167.79 80 168.33 80.02 168.87 80.02 169.41 80.03 169.96 80.03 170.5 80.04 171.04 80.04 171.58 80.06 172.13 80.07 172.67 80.09 173.21 80.11 173.75 80.13 174.3 80.16 174.84 80.18 175.38 80.19 175.92 80.21 176.47 80.23 177.01 80.24 177.55 80.25 178.09 80.27 178.63 80.28 179.18 80.29 179.72 80.3 180.26 80.3 180.8 80.31 181.35 80.31 181.89 80.31 182.43 80.31 182.97 80.31 183.52 80.31 184.06 80.31 184.6 80.31 185.14 80.31"/>
        </g>
      </g>
    </g>
  </g>
</g>
  <g class="guide ylabels" font-size="2.82" font-family="'PT Sans Caption','Helvetica Neue','Helvetica',sans-serif" fill="#6C606B" id="img-af6dcd96-12">
    <text x="7.67" y="80.31" text-anchor="end" dy="0.35em">0</text>
    <text x="7.67" y="61.99" text-anchor="end" dy="0.35em">1</text>
    <text x="7.67" y="43.66" text-anchor="end" dy="0.35em">2</text>
    <text x="7.67" y="25.33" text-anchor="end" dy="0.35em">3</text>
    <text x="7.67" y="7" text-anchor="end" dy="0.35em">4</text>
  </g>
</g>
<defs>
  <clipPath id="img-af6dcd96-4">
  <path d="M8.67,5 L 198.2 5 198.2 82.32 8.67 82.32" />
</clipPath>
</defs>
</svg>
