<?xml version="1.0" encoding="UTF-8"?>
<svg xmlns="http://www.w3.org/2000/svg"
     xmlns:xlink="http://www.w3.org/1999/xlink"
     xmlns:gadfly="http://www.gadflyjl.org/ns"
     version="1.2"
     width="203.2mm" height="101.6mm" viewBox="0 0 203.2 101.6"
     stroke="none"
     fill="#000000"
     stroke-width="0.3"
     font-size="3.88"
>
<g class="plotroot xscalable yscalable" id="img-ba85f6c6-1">
  <g font-size="3.88" font-family="'PT Sans','Helvetica Neue','Helvetica',sans-serif" fill="#564A55" stroke="#000000" stroke-opacity="0.000" id="img-ba85f6c6-2">
    <text x="104.61" y="89.99" text-anchor="middle" dy="0.6em">σ₁</text>
  </g>
  <g class="guide xlabels" font-size="2.82" font-family="'PT Sans Caption','Helvetica Neue','Helvetica',sans-serif" fill="#6C606B" id="img-ba85f6c6-3">
    <text x="13.02" y="83.31" text-anchor="middle" dy="0.6em">0</text>
    <text x="49.66" y="83.31" text-anchor="middle" dy="0.6em">1</text>
    <text x="86.29" y="83.31" text-anchor="middle" dy="0.6em">2</text>
    <text x="122.93" y="83.31" text-anchor="middle" dy="0.6em">3</text>
    <text x="159.56" y="83.31" text-anchor="middle" dy="0.6em">4</text>
    <text x="196.2" y="83.31" text-anchor="middle" dy="0.6em">5</text>
  </g>
<g clip-path="url(#img-ba85f6c6-4)">
  <g id="img-ba85f6c6-5">
    <g pointer-events="visible" opacity="1" fill="#000000" fill-opacity="0.000" stroke="#000000" stroke-opacity="0.000" class="guide background" id="img-ba85f6c6-6">
      <rect x="11.02" y="5" width="187.18" height="77.31"/>
    </g>
    <g class="guide ygridlines xfixed" stroke-dasharray="0.5,0.5" stroke-width="0.2" stroke="#D0D0E0" id="img-ba85f6c6-7">
      <path fill="none" d="M11.02,80.31 L 198.2 80.31"/>
      <path fill="none" d="M11.02,43.66 L 198.2 43.66"/>
      <path fill="none" d="M11.02,7 L 198.2 7"/>
    </g>
    <g class="guide xgridlines yfixed" stroke-dasharray="0.5,0.5" stroke-width="0.2" stroke="#D0D0E0" id="img-ba85f6c6-8">
      <path fill="none" d="M13.02,5 L 13.02 82.31"/>
      <path fill="none" d="M49.66,5 L 49.66 82.31"/>
      <path fill="none" d="M86.29,5 L 86.29 82.31"/>
      <path fill="none" d="M122.93,5 L 122.93 82.31"/>
      <path fill="none" d="M159.56,5 L 159.56 82.31"/>
      <path fill="none" d="M196.2,5 L 196.2 82.31"/>
    </g>
    <g class="plotpanel" id="img-ba85f6c6-9">
      <g stroke-width="0.3" fill="#000000" fill-opacity="0.000" class="geometry" id="img-ba85f6c6-10">
        <g stroke-dasharray="none" stroke="#00BFFF" id="img-ba85f6c6-11">
          <path fill="none" d="M60.86,80.31 L 61.36 80.31 61.85 80.31 62.35 80.31 62.84 80.31 63.34 80.31 63.83 80.31 64.33 80.31 64.82 80.31 65.32 80.31 65.81 80.3 66.31 80.3 66.8 80.29 67.3 80.29 67.79 80.28 68.29 80.27 68.78 80.27 69.28 80.27 69.77 80.27 70.27 80.27 70.76 80.27 71.26 80.28 71.75 80.28 72.25 80.28 72.74 80.28 73.24 80.27 73.73 80.26 74.23 80.23 74.72 80.2 75.22 80.16 75.71 80.12 76.21 80.06 76.7 80.01 77.2 79.95 77.69 79.89 78.19 79.82 78.68 79.75 79.18 79.68 79.67 79.59 80.17 79.5 80.66 79.4 81.16 79.29 81.65 79.18 82.15 79.06 82.64 78.94 83.14 78.81 83.63 78.68 84.13 78.53 84.62 78.36 85.12 78.18 85.61 77.96 86.11 77.72 86.6 77.44 87.1 77.13 87.59 76.79 88.09 76.4 88.58 75.98 89.08 75.52 89.57 75.02 90.07 74.49 90.56 73.93 91.06 73.33 91.55 72.71 92.05 72.07 92.54 71.42 93.04 70.76 93.53 70.1 94.03 69.45 94.52 68.8 95.02 68.15 95.51 67.49 96.01 66.79 96.5 66.06 97 65.26 97.49 64.39 97.99 63.44 98.48 62.41 98.98 61.31 99.47 60.16 99.97 58.96 100.46 57.73 100.96 56.48 101.45 55.22 101.95 53.94 102.44 52.65 102.94 51.33 103.43 49.99 103.93 48.61 104.42 47.21 104.91 45.77 105.41 44.32 105.9 42.86 106.4 41.4 106.89 39.96 107.39 38.54 107.88 37.15 108.38 35.77 108.87 34.4 109.37 33.04 109.86 31.66 110.36 30.28 110.85 28.88 111.35 27.48 111.84 26.09 112.34 24.72 112.83 23.38 113.33 22.09 113.82 20.86 114.32 19.7 114.81 18.6 115.31 17.56 115.8 16.56 116.3 15.61 116.79 14.7 117.29 13.81 117.78 12.97 118.28 12.19 118.77 11.49 119.27 10.92 119.76 10.5 120.26 10.24 120.75 10.14 121.25 10.19 121.74 10.35 122.24 10.59 122.73 10.89 123.23 11.22 123.72 11.57 124.22 11.95 124.71 12.36 125.21 12.79 125.7 13.25 126.2 13.74 126.69 14.26 127.19 14.82 127.68 15.42 128.18 16.06 128.67 16.74 129.17 17.45 129.66 18.18 130.16 18.93 130.65 19.67 131.15 20.4 131.64 21.12 132.14 21.85 132.63 22.6 133.13 23.4 133.62 24.27 134.12 25.25 134.61 26.35 135.11 27.58 135.6 28.94 136.1 30.4 136.59 31.95 137.09 33.54 137.58 35.14 138.08 36.72 138.57 38.25 139.07 39.72 139.56 41.13 140.06 42.47 140.55 43.77 141.05 45.05 141.54 46.31 142.04 47.57 142.53 48.85 143.03 50.13 143.52 51.41 144.02 52.68 144.51 53.94 145.01 55.15 145.5 56.31 146 57.41 146.49 58.44 146.99 59.39 147.48 60.29 147.98 61.15 148.47 61.98 148.97 62.82 149.46 63.67 149.96 64.53 150.45 65.39 150.95 66.25 151.44 67.09 151.94 67.88 152.43 68.61 152.93 69.26 153.42 69.84 153.92 70.35 154.41 70.79 154.9 71.19 155.4 71.56 155.89 71.91 156.39 72.26 156.88 72.63 157.38 73.02 157.87 73.43 158.37 73.86 158.86 74.3 159.36 74.73 159.85 75.15 160.35 75.54 160.84 75.91 161.34 76.25 161.83 76.56 162.33 76.85 162.82 77.12 163.32 77.37 163.81 77.6 164.31 77.82 164.8 78.02 165.3 78.19 165.79 78.35 166.29 78.49 166.78 78.61 167.28 78.72 167.77 78.82 168.27 78.92 168.76 79.01 169.26 79.11 169.75 79.2 170.25 79.3 170.74 79.39 171.24 79.48 171.73 79.56 172.23 79.64 172.72 79.7 173.22 79.76 173.71 79.82 174.21 79.87 174.7 79.91 175.2 79.96 175.69 80 176.19 80.04 176.68 80.07 177.18 80.11 177.67 80.14 178.17 80.17 178.66 80.2 179.16 80.22 179.65 80.24 180.15 80.26 180.64 80.27 181.14 80.29 181.63 80.29 182.13 80.3 182.62 80.31 183.12 80.31 183.61 80.31 184.11 80.31 184.6 80.31 185.1 80.31 185.59 80.31 186.09 80.31 186.58 80.31 187.08 80.31"/>
        </g>
      </g>
    </g>
  </g>
</g>
  <g class="guide ylabels" font-size="2.82" font-family="'PT Sans Caption','Helvetica Neue','Helvetica',sans-serif" fill="#6C606B" id="img-ba85f6c6-12">
    <text x="10.02" y="80.31" text-anchor="end" dy="0.35em">0.0</text>
    <text x="10.02" y="43.66" text-anchor="end" dy="0.35em">0.5</text>
    <text x="10.02" y="7" text-anchor="end" dy="0.35em">1.0</text>
  </g>
</g>
<defs>
  <clipPath id="img-ba85f6c6-4">
  <path d="M11.02,5 L 198.2 5 198.2 82.31 11.02 82.31" />
</clipPath>
</defs>
</svg>
