<?xml version="1.0" encoding="UTF-8"?>
<svg xmlns="http://www.w3.org/2000/svg"
     xmlns:xlink="http://www.w3.org/1999/xlink"
     xmlns:gadfly="http://www.gadflyjl.org/ns"
     version="1.2"
     width="203.2mm" height="101.6mm" viewBox="0 0 203.2 101.6"
     stroke="none"
     fill="#000000"
     stroke-width="0.3"
     font-size="3.88"
>
<g class="plotroot xscalable yscalable" id="img-abfcda8b-1">
  <g font-size="3.88" font-family="'PT Sans','Helvetica Neue','Helvetica',sans-serif" fill="#564A55" stroke="#000000" stroke-opacity="0.000" id="img-abfcda8b-2">
    <text x="104.61" y="89.99" text-anchor="middle" dy="0.6em">β₁</text>
  </g>
  <g class="guide xlabels" font-size="2.82" font-family="'PT Sans Caption','Helvetica Neue','Helvetica',sans-serif" fill="#6C606B" id="img-abfcda8b-3">
    <text x="13.02" y="83.32" text-anchor="middle" dy="0.6em">19</text>
    <text x="35.92" y="83.32" text-anchor="middle" dy="0.6em">20</text>
    <text x="58.82" y="83.32" text-anchor="middle" dy="0.6em">21</text>
    <text x="81.71" y="83.32" text-anchor="middle" dy="0.6em">22</text>
    <text x="104.61" y="83.32" text-anchor="middle" dy="0.6em">23</text>
    <text x="127.51" y="83.32" text-anchor="middle" dy="0.6em">24</text>
    <text x="150.41" y="83.32" text-anchor="middle" dy="0.6em">25</text>
    <text x="173.3" y="83.32" text-anchor="middle" dy="0.6em">26</text>
    <text x="196.2" y="83.32" text-anchor="middle" dy="0.6em">27</text>
  </g>
<g clip-path="url(#img-abfcda8b-4)">
  <g id="img-abfcda8b-5">
    <g pointer-events="visible" opacity="1" fill="#000000" fill-opacity="0.000" stroke="#000000" stroke-opacity="0.000" class="guide background" id="img-abfcda8b-6">
      <rect x="11.02" y="5" width="187.18" height="77.32"/>
    </g>
    <g class="guide ygridlines xfixed" stroke-dasharray="0.5,0.5" stroke-width="0.2" stroke="#D0D0E0" id="img-abfcda8b-7">
      <path fill="none" d="M11.02,80.32 L 198.2 80.32"/>
      <path fill="none" d="M11.02,68.1 L 198.2 68.1"/>
      <path fill="none" d="M11.02,55.88 L 198.2 55.88"/>
      <path fill="none" d="M11.02,43.66 L 198.2 43.66"/>
      <path fill="none" d="M11.02,31.44 L 198.2 31.44"/>
      <path fill="none" d="M11.02,19.22 L 198.2 19.22"/>
      <path fill="none" d="M11.02,7 L 198.2 7"/>
    </g>
    <g class="guide xgridlines yfixed" stroke-dasharray="0.5,0.5" stroke-width="0.2" stroke="#D0D0E0" id="img-abfcda8b-8">
      <path fill="none" d="M13.02,5 L 13.02 82.32"/>
      <path fill="none" d="M35.92,5 L 35.92 82.32"/>
      <path fill="none" d="M58.82,5 L 58.82 82.32"/>
      <path fill="none" d="M81.71,5 L 81.71 82.32"/>
      <path fill="none" d="M104.61,5 L 104.61 82.32"/>
      <path fill="none" d="M127.51,5 L 127.51 82.32"/>
      <path fill="none" d="M150.41,5 L 150.41 82.32"/>
      <path fill="none" d="M173.3,5 L 173.3 82.32"/>
      <path fill="none" d="M196.2,5 L 196.2 82.32"/>
    </g>
    <g class="plotpanel" id="img-abfcda8b-9">
      <g stroke-width="0.3" fill="#000000" fill-opacity="0.000" class="geometry" id="img-abfcda8b-10">
        <g stroke-dasharray="none" stroke="#00BFFF" id="img-abfcda8b-11">
          <path fill="none" d="M21.78,80.31 L 22.4 80.31 23.01 80.31 23.63 80.31 24.25 80.31 24.86 80.31 25.48 80.31 26.1 80.31 26.72 80.31 27.33 80.3 27.95 80.3 28.57 80.29 29.19 80.29 29.8 80.28 30.42 80.27 31.04 80.27 31.65 80.27 32.27 80.27 32.89 80.28 33.51 80.28 34.12 80.29 34.74 80.3 35.36 80.3 35.98 80.31 36.59 80.31 37.21 80.31 37.83 80.31 38.44 80.31 39.06 80.31 39.68 80.31 40.3 80.31 40.91 80.3 41.53 80.29 42.15 80.27 42.77 80.25 43.38 80.22 44 80.18 44.62 80.14 45.24 80.09 45.85 80.03 46.47 79.98 47.09 79.93 47.7 79.89 48.32 79.85 48.94 79.82 49.56 79.8 50.17 79.78 50.79 79.76 51.41 79.73 52.03 79.69 52.64 79.64 53.26 79.55 53.88 79.44 54.49 79.3 55.11 79.13 55.73 78.95 56.35 78.75 56.96 78.54 57.58 78.34 58.2 78.14 58.82 77.94 59.43 77.74 60.05 77.53 60.67 77.31 61.28 77.08 61.9 76.84 62.52 76.59 63.14 76.34 63.75 76.08 64.37 75.83 64.99 75.55 65.61 75.24 66.22 74.88 66.84 74.46 67.46 73.95 68.08 73.36 68.69 72.68 69.31 71.92 69.93 71.09 70.54 70.2 71.16 69.26 71.78 68.29 72.4 67.33 73.01 66.38 73.63 65.49 74.25 64.66 74.87 63.88 75.48 63.15 76.1 62.42 76.72 61.65 77.33 60.78 77.95 59.8 78.57 58.67 79.19 57.41 79.8 56.02 80.42 54.56 81.04 53.05 81.66 51.53 82.27 50.05 82.89 48.63 83.51 47.29 84.12 46.03 84.74 44.84 85.36 43.68 85.98 42.54 86.59 41.4 87.21 40.24 87.83 39.06 88.45 37.86 89.06 36.65 89.68 35.43 90.3 34.2 90.92 32.98 91.53 31.76 92.15 30.53 92.77 29.32 93.38 28.1 94 26.89 94.62 25.7 95.24 24.51 95.85 23.35 96.47 22.22 97.09 21.14 97.71 20.15 98.32 19.26 98.94 18.49 99.56 17.87 100.17 17.37 100.79 16.97 101.41 16.65 102.03 16.38 102.64 16.14 103.26 15.92 103.88 15.73 104.5 15.56 105.11 15.43 105.73 15.34 106.35 15.3 106.96 15.33 107.58 15.46 108.2 15.71 108.82 16.1 109.43 16.65 110.05 17.35 110.67 18.2 111.29 19.17 111.9 20.25 112.52 21.41 113.14 22.65 113.76 23.97 114.37 25.38 114.99 26.87 115.61 28.46 116.22 30.13 116.84 31.85 117.46 33.59 118.08 35.31 118.69 36.96 119.31 38.53 119.93 40.01 120.55 41.4 121.16 42.73 121.78 44 122.4 45.25 123.01 46.49 123.63 47.72 124.25 48.93 124.87 50.11 125.48 51.24 126.1 52.31 126.72 53.32 127.34 54.28 127.95 55.2 128.57 56.13 129.19 57.07 129.8 58.05 130.42 59.08 131.04 60.15 131.66 61.28 132.27 62.44 132.89 63.62 133.51 64.81 134.13 65.99 134.74 67.13 135.36 68.2 135.98 69.19 136.59 70.07 137.21 70.86 137.83 71.55 138.45 72.16 139.06 72.73 139.68 73.26 140.3 73.77 140.92 74.27 141.53 74.76 142.15 75.22 142.77 75.65 143.39 76.04 144 76.37 144.62 76.65 145.24 76.89 145.85 77.09 146.47 77.27 147.09 77.45 147.71 77.64 148.32 77.83 148.94 78.02 149.56 78.22 150.18 78.4 150.79 78.58 151.41 78.73 152.03 78.87 152.64 79 153.26 79.11 153.88 79.22 154.5 79.33 155.11 79.43 155.73 79.52 156.35 79.6 156.97 79.67 157.58 79.74 158.2 79.8 158.82 79.85 159.43 79.91 160.05 79.96 160.67 80.01 161.29 80.07 161.9 80.12 162.52 80.16 163.14 80.19 163.76 80.21 164.37 80.22 164.99 80.22 165.61 80.22 166.23 80.21 166.84 80.2 167.46 80.2 168.08 80.2 168.69 80.2 169.31 80.21 169.93 80.22 170.55 80.24 171.16 80.25 171.78 80.27 172.4 80.28 173.02 80.29 173.63 80.3 174.25 80.31 174.87 80.31 175.48 80.31 176.1 80.31 176.72 80.31 177.34 80.31 177.95 80.31 178.57 80.31 179.19 80.31"/>
        </g>
      </g>
    </g>
  </g>
</g>
  <g class="guide ylabels" font-size="2.82" font-family="'PT Sans Caption','Helvetica Neue','Helvetica',sans-serif" fill="#6C606B" id="img-abfcda8b-12">
    <text x="10.02" y="80.32" text-anchor="end" dy="0.35em">0.0</text>
    <text x="10.02" y="68.1" text-anchor="end" dy="0.35em">0.1</text>
    <text x="10.02" y="55.88" text-anchor="end" dy="0.35em">0.2</text>
    <text x="10.02" y="43.66" text-anchor="end" dy="0.35em">0.3</text>
    <text x="10.02" y="31.44" text-anchor="end" dy="0.35em">0.4</text>
    <text x="10.02" y="19.22" text-anchor="end" dy="0.35em">0.5</text>
    <text x="10.02" y="7" text-anchor="end" dy="0.35em">0.6</text>
  </g>
</g>
<defs>
  <clipPath id="img-abfcda8b-4">
  <path d="M11.02,5 L 198.2 5 198.2 82.32 11.02 82.32" />
</clipPath>
</defs>
</svg>
