<?xml version="1.0" encoding="UTF-8"?>
<svg xmlns="http://www.w3.org/2000/svg"
     xmlns:xlink="http://www.w3.org/1999/xlink"
     xmlns:gadfly="http://www.gadflyjl.org/ns"
     version="1.2"
     width="203.2mm" height="101.6mm" viewBox="0 0 203.2 101.6"
     stroke="none"
     fill="#000000"
     stroke-width="0.3"
     font-size="3.88"
>
<g class="plotroot xscalable yscalable" id="img-6ad5df3b-1">
  <g font-size="3.88" font-family="'PT Sans','Helvetica Neue','Helvetica',sans-serif" fill="#564A55" stroke="#000000" stroke-opacity="0.000" id="img-6ad5df3b-2">
    <text x="104.61" y="89.99" text-anchor="middle" dy="0.6em">σ₁²</text>
  </g>
  <g class="guide xlabels" font-size="2.82" font-family="'PT Sans Caption','Helvetica Neue','Helvetica',sans-serif" fill="#6C606B" id="img-6ad5df3b-3">
    <text x="13.02" y="83.32" text-anchor="middle" dy="0.6em">0</text>
    <text x="43.55" y="83.32" text-anchor="middle" dy="0.6em">1.0×10³</text>
    <text x="74.08" y="83.32" text-anchor="middle" dy="0.6em">2.0×10³</text>
    <text x="104.61" y="83.32" text-anchor="middle" dy="0.6em">3.0×10³</text>
    <text x="135.14" y="83.32" text-anchor="middle" dy="0.6em">4.0×10³</text>
    <text x="165.67" y="83.32" text-anchor="middle" dy="0.6em">5.0×10³</text>
    <text x="196.2" y="83.32" text-anchor="middle" dy="0.6em">6.0×10³</text>
  </g>
<g clip-path="url(#img-6ad5df3b-4)">
  <g id="img-6ad5df3b-5">
    <g pointer-events="visible" opacity="1" fill="#000000" fill-opacity="0.000" stroke="#000000" stroke-opacity="0.000" class="guide background" id="img-6ad5df3b-6">
      <rect x="11.02" y="5" width="187.18" height="77.32"/>
    </g>
    <g class="guide xgridlines yfixed" stroke-dasharray="0.5,0.5" stroke-width="0.2" stroke="#D0D0E0" id="img-6ad5df3b-7">
      <path fill="none" d="M13.02,5 L 13.02 82.32"/>
      <path fill="none" d="M43.55,5 L 43.55 82.32"/>
      <path fill="none" d="M74.08,5 L 74.08 82.32"/>
      <path fill="none" d="M104.61,5 L 104.61 82.32"/>
      <path fill="none" d="M135.14,5 L 135.14 82.32"/>
      <path fill="none" d="M165.67,5 L 165.67 82.32"/>
      <path fill="none" d="M196.2,5 L 196.2 82.32"/>
    </g>
    <g class="guide ygridlines xfixed" stroke-dasharray="0.5,0.5" stroke-width="0.2" stroke="#D0D0E0" id="img-6ad5df3b-8">
      <path fill="none" d="M11.02,80.31 L 198.2 80.31"/>
      <path fill="none" d="M11.02,72.98 L 198.2 72.98"/>
      <path fill="none" d="M11.02,14.33 L 198.2 14.33"/>
      <path fill="none" d="M11.02,7 L 198.2 7"/>
    </g>
    <g class="plotpanel" id="img-6ad5df3b-9">
      <g class="yfixed" id="img-6ad5df3b-10">
        <g stroke-dasharray="none" stroke-width="0.3" stroke="#FF0000" id="img-6ad5df3b-11">
          <path fill="none" d="M68.02,5 L 68.02 82.32"/>
        </g>
        <g stroke-dasharray="none" stroke-width="0.3" stroke="#FF0000" id="img-6ad5df3b-12">
          <path fill="none" d="M13.02,5 L 13.02 82.32"/>
        </g>
      </g>
      <g class="yfixed" id="img-6ad5df3b-13">
        <g stroke-dasharray="none" stroke-width="0.3" stroke="#FFA500" id="img-6ad5df3b-14">
          <path fill="none" d="M86.77,5 L 86.77 82.32"/>
        </g>
        <g stroke-dasharray="none" stroke-width="0.3" stroke="#FFA500" id="img-6ad5df3b-15">
          <path fill="none" d="M13.02,5 L 13.02 82.32"/>
        </g>
      </g>
      <g stroke-width="0.3" fill="#000000" fill-opacity="0.000" class="geometry" id="img-6ad5df3b-16">
        <g stroke-dasharray="none" stroke="#00BFFF" id="img-6ad5df3b-17">
          <path fill="none" d="M13.02,80.17 L 13.02 79.88 13.02 79.58 13.02 79.29 13.02 79 13.02 78.7 13.02 78.41 13.02 78.12 13.02 77.82 13.02 77.53 13.02 77.24 13.02 76.94 13.02 76.65 13.02 76.36 13.02 76.06 13.02 75.77 13.02 75.48 13.02 75.18 13.02 74.89 13.02 74.6 13.02 74.3 13.02 74.01 13.02 73.72 13.02 73.42 13.02 73.13 13.11 72.84 13.44 72.54 13.77 72.25 14.1 71.96 14.41 71.66 14.73 71.37 15.06 71.08 15.37 70.78 15.68 70.49 15.97 70.2 16.26 69.9 16.56 69.61 16.84 69.32 17.14 69.02 17.43 68.73 17.72 68.44 18 68.14 18.29 67.85 18.56 67.56 18.81 67.26 19.06 66.97 19.34 66.68 19.62 66.39 19.89 66.09 20.15 65.8 20.41 65.51 20.68 65.21 20.94 64.92 21.2 64.63 21.47 64.33 21.73 64.04 21.99 63.75 22.23 63.45 22.49 63.16 22.75 62.87 23.01 62.57 23.28 62.28 23.54 61.99 23.79 61.69 24.04 61.4 24.28 61.11 24.53 60.81 24.78 60.52 25.07 60.23 25.33 59.93 25.55 59.64 25.79 59.35 26.05 59.05 26.33 58.76 26.61 58.47 26.86 58.17 27.11 57.88 27.34 57.59 27.61 57.29 27.87 57 28.1 56.71 28.36 56.41 28.62 56.12 28.86 55.83 29.14 55.53 29.39 55.24 29.65 54.95 29.89 54.65 30.14 54.36 30.41 54.07 30.67 53.77 30.94 53.48 31.19 53.19 31.49 52.9 31.73 52.6 32.01 52.31 32.27 52.02 32.54 51.72 32.77 51.43 33.03 51.14 33.32 50.84 33.58 50.55 33.85 50.26 34.12 49.96 34.38 49.67 34.62 49.38 34.88 49.08 35.17 48.79 35.45 48.5 35.71 48.2 35.98 47.91 36.25 47.62 36.51 47.32 36.78 47.03 37.04 46.74 37.32 46.44 37.6 46.15 37.87 45.86 38.14 45.56 38.41 45.27 38.68 44.98 38.98 44.68 39.26 44.39 39.53 44.1 39.79 43.8 40.07 43.51 40.34 43.22 40.61 42.92 40.9 42.63 41.19 42.34 41.47 42.04 41.75 41.75 42.04 41.46 42.31 41.16 42.6 40.87 42.87 40.58 43.19 40.29 43.48 39.99 43.76 39.7 44.06 39.41 44.35 39.11 44.68 38.82 44.98 38.53 45.28 38.23 45.57 37.94 45.86 37.65 46.15 37.35 46.48 37.06 46.78 36.77 47.09 36.47 47.44 36.18 47.78 35.89 48.14 35.59 48.48 35.3 48.8 35.01 49.15 34.71 49.5 34.42 49.83 34.13 50.17 33.83 50.5 33.54 50.85 33.25 51.17 32.95 51.51 32.66 51.87 32.37 52.23 32.07 52.59 31.78 52.96 31.49 53.3 31.19 53.66 30.9 54.02 30.61 54.38 30.31 54.81 30.02 55.18 29.73 55.6 29.43 55.99 29.14 56.38 28.85 56.81 28.55 57.23 28.26 57.64 27.97 58.06 27.67 58.54 27.38 58.97 27.09 59.38 26.8 59.8 26.5 60.27 26.21 60.72 25.92 61.17 25.62 61.65 25.33 62.11 25.04 62.6 24.74 63.08 24.45 63.55 24.16 64.06 23.86 64.51 23.57 65.01 23.28 65.53 22.98 66.04 22.69 66.59 22.4 67.17 22.1 67.74 21.81 68.3 21.52 68.84 21.22 69.42 20.93 70.01 20.64 70.62 20.34 71.24 20.05 71.89 19.76 72.55 19.46 73.19 19.17 73.87 18.88 74.49 18.58 75.21 18.29 75.92 18 76.69 17.7 77.41 17.41 78.18 17.12 79.02 16.82 79.83 16.53 80.66 16.24 81.49 15.94 82.34 15.65 83.3 15.36 84.25 15.06 85.28 14.77 86.25 14.48 87.29 14.18 88.38 13.89 89.46 13.6 90.64 13.31 91.74 13.01 93.17 12.72 94.37 12.43 95.73 12.13 97.21 11.84 98.7 11.55 100.37 11.25 102.01 10.96 104.02 10.67 105.89 10.37 108.13 10.08 110.5 9.79 113.3 9.49 116.18 9.2 119.96 8.91 124.23 8.61 129.15 8.32 135.12 8.03 142.9 7.73 154.76 7.44 179.41 7.15"/>
        </g>
      </g>
    </g>
  </g>
</g>
  <g class="guide ylabels" font-size="2.82" font-family="'PT Sans Caption','Helvetica Neue','Helvetica',sans-serif" fill="#6C606B" id="img-6ad5df3b-18">
    <text x="10.02" y="80.31" text-anchor="end" dy="0.35em">0.0</text>
    <text x="10.02" y="72.98" text-anchor="end" dy="0.35em">0.1</text>
    <text x="10.02" y="14.33" text-anchor="end" dy="0.35em">0.9</text>
    <text x="10.02" y="7" text-anchor="end" dy="0.35em">1.0</text>
  </g>
</g>
<defs>
  <clipPath id="img-6ad5df3b-4">
  <path d="M11.02,5 L 198.2 5 198.2 82.32 11.02 82.32" />
</clipPath>
</defs>
</svg>
