<?xml version="1.0" encoding="UTF-8"?>
<svg xmlns="http://www.w3.org/2000/svg"
     xmlns:xlink="http://www.w3.org/1999/xlink"
     xmlns:gadfly="http://www.gadflyjl.org/ns"
     version="1.2"
     width="152.4mm" height="101.6mm" viewBox="0 0 152.4 101.6"
     stroke="none"
     fill="#000000"
     stroke-width="0.3"
     font-size="3.88"
>
<g class="plotroot xscalable yscalable" id="img-95086805-1">
  <g font-size="3.88" font-family="'PT Sans','Helvetica Neue','Helvetica',sans-serif" fill="#564A55" stroke="#000000" stroke-opacity="0.000" id="img-95086805-2">
    <text x="79.71" y="89.99" text-anchor="middle" dy="0.6em">β₁</text>
  </g>
  <g class="guide xlabels" font-size="2.82" font-family="'PT Sans Caption','Helvetica Neue','Helvetica',sans-serif" fill="#6C606B" id="img-95086805-3">
    <text x="14.02" y="83.32" text-anchor="middle" dy="0.6em">1450</text>
    <text x="57.81" y="83.32" text-anchor="middle" dy="0.6em">1500</text>
    <text x="101.61" y="83.32" text-anchor="middle" dy="0.6em">1550</text>
    <text x="145.4" y="83.32" text-anchor="middle" dy="0.6em">1600</text>
  </g>
<g clip-path="url(#img-95086805-4)">
  <g id="img-95086805-5">
    <g pointer-events="visible" opacity="1" fill="#000000" fill-opacity="0.000" stroke="#000000" stroke-opacity="0.000" class="guide background" id="img-95086805-6">
      <rect x="12.02" y="5" width="135.38" height="77.32"/>
    </g>
    <g class="guide ygridlines xfixed" stroke-dasharray="0.5,0.5" stroke-width="0.2" stroke="#D0D0E0" id="img-95086805-7">
      <path fill="none" d="M12.02,80.31 L 147.4 80.31"/>
      <path fill="none" d="M12.02,65.65 L 147.4 65.65"/>
      <path fill="none" d="M12.02,50.99 L 147.4 50.99"/>
      <path fill="none" d="M12.02,36.33 L 147.4 36.33"/>
      <path fill="none" d="M12.02,21.66 L 147.4 21.66"/>
      <path fill="none" d="M12.02,7 L 147.4 7"/>
    </g>
    <g class="guide xgridlines yfixed" stroke-dasharray="0.5,0.5" stroke-width="0.2" stroke="#D0D0E0" id="img-95086805-8">
      <path fill="none" d="M14.02,5 L 14.02 82.32"/>
      <path fill="none" d="M57.81,5 L 57.81 82.32"/>
      <path fill="none" d="M101.61,5 L 101.61 82.32"/>
      <path fill="none" d="M145.4,5 L 145.4 82.32"/>
    </g>
    <g class="plotpanel" id="img-95086805-9">
      <g shape-rendering="crispEdges" stroke-width="0.3" id="img-95086805-10">
        <g stroke="#000000" stroke-opacity="0.000" class="geometry" fill="#00BFFF" id="img-95086805-11">
          <rect x="20.55" y="80.02" width="0.83" height="0.29"/>
          <rect x="21.33" y="80.31" width="0.83" height="0.01"/>
          <rect x="22.11" y="80.31" width="0.83" height="0.01"/>
          <rect x="22.89" y="80.31" width="0.83" height="0.01"/>
          <rect x="23.67" y="80.31" width="0.83" height="0.01"/>
          <rect x="24.45" y="80.02" width="0.83" height="0.29"/>
          <rect x="25.23" y="80.02" width="0.83" height="0.29"/>
          <rect x="26.01" y="80.31" width="0.83" height="0.01"/>
          <rect x="26.79" y="80.31" width="0.83" height="0.01"/>
          <rect x="27.57" y="79.44" width="0.83" height="0.88"/>
          <rect x="28.35" y="80.31" width="0.83" height="0.01"/>
          <rect x="29.13" y="80.31" width="0.83" height="0.01"/>
          <rect x="29.91" y="80.31" width="0.83" height="0.01"/>
          <rect x="30.69" y="80.02" width="0.83" height="0.29"/>
          <rect x="31.47" y="80.31" width="0.83" height="0.01"/>
          <rect x="32.25" y="79.44" width="0.83" height="0.88"/>
          <rect x="33.03" y="78.85" width="0.83" height="1.47"/>
          <rect x="33.81" y="80.02" width="0.83" height="0.29"/>
          <rect x="34.59" y="80.02" width="0.83" height="0.29"/>
          <rect x="35.37" y="79.44" width="0.83" height="0.88"/>
          <rect x="36.15" y="79.44" width="0.83" height="0.88"/>
          <rect x="36.93" y="79.44" width="0.83" height="0.88"/>
          <rect x="37.71" y="77.68" width="0.83" height="2.64"/>
          <rect x="38.49" y="78.85" width="0.83" height="1.47"/>
          <rect x="39.27" y="78.56" width="0.83" height="1.76"/>
          <rect x="40.05" y="79.14" width="0.83" height="1.17"/>
          <rect x="40.83" y="79.14" width="0.83" height="1.17"/>
          <rect x="41.61" y="78.26" width="0.83" height="2.05"/>
          <rect x="42.39" y="78.26" width="0.83" height="2.05"/>
          <rect x="43.17" y="77.68" width="0.83" height="2.64"/>
          <rect x="43.95" y="77.09" width="0.83" height="3.23"/>
          <rect x="44.73" y="75.33" width="0.83" height="4.99"/>
          <rect x="45.51" y="76.21" width="0.83" height="4.11"/>
          <rect x="46.29" y="75.33" width="0.83" height="4.99"/>
          <rect x="47.07" y="74.16" width="0.83" height="6.16"/>
          <rect x="47.85" y="75.33" width="0.83" height="4.99"/>
          <rect x="48.63" y="72.98" width="0.83" height="7.33"/>
          <rect x="49.41" y="72.69" width="0.83" height="7.62"/>
          <rect x="50.2" y="73.57" width="0.83" height="6.74"/>
          <rect x="50.98" y="72.98" width="0.83" height="7.33"/>
          <rect x="51.76" y="73.28" width="0.83" height="7.04"/>
          <rect x="52.54" y="68.29" width="0.83" height="12.02"/>
          <rect x="53.32" y="70.64" width="0.83" height="9.68"/>
          <rect x="54.1" y="67.7" width="0.83" height="12.61"/>
          <rect x="54.88" y="66.53" width="0.83" height="13.78"/>
          <rect x="55.66" y="66.53" width="0.83" height="13.78"/>
          <rect x="56.44" y="67.12" width="0.83" height="13.2"/>
          <rect x="57.22" y="64.19" width="0.83" height="16.13"/>
          <rect x="58" y="57.15" width="0.83" height="23.17"/>
          <rect x="58.78" y="62.13" width="0.83" height="18.18"/>
          <rect x="59.56" y="55.39" width="0.83" height="24.93"/>
          <rect x="60.34" y="62.72" width="0.83" height="17.6"/>
          <rect x="61.12" y="57.15" width="0.83" height="23.17"/>
          <rect x="61.9" y="53.34" width="0.83" height="26.98"/>
          <rect x="62.68" y="50.99" width="0.83" height="29.33"/>
          <rect x="63.46" y="51.58" width="0.83" height="28.74"/>
          <rect x="64.24" y="45.42" width="0.83" height="34.9"/>
          <rect x="65.02" y="49.52" width="0.83" height="30.79"/>
          <rect x="65.8" y="42.48" width="0.83" height="37.83"/>
          <rect x="66.58" y="42.78" width="0.83" height="37.54"/>
          <rect x="67.36" y="41.6" width="0.83" height="38.71"/>
          <rect x="68.14" y="38.09" width="0.83" height="42.23"/>
          <rect x="68.92" y="38.67" width="0.83" height="41.64"/>
          <rect x="69.7" y="31.63" width="0.83" height="48.68"/>
          <rect x="70.48" y="36.62" width="0.83" height="43.7"/>
          <rect x="71.26" y="28.99" width="0.83" height="51.32"/>
          <rect x="72.04" y="27.82" width="0.83" height="52.49"/>
          <rect x="72.82" y="29.87" width="0.83" height="50.44"/>
          <rect x="73.6" y="30.75" width="0.83" height="49.56"/>
          <rect x="74.38" y="22.25" width="0.83" height="58.07"/>
          <rect x="75.16" y="23.42" width="0.83" height="56.89"/>
          <rect x="75.94" y="24.01" width="0.83" height="56.31"/>
          <rect x="76.72" y="22.84" width="0.83" height="57.48"/>
          <rect x="77.5" y="29.58" width="0.83" height="50.73"/>
          <rect x="78.28" y="24.01" width="0.83" height="56.31"/>
          <rect x="79.06" y="22.84" width="0.83" height="57.48"/>
          <rect x="79.84" y="25.48" width="0.83" height="54.84"/>
          <rect x="80.62" y="19.02" width="0.83" height="61.29"/>
          <rect x="81.4" y="20.78" width="0.83" height="59.53"/>
          <rect x="82.18" y="25.18" width="0.83" height="55.13"/>
          <rect x="82.96" y="31.93" width="0.83" height="48.39"/>
          <rect x="83.74" y="20.2" width="0.83" height="60.12"/>
          <rect x="84.53" y="20.2" width="0.83" height="60.12"/>
          <rect x="85.31" y="15.8" width="0.83" height="64.52"/>
          <rect x="86.09" y="26.06" width="0.83" height="54.25"/>
          <rect x="86.87" y="24.6" width="0.83" height="55.72"/>
          <rect x="87.65" y="27.53" width="0.83" height="52.79"/>
          <rect x="88.43" y="28.7" width="0.83" height="51.61"/>
          <rect x="89.21" y="27.53" width="0.83" height="52.79"/>
          <rect x="89.99" y="30.17" width="0.83" height="50.15"/>
          <rect x="90.77" y="31.34" width="0.83" height="48.97"/>
          <rect x="91.55" y="33.69" width="0.83" height="46.63"/>
          <rect x="92.33" y="31.63" width="0.83" height="48.68"/>
          <rect x="93.11" y="35.45" width="0.83" height="44.87"/>
          <rect x="93.89" y="38.67" width="0.83" height="41.64"/>
          <rect x="94.67" y="45.12" width="0.83" height="35.19"/>
          <rect x="95.45" y="39.85" width="0.83" height="40.47"/>
          <rect x="96.23" y="42.78" width="0.83" height="37.54"/>
          <rect x="97.01" y="44.24" width="0.83" height="36.07"/>
          <rect x="97.79" y="42.78" width="0.83" height="37.54"/>
          <rect x="98.57" y="48.64" width="0.83" height="31.67"/>
          <rect x="99.35" y="47.47" width="0.83" height="32.85"/>
          <rect x="100.13" y="48.94" width="0.83" height="31.38"/>
          <rect x="100.91" y="51.28" width="0.83" height="29.03"/>
          <rect x="101.69" y="56.27" width="0.83" height="24.05"/>
          <rect x="102.47" y="56.85" width="0.83" height="23.46"/>
          <rect x="103.25" y="56.56" width="0.83" height="23.75"/>
          <rect x="104.03" y="61.84" width="0.83" height="18.48"/>
          <rect x="104.81" y="61.55" width="0.83" height="18.77"/>
          <rect x="105.59" y="60.96" width="0.83" height="19.36"/>
          <rect x="106.37" y="62.13" width="0.83" height="18.18"/>
          <rect x="107.15" y="65.95" width="0.83" height="14.37"/>
          <rect x="107.93" y="67.7" width="0.83" height="12.61"/>
          <rect x="108.71" y="67.7" width="0.83" height="12.61"/>
          <rect x="109.49" y="68" width="0.83" height="12.32"/>
          <rect x="110.27" y="70.34" width="0.83" height="9.97"/>
          <rect x="111.05" y="73.86" width="0.83" height="6.45"/>
          <rect x="111.83" y="72.1" width="0.83" height="8.21"/>
          <rect x="112.61" y="70.64" width="0.83" height="9.68"/>
          <rect x="113.39" y="75.62" width="0.83" height="4.69"/>
          <rect x="114.17" y="74.16" width="0.83" height="6.16"/>
          <rect x="114.95" y="74.45" width="0.83" height="5.87"/>
          <rect x="115.73" y="75.62" width="0.83" height="4.69"/>
          <rect x="116.51" y="75.33" width="0.83" height="4.99"/>
          <rect x="117.29" y="75.92" width="0.83" height="4.4"/>
          <rect x="118.07" y="77.09" width="0.83" height="3.23"/>
          <rect x="118.86" y="77.68" width="0.83" height="2.64"/>
          <rect x="119.64" y="77.38" width="0.83" height="2.93"/>
          <rect x="120.42" y="77.09" width="0.83" height="3.23"/>
          <rect x="121.2" y="78.56" width="0.83" height="1.76"/>
          <rect x="121.98" y="78.85" width="0.83" height="1.47"/>
          <rect x="122.76" y="79.44" width="0.83" height="0.88"/>
          <rect x="123.54" y="79.73" width="0.83" height="0.59"/>
          <rect x="124.32" y="79.14" width="0.83" height="1.17"/>
          <rect x="125.1" y="79.44" width="0.83" height="0.88"/>
          <rect x="125.88" y="80.02" width="0.83" height="0.29"/>
          <rect x="126.66" y="79.73" width="0.83" height="0.59"/>
          <rect x="127.44" y="79.73" width="0.83" height="0.59"/>
          <rect x="128.22" y="80.02" width="0.83" height="0.29"/>
          <rect x="129" y="80.02" width="0.83" height="0.29"/>
          <rect x="129.78" y="80.31" width="0.83" height="0.01"/>
          <rect x="130.56" y="80.02" width="0.83" height="0.29"/>
          <rect x="131.34" y="80.31" width="0.83" height="0.01"/>
          <rect x="132.12" y="80.02" width="0.83" height="0.29"/>
          <rect x="132.9" y="80.02" width="0.83" height="0.29"/>
          <rect x="133.68" y="80.31" width="0.83" height="0.01"/>
          <rect x="134.46" y="80.31" width="0.83" height="0.01"/>
          <rect x="135.24" y="80.02" width="0.83" height="0.29"/>
          <rect x="136.02" y="80.31" width="0.83" height="0.01"/>
          <rect x="136.8" y="80.02" width="0.83" height="0.29"/>
        </g>
      </g>
    </g>
  </g>
</g>
  <g class="guide ylabels" font-size="2.82" font-family="'PT Sans Caption','Helvetica Neue','Helvetica',sans-serif" fill="#6C606B" id="img-95086805-12">
    <text x="11.02" y="80.31" text-anchor="end" dy="0.35em">0</text>
    <text x="11.02" y="65.65" text-anchor="end" dy="0.35em">50</text>
    <text x="11.02" y="50.99" text-anchor="end" dy="0.35em">100</text>
    <text x="11.02" y="36.33" text-anchor="end" dy="0.35em">150</text>
    <text x="11.02" y="21.66" text-anchor="end" dy="0.35em">200</text>
    <text x="11.02" y="7" text-anchor="end" dy="0.35em">250</text>
  </g>
</g>
<defs>
  <clipPath id="img-95086805-4">
  <path d="M12.02,5 L 147.4 5 147.4 82.32 12.02 82.32" />
</clipPath>
</defs>
</svg>
