<?xml version="1.0" encoding="UTF-8"?>
<svg xmlns="http://www.w3.org/2000/svg"
     xmlns:xlink="http://www.w3.org/1999/xlink"
     xmlns:gadfly="http://www.gadflyjl.org/ns"
     version="1.2"
     width="203.2mm" height="101.6mm" viewBox="0 0 203.2 101.6"
     stroke="none"
     fill="#000000"
     stroke-width="0.3"
     font-size="3.88"
>
<g class="plotroot xscalable yscalable" id="img-59845c2c-1">
  <g font-size="3.88" font-family="'PT Sans','Helvetica Neue','Helvetica',sans-serif" fill="#564A55" stroke="#000000" stroke-opacity="0.000" id="img-59845c2c-2">
    <text x="105.11" y="89.99" text-anchor="middle" dy="0.6em">θ₃</text>
  </g>
  <g class="guide xlabels" font-size="2.82" font-family="'PT Sans Caption','Helvetica Neue','Helvetica',sans-serif" fill="#6C606B" id="img-59845c2c-3">
    <text x="14.02" y="83.32" text-anchor="middle" dy="0.6em">0.0</text>
    <text x="59.56" y="83.32" text-anchor="middle" dy="0.6em">0.1</text>
    <text x="105.11" y="83.32" text-anchor="middle" dy="0.6em">0.2</text>
    <text x="150.66" y="83.32" text-anchor="middle" dy="0.6em">0.3</text>
    <text x="196.2" y="83.32" text-anchor="middle" dy="0.6em">0.4</text>
  </g>
<g clip-path="url(#img-59845c2c-4)">
  <g id="img-59845c2c-5">
    <g pointer-events="visible" opacity="1" fill="#000000" fill-opacity="0.000" stroke="#000000" stroke-opacity="0.000" class="guide background" id="img-59845c2c-6">
      <rect x="12.02" y="5" width="186.18" height="77.32"/>
    </g>
    <g class="guide ygridlines xfixed" stroke-dasharray="0.5,0.5" stroke-width="0.2" stroke="#D0D0E0" id="img-59845c2c-7">
      <path fill="none" d="M12.02,80.32 L 198.2 80.32"/>
      <path fill="none" d="M12.02,61.99 L 198.2 61.99"/>
      <path fill="none" d="M12.02,43.66 L 198.2 43.66"/>
      <path fill="none" d="M12.02,25.33 L 198.2 25.33"/>
      <path fill="none" d="M12.02,7 L 198.2 7"/>
    </g>
    <g class="guide xgridlines yfixed" stroke-dasharray="0.5,0.5" stroke-width="0.2" stroke="#D0D0E0" id="img-59845c2c-8">
      <path fill="none" d="M14.02,5 L 14.02 82.32"/>
      <path fill="none" d="M59.56,5 L 59.56 82.32"/>
      <path fill="none" d="M105.11,5 L 105.11 82.32"/>
      <path fill="none" d="M150.66,5 L 150.66 82.32"/>
      <path fill="none" d="M196.2,5 L 196.2 82.32"/>
    </g>
    <g class="plotpanel" id="img-59845c2c-9">
      <g shape-rendering="crispEdges" stroke-width="0.3" id="img-59845c2c-10">
        <g stroke="#000000" stroke-opacity="0.000" class="geometry" fill="#00BFFF" id="img-59845c2c-11">
          <rect x="14" y="23.31" width="1.23" height="57"/>
          <rect x="15.18" y="79.95" width="1.23" height="0.37"/>
          <rect x="16.36" y="80.13" width="1.23" height="0.18"/>
          <rect x="17.54" y="79.95" width="1.23" height="0.37"/>
          <rect x="18.73" y="79.95" width="1.23" height="0.37"/>
          <rect x="19.91" y="79.95" width="1.23" height="0.37"/>
          <rect x="21.09" y="80.13" width="1.23" height="0.18"/>
          <rect x="22.27" y="79.95" width="1.23" height="0.37"/>
          <rect x="23.46" y="79.58" width="1.23" height="0.73"/>
          <rect x="24.64" y="80.13" width="1.23" height="0.18"/>
          <rect x="25.82" y="79.95" width="1.23" height="0.37"/>
          <rect x="27.01" y="79.22" width="1.23" height="1.1"/>
          <rect x="28.19" y="79.58" width="1.23" height="0.73"/>
          <rect x="29.37" y="79.4" width="1.23" height="0.92"/>
          <rect x="30.55" y="79.95" width="1.23" height="0.37"/>
          <rect x="31.74" y="79.58" width="1.23" height="0.73"/>
          <rect x="32.92" y="78.85" width="1.23" height="1.47"/>
          <rect x="34.1" y="79.58" width="1.23" height="0.73"/>
          <rect x="35.29" y="77.93" width="1.23" height="2.38"/>
          <rect x="36.47" y="78.3" width="1.23" height="2.02"/>
          <rect x="37.65" y="78.3" width="1.23" height="2.02"/>
          <rect x="38.83" y="77.93" width="1.23" height="2.38"/>
          <rect x="40.02" y="78.3" width="1.23" height="2.02"/>
          <rect x="41.2" y="77.75" width="1.23" height="2.57"/>
          <rect x="42.38" y="78.48" width="1.23" height="1.83"/>
          <rect x="43.56" y="78.12" width="1.23" height="2.2"/>
          <rect x="44.75" y="78.85" width="1.23" height="1.47"/>
          <rect x="45.93" y="78.3" width="1.23" height="2.02"/>
          <rect x="47.11" y="78.12" width="1.23" height="2.2"/>
          <rect x="48.3" y="77.57" width="1.23" height="2.75"/>
          <rect x="49.48" y="75.92" width="1.23" height="4.4"/>
          <rect x="50.66" y="78.12" width="1.23" height="2.2"/>
          <rect x="51.84" y="75.92" width="1.23" height="4.4"/>
          <rect x="53.03" y="75.18" width="1.23" height="5.13"/>
          <rect x="54.21" y="75.37" width="1.23" height="4.95"/>
          <rect x="55.39" y="75.73" width="1.23" height="4.58"/>
          <rect x="56.58" y="75.55" width="1.23" height="4.77"/>
          <rect x="57.76" y="75.37" width="1.23" height="4.95"/>
          <rect x="58.94" y="72.43" width="1.23" height="7.88"/>
          <rect x="60.12" y="73.72" width="1.23" height="6.6"/>
          <rect x="61.31" y="72.8" width="1.23" height="7.51"/>
          <rect x="62.49" y="72.43" width="1.23" height="7.88"/>
          <rect x="63.67" y="72.8" width="1.23" height="7.51"/>
          <rect x="64.85" y="71.88" width="1.23" height="8.43"/>
          <rect x="66.04" y="68.77" width="1.23" height="11.55"/>
          <rect x="67.22" y="72.43" width="1.23" height="7.88"/>
          <rect x="68.4" y="68.03" width="1.23" height="12.28"/>
          <rect x="69.59" y="68.22" width="1.23" height="12.1"/>
          <rect x="70.77" y="69.13" width="1.23" height="11.18"/>
          <rect x="71.95" y="67.85" width="1.23" height="12.46"/>
          <rect x="73.13" y="62.9" width="1.23" height="17.41"/>
          <rect x="74.32" y="67.12" width="1.23" height="13.2"/>
          <rect x="75.5" y="63.27" width="1.23" height="17.05"/>
          <rect x="76.68" y="65.65" width="1.23" height="14.66"/>
          <rect x="77.87" y="61.07" width="1.23" height="19.25"/>
          <rect x="79.05" y="62.54" width="1.23" height="17.78"/>
          <rect x="80.23" y="60.7" width="1.23" height="19.61"/>
          <rect x="81.41" y="60.52" width="1.23" height="19.8"/>
          <rect x="82.6" y="58.87" width="1.23" height="21.44"/>
          <rect x="83.78" y="55.94" width="1.23" height="24.38"/>
          <rect x="84.96" y="56.67" width="1.23" height="23.64"/>
          <rect x="86.14" y="50.81" width="1.23" height="29.51"/>
          <rect x="87.33" y="52.64" width="1.23" height="27.68"/>
          <rect x="88.51" y="54.1" width="1.23" height="26.21"/>
          <rect x="89.69" y="51.91" width="1.23" height="28.41"/>
          <rect x="90.88" y="53.01" width="1.23" height="27.31"/>
          <rect x="92.06" y="50.26" width="1.23" height="30.06"/>
          <rect x="93.24" y="52.64" width="1.23" height="27.68"/>
          <rect x="94.42" y="47.32" width="1.23" height="32.99"/>
          <rect x="95.61" y="46.41" width="1.23" height="33.91"/>
          <rect x="96.79" y="48.42" width="1.23" height="31.89"/>
          <rect x="97.97" y="46.96" width="1.23" height="33.36"/>
          <rect x="99.16" y="46.96" width="1.23" height="33.36"/>
          <rect x="100.34" y="44.94" width="1.23" height="35.37"/>
          <rect x="101.52" y="41.82" width="1.23" height="38.49"/>
          <rect x="102.7" y="45.49" width="1.23" height="34.82"/>
          <rect x="103.89" y="48.24" width="1.23" height="32.08"/>
          <rect x="105.07" y="41.09" width="1.23" height="39.22"/>
          <rect x="106.25" y="44.76" width="1.23" height="35.56"/>
          <rect x="107.43" y="47.51" width="1.23" height="32.81"/>
          <rect x="108.62" y="48.61" width="1.23" height="31.71"/>
          <rect x="109.8" y="43.66" width="1.23" height="36.66"/>
          <rect x="110.98" y="48.42" width="1.23" height="31.89"/>
          <rect x="112.17" y="41.46" width="1.23" height="38.86"/>
          <rect x="113.35" y="49.16" width="1.23" height="31.16"/>
          <rect x="114.53" y="47.51" width="1.23" height="32.81"/>
          <rect x="115.71" y="51.72" width="1.23" height="28.59"/>
          <rect x="116.9" y="48.42" width="1.23" height="31.89"/>
          <rect x="118.08" y="55.2" width="1.23" height="25.11"/>
          <rect x="119.26" y="48.06" width="1.23" height="32.26"/>
          <rect x="120.45" y="53.01" width="1.23" height="27.31"/>
          <rect x="121.63" y="54.29" width="1.23" height="26.03"/>
          <rect x="122.81" y="55.39" width="1.23" height="24.93"/>
          <rect x="123.99" y="53.92" width="1.23" height="26.39"/>
          <rect x="125.18" y="54.47" width="1.23" height="25.84"/>
          <rect x="126.36" y="55.39" width="1.23" height="24.93"/>
          <rect x="127.54" y="58.5" width="1.23" height="21.81"/>
          <rect x="128.73" y="57.95" width="1.23" height="22.36"/>
          <rect x="129.91" y="63.64" width="1.23" height="16.68"/>
          <rect x="131.09" y="59.79" width="1.23" height="20.53"/>
          <rect x="132.27" y="64" width="1.23" height="16.31"/>
          <rect x="133.46" y="65.1" width="1.23" height="15.21"/>
          <rect x="134.64" y="62.9" width="1.23" height="17.41"/>
          <rect x="135.82" y="66.02" width="1.23" height="14.3"/>
          <rect x="137" y="68.58" width="1.23" height="11.73"/>
          <rect x="138.19" y="66.2" width="1.23" height="14.11"/>
          <rect x="139.37" y="67.67" width="1.23" height="12.65"/>
          <rect x="140.55" y="70.97" width="1.23" height="9.35"/>
          <rect x="141.74" y="69.5" width="1.23" height="10.81"/>
          <rect x="142.92" y="70.23" width="1.23" height="10.08"/>
          <rect x="144.1" y="72.07" width="1.23" height="8.25"/>
          <rect x="145.28" y="71.88" width="1.23" height="8.43"/>
          <rect x="146.47" y="75.92" width="1.23" height="4.4"/>
          <rect x="147.65" y="74.63" width="1.23" height="5.68"/>
          <rect x="148.83" y="74.63" width="1.23" height="5.68"/>
          <rect x="150.02" y="74.63" width="1.23" height="5.68"/>
          <rect x="151.2" y="75.92" width="1.23" height="4.4"/>
          <rect x="152.38" y="74.45" width="1.23" height="5.87"/>
          <rect x="153.56" y="76.1" width="1.23" height="4.22"/>
          <rect x="154.75" y="76.83" width="1.23" height="3.48"/>
          <rect x="155.93" y="76.83" width="1.23" height="3.48"/>
          <rect x="157.11" y="78.48" width="1.23" height="1.83"/>
          <rect x="158.29" y="79.22" width="1.23" height="1.1"/>
          <rect x="159.48" y="77.93" width="1.23" height="2.38"/>
          <rect x="160.66" y="77.57" width="1.23" height="2.75"/>
          <rect x="161.84" y="78.12" width="1.23" height="2.2"/>
          <rect x="163.03" y="79.03" width="1.23" height="1.28"/>
          <rect x="164.21" y="79.4" width="1.23" height="0.92"/>
          <rect x="165.39" y="79.22" width="1.23" height="1.1"/>
          <rect x="166.57" y="78.67" width="1.23" height="1.65"/>
          <rect x="167.76" y="79.4" width="1.23" height="0.92"/>
          <rect x="168.94" y="79.4" width="1.23" height="0.92"/>
          <rect x="170.12" y="79.77" width="1.23" height="0.55"/>
          <rect x="171.31" y="79.22" width="1.23" height="1.1"/>
          <rect x="172.49" y="79.77" width="1.23" height="0.55"/>
          <rect x="173.67" y="79.58" width="1.23" height="0.73"/>
          <rect x="174.85" y="79.58" width="1.23" height="0.73"/>
          <rect x="176.04" y="79.77" width="1.23" height="0.55"/>
          <rect x="177.22" y="79.95" width="1.23" height="0.37"/>
          <rect x="178.4" y="79.95" width="1.23" height="0.37"/>
          <rect x="179.58" y="80.13" width="1.23" height="0.18"/>
          <rect x="180.77" y="79.95" width="1.23" height="0.37"/>
          <rect x="181.95" y="80.13" width="1.23" height="0.18"/>
          <rect x="183.13" y="80.32" width="1.23" height="0.01"/>
          <rect x="184.32" y="80.32" width="1.23" height="0.01"/>
          <rect x="185.5" y="80.32" width="1.23" height="0.01"/>
          <rect x="186.68" y="80.13" width="1.23" height="0.18"/>
          <rect x="187.86" y="79.95" width="1.23" height="0.37"/>
          <rect x="189.05" y="80.13" width="1.23" height="0.18"/>
          <rect x="190.23" y="80.13" width="1.23" height="0.18"/>
        </g>
      </g>
    </g>
  </g>
</g>
  <g class="guide ylabels" font-size="2.82" font-family="'PT Sans Caption','Helvetica Neue','Helvetica',sans-serif" fill="#6C606B" id="img-59845c2c-12">
    <text x="11.02" y="80.32" text-anchor="end" dy="0.35em">0</text>
    <text x="11.02" y="61.99" text-anchor="end" dy="0.35em">100</text>
    <text x="11.02" y="43.66" text-anchor="end" dy="0.35em">200</text>
    <text x="11.02" y="25.33" text-anchor="end" dy="0.35em">300</text>
    <text x="11.02" y="7" text-anchor="end" dy="0.35em">400</text>
  </g>
</g>
<defs>
  <clipPath id="img-59845c2c-4">
  <path d="M12.02,5 L 198.2 5 198.2 82.32 12.02 82.32" />
</clipPath>
</defs>
</svg>
