<?xml version="1.0" encoding="UTF-8"?>
<svg xmlns="http://www.w3.org/2000/svg"
     xmlns:xlink="http://www.w3.org/1999/xlink"
     xmlns:gadfly="http://www.gadflyjl.org/ns"
     version="1.2"
     width="141.42mm" height="100mm" viewBox="0 0 141.42 100"
     stroke="none"
     fill="#000000"
     stroke-width="0.3"
     font-size="3.88"
>
<defs>
  <marker id="arrow" markerWidth="15" markerHeight="7" refX="5" refY="3.5" orient="auto" markerUnits="strokeWidth">
    <path d="M0,0 L15,3.5 L0,7 z" stroke="context-stroke" fill="context-stroke"/>
  </marker>
</defs>
<g class="plotroot xscalable yscalable" id="img-6aa29a5d-1">
  <g font-size="3.88" font-family="'PT Sans','Helvetica Neue','Helvetica',sans-serif" fill="#564A55" stroke="#000000" stroke-opacity="0.000" id="img-6aa29a5d-2">
    <g transform="translate(74.22,88.39)">
      <g class="primitive">
        <text text-anchor="middle" dy="0.6em">Parametric bootstrap samples of correlation of random effects</text>
      </g>
    </g>
  </g>
  <g class="guide xlabels" font-size="2.82" font-family="'PT Sans Caption','Helvetica Neue','Helvetica',sans-serif" fill="#6C606B" id="img-6aa29a5d-3">
    <g transform="translate(14.02,81.72)">
      <g class="primitive">
        <text text-anchor="middle" dy="0.6em">-1.0</text>
      </g>
    </g>
    <g transform="translate(44.12,81.72)">
      <g class="primitive">
        <text text-anchor="middle" dy="0.6em">-0.5</text>
      </g>
    </g>
    <g transform="translate(74.22,81.72)">
      <g class="primitive">
        <text text-anchor="middle" dy="0.6em">0.0</text>
      </g>
    </g>
    <g transform="translate(104.32,81.72)">
      <g class="primitive">
        <text text-anchor="middle" dy="0.6em">0.5</text>
      </g>
    </g>
    <g transform="translate(134.42,81.72)">
      <g class="primitive">
        <text text-anchor="middle" dy="0.6em">1.0</text>
      </g>
    </g>
  </g>
  <g clip-path="url(#img-6aa29a5d-4)">
    <g id="img-6aa29a5d-5">
      <g pointer-events="visible" stroke-width="0.3" fill="#000000" fill-opacity="0.000" stroke="#000000" stroke-opacity="0.000" class="guide background" id="img-6aa29a5d-6">
        <g transform="translate(74.22,42.86)" id="img-6aa29a5d-7">
          <path d="M-62.2,-37.86 L62.2,-37.86 62.2,37.86 -62.2,37.86  z" class="primitive"/>
        </g>
      </g>
      <g class="guide ygridlines xfixed" stroke-dasharray="0.5,0.5" stroke-width="0.2" stroke="#D0D0E0" id="img-6aa29a5d-8">
        <g transform="translate(74.22,78.71)" id="img-6aa29a5d-9">
          <path fill="none" d="M-62.2,0 L62.2,0 " class="primitive"/>
        </g>
        <g transform="translate(74.22,60.79)" id="img-6aa29a5d-10">
          <path fill="none" d="M-62.2,0 L62.2,0 " class="primitive"/>
        </g>
        <g transform="translate(74.22,42.86)" id="img-6aa29a5d-11">
          <path fill="none" d="M-62.2,0 L62.2,0 " class="primitive"/>
        </g>
        <g transform="translate(74.22,24.93)" id="img-6aa29a5d-12">
          <path fill="none" d="M-62.2,0 L62.2,0 " class="primitive"/>
        </g>
        <g transform="translate(74.22,7)" id="img-6aa29a5d-13">
          <path fill="none" d="M-62.2,0 L62.2,0 " class="primitive"/>
        </g>
      </g>
      <g class="guide xgridlines yfixed" stroke-dasharray="0.5,0.5" stroke-width="0.2" stroke="#D0D0E0" id="img-6aa29a5d-14">
        <g transform="translate(14.02,42.86)" id="img-6aa29a5d-15">
          <path fill="none" d="M0,-37.86 L0,37.86 " class="primitive"/>
        </g>
        <g transform="translate(44.12,42.86)" id="img-6aa29a5d-16">
          <path fill="none" d="M0,-37.86 L0,37.86 " class="primitive"/>
        </g>
        <g transform="translate(74.22,42.86)" id="img-6aa29a5d-17">
          <path fill="none" d="M0,-37.86 L0,37.86 " class="primitive"/>
        </g>
        <g transform="translate(104.32,42.86)" id="img-6aa29a5d-18">
          <path fill="none" d="M0,-37.86 L0,37.86 " class="primitive"/>
        </g>
        <g transform="translate(134.42,42.86)" id="img-6aa29a5d-19">
          <path fill="none" d="M0,-37.86 L0,37.86 " class="primitive"/>
        </g>
      </g>
      <g class="plotpanel" id="img-6aa29a5d-20">
        <metadata>
          <boundingbox value="12.019999999999996mm 5.0mm 124.40135623730951mm 75.715mm"/>
          <unitbox value="-1.033222217132804 411.15526737781494 2.066444434265608 -422.31053475563"/>
        </metadata>
        <g shape-rendering="crispEdges" stroke-width="0.3" id="img-6aa29a5d-21">
          <g class="geometry" fill-opacity="1" stroke="#000000" stroke-opacity="0.000" fill="#00BFFF" id="img-6aa29a5d-22">
            <g transform="translate(14.42,78.54)" id="img-6aa29a5d-23">
              <path d="M-0.43,-0.18 L0.43,-0.18 0.43,0.18 -0.43,0.18  z" class="primitive"/>
            </g>
            <g transform="translate(15.22,78.63)" id="img-6aa29a5d-24">
              <path d="M-0.43,-0.09 L0.43,-0.09 0.43,0.09 -0.43,0.09  z" class="primitive"/>
            </g>
            <g transform="translate(16.03,78.72)" id="img-6aa29a5d-25">
              <path d="M-0.43,-0 L0.43,-0 0.43,0 -0.43,0  z" class="primitive"/>
            </g>
            <g transform="translate(16.83,78.72)" id="img-6aa29a5d-26">
              <path d="M-0.43,-0 L0.43,-0 0.43,0 -0.43,0  z" class="primitive"/>
            </g>
            <g transform="translate(17.63,78.72)" id="img-6aa29a5d-27">
              <path d="M-0.43,-0 L0.43,-0 0.43,0 -0.43,0  z" class="primitive"/>
            </g>
            <g transform="translate(18.43,78.72)" id="img-6aa29a5d-28">
              <path d="M-0.43,-0 L0.43,-0 0.43,0 -0.43,0  z" class="primitive"/>
            </g>
            <g transform="translate(19.24,78.72)" id="img-6aa29a5d-29">
              <path d="M-0.43,-0 L0.43,-0 0.43,0 -0.43,0  z" class="primitive"/>
            </g>
            <g transform="translate(20.04,78.72)" id="img-6aa29a5d-30">
              <path d="M-0.43,-0 L0.43,-0 0.43,0 -0.43,0  z" class="primitive"/>
            </g>
            <g transform="translate(20.84,78.63)" id="img-6aa29a5d-31">
              <path d="M-0.43,-0.09 L0.43,-0.09 0.43,0.09 -0.43,0.09  z" class="primitive"/>
            </g>
            <g transform="translate(21.65,78.72)" id="img-6aa29a5d-32">
              <path d="M-0.43,-0 L0.43,-0 0.43,0 -0.43,0  z" class="primitive"/>
            </g>
            <g transform="translate(22.45,78.72)" id="img-6aa29a5d-33">
              <path d="M-0.43,-0 L0.43,-0 0.43,0 -0.43,0  z" class="primitive"/>
            </g>
            <g transform="translate(23.25,78.72)" id="img-6aa29a5d-34">
              <path d="M-0.43,-0 L0.43,-0 0.43,0 -0.43,0  z" class="primitive"/>
            </g>
            <g transform="translate(24.05,78.72)" id="img-6aa29a5d-35">
              <path d="M-0.43,-0 L0.43,-0 0.43,0 -0.43,0  z" class="primitive"/>
            </g>
            <g transform="translate(24.86,78.63)" id="img-6aa29a5d-36">
              <path d="M-0.43,-0.09 L0.43,-0.09 0.43,0.09 -0.43,0.09  z" class="primitive"/>
            </g>
            <g transform="translate(25.66,78.72)" id="img-6aa29a5d-37">
              <path d="M-0.43,-0 L0.43,-0 0.43,0 -0.43,0  z" class="primitive"/>
            </g>
            <g transform="translate(26.46,78.45)" id="img-6aa29a5d-38">
              <path d="M-0.43,-0.27 L0.43,-0.27 0.43,0.27 -0.43,0.27  z" class="primitive"/>
            </g>
            <g transform="translate(27.26,78.63)" id="img-6aa29a5d-39">
              <path d="M-0.43,-0.09 L0.43,-0.09 0.43,0.09 -0.43,0.09  z" class="primitive"/>
            </g>
            <g transform="translate(28.07,78.63)" id="img-6aa29a5d-40">
              <path d="M-0.43,-0.09 L0.43,-0.09 0.43,0.09 -0.43,0.09  z" class="primitive"/>
            </g>
            <g transform="translate(28.87,78.54)" id="img-6aa29a5d-41">
              <path d="M-0.43,-0.18 L0.43,-0.18 0.43,0.18 -0.43,0.18  z" class="primitive"/>
            </g>
            <g transform="translate(29.67,78.54)" id="img-6aa29a5d-42">
              <path d="M-0.43,-0.18 L0.43,-0.18 0.43,0.18 -0.43,0.18  z" class="primitive"/>
            </g>
            <g transform="translate(30.47,78.54)" id="img-6aa29a5d-43">
              <path d="M-0.43,-0.18 L0.43,-0.18 0.43,0.18 -0.43,0.18  z" class="primitive"/>
            </g>
            <g transform="translate(31.28,78.27)" id="img-6aa29a5d-44">
              <path d="M-0.43,-0.45 L0.43,-0.45 0.43,0.45 -0.43,0.45  z" class="primitive"/>
            </g>
            <g transform="translate(32.08,78.63)" id="img-6aa29a5d-45">
              <path d="M-0.43,-0.09 L0.43,-0.09 0.43,0.09 -0.43,0.09  z" class="primitive"/>
            </g>
            <g transform="translate(32.88,78.18)" id="img-6aa29a5d-46">
              <path d="M-0.43,-0.54 L0.43,-0.54 0.43,0.54 -0.43,0.54  z" class="primitive"/>
            </g>
            <g transform="translate(33.69,77.91)" id="img-6aa29a5d-47">
              <path d="M-0.43,-0.81 L0.43,-0.81 0.43,0.81 -0.43,0.81  z" class="primitive"/>
            </g>
            <g transform="translate(34.49,78)" id="img-6aa29a5d-48">
              <path d="M-0.43,-0.72 L0.43,-0.72 0.43,0.72 -0.43,0.72  z" class="primitive"/>
            </g>
            <g transform="translate(35.29,77.64)" id="img-6aa29a5d-49">
              <path d="M-0.43,-1.08 L0.43,-1.08 0.43,1.08 -0.43,1.08  z" class="primitive"/>
            </g>
            <g transform="translate(36.09,77.28)" id="img-6aa29a5d-50">
              <path d="M-0.43,-1.43 L0.43,-1.43 0.43,1.43 -0.43,1.43  z" class="primitive"/>
            </g>
            <g transform="translate(36.9,78.36)" id="img-6aa29a5d-51">
              <path d="M-0.43,-0.36 L0.43,-0.36 0.43,0.36 -0.43,0.36  z" class="primitive"/>
            </g>
            <g transform="translate(37.7,77.91)" id="img-6aa29a5d-52">
              <path d="M-0.43,-0.81 L0.43,-0.81 0.43,0.81 -0.43,0.81  z" class="primitive"/>
            </g>
            <g transform="translate(38.5,77.55)" id="img-6aa29a5d-53">
              <path d="M-0.43,-1.17 L0.43,-1.17 0.43,1.17 -0.43,1.17  z" class="primitive"/>
            </g>
            <g transform="translate(39.3,78.27)" id="img-6aa29a5d-54">
              <path d="M-0.43,-0.45 L0.43,-0.45 0.43,0.45 -0.43,0.45  z" class="primitive"/>
            </g>
            <g transform="translate(40.11,76.83)" id="img-6aa29a5d-55">
              <path d="M-0.43,-1.88 L0.43,-1.88 0.43,1.88 -0.43,1.88  z" class="primitive"/>
            </g>
            <g transform="translate(40.91,77.28)" id="img-6aa29a5d-56">
              <path d="M-0.43,-1.43 L0.43,-1.43 0.43,1.43 -0.43,1.43  z" class="primitive"/>
            </g>
            <g transform="translate(41.71,76.92)" id="img-6aa29a5d-57">
              <path d="M-0.43,-1.79 L0.43,-1.79 0.43,1.79 -0.43,1.79  z" class="primitive"/>
            </g>
            <g transform="translate(42.51,76.74)" id="img-6aa29a5d-58">
              <path d="M-0.43,-1.97 L0.43,-1.97 0.43,1.97 -0.43,1.97  z" class="primitive"/>
            </g>
            <g transform="translate(43.32,76.29)" id="img-6aa29a5d-59">
              <path d="M-0.43,-2.42 L0.43,-2.42 0.43,2.42 -0.43,2.42  z" class="primitive"/>
            </g>
            <g transform="translate(44.12,75.67)" id="img-6aa29a5d-60">
              <path d="M-0.43,-3.05 L0.43,-3.05 0.43,3.05 -0.43,3.05  z" class="primitive"/>
            </g>
            <g transform="translate(44.92,75.76)" id="img-6aa29a5d-61">
              <path d="M-0.43,-2.96 L0.43,-2.96 0.43,2.96 -0.43,2.96  z" class="primitive"/>
            </g>
            <g transform="translate(45.73,75.94)" id="img-6aa29a5d-62">
              <path d="M-0.43,-2.78 L0.43,-2.78 0.43,2.78 -0.43,2.78  z" class="primitive"/>
            </g>
            <g transform="translate(46.53,76.12)" id="img-6aa29a5d-63">
              <path d="M-0.43,-2.6 L0.43,-2.6 0.43,2.6 -0.43,2.6  z" class="primitive"/>
            </g>
            <g transform="translate(47.33,74.77)" id="img-6aa29a5d-64">
              <path d="M-0.43,-3.94 L0.43,-3.94 0.43,3.94 -0.43,3.94  z" class="primitive"/>
            </g>
            <g transform="translate(48.13,74.86)" id="img-6aa29a5d-65">
              <path d="M-0.43,-3.85 L0.43,-3.85 0.43,3.85 -0.43,3.85  z" class="primitive"/>
            </g>
            <g transform="translate(48.94,74.41)" id="img-6aa29a5d-66">
              <path d="M-0.43,-4.3 L0.43,-4.3 0.43,4.3 -0.43,4.3  z" class="primitive"/>
            </g>
            <g transform="translate(49.74,74.41)" id="img-6aa29a5d-67">
              <path d="M-0.43,-4.3 L0.43,-4.3 0.43,4.3 -0.43,4.3  z" class="primitive"/>
            </g>
            <g transform="translate(50.54,74.32)" id="img-6aa29a5d-68">
              <path d="M-0.43,-4.39 L0.43,-4.39 0.43,4.39 -0.43,4.39  z" class="primitive"/>
            </g>
            <g transform="translate(51.34,73.34)" id="img-6aa29a5d-69">
              <path d="M-0.43,-5.38 L0.43,-5.38 0.43,5.38 -0.43,5.38  z" class="primitive"/>
            </g>
            <g transform="translate(52.15,72.89)" id="img-6aa29a5d-70">
              <path d="M-0.43,-5.83 L0.43,-5.83 0.43,5.83 -0.43,5.83  z" class="primitive"/>
            </g>
            <g transform="translate(52.95,71.01)" id="img-6aa29a5d-71">
              <path d="M-0.43,-7.71 L0.43,-7.71 0.43,7.71 -0.43,7.71  z" class="primitive"/>
            </g>
            <g transform="translate(53.75,73.16)" id="img-6aa29a5d-72">
              <path d="M-0.43,-5.56 L0.43,-5.56 0.43,5.56 -0.43,5.56  z" class="primitive"/>
            </g>
            <g transform="translate(54.56,72.62)" id="img-6aa29a5d-73">
              <path d="M-0.43,-6.1 L0.43,-6.1 0.43,6.1 -0.43,6.1  z" class="primitive"/>
            </g>
            <g transform="translate(55.36,72.26)" id="img-6aa29a5d-74">
              <path d="M-0.43,-6.45 L0.43,-6.45 0.43,6.45 -0.43,6.45  z" class="primitive"/>
            </g>
            <g transform="translate(56.16,70.65)" id="img-6aa29a5d-75">
              <path d="M-0.43,-8.07 L0.43,-8.07 0.43,8.07 -0.43,8.07  z" class="primitive"/>
            </g>
            <g transform="translate(56.96,71.45)" id="img-6aa29a5d-76">
              <path d="M-0.43,-7.26 L0.43,-7.26 0.43,7.26 -0.43,7.26  z" class="primitive"/>
            </g>
            <g transform="translate(57.77,70.11)" id="img-6aa29a5d-77">
              <path d="M-0.43,-8.61 L0.43,-8.61 0.43,8.61 -0.43,8.61  z" class="primitive"/>
            </g>
            <g transform="translate(58.57,70.02)" id="img-6aa29a5d-78">
              <path d="M-0.43,-8.7 L0.43,-8.7 0.43,8.7 -0.43,8.7  z" class="primitive"/>
            </g>
            <g transform="translate(59.37,69.39)" id="img-6aa29a5d-79">
              <path d="M-0.43,-9.32 L0.43,-9.32 0.43,9.32 -0.43,9.32  z" class="primitive"/>
            </g>
            <g transform="translate(60.17,68.85)" id="img-6aa29a5d-80">
              <path d="M-0.43,-9.86 L0.43,-9.86 0.43,9.86 -0.43,9.86  z" class="primitive"/>
            </g>
            <g transform="translate(60.98,69.57)" id="img-6aa29a5d-81">
              <path d="M-0.43,-9.14 L0.43,-9.14 0.43,9.14 -0.43,9.14  z" class="primitive"/>
            </g>
            <g transform="translate(61.78,70.2)" id="img-6aa29a5d-82">
              <path d="M-0.43,-8.52 L0.43,-8.52 0.43,8.52 -0.43,8.52  z" class="primitive"/>
            </g>
            <g transform="translate(62.58,67.87)" id="img-6aa29a5d-83">
              <path d="M-0.43,-10.85 L0.43,-10.85 0.43,10.85 -0.43,10.85  z" class="primitive"/>
            </g>
            <g transform="translate(63.38,67.33)" id="img-6aa29a5d-84">
              <path d="M-0.43,-11.38 L0.43,-11.38 0.43,11.38 -0.43,11.38  z" class="primitive"/>
            </g>
            <g transform="translate(64.19,65.54)" id="img-6aa29a5d-85">
              <path d="M-0.43,-13.18 L0.43,-13.18 0.43,13.18 -0.43,13.18  z" class="primitive"/>
            </g>
            <g transform="translate(64.99,68.94)" id="img-6aa29a5d-86">
              <path d="M-0.43,-9.77 L0.43,-9.77 0.43,9.77 -0.43,9.77  z" class="primitive"/>
            </g>
            <g transform="translate(65.79,68.32)" id="img-6aa29a5d-87">
              <path d="M-0.43,-10.4 L0.43,-10.4 0.43,10.4 -0.43,10.4  z" class="primitive"/>
            </g>
            <g transform="translate(66.6,68.05)" id="img-6aa29a5d-88">
              <path d="M-0.43,-10.67 L0.43,-10.67 0.43,10.67 -0.43,10.67  z" class="primitive"/>
            </g>
            <g transform="translate(67.4,68.85)" id="img-6aa29a5d-89">
              <path d="M-0.43,-9.86 L0.43,-9.86 0.43,9.86 -0.43,9.86  z" class="primitive"/>
            </g>
            <g transform="translate(68.2,69.75)" id="img-6aa29a5d-90">
              <path d="M-0.43,-8.96 L0.43,-8.96 0.43,8.96 -0.43,8.96  z" class="primitive"/>
            </g>
            <g transform="translate(69,67.42)" id="img-6aa29a5d-91">
              <path d="M-0.43,-11.3 L0.43,-11.3 0.43,11.3 -0.43,11.3  z" class="primitive"/>
            </g>
            <g transform="translate(69.81,65.9)" id="img-6aa29a5d-92">
              <path d="M-0.43,-12.82 L0.43,-12.82 0.43,12.82 -0.43,12.82  z" class="primitive"/>
            </g>
            <g transform="translate(70.61,65.81)" id="img-6aa29a5d-93">
              <path d="M-0.43,-12.91 L0.43,-12.91 0.43,12.91 -0.43,12.91  z" class="primitive"/>
            </g>
            <g transform="translate(71.41,64.55)" id="img-6aa29a5d-94">
              <path d="M-0.43,-14.16 L0.43,-14.16 0.43,14.16 -0.43,14.16  z" class="primitive"/>
            </g>
            <g transform="translate(72.21,66.43)" id="img-6aa29a5d-95">
              <path d="M-0.43,-12.28 L0.43,-12.28 0.43,12.28 -0.43,12.28  z" class="primitive"/>
            </g>
            <g transform="translate(73.02,67.51)" id="img-6aa29a5d-96">
              <path d="M-0.43,-11.21 L0.43,-11.21 0.43,11.21 -0.43,11.21  z" class="primitive"/>
            </g>
            <g transform="translate(73.82,65.72)" id="img-6aa29a5d-97">
              <path d="M-0.43,-13 L0.43,-13 0.43,13 -0.43,13  z" class="primitive"/>
            </g>
            <g transform="translate(74.62,64.37)" id="img-6aa29a5d-98">
              <path d="M-0.43,-14.34 L0.43,-14.34 0.43,14.34 -0.43,14.34  z" class="primitive"/>
            </g>
            <g transform="translate(75.42,66.34)" id="img-6aa29a5d-99">
              <path d="M-0.43,-12.37 L0.43,-12.37 0.43,12.37 -0.43,12.37  z" class="primitive"/>
            </g>
            <g transform="translate(76.23,67.42)" id="img-6aa29a5d-100">
              <path d="M-0.43,-11.3 L0.43,-11.3 0.43,11.3 -0.43,11.3  z" class="primitive"/>
            </g>
            <g transform="translate(77.03,67.24)" id="img-6aa29a5d-101">
              <path d="M-0.43,-11.47 L0.43,-11.47 0.43,11.47 -0.43,11.47  z" class="primitive"/>
            </g>
            <g transform="translate(77.83,68.23)" id="img-6aa29a5d-102">
              <path d="M-0.43,-10.49 L0.43,-10.49 0.43,10.49 -0.43,10.49  z" class="primitive"/>
            </g>
            <g transform="translate(78.64,67.78)" id="img-6aa29a5d-103">
              <path d="M-0.43,-10.94 L0.43,-10.94 0.43,10.94 -0.43,10.94  z" class="primitive"/>
            </g>
            <g transform="translate(79.44,66.61)" id="img-6aa29a5d-104">
              <path d="M-0.43,-12.1 L0.43,-12.1 0.43,12.1 -0.43,12.1  z" class="primitive"/>
            </g>
            <g transform="translate(80.24,66.61)" id="img-6aa29a5d-105">
              <path d="M-0.43,-12.1 L0.43,-12.1 0.43,12.1 -0.43,12.1  z" class="primitive"/>
            </g>
            <g transform="translate(81.04,64.19)" id="img-6aa29a5d-106">
              <path d="M-0.43,-14.52 L0.43,-14.52 0.43,14.52 -0.43,14.52  z" class="primitive"/>
            </g>
            <g transform="translate(81.85,66.61)" id="img-6aa29a5d-107">
              <path d="M-0.43,-12.1 L0.43,-12.1 0.43,12.1 -0.43,12.1  z" class="primitive"/>
            </g>
            <g transform="translate(82.65,68.23)" id="img-6aa29a5d-108">
              <path d="M-0.43,-10.49 L0.43,-10.49 0.43,10.49 -0.43,10.49  z" class="primitive"/>
            </g>
            <g transform="translate(83.45,67.42)" id="img-6aa29a5d-109">
              <path d="M-0.43,-11.3 L0.43,-11.3 0.43,11.3 -0.43,11.3  z" class="primitive"/>
            </g>
            <g transform="translate(84.25,65.54)" id="img-6aa29a5d-110">
              <path d="M-0.43,-13.18 L0.43,-13.18 0.43,13.18 -0.43,13.18  z" class="primitive"/>
            </g>
            <g transform="translate(85.06,68.41)" id="img-6aa29a5d-111">
              <path d="M-0.43,-10.31 L0.43,-10.31 0.43,10.31 -0.43,10.31  z" class="primitive"/>
            </g>
            <g transform="translate(85.86,66.43)" id="img-6aa29a5d-112">
              <path d="M-0.43,-12.28 L0.43,-12.28 0.43,12.28 -0.43,12.28  z" class="primitive"/>
            </g>
            <g transform="translate(86.66,66.79)" id="img-6aa29a5d-113">
              <path d="M-0.43,-11.92 L0.43,-11.92 0.43,11.92 -0.43,11.92  z" class="primitive"/>
            </g>
            <g transform="translate(87.46,66.25)" id="img-6aa29a5d-114">
              <path d="M-0.43,-12.46 L0.43,-12.46 0.43,12.46 -0.43,12.46  z" class="primitive"/>
            </g>
            <g transform="translate(88.27,65.27)" id="img-6aa29a5d-115">
              <path d="M-0.43,-13.45 L0.43,-13.45 0.43,13.45 -0.43,13.45  z" class="primitive"/>
            </g>
            <g transform="translate(89.07,68.23)" id="img-6aa29a5d-116">
              <path d="M-0.43,-10.49 L0.43,-10.49 0.43,10.49 -0.43,10.49  z" class="primitive"/>
            </g>
            <g transform="translate(89.87,67.78)" id="img-6aa29a5d-117">
              <path d="M-0.43,-10.94 L0.43,-10.94 0.43,10.94 -0.43,10.94  z" class="primitive"/>
            </g>
            <g transform="translate(90.68,68.14)" id="img-6aa29a5d-118">
              <path d="M-0.43,-10.58 L0.43,-10.58 0.43,10.58 -0.43,10.58  z" class="primitive"/>
            </g>
            <g transform="translate(91.48,66.16)" id="img-6aa29a5d-119">
              <path d="M-0.43,-12.55 L0.43,-12.55 0.43,12.55 -0.43,12.55  z" class="primitive"/>
            </g>
            <g transform="translate(92.28,66.79)" id="img-6aa29a5d-120">
              <path d="M-0.43,-11.92 L0.43,-11.92 0.43,11.92 -0.43,11.92  z" class="primitive"/>
            </g>
            <g transform="translate(93.08,68.5)" id="img-6aa29a5d-121">
              <path d="M-0.43,-10.22 L0.43,-10.22 0.43,10.22 -0.43,10.22  z" class="primitive"/>
            </g>
            <g transform="translate(93.89,68.41)" id="img-6aa29a5d-122">
              <path d="M-0.43,-10.31 L0.43,-10.31 0.43,10.31 -0.43,10.31  z" class="primitive"/>
            </g>
            <g transform="translate(94.69,67.51)" id="img-6aa29a5d-123">
              <path d="M-0.43,-11.21 L0.43,-11.21 0.43,11.21 -0.43,11.21  z" class="primitive"/>
            </g>
            <g transform="translate(95.49,68.85)" id="img-6aa29a5d-124">
              <path d="M-0.43,-9.86 L0.43,-9.86 0.43,9.86 -0.43,9.86  z" class="primitive"/>
            </g>
            <g transform="translate(96.29,69.93)" id="img-6aa29a5d-125">
              <path d="M-0.43,-8.79 L0.43,-8.79 0.43,8.79 -0.43,8.79  z" class="primitive"/>
            </g>
            <g transform="translate(97.1,69.75)" id="img-6aa29a5d-126">
              <path d="M-0.43,-8.96 L0.43,-8.96 0.43,8.96 -0.43,8.96  z" class="primitive"/>
            </g>
            <g transform="translate(97.9,69.75)" id="img-6aa29a5d-127">
              <path d="M-0.43,-8.96 L0.43,-8.96 0.43,8.96 -0.43,8.96  z" class="primitive"/>
            </g>
            <g transform="translate(98.7,70.02)" id="img-6aa29a5d-128">
              <path d="M-0.43,-8.7 L0.43,-8.7 0.43,8.7 -0.43,8.7  z" class="primitive"/>
            </g>
            <g transform="translate(99.5,71.72)" id="img-6aa29a5d-129">
              <path d="M-0.43,-6.99 L0.43,-6.99 0.43,6.99 -0.43,6.99  z" class="primitive"/>
            </g>
            <g transform="translate(100.31,69.48)" id="img-6aa29a5d-130">
              <path d="M-0.43,-9.23 L0.43,-9.23 0.43,9.23 -0.43,9.23  z" class="primitive"/>
            </g>
            <g transform="translate(101.11,69.66)" id="img-6aa29a5d-131">
              <path d="M-0.43,-9.05 L0.43,-9.05 0.43,9.05 -0.43,9.05  z" class="primitive"/>
            </g>
            <g transform="translate(101.91,70.65)" id="img-6aa29a5d-132">
              <path d="M-0.43,-8.07 L0.43,-8.07 0.43,8.07 -0.43,8.07  z" class="primitive"/>
            </g>
            <g transform="translate(102.72,72.62)" id="img-6aa29a5d-133">
              <path d="M-0.43,-6.1 L0.43,-6.1 0.43,6.1 -0.43,6.1  z" class="primitive"/>
            </g>
            <g transform="translate(103.52,72.8)" id="img-6aa29a5d-134">
              <path d="M-0.43,-5.92 L0.43,-5.92 0.43,5.92 -0.43,5.92  z" class="primitive"/>
            </g>
            <g transform="translate(104.32,70.11)" id="img-6aa29a5d-135">
              <path d="M-0.43,-8.61 L0.43,-8.61 0.43,8.61 -0.43,8.61  z" class="primitive"/>
            </g>
            <g transform="translate(105.12,71.72)" id="img-6aa29a5d-136">
              <path d="M-0.43,-6.99 L0.43,-6.99 0.43,6.99 -0.43,6.99  z" class="primitive"/>
            </g>
            <g transform="translate(105.93,72.17)" id="img-6aa29a5d-137">
              <path d="M-0.43,-6.54 L0.43,-6.54 0.43,6.54 -0.43,6.54  z" class="primitive"/>
            </g>
            <g transform="translate(106.73,73.78)" id="img-6aa29a5d-138">
              <path d="M-0.43,-4.93 L0.43,-4.93 0.43,4.93 -0.43,4.93  z" class="primitive"/>
            </g>
            <g transform="translate(107.53,71.63)" id="img-6aa29a5d-139">
              <path d="M-0.43,-7.08 L0.43,-7.08 0.43,7.08 -0.43,7.08  z" class="primitive"/>
            </g>
            <g transform="translate(108.33,72.8)" id="img-6aa29a5d-140">
              <path d="M-0.43,-5.92 L0.43,-5.92 0.43,5.92 -0.43,5.92  z" class="primitive"/>
            </g>
            <g transform="translate(109.14,73.07)" id="img-6aa29a5d-141">
              <path d="M-0.43,-5.65 L0.43,-5.65 0.43,5.65 -0.43,5.65  z" class="primitive"/>
            </g>
            <g transform="translate(109.94,73.61)" id="img-6aa29a5d-142">
              <path d="M-0.43,-5.11 L0.43,-5.11 0.43,5.11 -0.43,5.11  z" class="primitive"/>
            </g>
            <g transform="translate(110.74,73.52)" id="img-6aa29a5d-143">
              <path d="M-0.43,-5.2 L0.43,-5.2 0.43,5.2 -0.43,5.2  z" class="primitive"/>
            </g>
            <g transform="translate(111.55,72.53)" id="img-6aa29a5d-144">
              <path d="M-0.43,-6.19 L0.43,-6.19 0.43,6.19 -0.43,6.19  z" class="primitive"/>
            </g>
            <g transform="translate(112.35,73.96)" id="img-6aa29a5d-145">
              <path d="M-0.43,-4.75 L0.43,-4.75 0.43,4.75 -0.43,4.75  z" class="primitive"/>
            </g>
            <g transform="translate(113.15,73.34)" id="img-6aa29a5d-146">
              <path d="M-0.43,-5.38 L0.43,-5.38 0.43,5.38 -0.43,5.38  z" class="primitive"/>
            </g>
            <g transform="translate(113.95,74.14)" id="img-6aa29a5d-147">
              <path d="M-0.43,-4.57 L0.43,-4.57 0.43,4.57 -0.43,4.57  z" class="primitive"/>
            </g>
            <g transform="translate(114.76,73.96)" id="img-6aa29a5d-148">
              <path d="M-0.43,-4.75 L0.43,-4.75 0.43,4.75 -0.43,4.75  z" class="primitive"/>
            </g>
            <g transform="translate(115.56,73.87)" id="img-6aa29a5d-149">
              <path d="M-0.43,-4.84 L0.43,-4.84 0.43,4.84 -0.43,4.84  z" class="primitive"/>
            </g>
            <g transform="translate(116.36,75.76)" id="img-6aa29a5d-150">
              <path d="M-0.43,-2.96 L0.43,-2.96 0.43,2.96 -0.43,2.96  z" class="primitive"/>
            </g>
            <g transform="translate(117.16,73.87)" id="img-6aa29a5d-151">
              <path d="M-0.43,-4.84 L0.43,-4.84 0.43,4.84 -0.43,4.84  z" class="primitive"/>
            </g>
            <g transform="translate(117.97,74.41)" id="img-6aa29a5d-152">
              <path d="M-0.43,-4.3 L0.43,-4.3 0.43,4.3 -0.43,4.3  z" class="primitive"/>
            </g>
            <g transform="translate(118.77,75.85)" id="img-6aa29a5d-153">
              <path d="M-0.43,-2.87 L0.43,-2.87 0.43,2.87 -0.43,2.87  z" class="primitive"/>
            </g>
            <g transform="translate(119.57,75.31)" id="img-6aa29a5d-154">
              <path d="M-0.43,-3.41 L0.43,-3.41 0.43,3.41 -0.43,3.41  z" class="primitive"/>
            </g>
            <g transform="translate(120.37,75.4)" id="img-6aa29a5d-155">
              <path d="M-0.43,-3.32 L0.43,-3.32 0.43,3.32 -0.43,3.32  z" class="primitive"/>
            </g>
            <g transform="translate(121.18,75.13)" id="img-6aa29a5d-156">
              <path d="M-0.43,-3.59 L0.43,-3.59 0.43,3.59 -0.43,3.59  z" class="primitive"/>
            </g>
            <g transform="translate(121.98,75.58)" id="img-6aa29a5d-157">
              <path d="M-0.43,-3.14 L0.43,-3.14 0.43,3.14 -0.43,3.14  z" class="primitive"/>
            </g>
            <g transform="translate(122.78,76.12)" id="img-6aa29a5d-158">
              <path d="M-0.43,-2.6 L0.43,-2.6 0.43,2.6 -0.43,2.6  z" class="primitive"/>
            </g>
            <g transform="translate(123.59,75.49)" id="img-6aa29a5d-159">
              <path d="M-0.43,-3.23 L0.43,-3.23 0.43,3.23 -0.43,3.23  z" class="primitive"/>
            </g>
            <g transform="translate(124.39,75.58)" id="img-6aa29a5d-160">
              <path d="M-0.43,-3.14 L0.43,-3.14 0.43,3.14 -0.43,3.14  z" class="primitive"/>
            </g>
            <g transform="translate(125.19,75.76)" id="img-6aa29a5d-161">
              <path d="M-0.43,-2.96 L0.43,-2.96 0.43,2.96 -0.43,2.96  z" class="primitive"/>
            </g>
            <g transform="translate(125.99,77.37)" id="img-6aa29a5d-162">
              <path d="M-0.43,-1.34 L0.43,-1.34 0.43,1.34 -0.43,1.34  z" class="primitive"/>
            </g>
            <g transform="translate(126.8,77.01)" id="img-6aa29a5d-163">
              <path d="M-0.43,-1.7 L0.43,-1.7 0.43,1.7 -0.43,1.7  z" class="primitive"/>
            </g>
            <g transform="translate(127.6,77.19)" id="img-6aa29a5d-164">
              <path d="M-0.43,-1.52 L0.43,-1.52 0.43,1.52 -0.43,1.52  z" class="primitive"/>
            </g>
            <g transform="translate(128.4,77.28)" id="img-6aa29a5d-165">
              <path d="M-0.43,-1.43 L0.43,-1.43 0.43,1.43 -0.43,1.43  z" class="primitive"/>
            </g>
            <g transform="translate(129.2,77.55)" id="img-6aa29a5d-166">
              <path d="M-0.43,-1.17 L0.43,-1.17 0.43,1.17 -0.43,1.17  z" class="primitive"/>
            </g>
            <g transform="translate(130.01,76.47)" id="img-6aa29a5d-167">
              <path d="M-0.43,-2.24 L0.43,-2.24 0.43,2.24 -0.43,2.24  z" class="primitive"/>
            </g>
            <g transform="translate(130.81,77.37)" id="img-6aa29a5d-168">
              <path d="M-0.43,-1.34 L0.43,-1.34 0.43,1.34 -0.43,1.34  z" class="primitive"/>
            </g>
            <g transform="translate(131.61,77.55)" id="img-6aa29a5d-169">
              <path d="M-0.43,-1.17 L0.43,-1.17 0.43,1.17 -0.43,1.17  z" class="primitive"/>
            </g>
            <g transform="translate(132.41,77.19)" id="img-6aa29a5d-170">
              <path d="M-0.43,-1.52 L0.43,-1.52 0.43,1.52 -0.43,1.52  z" class="primitive"/>
            </g>
            <g transform="translate(133.22,77.64)" id="img-6aa29a5d-171">
              <path d="M-0.43,-1.08 L0.43,-1.08 0.43,1.08 -0.43,1.08  z" class="primitive"/>
            </g>
            <g transform="translate(134.02,49.85)" id="img-6aa29a5d-172">
              <path d="M-0.43,-28.87 L0.43,-28.87 0.43,28.87 -0.43,28.87  z" class="primitive"/>
            </g>
          </g>
        </g>
      </g>
    </g>
  </g>
  <g class="guide ylabels" font-size="2.82" font-family="'PT Sans Caption','Helvetica Neue','Helvetica',sans-serif" fill="#6C606B" id="img-6aa29a5d-173">
    <g transform="translate(11.02,78.71)" id="img-6aa29a5d-174">
      <g class="primitive">
        <text text-anchor="end" dy="0.35em">0</text>
      </g>
    </g>
    <g transform="translate(11.02,60.79)" id="img-6aa29a5d-175">
      <g class="primitive">
        <text text-anchor="end" dy="0.35em">100</text>
      </g>
    </g>
    <g transform="translate(11.02,42.86)" id="img-6aa29a5d-176">
      <g class="primitive">
        <text text-anchor="end" dy="0.35em">200</text>
      </g>
    </g>
    <g transform="translate(11.02,24.93)" id="img-6aa29a5d-177">
      <g class="primitive">
        <text text-anchor="end" dy="0.35em">300</text>
      </g>
    </g>
    <g transform="translate(11.02,7)" id="img-6aa29a5d-178">
      <g class="primitive">
        <text text-anchor="end" dy="0.35em">400</text>
      </g>
    </g>
  </g>
</g>
<defs>
  <clipPath id="img-6aa29a5d-4">
    <path d="M12.02,5 L136.42,5 136.42,80.72 12.02,80.72 " />
  </clipPath>
</defs>
</svg>
