<?xml version="1.0" encoding="UTF-8"?>
<svg xmlns="http://www.w3.org/2000/svg"
     xmlns:xlink="http://www.w3.org/1999/xlink"
     xmlns:gadfly="http://www.gadflyjl.org/ns"
     version="1.2"
     width="203.2mm" height="101.6mm" viewBox="0 0 203.2 101.6"
     stroke="none"
     fill="#000000"
     stroke-width="0.3"
     font-size="3.88"
>
<g class="plotroot xscalable yscalable" id="img-ddad2957-1">
  <g font-size="3.88" font-family="'PT Sans','Helvetica Neue','Helvetica',sans-serif" fill="#564A55" stroke="#000000" stroke-opacity="0.000" id="img-ddad2957-2">
    <text x="104.27" y="89.99" text-anchor="middle" dy="0.6em">σ</text>
  </g>
  <g class="guide xlabels" font-size="2.82" font-family="'PT Sans Caption','Helvetica Neue','Helvetica',sans-serif" fill="#6C606B" id="img-ddad2957-3">
    <text x="12.35" y="83.32" text-anchor="middle" dy="0.6em">0.3</text>
    <text x="49.12" y="83.32" text-anchor="middle" dy="0.6em">0.4</text>
    <text x="85.89" y="83.32" text-anchor="middle" dy="0.6em">0.5</text>
    <text x="122.66" y="83.32" text-anchor="middle" dy="0.6em">0.6</text>
    <text x="159.43" y="83.32" text-anchor="middle" dy="0.6em">0.7</text>
    <text x="196.2" y="83.32" text-anchor="middle" dy="0.6em">0.8</text>
  </g>
<g clip-path="url(#img-ddad2957-4)">
  <g id="img-ddad2957-5">
    <g pointer-events="visible" opacity="1" fill="#000000" fill-opacity="0.000" stroke="#000000" stroke-opacity="0.000" class="guide background" id="img-ddad2957-6">
      <rect x="10.35" y="5" width="187.85" height="77.32"/>
    </g>
    <g class="guide ygridlines xfixed" stroke-dasharray="0.5,0.5" stroke-width="0.2" stroke="#D0D0E0" id="img-ddad2957-7">
      <path fill="none" d="M10.35,80.31 L 198.2 80.31"/>
      <path fill="none" d="M10.35,55.88 L 198.2 55.88"/>
      <path fill="none" d="M10.35,31.44 L 198.2 31.44"/>
      <path fill="none" d="M10.35,7 L 198.2 7"/>
    </g>
    <g class="guide xgridlines yfixed" stroke-dasharray="0.5,0.5" stroke-width="0.2" stroke="#D0D0E0" id="img-ddad2957-8">
      <path fill="none" d="M12.35,5 L 12.35 82.32"/>
      <path fill="none" d="M49.12,5 L 49.12 82.32"/>
      <path fill="none" d="M85.89,5 L 85.89 82.32"/>
      <path fill="none" d="M122.66,5 L 122.66 82.32"/>
      <path fill="none" d="M159.43,5 L 159.43 82.32"/>
      <path fill="none" d="M196.2,5 L 196.2 82.32"/>
    </g>
    <g class="plotpanel" id="img-ddad2957-9">
      <g stroke-width="0.3" fill="#000000" fill-opacity="0.000" class="geometry" stroke-dasharray="none" stroke="#00BFFF" id="img-ddad2957-10">
        <path fill="none" d="M49.1,80.31 L 49.55 80.31 50 80.31 50.46 80.31 50.91 80.31 51.36 80.31 51.82 80.31 52.27 80.31 52.72 80.31 53.18 80.31 53.63 80.3 54.08 80.3 54.53 80.29 54.99 80.29 55.44 80.28 55.89 80.27 56.35 80.27 56.8 80.26 57.25 80.25 57.71 80.25 58.16 80.23 58.61 80.22 59.07 80.2 59.52 80.17 59.97 80.14 60.42 80.1 60.88 80.06 61.33 80.01 61.78 79.96 62.24 79.91 62.69 79.86 63.14 79.82 63.6 79.77 64.05 79.72 64.5 79.67 64.96 79.62 65.41 79.56 65.86 79.49 66.31 79.42 66.77 79.34 67.22 79.24 67.67 79.13 68.13 79.01 68.58 78.88 69.03 78.75 69.49 78.61 69.94 78.46 70.39 78.32 70.85 78.16 71.3 77.99 71.75 77.81 72.2 77.6 72.66 77.35 73.11 77.06 73.56 76.74 74.02 76.36 74.47 75.95 74.92 75.49 75.38 75 75.83 74.47 76.28 73.93 76.74 73.38 77.19 72.83 77.64 72.3 78.09 71.79 78.55 71.29 79 70.8 79.45 70.29 79.91 69.74 80.36 69.14 80.81 68.48 81.27 67.77 81.72 66.99 82.17 66.16 82.63 65.29 83.08 64.37 83.53 63.43 83.98 62.45 84.44 61.44 84.89 60.4 85.34 59.34 85.8 58.26 86.25 57.16 86.7 56.04 87.16 54.91 87.61 53.76 88.06 52.62 88.51 51.47 88.97 50.33 89.42 49.2 89.87 48.07 90.33 46.94 90.78 45.82 91.23 44.71 91.69 43.61 92.14 42.52 92.59 41.44 93.05 40.37 93.5 39.31 93.95 38.27 94.4 37.24 94.86 36.23 95.31 35.25 95.76 34.31 96.22 33.41 96.67 32.56 97.12 31.76 97.58 31.01 98.03 30.34 98.48 29.73 98.94 29.2 99.39 28.75 99.84 28.37 100.29 28.06 100.75 27.81 101.2 27.6 101.65 27.44 102.11 27.32 102.56 27.24 103.01 27.2 103.47 27.19 103.92 27.21 104.37 27.25 104.83 27.31 105.28 27.4 105.73 27.54 106.18 27.75 106.64 28.07 107.09 28.51 107.54 29.09 108 29.81 108.45 30.65 108.9 31.58 109.36 32.58 109.81 33.6 110.26 34.6 110.72 35.56 111.17 36.45 111.62 37.27 112.07 38.02 112.53 38.72 112.98 39.41 113.43 40.11 113.89 40.87 114.34 41.68 114.79 42.57 115.25 43.53 115.7 44.55 116.15 45.61 116.61 46.69 117.06 47.79 117.51 48.91 117.96 50.03 118.42 51.17 118.87 52.31 119.32 53.46 119.78 54.6 120.23 55.71 120.68 56.77 121.14 57.79 121.59 58.76 122.04 59.67 122.5 60.53 122.95 61.35 123.4 62.14 123.85 62.9 124.31 63.65 124.76 64.37 125.21 65.08 125.67 65.77 126.12 66.45 126.57 67.13 127.03 67.82 127.48 68.52 127.93 69.22 128.39 69.93 128.84 70.62 129.29 71.27 129.74 71.87 130.2 72.41 130.65 72.88 131.1 73.29 131.56 73.65 132.01 73.99 132.46 74.31 132.92 74.64 133.37 74.99 133.82 75.35 134.28 75.73 134.73 76.11 135.18 76.5 135.63 76.87 136.09 77.22 136.54 77.55 136.99 77.84 137.45 78.09 137.9 78.31 138.35 78.5 138.81 78.66 139.26 78.8 139.71 78.91 140.16 79.01 140.62 79.09 141.07 79.16 141.52 79.22 141.98 79.28 142.43 79.34 142.88 79.4 143.34 79.46 143.79 79.53 144.24 79.61 144.7 79.68 145.15 79.76 145.6 79.83 146.05 79.89 146.51 79.94 146.96 79.98 147.41 80.01 147.87 80.03 148.32 80.05 148.77 80.07 149.23 80.09 149.68 80.11 150.13 80.14 150.59 80.16 151.04 80.19 151.49 80.21 151.94 80.23 152.4 80.25 152.85 80.26 153.3 80.28 153.76 80.28 154.21 80.29 154.66 80.29 155.12 80.29 155.57 80.28 156.02 80.28 156.48 80.28 156.93 80.28 157.38 80.28 157.83 80.28 158.29 80.28 158.74 80.29 159.19 80.29 159.65 80.3 160.1 80.3 160.55 80.31 161.01 80.31 161.46 80.31 161.91 80.31 162.37 80.31 162.82 80.31 163.27 80.31 163.72 80.31 164.18 80.31 164.63 80.31"/>
      </g>
    </g>
  </g>
</g>
  <g class="guide ylabels" font-size="2.82" font-family="'PT Sans Caption','Helvetica Neue','Helvetica',sans-serif" fill="#6C606B" id="img-ddad2957-11">
    <text x="9.35" y="80.31" text-anchor="end" dy="0.35em">0</text>
    <text x="9.35" y="55.88" text-anchor="end" dy="0.35em">5</text>
    <text x="9.35" y="31.44" text-anchor="end" dy="0.35em">10</text>
    <text x="9.35" y="7" text-anchor="end" dy="0.35em">15</text>
  </g>
</g>
<defs>
  <clipPath id="img-ddad2957-4">
  <path d="M10.35,5 L 198.2 5 198.2 82.32 10.35 82.32" />
</clipPath>
</defs>
</svg>
