<?xml version="1.0" encoding="UTF-8"?>
<svg xmlns="http://www.w3.org/2000/svg"
     xmlns:xlink="http://www.w3.org/1999/xlink"
     xmlns:gadfly="http://www.gadflyjl.org/ns"
     version="1.2"
     width="203.2mm" height="101.6mm" viewBox="0 0 203.2 101.6"
     stroke="none"
     fill="#000000"
     stroke-width="0.3"
     font-size="3.88"
>
<g class="plotroot xscalable yscalable" id="img-11637dbb-1">
  <g font-size="3.88" font-family="'PT Sans','Helvetica Neue','Helvetica',sans-serif" fill="#564A55" stroke="#000000" stroke-opacity="0.000" id="img-11637dbb-2">
    <text x="104.61" y="89.99" text-anchor="middle" dy="0.6em">β₁</text>
  </g>
  <g class="guide xlabels" font-size="2.82" font-family="'PT Sans Caption','Helvetica Neue','Helvetica',sans-serif" fill="#6C606B" id="img-11637dbb-3">
    <text x="13.02" y="83.32" text-anchor="middle" dy="0.6em">57</text>
    <text x="43.55" y="83.32" text-anchor="middle" dy="0.6em">58</text>
    <text x="74.08" y="83.32" text-anchor="middle" dy="0.6em">59</text>
    <text x="104.61" y="83.32" text-anchor="middle" dy="0.6em">60</text>
    <text x="135.14" y="83.32" text-anchor="middle" dy="0.6em">61</text>
    <text x="165.67" y="83.32" text-anchor="middle" dy="0.6em">62</text>
    <text x="196.2" y="83.32" text-anchor="middle" dy="0.6em">63</text>
  </g>
<g clip-path="url(#img-11637dbb-4)">
  <g id="img-11637dbb-5">
    <g pointer-events="visible" opacity="1" fill="#000000" fill-opacity="0.000" stroke="#000000" stroke-opacity="0.000" class="guide background" id="img-11637dbb-6">
      <rect x="11.02" y="5" width="187.18" height="77.32"/>
    </g>
    <g class="guide ygridlines xfixed" stroke-dasharray="0.5,0.5" stroke-width="0.2" stroke="#D0D0E0" id="img-11637dbb-7">
      <path fill="none" d="M11.02,80.32 L 198.2 80.32"/>
      <path fill="none" d="M11.02,61.99 L 198.2 61.99"/>
      <path fill="none" d="M11.02,43.66 L 198.2 43.66"/>
      <path fill="none" d="M11.02,25.33 L 198.2 25.33"/>
      <path fill="none" d="M11.02,7 L 198.2 7"/>
    </g>
    <g class="guide xgridlines yfixed" stroke-dasharray="0.5,0.5" stroke-width="0.2" stroke="#D0D0E0" id="img-11637dbb-8">
      <path fill="none" d="M13.02,5 L 13.02 82.32"/>
      <path fill="none" d="M43.55,5 L 43.55 82.32"/>
      <path fill="none" d="M74.08,5 L 74.08 82.32"/>
      <path fill="none" d="M104.61,5 L 104.61 82.32"/>
      <path fill="none" d="M135.14,5 L 135.14 82.32"/>
      <path fill="none" d="M165.67,5 L 165.67 82.32"/>
      <path fill="none" d="M196.2,5 L 196.2 82.32"/>
    </g>
    <g class="plotpanel" id="img-11637dbb-9">
      <g stroke-width="0.3" fill="#000000" fill-opacity="0.000" class="geometry" stroke-dasharray="none" stroke="#00BFFF" id="img-11637dbb-10">
        <path fill="none" d="M23.72,80.31 L 24.37 80.31 25.02 80.31 25.67 80.31 26.32 80.31 26.97 80.31 27.62 80.31 28.28 80.31 28.93 80.31 29.58 80.31 30.23 80.3 30.88 80.3 31.53 80.29 32.18 80.28 32.84 80.27 33.49 80.26 34.14 80.24 34.79 80.23 35.44 80.21 36.09 80.19 36.74 80.16 37.4 80.14 38.05 80.11 38.7 80.09 39.35 80.06 40 80.03 40.65 80.01 41.3 79.99 41.96 79.97 42.61 79.96 43.26 79.94 43.91 79.93 44.56 79.92 45.21 79.9 45.86 79.88 46.52 79.84 47.17 79.8 47.82 79.73 48.47 79.66 49.12 79.56 49.77 79.45 50.42 79.33 51.08 79.19 51.73 79.05 52.38 78.91 53.03 78.76 53.68 78.61 54.33 78.46 54.98 78.29 55.64 78.11 56.29 77.9 56.94 77.66 57.59 77.4 58.24 77.11 58.89 76.81 59.54 76.49 60.2 76.17 60.85 75.85 61.5 75.52 62.15 75.19 62.8 74.85 63.45 74.5 64.1 74.13 64.76 73.74 65.41 73.34 66.06 72.91 66.71 72.46 67.36 71.99 68.01 71.47 68.66 70.93 69.32 70.34 69.97 69.74 70.62 69.11 71.27 68.48 71.92 67.85 72.57 67.22 73.22 66.58 73.88 65.91 74.53 65.2 75.18 64.41 75.83 63.52 76.48 62.54 77.13 61.46 77.79 60.3 78.44 59.09 79.09 57.86 79.74 56.65 80.39 55.49 81.04 54.39 81.69 53.35 82.35 52.37 83 51.41 83.65 50.47 84.3 49.52 84.95 48.54 85.6 47.55 86.25 46.55 86.91 45.53 87.56 44.5 88.21 43.46 88.86 42.41 89.51 41.34 90.16 40.24 90.81 39.12 91.47 37.97 92.12 36.79 92.77 35.58 93.42 34.35 94.07 33.12 94.72 31.91 95.37 30.74 96.03 29.64 96.68 28.64 97.33 27.73 97.98 26.95 98.63 26.28 99.28 25.74 99.93 25.31 100.59 25 101.24 24.81 101.89 24.74 102.54 24.76 103.19 24.88 103.84 25.04 104.49 25.23 105.15 25.4 105.8 25.53 106.45 25.6 107.1 25.6 107.75 25.55 108.4 25.48 109.05 25.43 109.71 25.44 110.36 25.56 111.01 25.83 111.66 26.27 112.31 26.89 112.96 27.65 113.61 28.51 114.27 29.42 114.92 30.31 115.57 31.16 116.22 31.95 116.87 32.7 117.52 33.42 118.17 34.16 118.83 34.95 119.48 35.79 120.13 36.69 120.78 37.65 121.43 38.64 122.08 39.65 122.73 40.68 123.39 41.73 124.04 42.81 124.69 43.9 125.34 45.02 125.99 46.17 126.64 47.34 127.29 48.51 127.95 49.68 128.6 50.85 129.25 52.01 129.9 53.14 130.55 54.26 131.2 55.37 131.85 56.45 132.51 57.51 133.16 58.53 133.81 59.52 134.46 60.46 135.11 61.35 135.76 62.19 136.41 62.99 137.07 63.76 137.72 64.52 138.37 65.26 139.02 65.99 139.67 66.71 140.32 67.41 140.97 68.08 141.63 68.72 142.28 69.32 142.93 69.87 143.58 70.4 144.23 70.9 144.88 71.39 145.53 71.88 146.19 72.37 146.84 72.85 147.49 73.33 148.14 73.79 148.79 74.23 149.44 74.64 150.1 75.01 150.75 75.35 151.4 75.65 152.05 75.93 152.7 76.19 153.35 76.44 154 76.69 154.66 76.94 155.31 77.19 155.96 77.45 156.61 77.72 157.26 77.97 157.91 78.21 158.56 78.43 159.22 78.63 159.87 78.81 160.52 78.96 161.17 79.09 161.82 79.2 162.47 79.29 163.12 79.37 163.78 79.44 164.43 79.51 165.08 79.57 165.73 79.64 166.38 79.7 167.03 79.75 167.68 79.8 168.34 79.84 168.99 79.87 169.64 79.9 170.29 79.92 170.94 79.94 171.59 79.96 172.24 79.99 172.9 80.01 173.55 80.05 174.2 80.08 174.85 80.11 175.5 80.14 176.15 80.17 176.8 80.19 177.46 80.21 178.11 80.23 178.76 80.24 179.41 80.25 180.06 80.27 180.71 80.28 181.36 80.29 182.02 80.29 182.67 80.3 183.32 80.3 183.97 80.31 184.62 80.31 185.27 80.31 185.92 80.31 186.58 80.31 187.23 80.31 187.88 80.31 188.53 80.31 189.18 80.31 189.83 80.31"/>
      </g>
    </g>
  </g>
</g>
  <g class="guide ylabels" font-size="2.82" font-family="'PT Sans Caption','Helvetica Neue','Helvetica',sans-serif" fill="#6C606B" id="img-11637dbb-11">
    <text x="10.02" y="80.32" text-anchor="end" dy="0.35em">0.0</text>
    <text x="10.02" y="61.99" text-anchor="end" dy="0.35em">0.2</text>
    <text x="10.02" y="43.66" text-anchor="end" dy="0.35em">0.4</text>
    <text x="10.02" y="25.33" text-anchor="end" dy="0.35em">0.6</text>
    <text x="10.02" y="7" text-anchor="end" dy="0.35em">0.8</text>
  </g>
</g>
<defs>
  <clipPath id="img-11637dbb-4">
  <path d="M11.02,5 L 198.2 5 198.2 82.32 11.02 82.32" />
</clipPath>
</defs>
</svg>
