<?xml version="1.0" encoding="UTF-8"?>
<svg xmlns="http://www.w3.org/2000/svg"
     xmlns:xlink="http://www.w3.org/1999/xlink"
     xmlns:gadfly="http://www.gadflyjl.org/ns"
     version="1.2"
     width="152.4mm" height="101.6mm" viewBox="0 0 152.4 101.6"
     stroke="none"
     fill="#000000"
     stroke-width="0.3"
     font-size="3.88"
>
<g class="plotroot xscalable yscalable" id="img-779b33b4-1">
  <g font-size="3.88" font-family="'PT Sans','Helvetica Neue','Helvetica',sans-serif" fill="#564A55" stroke="#000000" stroke-opacity="0.000" id="img-779b33b4-2">
    <text x="87.06" y="89.99" text-anchor="middle" dy="0.6em">Standard Normal quantiles</text>
  </g>
  <g class="guide xlabels" font-size="2.82" font-family="'PT Sans Caption','Helvetica Neue','Helvetica',sans-serif" fill="#6C606B" id="img-779b33b4-3">
    <text x="28.73" y="83.32" text-anchor="middle" dy="0.6em">-3</text>
    <text x="48.17" y="83.32" text-anchor="middle" dy="0.6em">-2</text>
    <text x="67.62" y="83.32" text-anchor="middle" dy="0.6em">-1</text>
    <text x="87.06" y="83.32" text-anchor="middle" dy="0.6em">0</text>
    <text x="106.51" y="83.32" text-anchor="middle" dy="0.6em">1</text>
    <text x="125.95" y="83.32" text-anchor="middle" dy="0.6em">2</text>
    <text x="145.4" y="83.32" text-anchor="middle" dy="0.6em">3</text>
  </g>
<g clip-path="url(#img-779b33b4-4)">
  <g id="img-779b33b4-5">
    <g pointer-events="visible" opacity="1" fill="#000000" fill-opacity="0.000" stroke="#000000" stroke-opacity="0.000" class="guide background" id="img-779b33b4-6">
      <rect x="26.73" y="5" width="120.67" height="77.32"/>
    </g>
    <g class="guide ygridlines xfixed" stroke-dasharray="0.5,0.5" stroke-width="0.2" stroke="#D0D0E0" id="img-779b33b4-7">
      <path fill="none" d="M26.73,80.31 L 147.4 80.31"/>
      <path fill="none" d="M26.73,65.65 L 147.4 65.65"/>
      <path fill="none" d="M26.73,50.99 L 147.4 50.99"/>
      <path fill="none" d="M26.73,36.33 L 147.4 36.33"/>
      <path fill="none" d="M26.73,21.66 L 147.4 21.66"/>
      <path fill="none" d="M26.73,7 L 147.4 7"/>
    </g>
    <g class="guide xgridlines yfixed" stroke-dasharray="0.5,0.5" stroke-width="0.2" stroke="#D0D0E0" id="img-779b33b4-8">
      <path fill="none" d="M28.73,5 L 28.73 82.32"/>
      <path fill="none" d="M48.17,5 L 48.17 82.32"/>
      <path fill="none" d="M67.62,5 L 67.62 82.32"/>
      <path fill="none" d="M87.06,5 L 87.06 82.32"/>
      <path fill="none" d="M106.51,5 L 106.51 82.32"/>
      <path fill="none" d="M125.95,5 L 125.95 82.32"/>
      <path fill="none" d="M145.4,5 L 145.4 82.32"/>
    </g>
    <g class="plotpanel" id="img-779b33b4-9">
      <g stroke-width="0.3" fill="#000000" fill-opacity="0.000" class="geometry" stroke-dasharray="none" stroke="#00BFFF" id="img-779b33b4-10">
        <path fill="none" d="M31.09,67.34 L 38.21 65.13 41.82 64.27 44.33 63.52 46.29 62.84 47.9 62.49 49.28 61.81 50.49 61.43 51.57 61.05 52.56 60.66 53.46 60.34 54.3 60.07 55.08 59.77 55.81 59.44 56.5 59.23 57.15 58.93 57.77 58.65 58.36 58.41 58.93 58.18 59.48 57.97 60 57.7 60.5 57.52 60.99 57.27 61.46 57.11 61.92 56.99 62.36 56.8 62.79 56.64 63.21 56.48 63.62 56.36 64.02 56.17 64.41 55.99 64.79 55.83 65.16 55.66 65.52 55.51 65.88 55.38 66.23 55.2 66.57 55.08 66.91 54.97 67.24 54.83 67.56 54.7 67.88 54.58 68.2 54.39 68.51 54.28 68.81 54.15 69.11 54 69.41 53.86 69.7 53.74 69.99 53.63 70.28 53.5 70.56 53.39 70.83 53.27 71.11 53.15 71.38 53.04 71.65 52.93 71.91 52.83 72.18 52.73 72.44 52.62 72.7 52.52 72.95 52.43 73.2 52.31 73.45 52.19 73.7 52.08 73.95 51.97 74.19 51.8 74.43 51.7 74.67 51.61 74.91 51.5 75.15 51.4 75.38 51.29 75.61 51.18 75.84 51.07 76.07 50.96 76.3 50.85 76.53 50.77 76.75 50.64 76.98 50.56 77.2 50.45 77.42 50.37 77.64 50.28 77.86 50.17 78.08 50.05 78.29 49.96 78.51 49.84 78.72 49.75 78.94 49.67 79.15 49.58 79.36 49.47 79.57 49.36 79.78 49.24 79.99 49.15 80.2 49.05 80.4 48.93 80.61 48.82 80.81 48.72 81.02 48.63 81.22 48.51 81.43 48.4 81.63 48.28 81.83 48.17 82.04 48.08 82.24 48.01 82.44 47.94 82.64 47.85 82.84 47.75 83.04 47.65 83.24 47.56 83.43 47.46 83.63 47.35 83.83 47.26 84.03 47.17 84.23 47.06 84.42 46.95 84.62 46.87 84.82 46.76 85.01 46.67 85.21 46.6 85.4 46.49 85.6 46.41 85.79 46.31 85.99 46.22 86.18 46.1 86.38 45.99 86.58 45.87 86.77 45.76 86.97 45.65 87.16 45.54 87.35 45.42 87.55 45.33 87.75 45.25 87.94 45.17 88.14 45.06 88.33 44.95 88.53 44.84 88.72 44.74 88.92 44.64 89.11 44.52 89.31 44.41 89.51 44.29 89.7 44.18 89.9 44.1 90.1 44.02 90.29 43.9 90.49 43.83 90.69 43.74 90.89 43.62 91.09 43.49 91.29 43.38 91.49 43.3 91.69 43.2 91.89 43.08 92.09 42.99 92.29 42.86 92.49 42.78 92.7 42.68 92.9 42.6 93.11 42.49 93.31 42.38 93.52 42.26 93.72 42.11 93.93 42.02 94.14 41.91 94.35 41.78 94.56 41.68 94.77 41.59 94.98 41.44 95.19 41.34 95.4 41.23 95.62 41.11 95.83 41 96.05 40.87 96.27 40.73 96.48 40.61 96.7 40.46 96.93 40.33 97.15 40.21 97.37 40.08 97.6 39.93 97.82 39.82 98.05 39.66 98.28 39.51 98.51 39.38 98.74 39.3 98.98 39.16 99.22 39.01 99.45 38.89 99.69 38.79 99.93 38.65 100.18 38.49 100.42 38.33 100.67 38.18 100.92 38.03 101.18 37.88 101.43 37.76 101.69 37.63 101.95 37.47 102.21 37.29 102.48 37.16 102.74 37 103.02 36.83 103.29 36.66 103.57 36.47 103.85 36.26 104.13 36.1 104.42 35.93 104.71 35.74 105.01 35.54 105.31 35.33 105.62 35.17 105.93 34.96 106.24 34.79 106.56 34.56 106.89 34.31 107.22 34.13 107.55 33.94 107.9 33.73 108.25 33.52 108.6 33.31 108.97 33.03 109.34 32.83 109.72 32.61 110.11 32.36 110.5 32.15 110.91 31.9 111.33 31.65 111.76 31.41 112.21 31.11 112.66 30.86 113.13 30.53 113.62 30.28 114.13 29.94 114.65 29.67 115.19 29.27 115.76 28.88 116.35 28.41 116.97 27.99 117.63 27.54 118.32 27.02 119.05 26.48 119.83 25.86 120.66 25.29 121.57 24.57 122.55 23.86 123.64 23.19 124.85 22.4 126.23 21.33 127.84 20.11 129.79 18.83 132.3 17.27 135.91 14.4 143.03 8.24"/>
      </g>
    </g>
  </g>
</g>
  <g class="guide ylabels" font-size="2.82" font-family="'PT Sans Caption','Helvetica Neue','Helvetica',sans-serif" fill="#6C606B" id="img-779b33b4-11">
    <text x="25.72" y="80.31" text-anchor="end" dy="0.35em">0</text>
    <text x="25.72" y="65.65" text-anchor="end" dy="0.35em">1.0×10³</text>
    <text x="25.72" y="50.99" text-anchor="end" dy="0.35em">2.0×10³</text>
    <text x="25.72" y="36.33" text-anchor="end" dy="0.35em">3.0×10³</text>
    <text x="25.72" y="21.66" text-anchor="end" dy="0.35em">4.0×10³</text>
    <text x="25.72" y="7" text-anchor="end" dy="0.35em">5.0×10³</text>
  </g>
  <g font-size="3.88" font-family="'PT Sans','Helvetica Neue','Helvetica',sans-serif" fill="#564A55" stroke="#000000" stroke-opacity="0.000" id="img-779b33b4-12">
    <text x="8.81" y="41.66" text-anchor="middle" dy="0.35em" transform="rotate(-90, 8.81, 43.66)">σ²</text>
  </g>
</g>
<defs>
  <clipPath id="img-779b33b4-4">
  <path d="M26.73,5 L 147.4 5 147.4 82.32 26.73 82.32" />
</clipPath>
</defs>
</svg>
