<?xml version="1.0" encoding="UTF-8"?>
<svg xmlns="http://www.w3.org/2000/svg"
     xmlns:xlink="http://www.w3.org/1999/xlink"
     xmlns:gadfly="http://www.gadflyjl.org/ns"
     version="1.2"
     width="203.2mm" height="101.6mm" viewBox="0 0 203.2 101.6"
     stroke="none"
     fill="#000000"
     stroke-width="0.3"
     font-size="3.88"
>
<g class="plotroot xscalable yscalable" id="img-88ef223f-1">
  <g font-size="3.88" font-family="'PT Sans','Helvetica Neue','Helvetica',sans-serif" fill="#564A55" stroke="#000000" stroke-opacity="0.000" id="img-88ef223f-2">
    <g transform="translate(108.66,89.99)">
      <g class="primitive">
        <text text-anchor="middle" dy="0.6em">Parametric bootstrap estimates of σ₁</text>
      </g>
    </g>
  </g>
  <g class="guide xlabels" font-size="2.82" font-family="'PT Sans Caption','Helvetica Neue','Helvetica',sans-serif" fill="#6C606B" id="img-88ef223f-3">
    <g transform="translate(21.11,83.32)">
      <g class="primitive">
        <text text-anchor="middle" dy="0.6em">0</text>
      </g>
    </g>
    <g transform="translate(108.66,83.32)">
      <g class="primitive">
        <text text-anchor="middle" dy="0.6em">50</text>
      </g>
    </g>
    <g transform="translate(196.2,83.32)">
      <g class="primitive">
        <text text-anchor="middle" dy="0.6em">100</text>
      </g>
    </g>
  </g>
  <g clip-path="url(#img-88ef223f-4)">
    <g id="img-88ef223f-5">
      <g pointer-events="visible" opacity="1" fill="#000000" fill-opacity="0.000" stroke="#000000" stroke-opacity="0.000" class="guide background" id="img-88ef223f-6">
        <g transform="translate(108.66,43.66)">
          <path d="M-89.54,-38.66 L 89.54 -38.66 89.54 38.66 -89.54 38.66 z" class="primitive"/>
        </g>
      </g>
      <g class="guide ygridlines xfixed" stroke-dasharray="0.5,0.5" stroke-width="0.2" stroke="#D0D0E0" id="img-88ef223f-7">
        <g transform="translate(108.66,80.31)">
          <path fill="none" d="M-89.54,0 L 89.54 0" class="primitive"/>
        </g>
        <g transform="translate(108.66,55.88)">
          <path fill="none" d="M-89.54,0 L 89.54 0" class="primitive"/>
        </g>
        <g transform="translate(108.66,31.44)">
          <path fill="none" d="M-89.54,0 L 89.54 0" class="primitive"/>
        </g>
        <g transform="translate(108.66,7)">
          <path fill="none" d="M-89.54,0 L 89.54 0" class="primitive"/>
        </g>
      </g>
      <g class="guide xgridlines yfixed" stroke-dasharray="0.5,0.5" stroke-width="0.2" stroke="#D0D0E0" id="img-88ef223f-8">
        <g transform="translate(21.11,43.66)">
          <path fill="none" d="M0,-38.66 L 0 38.66" class="primitive"/>
        </g>
        <g transform="translate(108.66,43.66)">
          <path fill="none" d="M0,-38.66 L 0 38.66" class="primitive"/>
        </g>
        <g transform="translate(196.2,43.66)">
          <path fill="none" d="M0,-38.66 L 0 38.66" class="primitive"/>
        </g>
      </g>
      <g class="plotpanel" id="img-88ef223f-9">
        <metadata>
          <boundingbox value="19.113333333333344mm 5.0mm 179.08666666666664mm 77.315mm"/>
          <unitbox value="-1.1422914366218637 15409.193207392756 102.28458287324374 -15818.386414785517"/>
        </metadata>
        <g shape-rendering="crispEdges" stroke-width="0.3" id="img-88ef223f-10">
          <g stroke="#000000" stroke-opacity="0.000" class="geometry" fill="#00BFFF" id="img-88ef223f-11">
            <g transform="translate(21.66,55.66)">
              <path d="M-0.58,-24.65 L 0.58 -24.65 0.58 24.65 -0.58 24.65 z" class="primitive"/>
            </g>
            <g transform="translate(22.77,80.21)">
              <path d="M-0.58,-0.1 L 0.58 -0.1 0.58 0.1 -0.58 0.1 z" class="primitive"/>
            </g>
            <g transform="translate(23.87,80.1)">
              <path d="M-0.58,-0.22 L 0.58 -0.22 0.58 0.22 -0.58 0.22 z" class="primitive"/>
            </g>
            <g transform="translate(24.97,80.1)">
              <path d="M-0.58,-0.22 L 0.58 -0.22 0.58 0.22 -0.58 0.22 z" class="primitive"/>
            </g>
            <g transform="translate(26.07,79.98)">
              <path d="M-0.58,-0.34 L 0.58 -0.34 0.58 0.34 -0.58 0.34 z" class="primitive"/>
            </g>
            <g transform="translate(27.17,79.91)">
              <path d="M-0.58,-0.41 L 0.58 -0.41 0.58 0.41 -0.58 0.41 z" class="primitive"/>
            </g>
            <g transform="translate(28.27,79.85)">
              <path d="M-0.58,-0.47 L 0.58 -0.47 0.58 0.47 -0.58 0.47 z" class="primitive"/>
            </g>
            <g transform="translate(29.37,79.78)">
              <path d="M-0.58,-0.53 L 0.58 -0.53 0.58 0.53 -0.58 0.53 z" class="primitive"/>
            </g>
            <g transform="translate(30.47,79.68)">
              <path d="M-0.58,-0.64 L 0.58 -0.64 0.58 0.64 -0.58 0.64 z" class="primitive"/>
            </g>
            <g transform="translate(31.58,79.64)">
              <path d="M-0.58,-0.68 L 0.58 -0.68 0.58 0.68 -0.58 0.68 z" class="primitive"/>
            </g>
            <g transform="translate(32.68,79.55)">
              <path d="M-0.58,-0.77 L 0.58 -0.77 0.58 0.77 -0.58 0.77 z" class="primitive"/>
            </g>
            <g transform="translate(33.78,79.45)">
              <path d="M-0.58,-0.86 L 0.58 -0.86 0.58 0.86 -0.58 0.86 z" class="primitive"/>
            </g>
            <g transform="translate(34.88,79.37)">
              <path d="M-0.58,-0.95 L 0.58 -0.95 0.58 0.95 -0.58 0.95 z" class="primitive"/>
            </g>
            <g transform="translate(35.98,79.21)">
              <path d="M-0.58,-1.1 L 0.58 -1.1 0.58 1.1 -0.58 1.1 z" class="primitive"/>
            </g>
            <g transform="translate(37.08,79.15)">
              <path d="M-0.58,-1.17 L 0.58 -1.17 0.58 1.17 -0.58 1.17 z" class="primitive"/>
            </g>
            <g transform="translate(38.18,79.01)">
              <path d="M-0.58,-1.3 L 0.58 -1.3 0.58 1.3 -0.58 1.3 z" class="primitive"/>
            </g>
            <g transform="translate(39.28,78.89)">
              <path d="M-0.58,-1.43 L 0.58 -1.43 0.58 1.43 -0.58 1.43 z" class="primitive"/>
            </g>
            <g transform="translate(40.39,78.91)">
              <path d="M-0.58,-1.4 L 0.58 -1.4 0.58 1.4 -0.58 1.4 z" class="primitive"/>
            </g>
            <g transform="translate(41.49,78.76)">
              <path d="M-0.58,-1.56 L 0.58 -1.56 0.58 1.56 -0.58 1.56 z" class="primitive"/>
            </g>
            <g transform="translate(42.59,78.72)">
              <path d="M-0.58,-1.6 L 0.58 -1.6 0.58 1.6 -0.58 1.6 z" class="primitive"/>
            </g>
            <g transform="translate(43.69,78.55)">
              <path d="M-0.58,-1.77 L 0.58 -1.77 0.58 1.77 -0.58 1.77 z" class="primitive"/>
            </g>
            <g transform="translate(44.79,78.28)">
              <path d="M-0.58,-2.03 L 0.58 -2.03 0.58 2.03 -0.58 2.03 z" class="primitive"/>
            </g>
            <g transform="translate(45.89,78.29)">
              <path d="M-0.58,-2.03 L 0.58 -2.03 0.58 2.03 -0.58 2.03 z" class="primitive"/>
            </g>
            <g transform="translate(46.99,78.26)">
              <path d="M-0.58,-2.06 L 0.58 -2.06 0.58 2.06 -0.58 2.06 z" class="primitive"/>
            </g>
            <g transform="translate(48.09,78.17)">
              <path d="M-0.58,-2.15 L 0.58 -2.15 0.58 2.15 -0.58 2.15 z" class="primitive"/>
            </g>
            <g transform="translate(49.2,77.9)">
              <path d="M-0.58,-2.41 L 0.58 -2.41 0.58 2.41 -0.58 2.41 z" class="primitive"/>
            </g>
            <g transform="translate(50.3,77.84)">
              <path d="M-0.58,-2.48 L 0.58 -2.48 0.58 2.48 -0.58 2.48 z" class="primitive"/>
            </g>
            <g transform="translate(51.4,77.83)">
              <path d="M-0.58,-2.48 L 0.58 -2.48 0.58 2.48 -0.58 2.48 z" class="primitive"/>
            </g>
            <g transform="translate(52.5,77.67)">
              <path d="M-0.58,-2.65 L 0.58 -2.65 0.58 2.65 -0.58 2.65 z" class="primitive"/>
            </g>
            <g transform="translate(53.6,77.71)">
              <path d="M-0.58,-2.61 L 0.58 -2.61 0.58 2.61 -0.58 2.61 z" class="primitive"/>
            </g>
            <g transform="translate(54.7,77.5)">
              <path d="M-0.58,-2.81 L 0.58 -2.81 0.58 2.81 -0.58 2.81 z" class="primitive"/>
            </g>
            <g transform="translate(55.8,77.27)">
              <path d="M-0.58,-3.05 L 0.58 -3.05 0.58 3.05 -0.58 3.05 z" class="primitive"/>
            </g>
            <g transform="translate(56.9,77.3)">
              <path d="M-0.58,-3.02 L 0.58 -3.02 0.58 3.02 -0.58 3.02 z" class="primitive"/>
            </g>
            <g transform="translate(58.01,77.08)">
              <path d="M-0.58,-3.24 L 0.58 -3.24 0.58 3.24 -0.58 3.24 z" class="primitive"/>
            </g>
            <g transform="translate(59.11,77.18)">
              <path d="M-0.58,-3.14 L 0.58 -3.14 0.58 3.14 -0.58 3.14 z" class="primitive"/>
            </g>
            <g transform="translate(60.21,77.06)">
              <path d="M-0.58,-3.25 L 0.58 -3.25 0.58 3.25 -0.58 3.25 z" class="primitive"/>
            </g>
            <g transform="translate(61.31,77)">
              <path d="M-0.58,-3.32 L 0.58 -3.32 0.58 3.32 -0.58 3.32 z" class="primitive"/>
            </g>
            <g transform="translate(62.41,76.83)">
              <path d="M-0.58,-3.48 L 0.58 -3.48 0.58 3.48 -0.58 3.48 z" class="primitive"/>
            </g>
            <g transform="translate(63.51,76.67)">
              <path d="M-0.58,-3.65 L 0.58 -3.65 0.58 3.65 -0.58 3.65 z" class="primitive"/>
            </g>
            <g transform="translate(64.61,76.58)">
              <path d="M-0.58,-3.73 L 0.58 -3.73 0.58 3.73 -0.58 3.73 z" class="primitive"/>
            </g>
            <g transform="translate(65.71,76.6)">
              <path d="M-0.58,-3.71 L 0.58 -3.71 0.58 3.71 -0.58 3.71 z" class="primitive"/>
            </g>
            <g transform="translate(66.82,76.45)">
              <path d="M-0.58,-3.87 L 0.58 -3.87 0.58 3.87 -0.58 3.87 z" class="primitive"/>
            </g>
            <g transform="translate(67.92,76.4)">
              <path d="M-0.58,-3.92 L 0.58 -3.92 0.58 3.92 -0.58 3.92 z" class="primitive"/>
            </g>
            <g transform="translate(69.02,76.54)">
              <path d="M-0.58,-3.78 L 0.58 -3.78 0.58 3.78 -0.58 3.78 z" class="primitive"/>
            </g>
            <g transform="translate(70.12,76.32)">
              <path d="M-0.58,-3.99 L 0.58 -3.99 0.58 3.99 -0.58 3.99 z" class="primitive"/>
            </g>
            <g transform="translate(71.22,76.3)">
              <path d="M-0.58,-4.02 L 0.58 -4.02 0.58 4.02 -0.58 4.02 z" class="primitive"/>
            </g>
            <g transform="translate(72.32,76.45)">
              <path d="M-0.58,-3.86 L 0.58 -3.86 0.58 3.86 -0.58 3.86 z" class="primitive"/>
            </g>
            <g transform="translate(73.42,76.28)">
              <path d="M-0.58,-4.03 L 0.58 -4.03 0.58 4.03 -0.58 4.03 z" class="primitive"/>
            </g>
            <g transform="translate(74.53,76.29)">
              <path d="M-0.58,-4.02 L 0.58 -4.02 0.58 4.02 -0.58 4.02 z" class="primitive"/>
            </g>
            <g transform="translate(75.63,76.4)">
              <path d="M-0.58,-3.92 L 0.58 -3.92 0.58 3.92 -0.58 3.92 z" class="primitive"/>
            </g>
            <g transform="translate(76.73,76.45)">
              <path d="M-0.58,-3.86 L 0.58 -3.86 0.58 3.86 -0.58 3.86 z" class="primitive"/>
            </g>
            <g transform="translate(77.83,76.35)">
              <path d="M-0.58,-3.97 L 0.58 -3.97 0.58 3.97 -0.58 3.97 z" class="primitive"/>
            </g>
            <g transform="translate(78.93,76.47)">
              <path d="M-0.58,-3.84 L 0.58 -3.84 0.58 3.84 -0.58 3.84 z" class="primitive"/>
            </g>
            <g transform="translate(80.03,76.45)">
              <path d="M-0.58,-3.87 L 0.58 -3.87 0.58 3.87 -0.58 3.87 z" class="primitive"/>
            </g>
            <g transform="translate(81.13,76.44)">
              <path d="M-0.58,-3.88 L 0.58 -3.88 0.58 3.88 -0.58 3.88 z" class="primitive"/>
            </g>
            <g transform="translate(82.23,76.58)">
              <path d="M-0.58,-3.73 L 0.58 -3.73 0.58 3.73 -0.58 3.73 z" class="primitive"/>
            </g>
            <g transform="translate(83.34,76.55)">
              <path d="M-0.58,-3.77 L 0.58 -3.77 0.58 3.77 -0.58 3.77 z" class="primitive"/>
            </g>
            <g transform="translate(84.44,76.65)">
              <path d="M-0.58,-3.66 L 0.58 -3.66 0.58 3.66 -0.58 3.66 z" class="primitive"/>
            </g>
            <g transform="translate(85.54,76.83)">
              <path d="M-0.58,-3.48 L 0.58 -3.48 0.58 3.48 -0.58 3.48 z" class="primitive"/>
            </g>
            <g transform="translate(86.64,76.89)">
              <path d="M-0.58,-3.42 L 0.58 -3.42 0.58 3.42 -0.58 3.42 z" class="primitive"/>
            </g>
            <g transform="translate(87.74,76.86)">
              <path d="M-0.58,-3.46 L 0.58 -3.46 0.58 3.46 -0.58 3.46 z" class="primitive"/>
            </g>
            <g transform="translate(88.84,77.03)">
              <path d="M-0.58,-3.28 L 0.58 -3.28 0.58 3.28 -0.58 3.28 z" class="primitive"/>
            </g>
            <g transform="translate(89.94,77.05)">
              <path d="M-0.58,-3.27 L 0.58 -3.27 0.58 3.27 -0.58 3.27 z" class="primitive"/>
            </g>
            <g transform="translate(91.04,77.18)">
              <path d="M-0.58,-3.13 L 0.58 -3.13 0.58 3.13 -0.58 3.13 z" class="primitive"/>
            </g>
            <g transform="translate(92.15,77.1)">
              <path d="M-0.58,-3.22 L 0.58 -3.22 0.58 3.22 -0.58 3.22 z" class="primitive"/>
            </g>
            <g transform="translate(93.25,77.22)">
              <path d="M-0.58,-3.09 L 0.58 -3.09 0.58 3.09 -0.58 3.09 z" class="primitive"/>
            </g>
            <g transform="translate(94.35,77.25)">
              <path d="M-0.58,-3.07 L 0.58 -3.07 0.58 3.07 -0.58 3.07 z" class="primitive"/>
            </g>
            <g transform="translate(95.45,77.43)">
              <path d="M-0.58,-2.89 L 0.58 -2.89 0.58 2.89 -0.58 2.89 z" class="primitive"/>
            </g>
            <g transform="translate(96.55,77.73)">
              <path d="M-0.58,-2.59 L 0.58 -2.59 0.58 2.59 -0.58 2.59 z" class="primitive"/>
            </g>
            <g transform="translate(97.65,77.61)">
              <path d="M-0.58,-2.71 L 0.58 -2.71 0.58 2.71 -0.58 2.71 z" class="primitive"/>
            </g>
            <g transform="translate(98.75,77.77)">
              <path d="M-0.58,-2.54 L 0.58 -2.54 0.58 2.54 -0.58 2.54 z" class="primitive"/>
            </g>
            <g transform="translate(99.85,77.81)">
              <path d="M-0.58,-2.5 L 0.58 -2.5 0.58 2.5 -0.58 2.5 z" class="primitive"/>
            </g>
            <g transform="translate(100.96,77.94)">
              <path d="M-0.58,-2.37 L 0.58 -2.37 0.58 2.37 -0.58 2.37 z" class="primitive"/>
            </g>
            <g transform="translate(102.06,78.11)">
              <path d="M-0.58,-2.21 L 0.58 -2.21 0.58 2.21 -0.58 2.21 z" class="primitive"/>
            </g>
            <g transform="translate(103.16,78.2)">
              <path d="M-0.58,-2.11 L 0.58 -2.11 0.58 2.11 -0.58 2.11 z" class="primitive"/>
            </g>
            <g transform="translate(104.26,78.22)">
              <path d="M-0.58,-2.1 L 0.58 -2.1 0.58 2.1 -0.58 2.1 z" class="primitive"/>
            </g>
            <g transform="translate(105.36,78.42)">
              <path d="M-0.58,-1.89 L 0.58 -1.89 0.58 1.89 -0.58 1.89 z" class="primitive"/>
            </g>
            <g transform="translate(106.46,78.39)">
              <path d="M-0.58,-1.93 L 0.58 -1.93 0.58 1.93 -0.58 1.93 z" class="primitive"/>
            </g>
            <g transform="translate(107.56,78.72)">
              <path d="M-0.58,-1.6 L 0.58 -1.6 0.58 1.6 -0.58 1.6 z" class="primitive"/>
            </g>
            <g transform="translate(108.66,78.77)">
              <path d="M-0.58,-1.55 L 0.58 -1.55 0.58 1.55 -0.58 1.55 z" class="primitive"/>
            </g>
            <g transform="translate(109.77,78.82)">
              <path d="M-0.58,-1.49 L 0.58 -1.49 0.58 1.49 -0.58 1.49 z" class="primitive"/>
            </g>
            <g transform="translate(110.87,78.94)">
              <path d="M-0.58,-1.38 L 0.58 -1.38 0.58 1.38 -0.58 1.38 z" class="primitive"/>
            </g>
            <g transform="translate(111.97,79.04)">
              <path d="M-0.58,-1.28 L 0.58 -1.28 0.58 1.28 -0.58 1.28 z" class="primitive"/>
            </g>
            <g transform="translate(113.07,79.05)">
              <path d="M-0.58,-1.27 L 0.58 -1.27 0.58 1.27 -0.58 1.27 z" class="primitive"/>
            </g>
            <g transform="translate(114.17,79.16)">
              <path d="M-0.58,-1.15 L 0.58 -1.15 0.58 1.15 -0.58 1.15 z" class="primitive"/>
            </g>
            <g transform="translate(115.27,79.25)">
              <path d="M-0.58,-1.06 L 0.58 -1.06 0.58 1.06 -0.58 1.06 z" class="primitive"/>
            </g>
            <g transform="translate(116.37,79.23)">
              <path d="M-0.58,-1.09 L 0.58 -1.09 0.58 1.09 -0.58 1.09 z" class="primitive"/>
            </g>
            <g transform="translate(117.47,79.29)">
              <path d="M-0.58,-1.02 L 0.58 -1.02 0.58 1.02 -0.58 1.02 z" class="primitive"/>
            </g>
            <g transform="translate(118.58,79.31)">
              <path d="M-0.58,-1 L 0.58 -1 0.58 1 -0.58 1 z" class="primitive"/>
            </g>
            <g transform="translate(119.68,79.5)">
              <path d="M-0.58,-0.82 L 0.58 -0.82 0.58 0.82 -0.58 0.82 z" class="primitive"/>
            </g>
            <g transform="translate(120.78,79.51)">
              <path d="M-0.58,-0.8 L 0.58 -0.8 0.58 0.8 -0.58 0.8 z" class="primitive"/>
            </g>
            <g transform="translate(121.88,79.63)">
              <path d="M-0.58,-0.68 L 0.58 -0.68 0.58 0.68 -0.58 0.68 z" class="primitive"/>
            </g>
            <g transform="translate(122.98,79.66)">
              <path d="M-0.58,-0.65 L 0.58 -0.65 0.58 0.65 -0.58 0.65 z" class="primitive"/>
            </g>
            <g transform="translate(124.08,79.69)">
              <path d="M-0.58,-0.63 L 0.58 -0.63 0.58 0.63 -0.58 0.63 z" class="primitive"/>
            </g>
            <g transform="translate(125.18,79.79)">
              <path d="M-0.58,-0.52 L 0.58 -0.52 0.58 0.52 -0.58 0.52 z" class="primitive"/>
            </g>
            <g transform="translate(126.29,79.81)">
              <path d="M-0.58,-0.5 L 0.58 -0.5 0.58 0.5 -0.58 0.5 z" class="primitive"/>
            </g>
            <g transform="translate(127.39,79.79)">
              <path d="M-0.58,-0.53 L 0.58 -0.53 0.58 0.53 -0.58 0.53 z" class="primitive"/>
            </g>
            <g transform="translate(128.49,79.9)">
              <path d="M-0.58,-0.41 L 0.58 -0.41 0.58 0.41 -0.58 0.41 z" class="primitive"/>
            </g>
            <g transform="translate(129.59,79.93)">
              <path d="M-0.58,-0.38 L 0.58 -0.38 0.58 0.38 -0.58 0.38 z" class="primitive"/>
            </g>
            <g transform="translate(130.69,79.95)">
              <path d="M-0.58,-0.37 L 0.58 -0.37 0.58 0.37 -0.58 0.37 z" class="primitive"/>
            </g>
            <g transform="translate(131.79,79.97)">
              <path d="M-0.58,-0.35 L 0.58 -0.35 0.58 0.35 -0.58 0.35 z" class="primitive"/>
            </g>
            <g transform="translate(132.89,80.01)">
              <path d="M-0.58,-0.31 L 0.58 -0.31 0.58 0.31 -0.58 0.31 z" class="primitive"/>
            </g>
            <g transform="translate(133.99,80.02)">
              <path d="M-0.58,-0.29 L 0.58 -0.29 0.58 0.29 -0.58 0.29 z" class="primitive"/>
            </g>
            <g transform="translate(135.1,80.02)">
              <path d="M-0.58,-0.3 L 0.58 -0.3 0.58 0.3 -0.58 0.3 z" class="primitive"/>
            </g>
            <g transform="translate(136.2,80.02)">
              <path d="M-0.58,-0.3 L 0.58 -0.3 0.58 0.3 -0.58 0.3 z" class="primitive"/>
            </g>
            <g transform="translate(137.3,80.08)">
              <path d="M-0.58,-0.23 L 0.58 -0.23 0.58 0.23 -0.58 0.23 z" class="primitive"/>
            </g>
            <g transform="translate(138.4,80.15)">
              <path d="M-0.58,-0.17 L 0.58 -0.17 0.58 0.17 -0.58 0.17 z" class="primitive"/>
            </g>
            <g transform="translate(139.5,80.16)">
              <path d="M-0.58,-0.16 L 0.58 -0.16 0.58 0.16 -0.58 0.16 z" class="primitive"/>
            </g>
            <g transform="translate(140.6,80.13)">
              <path d="M-0.58,-0.19 L 0.58 -0.19 0.58 0.19 -0.58 0.19 z" class="primitive"/>
            </g>
            <g transform="translate(141.7,80.18)">
              <path d="M-0.58,-0.13 L 0.58 -0.13 0.58 0.13 -0.58 0.13 z" class="primitive"/>
            </g>
            <g transform="translate(142.8,80.18)">
              <path d="M-0.58,-0.13 L 0.58 -0.13 0.58 0.13 -0.58 0.13 z" class="primitive"/>
            </g>
            <g transform="translate(143.91,80.22)">
              <path d="M-0.58,-0.1 L 0.58 -0.1 0.58 0.1 -0.58 0.1 z" class="primitive"/>
            </g>
            <g transform="translate(145.01,80.22)">
              <path d="M-0.58,-0.1 L 0.58 -0.1 0.58 0.1 -0.58 0.1 z" class="primitive"/>
            </g>
            <g transform="translate(146.11,80.21)">
              <path d="M-0.58,-0.1 L 0.58 -0.1 0.58 0.1 -0.58 0.1 z" class="primitive"/>
            </g>
            <g transform="translate(147.21,80.23)">
              <path d="M-0.58,-0.09 L 0.58 -0.09 0.58 0.09 -0.58 0.09 z" class="primitive"/>
            </g>
            <g transform="translate(148.31,80.27)">
              <path d="M-0.58,-0.04 L 0.58 -0.04 0.58 0.04 -0.58 0.04 z" class="primitive"/>
            </g>
            <g transform="translate(149.41,80.23)">
              <path d="M-0.58,-0.08 L 0.58 -0.08 0.58 0.08 -0.58 0.08 z" class="primitive"/>
            </g>
            <g transform="translate(150.51,80.27)">
              <path d="M-0.58,-0.04 L 0.58 -0.04 0.58 0.04 -0.58 0.04 z" class="primitive"/>
            </g>
            <g transform="translate(151.61,80.26)">
              <path d="M-0.58,-0.05 L 0.58 -0.05 0.58 0.05 -0.58 0.05 z" class="primitive"/>
            </g>
            <g transform="translate(152.72,80.29)">
              <path d="M-0.58,-0.03 L 0.58 -0.03 0.58 0.03 -0.58 0.03 z" class="primitive"/>
            </g>
            <g transform="translate(153.82,80.26)">
              <path d="M-0.58,-0.05 L 0.58 -0.05 0.58 0.05 -0.58 0.05 z" class="primitive"/>
            </g>
            <g transform="translate(154.92,80.27)">
              <path d="M-0.58,-0.04 L 0.58 -0.04 0.58 0.04 -0.58 0.04 z" class="primitive"/>
            </g>
            <g transform="translate(156.02,80.29)">
              <path d="M-0.58,-0.02 L 0.58 -0.02 0.58 0.02 -0.58 0.02 z" class="primitive"/>
            </g>
            <g transform="translate(157.12,80.3)">
              <path d="M-0.58,-0.01 L 0.58 -0.01 0.58 0.01 -0.58 0.01 z" class="primitive"/>
            </g>
            <g transform="translate(158.22,80.28)">
              <path d="M-0.58,-0.03 L 0.58 -0.03 0.58 0.03 -0.58 0.03 z" class="primitive"/>
            </g>
            <g transform="translate(159.32,80.3)">
              <path d="M-0.58,-0.02 L 0.58 -0.02 0.58 0.02 -0.58 0.02 z" class="primitive"/>
            </g>
            <g transform="translate(160.42,80.29)">
              <path d="M-0.58,-0.03 L 0.58 -0.03 0.58 0.03 -0.58 0.03 z" class="primitive"/>
            </g>
            <g transform="translate(161.53,80.31)">
              <path d="M-0.58,-0 L 0.58 -0 0.58 0 -0.58 0 z" class="primitive"/>
            </g>
            <g transform="translate(162.63,80.28)">
              <path d="M-0.58,-0.03 L 0.58 -0.03 0.58 0.03 -0.58 0.03 z" class="primitive"/>
            </g>
            <g transform="translate(163.73,80.31)">
              <path d="M-0.58,-0.01 L 0.58 -0.01 0.58 0.01 -0.58 0.01 z" class="primitive"/>
            </g>
            <g transform="translate(164.83,80.3)">
              <path d="M-0.58,-0.01 L 0.58 -0.01 0.58 0.01 -0.58 0.01 z" class="primitive"/>
            </g>
            <g transform="translate(165.93,80.3)">
              <path d="M-0.58,-0.01 L 0.58 -0.01 0.58 0.01 -0.58 0.01 z" class="primitive"/>
            </g>
            <g transform="translate(167.03,80.31)">
              <path d="M-0.58,-0.01 L 0.58 -0.01 0.58 0.01 -0.58 0.01 z" class="primitive"/>
            </g>
            <g transform="translate(168.13,80.31)">
              <path d="M-0.58,-0.01 L 0.58 -0.01 0.58 0.01 -0.58 0.01 z" class="primitive"/>
            </g>
            <g transform="translate(169.23,80.31)">
              <path d="M-0.58,-0.01 L 0.58 -0.01 0.58 0.01 -0.58 0.01 z" class="primitive"/>
            </g>
            <g transform="translate(170.34,80.31)">
              <path d="M-0.58,-0 L 0.58 -0 0.58 0 -0.58 0 z" class="primitive"/>
            </g>
            <g transform="translate(171.44,80.31)">
              <path d="M-0.58,-0 L 0.58 -0 0.58 0 -0.58 0 z" class="primitive"/>
            </g>
            <g transform="translate(172.54,80.31)">
              <path d="M-0.58,-0.01 L 0.58 -0.01 0.58 0.01 -0.58 0.01 z" class="primitive"/>
            </g>
            <g transform="translate(173.64,80.31)">
              <path d="M-0.58,-0.01 L 0.58 -0.01 0.58 0.01 -0.58 0.01 z" class="primitive"/>
            </g>
            <g transform="translate(174.74,80.32)">
              <path d="M-0.58,-0 L 0.58 -0 0.58 0 -0.58 0 z" class="primitive"/>
            </g>
            <g transform="translate(175.84,80.32)">
              <path d="M-0.58,-0 L 0.58 -0 0.58 0 -0.58 0 z" class="primitive"/>
            </g>
            <g transform="translate(176.94,80.31)">
              <path d="M-0.58,-0 L 0.58 -0 0.58 0 -0.58 0 z" class="primitive"/>
            </g>
            <g transform="translate(178.04,80.32)">
              <path d="M-0.58,-0 L 0.58 -0 0.58 0 -0.58 0 z" class="primitive"/>
            </g>
            <g transform="translate(179.15,80.32)">
              <path d="M-0.58,-0 L 0.58 -0 0.58 0 -0.58 0 z" class="primitive"/>
            </g>
            <g transform="translate(180.25,80.32)">
              <path d="M-0.58,-0 L 0.58 -0 0.58 0 -0.58 0 z" class="primitive"/>
            </g>
            <g transform="translate(181.35,80.32)">
              <path d="M-0.58,-0 L 0.58 -0 0.58 0 -0.58 0 z" class="primitive"/>
            </g>
            <g transform="translate(182.45,80.32)">
              <path d="M-0.58,-0 L 0.58 -0 0.58 0 -0.58 0 z" class="primitive"/>
            </g>
            <g transform="translate(183.55,80.32)">
              <path d="M-0.58,-0 L 0.58 -0 0.58 0 -0.58 0 z" class="primitive"/>
            </g>
            <g transform="translate(184.65,80.32)">
              <path d="M-0.58,-0 L 0.58 -0 0.58 0 -0.58 0 z" class="primitive"/>
            </g>
            <g transform="translate(185.75,80.32)">
              <path d="M-0.58,-0 L 0.58 -0 0.58 0 -0.58 0 z" class="primitive"/>
            </g>
          </g>
        </g>
      </g>
    </g>
  </g>
  <g class="guide ylabels" font-size="2.82" font-family="'PT Sans Caption','Helvetica Neue','Helvetica',sans-serif" fill="#6C606B" id="img-88ef223f-12">
    <g transform="translate(18.11,80.31)">
      <g class="primitive">
        <text text-anchor="end" dy="0.35em">0</text>
      </g>
    </g>
    <g transform="translate(18.11,55.88)">
      <g class="primitive">
        <text text-anchor="end" dy="0.35em">5.0×10³</text>
      </g>
    </g>
    <g transform="translate(18.11,31.44)">
      <g class="primitive">
        <text text-anchor="end" dy="0.35em">1.0×10⁴</text>
      </g>
    </g>
    <g transform="translate(18.11,7)">
      <g class="primitive">
        <text text-anchor="end" dy="0.35em">1.5×10⁴</text>
      </g>
    </g>
  </g>
</g>
<defs>
  <clipPath id="img-88ef223f-4">
    <path d="M19.11,5 L 198.2 5 198.2 82.32 19.11 82.32" />
  </clipPath>
</defs>
</svg>
