<?xml version="1.0" encoding="UTF-8"?>
<svg xmlns="http://www.w3.org/2000/svg"
     xmlns:xlink="http://www.w3.org/1999/xlink"
     xmlns:gadfly="http://www.gadflyjl.org/ns"
     version="1.2"
     width="152.4mm" height="101.6mm" viewBox="0 0 152.4 101.6"
     stroke="none"
     fill="#000000"
     stroke-width="0.3"
     font-size="3.88"
>
<g class="plotroot xscalable" id="img-37b8f0d1-1">
  <g font-size="3.88" font-family="'PT Sans','Helvetica Neue','Helvetica',sans-serif" fill="#564A55" stroke="#000000" stroke-opacity="0.000" id="img-37b8f0d1-2">
    <g transform="translate(82.04,89.99)">
      <g class="primitive">
        <text text-anchor="middle" dy="0.6em">Centered age (yr)</text>
      </g>
    </g>
  </g>
  <g class="guide xlabels" font-size="2.82" font-family="'PT Sans Caption','Helvetica Neue','Helvetica',sans-serif" fill="#6C606B" id="img-37b8f0d1-3">
    <g transform="translate(18.69,83.32)">
      <g class="primitive">
        <text text-anchor="middle" dy="0.6em">-20</text>
      </g>
    </g>
    <g transform="translate(50.36,83.32)">
      <g class="primitive">
        <text text-anchor="middle" dy="0.6em">-10</text>
      </g>
    </g>
    <g transform="translate(82.04,83.32)">
      <g class="primitive">
        <text text-anchor="middle" dy="0.6em">0</text>
      </g>
    </g>
    <g transform="translate(113.72,83.32)">
      <g class="primitive">
        <text text-anchor="middle" dy="0.6em">10</text>
      </g>
    </g>
    <g transform="translate(145.4,83.32)">
      <g class="primitive">
        <text text-anchor="middle" dy="0.6em">20</text>
      </g>
    </g>
  </g>
  <g clip-path="url(#img-37b8f0d1-4)">
    <g id="img-37b8f0d1-5">
      <g pointer-events="visible" opacity="1" fill="#000000" fill-opacity="0.000" stroke="#000000" stroke-opacity="0.000" class="guide background" id="img-37b8f0d1-6">
        <g transform="translate(82.04,43.66)">
          <path d="M-65.36,-38.66 L 65.36 -38.66 65.36 38.66 -65.36 38.66 z" class="primitive"/>
        </g>
      </g>
      <g class="guide ygridlines xfixed" stroke-dasharray="0.5,0.5" stroke-width="0.2" stroke="#D0D0E0" id="img-37b8f0d1-7">
        <g transform="translate(82.04,43.66)">
          <path fill="none" d="M-65.36,0 L 65.36 0" class="primitive"/>
        </g>
      </g>
      <g class="guide xgridlines yfixed" stroke-dasharray="0.5,0.5" stroke-width="0.2" stroke="#D0D0E0" id="img-37b8f0d1-8">
        <g transform="translate(18.69,43.66)">
          <path fill="none" d="M0,-38.66 L 0 38.66" class="primitive"/>
        </g>
        <g transform="translate(50.36,43.66)">
          <path fill="none" d="M0,-38.66 L 0 38.66" class="primitive"/>
        </g>
        <g transform="translate(82.04,43.66)">
          <path fill="none" d="M0,-38.66 L 0 38.66" class="primitive"/>
        </g>
        <g transform="translate(113.72,43.66)">
          <path fill="none" d="M0,-38.66 L 0 38.66" class="primitive"/>
        </g>
        <g transform="translate(145.4,43.66)">
          <path fill="none" d="M0,-38.66 L 0 38.66" class="primitive"/>
        </g>
      </g>
      <g class="plotpanel" id="img-37b8f0d1-9">
        <metadata>
          <boundingbox value="16.685000000000002mm 5.0mm 130.71499999999997mm 77.315mm"/>
          <unitbox value="-20.631338042062897 2.5 41.26267608412579 -2.0"/>
        </metadata>
        <g stroke-width="0.3" fill="#000000" fill-opacity="0.000" class="geometry" id="img-37b8f0d1-10">
          <g stroke-dasharray="none" stroke="#00BFFF" id="img-37b8f0d1-11">
            <g transform="translate(91.29,47.97)">
              <path fill="none" d="M-52.2,8.02 L -52.06 7.96 -51.92 7.89 -51.78 7.83 -51.64 7.77 -51.5 7.71 -51.36 7.65 -51.22 7.59 -51.09 7.53 -50.95 7.47 -50.81 7.41 -50.67 7.35 -50.53 7.29 -50.39 7.23 -50.25 7.17 -50.11 7.11 -49.97 7.06 -49.83 7 -49.69 6.94 -49.55 6.88 -49.41 6.82 -49.27 6.76 -49.13 6.7 -48.99 6.65 -48.85 6.59 -48.72 6.53 -48.58 6.47 -48.44 6.41 -48.3 6.36 -48.16 6.3 -48.02 6.24 -47.88 6.18 -47.74 6.13 -47.6 6.07 -47.46 6.01 -47.32 5.96 -47.18 5.9 -47.04 5.84 -46.9 5.79 -46.76 5.73 -46.62 5.68 -46.49 5.62 -46.35 5.56 -46.21 5.51 -46.07 5.45 -45.93 5.4 -45.79 5.34 -45.65 5.29 -45.51 5.23 -45.37 5.18 -45.23 5.12 -45.09 5.07 -44.95 5.01 -44.81 4.96 -44.67 4.91 -44.53 4.85 -44.39 4.8 -44.26 4.74 -44.12 4.69 -43.98 4.64 -43.84 4.58 -43.7 4.53 -43.56 4.48 -43.42 4.42 -43.28 4.37 -43.14 4.32 -43 4.26 -42.86 4.21 -42.72 4.16 -42.58 4.11 -42.44 4.05 -42.3 4 -42.16 3.95 -42.03 3.9 -41.89 3.85 -41.75 3.79 -41.61 3.74 -41.47 3.69 -41.33 3.64 -41.19 3.59 -41.05 3.54 -40.91 3.48 -40.77 3.43 -40.63 3.38 -40.49 3.33 -40.35 3.28 -40.21 3.23 -40.07 3.18 -39.93 3.13 -39.79 3.08 -39.66 3.03 -39.52 2.98 -39.38 2.93 -39.24 2.88 -39.1 2.83 -38.96 2.78 -38.82 2.73 -38.68 2.68 -38.54 2.63 -38.4 2.58 -38.26 2.53 -38.12 2.48 -37.98 2.43 -37.84 2.38 -37.7 2.33 -37.56 2.28 -37.43 2.24 -37.29 2.19 -37.15 2.14 -37.01 2.09 -36.87 2.04 -36.73 1.99 -36.59 1.95 -36.45 1.9 -36.31 1.85 -36.17 1.8 -36.03 1.75 -35.89 1.71 -35.75 1.66 -35.61 1.61 -35.47 1.56 -35.33 1.52 -35.2 1.47 -35.06 1.42 -34.92 1.37 -34.78 1.33 -34.64 1.28 -34.5 1.23 -34.36 1.19 -34.22 1.14 -34.08 1.09 -33.94 1.05 -33.8 1 -33.66 0.96 -33.52 0.91 -33.38 0.86 -33.24 0.82 -33.1 0.77 -32.96 0.73 -32.83 0.68 -32.69 0.64 -32.55 0.59 -32.41 0.55 -32.27 0.5 -32.13 0.46 -31.99 0.41 -31.85 0.37 -31.71 0.32 -31.57 0.28 -31.43 0.23 -31.29 0.19 -31.15 0.15 -31.01 0.1 -30.87 0.06 -30.73 0.01 -30.6 -0.03 -30.46 -0.07 -30.32 -0.11 -30.18 -0.16 -30.04 -0.2 -29.9 -0.24 -29.76 -0.29 -29.62 -0.33 -29.48 -0.37 -29.34 -0.41 -29.2 -0.45 -29.06 -0.5 -28.92 -0.54 -28.78 -0.58 -28.64 -0.62 -28.5 -0.66 -28.37 -0.7 -28.23 -0.74 -28.09 -0.78 -27.95 -0.82 -27.81 -0.86 -27.67 -0.91 -27.53 -0.95 -27.39 -0.98 -27.25 -1.02 -27.11 -1.06 -26.97 -1.1 -26.83 -1.14 -26.69 -1.18 -26.55 -1.22 -26.41 -1.26 -26.27 -1.3 -26.13 -1.33 -26 -1.37 -25.86 -1.41 -25.72 -1.45 -25.58 -1.49 -25.44 -1.52 -25.3 -1.56 -25.16 -1.6 -25.02 -1.63 -24.88 -1.67 -24.74 -1.71 -24.6 -1.74 -24.46 -1.78 -24.32 -1.82 -24.18 -1.85 -24.04 -1.89 -23.9 -1.92 -23.77 -1.96 -23.63 -1.99 -23.49 -2.03 -23.35 -2.07 -23.21 -2.11 -23.07 -2.14 -22.93 -2.18 -22.79 -2.22 -22.65 -2.25 -22.51 -2.29 -22.37 -2.33 -22.23 -2.36 -22.09 -2.4 -21.95 -2.43 -21.81 -2.47 -21.67 -2.51 -21.54 -2.54 -21.4 -2.58 -21.26 -2.61 -21.12 -2.65 -20.98 -2.68 -20.84 -2.72 -20.7 -2.75 -20.56 -2.79 -20.42 -2.82 -20.28 -2.86 -20.14 -2.9 -20 -2.93 -19.86 -2.97 -19.72 -3.01 -19.58 -3.04 -19.44 -3.08 -19.31 -3.11 -19.17 -3.15 -19.03 -3.19 -18.89 -3.22 -18.75 -3.26 -18.61 -3.29 -18.47 -3.33 -18.33 -3.36 -18.19 -3.39 -18.05 -3.43 -17.91 -3.46 -17.77 -3.49 -17.63 -3.53 -17.49 -3.56 -17.35 -3.59 -17.21 -3.62 -17.07 -3.65 -16.94 -3.68 -16.8 -3.71 -16.66 -3.74 -16.52 -3.76 -16.38 -3.79 -16.24 -3.82 -16.1 -3.85 -15.96 -3.88 -15.82 -3.9 -15.68 -3.93 -15.54 -3.96 -15.4 -3.98 -15.26 -4.01 -15.12 -4.04 -14.98 -4.06 -14.84 -4.09 -14.71 -4.11 -14.57 -4.14 -14.43 -4.16 -14.29 -4.19 -14.15 -4.21 -14.01 -4.22 -13.87 -4.24 -13.73 -4.25 -13.59 -4.27 -13.45 -4.28 -13.31 -4.29 -13.17 -4.31 -13.03 -4.32 -12.89 -4.33 -12.75 -4.34 -12.61 -4.35 -12.48 -4.37 -12.34 -4.38 -12.2 -4.39 -12.06 -4.4 -11.92 -4.41 -11.78 -4.42 -11.64 -4.43 -11.5 -4.44 -11.36 -4.45 -11.22 -4.46 -11.08 -4.47 -10.94 -4.48 -10.8 -4.49 -10.66 -4.5 -10.52 -4.51 -10.38 -4.51 -10.24 -4.52 -10.11 -4.53 -9.97 -4.54 -9.83 -4.54 -9.69 -4.55 -9.55 -4.56 -9.41 -4.56 -9.27 -4.57 -9.13 -4.57 -8.99 -4.58 -8.85 -4.58 -8.71 -4.59 -8.57 -4.59 -8.43 -4.6 -8.29 -4.6 -8.15 -4.61 -8.01 -4.61 -7.88 -4.62 -7.74 -4.62 -7.6 -4.61 -7.46 -4.61 -7.32 -4.61 -7.18 -4.61 -7.04 -4.61 -6.9 -4.61 -6.76 -4.6 -6.62 -4.6 -6.48 -4.6 -6.34 -4.6 -6.2 -4.59 -6.06 -4.59 -5.92 -4.59 -5.78 -4.58 -5.65 -4.58 -5.51 -4.58 -5.37 -4.57 -5.23 -4.57 -5.09 -4.57 -4.95 -4.57 -4.81 -4.56 -4.67 -4.56 -4.53 -4.55 -4.39 -4.55 -4.25 -4.54 -4.11 -4.54 -3.97 -4.53 -3.83 -4.53 -3.69 -4.52 -3.55 -4.51 -3.41 -4.51 -3.28 -4.5 -3.14 -4.49 -3 -4.49 -2.86 -4.48 -2.72 -4.47 -2.58 -4.46 -2.44 -4.46 -2.3 -4.45 -2.16 -4.44 -2.02 -4.43 -1.88 -4.42 -1.74 -4.41 -1.6 -4.4 -1.46 -4.4 -1.32 -4.39 -1.18 -4.38 -1.05 -4.38 -0.91 -4.37 -0.77 -4.37 -0.63 -4.36 -0.49 -4.35 -0.35 -4.35 -0.21 -4.34 -0.07 -4.33 0.07 -4.33 0.21 -4.32 0.35 -4.31 0.49 -4.3 0.63 -4.3 0.77 -4.29 0.91 -4.28 1.05 -4.27 1.18 -4.26 1.32 -4.26 1.46 -4.25 1.6 -4.24 1.74 -4.23 1.88 -4.22 2.02 -4.2 2.16 -4.19 2.3 -4.18 2.44 -4.17 2.58 -4.15 2.72 -4.14 2.86 -4.12 3 -4.11 3.14 -4.1 3.28 -4.08 3.41 -4.07 3.55 -4.05 3.69 -4.04 3.83 -4.02 3.97 -4.01 4.11 -4 4.25 -3.98 4.39 -3.96 4.53 -3.95 4.67 -3.93 4.81 -3.92 4.95 -3.91 5.09 -3.89 5.23 -3.88 5.37 -3.87 5.51 -3.85 5.65 -3.84 5.78 -3.82 5.92 -3.81 6.06 -3.8 6.2 -3.78 6.34 -3.77 6.48 -3.75 6.62 -3.74 6.76 -3.73 6.9 -3.71 7.04 -3.7 7.18 -3.68 7.32 -3.67 7.46 -3.65 7.6 -3.64 7.74 -3.62 7.88 -3.61 8.01 -3.59 8.15 -3.58 8.29 -3.57 8.43 -3.57 8.57 -3.56 8.71 -3.55 8.85 -3.54 8.99 -3.53 9.13 -3.52 9.27 -3.51 9.41 -3.5 9.55 -3.49 9.69 -3.48 9.83 -3.47 9.97 -3.46 10.11 -3.45 10.24 -3.44 10.38 -3.43 10.52 -3.41 10.66 -3.4 10.8 -3.39 10.94 -3.38 11.08 -3.37 11.22 -3.36 11.36 -3.35 11.5 -3.34 11.64 -3.33 11.78 -3.32 11.92 -3.31 12.06 -3.3 12.2 -3.29 12.34 -3.28 12.48 -3.27 12.61 -3.25 12.75 -3.24 12.89 -3.23 13.03 -3.22 13.17 -3.21 13.31 -3.19 13.45 -3.18 13.59 -3.17 13.73 -3.15 13.87 -3.14 14.01 -3.13 14.15 -3.11 14.29 -3.1 14.43 -3.08 14.57 -3.06 14.71 -3.05 14.84 -3.03 14.98 -3.01 15.12 -3 15.26 -2.98 15.4 -2.96 15.54 -2.94 15.68 -2.92 15.82 -2.9 15.96 -2.89 16.1 -2.87 16.24 -2.85 16.38 -2.83 16.52 -2.81 16.66 -2.79 16.8 -2.77 16.94 -2.75 17.07 -2.73 17.21 -2.71 17.35 -2.69 17.49 -2.67 17.63 -2.64 17.77 -2.62 17.91 -2.6 18.05 -2.58 18.19 -2.56 18.33 -2.53 18.47 -2.51 18.61 -2.49 18.75 -2.46 18.89 -2.44 19.03 -2.42 19.17 -2.39 19.31 -2.37 19.44 -2.34 19.58 -2.32 19.72 -2.29 19.86 -2.26 20 -2.24 20.14 -2.21 20.28 -2.19 20.42 -2.16 20.56 -2.13 20.7 -2.1 20.84 -2.08 20.98 -2.05 21.12 -2.02 21.26 -1.99 21.4 -1.96 21.54 -1.93 21.67 -1.9 21.81 -1.87 21.95 -1.84 22.09 -1.81 22.23 -1.78 22.37 -1.75 22.51 -1.72 22.65 -1.69 22.79 -1.66 22.93 -1.63 23.07 -1.6 23.21 -1.57 23.35 -1.54 23.49 -1.5 23.63 -1.47 23.77 -1.44 23.9 -1.41 24.04 -1.37 24.18 -1.34 24.32 -1.31 24.46 -1.27 24.6 -1.24 24.74 -1.21 24.88 -1.17 25.02 -1.14 25.16 -1.1 25.3 -1.07 25.44 -1.03 25.58 -1 25.72 -0.96 25.86 -0.93 26 -0.89 26.13 -0.86 26.27 -0.82 26.41 -0.78 26.55 -0.75 26.69 -0.71 26.83 -0.67 26.97 -0.64 27.11 -0.6 27.25 -0.56 27.39 -0.52 27.53 -0.49 27.67 -0.45 27.81 -0.41 27.95 -0.37 28.09 -0.33 28.23 -0.29 28.37 -0.26 28.5 -0.22 28.64 -0.18 28.78 -0.14 28.92 -0.1 29.06 -0.06 29.2 -0.02 29.34 0.02 29.48 0.06 29.62 0.11 29.76 0.15 29.9 0.19 30.04 0.23 30.18 0.27 30.32 0.31 30.46 0.36 30.6 0.4 30.73 0.44 30.87 0.48 31.01 0.52 31.15 0.57 31.29 0.61 31.43 0.65 31.57 0.7 31.71 0.74 31.85 0.79 31.99 0.83 32.13 0.87 32.27 0.92 32.41 0.96 32.55 1.01 32.69 1.05 32.83 1.1 32.96 1.14 33.1 1.19 33.24 1.24 33.38 1.28 33.52 1.33 33.66 1.37 33.8 1.42 33.94 1.47 34.08 1.52 34.22 1.56 34.36 1.61 34.5 1.66 34.64 1.71 34.78 1.75 34.92 1.8 35.06 1.85 35.2 1.9 35.33 1.95 35.47 2 35.61 2.05 35.75 2.1 35.89 2.15 36.03 2.2 36.17 2.25 36.31 2.3 36.45 2.35 36.59 2.4 36.73 2.45 36.87 2.5 37.01 2.56 37.15 2.61 37.29 2.66 37.43 2.71 37.56 2.76 37.7 2.82 37.84 2.87 37.98 2.92 38.12 2.98 38.26 3.03 38.4 3.08 38.54 3.14 38.68 3.19 38.82 3.25 38.96 3.3 39.1 3.35 39.24 3.41 39.38 3.46 39.52 3.52 39.66 3.58 39.79 3.63 39.93 3.69 40.07 3.74 40.21 3.8 40.35 3.86 40.49 3.91 40.63 3.97 40.77 4.03 40.91 4.09 41.05 4.14 41.19 4.2 41.33 4.26 41.47 4.32 41.61 4.38 41.75 4.44 41.89 4.5 42.03 4.56 42.16 4.62 42.3 4.67 42.44 4.74 42.58 4.8 42.72 4.86 42.86 4.92 43 4.98 43.14 5.04 43.28 5.1 43.42 5.16 43.56 5.22 43.7 5.29 43.84 5.35 43.98 5.41 44.12 5.47 44.26 5.54 44.39 5.6 44.53 5.66 44.67 5.73 44.81 5.79 44.95 5.86 45.09 5.92 45.23 5.99 45.37 6.05 45.51 6.12 45.65 6.18 45.79 6.25 45.93 6.31 46.07 6.38 46.21 6.44 46.35 6.51 46.49 6.58 46.62 6.64 46.76 6.71 46.9 6.78 47.04 6.85 47.18 6.92 47.32 6.98 47.46 7.05 47.6 7.12 47.74 7.19 47.88 7.26 48.02 7.33 48.16 7.4 48.3 7.47 48.44 7.54 48.58 7.61 48.72 7.68 48.85 7.75 48.99 7.82 49.13 7.89 49.27 7.96 49.41 8.03 49.55 8.1 49.69 8.18 49.83 8.25 49.97 8.32 50.11 8.39 50.25 8.47 50.39 8.54 50.53 8.61 50.67 8.69 50.81 8.76 50.95 8.83 51.09 8.91 51.22 8.98 51.36 9.06 51.5 9.13 51.64 9.21 51.78 9.28 51.92 9.36 52.06 9.43 52.2 9.51" class="primitive"/>
            </g>
          </g>
        </g>
      </g>
    </g>
  </g>
  <g class="guide ylabels" font-size="2.82" font-family="'PT Sans Caption','Helvetica Neue','Helvetica',sans-serif" fill="#6C606B" id="img-37b8f0d1-12">
    <g transform="translate(15.68,62.99)">
      <g class="primitive">
        <text text-anchor="end" dy="0.35em">N</text>
      </g>
    </g>
    <g transform="translate(15.68,24.33)">
      <g class="primitive">
        <text text-anchor="end" dy="0.35em">Y</text>
      </g>
    </g>
  </g>
  <g font-size="3.88" font-family="'PT Sans','Helvetica Neue','Helvetica',sans-serif" fill="#564A55" stroke="#000000" stroke-opacity="0.000" id="img-37b8f0d1-13">
    <g transform="translate(8.81,41.66)">
      <g class="primitive">
        <text text-anchor="middle" dy="0.35em" transform="rotate(-90,0, 2)">Contraception use</text>
      </g>
    </g>
  </g>
</g>
<defs>
  <clipPath id="img-37b8f0d1-4">
    <path d="M16.69,5 L 147.4 5 147.4 82.32 16.69 82.32" />
  </clipPath>
</defs>
</svg>
