<?xml version="1.0" encoding="UTF-8"?>
<svg xmlns="http://www.w3.org/2000/svg"
     xmlns:xlink="http://www.w3.org/1999/xlink"
     xmlns:gadfly="http://www.gadflyjl.org/ns"
     version="1.2"
     width="203.2mm" height="101.6mm" viewBox="0 0 203.2 101.6"
     stroke="none"
     fill="#000000"
     stroke-width="0.3"
     font-size="3.88"
>
<g class="plotroot xscalable yscalable" id="img-7352becb-1">
  <g font-size="3.88" font-family="'PT Sans','Helvetica Neue','Helvetica',sans-serif" fill="#564A55" stroke="#000000" stroke-opacity="0.000" id="img-7352becb-2">
    <g transform="translate(105.11,89.99)">
      <g class="primitive">
        <text text-anchor="middle" dy="0.6em">ρ₁₂</text>
      </g>
    </g>
  </g>
  <g class="guide xlabels" font-size="2.82" font-family="'PT Sans Caption','Helvetica Neue','Helvetica',sans-serif" fill="#6C606B" id="img-7352becb-3">
    <g transform="translate(14.02,83.32)">
      <g class="primitive">
        <text text-anchor="middle" dy="0.6em">-1.0</text>
      </g>
    </g>
    <g transform="translate(59.56,83.32)">
      <g class="primitive">
        <text text-anchor="middle" dy="0.6em">-0.5</text>
      </g>
    </g>
    <g transform="translate(105.11,83.32)">
      <g class="primitive">
        <text text-anchor="middle" dy="0.6em">0.0</text>
      </g>
    </g>
    <g transform="translate(150.66,83.32)">
      <g class="primitive">
        <text text-anchor="middle" dy="0.6em">0.5</text>
      </g>
    </g>
    <g transform="translate(196.2,83.32)">
      <g class="primitive">
        <text text-anchor="middle" dy="0.6em">1.0</text>
      </g>
    </g>
  </g>
  <g clip-path="url(#img-7352becb-4)">
    <g id="img-7352becb-5">
      <g pointer-events="visible" opacity="1" fill="#000000" fill-opacity="0.000" stroke="#000000" stroke-opacity="0.000" class="guide background" id="img-7352becb-6">
        <g transform="translate(105.11,43.66)">
          <path d="M-93.09,-38.66 L 93.09 -38.66 93.09 38.66 -93.09 38.66 z" class="primitive"/>
        </g>
      </g>
      <g class="guide ygridlines xfixed" stroke-dasharray="0.5,0.5" stroke-width="0.2" stroke="#D0D0E0" id="img-7352becb-7">
        <g transform="translate(105.11,80.32)">
          <path fill="none" d="M-93.09,0 L 93.09 0" class="primitive"/>
        </g>
        <g transform="translate(105.11,61.99)">
          <path fill="none" d="M-93.09,0 L 93.09 0" class="primitive"/>
        </g>
        <g transform="translate(105.11,43.66)">
          <path fill="none" d="M-93.09,0 L 93.09 0" class="primitive"/>
        </g>
        <g transform="translate(105.11,25.33)">
          <path fill="none" d="M-93.09,0 L 93.09 0" class="primitive"/>
        </g>
        <g transform="translate(105.11,7)">
          <path fill="none" d="M-93.09,0 L 93.09 0" class="primitive"/>
        </g>
      </g>
      <g class="guide xgridlines yfixed" stroke-dasharray="0.5,0.5" stroke-width="0.2" stroke="#D0D0E0" id="img-7352becb-8">
        <g transform="translate(14.02,43.66)">
          <path fill="none" d="M0,-38.66 L 0 38.66" class="primitive"/>
        </g>
        <g transform="translate(59.56,43.66)">
          <path fill="none" d="M0,-38.66 L 0 38.66" class="primitive"/>
        </g>
        <g transform="translate(105.11,43.66)">
          <path fill="none" d="M0,-38.66 L 0 38.66" class="primitive"/>
        </g>
        <g transform="translate(150.66,43.66)">
          <path fill="none" d="M0,-38.66 L 0 38.66" class="primitive"/>
        </g>
        <g transform="translate(196.2,43.66)">
          <path fill="none" d="M0,-38.66 L 0 38.66" class="primitive"/>
        </g>
      </g>
      <g class="plotpanel" id="img-7352becb-9">
        <metadata>
          <boundingbox value="12.02000000000001mm 5.0mm 186.18mm 77.315mm"/>
          <unitbox value="-1.021956306949171 410.91181886380684 2.043912613898342 -421.82363772761374"/>
        </metadata>
        <g shape-rendering="crispEdges" stroke-width="0.3" id="img-7352becb-10">
          <g stroke="#000000" stroke-opacity="0.000" class="geometry" fill="#00BFFF" id="img-7352becb-11">
            <g transform="translate(14.63,80.04)">
              <path d="M-0.63,-0.27 L 0.63 -0.27 0.63 0.27 -0.63 0.27 z" class="primitive"/>
            </g>
            <g transform="translate(15.84,80.22)">
              <path d="M-0.63,-0.09 L 0.63 -0.09 0.63 0.09 -0.63 0.09 z" class="primitive"/>
            </g>
            <g transform="translate(17.06,80.32)">
              <path d="M-0.63,-0 L 0.63 -0 0.63 0 -0.63 0 z" class="primitive"/>
            </g>
            <g transform="translate(18.27,80.32)">
              <path d="M-0.63,-0 L 0.63 -0 0.63 0 -0.63 0 z" class="primitive"/>
            </g>
            <g transform="translate(19.49,80.32)">
              <path d="M-0.63,-0 L 0.63 -0 0.63 0 -0.63 0 z" class="primitive"/>
            </g>
            <g transform="translate(20.7,80.32)">
              <path d="M-0.63,-0 L 0.63 -0 0.63 0 -0.63 0 z" class="primitive"/>
            </g>
            <g transform="translate(21.91,80.32)">
              <path d="M-0.63,-0 L 0.63 -0 0.63 0 -0.63 0 z" class="primitive"/>
            </g>
            <g transform="translate(23.13,80.22)">
              <path d="M-0.63,-0.09 L 0.63 -0.09 0.63 0.09 -0.63 0.09 z" class="primitive"/>
            </g>
            <g transform="translate(24.34,80.22)">
              <path d="M-0.63,-0.09 L 0.63 -0.09 0.63 0.09 -0.63 0.09 z" class="primitive"/>
            </g>
            <g transform="translate(25.56,80.32)">
              <path d="M-0.63,-0 L 0.63 -0 0.63 0 -0.63 0 z" class="primitive"/>
            </g>
            <g transform="translate(26.77,80.32)">
              <path d="M-0.63,-0 L 0.63 -0 0.63 0 -0.63 0 z" class="primitive"/>
            </g>
            <g transform="translate(27.99,80.22)">
              <path d="M-0.63,-0.09 L 0.63 -0.09 0.63 0.09 -0.63 0.09 z" class="primitive"/>
            </g>
            <g transform="translate(29.2,80.32)">
              <path d="M-0.63,-0 L 0.63 -0 0.63 0 -0.63 0 z" class="primitive"/>
            </g>
            <g transform="translate(30.42,80.32)">
              <path d="M-0.63,-0 L 0.63 -0 0.63 0 -0.63 0 z" class="primitive"/>
            </g>
            <g transform="translate(31.63,80.32)">
              <path d="M-0.63,-0 L 0.63 -0 0.63 0 -0.63 0 z" class="primitive"/>
            </g>
            <g transform="translate(32.85,80.22)">
              <path d="M-0.63,-0.09 L 0.63 -0.09 0.63 0.09 -0.63 0.09 z" class="primitive"/>
            </g>
            <g transform="translate(34.06,80.22)">
              <path d="M-0.63,-0.09 L 0.63 -0.09 0.63 0.09 -0.63 0.09 z" class="primitive"/>
            </g>
            <g transform="translate(35.27,80.22)">
              <path d="M-0.63,-0.09 L 0.63 -0.09 0.63 0.09 -0.63 0.09 z" class="primitive"/>
            </g>
            <g transform="translate(36.49,80.22)">
              <path d="M-0.63,-0.09 L 0.63 -0.09 0.63 0.09 -0.63 0.09 z" class="primitive"/>
            </g>
            <g transform="translate(37.7,79.95)">
              <path d="M-0.63,-0.37 L 0.63 -0.37 0.63 0.37 -0.63 0.37 z" class="primitive"/>
            </g>
            <g transform="translate(38.92,80.04)">
              <path d="M-0.63,-0.27 L 0.63 -0.27 0.63 0.27 -0.63 0.27 z" class="primitive"/>
            </g>
            <g transform="translate(40.13,80.13)">
              <path d="M-0.63,-0.18 L 0.63 -0.18 0.63 0.18 -0.63 0.18 z" class="primitive"/>
            </g>
            <g transform="translate(41.35,80.04)">
              <path d="M-0.63,-0.27 L 0.63 -0.27 0.63 0.27 -0.63 0.27 z" class="primitive"/>
            </g>
            <g transform="translate(42.56,79.77)">
              <path d="M-0.63,-0.55 L 0.63 -0.55 0.63 0.55 -0.63 0.55 z" class="primitive"/>
            </g>
            <g transform="translate(43.78,79.4)">
              <path d="M-0.63,-0.92 L 0.63 -0.92 0.63 0.92 -0.63 0.92 z" class="primitive"/>
            </g>
            <g transform="translate(44.99,79.86)">
              <path d="M-0.63,-0.46 L 0.63 -0.46 0.63 0.46 -0.63 0.46 z" class="primitive"/>
            </g>
            <g transform="translate(46.21,79.49)">
              <path d="M-0.63,-0.82 L 0.63 -0.82 0.63 0.82 -0.63 0.82 z" class="primitive"/>
            </g>
            <g transform="translate(47.42,79.4)">
              <path d="M-0.63,-0.92 L 0.63 -0.92 0.63 0.92 -0.63 0.92 z" class="primitive"/>
            </g>
            <g transform="translate(48.63,79.58)">
              <path d="M-0.63,-0.73 L 0.63 -0.73 0.63 0.73 -0.63 0.73 z" class="primitive"/>
            </g>
            <g transform="translate(49.85,79.31)">
              <path d="M-0.63,-1.01 L 0.63 -1.01 0.63 1.01 -0.63 1.01 z" class="primitive"/>
            </g>
            <g transform="translate(51.06,79.12)">
              <path d="M-0.63,-1.19 L 0.63 -1.19 0.63 1.19 -0.63 1.19 z" class="primitive"/>
            </g>
            <g transform="translate(52.28,78.67)">
              <path d="M-0.63,-1.65 L 0.63 -1.65 0.63 1.65 -0.63 1.65 z" class="primitive"/>
            </g>
            <g transform="translate(53.49,79.22)">
              <path d="M-0.63,-1.1 L 0.63 -1.1 0.63 1.1 -0.63 1.1 z" class="primitive"/>
            </g>
            <g transform="translate(54.71,78.57)">
              <path d="M-0.63,-1.74 L 0.63 -1.74 0.63 1.74 -0.63 1.74 z" class="primitive"/>
            </g>
            <g transform="translate(55.92,78.39)">
              <path d="M-0.63,-1.92 L 0.63 -1.92 0.63 1.92 -0.63 1.92 z" class="primitive"/>
            </g>
            <g transform="translate(57.14,77.29)">
              <path d="M-0.63,-3.02 L 0.63 -3.02 0.63 3.02 -0.63 3.02 z" class="primitive"/>
            </g>
            <g transform="translate(58.35,77.84)">
              <path d="M-0.63,-2.47 L 0.63 -2.47 0.63 2.47 -0.63 2.47 z" class="primitive"/>
            </g>
            <g transform="translate(59.57,77.75)">
              <path d="M-0.63,-2.57 L 0.63 -2.57 0.63 2.57 -0.63 2.57 z" class="primitive"/>
            </g>
            <g transform="translate(60.78,77.47)">
              <path d="M-0.63,-2.84 L 0.63 -2.84 0.63 2.84 -0.63 2.84 z" class="primitive"/>
            </g>
            <g transform="translate(61.99,76.47)">
              <path d="M-0.63,-3.85 L 0.63 -3.85 0.63 3.85 -0.63 3.85 z" class="primitive"/>
            </g>
            <g transform="translate(63.21,76.65)">
              <path d="M-0.63,-3.67 L 0.63 -3.67 0.63 3.67 -0.63 3.67 z" class="primitive"/>
            </g>
            <g transform="translate(64.42,75.73)">
              <path d="M-0.63,-4.58 L 0.63 -4.58 0.63 4.58 -0.63 4.58 z" class="primitive"/>
            </g>
            <g transform="translate(65.64,76.1)">
              <path d="M-0.63,-4.22 L 0.63 -4.22 0.63 4.22 -0.63 4.22 z" class="primitive"/>
            </g>
            <g transform="translate(66.85,75.55)">
              <path d="M-0.63,-4.77 L 0.63 -4.77 0.63 4.77 -0.63 4.77 z" class="primitive"/>
            </g>
            <g transform="translate(68.07,76.56)">
              <path d="M-0.63,-3.76 L 0.63 -3.76 0.63 3.76 -0.63 3.76 z" class="primitive"/>
            </g>
            <g transform="translate(69.28,75.82)">
              <path d="M-0.63,-4.49 L 0.63 -4.49 0.63 4.49 -0.63 4.49 z" class="primitive"/>
            </g>
            <g transform="translate(70.5,75)">
              <path d="M-0.63,-5.32 L 0.63 -5.32 0.63 5.32 -0.63 5.32 z" class="primitive"/>
            </g>
            <g transform="translate(71.71,74.45)">
              <path d="M-0.63,-5.87 L 0.63 -5.87 0.63 5.87 -0.63 5.87 z" class="primitive"/>
            </g>
            <g transform="translate(72.92,74.54)">
              <path d="M-0.63,-5.77 L 0.63 -5.77 0.63 5.77 -0.63 5.77 z" class="primitive"/>
            </g>
            <g transform="translate(74.14,73.63)">
              <path d="M-0.63,-6.69 L 0.63 -6.69 0.63 6.69 -0.63 6.69 z" class="primitive"/>
            </g>
            <g transform="translate(75.35,72.8)">
              <path d="M-0.63,-7.51 L 0.63 -7.51 0.63 7.51 -0.63 7.51 z" class="primitive"/>
            </g>
            <g transform="translate(76.57,73.72)">
              <path d="M-0.63,-6.6 L 0.63 -6.6 0.63 6.6 -0.63 6.6 z" class="primitive"/>
            </g>
            <g transform="translate(77.78,72.43)">
              <path d="M-0.63,-7.88 L 0.63 -7.88 0.63 7.88 -0.63 7.88 z" class="primitive"/>
            </g>
            <g transform="translate(79,72.34)">
              <path d="M-0.63,-7.97 L 0.63 -7.97 0.63 7.97 -0.63 7.97 z" class="primitive"/>
            </g>
            <g transform="translate(80.21,72.07)">
              <path d="M-0.63,-8.25 L 0.63 -8.25 0.63 8.25 -0.63 8.25 z" class="primitive"/>
            </g>
            <g transform="translate(81.43,71.43)">
              <path d="M-0.63,-8.89 L 0.63 -8.89 0.63 8.89 -0.63 8.89 z" class="primitive"/>
            </g>
            <g transform="translate(82.64,71.52)">
              <path d="M-0.63,-8.8 L 0.63 -8.8 0.63 8.8 -0.63 8.8 z" class="primitive"/>
            </g>
            <g transform="translate(83.86,70.23)">
              <path d="M-0.63,-10.08 L 0.63 -10.08 0.63 10.08 -0.63 10.08 z" class="primitive"/>
            </g>
            <g transform="translate(85.07,71.98)">
              <path d="M-0.63,-8.34 L 0.63 -8.34 0.63 8.34 -0.63 8.34 z" class="primitive"/>
            </g>
            <g transform="translate(86.28,72.53)">
              <path d="M-0.63,-7.79 L 0.63 -7.79 0.63 7.79 -0.63 7.79 z" class="primitive"/>
            </g>
            <g transform="translate(87.5,70.05)">
              <path d="M-0.63,-10.26 L 0.63 -10.26 0.63 10.26 -0.63 10.26 z" class="primitive"/>
            </g>
            <g transform="translate(88.71,72.53)">
              <path d="M-0.63,-7.79 L 0.63 -7.79 0.63 7.79 -0.63 7.79 z" class="primitive"/>
            </g>
            <g transform="translate(89.93,68.31)">
              <path d="M-0.63,-12.01 L 0.63 -12.01 0.63 12.01 -0.63 12.01 z" class="primitive"/>
            </g>
            <g transform="translate(91.14,68.31)">
              <path d="M-0.63,-12.01 L 0.63 -12.01 0.63 12.01 -0.63 12.01 z" class="primitive"/>
            </g>
            <g transform="translate(92.36,70.69)">
              <path d="M-0.63,-9.62 L 0.63 -9.62 0.63 9.62 -0.63 9.62 z" class="primitive"/>
            </g>
            <g transform="translate(93.57,69.96)">
              <path d="M-0.63,-10.36 L 0.63 -10.36 0.63 10.36 -0.63 10.36 z" class="primitive"/>
            </g>
            <g transform="translate(94.79,68.13)">
              <path d="M-0.63,-12.19 L 0.63 -12.19 0.63 12.19 -0.63 12.19 z" class="primitive"/>
            </g>
            <g transform="translate(96,69.96)">
              <path d="M-0.63,-10.36 L 0.63 -10.36 0.63 10.36 -0.63 10.36 z" class="primitive"/>
            </g>
            <g transform="translate(97.22,68.22)">
              <path d="M-0.63,-12.1 L 0.63 -12.1 0.63 12.1 -0.63 12.1 z" class="primitive"/>
            </g>
            <g transform="translate(98.43,67.39)">
              <path d="M-0.63,-12.92 L 0.63 -12.92 0.63 12.92 -0.63 12.92 z" class="primitive"/>
            </g>
            <g transform="translate(99.64,65.93)">
              <path d="M-0.63,-14.39 L 0.63 -14.39 0.63 14.39 -0.63 14.39 z" class="primitive"/>
            </g>
            <g transform="translate(100.86,69.96)">
              <path d="M-0.63,-10.36 L 0.63 -10.36 0.63 10.36 -0.63 10.36 z" class="primitive"/>
            </g>
            <g transform="translate(102.07,67.76)">
              <path d="M-0.63,-12.56 L 0.63 -12.56 0.63 12.56 -0.63 12.56 z" class="primitive"/>
            </g>
            <g transform="translate(103.29,68.68)">
              <path d="M-0.63,-11.64 L 0.63 -11.64 0.63 11.64 -0.63 11.64 z" class="primitive"/>
            </g>
            <g transform="translate(104.5,66.94)">
              <path d="M-0.63,-13.38 L 0.63 -13.38 0.63 13.38 -0.63 13.38 z" class="primitive"/>
            </g>
            <g transform="translate(105.72,66.84)">
              <path d="M-0.63,-13.47 L 0.63 -13.47 0.63 13.47 -0.63 13.47 z" class="primitive"/>
            </g>
            <g transform="translate(106.93,64.83)">
              <path d="M-0.63,-15.49 L 0.63 -15.49 0.63 15.49 -0.63 15.49 z" class="primitive"/>
            </g>
            <g transform="translate(108.15,68.13)">
              <path d="M-0.63,-12.19 L 0.63 -12.19 0.63 12.19 -0.63 12.19 z" class="primitive"/>
            </g>
            <g transform="translate(109.36,67.85)">
              <path d="M-0.63,-12.46 L 0.63 -12.46 0.63 12.46 -0.63 12.46 z" class="primitive"/>
            </g>
            <g transform="translate(110.58,65.65)">
              <path d="M-0.63,-14.66 L 0.63 -14.66 0.63 14.66 -0.63 14.66 z" class="primitive"/>
            </g>
            <g transform="translate(111.79,67.03)">
              <path d="M-0.63,-13.29 L 0.63 -13.29 0.63 13.29 -0.63 13.29 z" class="primitive"/>
            </g>
            <g transform="translate(113,68.03)">
              <path d="M-0.63,-12.28 L 0.63 -12.28 0.63 12.28 -0.63 12.28 z" class="primitive"/>
            </g>
            <g transform="translate(114.22,67.3)">
              <path d="M-0.63,-13.01 L 0.63 -13.01 0.63 13.01 -0.63 13.01 z" class="primitive"/>
            </g>
            <g transform="translate(115.43,65.65)">
              <path d="M-0.63,-14.66 L 0.63 -14.66 0.63 14.66 -0.63 14.66 z" class="primitive"/>
            </g>
            <g transform="translate(116.65,67.94)">
              <path d="M-0.63,-12.37 L 0.63 -12.37 0.63 12.37 -0.63 12.37 z" class="primitive"/>
            </g>
            <g transform="translate(117.86,65.01)">
              <path d="M-0.63,-15.3 L 0.63 -15.3 0.63 15.3 -0.63 15.3 z" class="primitive"/>
            </g>
            <g transform="translate(119.08,67.03)">
              <path d="M-0.63,-13.29 L 0.63 -13.29 0.63 13.29 -0.63 13.29 z" class="primitive"/>
            </g>
            <g transform="translate(120.29,67.94)">
              <path d="M-0.63,-12.37 L 0.63 -12.37 0.63 12.37 -0.63 12.37 z" class="primitive"/>
            </g>
            <g transform="translate(121.51,67.76)">
              <path d="M-0.63,-12.56 L 0.63 -12.56 0.63 12.56 -0.63 12.56 z" class="primitive"/>
            </g>
            <g transform="translate(122.72,68.49)">
              <path d="M-0.63,-11.82 L 0.63 -11.82 0.63 11.82 -0.63 11.82 z" class="primitive"/>
            </g>
            <g transform="translate(123.94,68.31)">
              <path d="M-0.63,-12.01 L 0.63 -12.01 0.63 12.01 -0.63 12.01 z" class="primitive"/>
            </g>
            <g transform="translate(125.15,68.22)">
              <path d="M-0.63,-12.1 L 0.63 -12.1 0.63 12.1 -0.63 12.1 z" class="primitive"/>
            </g>
            <g transform="translate(126.36,69.87)">
              <path d="M-0.63,-10.45 L 0.63 -10.45 0.63 10.45 -0.63 10.45 z" class="primitive"/>
            </g>
            <g transform="translate(127.58,68.68)">
              <path d="M-0.63,-11.64 L 0.63 -11.64 0.63 11.64 -0.63 11.64 z" class="primitive"/>
            </g>
            <g transform="translate(128.79,67.85)">
              <path d="M-0.63,-12.46 L 0.63 -12.46 0.63 12.46 -0.63 12.46 z" class="primitive"/>
            </g>
            <g transform="translate(130.01,69.41)">
              <path d="M-0.63,-10.91 L 0.63 -10.91 0.63 10.91 -0.63 10.91 z" class="primitive"/>
            </g>
            <g transform="translate(131.22,68.49)">
              <path d="M-0.63,-11.82 L 0.63 -11.82 0.63 11.82 -0.63 11.82 z" class="primitive"/>
            </g>
            <g transform="translate(132.44,69.32)">
              <path d="M-0.63,-11 L 0.63 -11 0.63 11 -0.63 11 z" class="primitive"/>
            </g>
            <g transform="translate(133.65,71.43)">
              <path d="M-0.63,-8.89 L 0.63 -8.89 0.63 8.89 -0.63 8.89 z" class="primitive"/>
            </g>
            <g transform="translate(134.87,71.15)">
              <path d="M-0.63,-9.16 L 0.63 -9.16 0.63 9.16 -0.63 9.16 z" class="primitive"/>
            </g>
            <g transform="translate(136.08,69.23)">
              <path d="M-0.63,-11.09 L 0.63 -11.09 0.63 11.09 -0.63 11.09 z" class="primitive"/>
            </g>
            <g transform="translate(137.3,71.06)">
              <path d="M-0.63,-9.26 L 0.63 -9.26 0.63 9.26 -0.63 9.26 z" class="primitive"/>
            </g>
            <g transform="translate(138.51,69.5)">
              <path d="M-0.63,-10.81 L 0.63 -10.81 0.63 10.81 -0.63 10.81 z" class="primitive"/>
            </g>
            <g transform="translate(139.72,71.24)">
              <path d="M-0.63,-9.07 L 0.63 -9.07 0.63 9.07 -0.63 9.07 z" class="primitive"/>
            </g>
            <g transform="translate(140.94,71.43)">
              <path d="M-0.63,-8.89 L 0.63 -8.89 0.63 8.89 -0.63 8.89 z" class="primitive"/>
            </g>
            <g transform="translate(142.15,71.61)">
              <path d="M-0.63,-8.71 L 0.63 -8.71 0.63 8.71 -0.63 8.71 z" class="primitive"/>
            </g>
            <g transform="translate(143.37,71.61)">
              <path d="M-0.63,-8.71 L 0.63 -8.71 0.63 8.71 -0.63 8.71 z" class="primitive"/>
            </g>
            <g transform="translate(144.58,71.43)">
              <path d="M-0.63,-8.89 L 0.63 -8.89 0.63 8.89 -0.63 8.89 z" class="primitive"/>
            </g>
            <g transform="translate(145.8,70.78)">
              <path d="M-0.63,-9.53 L 0.63 -9.53 0.63 9.53 -0.63 9.53 z" class="primitive"/>
            </g>
            <g transform="translate(147.01,73.63)">
              <path d="M-0.63,-6.69 L 0.63 -6.69 0.63 6.69 -0.63 6.69 z" class="primitive"/>
            </g>
            <g transform="translate(148.23,72.07)">
              <path d="M-0.63,-8.25 L 0.63 -8.25 0.63 8.25 -0.63 8.25 z" class="primitive"/>
            </g>
            <g transform="translate(149.44,72.62)">
              <path d="M-0.63,-7.7 L 0.63 -7.7 0.63 7.7 -0.63 7.7 z" class="primitive"/>
            </g>
            <g transform="translate(150.66,72.89)">
              <path d="M-0.63,-7.42 L 0.63 -7.42 0.63 7.42 -0.63 7.42 z" class="primitive"/>
            </g>
            <g transform="translate(151.87,73.63)">
              <path d="M-0.63,-6.69 L 0.63 -6.69 0.63 6.69 -0.63 6.69 z" class="primitive"/>
            </g>
            <g transform="translate(153.08,73.08)">
              <path d="M-0.63,-7.24 L 0.63 -7.24 0.63 7.24 -0.63 7.24 z" class="primitive"/>
            </g>
            <g transform="translate(154.3,73.63)">
              <path d="M-0.63,-6.69 L 0.63 -6.69 0.63 6.69 -0.63 6.69 z" class="primitive"/>
            </g>
            <g transform="translate(155.51,74.45)">
              <path d="M-0.63,-5.87 L 0.63 -5.87 0.63 5.87 -0.63 5.87 z" class="primitive"/>
            </g>
            <g transform="translate(156.73,73.72)">
              <path d="M-0.63,-6.6 L 0.63 -6.6 0.63 6.6 -0.63 6.6 z" class="primitive"/>
            </g>
            <g transform="translate(157.94,75.09)">
              <path d="M-0.63,-5.22 L 0.63 -5.22 0.63 5.22 -0.63 5.22 z" class="primitive"/>
            </g>
            <g transform="translate(159.16,75.09)">
              <path d="M-0.63,-5.22 L 0.63 -5.22 0.63 5.22 -0.63 5.22 z" class="primitive"/>
            </g>
            <g transform="translate(160.37,74.91)">
              <path d="M-0.63,-5.41 L 0.63 -5.41 0.63 5.41 -0.63 5.41 z" class="primitive"/>
            </g>
            <g transform="translate(161.59,75.92)">
              <path d="M-0.63,-4.4 L 0.63 -4.4 0.63 4.4 -0.63 4.4 z" class="primitive"/>
            </g>
            <g transform="translate(162.8,75.92)">
              <path d="M-0.63,-4.4 L 0.63 -4.4 0.63 4.4 -0.63 4.4 z" class="primitive"/>
            </g>
            <g transform="translate(164.01,74.72)">
              <path d="M-0.63,-5.59 L 0.63 -5.59 0.63 5.59 -0.63 5.59 z" class="primitive"/>
            </g>
            <g transform="translate(165.23,76.47)">
              <path d="M-0.63,-3.85 L 0.63 -3.85 0.63 3.85 -0.63 3.85 z" class="primitive"/>
            </g>
            <g transform="translate(166.44,75.82)">
              <path d="M-0.63,-4.49 L 0.63 -4.49 0.63 4.49 -0.63 4.49 z" class="primitive"/>
            </g>
            <g transform="translate(167.66,76.37)">
              <path d="M-0.63,-3.94 L 0.63 -3.94 0.63 3.94 -0.63 3.94 z" class="primitive"/>
            </g>
            <g transform="translate(168.87,76.74)">
              <path d="M-0.63,-3.57 L 0.63 -3.57 0.63 3.57 -0.63 3.57 z" class="primitive"/>
            </g>
            <g transform="translate(170.09,76.92)">
              <path d="M-0.63,-3.39 L 0.63 -3.39 0.63 3.39 -0.63 3.39 z" class="primitive"/>
            </g>
            <g transform="translate(171.3,76.01)">
              <path d="M-0.63,-4.31 L 0.63 -4.31 0.63 4.31 -0.63 4.31 z" class="primitive"/>
            </g>
            <g transform="translate(172.52,77.2)">
              <path d="M-0.63,-3.12 L 0.63 -3.12 0.63 3.12 -0.63 3.12 z" class="primitive"/>
            </g>
            <g transform="translate(173.73,76.92)">
              <path d="M-0.63,-3.39 L 0.63 -3.39 0.63 3.39 -0.63 3.39 z" class="primitive"/>
            </g>
            <g transform="translate(174.95,77.66)">
              <path d="M-0.63,-2.66 L 0.63 -2.66 0.63 2.66 -0.63 2.66 z" class="primitive"/>
            </g>
            <g transform="translate(176.16,76.28)">
              <path d="M-0.63,-4.03 L 0.63 -4.03 0.63 4.03 -0.63 4.03 z" class="primitive"/>
            </g>
            <g transform="translate(177.37,76.65)">
              <path d="M-0.63,-3.67 L 0.63 -3.67 0.63 3.67 -0.63 3.67 z" class="primitive"/>
            </g>
            <g transform="translate(178.59,77.93)">
              <path d="M-0.63,-2.38 L 0.63 -2.38 0.63 2.38 -0.63 2.38 z" class="primitive"/>
            </g>
            <g transform="translate(179.8,78.02)">
              <path d="M-0.63,-2.29 L 0.63 -2.29 0.63 2.29 -0.63 2.29 z" class="primitive"/>
            </g>
            <g transform="translate(181.02,78.57)">
              <path d="M-0.63,-1.74 L 0.63 -1.74 0.63 1.74 -0.63 1.74 z" class="primitive"/>
            </g>
            <g transform="translate(182.23,78.48)">
              <path d="M-0.63,-1.83 L 0.63 -1.83 0.63 1.83 -0.63 1.83 z" class="primitive"/>
            </g>
            <g transform="translate(183.45,77.84)">
              <path d="M-0.63,-2.47 L 0.63 -2.47 0.63 2.47 -0.63 2.47 z" class="primitive"/>
            </g>
            <g transform="translate(184.66,78.57)">
              <path d="M-0.63,-1.74 L 0.63 -1.74 0.63 1.74 -0.63 1.74 z" class="primitive"/>
            </g>
            <g transform="translate(185.88,79.03)">
              <path d="M-0.63,-1.28 L 0.63 -1.28 0.63 1.28 -0.63 1.28 z" class="primitive"/>
            </g>
            <g transform="translate(187.09,78.02)">
              <path d="M-0.63,-2.29 L 0.63 -2.29 0.63 2.29 -0.63 2.29 z" class="primitive"/>
            </g>
            <g transform="translate(188.31,78.57)">
              <path d="M-0.63,-1.74 L 0.63 -1.74 0.63 1.74 -0.63 1.74 z" class="primitive"/>
            </g>
            <g transform="translate(189.52,78.85)">
              <path d="M-0.63,-1.47 L 0.63 -1.47 0.63 1.47 -0.63 1.47 z" class="primitive"/>
            </g>
            <g transform="translate(190.73,79.03)">
              <path d="M-0.63,-1.28 L 0.63 -1.28 0.63 1.28 -0.63 1.28 z" class="primitive"/>
            </g>
            <g transform="translate(191.95,78.57)">
              <path d="M-0.63,-1.74 L 0.63 -1.74 0.63 1.74 -0.63 1.74 z" class="primitive"/>
            </g>
            <g transform="translate(193.16,79.12)">
              <path d="M-0.63,-1.19 L 0.63 -1.19 0.63 1.19 -0.63 1.19 z" class="primitive"/>
            </g>
            <g transform="translate(194.38,79.12)">
              <path d="M-0.63,-1.19 L 0.63 -1.19 0.63 1.19 -0.63 1.19 z" class="primitive"/>
            </g>
            <g transform="translate(195.59,50.62)">
              <path d="M-0.63,-29.69 L 0.63 -29.69 0.63 29.69 -0.63 29.69 z" class="primitive"/>
            </g>
          </g>
        </g>
      </g>
    </g>
  </g>
  <g class="guide ylabels" font-size="2.82" font-family="'PT Sans Caption','Helvetica Neue','Helvetica',sans-serif" fill="#6C606B" id="img-7352becb-12">
    <g transform="translate(11.02,80.32)">
      <g class="primitive">
        <text text-anchor="end" dy="0.35em">0</text>
      </g>
    </g>
    <g transform="translate(11.02,61.99)">
      <g class="primitive">
        <text text-anchor="end" dy="0.35em">100</text>
      </g>
    </g>
    <g transform="translate(11.02,43.66)">
      <g class="primitive">
        <text text-anchor="end" dy="0.35em">200</text>
      </g>
    </g>
    <g transform="translate(11.02,25.33)">
      <g class="primitive">
        <text text-anchor="end" dy="0.35em">300</text>
      </g>
    </g>
    <g transform="translate(11.02,7)">
      <g class="primitive">
        <text text-anchor="end" dy="0.35em">400</text>
      </g>
    </g>
  </g>
</g>
<defs>
  <clipPath id="img-7352becb-4">
    <path d="M12.02,5 L 198.2 5 198.2 82.32 12.02 82.32" />
  </clipPath>
</defs>
</svg>
