<?xml version="1.0" encoding="UTF-8"?>
<svg xmlns="http://www.w3.org/2000/svg"
     xmlns:xlink="http://www.w3.org/1999/xlink"
     xmlns:gadfly="http://www.gadflyjl.org/ns"
     version="1.2"
     width="177.8mm" height="101.6mm" viewBox="0 0 177.8 101.6"
     stroke="none"
     fill="#000000"
     stroke-width="0.3"
     font-size="3.88"
>
<defs>
  <marker id="arrow" markerWidth="15" markerHeight="7" refX="5" refY="3.5" orient="auto" markerUnits="strokeWidth">
    <path d="M0,0 L15,3.5 L0,7 z" stroke="context-stroke" fill="context-stroke"/>
  </marker>
</defs>
<g class="plotroot xscalable yscalable" id="img-5328fde5-1">
  <g font-size="3.88" font-family="'PT Sans','Helvetica Neue','Helvetica',sans-serif" fill="#564A55" stroke="#000000" stroke-opacity="0.000" id="img-5328fde5-2">
    <g transform="translate(93.58,89.99)">
      <g class="primitive">
        <text text-anchor="middle" dy="0.6em">Parametric bootstrap estimates of β₁</text>
      </g>
    </g>
  </g>
  <g class="guide xlabels" font-size="2.82" font-family="'PT Sans Caption','Helvetica Neue','Helvetica',sans-serif" fill="#6C606B" id="img-5328fde5-3">
    <g transform="translate(16.37,83.32)">
      <g class="primitive">
        <text text-anchor="middle" dy="0.6em">1400</text>
      </g>
    </g>
    <g transform="translate(54.97,83.32)">
      <g class="primitive">
        <text text-anchor="middle" dy="0.6em">1450</text>
      </g>
    </g>
    <g transform="translate(93.58,83.32)">
      <g class="primitive">
        <text text-anchor="middle" dy="0.6em">1500</text>
      </g>
    </g>
    <g transform="translate(132.19,83.32)">
      <g class="primitive">
        <text text-anchor="middle" dy="0.6em">1550</text>
      </g>
    </g>
    <g transform="translate(170.8,83.32)">
      <g class="primitive">
        <text text-anchor="middle" dy="0.6em">1600</text>
      </g>
    </g>
  </g>
  <g clip-path="url(#img-5328fde5-4)">
    <g id="img-5328fde5-5">
      <g pointer-events="visible" stroke-width="0.3" fill="#000000" fill-opacity="0.000" stroke="#000000" stroke-opacity="0.000" class="guide background" id="img-5328fde5-6">
        <g transform="translate(93.58,43.66)" id="img-5328fde5-7">
          <path d="M-79.22,-38.66 L 79.22 -38.66 79.22 38.66 -79.22 38.66 z" class="primitive"/>
        </g>
      </g>
      <g class="guide ygridlines xfixed" stroke-dasharray="0.5,0.5" stroke-width="0.2" stroke="#D0D0E0" id="img-5328fde5-8">
        <g transform="translate(93.58,80.32)" id="img-5328fde5-9">
          <path fill="none" d="M-79.22,0 L 79.22 0" class="primitive"/>
        </g>
        <g transform="translate(93.58,65.65)" id="img-5328fde5-10">
          <path fill="none" d="M-79.22,0 L 79.22 0" class="primitive"/>
        </g>
        <g transform="translate(93.58,50.99)" id="img-5328fde5-11">
          <path fill="none" d="M-79.22,0 L 79.22 0" class="primitive"/>
        </g>
        <g transform="translate(93.58,36.33)" id="img-5328fde5-12">
          <path fill="none" d="M-79.22,0 L 79.22 0" class="primitive"/>
        </g>
        <g transform="translate(93.58,21.66)" id="img-5328fde5-13">
          <path fill="none" d="M-79.22,0 L 79.22 0" class="primitive"/>
        </g>
        <g transform="translate(93.58,7)" id="img-5328fde5-14">
          <path fill="none" d="M-79.22,0 L 79.22 0" class="primitive"/>
        </g>
      </g>
      <g class="guide xgridlines yfixed" stroke-dasharray="0.5,0.5" stroke-width="0.2" stroke="#D0D0E0" id="img-5328fde5-15">
        <g transform="translate(16.37,43.66)" id="img-5328fde5-16">
          <path fill="none" d="M0,-38.66 L 0 38.66" class="primitive"/>
        </g>
        <g transform="translate(54.97,43.66)" id="img-5328fde5-17">
          <path fill="none" d="M0,-38.66 L 0 38.66" class="primitive"/>
        </g>
        <g transform="translate(93.58,43.66)" id="img-5328fde5-18">
          <path fill="none" d="M0,-38.66 L 0 38.66" class="primitive"/>
        </g>
        <g transform="translate(132.19,43.66)" id="img-5328fde5-19">
          <path fill="none" d="M0,-38.66 L 0 38.66" class="primitive"/>
        </g>
        <g transform="translate(170.8,43.66)" id="img-5328fde5-20">
          <path fill="none" d="M0,-38.66 L 0 38.66" class="primitive"/>
        </g>
      </g>
      <g class="plotpanel" id="img-5328fde5-21">
        <metadata>
          <boundingbox value="14.366666666666674mm 5.0mm 158.4333333333333mm 77.315mm"/>
          <unitbox value="1397.4098856032808 0.02568198867898793 205.18022879343837 -0.02636397735797586"/>
        </metadata>
        <g stroke-width="0.3" fill="#000000" fill-opacity="0.000" class="geometry" id="img-5328fde5-22">
          <g class="color_LCHab{Float32}(70.0f0,60.0f0,240.0f0)" stroke-dasharray="none" stroke="#00BFFF" id="img-5328fde5-23">
            <g transform="translate(107.81,61.93)" id="img-5328fde5-24">
              <path fill="none" d="M-61.36,18.38 L -60.87 18.38 -60.39 18.38 -59.91 18.38 -59.43 18.38 -58.95 18.38 -58.47 18.38 -57.99 18.38 -57.51 18.38 -57.03 18.37 -56.54 18.37 -56.06 18.36 -55.58 18.35 -55.1 18.35 -54.62 18.34 -54.14 18.34 -53.66 18.34 -53.18 18.34 -52.69 18.34 -52.21 18.35 -51.73 18.35 -51.25 18.36 -50.77 18.36 -50.29 18.37 -49.81 18.37 -49.33 18.37 -48.84 18.37 -48.36 18.37 -47.88 18.37 -47.4 18.36 -46.92 18.34 -46.44 18.33 -45.96 18.31 -45.48 18.29 -44.99 18.27 -44.51 18.25 -44.03 18.24 -43.55 18.23 -43.07 18.23 -42.59 18.24 -42.11 18.24 -41.63 18.24 -41.14 18.23 -40.66 18.22 -40.18 18.21 -39.7 18.19 -39.22 18.16 -38.74 18.14 -38.26 18.12 -37.78 18.1 -37.29 18.08 -36.81 18.05 -36.33 18.01 -35.85 17.95 -35.37 17.88 -34.89 17.8 -34.41 17.71 -33.93 17.61 -33.45 17.52 -32.96 17.43 -32.48 17.34 -32 17.26 -31.52 17.16 -31.04 17.05 -30.56 16.91 -30.08 16.75 -29.6 16.55 -29.11 16.31 -28.63 16.05 -28.15 15.77 -27.67 15.48 -27.19 15.17 -26.71 14.87 -26.23 14.56 -25.75 14.26 -25.26 13.95 -24.78 13.64 -24.3 13.31 -23.82 12.97 -23.34 12.6 -22.86 12.22 -22.38 11.81 -21.9 11.38 -21.41 10.92 -20.93 10.42 -20.45 9.86 -19.97 9.24 -19.49 8.53 -19.01 7.75 -18.53 6.9 -18.05 6.02 -17.56 5.11 -17.08 4.21 -16.6 3.32 -16.12 2.45 -15.64 1.58 -15.16 0.69 -14.68 -0.24 -14.2 -1.24 -13.71 -2.3 -13.23 -3.45 -12.75 -4.69 -12.27 -6 -11.79 -7.39 -11.31 -8.85 -10.83 -10.37 -10.35 -11.96 -9.87 -13.6 -9.38 -15.26 -8.9 -16.93 -8.42 -18.57 -7.94 -20.13 -7.46 -21.59 -6.98 -22.94 -6.5 -24.17 -6.02 -25.28 -5.53 -26.32 -5.05 -27.29 -4.57 -28.23 -4.09 -29.17 -3.61 -30.11 -3.13 -31.07 -2.65 -32.05 -2.17 -33.06 -1.68 -34.07 -1.2 -35.1 -0.72 -36.12 -0.24 -37.13 0.24 -38.14 0.72 -39.15 1.2 -40.16 1.68 -41.18 2.17 -42.2 2.65 -43.2 3.13 -44.16 3.61 -45.06 4.09 -45.86 4.57 -46.56 5.05 -47.15 5.53 -47.63 6.02 -48.01 6.5 -48.3 6.98 -48.5 7.46 -48.59 7.94 -48.57 8.42 -48.41 8.9 -48.1 9.38 -47.62 9.87 -46.99 10.35 -46.22 10.83 -45.35 11.31 -44.42 11.79 -43.45 12.27 -42.48 12.75 -41.51 13.23 -40.53 13.71 -39.53 14.2 -38.49 14.68 -37.39 15.16 -36.22 15.64 -35.01 16.12 -33.74 16.6 -32.42 17.08 -31.05 17.56 -29.64 18.05 -28.17 18.53 -26.65 19.01 -25.1 19.49 -23.56 19.97 -22.05 20.45 -20.61 20.93 -19.27 21.41 -18.03 21.9 -16.88 22.38 -15.79 22.86 -14.72 23.34 -13.65 23.82 -12.55 24.3 -11.43 24.78 -10.28 25.26 -9.11 25.75 -7.93 26.23 -6.76 26.71 -5.61 27.19 -4.47 27.67 -3.34 28.15 -2.23 28.63 -1.13 29.11 -0.06 29.6 0.99 30.08 2 30.56 2.97 31.04 3.88 31.52 4.74 32 5.54 32.48 6.29 32.96 7 33.45 7.68 33.93 8.32 34.41 8.95 34.89 9.55 35.37 10.14 35.85 10.72 36.33 11.28 36.81 11.82 37.29 12.34 37.78 12.84 38.26 13.32 38.74 13.76 39.22 14.18 39.7 14.55 40.18 14.89 40.66 15.19 41.14 15.46 41.63 15.69 42.11 15.89 42.59 16.06 43.07 16.22 43.55 16.37 44.03 16.51 44.51 16.65 44.99 16.78 45.48 16.91 45.96 17.03 46.44 17.15 46.92 17.26 47.4 17.37 47.88 17.48 48.36 17.58 48.84 17.68 49.33 17.77 49.81 17.85 50.29 17.92 50.77 17.99 51.25 18.04 51.73 18.09 52.21 18.13 52.69 18.17 53.18 18.2 53.66 18.23 54.14 18.26 54.62 18.29 55.1 18.31 55.58 18.33 56.06 18.35 56.54 18.36 57.03 18.37 57.51 18.37 57.99 18.38 58.47 18.38 58.95 18.38 59.43 18.38 59.91 18.38 60.39 18.38 60.87 18.38 61.36 18.38" class="primitive"/>
            </g>
          </g>
        </g>
      </g>
    </g>
  </g>
  <g class="guide ylabels" font-size="2.82" font-family="'PT Sans Caption','Helvetica Neue','Helvetica',sans-serif" fill="#6C606B" id="img-5328fde5-25">
    <g transform="translate(13.37,80.32)" id="img-5328fde5-26">
      <g class="primitive">
        <text text-anchor="end" dy="0.35em">0.000</text>
      </g>
    </g>
    <g transform="translate(13.37,65.65)" id="img-5328fde5-27">
      <g class="primitive">
        <text text-anchor="end" dy="0.35em">0.005</text>
      </g>
    </g>
    <g transform="translate(13.37,50.99)" id="img-5328fde5-28">
      <g class="primitive">
        <text text-anchor="end" dy="0.35em">0.010</text>
      </g>
    </g>
    <g transform="translate(13.37,36.33)" id="img-5328fde5-29">
      <g class="primitive">
        <text text-anchor="end" dy="0.35em">0.015</text>
      </g>
    </g>
    <g transform="translate(13.37,21.66)" id="img-5328fde5-30">
      <g class="primitive">
        <text text-anchor="end" dy="0.35em">0.020</text>
      </g>
    </g>
    <g transform="translate(13.37,7)" id="img-5328fde5-31">
      <g class="primitive">
        <text text-anchor="end" dy="0.35em">0.025</text>
      </g>
    </g>
  </g>
</g>
<defs>
  <clipPath id="img-5328fde5-4">
    <path d="M14.37,5 L 172.8 5 172.8 82.32 14.37 82.32" />
  </clipPath>
</defs>
</svg>
