<?xml version="1.0" encoding="UTF-8"?>
<svg xmlns="http://www.w3.org/2000/svg"
     xmlns:xlink="http://www.w3.org/1999/xlink"
     xmlns:gadfly="http://www.gadflyjl.org/ns"
     version="1.2"
     width="177.8mm" height="101.6mm" viewBox="0 0 177.8 101.6"
     stroke="none"
     fill="#000000"
     stroke-width="0.3"
     font-size="3.88"
>
<defs>
  <marker id="arrow" markerWidth="15" markerHeight="7" refX="5" refY="3.5" orient="auto" markerUnits="strokeWidth">
    <path d="M0,0 L15,3.5 L0,7 z" stroke="context-stroke" fill="context-stroke"/>
  </marker>
</defs>
<g class="plotroot xscalable yscalable" id="img-88b9ee75-1">
  <g font-size="3.88" font-family="'PT Sans','Helvetica Neue','Helvetica',sans-serif" fill="#564A55" stroke="#000000" stroke-opacity="0.000" id="img-88b9ee75-2">
    <g transform="translate(93.25,89.99)">
      <g class="primitive">
        <text text-anchor="middle" dy="0.6em">Parametric bootstrap estimates of σ₁</text>
      </g>
    </g>
  </g>
  <g class="guide xlabels" font-size="2.82" font-family="'PT Sans Caption','Helvetica Neue','Helvetica',sans-serif" fill="#6C606B" id="img-88b9ee75-3">
    <g transform="translate(15.69,83.32)">
      <g class="primitive">
        <text text-anchor="middle" dy="0.6em">0</text>
      </g>
    </g>
    <g transform="translate(93.25,83.32)">
      <g class="primitive">
        <text text-anchor="middle" dy="0.6em">50</text>
      </g>
    </g>
    <g transform="translate(170.8,83.32)">
      <g class="primitive">
        <text text-anchor="middle" dy="0.6em">100</text>
      </g>
    </g>
  </g>
  <g clip-path="url(#img-88b9ee75-4)">
    <g id="img-88b9ee75-5">
      <g pointer-events="visible" stroke-width="0.3" fill="#000000" fill-opacity="0.000" stroke="#000000" stroke-opacity="0.000" class="guide background" id="img-88b9ee75-6">
        <g transform="translate(93.25,43.66)" id="img-88b9ee75-7">
          <path d="M-79.55,-38.66 L 79.55 -38.66 79.55 38.66 -79.55 38.66 z" class="primitive"/>
        </g>
      </g>
      <g class="guide ygridlines xfixed" stroke-dasharray="0.5,0.5" stroke-width="0.2" stroke="#D0D0E0" id="img-88b9ee75-8">
        <g transform="translate(93.25,80.31)" id="img-88b9ee75-9">
          <path fill="none" d="M-79.55,0 L 79.55 0" class="primitive"/>
        </g>
        <g transform="translate(93.25,55.88)" id="img-88b9ee75-10">
          <path fill="none" d="M-79.55,0 L 79.55 0" class="primitive"/>
        </g>
        <g transform="translate(93.25,31.44)" id="img-88b9ee75-11">
          <path fill="none" d="M-79.55,0 L 79.55 0" class="primitive"/>
        </g>
        <g transform="translate(93.25,7)" id="img-88b9ee75-12">
          <path fill="none" d="M-79.55,0 L 79.55 0" class="primitive"/>
        </g>
      </g>
      <g class="guide xgridlines yfixed" stroke-dasharray="0.5,0.5" stroke-width="0.2" stroke="#D0D0E0" id="img-88b9ee75-13">
        <g transform="translate(15.69,43.66)" id="img-88b9ee75-14">
          <path fill="none" d="M0,-38.66 L 0 38.66" class="primitive"/>
        </g>
        <g transform="translate(93.25,43.66)" id="img-88b9ee75-15">
          <path fill="none" d="M0,-38.66 L 0 38.66" class="primitive"/>
        </g>
        <g transform="translate(170.8,43.66)" id="img-88b9ee75-16">
          <path fill="none" d="M0,-38.66 L 0 38.66" class="primitive"/>
        </g>
      </g>
      <g class="plotpanel" id="img-88b9ee75-17">
        <metadata>
          <boundingbox value="13.693333333333328mm 5.0mm 159.10666666666665mm 77.315mm"/>
          <unitbox value="-1.2894352273704122 1540.9193207392757 102.57887045474084 -1581.8386414785516"/>
        </metadata>
        <g shape-rendering="crispEdges" stroke-width="0.3" id="img-88b9ee75-18">
          <g class="geometry" fill-opacity="1" stroke="#000000" stroke-opacity="0.000" fill="#00BFFF" id="img-88b9ee75-19">
            <g transform="translate(16.18,55.63)" id="img-88b9ee75-20">
              <path d="M-0.51,-24.68 L 0.51 -24.68 0.51 24.68 -0.51 24.68 z" class="primitive"/>
            </g>
            <g transform="translate(17.14,80.32)" id="img-88b9ee75-21">
              <path d="M-0.51,-0 L 0.51 -0 0.51 0 -0.51 0 z" class="primitive"/>
            </g>
            <g transform="translate(18.11,80.24)" id="img-88b9ee75-22">
              <path d="M-0.51,-0.07 L 0.51 -0.07 0.51 0.07 -0.51 0.07 z" class="primitive"/>
            </g>
            <g transform="translate(19.07,80.12)" id="img-88b9ee75-23">
              <path d="M-0.51,-0.2 L 0.51 -0.2 0.51 0.2 -0.51 0.2 z" class="primitive"/>
            </g>
            <g transform="translate(20.04,79.97)" id="img-88b9ee75-24">
              <path d="M-0.51,-0.34 L 0.51 -0.34 0.51 0.34 -0.51 0.34 z" class="primitive"/>
            </g>
            <g transform="translate(21,79.73)" id="img-88b9ee75-25">
              <path d="M-0.51,-0.59 L 0.51 -0.59 0.51 0.59 -0.51 0.59 z" class="primitive"/>
            </g>
            <g transform="translate(21.97,79.73)" id="img-88b9ee75-26">
              <path d="M-0.51,-0.59 L 0.51 -0.59 0.51 0.59 -0.51 0.59 z" class="primitive"/>
            </g>
            <g transform="translate(22.93,79.78)" id="img-88b9ee75-27">
              <path d="M-0.51,-0.54 L 0.51 -0.54 0.51 0.54 -0.51 0.54 z" class="primitive"/>
            </g>
            <g transform="translate(23.9,79.68)" id="img-88b9ee75-28">
              <path d="M-0.51,-0.64 L 0.51 -0.64 0.51 0.64 -0.51 0.64 z" class="primitive"/>
            </g>
            <g transform="translate(24.87,79.53)" id="img-88b9ee75-29">
              <path d="M-0.51,-0.78 L 0.51 -0.78 0.51 0.78 -0.51 0.78 z" class="primitive"/>
            </g>
            <g transform="translate(25.83,79.85)" id="img-88b9ee75-30">
              <path d="M-0.51,-0.46 L 0.51 -0.46 0.51 0.46 -0.51 0.46 z" class="primitive"/>
            </g>
            <g transform="translate(26.8,79.53)" id="img-88b9ee75-31">
              <path d="M-0.51,-0.78 L 0.51 -0.78 0.51 0.78 -0.51 0.78 z" class="primitive"/>
            </g>
            <g transform="translate(27.76,79.17)" id="img-88b9ee75-32">
              <path d="M-0.51,-1.15 L 0.51 -1.15 0.51 1.15 -0.51 1.15 z" class="primitive"/>
            </g>
            <g transform="translate(28.73,79.22)" id="img-88b9ee75-33">
              <path d="M-0.51,-1.1 L 0.51 -1.1 0.51 1.1 -0.51 1.1 z" class="primitive"/>
            </g>
            <g transform="translate(29.69,79.04)" id="img-88b9ee75-34">
              <path d="M-0.51,-1.27 L 0.51 -1.27 0.51 1.27 -0.51 1.27 z" class="primitive"/>
            </g>
            <g transform="translate(30.66,79.17)" id="img-88b9ee75-35">
              <path d="M-0.51,-1.15 L 0.51 -1.15 0.51 1.15 -0.51 1.15 z" class="primitive"/>
            </g>
            <g transform="translate(31.62,79.34)" id="img-88b9ee75-36">
              <path d="M-0.51,-0.98 L 0.51 -0.98 0.51 0.98 -0.51 0.98 z" class="primitive"/>
            </g>
            <g transform="translate(32.59,78.78)" id="img-88b9ee75-37">
              <path d="M-0.51,-1.54 L 0.51 -1.54 0.51 1.54 -0.51 1.54 z" class="primitive"/>
            </g>
            <g transform="translate(33.56,78.87)" id="img-88b9ee75-38">
              <path d="M-0.51,-1.44 L 0.51 -1.44 0.51 1.44 -0.51 1.44 z" class="primitive"/>
            </g>
            <g transform="translate(34.52,78.82)" id="img-88b9ee75-39">
              <path d="M-0.51,-1.49 L 0.51 -1.49 0.51 1.49 -0.51 1.49 z" class="primitive"/>
            </g>
            <g transform="translate(35.49,78.85)" id="img-88b9ee75-40">
              <path d="M-0.51,-1.47 L 0.51 -1.47 0.51 1.47 -0.51 1.47 z" class="primitive"/>
            </g>
            <g transform="translate(36.45,78.6)" id="img-88b9ee75-41">
              <path d="M-0.51,-1.71 L 0.51 -1.71 0.51 1.71 -0.51 1.71 z" class="primitive"/>
            </g>
            <g transform="translate(37.42,78.48)" id="img-88b9ee75-42">
              <path d="M-0.51,-1.83 L 0.51 -1.83 0.51 1.83 -0.51 1.83 z" class="primitive"/>
            </g>
            <g transform="translate(38.38,78.14)" id="img-88b9ee75-43">
              <path d="M-0.51,-2.18 L 0.51 -2.18 0.51 2.18 -0.51 2.18 z" class="primitive"/>
            </g>
            <g transform="translate(39.35,78.29)" id="img-88b9ee75-44">
              <path d="M-0.51,-2.03 L 0.51 -2.03 0.51 2.03 -0.51 2.03 z" class="primitive"/>
            </g>
            <g transform="translate(40.31,78.07)" id="img-88b9ee75-45">
              <path d="M-0.51,-2.25 L 0.51 -2.25 0.51 2.25 -0.51 2.25 z" class="primitive"/>
            </g>
            <g transform="translate(41.28,77.8)" id="img-88b9ee75-46">
              <path d="M-0.51,-2.52 L 0.51 -2.52 0.51 2.52 -0.51 2.52 z" class="primitive"/>
            </g>
            <g transform="translate(42.25,77.43)" id="img-88b9ee75-47">
              <path d="M-0.51,-2.88 L 0.51 -2.88 0.51 2.88 -0.51 2.88 z" class="primitive"/>
            </g>
            <g transform="translate(43.21,77.75)" id="img-88b9ee75-48">
              <path d="M-0.51,-2.57 L 0.51 -2.57 0.51 2.57 -0.51 2.57 z" class="primitive"/>
            </g>
            <g transform="translate(44.18,77.97)" id="img-88b9ee75-49">
              <path d="M-0.51,-2.35 L 0.51 -2.35 0.51 2.35 -0.51 2.35 z" class="primitive"/>
            </g>
            <g transform="translate(45.14,77.24)" id="img-88b9ee75-50">
              <path d="M-0.51,-3.08 L 0.51 -3.08 0.51 3.08 -0.51 3.08 z" class="primitive"/>
            </g>
            <g transform="translate(46.11,77.38)" id="img-88b9ee75-51">
              <path d="M-0.51,-2.93 L 0.51 -2.93 0.51 2.93 -0.51 2.93 z" class="primitive"/>
            </g>
            <g transform="translate(47.07,77.33)" id="img-88b9ee75-52">
              <path d="M-0.51,-2.98 L 0.51 -2.98 0.51 2.98 -0.51 2.98 z" class="primitive"/>
            </g>
            <g transform="translate(48.04,77.41)" id="img-88b9ee75-53">
              <path d="M-0.51,-2.91 L 0.51 -2.91 0.51 2.91 -0.51 2.91 z" class="primitive"/>
            </g>
            <g transform="translate(49,77.11)" id="img-88b9ee75-54">
              <path d="M-0.51,-3.2 L 0.51 -3.2 0.51 3.2 -0.51 3.2 z" class="primitive"/>
            </g>
            <g transform="translate(49.97,76.72)" id="img-88b9ee75-55">
              <path d="M-0.51,-3.59 L 0.51 -3.59 0.51 3.59 -0.51 3.59 z" class="primitive"/>
            </g>
            <g transform="translate(50.94,77.28)" id="img-88b9ee75-56">
              <path d="M-0.51,-3.03 L 0.51 -3.03 0.51 3.03 -0.51 3.03 z" class="primitive"/>
            </g>
            <g transform="translate(51.9,77.33)" id="img-88b9ee75-57">
              <path d="M-0.51,-2.98 L 0.51 -2.98 0.51 2.98 -0.51 2.98 z" class="primitive"/>
            </g>
            <g transform="translate(52.87,76.89)" id="img-88b9ee75-58">
              <path d="M-0.51,-3.42 L 0.51 -3.42 0.51 3.42 -0.51 3.42 z" class="primitive"/>
            </g>
            <g transform="translate(53.83,77.04)" id="img-88b9ee75-59">
              <path d="M-0.51,-3.27 L 0.51 -3.27 0.51 3.27 -0.51 3.27 z" class="primitive"/>
            </g>
            <g transform="translate(54.8,76.67)" id="img-88b9ee75-60">
              <path d="M-0.51,-3.64 L 0.51 -3.64 0.51 3.64 -0.51 3.64 z" class="primitive"/>
            </g>
            <g transform="translate(55.76,76.8)" id="img-88b9ee75-61">
              <path d="M-0.51,-3.52 L 0.51 -3.52 0.51 3.52 -0.51 3.52 z" class="primitive"/>
            </g>
            <g transform="translate(56.73,76.45)" id="img-88b9ee75-62">
              <path d="M-0.51,-3.86 L 0.51 -3.86 0.51 3.86 -0.51 3.86 z" class="primitive"/>
            </g>
            <g transform="translate(57.69,76.89)" id="img-88b9ee75-63">
              <path d="M-0.51,-3.42 L 0.51 -3.42 0.51 3.42 -0.51 3.42 z" class="primitive"/>
            </g>
            <g transform="translate(58.66,76.55)" id="img-88b9ee75-64">
              <path d="M-0.51,-3.76 L 0.51 -3.76 0.51 3.76 -0.51 3.76 z" class="primitive"/>
            </g>
            <g transform="translate(59.63,75.99)" id="img-88b9ee75-65">
              <path d="M-0.51,-4.33 L 0.51 -4.33 0.51 4.33 -0.51 4.33 z" class="primitive"/>
            </g>
            <g transform="translate(60.59,77.02)" id="img-88b9ee75-66">
              <path d="M-0.51,-3.3 L 0.51 -3.3 0.51 3.3 -0.51 3.3 z" class="primitive"/>
            </g>
            <g transform="translate(61.56,75.87)" id="img-88b9ee75-67">
              <path d="M-0.51,-4.45 L 0.51 -4.45 0.51 4.45 -0.51 4.45 z" class="primitive"/>
            </g>
            <g transform="translate(62.52,76.38)" id="img-88b9ee75-68">
              <path d="M-0.51,-3.93 L 0.51 -3.93 0.51 3.93 -0.51 3.93 z" class="primitive"/>
            </g>
            <g transform="translate(63.49,77.02)" id="img-88b9ee75-69">
              <path d="M-0.51,-3.3 L 0.51 -3.3 0.51 3.3 -0.51 3.3 z" class="primitive"/>
            </g>
            <g transform="translate(64.45,76.6)" id="img-88b9ee75-70">
              <path d="M-0.51,-3.71 L 0.51 -3.71 0.51 3.71 -0.51 3.71 z" class="primitive"/>
            </g>
            <g transform="translate(65.42,76.28)" id="img-88b9ee75-71">
              <path d="M-0.51,-4.03 L 0.51 -4.03 0.51 4.03 -0.51 4.03 z" class="primitive"/>
            </g>
            <g transform="translate(66.38,76.28)" id="img-88b9ee75-72">
              <path d="M-0.51,-4.03 L 0.51 -4.03 0.51 4.03 -0.51 4.03 z" class="primitive"/>
            </g>
            <g transform="translate(67.35,76.8)" id="img-88b9ee75-73">
              <path d="M-0.51,-3.52 L 0.51 -3.52 0.51 3.52 -0.51 3.52 z" class="primitive"/>
            </g>
            <g transform="translate(68.32,76.94)" id="img-88b9ee75-74">
              <path d="M-0.51,-3.37 L 0.51 -3.37 0.51 3.37 -0.51 3.37 z" class="primitive"/>
            </g>
            <g transform="translate(69.28,76.43)" id="img-88b9ee75-75">
              <path d="M-0.51,-3.89 L 0.51 -3.89 0.51 3.89 -0.51 3.89 z" class="primitive"/>
            </g>
            <g transform="translate(70.25,76.7)" id="img-88b9ee75-76">
              <path d="M-0.51,-3.62 L 0.51 -3.62 0.51 3.62 -0.51 3.62 z" class="primitive"/>
            </g>
            <g transform="translate(71.21,76.48)" id="img-88b9ee75-77">
              <path d="M-0.51,-3.84 L 0.51 -3.84 0.51 3.84 -0.51 3.84 z" class="primitive"/>
            </g>
            <g transform="translate(72.18,76.72)" id="img-88b9ee75-78">
              <path d="M-0.51,-3.59 L 0.51 -3.59 0.51 3.59 -0.51 3.59 z" class="primitive"/>
            </g>
            <g transform="translate(73.14,76.33)" id="img-88b9ee75-79">
              <path d="M-0.51,-3.98 L 0.51 -3.98 0.51 3.98 -0.51 3.98 z" class="primitive"/>
            </g>
            <g transform="translate(74.11,76.87)" id="img-88b9ee75-80">
              <path d="M-0.51,-3.45 L 0.51 -3.45 0.51 3.45 -0.51 3.45 z" class="primitive"/>
            </g>
            <g transform="translate(75.07,76.82)" id="img-88b9ee75-81">
              <path d="M-0.51,-3.49 L 0.51 -3.49 0.51 3.49 -0.51 3.49 z" class="primitive"/>
            </g>
            <g transform="translate(76.04,76.65)" id="img-88b9ee75-82">
              <path d="M-0.51,-3.67 L 0.51 -3.67 0.51 3.67 -0.51 3.67 z" class="primitive"/>
            </g>
            <g transform="translate(77.01,76.97)" id="img-88b9ee75-83">
              <path d="M-0.51,-3.35 L 0.51 -3.35 0.51 3.35 -0.51 3.35 z" class="primitive"/>
            </g>
            <g transform="translate(77.97,76.99)" id="img-88b9ee75-84">
              <path d="M-0.51,-3.32 L 0.51 -3.32 0.51 3.32 -0.51 3.32 z" class="primitive"/>
            </g>
            <g transform="translate(78.94,76.87)" id="img-88b9ee75-85">
              <path d="M-0.51,-3.45 L 0.51 -3.45 0.51 3.45 -0.51 3.45 z" class="primitive"/>
            </g>
            <g transform="translate(79.9,77.33)" id="img-88b9ee75-86">
              <path d="M-0.51,-2.98 L 0.51 -2.98 0.51 2.98 -0.51 2.98 z" class="primitive"/>
            </g>
            <g transform="translate(80.87,77.77)" id="img-88b9ee75-87">
              <path d="M-0.51,-2.54 L 0.51 -2.54 0.51 2.54 -0.51 2.54 z" class="primitive"/>
            </g>
            <g transform="translate(81.83,77.63)" id="img-88b9ee75-88">
              <path d="M-0.51,-2.69 L 0.51 -2.69 0.51 2.69 -0.51 2.69 z" class="primitive"/>
            </g>
            <g transform="translate(82.8,77.94)" id="img-88b9ee75-89">
              <path d="M-0.51,-2.37 L 0.51 -2.37 0.51 2.37 -0.51 2.37 z" class="primitive"/>
            </g>
            <g transform="translate(83.76,77.58)" id="img-88b9ee75-90">
              <path d="M-0.51,-2.74 L 0.51 -2.74 0.51 2.74 -0.51 2.74 z" class="primitive"/>
            </g>
            <g transform="translate(84.73,77.55)" id="img-88b9ee75-91">
              <path d="M-0.51,-2.76 L 0.51 -2.76 0.51 2.76 -0.51 2.76 z" class="primitive"/>
            </g>
            <g transform="translate(85.7,77.82)" id="img-88b9ee75-92">
              <path d="M-0.51,-2.49 L 0.51 -2.49 0.51 2.49 -0.51 2.49 z" class="primitive"/>
            </g>
            <g transform="translate(86.66,77.75)" id="img-88b9ee75-93">
              <path d="M-0.51,-2.57 L 0.51 -2.57 0.51 2.57 -0.51 2.57 z" class="primitive"/>
            </g>
            <g transform="translate(87.63,78.43)" id="img-88b9ee75-94">
              <path d="M-0.51,-1.88 L 0.51 -1.88 0.51 1.88 -0.51 1.88 z" class="primitive"/>
            </g>
            <g transform="translate(88.59,78.21)" id="img-88b9ee75-95">
              <path d="M-0.51,-2.1 L 0.51 -2.1 0.51 2.1 -0.51 2.1 z" class="primitive"/>
            </g>
            <g transform="translate(89.56,78.53)" id="img-88b9ee75-96">
              <path d="M-0.51,-1.78 L 0.51 -1.78 0.51 1.78 -0.51 1.78 z" class="primitive"/>
            </g>
            <g transform="translate(90.52,78.36)" id="img-88b9ee75-97">
              <path d="M-0.51,-1.96 L 0.51 -1.96 0.51 1.96 -0.51 1.96 z" class="primitive"/>
            </g>
            <g transform="translate(91.49,78.65)" id="img-88b9ee75-98">
              <path d="M-0.51,-1.66 L 0.51 -1.66 0.51 1.66 -0.51 1.66 z" class="primitive"/>
            </g>
            <g transform="translate(92.45,78.26)" id="img-88b9ee75-99">
              <path d="M-0.51,-2.05 L 0.51 -2.05 0.51 2.05 -0.51 2.05 z" class="primitive"/>
            </g>
            <g transform="translate(93.42,78.68)" id="img-88b9ee75-100">
              <path d="M-0.51,-1.64 L 0.51 -1.64 0.51 1.64 -0.51 1.64 z" class="primitive"/>
            </g>
            <g transform="translate(94.39,78.7)" id="img-88b9ee75-101">
              <path d="M-0.51,-1.61 L 0.51 -1.61 0.51 1.61 -0.51 1.61 z" class="primitive"/>
            </g>
            <g transform="translate(95.35,79.09)" id="img-88b9ee75-102">
              <path d="M-0.51,-1.22 L 0.51 -1.22 0.51 1.22 -0.51 1.22 z" class="primitive"/>
            </g>
            <g transform="translate(96.32,79.07)" id="img-88b9ee75-103">
              <path d="M-0.51,-1.25 L 0.51 -1.25 0.51 1.25 -0.51 1.25 z" class="primitive"/>
            </g>
            <g transform="translate(97.28,79.12)" id="img-88b9ee75-104">
              <path d="M-0.51,-1.2 L 0.51 -1.2 0.51 1.2 -0.51 1.2 z" class="primitive"/>
            </g>
            <g transform="translate(98.25,79.14)" id="img-88b9ee75-105">
              <path d="M-0.51,-1.17 L 0.51 -1.17 0.51 1.17 -0.51 1.17 z" class="primitive"/>
            </g>
            <g transform="translate(99.21,79.34)" id="img-88b9ee75-106">
              <path d="M-0.51,-0.98 L 0.51 -0.98 0.51 0.98 -0.51 0.98 z" class="primitive"/>
            </g>
            <g transform="translate(100.18,79.41)" id="img-88b9ee75-107">
              <path d="M-0.51,-0.9 L 0.51 -0.9 0.51 0.9 -0.51 0.9 z" class="primitive"/>
            </g>
            <g transform="translate(101.14,79.46)" id="img-88b9ee75-108">
              <path d="M-0.51,-0.86 L 0.51 -0.86 0.51 0.86 -0.51 0.86 z" class="primitive"/>
            </g>
            <g transform="translate(102.11,79.34)" id="img-88b9ee75-109">
              <path d="M-0.51,-0.98 L 0.51 -0.98 0.51 0.98 -0.51 0.98 z" class="primitive"/>
            </g>
            <g transform="translate(103.08,79.19)" id="img-88b9ee75-110">
              <path d="M-0.51,-1.12 L 0.51 -1.12 0.51 1.12 -0.51 1.12 z" class="primitive"/>
            </g>
            <g transform="translate(104.04,79.36)" id="img-88b9ee75-111">
              <path d="M-0.51,-0.95 L 0.51 -0.95 0.51 0.95 -0.51 0.95 z" class="primitive"/>
            </g>
            <g transform="translate(105.01,79.56)" id="img-88b9ee75-112">
              <path d="M-0.51,-0.76 L 0.51 -0.76 0.51 0.76 -0.51 0.76 z" class="primitive"/>
            </g>
            <g transform="translate(105.97,79.48)" id="img-88b9ee75-113">
              <path d="M-0.51,-0.83 L 0.51 -0.83 0.51 0.83 -0.51 0.83 z" class="primitive"/>
            </g>
            <g transform="translate(106.94,79.48)" id="img-88b9ee75-114">
              <path d="M-0.51,-0.83 L 0.51 -0.83 0.51 0.83 -0.51 0.83 z" class="primitive"/>
            </g>
            <g transform="translate(107.9,79.61)" id="img-88b9ee75-115">
              <path d="M-0.51,-0.71 L 0.51 -0.71 0.51 0.71 -0.51 0.71 z" class="primitive"/>
            </g>
            <g transform="translate(108.87,79.95)" id="img-88b9ee75-116">
              <path d="M-0.51,-0.37 L 0.51 -0.37 0.51 0.37 -0.51 0.37 z" class="primitive"/>
            </g>
            <g transform="translate(109.83,79.68)" id="img-88b9ee75-117">
              <path d="M-0.51,-0.64 L 0.51 -0.64 0.51 0.64 -0.51 0.64 z" class="primitive"/>
            </g>
            <g transform="translate(110.8,79.85)" id="img-88b9ee75-118">
              <path d="M-0.51,-0.46 L 0.51 -0.46 0.51 0.46 -0.51 0.46 z" class="primitive"/>
            </g>
            <g transform="translate(111.77,79.83)" id="img-88b9ee75-119">
              <path d="M-0.51,-0.49 L 0.51 -0.49 0.51 0.49 -0.51 0.49 z" class="primitive"/>
            </g>
            <g transform="translate(112.73,79.83)" id="img-88b9ee75-120">
              <path d="M-0.51,-0.49 L 0.51 -0.49 0.51 0.49 -0.51 0.49 z" class="primitive"/>
            </g>
            <g transform="translate(113.7,79.95)" id="img-88b9ee75-121">
              <path d="M-0.51,-0.37 L 0.51 -0.37 0.51 0.37 -0.51 0.37 z" class="primitive"/>
            </g>
            <g transform="translate(114.66,80.17)" id="img-88b9ee75-122">
              <path d="M-0.51,-0.15 L 0.51 -0.15 0.51 0.15 -0.51 0.15 z" class="primitive"/>
            </g>
            <g transform="translate(115.63,79.97)" id="img-88b9ee75-123">
              <path d="M-0.51,-0.34 L 0.51 -0.34 0.51 0.34 -0.51 0.34 z" class="primitive"/>
            </g>
            <g transform="translate(116.59,79.85)" id="img-88b9ee75-124">
              <path d="M-0.51,-0.46 L 0.51 -0.46 0.51 0.46 -0.51 0.46 z" class="primitive"/>
            </g>
            <g transform="translate(117.56,80.07)" id="img-88b9ee75-125">
              <path d="M-0.51,-0.24 L 0.51 -0.24 0.51 0.24 -0.51 0.24 z" class="primitive"/>
            </g>
            <g transform="translate(118.52,80.14)" id="img-88b9ee75-126">
              <path d="M-0.51,-0.17 L 0.51 -0.17 0.51 0.17 -0.51 0.17 z" class="primitive"/>
            </g>
            <g transform="translate(119.49,80)" id="img-88b9ee75-127">
              <path d="M-0.51,-0.32 L 0.51 -0.32 0.51 0.32 -0.51 0.32 z" class="primitive"/>
            </g>
            <g transform="translate(120.46,80.17)" id="img-88b9ee75-128">
              <path d="M-0.51,-0.15 L 0.51 -0.15 0.51 0.15 -0.51 0.15 z" class="primitive"/>
            </g>
            <g transform="translate(121.42,80.14)" id="img-88b9ee75-129">
              <path d="M-0.51,-0.17 L 0.51 -0.17 0.51 0.17 -0.51 0.17 z" class="primitive"/>
            </g>
            <g transform="translate(122.39,80.14)" id="img-88b9ee75-130">
              <path d="M-0.51,-0.17 L 0.51 -0.17 0.51 0.17 -0.51 0.17 z" class="primitive"/>
            </g>
            <g transform="translate(123.35,80.19)" id="img-88b9ee75-131">
              <path d="M-0.51,-0.12 L 0.51 -0.12 0.51 0.12 -0.51 0.12 z" class="primitive"/>
            </g>
            <g transform="translate(124.32,80.24)" id="img-88b9ee75-132">
              <path d="M-0.51,-0.07 L 0.51 -0.07 0.51 0.07 -0.51 0.07 z" class="primitive"/>
            </g>
            <g transform="translate(125.28,80.19)" id="img-88b9ee75-133">
              <path d="M-0.51,-0.12 L 0.51 -0.12 0.51 0.12 -0.51 0.12 z" class="primitive"/>
            </g>
            <g transform="translate(126.25,80.29)" id="img-88b9ee75-134">
              <path d="M-0.51,-0.02 L 0.51 -0.02 0.51 0.02 -0.51 0.02 z" class="primitive"/>
            </g>
            <g transform="translate(127.21,80.24)" id="img-88b9ee75-135">
              <path d="M-0.51,-0.07 L 0.51 -0.07 0.51 0.07 -0.51 0.07 z" class="primitive"/>
            </g>
            <g transform="translate(128.18,80.19)" id="img-88b9ee75-136">
              <path d="M-0.51,-0.12 L 0.51 -0.12 0.51 0.12 -0.51 0.12 z" class="primitive"/>
            </g>
            <g transform="translate(129.15,80.24)" id="img-88b9ee75-137">
              <path d="M-0.51,-0.07 L 0.51 -0.07 0.51 0.07 -0.51 0.07 z" class="primitive"/>
            </g>
            <g transform="translate(130.11,80.27)" id="img-88b9ee75-138">
              <path d="M-0.51,-0.05 L 0.51 -0.05 0.51 0.05 -0.51 0.05 z" class="primitive"/>
            </g>
            <g transform="translate(131.08,80.24)" id="img-88b9ee75-139">
              <path d="M-0.51,-0.07 L 0.51 -0.07 0.51 0.07 -0.51 0.07 z" class="primitive"/>
            </g>
            <g transform="translate(132.04,80.29)" id="img-88b9ee75-140">
              <path d="M-0.51,-0.02 L 0.51 -0.02 0.51 0.02 -0.51 0.02 z" class="primitive"/>
            </g>
            <g transform="translate(133.01,80.29)" id="img-88b9ee75-141">
              <path d="M-0.51,-0.02 L 0.51 -0.02 0.51 0.02 -0.51 0.02 z" class="primitive"/>
            </g>
            <g transform="translate(133.97,80.29)" id="img-88b9ee75-142">
              <path d="M-0.51,-0.02 L 0.51 -0.02 0.51 0.02 -0.51 0.02 z" class="primitive"/>
            </g>
            <g transform="translate(134.94,80.32)" id="img-88b9ee75-143">
              <path d="M-0.51,-0 L 0.51 -0 0.51 0 -0.51 0 z" class="primitive"/>
            </g>
            <g transform="translate(135.9,80.29)" id="img-88b9ee75-144">
              <path d="M-0.51,-0.02 L 0.51 -0.02 0.51 0.02 -0.51 0.02 z" class="primitive"/>
            </g>
            <g transform="translate(136.87,80.32)" id="img-88b9ee75-145">
              <path d="M-0.51,-0 L 0.51 -0 0.51 0 -0.51 0 z" class="primitive"/>
            </g>
            <g transform="translate(137.84,80.32)" id="img-88b9ee75-146">
              <path d="M-0.51,-0 L 0.51 -0 0.51 0 -0.51 0 z" class="primitive"/>
            </g>
            <g transform="translate(138.8,80.32)" id="img-88b9ee75-147">
              <path d="M-0.51,-0 L 0.51 -0 0.51 0 -0.51 0 z" class="primitive"/>
            </g>
            <g transform="translate(139.77,80.29)" id="img-88b9ee75-148">
              <path d="M-0.51,-0.02 L 0.51 -0.02 0.51 0.02 -0.51 0.02 z" class="primitive"/>
            </g>
            <g transform="translate(140.73,80.29)" id="img-88b9ee75-149">
              <path d="M-0.51,-0.02 L 0.51 -0.02 0.51 0.02 -0.51 0.02 z" class="primitive"/>
            </g>
            <g transform="translate(141.7,80.32)" id="img-88b9ee75-150">
              <path d="M-0.51,-0 L 0.51 -0 0.51 0 -0.51 0 z" class="primitive"/>
            </g>
            <g transform="translate(142.66,80.32)" id="img-88b9ee75-151">
              <path d="M-0.51,-0 L 0.51 -0 0.51 0 -0.51 0 z" class="primitive"/>
            </g>
            <g transform="translate(143.63,80.32)" id="img-88b9ee75-152">
              <path d="M-0.51,-0 L 0.51 -0 0.51 0 -0.51 0 z" class="primitive"/>
            </g>
            <g transform="translate(144.59,80.32)" id="img-88b9ee75-153">
              <path d="M-0.51,-0 L 0.51 -0 0.51 0 -0.51 0 z" class="primitive"/>
            </g>
            <g transform="translate(145.56,80.32)" id="img-88b9ee75-154">
              <path d="M-0.51,-0 L 0.51 -0 0.51 0 -0.51 0 z" class="primitive"/>
            </g>
            <g transform="translate(146.53,80.32)" id="img-88b9ee75-155">
              <path d="M-0.51,-0 L 0.51 -0 0.51 0 -0.51 0 z" class="primitive"/>
            </g>
            <g transform="translate(147.49,80.32)" id="img-88b9ee75-156">
              <path d="M-0.51,-0 L 0.51 -0 0.51 0 -0.51 0 z" class="primitive"/>
            </g>
            <g transform="translate(148.46,80.32)" id="img-88b9ee75-157">
              <path d="M-0.51,-0 L 0.51 -0 0.51 0 -0.51 0 z" class="primitive"/>
            </g>
            <g transform="translate(149.42,80.29)" id="img-88b9ee75-158">
              <path d="M-0.51,-0.02 L 0.51 -0.02 0.51 0.02 -0.51 0.02 z" class="primitive"/>
            </g>
            <g transform="translate(150.39,80.32)" id="img-88b9ee75-159">
              <path d="M-0.51,-0 L 0.51 -0 0.51 0 -0.51 0 z" class="primitive"/>
            </g>
            <g transform="translate(151.35,80.32)" id="img-88b9ee75-160">
              <path d="M-0.51,-0 L 0.51 -0 0.51 0 -0.51 0 z" class="primitive"/>
            </g>
            <g transform="translate(152.32,80.29)" id="img-88b9ee75-161">
              <path d="M-0.51,-0.02 L 0.51 -0.02 0.51 0.02 -0.51 0.02 z" class="primitive"/>
            </g>
            <g transform="translate(153.28,80.32)" id="img-88b9ee75-162">
              <path d="M-0.51,-0 L 0.51 -0 0.51 0 -0.51 0 z" class="primitive"/>
            </g>
            <g transform="translate(154.25,80.27)" id="img-88b9ee75-163">
              <path d="M-0.51,-0.05 L 0.51 -0.05 0.51 0.05 -0.51 0.05 z" class="primitive"/>
            </g>
            <g transform="translate(155.22,80.32)" id="img-88b9ee75-164">
              <path d="M-0.51,-0 L 0.51 -0 0.51 0 -0.51 0 z" class="primitive"/>
            </g>
            <g transform="translate(156.18,80.32)" id="img-88b9ee75-165">
              <path d="M-0.51,-0 L 0.51 -0 0.51 0 -0.51 0 z" class="primitive"/>
            </g>
            <g transform="translate(157.15,80.32)" id="img-88b9ee75-166">
              <path d="M-0.51,-0 L 0.51 -0 0.51 0 -0.51 0 z" class="primitive"/>
            </g>
            <g transform="translate(158.11,80.32)" id="img-88b9ee75-167">
              <path d="M-0.51,-0 L 0.51 -0 0.51 0 -0.51 0 z" class="primitive"/>
            </g>
            <g transform="translate(159.08,80.29)" id="img-88b9ee75-168">
              <path d="M-0.51,-0.02 L 0.51 -0.02 0.51 0.02 -0.51 0.02 z" class="primitive"/>
            </g>
            <g transform="translate(160.04,80.29)" id="img-88b9ee75-169">
              <path d="M-0.51,-0.02 L 0.51 -0.02 0.51 0.02 -0.51 0.02 z" class="primitive"/>
            </g>
          </g>
        </g>
      </g>
    </g>
  </g>
  <g class="guide ylabels" font-size="2.82" font-family="'PT Sans Caption','Helvetica Neue','Helvetica',sans-serif" fill="#6C606B" id="img-88b9ee75-170">
    <g transform="translate(12.69,80.31)" id="img-88b9ee75-171">
      <g class="primitive">
        <text text-anchor="end" dy="0.35em">0</text>
      </g>
    </g>
    <g transform="translate(12.69,55.88)" id="img-88b9ee75-172">
      <g class="primitive">
        <text text-anchor="end" dy="0.35em">500</text>
      </g>
    </g>
    <g transform="translate(12.69,31.44)" id="img-88b9ee75-173">
      <g class="primitive">
        <text text-anchor="end" dy="0.35em">1000</text>
      </g>
    </g>
    <g transform="translate(12.69,7)" id="img-88b9ee75-174">
      <g class="primitive">
        <text text-anchor="end" dy="0.35em">1500</text>
      </g>
    </g>
  </g>
</g>
<defs>
  <clipPath id="img-88b9ee75-4">
    <path d="M13.69,5 L 172.8 5 172.8 82.32 13.69 82.32" />
  </clipPath>
</defs>
</svg>
