<?xml version="1.0" encoding="UTF-8"?>
<svg xmlns="http://www.w3.org/2000/svg"
     xmlns:xlink="http://www.w3.org/1999/xlink"
     xmlns:gadfly="http://www.gadflyjl.org/ns"
     version="1.2"
     width="152.4mm" height="101.6mm" viewBox="0 0 152.4 101.6"
     stroke="none"
     fill="#000000"
     stroke-width="0.3"
     font-size="3.88"
>
<defs>
  <marker id="arrow" markerWidth="15" markerHeight="7" refX="5" refY="3.5" orient="auto" markerUnits="strokeWidth">
    <path d="M0,0 L15,3.5 L0,7 z" stroke="context-stroke" fill="context-stroke"/>
  </marker>
</defs>
<g class="plotroot xscalable" id="img-a9676c5b-1">
  <g font-size="3.88" font-family="'PT Sans','Helvetica Neue','Helvetica',sans-serif" fill="#564A55" stroke="#000000" stroke-opacity="0.000" id="img-a9676c5b-2">
    <g transform="translate(82.04,89.99)">
      <g class="primitive">
        <text text-anchor="middle" dy="0.6em">Centered age (yr)</text>
      </g>
    </g>
  </g>
  <g class="guide xlabels" font-size="2.82" font-family="'PT Sans Caption','Helvetica Neue','Helvetica',sans-serif" fill="#6C606B" id="img-a9676c5b-3">
    <g transform="translate(18.69,83.32)">
      <g class="primitive">
        <text text-anchor="middle" dy="0.6em">-20</text>
      </g>
    </g>
    <g transform="translate(50.36,83.32)">
      <g class="primitive">
        <text text-anchor="middle" dy="0.6em">-10</text>
      </g>
    </g>
    <g transform="translate(82.04,83.32)">
      <g class="primitive">
        <text text-anchor="middle" dy="0.6em">0</text>
      </g>
    </g>
    <g transform="translate(113.72,83.32)">
      <g class="primitive">
        <text text-anchor="middle" dy="0.6em">10</text>
      </g>
    </g>
    <g transform="translate(145.4,83.32)">
      <g class="primitive">
        <text text-anchor="middle" dy="0.6em">20</text>
      </g>
    </g>
  </g>
  <g clip-path="url(#img-a9676c5b-4)">
    <g id="img-a9676c5b-5">
      <g pointer-events="visible" stroke-width="0.3" fill="#000000" fill-opacity="0.000" stroke="#000000" stroke-opacity="0.000" class="guide background" id="img-a9676c5b-6">
        <g transform="translate(82.04,43.66)" id="img-a9676c5b-7">
          <path d="M-65.36,-38.66 L 65.36 -38.66 65.36 38.66 -65.36 38.66 z" class="primitive"/>
        </g>
      </g>
      <g class="guide ygridlines xfixed" stroke-dasharray="0.5,0.5" stroke-width="0.2" stroke="#D0D0E0" id="img-a9676c5b-8">
        <g transform="translate(82.04,43.66)" id="img-a9676c5b-9">
          <path fill="none" d="M-65.36,0 L 65.36 0" class="primitive"/>
        </g>
      </g>
      <g class="guide xgridlines yfixed" stroke-dasharray="0.5,0.5" stroke-width="0.2" stroke="#D0D0E0" id="img-a9676c5b-10">
        <g transform="translate(18.69,43.66)" id="img-a9676c5b-11">
          <path fill="none" d="M0,-38.66 L 0 38.66" class="primitive"/>
        </g>
        <g transform="translate(50.36,43.66)" id="img-a9676c5b-12">
          <path fill="none" d="M0,-38.66 L 0 38.66" class="primitive"/>
        </g>
        <g transform="translate(82.04,43.66)" id="img-a9676c5b-13">
          <path fill="none" d="M0,-38.66 L 0 38.66" class="primitive"/>
        </g>
        <g transform="translate(113.72,43.66)" id="img-a9676c5b-14">
          <path fill="none" d="M0,-38.66 L 0 38.66" class="primitive"/>
        </g>
        <g transform="translate(145.4,43.66)" id="img-a9676c5b-15">
          <path fill="none" d="M0,-38.66 L 0 38.66" class="primitive"/>
        </g>
      </g>
      <g class="plotpanel" id="img-a9676c5b-16">
        <metadata>
          <boundingbox value="16.685000000000002mm 5.0mm 130.71499999999997mm 77.315mm"/>
          <unitbox value="-20.631338042062897 2.5 41.26267608412579 -2.0"/>
        </metadata>
        <g stroke-width="0.3" fill="#000000" fill-opacity="0.000" class="geometry" id="img-a9676c5b-17">
          <g class="color_LCHab{Float32}(70.0f0,60.0f0,240.0f0)" stroke-dasharray="none" stroke="#00BFFF" id="img-a9676c5b-18">
            <g transform="translate(82.05,47.81)" id="img-a9676c5b-19">
              <path fill="none" d="M-42.96,8.18 L -42.96 8.18 -42.96 8.18 -42.96 8.18 -42.96 8.18 -42.96 8.18 -42.96 8.18 -42.96 8.18 -42.96 8.18 -42.96 8.18 -42.96 8.18 -42.96 8.18 -42.96 8.18 -42.96 8.18 -42.96 8.18 -42.96 8.18 -42.96 8.18 -42.96 8.18 -42.96 8.18 -42.96 8.18 -42.96 8.18 -42.96 8.18 -42.96 8.18 -42.96 8.18 -42.96 8.18 -42.96 8.18 -42.96 8.18 -42.96 8.18 -42.96 8.18 -42.96 8.18 -42.96 8.18 -42.96 8.18 -42.96 8.18 -42.96 8.18 -42.96 8.18 -42.96 8.18 -42.96 8.18 -42.96 8.18 -42.96 8.18 -42.96 8.18 -42.96 8.18 -42.96 8.18 -42.96 8.18 -42.96 8.18 -39.8 6.82 -39.8 6.82 -39.8 6.82 -39.8 6.82 -39.8 6.82 -39.8 6.82 -39.8 6.82 -39.8 6.82 -39.8 6.82 -39.8 6.82 -39.8 6.82 -39.8 6.82 -39.8 6.82 -39.8 6.82 -39.8 6.82 -39.8 6.82 -39.8 6.82 -39.8 6.82 -39.8 6.82 -39.8 6.82 -39.8 6.82 -39.8 6.82 -39.8 6.82 -39.8 6.82 -39.8 6.82 -39.8 6.82 -39.79 6.82 -39.79 6.82 -39.79 6.82 -39.79 6.82 -39.79 6.82 -39.79 6.82 -39.79 6.82 -39.79 6.82 -39.79 6.82 -39.79 6.82 -39.79 6.82 -39.79 6.82 -39.79 6.82 -39.79 6.82 -39.79 6.82 -39.79 6.82 -39.79 6.82 -39.79 6.82 -39.79 6.82 -39.79 6.82 -39.79 6.82 -39.79 6.82 -39.79 6.82 -39.79 6.82 -39.79 6.82 -39.79 6.82 -39.79 6.82 -39.79 6.82 -39.79 6.82 -39.79 6.82 -39.79 6.82 -39.79 6.82 -39.79 6.82 -39.79 6.82 -39.79 6.82 -39.79 6.82 -39.79 6.82 -39.79 6.82 -39.79 6.82 -39.79 6.82 -39.79 6.82 -39.79 6.82 -39.79 6.82 -39.79 6.82 -39.79 6.82 -39.79 6.82 -39.79 6.82 -36.63 5.54 -36.63 5.54 -36.63 5.54 -36.63 5.54 -36.63 5.54 -36.63 5.54 -36.63 5.54 -36.63 5.54 -36.63 5.54 -36.62 5.53 -36.62 5.53 -36.62 5.53 -36.62 5.53 -36.62 5.53 -36.62 5.53 -36.62 5.53 -36.62 5.53 -36.62 5.53 -36.62 5.53 -36.62 5.53 -36.62 5.53 -36.62 5.53 -36.62 5.53 -36.62 5.53 -36.62 5.53 -36.62 5.53 -36.62 5.53 -36.62 5.53 -36.62 5.53 -36.62 5.53 -36.62 5.53 -36.62 5.53 -36.62 5.53 -36.62 5.53 -36.62 5.53 -36.62 5.53 -36.62 5.53 -36.62 5.53 -36.62 5.53 -36.62 5.53 -36.62 5.53 -36.62 5.53 -36.62 5.53 -36.62 5.53 -36.62 5.53 -36.62 5.53 -36.62 5.53 -36.62 5.53 -36.62 5.53 -36.62 5.53 -36.62 5.53 -36.62 5.53 -36.62 5.53 -36.62 5.53 -36.62 5.53 -36.62 5.53 -36.62 5.53 -36.62 5.53 -36.62 5.53 -36.62 5.53 -36.62 5.53 -36.62 5.53 -36.62 5.53 -36.62 5.53 -36.62 5.53 -36.62 5.53 -36.62 5.53 -36.62 5.53 -36.62 5.53 -36.62 5.53 -36.62 5.53 -36.62 5.53 -36.62 5.53 -36.62 5.53 -36.62 5.53 -36.62 5.53 -36.62 5.53 -36.62 5.53 -36.62 5.53 -36.62 5.53 -36.62 5.53 -36.62 5.53 -33.46 4.31 -33.46 4.31 -33.46 4.31 -33.46 4.31 -33.46 4.31 -33.46 4.31 -33.46 4.31 -33.46 4.31 -33.46 4.31 -33.46 4.31 -33.46 4.31 -33.46 4.31 -33.46 4.31 -33.46 4.31 -33.46 4.31 -33.46 4.31 -33.46 4.31 -33.46 4.31 -33.46 4.31 -33.46 4.31 -33.46 4.31 -33.46 4.31 -33.46 4.31 -33.46 4.31 -33.46 4.31 -33.46 4.31 -33.46 4.31 -33.46 4.31 -33.46 4.31 -33.46 4.31 -33.46 4.31 -33.46 4.31 -33.46 4.31 -33.46 4.31 -33.46 4.31 -33.46 4.31 -33.46 4.31 -33.46 4.31 -33.46 4.31 -33.46 4.31 -33.46 4.31 -33.46 4.31 -33.46 4.31 -33.46 4.31 -33.46 4.31 -33.46 4.31 -33.46 4.31 -33.46 4.31 -33.46 4.31 -33.46 4.31 -33.46 4.31 -33.46 4.31 -33.46 4.31 -33.46 4.31 -33.46 4.31 -33.46 4.31 -33.46 4.31 -33.46 4.31 -33.46 4.31 -33.46 4.31 -33.46 4.31 -33.46 4.31 -33.46 4.31 -33.46 4.31 -33.46 4.31 -33.46 4.31 -33.46 4.31 -33.46 4.31 -33.46 4.31 -33.46 4.31 -33.46 4.31 -33.46 4.31 -33.46 4.31 -33.46 4.31 -33.46 4.31 -33.46 4.31 -33.46 4.31 -33.46 4.31 -33.46 4.31 -30.29 3.14 -30.29 3.14 -30.29 3.14 -30.29 3.14 -30.29 3.14 -30.29 3.14 -30.29 3.14 -30.29 3.14 -30.29 3.14 -30.29 3.14 -30.29 3.14 -30.29 3.14 -30.29 3.14 -30.29 3.14 -30.29 3.14 -30.29 3.14 -30.29 3.14 -30.29 3.14 -30.29 3.14 -30.29 3.14 -30.29 3.14 -30.29 3.14 -30.29 3.14 -30.29 3.14 -30.29 3.14 -30.29 3.14 -30.29 3.14 -30.29 3.14 -30.29 3.14 -30.29 3.14 -30.29 3.14 -30.29 3.14 -30.29 3.14 -30.29 3.14 -30.29 3.14 -30.29 3.14 -30.29 3.14 -30.29 3.14 -30.29 3.14 -30.29 3.14 -30.29 3.14 -30.29 3.14 -30.29 3.14 -30.29 3.14 -30.29 3.14 -30.29 3.14 -30.29 3.14 -30.29 3.14 -30.29 3.14 -30.29 3.14 -30.29 3.14 -30.29 3.14 -30.29 3.14 -30.29 3.14 -30.29 3.14 -30.29 3.14 -30.29 3.14 -30.29 3.14 -30.29 3.14 -30.29 3.14 -30.29 3.14 -30.29 3.14 -30.29 3.14 -30.29 3.14 -30.29 3.14 -30.29 3.14 -30.29 3.14 -30.29 3.14 -30.29 3.14 -30.29 3.14 -30.29 3.14 -30.29 3.14 -30.29 3.14 -30.29 3.14 -30.29 3.14 -30.29 3.14 -30.29 3.14 -30.29 3.14 -30.29 3.14 -30.29 3.14 -30.29 3.14 -30.29 3.14 -30.29 3.14 -30.29 3.14 -30.29 3.14 -30.29 3.14 -30.29 3.14 -30.29 3.14 -30.29 3.14 -27.12 2.03 -27.12 2.03 -27.12 2.03 -27.12 2.03 -27.12 2.03 -27.12 2.03 -27.12 2.03 -27.12 2.03 -27.12 2.03 -27.12 2.03 -27.12 2.03 -27.12 2.03 -27.12 2.03 -27.12 2.03 -27.12 2.03 -27.12 2.03 -27.12 2.03 -27.12 2.03 -27.12 2.03 -27.12 2.03 -27.12 2.03 -27.12 2.03 -27.12 2.03 -27.12 2.03 -27.12 2.03 -27.12 2.03 -27.12 2.03 -27.12 2.03 -27.12 2.03 -27.12 2.03 -27.12 2.03 -27.12 2.03 -27.12 2.03 -27.12 2.03 -27.12 2.03 -27.12 2.03 -27.12 2.03 -27.12 2.03 -27.12 2.03 -27.12 2.03 -27.12 2.03 -27.12 2.03 -27.12 2.03 -27.12 2.03 -27.12 2.03 -27.12 2.03 -27.12 2.03 -27.12 2.03 -27.12 2.03 -27.12 2.03 -27.12 2.03 -27.12 2.03 -27.12 2.03 -27.12 2.03 -27.12 2.03 -27.12 2.03 -27.12 2.03 -27.12 2.03 -27.12 2.03 -27.12 2.03 -27.12 2.03 -27.12 2.03 -27.12 2.03 -27.12 2.03 -27.12 2.03 -27.12 2.03 -27.12 2.03 -27.12 2.03 -27.12 2.03 -27.12 2.03 -27.12 2.03 -27.12 2.03 -27.12 2.03 -27.12 2.03 -27.12 2.03 -27.12 2.03 -23.96 0.96 -23.96 0.96 -23.96 0.96 -23.96 0.96 -23.96 0.96 -23.96 0.96 -23.96 0.96 -23.96 0.96 -23.96 0.96 -23.96 0.96 -23.96 0.96 -23.96 0.96 -23.96 0.96 -23.96 0.96 -23.96 0.96 -23.96 0.96 -23.96 0.96 -23.96 0.96 -23.96 0.96 -23.96 0.96 -23.96 0.96 -23.96 0.96 -23.96 0.96 -23.96 0.96 -23.96 0.96 -23.96 0.96 -23.96 0.96 -23.96 0.96 -23.96 0.96 -23.96 0.96 -23.96 0.96 -23.96 0.96 -23.96 0.96 -23.96 0.96 -23.96 0.96 -23.96 0.96 -23.96 0.96 -23.96 0.96 -23.96 0.96 -23.96 0.96 -23.96 0.96 -23.96 0.96 -23.96 0.96 -23.96 0.96 -23.96 0.96 -23.96 0.96 -23.96 0.96 -23.96 0.96 -23.96 0.96 -23.96 0.96 -23.96 0.96 -23.96 0.96 -23.96 0.96 -23.96 0.96 -23.96 0.96 -23.96 0.96 -23.96 0.96 -23.96 0.96 -23.96 0.96 -23.96 0.96 -23.96 0.96 -23.96 0.96 -23.96 0.96 -23.96 0.96 -23.96 0.96 -23.96 0.96 -23.96 0.96 -23.96 0.96 -23.96 0.96 -23.96 0.96 -23.96 0.96 -23.96 0.96 -23.96 0.96 -23.96 0.96 -23.96 0.96 -23.96 0.96 -23.96 0.96 -23.96 0.96 -23.96 0.96 -23.96 0.96 -23.96 0.96 -23.96 0.96 -23.96 0.96 -23.96 0.96 -23.96 0.96 -20.79 -0.04 -20.79 -0.04 -20.79 -0.04 -20.79 -0.04 -20.79 -0.04 -20.79 -0.04 -20.79 -0.04 -20.79 -0.04 -20.79 -0.04 -20.79 -0.04 -20.79 -0.04 -20.79 -0.04 -20.79 -0.04 -20.79 -0.04 -20.79 -0.04 -20.79 -0.04 -20.79 -0.04 -20.79 -0.04 -20.79 -0.04 -20.79 -0.04 -20.79 -0.04 -20.79 -0.04 -20.79 -0.04 -20.79 -0.04 -20.79 -0.04 -20.79 -0.04 -20.79 -0.04 -20.79 -0.04 -20.79 -0.04 -20.79 -0.04 -20.79 -0.04 -20.79 -0.04 -20.79 -0.04 -20.79 -0.04 -20.79 -0.04 -20.79 -0.04 -20.79 -0.04 -20.79 -0.04 -20.79 -0.04 -20.79 -0.04 -20.79 -0.04 -20.79 -0.04 -20.79 -0.04 -20.79 -0.04 -20.79 -0.04 -20.79 -0.04 -20.79 -0.04 -20.79 -0.04 -20.79 -0.04 -20.79 -0.04 -20.79 -0.04 -20.79 -0.04 -20.79 -0.04 -20.79 -0.04 -20.79 -0.04 -20.79 -0.04 -20.79 -0.04 -20.79 -0.04 -20.79 -0.04 -20.79 -0.04 -20.79 -0.04 -20.79 -0.04 -20.79 -0.04 -20.79 -0.04 -20.79 -0.04 -20.79 -0.04 -20.79 -0.04 -20.79 -0.04 -20.79 -0.04 -20.79 -0.04 -20.79 -0.04 -20.79 -0.04 -20.79 -0.04 -20.79 -0.04 -20.79 -0.04 -20.79 -0.04 -20.79 -0.04 -17.62 -0.97 -17.62 -0.97 -17.62 -0.97 -17.62 -0.97 -17.62 -0.97 -17.62 -0.97 -17.62 -0.97 -17.62 -0.97 -17.62 -0.97 -17.62 -0.97 -17.62 -0.97 -17.62 -0.97 -17.62 -0.97 -17.62 -0.97 -17.62 -0.97 -17.62 -0.97 -17.62 -0.97 -17.62 -0.97 -17.62 -0.97 -17.62 -0.97 -17.62 -0.97 -17.62 -0.97 -17.62 -0.97 -17.62 -0.97 -17.62 -0.97 -17.62 -0.97 -17.62 -0.97 -17.62 -0.97 -17.62 -0.97 -17.62 -0.97 -17.62 -0.97 -17.62 -0.97 -17.62 -0.97 -17.62 -0.97 -17.62 -0.97 -17.62 -0.97 -17.62 -0.97 -17.62 -0.97 -17.62 -0.97 -17.62 -0.97 -17.62 -0.97 -17.62 -0.97 -17.62 -0.97 -17.62 -0.97 -17.62 -0.97 -17.62 -0.97 -17.62 -0.97 -17.62 -0.97 -17.62 -0.97 -17.62 -0.97 -17.62 -0.97 -17.62 -0.97 -17.62 -0.97 -17.62 -0.97 -17.62 -0.97 -17.62 -0.97 -17.62 -0.97 -17.62 -0.97 -17.62 -0.97 -17.62 -0.97 -17.62 -0.97 -17.62 -0.97 -17.62 -0.97 -17.62 -0.97 -17.62 -0.97 -17.62 -0.97 -17.62 -0.97 -17.62 -0.97 -17.62 -0.97 -17.62 -0.97 -17.62 -0.97 -17.62 -0.97 -17.62 -0.97 -17.62 -0.97 -17.62 -0.97 -17.62 -0.97 -17.62 -0.97 -17.62 -0.97 -17.62 -0.97 -17.62 -0.97 -17.62 -0.97 -17.62 -0.97 -17.62 -0.97 -14.45 -1.82 -14.45 -1.82 -14.45 -1.82 -14.45 -1.82 -14.45 -1.82 -14.45 -1.82 -14.45 -1.82 -14.45 -1.82 -14.45 -1.82 -14.45 -1.82 -14.45 -1.82 -14.45 -1.82 -14.45 -1.82 -14.45 -1.82 -14.45 -1.82 -14.45 -1.82 -14.45 -1.82 -14.45 -1.82 -14.45 -1.82 -14.45 -1.82 -14.45 -1.82 -14.45 -1.82 -14.45 -1.82 -14.45 -1.82 -14.45 -1.82 -14.45 -1.82 -14.45 -1.82 -14.45 -1.82 -14.45 -1.82 -14.45 -1.82 -14.45 -1.82 -14.45 -1.82 -14.45 -1.82 -14.45 -1.82 -14.45 -1.82 -14.45 -1.82 -14.45 -1.82 -14.45 -1.82 -14.45 -1.82 -14.45 -1.82 -14.45 -1.82 -14.45 -1.82 -14.45 -1.82 -14.45 -1.82 -14.45 -1.82 -14.45 -1.82 -14.45 -1.82 -14.45 -1.82 -14.45 -1.82 -14.45 -1.82 -14.45 -1.82 -14.45 -1.82 -14.45 -1.82 -14.45 -1.82 -14.45 -1.82 -14.45 -1.82 -14.45 -1.82 -14.45 -1.82 -14.45 -1.82 -14.45 -1.82 -14.45 -1.82 -14.45 -1.82 -14.45 -1.82 -14.45 -1.82 -14.45 -1.82 -14.45 -1.82 -14.45 -1.82 -14.45 -1.82 -11.28 -2.64 -11.28 -2.64 -11.28 -2.64 -11.28 -2.64 -11.28 -2.64 -11.28 -2.64 -11.28 -2.64 -11.28 -2.64 -11.28 -2.64 -11.28 -2.64 -11.28 -2.64 -11.28 -2.64 -11.28 -2.64 -11.28 -2.64 -11.28 -2.64 -11.28 -2.64 -11.28 -2.64 -11.28 -2.64 -11.28 -2.64 -11.28 -2.64 -11.28 -2.64 -11.28 -2.64 -11.28 -2.64 -11.28 -2.64 -11.28 -2.64 -11.28 -2.64 -11.28 -2.64 -11.28 -2.64 -11.28 -2.64 -11.28 -2.64 -11.28 -2.64 -11.28 -2.64 -11.28 -2.64 -11.28 -2.64 -11.28 -2.64 -11.28 -2.64 -11.28 -2.64 -11.28 -2.64 -11.28 -2.64 -11.28 -2.64 -11.28 -2.64 -11.28 -2.64 -11.28 -2.64 -11.28 -2.64 -11.28 -2.64 -11.28 -2.64 -11.28 -2.64 -11.28 -2.64 -11.28 -2.64 -11.28 -2.64 -11.28 -2.64 -11.28 -2.64 -11.28 -2.64 -11.28 -2.64 -11.28 -2.64 -11.28 -2.64 -11.28 -2.64 -11.28 -2.64 -11.28 -2.64 -11.28 -2.64 -8.12 -3.43 -8.12 -3.43 -8.12 -3.43 -8.12 -3.43 -8.12 -3.43 -8.12 -3.43 -8.12 -3.43 -8.12 -3.43 -8.12 -3.43 -8.12 -3.43 -8.12 -3.43 -8.12 -3.43 -8.12 -3.43 -8.12 -3.43 -8.12 -3.43 -8.12 -3.43 -8.12 -3.43 -8.12 -3.43 -8.12 -3.43 -8.12 -3.43 -8.12 -3.43 -8.12 -3.43 -8.12 -3.43 -8.12 -3.43 -8.12 -3.43 -8.12 -3.43 -8.12 -3.43 -8.12 -3.43 -8.12 -3.43 -8.12 -3.43 -8.12 -3.43 -8.12 -3.43 -8.12 -3.43 -8.12 -3.43 -8.12 -3.43 -8.12 -3.43 -8.12 -3.43 -8.12 -3.43 -8.12 -3.43 -8.12 -3.43 -8.12 -3.43 -8.12 -3.43 -8.12 -3.43 -8.12 -3.43 -8.12 -3.43 -8.12 -3.43 -8.12 -3.43 -8.12 -3.43 -8.12 -3.43 -8.12 -3.43 -8.12 -3.43 -8.12 -3.43 -8.12 -3.43 -8.12 -3.43 -8.12 -3.43 -8.12 -3.43 -8.12 -3.43 -8.12 -3.43 -8.12 -3.43 -8.12 -3.43 -8.12 -3.43 -8.12 -3.43 -8.12 -3.43 -8.12 -3.43 -8.12 -3.43 -8.12 -3.43 -8.12 -3.43 -8.12 -3.43 -8.12 -3.43 -8.12 -3.43 -8.12 -3.43 -8.12 -3.43 -8.12 -3.43 -8.12 -3.43 -8.12 -3.43 -8.12 -3.43 -8.12 -3.43 -8.12 -3.43 -8.12 -3.43 -4.95 -4.04 -4.95 -4.04 -4.95 -4.04 -4.95 -4.04 -4.95 -4.04 -4.95 -4.04 -4.95 -4.04 -4.95 -4.04 -4.95 -4.04 -4.95 -4.04 -4.95 -4.04 -4.95 -4.04 -4.95 -4.04 -4.95 -4.04 -4.95 -4.04 -4.95 -4.04 -4.95 -4.04 -4.95 -4.04 -4.95 -4.04 -4.95 -4.04 -4.95 -4.04 -4.95 -4.04 -4.95 -4.04 -4.95 -4.04 -4.95 -4.04 -4.95 -4.04 -4.95 -4.04 -4.95 -4.04 -4.95 -4.04 -4.95 -4.04 -4.95 -4.04 -4.95 -4.04 -4.95 -4.04 -4.95 -4.04 -4.95 -4.04 -4.95 -4.04 -4.95 -4.04 -4.95 -4.04 -4.95 -4.04 -4.95 -4.04 -4.95 -4.04 -4.95 -4.04 -4.95 -4.04 -4.95 -4.04 -4.95 -4.04 -4.95 -4.04 -4.95 -4.04 -4.95 -4.04 -4.95 -4.04 -4.95 -4.04 -4.95 -4.04 -4.95 -4.04 -4.95 -4.04 -4.95 -4.04 -4.95 -4.04 -4.95 -4.04 -4.95 -4.04 -4.95 -4.04 -4.95 -4.04 -4.95 -4.04 -4.95 -4.04 -4.95 -4.04 -4.95 -4.04 -4.95 -4.04 -4.95 -4.04 -4.95 -4.04 -4.95 -4.04 -4.95 -4.04 -4.95 -4.04 -4.95 -4.04 -4.95 -4.04 -4.95 -4.04 -4.95 -4.04 -4.95 -4.04 -4.95 -4.04 -4.95 -4.04 -4.95 -4.04 -4.95 -4.04 -4.95 -4.04 -4.95 -4.04 -1.78 -4.31 -1.78 -4.31 -1.78 -4.31 -1.78 -4.31 -1.78 -4.31 -1.78 -4.31 -1.78 -4.31 -1.78 -4.31 -1.78 -4.31 -1.78 -4.31 -1.78 -4.31 -1.78 -4.31 -1.78 -4.31 -1.78 -4.31 -1.78 -4.31 -1.78 -4.31 -1.78 -4.31 -1.78 -4.31 -1.78 -4.31 -1.78 -4.31 -1.78 -4.31 -1.78 -4.31 -1.78 -4.31 -1.78 -4.31 -1.78 -4.31 -1.78 -4.31 -1.78 -4.31 -1.78 -4.31 -1.78 -4.31 -1.78 -4.31 -1.78 -4.31 -1.78 -4.31 -1.78 -4.31 -1.78 -4.31 -1.78 -4.31 -1.78 -4.31 -1.78 -4.31 -1.78 -4.31 -1.78 -4.31 -1.78 -4.31 -1.78 -4.31 -1.78 -4.31 -1.78 -4.31 -1.78 -4.31 -1.78 -4.31 -1.78 -4.31 -1.78 -4.31 -1.78 -4.31 -1.78 -4.31 -1.78 -4.31 -1.78 -4.31 -1.78 -4.31 -1.78 -4.31 -1.78 -4.31 -1.78 -4.31 -1.78 -4.31 -1.78 -4.31 -1.78 -4.31 -1.78 -4.31 -1.78 -4.31 -1.78 -4.31 -1.78 -4.31 -1.78 -4.31 -1.78 -4.31 -1.78 -4.31 -1.78 -4.31 -1.78 -4.31 -1.78 -4.31 -1.78 -4.31 -1.78 -4.31 -1.78 -4.31 -1.78 -4.31 -1.78 -4.31 -1.78 -4.31 1.39 -4.46 1.39 -4.46 1.39 -4.46 1.39 -4.46 1.39 -4.46 1.39 -4.46 1.39 -4.46 1.39 -4.46 1.39 -4.46 1.39 -4.46 1.39 -4.46 1.39 -4.46 1.39 -4.46 1.39 -4.46 1.39 -4.46 1.39 -4.46 1.39 -4.46 1.39 -4.46 1.39 -4.46 1.39 -4.46 1.39 -4.46 1.39 -4.46 1.39 -4.46 1.39 -4.46 1.39 -4.46 1.39 -4.46 1.39 -4.46 1.39 -4.46 1.39 -4.46 1.39 -4.46 1.39 -4.46 1.39 -4.46 1.39 -4.46 1.39 -4.46 1.39 -4.46 1.39 -4.46 1.39 -4.46 1.39 -4.46 1.39 -4.46 1.39 -4.46 1.39 -4.46 1.39 -4.46 1.39 -4.46 1.39 -4.46 1.39 -4.46 1.39 -4.46 1.39 -4.46 1.39 -4.46 1.39 -4.46 1.39 -4.46 1.39 -4.46 1.39 -4.46 1.39 -4.46 1.39 -4.46 1.39 -4.46 1.39 -4.46 1.39 -4.46 1.39 -4.46 1.39 -4.46 1.39 -4.46 1.39 -4.46 1.39 -4.46 1.39 -4.46 1.39 -4.46 1.39 -4.46 1.39 -4.46 1.39 -4.46 1.39 -4.46 1.39 -4.46 1.39 -4.46 1.39 -4.46 1.39 -4.46 1.39 -4.46 1.39 -4.46 1.39 -4.46 1.39 -4.46 1.39 -4.46 1.39 -4.46 1.39 -4.46 1.39 -4.46 1.39 -4.46 1.39 -4.46 1.39 -4.46 1.39 -4.46 1.39 -4.46 1.39 -4.46 4.55 -4.4 4.55 -4.4 4.55 -4.4 4.55 -4.4 4.55 -4.4 4.55 -4.4 4.55 -4.4 4.55 -4.4 4.55 -4.4 4.55 -4.4 4.55 -4.4 4.55 -4.4 4.55 -4.4 4.55 -4.4 4.55 -4.4 4.55 -4.4 4.55 -4.4 4.55 -4.4 4.55 -4.4 4.55 -4.4 4.55 -4.4 4.55 -4.4 4.55 -4.4 4.55 -4.4 4.55 -4.4 4.55 -4.4 4.55 -4.4 4.55 -4.4 4.55 -4.4 4.55 -4.4 4.55 -4.4 4.55 -4.4 4.55 -4.4 4.55 -4.4 4.55 -4.4 4.55 -4.4 4.55 -4.4 4.55 -4.4 4.55 -4.4 4.55 -4.4 4.55 -4.4 4.55 -4.4 4.55 -4.4 4.55 -4.4 4.55 -4.4 4.55 -4.4 4.55 -4.4 4.55 -4.4 4.55 -4.4 4.55 -4.4 4.55 -4.4 4.55 -4.4 4.55 -4.4 4.55 -4.4 4.55 -4.4 4.55 -4.4 4.55 -4.4 4.55 -4.4 4.55 -4.4 4.55 -4.4 4.55 -4.4 7.72 -4.24 7.72 -4.24 7.72 -4.24 7.72 -4.24 7.72 -4.24 7.72 -4.24 7.72 -4.24 7.72 -4.24 7.72 -4.24 7.72 -4.24 7.72 -4.24 7.72 -4.24 7.72 -4.24 7.72 -4.24 7.72 -4.24 7.72 -4.24 7.72 -4.24 7.72 -4.24 7.72 -4.24 7.72 -4.24 7.72 -4.24 7.72 -4.24 7.72 -4.24 7.72 -4.24 7.72 -4.24 7.72 -4.24 7.72 -4.24 7.72 -4.24 7.72 -4.24 7.72 -4.24 7.72 -4.24 7.72 -4.24 7.72 -4.24 7.72 -4.24 7.72 -4.24 7.72 -4.24 7.72 -4.24 7.72 -4.24 7.72 -4.24 7.72 -4.24 7.72 -4.24 7.72 -4.24 7.72 -4.24 7.72 -4.24 7.72 -4.24 7.72 -4.24 7.72 -4.24 7.72 -4.24 7.72 -4.24 7.72 -4.24 7.72 -4.24 7.72 -4.24 7.72 -4.24 7.72 -4.24 7.72 -4.24 7.72 -4.24 7.72 -4.24 7.72 -4.24 7.72 -4.24 7.72 -4.24 7.72 -4.24 7.72 -4.24 7.72 -4.24 7.72 -4.24 7.72 -4.24 7.72 -4.24 7.72 -4.24 7.72 -4.24 10.89 -4.08 10.89 -4.08 10.89 -4.08 10.89 -4.08 10.89 -4.08 10.89 -4.08 10.89 -4.08 10.89 -4.08 10.89 -4.08 10.89 -4.08 10.89 -4.08 10.89 -4.08 10.89 -4.08 10.89 -4.08 10.89 -4.08 10.89 -4.08 10.89 -4.08 10.89 -4.08 10.89 -4.08 10.89 -4.08 10.89 -4.08 10.89 -4.08 10.89 -4.08 10.89 -4.08 10.89 -4.08 10.89 -4.08 10.89 -4.08 10.89 -4.08 10.89 -4.08 10.89 -4.08 10.89 -4.08 10.89 -4.08 10.89 -4.08 10.89 -4.08 10.89 -4.08 10.89 -4.08 10.89 -4.08 10.89 -4.08 10.89 -4.08 10.89 -4.08 10.89 -4.08 10.89 -4.08 10.89 -4.08 10.89 -4.08 10.89 -4.08 10.89 -4.08 10.89 -4.08 10.89 -4.08 10.89 -4.08 10.89 -4.08 14.06 -3.76 14.06 -3.76 14.06 -3.76 14.06 -3.76 14.06 -3.76 14.06 -3.76 14.06 -3.76 14.06 -3.76 14.06 -3.76 14.06 -3.76 14.06 -3.76 14.06 -3.76 14.06 -3.76 14.06 -3.76 14.06 -3.76 14.06 -3.76 14.06 -3.76 14.06 -3.76 14.06 -3.76 14.06 -3.76 14.06 -3.76 14.06 -3.76 14.06 -3.76 14.06 -3.76 14.06 -3.76 14.06 -3.76 14.06 -3.76 14.06 -3.76 14.06 -3.76 14.06 -3.76 14.06 -3.76 14.06 -3.76 14.06 -3.76 14.06 -3.76 14.06 -3.76 14.06 -3.76 14.06 -3.76 14.06 -3.76 14.06 -3.76 14.06 -3.76 14.06 -3.76 14.06 -3.76 14.06 -3.76 14.06 -3.76 14.06 -3.76 14.06 -3.76 14.06 -3.76 14.06 -3.76 14.06 -3.76 14.06 -3.76 14.06 -3.76 14.06 -3.76 14.06 -3.76 14.06 -3.76 14.06 -3.76 14.06 -3.76 14.06 -3.76 14.06 -3.76 17.23 -3.43 17.23 -3.43 17.23 -3.43 17.23 -3.43 17.23 -3.43 17.23 -3.43 17.23 -3.43 17.23 -3.43 17.23 -3.43 17.23 -3.43 17.23 -3.43 17.23 -3.43 17.23 -3.43 17.23 -3.43 17.23 -3.43 17.23 -3.43 17.23 -3.43 17.23 -3.43 17.23 -3.43 17.23 -3.43 17.23 -3.43 17.23 -3.43 17.23 -3.43 17.23 -3.43 17.23 -3.43 17.23 -3.43 17.23 -3.43 17.23 -3.43 17.23 -3.43 17.23 -3.43 17.23 -3.43 17.23 -3.43 17.23 -3.43 17.23 -3.43 17.23 -3.43 17.23 -3.43 17.23 -3.43 17.23 -3.43 17.23 -3.43 17.23 -3.43 17.23 -3.43 17.23 -3.43 17.23 -3.43 17.23 -3.43 17.23 -3.43 17.23 -3.43 17.23 -3.43 17.23 -3.43 20.39 -3.2 20.39 -3.2 20.39 -3.2 20.39 -3.2 20.39 -3.2 20.39 -3.2 20.39 -3.2 20.39 -3.2 20.39 -3.2 20.39 -3.2 20.39 -3.2 20.39 -3.2 20.39 -3.2 20.39 -3.2 20.39 -3.2 20.39 -3.2 20.39 -3.2 20.39 -3.2 20.39 -3.2 20.39 -3.2 20.39 -3.2 20.39 -3.2 20.39 -3.2 20.39 -3.2 20.39 -3.2 20.39 -3.2 20.39 -3.2 20.39 -3.2 20.39 -3.2 20.39 -3.2 20.39 -3.2 20.39 -3.2 20.39 -3.2 20.39 -3.2 20.39 -3.2 20.39 -3.2 20.39 -3.2 20.39 -3.2 20.39 -3.2 20.39 -3.2 20.39 -3.2 20.39 -3.2 20.39 -3.2 20.39 -3.2 20.39 -3.2 20.39 -3.2 20.39 -3.2 20.39 -3.2 20.39 -3.2 20.39 -3.2 20.39 -3.2 20.39 -3.2 20.39 -3.2 23.56 -2.93 23.56 -2.93 23.56 -2.93 23.56 -2.93 23.56 -2.93 23.56 -2.93 23.56 -2.93 23.56 -2.93 23.56 -2.93 23.56 -2.93 23.56 -2.93 23.56 -2.93 23.56 -2.93 23.56 -2.93 23.56 -2.93 23.56 -2.93 23.56 -2.93 23.56 -2.93 23.56 -2.93 23.56 -2.93 23.56 -2.93 23.56 -2.93 23.56 -2.93 23.56 -2.93 23.56 -2.93 23.56 -2.93 23.56 -2.93 23.56 -2.93 23.56 -2.93 23.56 -2.93 23.56 -2.93 23.56 -2.93 23.56 -2.93 23.56 -2.93 23.56 -2.93 23.56 -2.93 23.56 -2.93 23.56 -2.93 26.73 -2.5 26.73 -2.5 26.73 -2.5 26.73 -2.5 26.73 -2.5 26.73 -2.5 26.73 -2.5 26.73 -2.5 26.73 -2.5 26.73 -2.5 26.73 -2.5 26.73 -2.5 26.73 -2.5 26.73 -2.5 26.73 -2.5 26.73 -2.5 26.73 -2.5 26.73 -2.5 26.73 -2.5 26.73 -2.5 26.73 -2.5 26.73 -2.5 26.73 -2.5 26.73 -2.5 26.73 -2.5 26.73 -2.5 26.73 -2.5 26.73 -2.5 26.73 -2.5 26.73 -2.5 26.73 -2.5 26.73 -2.5 26.73 -2.5 26.73 -2.5 26.73 -2.5 26.73 -2.5 26.73 -2.5 26.73 -2.5 26.73 -2.5 26.73 -2.5 26.73 -2.5 26.73 -2.5 26.73 -2.5 26.73 -2.5 26.73 -2.5 26.73 -2.5 26.73 -2.5 26.73 -2.5 26.73 -2.5 26.73 -2.5 26.73 -2.5 26.73 -2.5 26.73 -2.5 26.73 -2.5 26.73 -2.5 26.73 -2.5 26.73 -2.5 29.9 -1.95 29.9 -1.95 29.9 -1.95 29.9 -1.95 29.9 -1.95 29.9 -1.95 29.9 -1.95 29.9 -1.95 29.9 -1.95 29.9 -1.95 29.9 -1.95 29.9 -1.95 29.9 -1.95 29.9 -1.95 29.9 -1.95 29.9 -1.95 29.9 -1.95 29.9 -1.95 29.9 -1.95 29.9 -1.95 29.9 -1.95 29.9 -1.95 29.9 -1.95 29.9 -1.95 29.9 -1.95 29.9 -1.95 29.9 -1.95 29.9 -1.95 29.9 -1.95 29.9 -1.95 29.9 -1.95 29.9 -1.95 33.07 -1.26 33.07 -1.26 33.07 -1.26 33.07 -1.26 33.07 -1.26 33.07 -1.26 33.07 -1.26 33.07 -1.26 33.07 -1.26 33.07 -1.26 33.07 -1.26 33.07 -1.26 33.07 -1.26 33.07 -1.26 33.07 -1.26 33.07 -1.26 33.07 -1.26 33.07 -1.26 33.07 -1.26 33.07 -1.26 33.07 -1.26 33.07 -1.26 33.07 -1.26 33.07 -1.26 33.07 -1.26 33.07 -1.26 33.07 -1.26 33.07 -1.26 33.07 -1.26 33.07 -1.26 33.07 -1.26 33.07 -1.26 33.07 -1.26 33.07 -1.26 33.07 -1.26 33.07 -1.26 33.07 -1.26 33.07 -1.26 33.07 -1.26 33.07 -1.26 33.07 -1.26 33.07 -1.26 33.07 -1.26 33.07 -1.26 33.07 -1.26 33.07 -1.26 33.07 -1.26 33.07 -1.26 33.07 -1.26 33.07 -1.26 33.07 -1.26 33.07 -1.26 33.07 -1.26 33.07 -1.26 36.23 -0.47 36.23 -0.47 36.23 -0.47 36.23 -0.47 36.23 -0.47 36.23 -0.47 36.23 -0.47 36.23 -0.47 36.23 -0.47 36.23 -0.47 36.23 -0.47 36.23 -0.47 36.23 -0.47 36.23 -0.47 36.23 -0.47 36.23 -0.47 36.23 -0.47 36.23 -0.47 36.23 -0.47 36.23 -0.47 36.23 -0.47 36.23 -0.47 36.23 -0.47 36.23 -0.47 36.23 -0.47 36.23 -0.47 36.23 -0.47 36.23 -0.47 36.23 -0.47 36.23 -0.47 36.23 -0.47 36.23 -0.47 36.23 -0.47 36.23 -0.47 39.4 0.43 39.4 0.43 39.4 0.43 39.4 0.43 39.4 0.43 39.4 0.43 39.4 0.43 39.4 0.43 39.4 0.43 39.4 0.43 39.4 0.43 39.4 0.43 39.4 0.43 39.4 0.43 39.4 0.43 39.4 0.43 39.4 0.43 39.4 0.43 39.4 0.43 39.4 0.43 39.4 0.43 39.4 0.43 39.4 0.43 39.4 0.43 39.4 0.43 39.4 0.43 39.4 0.43 39.4 0.43 39.4 0.43 39.4 0.43 42.57 1.43 42.57 1.43 42.57 1.43 42.57 1.43 42.57 1.43 42.57 1.43 42.57 1.43 42.57 1.43 42.57 1.43 42.57 1.43 42.57 1.43 42.57 1.43 42.57 1.43 42.57 1.43 42.57 1.43 42.57 1.43 42.57 1.43 42.57 1.43 42.57 1.43 42.57 1.43 42.57 1.43 42.57 1.43 42.57 1.43 42.57 1.43 42.57 1.43 42.57 1.43 42.57 1.43 45.74 2.53 45.74 2.53 45.74 2.53 45.74 2.53 45.74 2.53 45.74 2.53 45.74 2.53 45.74 2.53 45.74 2.53 45.74 2.53 45.74 2.53 45.74 2.53 45.74 2.53 45.74 2.53 45.74 2.53 45.74 2.53 45.74 2.53 45.74 2.53 45.74 2.53 45.74 2.53 45.74 2.53 45.74 2.53 45.74 2.53 45.74 2.53 45.74 2.53 45.74 2.53 45.74 2.53 45.74 2.53 45.74 2.53 45.74 2.53 45.74 2.53 48.91 3.74 48.91 3.74 48.91 3.74 48.91 3.74 48.91 3.74 48.91 3.74 48.91 3.74 48.91 3.74 48.91 3.74 48.91 3.74 48.91 3.74 48.91 3.74 48.91 3.74 48.91 3.74 48.91 3.74 48.91 3.74 48.91 3.74 48.91 3.74 48.91 3.74 48.91 3.74 48.91 3.74 48.91 3.74 48.91 3.74 48.91 3.74 52.07 5.07 52.07 5.07 52.07 5.07 52.07 5.07 52.07 5.07 52.07 5.07 52.07 5.07 52.07 5.07 52.07 5.07 52.07 5.07 52.07 5.07 52.07 5.07 52.07 5.07 52.07 5.07 52.07 5.07 52.07 5.07 52.07 5.07 52.07 5.07 52.07 5.07 52.07 5.07 52.07 5.07 52.07 5.07 52.07 5.07 52.07 5.07 52.07 5.07 52.07 5.07 52.07 5.07 52.07 5.07 52.07 5.07 52.07 5.07 52.07 5.07 55.24 6.51 55.24 6.51 55.24 6.51 55.24 6.51 55.24 6.51 55.24 6.51 55.24 6.51 55.24 6.51 55.24 6.51 55.24 6.51 55.24 6.51 55.24 6.51 55.24 6.51 55.24 6.51 55.24 6.51 55.24 6.51 55.24 6.51 55.24 6.51 55.24 6.51 55.24 6.51 55.24 6.51 55.24 6.51 55.24 6.51 55.24 6.51 55.24 6.51 55.24 6.51 55.24 6.51 55.24 6.51 55.24 6.51 55.24 6.51 55.24 6.51 55.24 6.51 55.24 6.51 55.24 6.51 55.24 6.51 58.41 8.07 58.41 8.07 58.41 8.07 58.41 8.07 58.41 8.07 58.41 8.07 58.41 8.07 58.41 8.07 58.41 8.07 58.41 8.07 58.41 8.07 58.41 8.07 58.41 8.07 58.41 8.07 58.41 8.07 58.41 8.07 58.41 8.07 58.41 8.07 58.41 8.07 58.41 8.07 58.41 8.07 58.41 8.07 58.41 8.07 58.41 8.07 58.41 8.07 58.41 8.07 58.41 8.07 58.41 8.07 58.41 8.07 58.41 8.07 58.41 8.07 58.41 8.07 58.41 8.07 58.41 8.07 58.41 8.07 58.41 8.07 61.58 9.75 61.58 9.75 61.58 9.75 61.58 9.75 61.58 9.75 61.58 9.75 61.58 9.75 61.58 9.75 61.58 9.75 61.58 9.75 61.58 9.75 61.58 9.75 61.58 9.75 61.58 9.75 61.58 9.75 61.58 9.75 61.58 9.75 61.58 9.75 61.58 9.75 61.58 9.75 61.58 9.75 61.58 9.75 61.58 9.75 61.58 9.75 61.58 9.75 61.58 9.75 61.58 9.75 61.58 9.75 61.58 9.75 61.58 9.75 61.58 9.75 61.58 9.75" class="primitive"/>
            </g>
          </g>
        </g>
      </g>
    </g>
  </g>
  <g class="guide ylabels" font-size="2.82" font-family="'PT Sans Caption','Helvetica Neue','Helvetica',sans-serif" fill="#6C606B" id="img-a9676c5b-20">
    <g transform="translate(15.68,62.99)" id="img-a9676c5b-21">
      <g class="primitive">
        <text text-anchor="end" dy="0.35em">N</text>
      </g>
    </g>
    <g transform="translate(15.68,24.33)" id="img-a9676c5b-22">
      <g class="primitive">
        <text text-anchor="end" dy="0.35em">Y</text>
      </g>
    </g>
  </g>
  <g font-size="3.88" font-family="'PT Sans','Helvetica Neue','Helvetica',sans-serif" fill="#564A55" stroke="#000000" stroke-opacity="0.000" id="img-a9676c5b-23">
    <g transform="translate(8.81,41.66)" id="img-a9676c5b-24">
      <g class="primitive">
        <text text-anchor="middle" dy="0.35em" transform="rotate(-90,0, 2)">Contraception use</text>
      </g>
    </g>
  </g>
</g>
<defs>
  <clipPath id="img-a9676c5b-4">
    <path d="M16.69,5 L 147.4 5 147.4 82.32 16.69 82.32" />
  </clipPath>
</defs>
</svg>
