<?xml version="1.0" encoding="UTF-8"?>
<svg xmlns="http://www.w3.org/2000/svg"
     xmlns:xlink="http://www.w3.org/1999/xlink"
     xmlns:gadfly="http://www.gadflyjl.org/ns"
     version="1.2"
     width="203.2mm" height="101.6mm" viewBox="0 0 203.2 101.6"
     stroke="none"
     fill="#000000"
     stroke-width="0.3"
     font-size="3.88"
>
<g class="plotroot xscalable yscalable" id="img-da513d0c-1">
  <g font-size="3.88" font-family="'PT Sans','Helvetica Neue','Helvetica',sans-serif" fill="#564A55" stroke="#000000" stroke-opacity="0.000" id="img-da513d0c-2">
    <text x="103.44" y="89.99" text-anchor="middle" dy="0.6em">σ</text>
  </g>
  <g class="guide xlabels" font-size="2.82" font-family="'PT Sans Caption','Helvetica Neue','Helvetica',sans-serif" fill="#6C606B" id="img-da513d0c-3">
    <text x="10.67" y="83.32" text-anchor="middle" dy="0.6em">0.0</text>
    <text x="72.52" y="83.32" text-anchor="middle" dy="0.6em">0.5</text>
    <text x="134.36" y="83.32" text-anchor="middle" dy="0.6em">1.0</text>
    <text x="196.2" y="83.32" text-anchor="middle" dy="0.6em">1.5</text>
  </g>
<g clip-path="url(#img-da513d0c-4)">
  <g id="img-da513d0c-5">
    <g pointer-events="visible" opacity="1" fill="#000000" fill-opacity="0.000" stroke="#000000" stroke-opacity="0.000" class="guide background" id="img-da513d0c-6">
      <rect x="8.67" y="5" width="189.53" height="77.32"/>
    </g>
    <g class="guide ygridlines xfixed" stroke-dasharray="0.5,0.5" stroke-width="0.2" stroke="#D0D0E0" id="img-da513d0c-7">
      <path fill="none" d="M8.67,80.31 L 198.2 80.31"/>
      <path fill="none" d="M8.67,61.99 L 198.2 61.99"/>
      <path fill="none" d="M8.67,43.66 L 198.2 43.66"/>
      <path fill="none" d="M8.67,25.33 L 198.2 25.33"/>
      <path fill="none" d="M8.67,7 L 198.2 7"/>
    </g>
    <g class="guide xgridlines yfixed" stroke-dasharray="0.5,0.5" stroke-width="0.2" stroke="#D0D0E0" id="img-da513d0c-8">
      <path fill="none" d="M10.67,5 L 10.67 82.32"/>
      <path fill="none" d="M72.52,5 L 72.52 82.32"/>
      <path fill="none" d="M134.36,5 L 134.36 82.32"/>
      <path fill="none" d="M196.2,5 L 196.2 82.32"/>
    </g>
    <g class="plotpanel" id="img-da513d0c-9">
      <g stroke-width="0.3" fill="#000000" fill-opacity="0.000" class="geometry" stroke-dasharray="none" stroke="#00BFFF" id="img-da513d0c-10">
        <path fill="none" d="M61.07,80.31 L 61.52 80.31 61.96 80.31 62.41 80.31 62.85 80.31 63.29 80.31 63.74 80.31 64.18 80.31 64.62 80.3 65.07 80.29 65.51 80.28 65.96 80.27 66.4 80.24 66.84 80.22 67.29 80.19 67.73 80.15 68.18 80.11 68.62 80.08 69.06 80.04 69.51 80.01 69.95 79.98 70.39 79.96 70.84 79.93 71.28 79.9 71.73 79.88 72.17 79.85 72.61 79.81 73.06 79.77 73.5 79.72 73.94 79.66 74.39 79.59 74.83 79.5 75.28 79.4 75.72 79.27 76.16 79.11 76.61 78.93 77.05 78.72 77.5 78.48 77.94 78.23 78.38 77.96 78.83 77.67 79.27 77.38 79.71 77.09 80.16 76.8 80.6 76.5 81.05 76.2 81.49 75.9 81.93 75.58 82.38 75.24 82.82 74.87 83.26 74.46 83.71 74.01 84.15 73.5 84.6 72.92 85.04 72.28 85.48 71.58 85.93 70.81 86.37 69.98 86.82 69.12 87.26 68.21 87.7 67.28 88.15 66.34 88.59 65.37 89.03 64.38 89.48 63.37 89.92 62.32 90.37 61.22 90.81 60.08 91.25 58.87 91.7 57.6 92.14 56.26 92.59 54.87 93.03 53.44 93.47 51.99 93.92 50.54 94.36 49.14 94.8 47.79 95.25 46.51 95.69 45.31 96.14 44.16 96.58 43.06 97.02 41.97 97.47 40.85 97.91 39.66 98.35 38.4 98.8 37.04 99.24 35.58 99.69 34.05 100.13 32.47 100.57 30.88 101.02 29.32 101.46 27.82 101.91 26.4 102.35 25.1 102.79 23.92 103.24 22.87 103.68 21.92 104.12 21.05 104.57 20.23 105.01 19.43 105.46 18.62 105.9 17.78 106.34 16.9 106.79 16.01 107.23 15.12 107.67 14.29 108.12 13.54 108.56 12.9 109.01 12.39 109.45 12.01 109.89 11.76 110.34 11.64 110.78 11.64 111.23 11.76 111.67 11.96 112.11 12.23 112.56 12.54 113 12.85 113.44 13.14 113.89 13.4 114.33 13.64 114.78 13.88 115.22 14.16 115.66 14.5 116.11 14.95 116.55 15.52 117 16.24 117.44 17.1 117.88 18.1 118.33 19.23 118.77 20.46 119.21 21.78 119.66 23.17 120.1 24.61 120.55 26.08 120.99 27.6 121.43 29.14 121.88 30.71 122.32 32.31 122.76 33.92 123.21 35.53 123.65 37.13 124.1 38.71 124.54 40.26 124.98 41.78 125.43 43.27 125.87 44.73 126.32 46.17 126.76 47.57 127.2 48.93 127.65 50.21 128.09 51.4 128.53 52.49 128.98 53.47 129.42 54.36 129.87 55.19 130.31 56 130.75 56.84 131.2 57.71 131.64 58.64 132.08 59.62 132.53 60.63 132.97 61.64 133.42 62.62 133.86 63.54 134.3 64.41 134.75 65.22 135.19 65.99 135.64 66.73 136.08 67.47 136.52 68.23 136.97 69 137.41 69.78 137.85 70.56 138.3 71.32 138.74 72.02 139.19 72.64 139.63 73.19 140.07 73.65 140.52 74.05 140.96 74.4 141.41 74.72 141.85 75.04 142.29 75.35 142.74 75.67 143.18 75.98 143.62 76.27 144.07 76.53 144.51 76.76 144.96 76.95 145.4 77.1 145.84 77.23 146.29 77.36 146.73 77.49 147.17 77.63 147.62 77.78 148.06 77.95 148.51 78.13 148.95 78.32 149.39 78.51 149.84 78.69 150.28 78.87 150.73 79.04 151.17 79.21 151.61 79.36 152.06 79.5 152.5 79.63 152.94 79.74 153.39 79.83 153.83 79.89 154.28 79.94 154.72 79.97 155.16 80 155.61 80.01 156.05 80.02 156.49 80.04 156.94 80.05 157.38 80.08 157.83 80.1 158.27 80.14 158.71 80.17 159.16 80.19 159.6 80.22 160.05 80.23 160.49 80.24 160.93 80.25 161.38 80.26 161.82 80.26 162.26 80.26 162.71 80.26 163.15 80.26 163.6 80.27 164.04 80.27 164.48 80.27 164.93 80.27 165.37 80.27 165.82 80.27 166.26 80.26 166.7 80.26 167.15 80.27 167.59 80.27 168.03 80.28 168.48 80.28 168.92 80.29 169.37 80.3 169.81 80.3 170.25 80.31 170.7 80.31 171.14 80.31 171.58 80.31 172.03 80.31 172.47 80.31 172.92 80.31 173.36 80.31 173.8 80.31 174.25 80.31"/>
      </g>
    </g>
  </g>
</g>
  <g class="guide ylabels" font-size="2.82" font-family="'PT Sans Caption','Helvetica Neue','Helvetica',sans-serif" fill="#6C606B" id="img-da513d0c-11">
    <text x="7.67" y="80.31" text-anchor="end" dy="0.35em">0</text>
    <text x="7.67" y="61.99" text-anchor="end" dy="0.35em">1</text>
    <text x="7.67" y="43.66" text-anchor="end" dy="0.35em">2</text>
    <text x="7.67" y="25.33" text-anchor="end" dy="0.35em">3</text>
    <text x="7.67" y="7" text-anchor="end" dy="0.35em">4</text>
  </g>
</g>
<defs>
  <clipPath id="img-da513d0c-4">
  <path d="M8.67,5 L 198.2 5 198.2 82.32 8.67 82.32" />
</clipPath>
</defs>
</svg>
