<?xml version="1.0" encoding="UTF-8"?>
<svg xmlns="http://www.w3.org/2000/svg"
     xmlns:xlink="http://www.w3.org/1999/xlink"
     xmlns:gadfly="http://www.gadflyjl.org/ns"
     version="1.2"
     width="203.2mm" height="101.6mm" viewBox="0 0 203.2 101.6"
     stroke="none"
     fill="#000000"
     stroke-width="0.3"
     font-size="3.88"
>
<g class="plotroot xscalable yscalable" id="img-d5848304-1">
  <g font-size="3.88" font-family="'PT Sans','Helvetica Neue','Helvetica',sans-serif" fill="#564A55" stroke="#000000" stroke-opacity="0.000" id="img-d5848304-2">
    <text x="103.44" y="89.99" text-anchor="middle" dy="0.6em">σ</text>
  </g>
  <g class="guide xlabels" font-size="2.82" font-family="'PT Sans Caption','Helvetica Neue','Helvetica',sans-serif" fill="#6C606B" id="img-d5848304-3">
    <text x="10.67" y="83.32" text-anchor="middle" dy="0.6em">0.0</text>
    <text x="72.52" y="83.32" text-anchor="middle" dy="0.6em">0.5</text>
    <text x="134.36" y="83.32" text-anchor="middle" dy="0.6em">1.0</text>
    <text x="196.2" y="83.32" text-anchor="middle" dy="0.6em">1.5</text>
  </g>
<g clip-path="url(#img-d5848304-4)">
  <g id="img-d5848304-5">
    <g pointer-events="visible" opacity="1" fill="#000000" fill-opacity="0.000" stroke="#000000" stroke-opacity="0.000" class="guide background" id="img-d5848304-6">
      <rect x="8.67" y="5" width="189.53" height="77.32"/>
    </g>
    <g class="guide ygridlines xfixed" stroke-dasharray="0.5,0.5" stroke-width="0.2" stroke="#D0D0E0" id="img-d5848304-7">
      <path fill="none" d="M8.67,80.31 L 198.2 80.31"/>
      <path fill="none" d="M8.67,61.99 L 198.2 61.99"/>
      <path fill="none" d="M8.67,43.66 L 198.2 43.66"/>
      <path fill="none" d="M8.67,25.33 L 198.2 25.33"/>
      <path fill="none" d="M8.67,7 L 198.2 7"/>
    </g>
    <g class="guide xgridlines yfixed" stroke-dasharray="0.5,0.5" stroke-width="0.2" stroke="#D0D0E0" id="img-d5848304-8">
      <path fill="none" d="M10.67,5 L 10.67 82.32"/>
      <path fill="none" d="M72.52,5 L 72.52 82.32"/>
      <path fill="none" d="M134.36,5 L 134.36 82.32"/>
      <path fill="none" d="M196.2,5 L 196.2 82.32"/>
    </g>
    <g class="plotpanel" id="img-d5848304-9">
      <g stroke-width="0.3" fill="#000000" fill-opacity="0.000" class="geometry" id="img-d5848304-10">
        <g stroke-dasharray="none" stroke="#00BFFF" id="img-d5848304-11">
          <path fill="none" d="M60.92,80.31 L 61.38 80.31 61.84 80.31 62.3 80.31 62.76 80.31 63.22 80.31 63.68 80.31 64.14 80.31 64.6 80.31 65.06 80.3 65.52 80.3 65.98 80.29 66.44 80.27 66.9 80.26 67.36 80.24 67.82 80.22 68.29 80.2 68.75 80.18 69.21 80.16 69.67 80.14 70.13 80.12 70.59 80.09 71.05 80.06 71.51 80.01 71.97 79.95 72.43 79.87 72.89 79.76 73.35 79.63 73.81 79.48 74.27 79.33 74.73 79.18 75.19 79.04 75.65 78.91 76.11 78.79 76.57 78.67 77.03 78.54 77.5 78.39 77.96 78.22 78.42 78.02 78.88 77.79 79.34 77.53 79.8 77.24 80.26 76.9 80.72 76.53 81.18 76.11 81.64 75.64 82.1 75.1 82.56 74.51 83.02 73.86 83.48 73.16 83.94 72.44 84.4 71.7 84.86 70.96 85.32 70.24 85.78 69.55 86.24 68.89 86.7 68.26 87.17 67.64 87.63 67.03 88.09 66.4 88.55 65.72 89.01 64.98 89.47 64.16 89.93 63.27 90.39 62.31 90.85 61.3 91.31 60.23 91.77 59.13 92.23 57.98 92.69 56.78 93.15 55.5 93.61 54.12 94.07 52.62 94.53 50.98 94.99 49.23 95.45 47.37 95.91 45.46 96.38 43.55 96.84 41.68 97.3 39.89 97.76 38.22 98.22 36.66 98.68 35.18 99.14 33.75 99.6 32.33 100.06 30.9 100.52 29.44 100.98 27.97 101.44 26.52 101.9 25.14 102.36 23.87 102.82 22.75 103.28 21.77 103.74 20.94 104.2 20.19 104.66 19.48 105.12 18.74 105.58 17.92 106.05 17.01 106.51 16.01 106.97 14.98 107.43 13.96 107.89 13.04 108.35 12.27 108.81 11.68 109.27 11.27 109.73 11.05 110.19 10.98 110.65 11.05 111.11 11.23 111.57 11.52 112.03 11.91 112.49 12.42 112.95 13.01 113.41 13.69 113.87 14.41 114.33 15.13 114.79 15.82 115.26 16.46 115.72 17.05 116.18 17.61 116.64 18.2 117.1 18.85 117.56 19.62 118.02 20.51 118.48 21.53 118.94 22.68 119.4 23.93 119.86 25.27 120.32 26.67 120.78 28.11 121.24 29.57 121.7 31.05 122.16 32.52 122.62 33.99 123.08 35.45 123.54 36.9 124 38.33 124.46 39.75 124.93 41.17 125.39 42.57 125.85 43.98 126.31 45.39 126.77 46.8 127.23 48.2 127.69 49.58 128.15 50.91 128.61 52.18 129.07 53.37 129.53 54.47 129.99 55.48 130.45 56.43 130.91 57.32 131.37 58.21 131.83 59.1 132.29 60.02 132.75 60.96 133.21 61.9 133.67 62.82 134.14 63.7 134.6 64.52 135.06 65.3 135.52 66.04 135.98 66.78 136.44 67.53 136.9 68.3 137.36 69.1 137.82 69.91 138.28 70.72 138.74 71.5 139.2 72.23 139.66 72.89 140.12 73.48 140.58 73.99 141.04 74.43 141.5 74.81 141.96 75.14 142.42 75.45 142.88 75.74 143.34 76.02 143.81 76.3 144.27 76.57 144.73 76.85 145.19 77.11 145.65 77.37 146.11 77.61 146.57 77.83 147.03 78.04 147.49 78.23 147.95 78.4 148.41 78.55 148.87 78.68 149.33 78.79 149.79 78.9 150.25 79 150.71 79.1 151.17 79.21 151.63 79.32 152.09 79.43 152.55 79.55 153.02 79.65 153.48 79.75 153.94 79.84 154.4 79.91 154.86 79.96 155.32 79.99 155.78 80.01 156.24 80.02 156.7 80.02 157.16 80.02 157.62 80.02 158.08 80.04 158.54 80.06 159 80.09 159.46 80.12 159.92 80.16 160.38 80.19 160.84 80.21 161.3 80.23 161.76 80.24 162.22 80.25 162.69 80.26 163.15 80.26 163.61 80.26 164.07 80.27 164.53 80.28 164.99 80.28 165.45 80.29 165.91 80.3 166.37 80.3 166.83 80.3 167.29 80.3 167.75 80.3 168.21 80.3 168.67 80.29 169.13 80.28 169.59 80.28 170.05 80.27 170.51 80.27 170.97 80.27 171.43 80.27 171.9 80.27 172.36 80.28 172.82 80.29 173.28 80.29 173.74 80.3 174.2 80.3 174.66 80.31 175.12 80.31 175.58 80.31 176.04 80.31 176.5 80.31 176.96 80.31 177.42 80.31 177.88 80.31 178.34 80.31"/>
        </g>
      </g>
    </g>
  </g>
</g>
  <g class="guide ylabels" font-size="2.82" font-family="'PT Sans Caption','Helvetica Neue','Helvetica',sans-serif" fill="#6C606B" id="img-d5848304-12">
    <text x="7.67" y="80.31" text-anchor="end" dy="0.35em">0</text>
    <text x="7.67" y="61.99" text-anchor="end" dy="0.35em">1</text>
    <text x="7.67" y="43.66" text-anchor="end" dy="0.35em">2</text>
    <text x="7.67" y="25.33" text-anchor="end" dy="0.35em">3</text>
    <text x="7.67" y="7" text-anchor="end" dy="0.35em">4</text>
  </g>
</g>
<defs>
  <clipPath id="img-d5848304-4">
  <path d="M8.67,5 L 198.2 5 198.2 82.32 8.67 82.32" />
</clipPath>
</defs>
</svg>
