<?xml version="1.0" encoding="UTF-8"?>
<svg xmlns="http://www.w3.org/2000/svg"
     xmlns:xlink="http://www.w3.org/1999/xlink"
     xmlns:gadfly="http://www.gadflyjl.org/ns"
     version="1.2"
     width="203.2mm" height="101.6mm" viewBox="0 0 203.2 101.6"
     stroke="none"
     fill="#000000"
     stroke-width="0.3"
     font-size="3.88"
>
<g class="plotroot xscalable yscalable" id="img-fe97490b-1">
  <g font-size="3.88" font-family="'PT Sans','Helvetica Neue','Helvetica',sans-serif" fill="#564A55" stroke="#000000" stroke-opacity="0.000" id="img-fe97490b-2">
    <text x="107.48" y="89.99" text-anchor="middle" dy="0.6em">ρ₁₂</text>
  </g>
  <g class="guide xlabels" font-size="2.82" font-family="'PT Sans Caption','Helvetica Neue','Helvetica',sans-serif" fill="#6C606B" id="img-fe97490b-3">
    <text x="18.77" y="83.32" text-anchor="middle" dy="0.6em">-1.0</text>
    <text x="54.25" y="83.32" text-anchor="middle" dy="0.6em">-0.5</text>
    <text x="89.74" y="83.32" text-anchor="middle" dy="0.6em">0.0</text>
    <text x="125.23" y="83.32" text-anchor="middle" dy="0.6em">0.5</text>
    <text x="160.71" y="83.32" text-anchor="middle" dy="0.6em">1.0</text>
    <text x="196.2" y="83.32" text-anchor="middle" dy="0.6em">1.5</text>
  </g>
<g clip-path="url(#img-fe97490b-4)">
  <g id="img-fe97490b-5">
    <g pointer-events="visible" opacity="1" fill="#000000" fill-opacity="0.000" stroke="#000000" stroke-opacity="0.000" class="guide background" id="img-fe97490b-6">
      <rect x="16.77" y="5" width="181.43" height="77.32"/>
    </g>
    <g class="guide ygridlines xfixed" stroke-dasharray="0.5,0.5" stroke-width="0.2" stroke="#D0D0E0" id="img-fe97490b-7">
      <path fill="none" d="M16.77,80.31 L 198.2 80.31"/>
      <path fill="none" d="M16.77,55.88 L 198.2 55.88"/>
      <path fill="none" d="M16.77,31.44 L 198.2 31.44"/>
      <path fill="none" d="M16.77,7 L 198.2 7"/>
    </g>
    <g class="guide xgridlines yfixed" stroke-dasharray="0.5,0.5" stroke-width="0.2" stroke="#D0D0E0" id="img-fe97490b-8">
      <path fill="none" d="M18.77,5 L 18.77 82.32"/>
      <path fill="none" d="M54.25,5 L 54.25 82.32"/>
      <path fill="none" d="M89.74,5 L 89.74 82.32"/>
      <path fill="none" d="M125.23,5 L 125.23 82.32"/>
      <path fill="none" d="M160.71,5 L 160.71 82.32"/>
      <path fill="none" d="M196.2,5 L 196.2 82.32"/>
    </g>
    <g class="plotpanel" id="img-fe97490b-9">
      <g shape-rendering="crispEdges" stroke-width="0.3" id="img-fe97490b-10">
        <g stroke="#000000" stroke-opacity="0.000" class="geometry" fill="#00BFFF" id="img-fe97490b-11">
          <rect x="18.74" y="66.12" width="1" height="14.2"/>
          <rect x="19.69" y="80.05" width="1" height="0.27"/>
          <rect x="20.63" y="80.24" width="1" height="0.07"/>
          <rect x="21.58" y="79.97" width="1" height="0.34"/>
          <rect x="22.53" y="80.07" width="1" height="0.24"/>
          <rect x="23.47" y="79.46" width="1" height="0.86"/>
          <rect x="24.42" y="79.48" width="1" height="0.83"/>
          <rect x="25.37" y="79.17" width="1" height="1.15"/>
          <rect x="26.31" y="79.24" width="1" height="1.08"/>
          <rect x="27.26" y="78.78" width="1" height="1.54"/>
          <rect x="28.2" y="78.75" width="1" height="1.56"/>
          <rect x="29.15" y="78.56" width="1" height="1.76"/>
          <rect x="30.1" y="78.26" width="1" height="2.05"/>
          <rect x="31.04" y="78.26" width="1" height="2.05"/>
          <rect x="31.99" y="78.19" width="1" height="2.13"/>
          <rect x="32.94" y="78.34" width="1" height="1.98"/>
          <rect x="33.88" y="77.77" width="1" height="2.54"/>
          <rect x="34.83" y="77.68" width="1" height="2.64"/>
          <rect x="35.78" y="77.58" width="1" height="2.74"/>
          <rect x="36.72" y="77.16" width="1" height="3.15"/>
          <rect x="37.67" y="77.75" width="1" height="2.57"/>
          <rect x="38.61" y="77.7" width="1" height="2.61"/>
          <rect x="39.56" y="77.58" width="1" height="2.74"/>
          <rect x="40.51" y="77.31" width="1" height="3.01"/>
          <rect x="41.45" y="77.68" width="1" height="2.64"/>
          <rect x="42.4" y="77.7" width="1" height="2.61"/>
          <rect x="43.35" y="77.8" width="1" height="2.52"/>
          <rect x="44.29" y="77.75" width="1" height="2.57"/>
          <rect x="45.24" y="77.9" width="1" height="2.42"/>
          <rect x="46.18" y="77.85" width="1" height="2.47"/>
          <rect x="47.13" y="77.94" width="1" height="2.37"/>
          <rect x="48.08" y="77.7" width="1" height="2.61"/>
          <rect x="49.02" y="77.72" width="1" height="2.59"/>
          <rect x="49.97" y="77.9" width="1" height="2.42"/>
          <rect x="50.92" y="77.53" width="1" height="2.79"/>
          <rect x="51.86" y="78.07" width="1" height="2.25"/>
          <rect x="52.81" y="77.85" width="1" height="2.47"/>
          <rect x="53.76" y="78.04" width="1" height="2.27"/>
          <rect x="54.7" y="77.75" width="1" height="2.57"/>
          <rect x="55.65" y="78.07" width="1" height="2.25"/>
          <rect x="56.59" y="78.12" width="1" height="2.2"/>
          <rect x="57.54" y="78.26" width="1" height="2.05"/>
          <rect x="58.49" y="78.12" width="1" height="2.2"/>
          <rect x="59.43" y="78.46" width="1" height="1.86"/>
          <rect x="60.38" y="78.41" width="1" height="1.91"/>
          <rect x="61.33" y="78.43" width="1" height="1.88"/>
          <rect x="62.27" y="78.16" width="1" height="2.15"/>
          <rect x="63.22" y="78.68" width="1" height="1.64"/>
          <rect x="64.16" y="78.51" width="1" height="1.81"/>
          <rect x="65.11" y="78.51" width="1" height="1.81"/>
          <rect x="66.06" y="78.7" width="1" height="1.61"/>
          <rect x="67" y="78.58" width="1" height="1.74"/>
          <rect x="67.95" y="78.41" width="1" height="1.91"/>
          <rect x="68.9" y="78.97" width="1" height="1.34"/>
          <rect x="69.84" y="78.8" width="1" height="1.52"/>
          <rect x="70.79" y="78.63" width="1" height="1.69"/>
          <rect x="71.74" y="78.85" width="1" height="1.47"/>
          <rect x="72.68" y="78.46" width="1" height="1.86"/>
          <rect x="73.63" y="79.29" width="1" height="1.03"/>
          <rect x="74.57" y="79.14" width="1" height="1.17"/>
          <rect x="75.52" y="78.56" width="1" height="1.76"/>
          <rect x="76.47" y="79.02" width="1" height="1.3"/>
          <rect x="77.41" y="79.22" width="1" height="1.1"/>
          <rect x="78.36" y="78.9" width="1" height="1.42"/>
          <rect x="79.31" y="78.92" width="1" height="1.39"/>
          <rect x="80.25" y="78.85" width="1" height="1.47"/>
          <rect x="81.2" y="79.17" width="1" height="1.15"/>
          <rect x="82.14" y="79.14" width="1" height="1.17"/>
          <rect x="83.09" y="79.34" width="1" height="0.98"/>
          <rect x="84.04" y="79.31" width="1" height="1"/>
          <rect x="84.98" y="79.19" width="1" height="1.12"/>
          <rect x="85.93" y="79.39" width="1" height="0.93"/>
          <rect x="86.88" y="79.36" width="1" height="0.95"/>
          <rect x="87.82" y="79.48" width="1" height="0.83"/>
          <rect x="88.77" y="79.44" width="1" height="0.88"/>
          <rect x="89.72" y="79.63" width="1" height="0.68"/>
          <rect x="90.66" y="79.73" width="1" height="0.59"/>
          <rect x="91.61" y="79.63" width="1" height="0.68"/>
          <rect x="92.55" y="79.36" width="1" height="0.95"/>
          <rect x="93.5" y="79.58" width="1" height="0.73"/>
          <rect x="94.45" y="79.66" width="1" height="0.66"/>
          <rect x="95.39" y="79.56" width="1" height="0.76"/>
          <rect x="96.34" y="79.63" width="1" height="0.68"/>
          <rect x="97.29" y="79.66" width="1" height="0.66"/>
          <rect x="98.23" y="79.56" width="1" height="0.76"/>
          <rect x="99.18" y="79.7" width="1" height="0.61"/>
          <rect x="100.12" y="79.7" width="1" height="0.61"/>
          <rect x="101.07" y="79.9" width="1" height="0.42"/>
          <rect x="102.02" y="79.51" width="1" height="0.81"/>
          <rect x="102.96" y="79.73" width="1" height="0.59"/>
          <rect x="103.91" y="79.61" width="1" height="0.71"/>
          <rect x="104.86" y="79.8" width="1" height="0.51"/>
          <rect x="105.8" y="79.73" width="1" height="0.59"/>
          <rect x="106.75" y="79.88" width="1" height="0.44"/>
          <rect x="107.69" y="79.8" width="1" height="0.51"/>
          <rect x="108.64" y="79.78" width="1" height="0.54"/>
          <rect x="109.59" y="79.7" width="1" height="0.61"/>
          <rect x="110.53" y="79.8" width="1" height="0.51"/>
          <rect x="111.48" y="79.78" width="1" height="0.54"/>
          <rect x="112.43" y="79.92" width="1" height="0.39"/>
          <rect x="113.37" y="79.85" width="1" height="0.46"/>
          <rect x="114.32" y="79.73" width="1" height="0.59"/>
          <rect x="115.27" y="79.8" width="1" height="0.51"/>
          <rect x="116.21" y="79.9" width="1" height="0.42"/>
          <rect x="117.16" y="79.9" width="1" height="0.42"/>
          <rect x="118.1" y="80.02" width="1" height="0.29"/>
          <rect x="119.05" y="79.83" width="1" height="0.49"/>
          <rect x="120" y="79.8" width="1" height="0.51"/>
          <rect x="120.94" y="79.97" width="1" height="0.34"/>
          <rect x="121.89" y="80" width="1" height="0.32"/>
          <rect x="122.84" y="79.97" width="1" height="0.34"/>
          <rect x="123.78" y="79.97" width="1" height="0.34"/>
          <rect x="124.73" y="80.07" width="1" height="0.24"/>
          <rect x="125.67" y="79.92" width="1" height="0.39"/>
          <rect x="126.62" y="80.07" width="1" height="0.24"/>
          <rect x="127.57" y="80" width="1" height="0.32"/>
          <rect x="128.51" y="79.8" width="1" height="0.51"/>
          <rect x="129.46" y="80.12" width="1" height="0.2"/>
          <rect x="130.41" y="79.9" width="1" height="0.42"/>
          <rect x="131.35" y="80.14" width="1" height="0.17"/>
          <rect x="132.3" y="79.97" width="1" height="0.34"/>
          <rect x="133.25" y="79.85" width="1" height="0.46"/>
          <rect x="134.19" y="79.95" width="1" height="0.37"/>
          <rect x="135.14" y="80.17" width="1" height="0.15"/>
          <rect x="136.08" y="80.05" width="1" height="0.27"/>
          <rect x="137.03" y="80.1" width="1" height="0.22"/>
          <rect x="137.98" y="80.12" width="1" height="0.2"/>
          <rect x="138.92" y="80.12" width="1" height="0.2"/>
          <rect x="139.87" y="79.97" width="1" height="0.34"/>
          <rect x="140.82" y="80.02" width="1" height="0.29"/>
          <rect x="141.76" y="80.05" width="1" height="0.27"/>
          <rect x="142.71" y="80.05" width="1" height="0.27"/>
          <rect x="143.65" y="80.1" width="1" height="0.22"/>
          <rect x="144.6" y="80.19" width="1" height="0.12"/>
          <rect x="145.55" y="80.22" width="1" height="0.1"/>
          <rect x="146.49" y="80.05" width="1" height="0.27"/>
          <rect x="147.44" y="80.14" width="1" height="0.17"/>
          <rect x="148.39" y="80.07" width="1" height="0.24"/>
          <rect x="149.33" y="80.14" width="1" height="0.17"/>
          <rect x="150.28" y="80.12" width="1" height="0.2"/>
          <rect x="151.23" y="79.92" width="1" height="0.39"/>
          <rect x="152.17" y="80.12" width="1" height="0.2"/>
          <rect x="153.12" y="80.05" width="1" height="0.27"/>
          <rect x="154.06" y="80.12" width="1" height="0.2"/>
          <rect x="155.01" y="80.07" width="1" height="0.24"/>
          <rect x="155.96" y="80" width="1" height="0.32"/>
          <rect x="156.9" y="80.1" width="1" height="0.22"/>
          <rect x="157.85" y="79.95" width="1" height="0.37"/>
          <rect x="158.8" y="80.12" width="1" height="0.2"/>
          <rect x="159.74" y="13.23" width="1" height="67.08"/>
        </g>
      </g>
    </g>
  </g>
</g>
  <g class="guide ylabels" font-size="2.82" font-family="'PT Sans Caption','Helvetica Neue','Helvetica',sans-serif" fill="#6C606B" id="img-fe97490b-12">
    <text x="15.77" y="80.31" text-anchor="end" dy="0.35em">0</text>
    <text x="15.77" y="55.88" text-anchor="end" dy="0.35em">1×10³</text>
    <text x="15.77" y="31.44" text-anchor="end" dy="0.35em">2×10³</text>
    <text x="15.77" y="7" text-anchor="end" dy="0.35em">3×10³</text>
  </g>
</g>
<defs>
  <clipPath id="img-fe97490b-4">
  <path d="M16.77,5 L 198.2 5 198.2 82.32 16.77 82.32" />
</clipPath>
</defs>
</svg>
