<?xml version="1.0" encoding="UTF-8"?>
<svg xmlns="http://www.w3.org/2000/svg"
     xmlns:xlink="http://www.w3.org/1999/xlink"
     xmlns:gadfly="http://www.gadflyjl.org/ns"
     version="1.2"
     width="203.2mm" height="101.6mm" viewBox="0 0 203.2 101.6"
     stroke="none"
     fill="#000000"
     stroke-width="0.3"
     font-size="3.88"
>
<g class="plotroot xscalable yscalable" id="img-d1d30130-1">
  <g font-size="3.88" font-family="'PT Sans','Helvetica Neue','Helvetica',sans-serif" fill="#564A55" stroke="#000000" stroke-opacity="0.000" id="img-d1d30130-2">
    <text x="105.11" y="89.99" text-anchor="middle" dy="0.6em">κ⁻¹</text>
  </g>
  <g class="guide xlabels" font-size="2.82" font-family="'PT Sans Caption','Helvetica Neue','Helvetica',sans-serif" fill="#6C606B" id="img-d1d30130-3">
    <text x="14.02" y="83.32" text-anchor="middle" dy="0.6em">0.0</text>
    <text x="59.56" y="83.32" text-anchor="middle" dy="0.6em">0.1</text>
    <text x="105.11" y="83.32" text-anchor="middle" dy="0.6em">0.2</text>
    <text x="150.66" y="83.32" text-anchor="middle" dy="0.6em">0.3</text>
    <text x="196.2" y="83.32" text-anchor="middle" dy="0.6em">0.4</text>
  </g>
<g clip-path="url(#img-d1d30130-4)">
  <g id="img-d1d30130-5">
    <g pointer-events="visible" opacity="1" fill="#000000" fill-opacity="0.000" stroke="#000000" stroke-opacity="0.000" class="guide background" id="img-d1d30130-6">
      <rect x="12.02" y="5" width="186.18" height="77.32"/>
    </g>
    <g class="guide ygridlines xfixed" stroke-dasharray="0.5,0.5" stroke-width="0.2" stroke="#D0D0E0" id="img-d1d30130-7">
      <path fill="none" d="M12.02,80.32 L 198.2 80.32"/>
      <path fill="none" d="M12.02,55.88 L 198.2 55.88"/>
      <path fill="none" d="M12.02,31.44 L 198.2 31.44"/>
      <path fill="none" d="M12.02,7 L 198.2 7"/>
    </g>
    <g class="guide xgridlines yfixed" stroke-dasharray="0.5,0.5" stroke-width="0.2" stroke="#D0D0E0" id="img-d1d30130-8">
      <path fill="none" d="M14.02,5 L 14.02 82.32"/>
      <path fill="none" d="M59.56,5 L 59.56 82.32"/>
      <path fill="none" d="M105.11,5 L 105.11 82.32"/>
      <path fill="none" d="M150.66,5 L 150.66 82.32"/>
      <path fill="none" d="M196.2,5 L 196.2 82.32"/>
    </g>
    <g class="plotpanel" id="img-d1d30130-9">
      <g shape-rendering="crispEdges" stroke-width="0.3" id="img-d1d30130-10">
        <g stroke="#000000" stroke-opacity="0.000" class="geometry" fill="#00BFFF" id="img-d1d30130-11">
          <rect x="42.01" y="80.07" width="0.98" height="0.24"/>
          <rect x="42.95" y="80.07" width="0.98" height="0.24"/>
          <rect x="43.88" y="79.83" width="0.98" height="0.49"/>
          <rect x="44.81" y="80.07" width="0.98" height="0.24"/>
          <rect x="45.75" y="79.58" width="0.98" height="0.73"/>
          <rect x="46.68" y="79.83" width="0.98" height="0.49"/>
          <rect x="47.61" y="79.09" width="0.98" height="1.22"/>
          <rect x="48.54" y="79.34" width="0.98" height="0.98"/>
          <rect x="49.48" y="78.85" width="0.98" height="1.47"/>
          <rect x="50.41" y="78.12" width="0.98" height="2.2"/>
          <rect x="51.34" y="76.65" width="0.98" height="3.67"/>
          <rect x="52.27" y="74.94" width="0.98" height="5.38"/>
          <rect x="53.21" y="76.65" width="0.98" height="3.67"/>
          <rect x="54.14" y="73.72" width="0.98" height="6.6"/>
          <rect x="55.07" y="73.23" width="0.98" height="7.09"/>
          <rect x="56.01" y="72.25" width="0.98" height="8.06"/>
          <rect x="56.94" y="70.54" width="0.98" height="9.78"/>
          <rect x="57.87" y="71.27" width="0.98" height="9.04"/>
          <rect x="58.8" y="67.61" width="0.98" height="12.71"/>
          <rect x="59.74" y="61.74" width="0.98" height="18.57"/>
          <rect x="60.67" y="61.25" width="0.98" height="19.06"/>
          <rect x="61.6" y="62.48" width="0.98" height="17.84"/>
          <rect x="62.53" y="58.08" width="0.98" height="22.24"/>
          <rect x="63.47" y="52.7" width="0.98" height="27.62"/>
          <rect x="64.4" y="49.77" width="0.98" height="30.55"/>
          <rect x="65.33" y="51.72" width="0.98" height="28.59"/>
          <rect x="66.26" y="42.44" width="0.98" height="37.88"/>
          <rect x="67.2" y="44.88" width="0.98" height="35.44"/>
          <rect x="68.13" y="44.64" width="0.98" height="35.68"/>
          <rect x="69.06" y="35.84" width="0.98" height="44.48"/>
          <rect x="70" y="32.42" width="0.98" height="47.9"/>
          <rect x="70.93" y="30.46" width="0.98" height="49.85"/>
          <rect x="71.86" y="32.42" width="0.98" height="47.9"/>
          <rect x="72.79" y="31.44" width="0.98" height="48.88"/>
          <rect x="73.73" y="31.19" width="0.98" height="49.12"/>
          <rect x="74.66" y="26.8" width="0.98" height="53.52"/>
          <rect x="75.59" y="22.15" width="0.98" height="58.16"/>
          <rect x="76.52" y="16.29" width="0.98" height="64.03"/>
          <rect x="77.46" y="21.91" width="0.98" height="58.41"/>
          <rect x="78.39" y="19.95" width="0.98" height="60.36"/>
          <rect x="79.32" y="22.15" width="0.98" height="58.16"/>
          <rect x="80.25" y="20.44" width="0.98" height="59.87"/>
          <rect x="81.19" y="22.4" width="0.98" height="57.92"/>
          <rect x="82.12" y="13.35" width="0.98" height="66.96"/>
          <rect x="83.05" y="14.09" width="0.98" height="66.23"/>
          <rect x="83.99" y="14.82" width="0.98" height="65.49"/>
          <rect x="84.92" y="18.24" width="0.98" height="62.07"/>
          <rect x="85.85" y="26.06" width="0.98" height="54.25"/>
          <rect x="86.78" y="24.84" width="0.98" height="55.48"/>
          <rect x="87.72" y="28.26" width="0.98" height="52.05"/>
          <rect x="88.65" y="23.86" width="0.98" height="56.45"/>
          <rect x="89.58" y="31.93" width="0.98" height="48.39"/>
          <rect x="90.51" y="35.84" width="0.98" height="44.48"/>
          <rect x="91.45" y="28.02" width="0.98" height="52.3"/>
          <rect x="92.38" y="35.59" width="0.98" height="44.72"/>
          <rect x="93.31" y="36.33" width="0.98" height="43.99"/>
          <rect x="94.25" y="39.99" width="0.98" height="40.32"/>
          <rect x="95.18" y="36.33" width="0.98" height="43.99"/>
          <rect x="96.11" y="39.99" width="0.98" height="40.32"/>
          <rect x="97.04" y="47.32" width="0.98" height="32.99"/>
          <rect x="97.98" y="44.15" width="0.98" height="36.17"/>
          <rect x="98.91" y="51.97" width="0.98" height="28.35"/>
          <rect x="99.84" y="52.21" width="0.98" height="28.1"/>
          <rect x="100.77" y="52.46" width="0.98" height="27.86"/>
          <rect x="101.71" y="51.72" width="0.98" height="28.59"/>
          <rect x="102.64" y="60.52" width="0.98" height="19.8"/>
          <rect x="103.57" y="57.59" width="0.98" height="22.73"/>
          <rect x="104.5" y="55.88" width="0.98" height="24.44"/>
          <rect x="105.44" y="57.34" width="0.98" height="22.97"/>
          <rect x="106.37" y="63.7" width="0.98" height="16.62"/>
          <rect x="107.3" y="60.76" width="0.98" height="19.55"/>
          <rect x="108.24" y="64.19" width="0.98" height="16.13"/>
          <rect x="109.17" y="65.16" width="0.98" height="15.15"/>
          <rect x="110.1" y="67.36" width="0.98" height="12.95"/>
          <rect x="111.03" y="68.83" width="0.98" height="11.49"/>
          <rect x="111.97" y="67.12" width="0.98" height="13.2"/>
          <rect x="112.9" y="68.1" width="0.98" height="12.22"/>
          <rect x="113.83" y="69.07" width="0.98" height="11.24"/>
          <rect x="114.76" y="70.54" width="0.98" height="9.78"/>
          <rect x="115.7" y="72.25" width="0.98" height="8.06"/>
          <rect x="116.63" y="73.72" width="0.98" height="6.6"/>
          <rect x="117.56" y="72.25" width="0.98" height="8.06"/>
          <rect x="118.49" y="75.92" width="0.98" height="4.4"/>
          <rect x="119.43" y="75.67" width="0.98" height="4.64"/>
          <rect x="120.36" y="74.94" width="0.98" height="5.38"/>
          <rect x="121.29" y="74.45" width="0.98" height="5.87"/>
          <rect x="122.23" y="74.94" width="0.98" height="5.38"/>
          <rect x="123.16" y="76.89" width="0.98" height="3.42"/>
          <rect x="124.09" y="74.69" width="0.98" height="5.62"/>
          <rect x="125.02" y="77.38" width="0.98" height="2.93"/>
          <rect x="125.96" y="77.87" width="0.98" height="2.44"/>
          <rect x="126.89" y="76.4" width="0.98" height="3.91"/>
          <rect x="127.82" y="77.38" width="0.98" height="2.93"/>
          <rect x="128.75" y="78.6" width="0.98" height="1.71"/>
          <rect x="129.69" y="78.85" width="0.98" height="1.47"/>
          <rect x="130.62" y="78.36" width="0.98" height="1.96"/>
          <rect x="131.55" y="77.63" width="0.98" height="2.69"/>
          <rect x="132.49" y="79.58" width="0.98" height="0.73"/>
          <rect x="133.42" y="79.34" width="0.98" height="0.98"/>
          <rect x="134.35" y="78.12" width="0.98" height="2.2"/>
          <rect x="135.28" y="79.83" width="0.98" height="0.49"/>
          <rect x="136.22" y="79.09" width="0.98" height="1.22"/>
          <rect x="137.15" y="79.58" width="0.98" height="0.73"/>
          <rect x="138.08" y="80.07" width="0.98" height="0.24"/>
          <rect x="139.01" y="79.83" width="0.98" height="0.49"/>
          <rect x="139.95" y="80.07" width="0.98" height="0.24"/>
          <rect x="140.88" y="80.32" width="0.98" height="0.01"/>
          <rect x="141.81" y="79.83" width="0.98" height="0.49"/>
          <rect x="142.74" y="79.58" width="0.98" height="0.73"/>
          <rect x="143.68" y="80.32" width="0.98" height="0.01"/>
          <rect x="144.61" y="80.07" width="0.98" height="0.24"/>
          <rect x="145.54" y="80.07" width="0.98" height="0.24"/>
          <rect x="146.48" y="79.83" width="0.98" height="0.49"/>
          <rect x="147.41" y="80.07" width="0.98" height="0.24"/>
          <rect x="148.34" y="80.07" width="0.98" height="0.24"/>
          <rect x="149.27" y="80.32" width="0.98" height="0.01"/>
          <rect x="150.21" y="80.07" width="0.98" height="0.24"/>
          <rect x="151.14" y="80.07" width="0.98" height="0.24"/>
          <rect x="152.07" y="80.32" width="0.98" height="0.01"/>
          <rect x="153" y="80.32" width="0.98" height="0.01"/>
          <rect x="153.94" y="80.32" width="0.98" height="0.01"/>
          <rect x="154.87" y="80.32" width="0.98" height="0.01"/>
          <rect x="155.8" y="79.83" width="0.98" height="0.49"/>
          <rect x="156.73" y="80.07" width="0.98" height="0.24"/>
          <rect x="157.67" y="80.32" width="0.98" height="0.01"/>
          <rect x="158.6" y="80.32" width="0.98" height="0.01"/>
          <rect x="159.53" y="80.32" width="0.98" height="0.01"/>
          <rect x="160.47" y="80.32" width="0.98" height="0.01"/>
          <rect x="161.4" y="80.32" width="0.98" height="0.01"/>
          <rect x="162.33" y="80.32" width="0.98" height="0.01"/>
          <rect x="163.26" y="80.32" width="0.98" height="0.01"/>
          <rect x="164.2" y="80.32" width="0.98" height="0.01"/>
          <rect x="165.13" y="80.32" width="0.98" height="0.01"/>
          <rect x="166.06" y="80.32" width="0.98" height="0.01"/>
          <rect x="166.99" y="80.32" width="0.98" height="0.01"/>
          <rect x="167.93" y="80.32" width="0.98" height="0.01"/>
          <rect x="168.86" y="80.07" width="0.98" height="0.24"/>
          <rect x="169.79" y="80.07" width="0.98" height="0.24"/>
          <rect x="170.72" y="80.32" width="0.98" height="0.01"/>
          <rect x="171.66" y="80.32" width="0.98" height="0.01"/>
          <rect x="172.59" y="80.32" width="0.98" height="0.01"/>
          <rect x="173.52" y="80.32" width="0.98" height="0.01"/>
          <rect x="174.46" y="80.32" width="0.98" height="0.01"/>
          <rect x="175.39" y="80.32" width="0.98" height="0.01"/>
          <rect x="176.32" y="80.07" width="0.98" height="0.24"/>
          <rect x="177.25" y="80.32" width="0.98" height="0.01"/>
          <rect x="178.19" y="80.32" width="0.98" height="0.01"/>
          <rect x="179.12" y="80.32" width="0.98" height="0.01"/>
          <rect x="180.05" y="80.32" width="0.98" height="0.01"/>
          <rect x="180.98" y="80.07" width="0.98" height="0.24"/>
        </g>
      </g>
    </g>
  </g>
</g>
  <g class="guide ylabels" font-size="2.82" font-family="'PT Sans Caption','Helvetica Neue','Helvetica',sans-serif" fill="#6C606B" id="img-d1d30130-12">
    <text x="11.02" y="80.32" text-anchor="end" dy="0.35em">0</text>
    <text x="11.02" y="55.88" text-anchor="end" dy="0.35em">100</text>
    <text x="11.02" y="31.44" text-anchor="end" dy="0.35em">200</text>
    <text x="11.02" y="7" text-anchor="end" dy="0.35em">300</text>
  </g>
</g>
<defs>
  <clipPath id="img-d1d30130-4">
  <path d="M12.02,5 L 198.2 5 198.2 82.32 12.02 82.32" />
</clipPath>
</defs>
</svg>
