<?xml version="1.0" encoding="UTF-8"?>
<svg xmlns="http://www.w3.org/2000/svg"
     xmlns:xlink="http://www.w3.org/1999/xlink"
     xmlns:gadfly="http://www.gadflyjl.org/ns"
     version="1.2"
     width="141.42mm" height="100mm" viewBox="0 0 141.42 100"
     stroke="none"
     fill="#000000"
     stroke-width="0.3"
     font-size="3.88"
>
<g class="plotroot xscalable yscalable" id="img-62b2ae40-1">
  <g font-size="3.88" font-family="'PT Sans','Helvetica Neue','Helvetica',sans-serif" fill="#564A55" stroke="#000000" stroke-opacity="0.000" id="img-62b2ae40-2">
    <g transform="translate(72.55,88.39)">
      <g class="primitive">
        <text text-anchor="middle" dy="0.6em">σ₁</text>
      </g>
    </g>
  </g>
  <g class="guide xlabels" font-size="2.82" font-family="'PT Sans Caption','Helvetica Neue','Helvetica',sans-serif" fill="#6C606B" id="img-62b2ae40-3">
    <g transform="translate(10.67,81.72)">
      <g class="primitive">
        <text text-anchor="middle" dy="0.6em">0.0</text>
      </g>
    </g>
    <g transform="translate(51.92,81.72)">
      <g class="primitive">
        <text text-anchor="middle" dy="0.6em">0.5</text>
      </g>
    </g>
    <g transform="translate(93.17,81.72)">
      <g class="primitive">
        <text text-anchor="middle" dy="0.6em">1.0</text>
      </g>
    </g>
    <g transform="translate(134.42,81.72)">
      <g class="primitive">
        <text text-anchor="middle" dy="0.6em">1.5</text>
      </g>
    </g>
  </g>
  <g clip-path="url(#img-62b2ae40-4)">
    <g id="img-62b2ae40-5">
      <g pointer-events="visible" opacity="1" fill="#000000" fill-opacity="0.000" stroke="#000000" stroke-opacity="0.000" class="guide background" id="img-62b2ae40-6">
        <g transform="translate(72.55,42.86)">
          <path d="M-63.87,-37.86 L 63.87 -37.86 63.87 37.86 -63.87 37.86 z" class="primitive"/>
        </g>
      </g>
      <g class="guide ygridlines xfixed" stroke-dasharray="0.5,0.5" stroke-width="0.2" stroke="#D0D0E0" id="img-62b2ae40-7">
        <g transform="translate(72.55,78.71)">
          <path fill="none" d="M-63.87,0 L 63.87 0" class="primitive"/>
        </g>
        <g transform="translate(72.55,54.81)">
          <path fill="none" d="M-63.87,0 L 63.87 0" class="primitive"/>
        </g>
        <g transform="translate(72.55,30.9)">
          <path fill="none" d="M-63.87,0 L 63.87 0" class="primitive"/>
        </g>
        <g transform="translate(72.55,7)">
          <path fill="none" d="M-63.87,0 L 63.87 0" class="primitive"/>
        </g>
      </g>
      <g class="guide xgridlines yfixed" stroke-dasharray="0.5,0.5" stroke-width="0.2" stroke="#D0D0E0" id="img-62b2ae40-8">
        <g transform="translate(10.67,42.86)">
          <path fill="none" d="M0,-37.86 L 0 37.86" class="primitive"/>
        </g>
        <g transform="translate(51.92,42.86)">
          <path fill="none" d="M0,-37.86 L 0 37.86" class="primitive"/>
        </g>
        <g transform="translate(93.17,42.86)">
          <path fill="none" d="M0,-37.86 L 0 37.86" class="primitive"/>
        </g>
        <g transform="translate(134.42,42.86)">
          <path fill="none" d="M0,-37.86 L 0 37.86" class="primitive"/>
        </g>
      </g>
      <g class="plotpanel" id="img-62b2ae40-9">
        <metadata>
          <boundingbox value="8.673333333333332mm 5.0mm 127.74802290397618mm 75.715mm"/>
          <unitbox value="-0.02424281155851587 3.083664505333612 1.5484856231170319 -3.167329010667225"/>
        </metadata>
        <g stroke-width="0.3" fill="#000000" fill-opacity="0.000" class="geometry" id="img-62b2ae40-10">
          <g class="color_LCHab{Float32}(70.0f0,60.0f0,240.0f0)" stroke-dasharray="none" stroke="#00BFFF" id="img-62b2ae40-11">
            <g transform="translate(82.13,57.09)">
              <path fill="none" d="M-45.41,21.63 L -45.06 21.63 -44.7 21.63 -44.34 21.63 -43.99 21.63 -43.63 21.63 -43.28 21.63 -42.92 21.63 -42.56 21.62 -42.21 21.62 -41.85 21.62 -41.5 21.61 -41.14 21.6 -40.78 21.59 -40.43 21.58 -40.07 21.57 -39.71 21.56 -39.36 21.54 -39 21.52 -38.65 21.5 -38.29 21.47 -37.93 21.43 -37.58 21.4 -37.22 21.35 -36.86 21.3 -36.51 21.25 -36.15 21.18 -35.8 21.11 -35.44 21.03 -35.08 20.94 -34.73 20.83 -34.37 20.71 -34.02 20.57 -33.66 20.43 -33.3 20.27 -32.95 20.11 -32.59 19.94 -32.23 19.77 -31.88 19.59 -31.52 19.41 -31.17 19.23 -30.81 19.04 -30.45 18.84 -30.1 18.62 -29.74 18.37 -29.38 18.1 -29.03 17.79 -28.67 17.44 -28.32 17.06 -27.96 16.65 -27.6 16.23 -27.25 15.79 -26.89 15.36 -26.54 14.93 -26.18 14.52 -25.82 14.1 -25.47 13.67 -25.11 13.22 -24.75 12.71 -24.4 12.13 -24.04 11.47 -23.69 10.73 -23.33 9.89 -22.97 8.98 -22.62 8.01 -22.26 7.01 -21.91 5.98 -21.55 4.93 -21.19 3.88 -20.84 2.82 -20.48 1.73 -20.12 0.63 -19.77 -0.51 -19.41 -1.68 -19.06 -2.88 -18.7 -4.1 -18.34 -5.34 -17.99 -6.58 -17.63 -7.83 -17.27 -9.08 -16.92 -10.34 -16.56 -11.62 -16.21 -12.95 -15.85 -14.33 -15.49 -15.78 -15.14 -17.31 -14.78 -18.92 -14.43 -20.6 -14.07 -22.33 -13.71 -24.1 -13.36 -25.87 -13 -27.62 -12.64 -29.32 -12.29 -30.93 -11.93 -32.44 -11.58 -33.85 -11.22 -35.13 -10.86 -36.31 -10.51 -37.4 -10.15 -38.39 -9.79 -39.3 -9.44 -40.16 -9.08 -40.97 -8.73 -41.76 -8.37 -42.55 -8.01 -43.35 -7.66 -44.14 -7.3 -44.94 -6.95 -45.71 -6.59 -46.46 -6.23 -47.15 -5.88 -47.77 -5.52 -48.32 -5.16 -48.76 -4.81 -49.1 -4.45 -49.31 -4.1 -49.38 -3.74 -49.3 -3.38 -49.08 -3.03 -48.74 -2.67 -48.31 -2.32 -47.83 -1.96 -47.34 -1.6 -46.85 -1.25 -46.38 -0.89 -45.91 -0.53 -45.44 -0.18 -44.93 0.18 -44.37 0.53 -43.74 0.89 -43.03 1.25 -42.23 1.6 -41.33 1.96 -40.34 2.32 -39.28 2.67 -38.16 3.03 -37.02 3.38 -35.88 3.74 -34.8 4.1 -33.77 4.45 -32.82 4.81 -31.92 5.16 -31.04 5.52 -30.15 5.88 -29.21 6.23 -28.18 6.59 -27.06 6.95 -25.85 7.3 -24.55 7.66 -23.18 8.01 -21.75 8.37 -20.29 8.73 -18.79 9.08 -17.28 9.44 -15.77 9.79 -14.27 10.15 -12.81 10.51 -11.42 10.86 -10.12 11.22 -8.92 11.58 -7.84 11.93 -6.85 12.29 -5.94 12.64 -5.06 13 -4.19 13.36 -3.3 13.71 -2.38 14.07 -1.4 14.43 -0.39 14.78 0.67 15.14 1.74 15.49 2.82 15.85 3.87 16.21 4.88 16.56 5.82 16.92 6.68 17.27 7.44 17.63 8.11 17.99 8.71 18.34 9.25 18.7 9.76 19.06 10.26 19.41 10.77 19.77 11.31 20.12 11.88 20.48 12.48 20.84 13.11 21.19 13.74 21.55 14.37 21.91 14.99 22.26 15.57 22.62 16.11 22.97 16.6 23.33 17.05 23.69 17.44 24.04 17.78 24.4 18.08 24.75 18.33 25.11 18.54 25.47 18.71 25.82 18.84 26.18 18.95 26.54 19.03 26.89 19.11 27.25 19.18 27.6 19.26 27.96 19.34 28.32 19.44 28.67 19.56 29.03 19.68 29.38 19.82 29.74 19.96 30.1 20.09 30.45 20.23 30.81 20.36 31.17 20.49 31.52 20.6 31.88 20.7 32.23 20.78 32.59 20.85 32.95 20.9 33.3 20.94 33.66 20.97 34.02 20.99 34.37 21.01 34.73 21.03 35.08 21.06 35.44 21.09 35.8 21.13 36.15 21.18 36.51 21.23 36.86 21.29 37.22 21.34 37.58 21.39 37.93 21.43 38.29 21.47 38.65 21.5 39 21.53 39.36 21.54 39.71 21.56 40.07 21.57 40.43 21.59 40.78 21.6 41.14 21.6 41.5 21.61 41.85 21.62 42.21 21.62 42.56 21.62 42.92 21.63 43.28 21.63 43.63 21.63 43.99 21.63 44.34 21.63 44.7 21.63 45.06 21.63 45.41 21.63" class="primitive"/>
            </g>
          </g>
        </g>
      </g>
    </g>
  </g>
  <g class="guide ylabels" font-size="2.82" font-family="'PT Sans Caption','Helvetica Neue','Helvetica',sans-serif" fill="#6C606B" id="img-62b2ae40-12">
    <g transform="translate(7.67,78.71)">
      <g class="primitive">
        <text text-anchor="end" dy="0.35em">0</text>
      </g>
    </g>
    <g transform="translate(7.67,54.81)">
      <g class="primitive">
        <text text-anchor="end" dy="0.35em">1</text>
      </g>
    </g>
    <g transform="translate(7.67,30.9)">
      <g class="primitive">
        <text text-anchor="end" dy="0.35em">2</text>
      </g>
    </g>
    <g transform="translate(7.67,7)">
      <g class="primitive">
        <text text-anchor="end" dy="0.35em">3</text>
      </g>
    </g>
  </g>
</g>
<defs>
  <clipPath id="img-62b2ae40-4">
    <path d="M8.67,5 L 136.42 5 136.42 80.72 8.67 80.72" />
  </clipPath>
</defs>
</svg>
