<?xml version="1.0" encoding="UTF-8"?>
<svg xmlns="http://www.w3.org/2000/svg"
     xmlns:xlink="http://www.w3.org/1999/xlink"
     xmlns:gadfly="http://www.gadflyjl.org/ns"
     version="1.2"
     width="141.42mm" height="100mm" viewBox="0 0 141.42 100"
     stroke="none"
     fill="#000000"
     stroke-width="0.3"
     font-size="3.88"
>
<g class="plotroot xscalable yscalable" id="img-cf75f830-1">
  <g font-size="3.88" font-family="'PT Sans','Helvetica Neue','Helvetica',sans-serif" fill="#564A55" stroke="#000000" stroke-opacity="0.000" id="img-cf75f830-2">
    <g transform="translate(73.38,88.39)">
      <g class="primitive">
        <text text-anchor="middle" dy="0.6em">σ</text>
      </g>
    </g>
  </g>
  <g class="guide xlabels" font-size="2.82" font-family="'PT Sans Caption','Helvetica Neue','Helvetica',sans-serif" fill="#6C606B" id="img-cf75f830-3">
    <g transform="translate(12.35,81.72)">
      <g class="primitive">
        <text text-anchor="middle" dy="0.6em">0.4</text>
      </g>
    </g>
    <g transform="translate(42.87,81.72)">
      <g class="primitive">
        <text text-anchor="middle" dy="0.6em">0.5</text>
      </g>
    </g>
    <g transform="translate(73.38,81.72)">
      <g class="primitive">
        <text text-anchor="middle" dy="0.6em">0.6</text>
      </g>
    </g>
    <g transform="translate(103.9,81.72)">
      <g class="primitive">
        <text text-anchor="middle" dy="0.6em">0.7</text>
      </g>
    </g>
    <g transform="translate(134.42,81.72)">
      <g class="primitive">
        <text text-anchor="middle" dy="0.6em">0.8</text>
      </g>
    </g>
  </g>
  <g clip-path="url(#img-cf75f830-4)">
    <g id="img-cf75f830-5">
      <g pointer-events="visible" opacity="1" fill="#000000" fill-opacity="0.000" stroke="#000000" stroke-opacity="0.000" class="guide background" id="img-cf75f830-6">
        <g transform="translate(73.38,42.86)">
          <path d="M-63.04,-37.86 L 63.04 -37.86 63.04 37.86 -63.04 37.86 z" class="primitive"/>
        </g>
      </g>
      <g class="guide ygridlines xfixed" stroke-dasharray="0.5,0.5" stroke-width="0.2" stroke="#D0D0E0" id="img-cf75f830-7">
        <g transform="translate(73.38,78.72)">
          <path fill="none" d="M-63.04,0 L 63.04 0" class="primitive"/>
        </g>
        <g transform="translate(73.38,54.81)">
          <path fill="none" d="M-63.04,0 L 63.04 0" class="primitive"/>
        </g>
        <g transform="translate(73.38,30.91)">
          <path fill="none" d="M-63.04,0 L 63.04 0" class="primitive"/>
        </g>
        <g transform="translate(73.38,7)">
          <path fill="none" d="M-63.04,0 L 63.04 0" class="primitive"/>
        </g>
      </g>
      <g class="guide xgridlines yfixed" stroke-dasharray="0.5,0.5" stroke-width="0.2" stroke="#D0D0E0" id="img-cf75f830-8">
        <g transform="translate(12.35,42.86)">
          <path fill="none" d="M0,-37.86 L 0 37.86" class="primitive"/>
        </g>
        <g transform="translate(42.87,42.86)">
          <path fill="none" d="M0,-37.86 L 0 37.86" class="primitive"/>
        </g>
        <g transform="translate(73.38,42.86)">
          <path fill="none" d="M0,-37.86 L 0 37.86" class="primitive"/>
        </g>
        <g transform="translate(103.9,42.86)">
          <path fill="none" d="M0,-37.86 L 0 37.86" class="primitive"/>
        </g>
        <g transform="translate(134.42,42.86)">
          <path fill="none" d="M0,-37.86 L 0 37.86" class="primitive"/>
        </g>
      </g>
      <g class="plotpanel" id="img-cf75f830-9">
        <metadata>
          <boundingbox value="10.346666666666664mm 5.0mm 126.07468957064285mm 75.715mm"/>
          <unitbox value="0.39344663498376503 15.418322526668062 0.41310673003247 -15.836645053336124"/>
        </metadata>
        <g stroke-width="0.3" fill="#000000" fill-opacity="0.000" class="geometry" id="img-cf75f830-10">
          <g class="color_LCHab{Float32}(70.0f0,60.0f0,240.0f0)" stroke-dasharray="none" stroke="#00BFFF" id="img-cf75f830-11">
            <g transform="translate(61.08,63.8)">
              <path fill="none" d="M-48.73,14.91 L -48.34 14.91 -47.96 14.91 -47.58 14.91 -47.2 14.91 -46.81 14.91 -46.43 14.91 -46.05 14.91 -45.67 14.9 -45.29 14.89 -44.9 14.88 -44.52 14.87 -44.14 14.85 -43.76 14.83 -43.38 14.8 -42.99 14.77 -42.61 14.75 -42.23 14.73 -41.85 14.71 -41.46 14.7 -41.08 14.7 -40.7 14.7 -40.32 14.7 -39.94 14.7 -39.55 14.7 -39.17 14.69 -38.79 14.68 -38.41 14.65 -38.02 14.62 -37.64 14.58 -37.26 14.53 -36.88 14.47 -36.5 14.4 -36.11 14.33 -35.73 14.26 -35.35 14.17 -34.97 14.09 -34.59 13.99 -34.2 13.9 -33.82 13.8 -33.44 13.71 -33.06 13.61 -32.67 13.52 -32.29 13.43 -31.91 13.34 -31.53 13.23 -31.15 13.11 -30.76 12.95 -30.38 12.78 -30 12.57 -29.62 12.33 -29.24 12.07 -28.85 11.79 -28.47 11.48 -28.09 11.15 -27.71 10.79 -27.32 10.41 -26.94 9.99 -26.56 9.53 -26.18 9.03 -25.8 8.49 -25.41 7.91 -25.03 7.31 -24.65 6.67 -24.27 6 -23.88 5.29 -23.5 4.55 -23.12 3.77 -22.74 2.96 -22.36 2.11 -21.97 1.25 -21.59 0.37 -21.21 -0.5 -20.83 -1.35 -20.45 -2.19 -20.06 -3.02 -19.68 -3.83 -19.3 -4.64 -18.92 -5.45 -18.53 -6.28 -18.15 -7.14 -17.77 -8.04 -17.39 -8.98 -17.01 -9.96 -16.62 -11 -16.24 -12.09 -15.86 -13.22 -15.48 -14.39 -15.1 -15.57 -14.71 -16.76 -14.33 -17.93 -13.95 -19.07 -13.57 -20.19 -13.18 -21.27 -12.8 -22.33 -12.42 -23.37 -12.04 -24.42 -11.66 -25.47 -11.27 -26.52 -10.89 -27.58 -10.51 -28.62 -10.13 -29.62 -9.75 -30.55 -9.36 -31.41 -8.98 -32.16 -8.6 -32.81 -8.22 -33.36 -7.83 -33.8 -7.45 -34.15 -7.07 -34.42 -6.69 -34.63 -6.31 -34.79 -5.92 -34.95 -5.54 -35.11 -5.16 -35.29 -4.78 -35.5 -4.39 -35.72 -4.01 -35.95 -3.63 -36.18 -3.25 -36.37 -2.87 -36.53 -2.48 -36.63 -2.1 -36.67 -1.72 -36.66 -1.34 -36.6 -0.96 -36.49 -0.57 -36.33 -0.19 -36.11 0.19 -35.83 0.57 -35.45 0.96 -34.96 1.34 -34.34 1.72 -33.57 2.1 -32.66 2.48 -31.65 2.87 -30.56 3.25 -29.45 3.63 -28.32 4.01 -27.21 4.39 -26.11 4.78 -25 5.16 -23.88 5.54 -22.72 5.92 -21.53 6.31 -20.29 6.69 -19.02 7.07 -17.74 7.45 -16.46 7.83 -15.19 8.22 -13.95 8.6 -12.74 8.98 -11.58 9.36 -10.47 9.75 -9.44 10.13 -8.47 10.51 -7.58 10.89 -6.75 11.27 -5.98 11.66 -5.24 12.04 -4.52 12.42 -3.8 12.8 -3.06 13.18 -2.3 13.57 -1.53 13.95 -0.75 14.33 0.03 14.71 0.79 15.1 1.54 15.48 2.28 15.86 2.99 16.24 3.68 16.62 4.35 17.01 5 17.39 5.61 17.77 6.2 18.15 6.74 18.53 7.25 18.92 7.73 19.3 8.18 19.68 8.61 20.06 9.03 20.45 9.43 20.83 9.82 21.21 10.18 21.59 10.52 21.97 10.83 22.36 11.13 22.74 11.4 23.12 11.66 23.5 11.92 23.88 12.17 24.27 12.42 24.65 12.65 25.03 12.87 25.41 13.05 25.8 13.21 26.18 13.32 26.56 13.41 26.94 13.47 27.32 13.52 27.71 13.56 28.09 13.6 28.47 13.65 28.85 13.72 29.24 13.8 29.62 13.89 30 13.98 30.38 14.08 30.76 14.19 31.15 14.29 31.53 14.38 31.91 14.46 32.29 14.53 32.67 14.59 33.06 14.64 33.44 14.68 33.82 14.7 34.2 14.72 34.59 14.74 34.97 14.75 35.35 14.76 35.73 14.78 36.11 14.79 36.5 14.8 36.88 14.81 37.26 14.82 37.64 14.83 38.02 14.84 38.41 14.84 38.79 14.85 39.17 14.85 39.55 14.86 39.94 14.86 40.32 14.85 40.7 14.85 41.08 14.84 41.46 14.84 41.85 14.84 42.23 14.84 42.61 14.84 42.99 14.85 43.38 14.86 43.76 14.87 44.14 14.88 44.52 14.89 44.9 14.9 45.29 14.9 45.67 14.91 46.05 14.91 46.43 14.91 46.81 14.91 47.2 14.91 47.58 14.91 47.96 14.91 48.34 14.91 48.73 14.91" class="primitive"/>
            </g>
          </g>
        </g>
      </g>
    </g>
  </g>
  <g class="guide ylabels" font-size="2.82" font-family="'PT Sans Caption','Helvetica Neue','Helvetica',sans-serif" fill="#6C606B" id="img-cf75f830-12">
    <g transform="translate(9.35,78.72)">
      <g class="primitive">
        <text text-anchor="end" dy="0.35em">0</text>
      </g>
    </g>
    <g transform="translate(9.35,54.81)">
      <g class="primitive">
        <text text-anchor="end" dy="0.35em">5</text>
      </g>
    </g>
    <g transform="translate(9.35,30.91)">
      <g class="primitive">
        <text text-anchor="end" dy="0.35em">10</text>
      </g>
    </g>
    <g transform="translate(9.35,7)">
      <g class="primitive">
        <text text-anchor="end" dy="0.35em">15</text>
      </g>
    </g>
  </g>
</g>
<defs>
  <clipPath id="img-cf75f830-4">
    <path d="M10.35,5 L 136.42 5 136.42 80.72 10.35 80.72" />
  </clipPath>
</defs>
</svg>
