<?xml version="1.0" encoding="UTF-8"?>
<svg xmlns="http://www.w3.org/2000/svg"
     xmlns:xlink="http://www.w3.org/1999/xlink"
     xmlns:gadfly="http://www.gadflyjl.org/ns"
     version="1.2"
     width="141.42mm" height="100mm" viewBox="0 0 141.42 100"
     stroke="none"
     fill="#000000"
     stroke-width="0.3"
     font-size="3.88"
>
<g class="plotroot xscalable yscalable" id="img-07cff1e6-1">
  <g font-size="3.88" font-family="'PT Sans','Helvetica Neue','Helvetica',sans-serif" fill="#564A55" stroke="#000000" stroke-opacity="0.000" id="img-07cff1e6-2">
    <g transform="translate(73.72,88.39)">
      <g class="primitive">
        <text text-anchor="middle" dy="0.6em">β₁</text>
      </g>
    </g>
  </g>
  <g class="guide xlabels" font-size="2.82" font-family="'PT Sans Caption','Helvetica Neue','Helvetica',sans-serif" fill="#6C606B" id="img-07cff1e6-3">
    <g transform="translate(13.02,81.72)">
      <g class="primitive">
        <text text-anchor="middle" dy="0.6em">19</text>
      </g>
    </g>
    <g transform="translate(28.2,81.72)">
      <g class="primitive">
        <text text-anchor="middle" dy="0.6em">20</text>
      </g>
    </g>
    <g transform="translate(43.37,81.72)">
      <g class="primitive">
        <text text-anchor="middle" dy="0.6em">21</text>
      </g>
    </g>
    <g transform="translate(58.55,81.72)">
      <g class="primitive">
        <text text-anchor="middle" dy="0.6em">22</text>
      </g>
    </g>
    <g transform="translate(73.72,81.72)">
      <g class="primitive">
        <text text-anchor="middle" dy="0.6em">23</text>
      </g>
    </g>
    <g transform="translate(88.9,81.72)">
      <g class="primitive">
        <text text-anchor="middle" dy="0.6em">24</text>
      </g>
    </g>
    <g transform="translate(104.07,81.72)">
      <g class="primitive">
        <text text-anchor="middle" dy="0.6em">25</text>
      </g>
    </g>
    <g transform="translate(119.25,81.72)">
      <g class="primitive">
        <text text-anchor="middle" dy="0.6em">26</text>
      </g>
    </g>
    <g transform="translate(134.42,81.72)">
      <g class="primitive">
        <text text-anchor="middle" dy="0.6em">27</text>
      </g>
    </g>
  </g>
  <g clip-path="url(#img-07cff1e6-4)">
    <g id="img-07cff1e6-5">
      <g pointer-events="visible" opacity="1" fill="#000000" fill-opacity="0.000" stroke="#000000" stroke-opacity="0.000" class="guide background" id="img-07cff1e6-6">
        <g transform="translate(73.72,42.86)">
          <path d="M-62.7,-37.86 L 62.7 -37.86 62.7 37.86 -62.7 37.86 z" class="primitive"/>
        </g>
      </g>
      <g class="guide ygridlines xfixed" stroke-dasharray="0.5,0.5" stroke-width="0.2" stroke="#D0D0E0" id="img-07cff1e6-7">
        <g transform="translate(73.72,78.71)">
          <path fill="none" d="M-62.7,0 L 62.7 0" class="primitive"/>
        </g>
        <g transform="translate(73.72,66.76)">
          <path fill="none" d="M-62.7,0 L 62.7 0" class="primitive"/>
        </g>
        <g transform="translate(73.72,54.81)">
          <path fill="none" d="M-62.7,0 L 62.7 0" class="primitive"/>
        </g>
        <g transform="translate(73.72,42.86)">
          <path fill="none" d="M-62.7,0 L 62.7 0" class="primitive"/>
        </g>
        <g transform="translate(73.72,30.9)">
          <path fill="none" d="M-62.7,0 L 62.7 0" class="primitive"/>
        </g>
        <g transform="translate(73.72,18.95)">
          <path fill="none" d="M-62.7,0 L 62.7 0" class="primitive"/>
        </g>
        <g transform="translate(73.72,7)">
          <path fill="none" d="M-62.7,0 L 62.7 0" class="primitive"/>
        </g>
      </g>
      <g class="guide xgridlines yfixed" stroke-dasharray="0.5,0.5" stroke-width="0.2" stroke="#D0D0E0" id="img-07cff1e6-8">
        <g transform="translate(13.02,42.86)">
          <path fill="none" d="M0,-37.86 L 0 37.86" class="primitive"/>
        </g>
        <g transform="translate(28.2,42.86)">
          <path fill="none" d="M0,-37.86 L 0 37.86" class="primitive"/>
        </g>
        <g transform="translate(43.37,42.86)">
          <path fill="none" d="M0,-37.86 L 0 37.86" class="primitive"/>
        </g>
        <g transform="translate(58.55,42.86)">
          <path fill="none" d="M0,-37.86 L 0 37.86" class="primitive"/>
        </g>
        <g transform="translate(73.72,42.86)">
          <path fill="none" d="M0,-37.86 L 0 37.86" class="primitive"/>
        </g>
        <g transform="translate(88.9,42.86)">
          <path fill="none" d="M0,-37.86 L 0 37.86" class="primitive"/>
        </g>
        <g transform="translate(104.07,42.86)">
          <path fill="none" d="M0,-37.86 L 0 37.86" class="primitive"/>
        </g>
        <g transform="translate(119.25,42.86)">
          <path fill="none" d="M0,-37.86 L 0 37.86" class="primitive"/>
        </g>
        <g transform="translate(134.42,42.86)">
          <path fill="none" d="M0,-37.86 L 0 37.86" class="primitive"/>
        </g>
      </g>
      <g class="plotpanel" id="img-07cff1e6-9">
        <metadata>
          <boundingbox value="11.02000000000001mm 5.0mm 125.4013562373095mm 75.715mm"/>
          <unitbox value="18.868205755718872 0.6167329010667225 8.263588488562252 -0.633465802133445"/>
        </metadata>
        <g stroke-width="0.3" fill="#000000" fill-opacity="0.000" class="geometry" id="img-07cff1e6-10">
          <g class="color_LCHab{Float32}(70.0f0,60.0f0,240.0f0)" stroke-dasharray="none" stroke="#00BFFF" id="img-07cff1e6-11">
            <g transform="translate(73.66,60.63)">
              <path fill="none" d="M-49.96,18.08 L -49.57 18.08 -49.18 18.08 -48.79 18.08 -48.39 18.08 -48 18.08 -47.61 18.08 -47.22 18.08 -46.83 18.07 -46.43 18.07 -46.04 18.06 -45.65 18.06 -45.26 18.05 -44.87 18.03 -44.48 18.02 -44.08 18.01 -43.69 18 -43.3 17.99 -42.91 17.98 -42.52 17.98 -42.12 17.98 -41.73 17.97 -41.34 17.97 -40.95 17.96 -40.56 17.95 -40.17 17.93 -39.77 17.91 -39.38 17.88 -38.99 17.84 -38.6 17.81 -38.21 17.77 -37.81 17.74 -37.42 17.7 -37.03 17.66 -36.64 17.61 -36.25 17.55 -35.85 17.48 -35.46 17.4 -35.07 17.31 -34.68 17.21 -34.29 17.1 -33.9 16.98 -33.5 16.86 -33.11 16.75 -32.72 16.63 -32.33 16.52 -31.94 16.4 -31.54 16.28 -31.15 16.15 -30.76 16 -30.37 15.83 -29.98 15.63 -29.59 15.41 -29.19 15.17 -28.8 14.9 -28.41 14.61 -28.02 14.3 -27.63 13.97 -27.23 13.63 -26.84 13.29 -26.45 12.96 -26.06 12.64 -25.67 12.32 -25.27 12.02 -24.88 11.72 -24.49 11.4 -24.1 11.05 -23.71 10.64 -23.32 10.17 -22.92 9.64 -22.53 9.03 -22.14 8.36 -21.75 7.64 -21.36 6.89 -20.96 6.12 -20.57 5.34 -20.18 4.55 -19.79 3.75 -19.4 2.94 -19 2.12 -18.61 1.28 -18.22 0.39 -17.83 -0.54 -17.44 -1.54 -17.05 -2.61 -16.65 -3.76 -16.26 -4.99 -15.87 -6.28 -15.48 -7.64 -15.09 -9.03 -14.69 -10.46 -14.3 -11.91 -13.91 -13.38 -13.52 -14.86 -13.13 -16.34 -12.74 -17.82 -12.34 -19.27 -11.95 -20.7 -11.56 -22.07 -11.17 -23.4 -10.78 -24.68 -10.38 -25.92 -9.99 -27.12 -9.6 -28.3 -9.21 -29.46 -8.82 -30.59 -8.42 -31.7 -8.03 -32.77 -7.64 -33.82 -7.25 -34.84 -6.86 -35.84 -6.47 -36.82 -6.07 -37.79 -5.68 -38.74 -5.29 -39.68 -4.9 -40.57 -4.51 -41.39 -4.11 -42.15 -3.72 -42.82 -3.33 -43.41 -2.94 -43.93 -2.55 -44.39 -2.16 -44.8 -1.76 -45.16 -1.37 -45.45 -0.98 -45.65 -0.59 -45.75 -0.2 -45.72 0.2 -45.58 0.59 -45.33 0.98 -44.99 1.37 -44.59 1.76 -44.12 2.16 -43.62 2.55 -43.08 2.94 -42.51 3.33 -41.91 3.72 -41.28 4.11 -40.63 4.51 -39.94 4.9 -39.2 5.29 -38.42 5.68 -37.58 6.07 -36.69 6.47 -35.76 6.86 -34.81 7.25 -33.83 7.64 -32.82 8.03 -31.77 8.42 -30.67 8.82 -29.48 9.21 -28.2 9.6 -26.83 9.99 -25.38 10.38 -23.88 10.78 -22.35 11.17 -20.79 11.56 -19.22 11.95 -17.65 12.34 -16.07 12.74 -14.5 13.13 -12.96 13.52 -11.48 13.91 -10.06 14.3 -8.72 14.69 -7.47 15.09 -6.27 15.48 -5.13 15.87 -4.02 16.26 -2.92 16.65 -1.84 17.05 -0.78 17.44 0.24 17.83 1.22 18.22 2.15 18.61 3.03 19 3.87 19.4 4.67 19.79 5.44 20.18 6.19 20.57 6.91 20.96 7.6 21.36 8.25 21.75 8.85 22.14 9.41 22.53 9.93 22.92 10.41 23.32 10.86 23.71 11.28 24.1 11.67 24.49 12.05 24.88 12.41 25.27 12.76 25.67 13.11 26.06 13.46 26.45 13.82 26.84 14.19 27.23 14.57 27.63 14.95 28.02 15.33 28.41 15.68 28.8 16.01 29.19 16.3 29.59 16.55 29.98 16.76 30.37 16.93 30.76 17.06 31.15 17.17 31.54 17.26 31.94 17.32 32.33 17.38 32.72 17.43 33.11 17.47 33.5 17.51 33.9 17.56 34.29 17.61 34.68 17.66 35.07 17.71 35.46 17.75 35.85 17.8 36.25 17.84 36.64 17.88 37.03 17.91 37.42 17.94 37.81 17.96 38.21 17.97 38.6 17.98 38.99 17.98 39.38 17.98 39.77 17.98 40.17 17.98 40.56 17.98 40.95 17.98 41.34 17.98 41.73 17.99 42.12 18 42.52 18 42.91 18.01 43.3 18.02 43.69 18.02 44.08 18.03 44.48 18.04 44.87 18.05 45.26 18.05 45.65 18.06 46.04 18.07 46.43 18.07 46.83 18.08 47.22 18.08 47.61 18.08 48 18.08 48.39 18.08 48.79 18.08 49.18 18.08 49.57 18.08 49.96 18.08" class="primitive"/>
            </g>
          </g>
        </g>
      </g>
    </g>
  </g>
  <g class="guide ylabels" font-size="2.82" font-family="'PT Sans Caption','Helvetica Neue','Helvetica',sans-serif" fill="#6C606B" id="img-07cff1e6-12">
    <g transform="translate(10.02,78.71)">
      <g class="primitive">
        <text text-anchor="end" dy="0.35em">0.0</text>
      </g>
    </g>
    <g transform="translate(10.02,66.76)">
      <g class="primitive">
        <text text-anchor="end" dy="0.35em">0.1</text>
      </g>
    </g>
    <g transform="translate(10.02,54.81)">
      <g class="primitive">
        <text text-anchor="end" dy="0.35em">0.2</text>
      </g>
    </g>
    <g transform="translate(10.02,42.86)">
      <g class="primitive">
        <text text-anchor="end" dy="0.35em">0.3</text>
      </g>
    </g>
    <g transform="translate(10.02,30.9)">
      <g class="primitive">
        <text text-anchor="end" dy="0.35em">0.4</text>
      </g>
    </g>
    <g transform="translate(10.02,18.95)">
      <g class="primitive">
        <text text-anchor="end" dy="0.35em">0.5</text>
      </g>
    </g>
    <g transform="translate(10.02,7)">
      <g class="primitive">
        <text text-anchor="end" dy="0.35em">0.6</text>
      </g>
    </g>
  </g>
</g>
<defs>
  <clipPath id="img-07cff1e6-4">
    <path d="M11.02,5 L 136.42 5 136.42 80.72 11.02 80.72" />
  </clipPath>
</defs>
</svg>
