<?xml version="1.0" encoding="UTF-8"?>
<svg xmlns="http://www.w3.org/2000/svg"
     xmlns:xlink="http://www.w3.org/1999/xlink"
     xmlns:gadfly="http://www.gadflyjl.org/ns"
     version="1.2"
     width="203.2mm" height="101.6mm" viewBox="0 0 203.2 101.6"
     stroke="none"
     fill="#000000"
     stroke-width="0.3"
     font-size="3.88"
>
<g class="plotroot xscalable yscalable" id="img-2c0bbc95-1">
  <g font-size="3.88" font-family="'PT Sans','Helvetica Neue','Helvetica',sans-serif" fill="#564A55" stroke="#000000" stroke-opacity="0.000" id="img-2c0bbc95-2">
    <g transform="translate(105.45,89.99)">
      <g class="primitive">
        <text text-anchor="middle" dy="0.6em">Parametric bootstrap estimates of σ₁</text>
      </g>
    </g>
  </g>
  <g class="guide xlabels" font-size="2.82" font-family="'PT Sans Caption','Helvetica Neue','Helvetica',sans-serif" fill="#6C606B" id="img-2c0bbc95-3">
    <g transform="translate(14.69,83.32)">
      <g class="primitive">
        <text text-anchor="middle" dy="0.6em">-50</text>
      </g>
    </g>
    <g transform="translate(60.07,83.32)">
      <g class="primitive">
        <text text-anchor="middle" dy="0.6em">0</text>
      </g>
    </g>
    <g transform="translate(105.45,83.32)">
      <g class="primitive">
        <text text-anchor="middle" dy="0.6em">50</text>
      </g>
    </g>
    <g transform="translate(150.82,83.32)">
      <g class="primitive">
        <text text-anchor="middle" dy="0.6em">100</text>
      </g>
    </g>
    <g transform="translate(196.2,83.32)">
      <g class="primitive">
        <text text-anchor="middle" dy="0.6em">150</text>
      </g>
    </g>
  </g>
  <g clip-path="url(#img-2c0bbc95-4)">
    <g id="img-2c0bbc95-5">
      <g pointer-events="visible" opacity="1" fill="#000000" fill-opacity="0.000" stroke="#000000" stroke-opacity="0.000" class="guide background" id="img-2c0bbc95-6">
        <g transform="translate(105.45,43.66)">
          <path d="M-92.75,-38.66 L 92.75 -38.66 92.75 38.66 -92.75 38.66 z" class="primitive"/>
        </g>
      </g>
      <g class="guide ygridlines xfixed" stroke-dasharray="0.5,0.5" stroke-width="0.2" stroke="#D0D0E0" id="img-2c0bbc95-7">
        <g transform="translate(105.45,80.32)">
          <path fill="none" d="M-92.75,0 L 92.75 0" class="primitive"/>
        </g>
        <g transform="translate(105.45,55.88)">
          <path fill="none" d="M-92.75,0 L 92.75 0" class="primitive"/>
        </g>
        <g transform="translate(105.45,31.44)">
          <path fill="none" d="M-92.75,0 L 92.75 0" class="primitive"/>
        </g>
        <g transform="translate(105.45,7)">
          <path fill="none" d="M-92.75,0 L 92.75 0" class="primitive"/>
        </g>
      </g>
      <g class="guide xgridlines yfixed" stroke-dasharray="0.5,0.5" stroke-width="0.2" stroke="#D0D0E0" id="img-2c0bbc95-8">
        <g transform="translate(14.69,43.66)">
          <path fill="none" d="M0,-38.66 L 0 38.66" class="primitive"/>
        </g>
        <g transform="translate(60.07,43.66)">
          <path fill="none" d="M0,-38.66 L 0 38.66" class="primitive"/>
        </g>
        <g transform="translate(105.45,43.66)">
          <path fill="none" d="M0,-38.66 L 0 38.66" class="primitive"/>
        </g>
        <g transform="translate(150.82,43.66)">
          <path fill="none" d="M0,-38.66 L 0 38.66" class="primitive"/>
        </g>
        <g transform="translate(196.2,43.66)">
          <path fill="none" d="M0,-38.66 L 0 38.66" class="primitive"/>
        </g>
      </g>
      <g class="plotpanel" id="img-2c0bbc95-9">
        <metadata>
          <boundingbox value="12.693333333333328mm 5.0mm 185.50666666666666mm 77.315mm"/>
          <unitbox value="-52.203775802541685 0.030818386414785515 204.4075516050834 -0.03163677282957103"/>
        </metadata>
        <g stroke-width="0.3" fill="#000000" fill-opacity="0.000" class="geometry" id="img-2c0bbc95-10">
          <g stroke-dasharray="none" stroke="#00BFFF" id="img-2c0bbc95-11">
            <g transform="translate(102.88,57.32)">
              <path fill="none" d="M-48.03,22.97 L -47.66 22.92 -47.28 22.79 -46.9 22.47 -46.53 21.75 -46.15 20.31 -45.77 17.66 -45.4 13.2 -45.02 6.46 -44.64 -2.75 -44.27 -13.92 -43.89 -25.77 -43.51 -36.39 -43.14 -43.66 -42.76 -46.01 -42.38 -42.98 -42.01 -35.36 -41.63 -24.94 -41.25 -13.85 -40.88 -3.87 -40.5 3.93 -40.12 9.25 -39.75 12.38 -39.37 13.88 -38.99 14.3 -38.61 14.09 -38.24 13.54 -37.86 12.82 -37.48 12.01 -37.11 11.14 -36.73 10.21 -36.35 9.25 -35.98 8.25 -35.6 7.22 -35.22 6.18 -34.85 5.14 -34.47 4.1 -34.09 3.08 -33.72 2.06 -33.34 1.06 -32.96 0.04 -32.59 -0.99 -32.21 -2.05 -31.83 -3.15 -31.46 -4.27 -31.08 -5.42 -30.7 -6.57 -30.33 -7.73 -29.95 -8.89 -29.57 -10.05 -29.2 -11.21 -28.82 -12.36 -28.44 -13.48 -28.07 -14.56 -27.69 -15.61 -27.31 -16.63 -26.94 -17.63 -26.56 -18.64 -26.18 -19.68 -25.81 -20.74 -25.43 -21.83 -25.05 -22.92 -24.68 -23.99 -24.3 -25.02 -23.92 -26 -23.55 -26.94 -23.17 -27.85 -22.79 -28.77 -22.42 -29.7 -22.04 -30.67 -21.66 -31.68 -21.29 -32.69 -20.91 -33.68 -20.53 -34.63 -20.16 -35.5 -19.78 -36.27 -19.4 -36.95 -19.02 -37.52 -18.65 -38.02 -18.27 -38.43 -17.89 -38.79 -17.52 -39.09 -17.14 -39.34 -16.76 -39.55 -16.39 -39.7 -16.01 -39.81 -15.63 -39.84 -15.26 -39.82 -14.88 -39.73 -14.5 -39.59 -14.13 -39.42 -13.75 -39.21 -13.37 -38.99 -13 -38.73 -12.62 -38.43 -12.24 -38.07 -11.87 -37.64 -11.49 -37.14 -11.11 -36.56 -10.74 -35.91 -10.36 -35.2 -9.98 -34.46 -9.61 -33.7 -9.23 -32.94 -8.85 -32.19 -8.48 -31.45 -8.1 -30.74 -7.72 -30.04 -7.35 -29.34 -6.97 -28.64 -6.59 -27.92 -6.22 -27.17 -5.84 -26.38 -5.46 -25.52 -5.09 -24.59 -4.71 -23.6 -4.33 -22.56 -3.96 -21.49 -3.58 -20.41 -3.2 -19.35 -2.83 -18.3 -2.45 -17.27 -2.07 -16.23 -1.7 -15.19 -1.32 -14.14 -0.94 -13.06 -0.57 -11.97 -0.19 -10.84 0.19 -9.69 0.57 -8.51 0.94 -7.31 1.32 -6.11 1.7 -4.91 2.07 -3.75 2.45 -2.64 2.83 -1.59 3.2 -0.59 3.58 0.36 3.96 1.26 4.33 2.1 4.71 2.9 5.09 3.64 5.46 4.34 5.84 5 6.22 5.62 6.59 6.24 6.97 6.87 7.35 7.52 7.72 8.2 8.1 8.91 8.48 9.64 8.85 10.36 9.23 11.05 9.61 11.72 9.98 12.34 10.36 12.92 10.74 13.46 11.11 13.97 11.49 14.44 11.87 14.9 12.24 15.33 12.62 15.74 13 16.13 13.37 16.49 13.75 16.83 14.13 17.14 14.5 17.42 14.88 17.67 15.26 17.91 15.63 18.14 16.01 18.36 16.39 18.6 16.76 18.84 17.14 19.11 17.52 19.38 17.89 19.64 18.27 19.9 18.65 20.14 19.02 20.36 19.4 20.56 19.78 20.74 20.16 20.91 20.53 21.07 20.91 21.21 21.29 21.34 21.66 21.46 22.04 21.57 22.42 21.68 22.79 21.77 23.17 21.86 23.55 21.95 23.92 22.02 24.3 22.1 24.68 22.16 25.05 22.22 25.43 22.28 25.81 22.33 26.18 22.38 26.56 22.43 26.94 22.48 27.31 22.53 27.69 22.57 28.07 22.6 28.44 22.63 28.82 22.65 29.2 22.67 29.57 22.68 29.95 22.7 30.33 22.71 30.7 22.73 31.08 22.74 31.46 22.76 31.83 22.78 32.21 22.8 32.59 22.82 32.96 22.84 33.34 22.85 33.72 22.86 34.09 22.87 34.47 22.88 34.85 22.89 35.22 22.9 35.6 22.91 35.98 22.92 36.35 22.93 36.73 22.93 37.11 22.94 37.48 22.95 37.86 22.96 38.24 22.96 38.61 22.96 38.99 22.97 39.37 22.97 39.75 22.97 40.12 22.97 40.5 22.97 40.88 22.97 41.25 22.97 41.63 22.98 42.01 22.98 42.38 22.98 42.76 22.98 43.14 22.98 43.51 22.99 43.89 22.99 44.27 22.99 44.64 22.99 45.02 22.99 45.4 23 45.77 23 46.15 23 46.53 23 46.9 23 47.28 23 47.66 22.99 48.03 22.99" class="primitive"/>
            </g>
          </g>
        </g>
      </g>
    </g>
  </g>
  <g class="guide ylabels" font-size="2.82" font-family="'PT Sans Caption','Helvetica Neue','Helvetica',sans-serif" fill="#6C606B" id="img-2c0bbc95-12">
    <g transform="translate(11.69,80.32)">
      <g class="primitive">
        <text text-anchor="end" dy="0.35em">0.00</text>
      </g>
    </g>
    <g transform="translate(11.69,55.88)">
      <g class="primitive">
        <text text-anchor="end" dy="0.35em">0.01</text>
      </g>
    </g>
    <g transform="translate(11.69,31.44)">
      <g class="primitive">
        <text text-anchor="end" dy="0.35em">0.02</text>
      </g>
    </g>
    <g transform="translate(11.69,7)">
      <g class="primitive">
        <text text-anchor="end" dy="0.35em">0.03</text>
      </g>
    </g>
  </g>
</g>
<defs>
  <clipPath id="img-2c0bbc95-4">
    <path d="M12.69,5 L 198.2 5 198.2 82.32 12.69 82.32" />
  </clipPath>
</defs>
</svg>
