<?xml version="1.0" encoding="UTF-8"?>
<svg xmlns="http://www.w3.org/2000/svg"
     xmlns:xlink="http://www.w3.org/1999/xlink"
     xmlns:gadfly="http://www.gadflyjl.org/ns"
     version="1.2"
     width="203.2mm" height="101.6mm" viewBox="0 0 203.2 101.6"
     stroke="none"
     fill="#000000"
     stroke-width="0.3"
     font-size="3.88"
>
<g class="plotroot xscalable yscalable" id="img-11637dbb-1">
  <g font-size="3.88" font-family="'PT Sans','Helvetica Neue','Helvetica',sans-serif" fill="#564A55" stroke="#000000" stroke-opacity="0.000" id="img-11637dbb-2">
    <g transform="translate(104.61,89.99)">
      <g class="primitive">
        <text text-anchor="middle" dy="0.6em">β₁</text>
      </g>
    </g>
  </g>
  <g class="guide xlabels" font-size="2.82" font-family="'PT Sans Caption','Helvetica Neue','Helvetica',sans-serif" fill="#6C606B" id="img-11637dbb-3">
    <g transform="translate(13.02,83.32)">
      <g class="primitive">
        <text text-anchor="middle" dy="0.6em">57</text>
      </g>
    </g>
    <g transform="translate(43.55,83.32)">
      <g class="primitive">
        <text text-anchor="middle" dy="0.6em">58</text>
      </g>
    </g>
    <g transform="translate(74.08,83.32)">
      <g class="primitive">
        <text text-anchor="middle" dy="0.6em">59</text>
      </g>
    </g>
    <g transform="translate(104.61,83.32)">
      <g class="primitive">
        <text text-anchor="middle" dy="0.6em">60</text>
      </g>
    </g>
    <g transform="translate(135.14,83.32)">
      <g class="primitive">
        <text text-anchor="middle" dy="0.6em">61</text>
      </g>
    </g>
    <g transform="translate(165.67,83.32)">
      <g class="primitive">
        <text text-anchor="middle" dy="0.6em">62</text>
      </g>
    </g>
    <g transform="translate(196.2,83.32)">
      <g class="primitive">
        <text text-anchor="middle" dy="0.6em">63</text>
      </g>
    </g>
  </g>
  <g clip-path="url(#img-11637dbb-4)">
    <g id="img-11637dbb-5">
      <g pointer-events="visible" opacity="1" fill="#000000" fill-opacity="0.000" stroke="#000000" stroke-opacity="0.000" class="guide background" id="img-11637dbb-6">
        <g transform="translate(104.61,43.66)">
          <path d="M-93.59,-38.66 L 93.59 -38.66 93.59 38.66 -93.59 38.66 z" class="primitive"/>
        </g>
      </g>
      <g class="guide ygridlines xfixed" stroke-dasharray="0.5,0.5" stroke-width="0.2" stroke="#D0D0E0" id="img-11637dbb-7">
        <g transform="translate(104.61,80.32)">
          <path fill="none" d="M-93.59,0 L 93.59 0" class="primitive"/>
        </g>
        <g transform="translate(104.61,61.99)">
          <path fill="none" d="M-93.59,0 L 93.59 0" class="primitive"/>
        </g>
        <g transform="translate(104.61,43.66)">
          <path fill="none" d="M-93.59,0 L 93.59 0" class="primitive"/>
        </g>
        <g transform="translate(104.61,25.33)">
          <path fill="none" d="M-93.59,0 L 93.59 0" class="primitive"/>
        </g>
        <g transform="translate(104.61,7)">
          <path fill="none" d="M-93.59,0 L 93.59 0" class="primitive"/>
        </g>
      </g>
      <g class="guide xgridlines yfixed" stroke-dasharray="0.5,0.5" stroke-width="0.2" stroke="#D0D0E0" id="img-11637dbb-8">
        <g transform="translate(13.02,43.66)">
          <path fill="none" d="M0,-38.66 L 0 38.66" class="primitive"/>
        </g>
        <g transform="translate(43.55,43.66)">
          <path fill="none" d="M0,-38.66 L 0 38.66" class="primitive"/>
        </g>
        <g transform="translate(74.08,43.66)">
          <path fill="none" d="M0,-38.66 L 0 38.66" class="primitive"/>
        </g>
        <g transform="translate(104.61,43.66)">
          <path fill="none" d="M0,-38.66 L 0 38.66" class="primitive"/>
        </g>
        <g transform="translate(135.14,43.66)">
          <path fill="none" d="M0,-38.66 L 0 38.66" class="primitive"/>
        </g>
        <g transform="translate(165.67,43.66)">
          <path fill="none" d="M0,-38.66 L 0 38.66" class="primitive"/>
        </g>
        <g transform="translate(196.2,43.66)">
          <path fill="none" d="M0,-38.66 L 0 38.66" class="primitive"/>
        </g>
      </g>
      <g class="plotpanel" id="img-11637dbb-9">
        <metadata>
          <boundingbox value="11.02000000000001mm 5.0mm 187.18mm 77.315mm"/>
          <unitbox value="56.93449066491975 0.8218236377276138 6.131018670160498 -0.8436472754552276"/>
        </metadata>
        <g stroke-width="0.3" fill="#000000" fill-opacity="0.000" class="geometry" id="img-11637dbb-10">
          <g stroke-dasharray="none" stroke="#00BFFF" id="img-11637dbb-11">
            <g transform="translate(106.77,63.54)">
              <path fill="none" d="M-83.06,16.78 L -82.41 16.78 -81.76 16.78 -81.1 16.78 -80.45 16.78 -79.8 16.78 -79.15 16.78 -78.5 16.77 -77.85 16.77 -77.2 16.77 -76.54 16.77 -75.89 16.76 -75.24 16.75 -74.59 16.75 -73.94 16.73 -73.29 16.72 -72.64 16.71 -71.98 16.69 -71.33 16.67 -70.68 16.65 -70.03 16.63 -69.38 16.6 -68.73 16.57 -68.08 16.55 -67.42 16.52 -66.77 16.5 -66.12 16.47 -65.47 16.45 -64.82 16.43 -64.17 16.42 -63.52 16.41 -62.86 16.39 -62.21 16.38 -61.56 16.36 -60.91 16.34 -60.26 16.3 -59.61 16.26 -58.96 16.2 -58.3 16.12 -57.65 16.03 -57 15.92 -56.35 15.79 -55.7 15.66 -55.05 15.51 -54.4 15.37 -53.74 15.22 -53.09 15.07 -52.44 14.92 -51.79 14.75 -51.14 14.57 -50.49 14.36 -49.84 14.12 -49.18 13.86 -48.53 13.57 -47.88 13.27 -47.23 12.95 -46.58 12.63 -45.93 12.31 -45.28 11.98 -44.62 11.65 -43.97 11.31 -43.32 10.96 -42.67 10.59 -42.02 10.21 -41.37 9.8 -40.72 9.38 -40.06 8.93 -39.41 8.45 -38.76 7.94 -38.11 7.39 -37.46 6.81 -36.81 6.2 -36.16 5.57 -35.5 4.94 -34.85 4.31 -34.2 3.68 -33.55 3.04 -32.9 2.38 -32.25 1.66 -31.59 0.87 -30.94 -0.01 -30.29 -1 -29.64 -2.08 -28.99 -3.24 -28.34 -4.45 -27.69 -5.68 -27.03 -6.89 -26.38 -8.05 -25.73 -9.15 -25.08 -10.18 -24.43 -11.17 -23.78 -12.12 -23.13 -13.07 -22.47 -14.02 -21.82 -14.99 -21.17 -15.98 -20.52 -16.99 -19.87 -18.01 -19.22 -19.03 -18.57 -20.07 -17.91 -21.13 -17.26 -22.2 -16.61 -23.29 -15.96 -24.42 -15.31 -25.57 -14.66 -26.75 -14.01 -27.96 -13.35 -29.19 -12.7 -30.42 -12.05 -31.63 -11.4 -32.8 -10.75 -33.9 -10.1 -34.9 -9.45 -35.8 -8.79 -36.59 -8.14 -37.26 -7.49 -37.8 -6.84 -38.23 -6.19 -38.54 -5.54 -38.73 -4.89 -38.8 -4.23 -38.77 -3.58 -38.66 -2.93 -38.5 -2.28 -38.31 -1.63 -38.14 -0.98 -38.01 -0.33 -37.94 0.33 -37.94 0.98 -37.98 1.63 -38.05 2.28 -38.11 2.93 -38.1 3.58 -37.98 4.23 -37.71 4.89 -37.27 5.54 -36.65 6.19 -35.89 6.84 -35.03 7.49 -34.12 8.14 -33.22 8.79 -32.37 9.45 -31.58 10.1 -30.84 10.75 -30.12 11.4 -29.38 12.05 -28.59 12.7 -27.75 13.35 -26.84 14.01 -25.89 14.66 -24.9 15.31 -23.89 15.96 -22.85 16.61 -21.8 17.26 -20.73 17.91 -19.64 18.57 -18.51 19.22 -17.37 19.87 -16.2 20.52 -15.03 21.17 -13.85 21.82 -12.69 22.47 -11.53 23.13 -10.39 23.78 -9.27 24.43 -8.17 25.08 -7.09 25.73 -6.03 26.38 -5.01 27.03 -4.02 27.69 -3.08 28.34 -2.19 28.99 -1.35 29.64 -0.54 30.29 0.23 30.94 0.98 31.59 1.72 32.25 2.45 32.9 3.17 33.55 3.87 34.2 4.55 34.85 5.18 35.5 5.78 36.16 6.34 36.81 6.86 37.46 7.36 38.11 7.85 38.76 8.34 39.41 8.83 40.06 9.31 40.72 9.79 41.37 10.25 42.02 10.69 42.67 11.1 43.32 11.47 43.97 11.81 44.62 12.11 45.28 12.39 45.93 12.65 46.58 12.9 47.23 13.15 47.88 13.4 48.53 13.66 49.18 13.92 49.84 14.18 50.49 14.43 51.14 14.67 51.79 14.9 52.44 15.1 53.09 15.27 53.74 15.42 54.4 15.55 55.05 15.66 55.7 15.75 56.35 15.83 57 15.9 57.65 15.97 58.3 16.04 58.96 16.1 59.61 16.16 60.26 16.22 60.91 16.26 61.56 16.3 62.21 16.33 62.86 16.36 63.52 16.38 64.17 16.4 64.82 16.42 65.47 16.45 66.12 16.48 66.77 16.51 67.42 16.54 68.08 16.57 68.73 16.6 69.38 16.63 70.03 16.65 70.68 16.67 71.33 16.69 71.98 16.7 72.64 16.72 73.29 16.73 73.94 16.74 74.59 16.75 75.24 16.76 75.89 16.76 76.54 16.77 77.2 16.77 77.85 16.77 78.5 16.77 79.15 16.78 79.8 16.78 80.45 16.78 81.1 16.78 81.76 16.78 82.41 16.78 83.06 16.78" class="primitive"/>
            </g>
          </g>
        </g>
      </g>
    </g>
  </g>
  <g class="guide ylabels" font-size="2.82" font-family="'PT Sans Caption','Helvetica Neue','Helvetica',sans-serif" fill="#6C606B" id="img-11637dbb-12">
    <g transform="translate(10.02,80.32)">
      <g class="primitive">
        <text text-anchor="end" dy="0.35em">0.0</text>
      </g>
    </g>
    <g transform="translate(10.02,61.99)">
      <g class="primitive">
        <text text-anchor="end" dy="0.35em">0.2</text>
      </g>
    </g>
    <g transform="translate(10.02,43.66)">
      <g class="primitive">
        <text text-anchor="end" dy="0.35em">0.4</text>
      </g>
    </g>
    <g transform="translate(10.02,25.33)">
      <g class="primitive">
        <text text-anchor="end" dy="0.35em">0.6</text>
      </g>
    </g>
    <g transform="translate(10.02,7)">
      <g class="primitive">
        <text text-anchor="end" dy="0.35em">0.8</text>
      </g>
    </g>
  </g>
</g>
<defs>
  <clipPath id="img-11637dbb-4">
    <path d="M11.02,5 L 198.2 5 198.2 82.32 11.02 82.32" />
  </clipPath>
</defs>
</svg>
