<?xml version="1.0" encoding="UTF-8"?>
<svg xmlns="http://www.w3.org/2000/svg"
     xmlns:xlink="http://www.w3.org/1999/xlink"
     xmlns:gadfly="http://www.gadflyjl.org/ns"
     version="1.2"
     width="152.4mm" height="101.6mm" viewBox="0 0 152.4 101.6"
     stroke="none"
     fill="#000000"
     stroke-width="0.3"
     font-size="3.88"
>
<g class="plotroot xscalable yscalable" id="img-a1b39c55-1">
  <g font-size="3.88" font-family="'PT Sans','Helvetica Neue','Helvetica',sans-serif" fill="#564A55" stroke="#000000" stroke-opacity="0.000" id="img-a1b39c55-2">
    <g transform="translate(87.06,89.99)">
      <g class="primitive">
        <text text-anchor="middle" dy="0.6em">Standard Normal Quantiles</text>
      </g>
    </g>
  </g>
  <g class="guide xlabels" font-size="2.82" font-family="'PT Sans Caption','Helvetica Neue','Helvetica',sans-serif" fill="#6C606B" id="img-a1b39c55-3">
    <g transform="translate(28.73,83.32)">
      <g class="primitive">
        <text text-anchor="middle" dy="0.6em">-3</text>
      </g>
    </g>
    <g transform="translate(48.17,83.32)">
      <g class="primitive">
        <text text-anchor="middle" dy="0.6em">-2</text>
      </g>
    </g>
    <g transform="translate(67.62,83.32)">
      <g class="primitive">
        <text text-anchor="middle" dy="0.6em">-1</text>
      </g>
    </g>
    <g transform="translate(87.06,83.32)">
      <g class="primitive">
        <text text-anchor="middle" dy="0.6em">0</text>
      </g>
    </g>
    <g transform="translate(106.51,83.32)">
      <g class="primitive">
        <text text-anchor="middle" dy="0.6em">1</text>
      </g>
    </g>
    <g transform="translate(125.95,83.32)">
      <g class="primitive">
        <text text-anchor="middle" dy="0.6em">2</text>
      </g>
    </g>
    <g transform="translate(145.4,83.32)">
      <g class="primitive">
        <text text-anchor="middle" dy="0.6em">3</text>
      </g>
    </g>
  </g>
  <g clip-path="url(#img-a1b39c55-4)">
    <g id="img-a1b39c55-5">
      <g pointer-events="visible" opacity="1" fill="#000000" fill-opacity="0.000" stroke="#000000" stroke-opacity="0.000" class="guide background" id="img-a1b39c55-6">
        <g transform="translate(87.06,43.66)">
          <path d="M-60.34,-38.66 L 60.34 -38.66 60.34 38.66 -60.34 38.66 z" class="primitive"/>
        </g>
      </g>
      <g class="guide ygridlines xfixed" stroke-dasharray="0.5,0.5" stroke-width="0.2" stroke="#D0D0E0" id="img-a1b39c55-7">
        <g transform="translate(87.06,80.31)">
          <path fill="none" d="M-60.34,0 L 60.34 0" class="primitive"/>
        </g>
        <g transform="translate(87.06,68.1)">
          <path fill="none" d="M-60.34,0 L 60.34 0" class="primitive"/>
        </g>
        <g transform="translate(87.06,55.88)">
          <path fill="none" d="M-60.34,0 L 60.34 0" class="primitive"/>
        </g>
        <g transform="translate(87.06,43.66)">
          <path fill="none" d="M-60.34,0 L 60.34 0" class="primitive"/>
        </g>
        <g transform="translate(87.06,31.44)">
          <path fill="none" d="M-60.34,0 L 60.34 0" class="primitive"/>
        </g>
        <g transform="translate(87.06,19.22)">
          <path fill="none" d="M-60.34,0 L 60.34 0" class="primitive"/>
        </g>
        <g transform="translate(87.06,7)">
          <path fill="none" d="M-60.34,0 L 60.34 0" class="primitive"/>
        </g>
      </g>
      <g class="guide xgridlines yfixed" stroke-dasharray="0.5,0.5" stroke-width="0.2" stroke="#D0D0E0" id="img-a1b39c55-8">
        <g transform="translate(28.73,43.66)">
          <path fill="none" d="M0,-38.66 L 0 38.66" class="primitive"/>
        </g>
        <g transform="translate(48.17,43.66)">
          <path fill="none" d="M0,-38.66 L 0 38.66" class="primitive"/>
        </g>
        <g transform="translate(67.62,43.66)">
          <path fill="none" d="M0,-38.66 L 0 38.66" class="primitive"/>
        </g>
        <g transform="translate(87.06,43.66)">
          <path fill="none" d="M0,-38.66 L 0 38.66" class="primitive"/>
        </g>
        <g transform="translate(106.51,43.66)">
          <path fill="none" d="M0,-38.66 L 0 38.66" class="primitive"/>
        </g>
        <g transform="translate(125.95,43.66)">
          <path fill="none" d="M0,-38.66 L 0 38.66" class="primitive"/>
        </g>
        <g transform="translate(145.4,43.66)">
          <path fill="none" d="M0,-38.66 L 0 38.66" class="primitive"/>
        </g>
      </g>
      <g class="plotpanel" id="img-a1b39c55-9">
        <metadata>
          <boundingbox value="26.72500000000001mm 5.0mm 120.67499999999997mm 77.315mm"/>
          <unitbox value="-3.1028497964431114 6163.677282957103 6.205699592886222 -6327.354565914206"/>
        </metadata>
        <g stroke-width="0.3" fill="#000000" fill-opacity="0.000" class="geometry" id="img-a1b39c55-10">
          <g stroke-dasharray="none" stroke="#00BFFF" id="img-a1b39c55-11">
            <g transform="translate(87.06,66.96)">
              <path fill="none" d="M-55.97,13.36 L -48.85 13.36 -45.24 13.36 -42.73 13.36 -40.78 13.36 -39.17 13.36 -37.79 13.36 -36.57 13.36 -35.49 13.36 -34.5 13.36 -33.6 13.36 -32.77 13.36 -31.99 13.36 -31.25 13.36 -30.56 13.36 -29.91 13.36 -29.29 13.36 -28.7 13.36 -28.13 13.36 -27.59 13.36 -27.06 13.36 -26.56 13.36 -26.07 13.36 -25.6 13.36 -25.14 13.36 -24.7 13.32 -24.27 13.19 -23.85 13.06 -23.44 12.93 -23.04 12.8 -22.66 12.67 -22.28 12.54 -21.9 12.42 -21.54 12.29 -21.18 12.18 -20.83 12.06 -20.49 11.94 -20.15 11.83 -19.82 11.71 -19.5 11.59 -19.18 11.48 -18.86 11.36 -18.55 11.25 -18.25 11.14 -17.95 11.04 -17.65 10.94 -17.36 10.83 -17.07 10.72 -16.79 10.61 -16.51 10.5 -16.23 10.4 -15.95 10.29 -15.68 10.19 -15.41 10.08 -15.15 9.98 -14.88 9.87 -14.62 9.77 -14.37 9.67 -14.11 9.57 -13.86 9.47 -13.61 9.36 -13.36 9.25 -13.12 9.15 -12.87 9.05 -12.63 8.95 -12.39 8.85 -12.15 8.75 -11.92 8.65 -11.68 8.54 -11.45 8.43 -11.22 8.34 -10.99 8.25 -10.76 8.14 -10.53 8.03 -10.31 7.92 -10.09 7.82 -9.86 7.72 -9.64 7.63 -9.42 7.52 -9.2 7.41 -8.99 7.32 -8.77 7.22 -8.55 7.11 -8.34 7.02 -8.13 6.91 -7.91 6.81 -7.7 6.7 -7.49 6.61 -7.28 6.51 -7.07 6.4 -6.87 6.3 -6.66 6.19 -6.45 6.08 -6.25 5.97 -6.04 5.87 -5.84 5.76 -5.63 5.65 -5.43 5.55 -5.23 5.45 -5.03 5.35 -4.83 5.23 -4.63 5.13 -4.42 5.02 -4.22 4.91 -4.03 4.81 -3.83 4.71 -3.63 4.61 -3.43 4.49 -3.23 4.38 -3.03 4.28 -2.84 4.17 -2.64 4.06 -2.44 3.96 -2.25 3.85 -2.05 3.75 -1.86 3.63 -1.66 3.52 -1.46 3.41 -1.27 3.3 -1.07 3.2 -0.88 3.09 -0.68 2.97 -0.49 2.86 -0.29 2.75 -0.1 2.64 0.1 2.53 0.29 2.42 0.49 2.32 0.68 2.2 0.88 2.08 1.07 1.97 1.27 1.86 1.46 1.74 1.66 1.64 1.86 1.52 2.05 1.41 2.25 1.28 2.44 1.17 2.64 1.06 2.84 0.93 3.03 0.82 3.23 0.69 3.43 0.57 3.63 0.45 3.83 0.33 4.03 0.21 4.22 0.1 4.42 -0.03 4.63 -0.15 4.83 -0.28 5.03 -0.42 5.23 -0.56 5.43 -0.7 5.63 -0.83 5.84 -0.96 6.04 -1.1 6.25 -1.24 6.45 -1.38 6.66 -1.51 6.87 -1.64 7.07 -1.78 7.28 -1.91 7.49 -2.05 7.7 -2.19 7.91 -2.33 8.13 -2.48 8.34 -2.62 8.55 -2.76 8.77 -2.91 8.99 -3.05 9.2 -3.2 9.42 -3.37 9.64 -3.52 9.86 -3.68 10.09 -3.84 10.31 -4 10.53 -4.17 10.76 -4.34 10.99 -4.5 11.22 -4.67 11.45 -4.86 11.68 -5.03 11.92 -5.2 12.15 -5.37 12.39 -5.55 12.63 -5.73 12.87 -5.91 13.12 -6.11 13.36 -6.29 13.61 -6.48 13.86 -6.68 14.11 -6.87 14.37 -7.07 14.62 -7.25 14.88 -7.45 15.15 -7.66 15.41 -7.86 15.68 -8.08 15.95 -8.31 16.23 -8.54 16.51 -8.77 16.79 -8.98 17.07 -9.22 17.36 -9.45 17.65 -9.69 17.95 -9.94 18.25 -10.2 18.55 -10.47 18.86 -10.72 19.18 -11 19.5 -11.24 19.82 -11.53 20.15 -11.82 20.49 -12.12 20.83 -12.41 21.18 -12.72 21.54 -13.06 21.9 -13.38 22.28 -13.71 22.66 -14.05 23.04 -14.39 23.44 -14.77 23.85 -15.15 24.27 -15.56 24.7 -15.95 25.14 -16.37 25.6 -16.8 26.07 -17.24 26.56 -17.71 27.06 -18.15 27.59 -18.72 28.13 -19.2 28.7 -19.75 29.29 -20.34 29.91 -20.93 30.56 -21.6 31.25 -22.26 31.99 -23.06 32.77 -23.81 33.6 -24.71 34.5 -25.66 35.49 -26.78 36.57 -27.93 37.79 -29.44 39.17 -31.15 40.78 -33.12 42.73 -35.51 45.24 -38.62 48.85 -43.37 55.97 -53.23" class="primitive"/>
            </g>
          </g>
        </g>
      </g>
    </g>
  </g>
  <g class="guide ylabels" font-size="2.82" font-family="'PT Sans Caption','Helvetica Neue','Helvetica',sans-serif" fill="#6C606B" id="img-a1b39c55-12">
    <g transform="translate(25.72,80.31)">
      <g class="primitive">
        <text text-anchor="end" dy="0.35em">0</text>
      </g>
    </g>
    <g transform="translate(25.72,68.1)">
      <g class="primitive">
        <text text-anchor="end" dy="0.35em">1.0×10³</text>
      </g>
    </g>
    <g transform="translate(25.72,55.88)">
      <g class="primitive">
        <text text-anchor="end" dy="0.35em">2.0×10³</text>
      </g>
    </g>
    <g transform="translate(25.72,43.66)">
      <g class="primitive">
        <text text-anchor="end" dy="0.35em">3.0×10³</text>
      </g>
    </g>
    <g transform="translate(25.72,31.44)">
      <g class="primitive">
        <text text-anchor="end" dy="0.35em">4.0×10³</text>
      </g>
    </g>
    <g transform="translate(25.72,19.22)">
      <g class="primitive">
        <text text-anchor="end" dy="0.35em">5.0×10³</text>
      </g>
    </g>
    <g transform="translate(25.72,7)">
      <g class="primitive">
        <text text-anchor="end" dy="0.35em">6.0×10³</text>
      </g>
    </g>
  </g>
  <g font-size="3.88" font-family="'PT Sans','Helvetica Neue','Helvetica',sans-serif" fill="#564A55" stroke="#000000" stroke-opacity="0.000" id="img-a1b39c55-13">
    <g transform="translate(8.81,41.66)">
      <g class="primitive">
        <text text-anchor="middle" dy="0.35em" transform="rotate(-90,0, 2)">σ₁²</text>
      </g>
    </g>
  </g>
</g>
<defs>
  <clipPath id="img-a1b39c55-4">
    <path d="M26.73,5 L 147.4 5 147.4 82.32 26.73 82.32" />
  </clipPath>
</defs>
</svg>
