<?xml version="1.0" encoding="UTF-8"?>
<svg xmlns="http://www.w3.org/2000/svg"
     xmlns:xlink="http://www.w3.org/1999/xlink"
     xmlns:gadfly="http://www.gadflyjl.org/ns"
     version="1.2"
     width="141.42mm" height="100mm" viewBox="0 0 141.42 100"
     stroke="none"
     fill="#000000"
     stroke-width="0.3"
     font-size="3.88"
>
<defs>
  <marker id="arrow" markerWidth="15" markerHeight="7" refX="5" refY="3.5" orient="auto" markerUnits="strokeWidth">
    <path d="M0,0 L15,3.5 L0,7 z" stroke="context-stroke" fill="context-stroke"/>
  </marker>
</defs>
<g class="plotroot xscalable yscalable" id="img-d699b54b-1">
  <g font-size="3.88" font-family="'PT Sans','Helvetica Neue','Helvetica',sans-serif" fill="#564A55" stroke="#000000" stroke-opacity="0.000" id="img-d699b54b-2">
    <g transform="translate(74.22,88.39)">
      <g class="primitive">
        <text text-anchor="middle" dy="0.6em">Parametric bootstrap samples of correlation of random effects</text>
      </g>
    </g>
  </g>
  <g class="guide xlabels" font-size="2.82" font-family="'PT Sans Caption','Helvetica Neue','Helvetica',sans-serif" fill="#6C606B" id="img-d699b54b-3">
    <g transform="translate(14.02,81.72)">
      <g class="primitive">
        <text text-anchor="middle" dy="0.6em">-1.0</text>
      </g>
    </g>
    <g transform="translate(38.1,81.72)">
      <g class="primitive">
        <text text-anchor="middle" dy="0.6em">-0.5</text>
      </g>
    </g>
    <g transform="translate(62.18,81.72)">
      <g class="primitive">
        <text text-anchor="middle" dy="0.6em">0.0</text>
      </g>
    </g>
    <g transform="translate(86.26,81.72)">
      <g class="primitive">
        <text text-anchor="middle" dy="0.6em">0.5</text>
      </g>
    </g>
    <g transform="translate(110.34,81.72)">
      <g class="primitive">
        <text text-anchor="middle" dy="0.6em">1.0</text>
      </g>
    </g>
    <g transform="translate(134.42,81.72)">
      <g class="primitive">
        <text text-anchor="middle" dy="0.6em">1.5</text>
      </g>
    </g>
  </g>
  <g clip-path="url(#img-d699b54b-4)">
    <g id="img-d699b54b-5">
      <g pointer-events="visible" stroke-width="0.3" fill="#000000" fill-opacity="0.000" stroke="#000000" stroke-opacity="0.000" class="guide background" id="img-d699b54b-6">
        <g transform="translate(74.22,42.86)" id="img-d699b54b-7">
          <path d="M-62.2,-37.86 L62.2,-37.86 62.2,37.86 -62.2,37.86  z" class="primitive"/>
        </g>
      </g>
      <g class="guide ygridlines xfixed" stroke-dasharray="0.5,0.5" stroke-width="0.2" stroke="#D0D0E0" id="img-d699b54b-8">
        <g transform="translate(74.22,78.71)" id="img-d699b54b-9">
          <path fill="none" d="M-62.2,0 L62.2,0 " class="primitive"/>
        </g>
        <g transform="translate(74.22,60.79)" id="img-d699b54b-10">
          <path fill="none" d="M-62.2,0 L62.2,0 " class="primitive"/>
        </g>
        <g transform="translate(74.22,42.86)" id="img-d699b54b-11">
          <path fill="none" d="M-62.2,0 L62.2,0 " class="primitive"/>
        </g>
        <g transform="translate(74.22,24.93)" id="img-d699b54b-12">
          <path fill="none" d="M-62.2,0 L62.2,0 " class="primitive"/>
        </g>
        <g transform="translate(74.22,7)" id="img-d699b54b-13">
          <path fill="none" d="M-62.2,0 L62.2,0 " class="primitive"/>
        </g>
      </g>
      <g class="guide xgridlines yfixed" stroke-dasharray="0.5,0.5" stroke-width="0.2" stroke="#D0D0E0" id="img-d699b54b-14">
        <g transform="translate(14.02,42.86)" id="img-d699b54b-15">
          <path fill="none" d="M0,-37.86 L0,37.86 " class="primitive"/>
        </g>
        <g transform="translate(38.1,42.86)" id="img-d699b54b-16">
          <path fill="none" d="M0,-37.86 L0,37.86 " class="primitive"/>
        </g>
        <g transform="translate(62.18,42.86)" id="img-d699b54b-17">
          <path fill="none" d="M0,-37.86 L0,37.86 " class="primitive"/>
        </g>
        <g transform="translate(86.26,42.86)" id="img-d699b54b-18">
          <path fill="none" d="M0,-37.86 L0,37.86 " class="primitive"/>
        </g>
        <g transform="translate(110.34,42.86)" id="img-d699b54b-19">
          <path fill="none" d="M0,-37.86 L0,37.86 " class="primitive"/>
        </g>
        <g transform="translate(134.42,42.86)" id="img-d699b54b-20">
          <path fill="none" d="M0,-37.86 L0,37.86 " class="primitive"/>
        </g>
      </g>
      <g class="plotpanel" id="img-d699b54b-21">
        <metadata>
          <boundingbox value="12.019999999999996mm 5.0mm 124.40135623730951mm 75.715mm"/>
          <unitbox value="-1.0415277714160052 411.15526737781494 2.5830555428320103 -422.31053475563"/>
        </metadata>
        <g shape-rendering="crispEdges" stroke-width="0.3" id="img-d699b54b-22">
          <g class="geometry" fill-opacity="1" stroke="#000000" stroke-opacity="0.000" fill="#00BFFF" id="img-d699b54b-23">
            <g transform="translate(14.34,78.54)" id="img-d699b54b-24">
              <path d="M-0.35,-0.18 L0.35,-0.18 0.35,0.18 -0.35,0.18  z" class="primitive"/>
            </g>
            <g transform="translate(14.98,78.63)" id="img-d699b54b-25">
              <path d="M-0.35,-0.09 L0.35,-0.09 0.35,0.09 -0.35,0.09  z" class="primitive"/>
            </g>
            <g transform="translate(15.63,78.72)" id="img-d699b54b-26">
              <path d="M-0.35,-0 L0.35,-0 0.35,0 -0.35,0  z" class="primitive"/>
            </g>
            <g transform="translate(16.27,78.72)" id="img-d699b54b-27">
              <path d="M-0.35,-0 L0.35,-0 0.35,0 -0.35,0  z" class="primitive"/>
            </g>
            <g transform="translate(16.91,78.72)" id="img-d699b54b-28">
              <path d="M-0.35,-0 L0.35,-0 0.35,0 -0.35,0  z" class="primitive"/>
            </g>
            <g transform="translate(17.55,78.72)" id="img-d699b54b-29">
              <path d="M-0.35,-0 L0.35,-0 0.35,0 -0.35,0  z" class="primitive"/>
            </g>
            <g transform="translate(18.19,78.72)" id="img-d699b54b-30">
              <path d="M-0.35,-0 L0.35,-0 0.35,0 -0.35,0  z" class="primitive"/>
            </g>
            <g transform="translate(18.84,78.72)" id="img-d699b54b-31">
              <path d="M-0.35,-0 L0.35,-0 0.35,0 -0.35,0  z" class="primitive"/>
            </g>
            <g transform="translate(19.48,78.63)" id="img-d699b54b-32">
              <path d="M-0.35,-0.09 L0.35,-0.09 0.35,0.09 -0.35,0.09  z" class="primitive"/>
            </g>
            <g transform="translate(20.12,78.72)" id="img-d699b54b-33">
              <path d="M-0.35,-0 L0.35,-0 0.35,0 -0.35,0  z" class="primitive"/>
            </g>
            <g transform="translate(20.76,78.72)" id="img-d699b54b-34">
              <path d="M-0.35,-0 L0.35,-0 0.35,0 -0.35,0  z" class="primitive"/>
            </g>
            <g transform="translate(21.4,78.72)" id="img-d699b54b-35">
              <path d="M-0.35,-0 L0.35,-0 0.35,0 -0.35,0  z" class="primitive"/>
            </g>
            <g transform="translate(22.05,78.72)" id="img-d699b54b-36">
              <path d="M-0.35,-0 L0.35,-0 0.35,0 -0.35,0  z" class="primitive"/>
            </g>
            <g transform="translate(22.69,78.63)" id="img-d699b54b-37">
              <path d="M-0.35,-0.09 L0.35,-0.09 0.35,0.09 -0.35,0.09  z" class="primitive"/>
            </g>
            <g transform="translate(23.33,78.72)" id="img-d699b54b-38">
              <path d="M-0.35,-0 L0.35,-0 0.35,0 -0.35,0  z" class="primitive"/>
            </g>
            <g transform="translate(23.97,78.45)" id="img-d699b54b-39">
              <path d="M-0.35,-0.27 L0.35,-0.27 0.35,0.27 -0.35,0.27  z" class="primitive"/>
            </g>
            <g transform="translate(24.62,78.63)" id="img-d699b54b-40">
              <path d="M-0.35,-0.09 L0.35,-0.09 0.35,0.09 -0.35,0.09  z" class="primitive"/>
            </g>
            <g transform="translate(25.26,78.63)" id="img-d699b54b-41">
              <path d="M-0.35,-0.09 L0.35,-0.09 0.35,0.09 -0.35,0.09  z" class="primitive"/>
            </g>
            <g transform="translate(25.9,78.54)" id="img-d699b54b-42">
              <path d="M-0.35,-0.18 L0.35,-0.18 0.35,0.18 -0.35,0.18  z" class="primitive"/>
            </g>
            <g transform="translate(26.54,78.54)" id="img-d699b54b-43">
              <path d="M-0.35,-0.18 L0.35,-0.18 0.35,0.18 -0.35,0.18  z" class="primitive"/>
            </g>
            <g transform="translate(27.18,78.54)" id="img-d699b54b-44">
              <path d="M-0.35,-0.18 L0.35,-0.18 0.35,0.18 -0.35,0.18  z" class="primitive"/>
            </g>
            <g transform="translate(27.83,78.27)" id="img-d699b54b-45">
              <path d="M-0.35,-0.45 L0.35,-0.45 0.35,0.45 -0.35,0.45  z" class="primitive"/>
            </g>
            <g transform="translate(28.47,78.63)" id="img-d699b54b-46">
              <path d="M-0.35,-0.09 L0.35,-0.09 0.35,0.09 -0.35,0.09  z" class="primitive"/>
            </g>
            <g transform="translate(29.11,78.18)" id="img-d699b54b-47">
              <path d="M-0.35,-0.54 L0.35,-0.54 0.35,0.54 -0.35,0.54  z" class="primitive"/>
            </g>
            <g transform="translate(29.75,77.91)" id="img-d699b54b-48">
              <path d="M-0.35,-0.81 L0.35,-0.81 0.35,0.81 -0.35,0.81  z" class="primitive"/>
            </g>
            <g transform="translate(30.39,78)" id="img-d699b54b-49">
              <path d="M-0.35,-0.72 L0.35,-0.72 0.35,0.72 -0.35,0.72  z" class="primitive"/>
            </g>
            <g transform="translate(31.04,77.64)" id="img-d699b54b-50">
              <path d="M-0.35,-1.08 L0.35,-1.08 0.35,1.08 -0.35,1.08  z" class="primitive"/>
            </g>
            <g transform="translate(31.68,77.28)" id="img-d699b54b-51">
              <path d="M-0.35,-1.43 L0.35,-1.43 0.35,1.43 -0.35,1.43  z" class="primitive"/>
            </g>
            <g transform="translate(32.32,78.36)" id="img-d699b54b-52">
              <path d="M-0.35,-0.36 L0.35,-0.36 0.35,0.36 -0.35,0.36  z" class="primitive"/>
            </g>
            <g transform="translate(32.96,77.91)" id="img-d699b54b-53">
              <path d="M-0.35,-0.81 L0.35,-0.81 0.35,0.81 -0.35,0.81  z" class="primitive"/>
            </g>
            <g transform="translate(33.61,77.55)" id="img-d699b54b-54">
              <path d="M-0.35,-1.17 L0.35,-1.17 0.35,1.17 -0.35,1.17  z" class="primitive"/>
            </g>
            <g transform="translate(34.25,78.27)" id="img-d699b54b-55">
              <path d="M-0.35,-0.45 L0.35,-0.45 0.35,0.45 -0.35,0.45  z" class="primitive"/>
            </g>
            <g transform="translate(34.89,76.83)" id="img-d699b54b-56">
              <path d="M-0.35,-1.88 L0.35,-1.88 0.35,1.88 -0.35,1.88  z" class="primitive"/>
            </g>
            <g transform="translate(35.53,77.28)" id="img-d699b54b-57">
              <path d="M-0.35,-1.43 L0.35,-1.43 0.35,1.43 -0.35,1.43  z" class="primitive"/>
            </g>
            <g transform="translate(36.17,76.92)" id="img-d699b54b-58">
              <path d="M-0.35,-1.79 L0.35,-1.79 0.35,1.79 -0.35,1.79  z" class="primitive"/>
            </g>
            <g transform="translate(36.82,76.74)" id="img-d699b54b-59">
              <path d="M-0.35,-1.97 L0.35,-1.97 0.35,1.97 -0.35,1.97  z" class="primitive"/>
            </g>
            <g transform="translate(37.46,76.29)" id="img-d699b54b-60">
              <path d="M-0.35,-2.42 L0.35,-2.42 0.35,2.42 -0.35,2.42  z" class="primitive"/>
            </g>
            <g transform="translate(38.1,75.67)" id="img-d699b54b-61">
              <path d="M-0.35,-3.05 L0.35,-3.05 0.35,3.05 -0.35,3.05  z" class="primitive"/>
            </g>
            <g transform="translate(38.74,75.76)" id="img-d699b54b-62">
              <path d="M-0.35,-2.96 L0.35,-2.96 0.35,2.96 -0.35,2.96  z" class="primitive"/>
            </g>
            <g transform="translate(39.38,75.94)" id="img-d699b54b-63">
              <path d="M-0.35,-2.78 L0.35,-2.78 0.35,2.78 -0.35,2.78  z" class="primitive"/>
            </g>
            <g transform="translate(40.03,76.12)" id="img-d699b54b-64">
              <path d="M-0.35,-2.6 L0.35,-2.6 0.35,2.6 -0.35,2.6  z" class="primitive"/>
            </g>
            <g transform="translate(40.67,74.77)" id="img-d699b54b-65">
              <path d="M-0.35,-3.94 L0.35,-3.94 0.35,3.94 -0.35,3.94  z" class="primitive"/>
            </g>
            <g transform="translate(41.31,74.86)" id="img-d699b54b-66">
              <path d="M-0.35,-3.85 L0.35,-3.85 0.35,3.85 -0.35,3.85  z" class="primitive"/>
            </g>
            <g transform="translate(41.95,74.41)" id="img-d699b54b-67">
              <path d="M-0.35,-4.3 L0.35,-4.3 0.35,4.3 -0.35,4.3  z" class="primitive"/>
            </g>
            <g transform="translate(42.6,74.41)" id="img-d699b54b-68">
              <path d="M-0.35,-4.3 L0.35,-4.3 0.35,4.3 -0.35,4.3  z" class="primitive"/>
            </g>
            <g transform="translate(43.24,74.32)" id="img-d699b54b-69">
              <path d="M-0.35,-4.39 L0.35,-4.39 0.35,4.39 -0.35,4.39  z" class="primitive"/>
            </g>
            <g transform="translate(43.88,73.34)" id="img-d699b54b-70">
              <path d="M-0.35,-5.38 L0.35,-5.38 0.35,5.38 -0.35,5.38  z" class="primitive"/>
            </g>
            <g transform="translate(44.52,72.89)" id="img-d699b54b-71">
              <path d="M-0.35,-5.83 L0.35,-5.83 0.35,5.83 -0.35,5.83  z" class="primitive"/>
            </g>
            <g transform="translate(45.16,71.01)" id="img-d699b54b-72">
              <path d="M-0.35,-7.71 L0.35,-7.71 0.35,7.71 -0.35,7.71  z" class="primitive"/>
            </g>
            <g transform="translate(45.81,73.16)" id="img-d699b54b-73">
              <path d="M-0.35,-5.56 L0.35,-5.56 0.35,5.56 -0.35,5.56  z" class="primitive"/>
            </g>
            <g transform="translate(46.45,72.62)" id="img-d699b54b-74">
              <path d="M-0.35,-6.1 L0.35,-6.1 0.35,6.1 -0.35,6.1  z" class="primitive"/>
            </g>
            <g transform="translate(47.09,72.26)" id="img-d699b54b-75">
              <path d="M-0.35,-6.45 L0.35,-6.45 0.35,6.45 -0.35,6.45  z" class="primitive"/>
            </g>
            <g transform="translate(47.73,70.65)" id="img-d699b54b-76">
              <path d="M-0.35,-8.07 L0.35,-8.07 0.35,8.07 -0.35,8.07  z" class="primitive"/>
            </g>
            <g transform="translate(48.37,71.45)" id="img-d699b54b-77">
              <path d="M-0.35,-7.26 L0.35,-7.26 0.35,7.26 -0.35,7.26  z" class="primitive"/>
            </g>
            <g transform="translate(49.02,70.11)" id="img-d699b54b-78">
              <path d="M-0.35,-8.61 L0.35,-8.61 0.35,8.61 -0.35,8.61  z" class="primitive"/>
            </g>
            <g transform="translate(49.66,70.02)" id="img-d699b54b-79">
              <path d="M-0.35,-8.7 L0.35,-8.7 0.35,8.7 -0.35,8.7  z" class="primitive"/>
            </g>
            <g transform="translate(50.3,69.39)" id="img-d699b54b-80">
              <path d="M-0.35,-9.32 L0.35,-9.32 0.35,9.32 -0.35,9.32  z" class="primitive"/>
            </g>
            <g transform="translate(50.94,68.85)" id="img-d699b54b-81">
              <path d="M-0.35,-9.86 L0.35,-9.86 0.35,9.86 -0.35,9.86  z" class="primitive"/>
            </g>
            <g transform="translate(51.59,69.57)" id="img-d699b54b-82">
              <path d="M-0.35,-9.14 L0.35,-9.14 0.35,9.14 -0.35,9.14  z" class="primitive"/>
            </g>
            <g transform="translate(52.23,70.2)" id="img-d699b54b-83">
              <path d="M-0.35,-8.52 L0.35,-8.52 0.35,8.52 -0.35,8.52  z" class="primitive"/>
            </g>
            <g transform="translate(52.87,67.87)" id="img-d699b54b-84">
              <path d="M-0.35,-10.85 L0.35,-10.85 0.35,10.85 -0.35,10.85  z" class="primitive"/>
            </g>
            <g transform="translate(53.51,67.33)" id="img-d699b54b-85">
              <path d="M-0.35,-11.38 L0.35,-11.38 0.35,11.38 -0.35,11.38  z" class="primitive"/>
            </g>
            <g transform="translate(54.15,65.54)" id="img-d699b54b-86">
              <path d="M-0.35,-13.18 L0.35,-13.18 0.35,13.18 -0.35,13.18  z" class="primitive"/>
            </g>
            <g transform="translate(54.8,68.94)" id="img-d699b54b-87">
              <path d="M-0.35,-9.77 L0.35,-9.77 0.35,9.77 -0.35,9.77  z" class="primitive"/>
            </g>
            <g transform="translate(55.44,68.32)" id="img-d699b54b-88">
              <path d="M-0.35,-10.4 L0.35,-10.4 0.35,10.4 -0.35,10.4  z" class="primitive"/>
            </g>
            <g transform="translate(56.08,68.05)" id="img-d699b54b-89">
              <path d="M-0.35,-10.67 L0.35,-10.67 0.35,10.67 -0.35,10.67  z" class="primitive"/>
            </g>
            <g transform="translate(56.72,68.85)" id="img-d699b54b-90">
              <path d="M-0.35,-9.86 L0.35,-9.86 0.35,9.86 -0.35,9.86  z" class="primitive"/>
            </g>
            <g transform="translate(57.36,69.75)" id="img-d699b54b-91">
              <path d="M-0.35,-8.96 L0.35,-8.96 0.35,8.96 -0.35,8.96  z" class="primitive"/>
            </g>
            <g transform="translate(58.01,67.42)" id="img-d699b54b-92">
              <path d="M-0.35,-11.3 L0.35,-11.3 0.35,11.3 -0.35,11.3  z" class="primitive"/>
            </g>
            <g transform="translate(58.65,65.9)" id="img-d699b54b-93">
              <path d="M-0.35,-12.82 L0.35,-12.82 0.35,12.82 -0.35,12.82  z" class="primitive"/>
            </g>
            <g transform="translate(59.29,65.81)" id="img-d699b54b-94">
              <path d="M-0.35,-12.91 L0.35,-12.91 0.35,12.91 -0.35,12.91  z" class="primitive"/>
            </g>
            <g transform="translate(59.93,64.55)" id="img-d699b54b-95">
              <path d="M-0.35,-14.16 L0.35,-14.16 0.35,14.16 -0.35,14.16  z" class="primitive"/>
            </g>
            <g transform="translate(60.58,66.43)" id="img-d699b54b-96">
              <path d="M-0.35,-12.28 L0.35,-12.28 0.35,12.28 -0.35,12.28  z" class="primitive"/>
            </g>
            <g transform="translate(61.22,67.51)" id="img-d699b54b-97">
              <path d="M-0.35,-11.21 L0.35,-11.21 0.35,11.21 -0.35,11.21  z" class="primitive"/>
            </g>
            <g transform="translate(61.86,65.27)" id="img-d699b54b-98">
              <path d="M-0.35,-13.45 L0.35,-13.45 0.35,13.45 -0.35,13.45  z" class="primitive"/>
            </g>
            <g transform="translate(62.5,64.82)" id="img-d699b54b-99">
              <path d="M-0.35,-13.89 L0.35,-13.89 0.35,13.89 -0.35,13.89  z" class="primitive"/>
            </g>
            <g transform="translate(63.14,66.34)" id="img-d699b54b-100">
              <path d="M-0.35,-12.37 L0.35,-12.37 0.35,12.37 -0.35,12.37  z" class="primitive"/>
            </g>
            <g transform="translate(63.79,67.42)" id="img-d699b54b-101">
              <path d="M-0.35,-11.3 L0.35,-11.3 0.35,11.3 -0.35,11.3  z" class="primitive"/>
            </g>
            <g transform="translate(64.43,67.24)" id="img-d699b54b-102">
              <path d="M-0.35,-11.47 L0.35,-11.47 0.35,11.47 -0.35,11.47  z" class="primitive"/>
            </g>
            <g transform="translate(65.07,68.23)" id="img-d699b54b-103">
              <path d="M-0.35,-10.49 L0.35,-10.49 0.35,10.49 -0.35,10.49  z" class="primitive"/>
            </g>
            <g transform="translate(65.71,67.78)" id="img-d699b54b-104">
              <path d="M-0.35,-10.94 L0.35,-10.94 0.35,10.94 -0.35,10.94  z" class="primitive"/>
            </g>
            <g transform="translate(66.35,66.61)" id="img-d699b54b-105">
              <path d="M-0.35,-12.1 L0.35,-12.1 0.35,12.1 -0.35,12.1  z" class="primitive"/>
            </g>
            <g transform="translate(67,66.61)" id="img-d699b54b-106">
              <path d="M-0.35,-12.1 L0.35,-12.1 0.35,12.1 -0.35,12.1  z" class="primitive"/>
            </g>
            <g transform="translate(67.64,64.19)" id="img-d699b54b-107">
              <path d="M-0.35,-14.52 L0.35,-14.52 0.35,14.52 -0.35,14.52  z" class="primitive"/>
            </g>
            <g transform="translate(68.28,66.61)" id="img-d699b54b-108">
              <path d="M-0.35,-12.1 L0.35,-12.1 0.35,12.1 -0.35,12.1  z" class="primitive"/>
            </g>
            <g transform="translate(68.92,68.23)" id="img-d699b54b-109">
              <path d="M-0.35,-10.49 L0.35,-10.49 0.35,10.49 -0.35,10.49  z" class="primitive"/>
            </g>
            <g transform="translate(69.57,67.42)" id="img-d699b54b-110">
              <path d="M-0.35,-11.3 L0.35,-11.3 0.35,11.3 -0.35,11.3  z" class="primitive"/>
            </g>
            <g transform="translate(70.21,65.54)" id="img-d699b54b-111">
              <path d="M-0.35,-13.18 L0.35,-13.18 0.35,13.18 -0.35,13.18  z" class="primitive"/>
            </g>
            <g transform="translate(70.85,68.41)" id="img-d699b54b-112">
              <path d="M-0.35,-10.31 L0.35,-10.31 0.35,10.31 -0.35,10.31  z" class="primitive"/>
            </g>
            <g transform="translate(71.49,66.43)" id="img-d699b54b-113">
              <path d="M-0.35,-12.28 L0.35,-12.28 0.35,12.28 -0.35,12.28  z" class="primitive"/>
            </g>
            <g transform="translate(72.13,66.79)" id="img-d699b54b-114">
              <path d="M-0.35,-11.92 L0.35,-11.92 0.35,11.92 -0.35,11.92  z" class="primitive"/>
            </g>
            <g transform="translate(72.78,66.25)" id="img-d699b54b-115">
              <path d="M-0.35,-12.46 L0.35,-12.46 0.35,12.46 -0.35,12.46  z" class="primitive"/>
            </g>
            <g transform="translate(73.42,65.27)" id="img-d699b54b-116">
              <path d="M-0.35,-13.45 L0.35,-13.45 0.35,13.45 -0.35,13.45  z" class="primitive"/>
            </g>
            <g transform="translate(74.06,68.23)" id="img-d699b54b-117">
              <path d="M-0.35,-10.49 L0.35,-10.49 0.35,10.49 -0.35,10.49  z" class="primitive"/>
            </g>
            <g transform="translate(74.7,67.78)" id="img-d699b54b-118">
              <path d="M-0.35,-10.94 L0.35,-10.94 0.35,10.94 -0.35,10.94  z" class="primitive"/>
            </g>
            <g transform="translate(75.34,68.14)" id="img-d699b54b-119">
              <path d="M-0.35,-10.58 L0.35,-10.58 0.35,10.58 -0.35,10.58  z" class="primitive"/>
            </g>
            <g transform="translate(75.99,66.16)" id="img-d699b54b-120">
              <path d="M-0.35,-12.55 L0.35,-12.55 0.35,12.55 -0.35,12.55  z" class="primitive"/>
            </g>
            <g transform="translate(76.63,66.79)" id="img-d699b54b-121">
              <path d="M-0.35,-11.92 L0.35,-11.92 0.35,11.92 -0.35,11.92  z" class="primitive"/>
            </g>
            <g transform="translate(77.27,68.5)" id="img-d699b54b-122">
              <path d="M-0.35,-10.22 L0.35,-10.22 0.35,10.22 -0.35,10.22  z" class="primitive"/>
            </g>
            <g transform="translate(77.91,68.41)" id="img-d699b54b-123">
              <path d="M-0.35,-10.31 L0.35,-10.31 0.35,10.31 -0.35,10.31  z" class="primitive"/>
            </g>
            <g transform="translate(78.56,67.51)" id="img-d699b54b-124">
              <path d="M-0.35,-11.21 L0.35,-11.21 0.35,11.21 -0.35,11.21  z" class="primitive"/>
            </g>
            <g transform="translate(79.2,68.85)" id="img-d699b54b-125">
              <path d="M-0.35,-9.86 L0.35,-9.86 0.35,9.86 -0.35,9.86  z" class="primitive"/>
            </g>
            <g transform="translate(79.84,69.93)" id="img-d699b54b-126">
              <path d="M-0.35,-8.79 L0.35,-8.79 0.35,8.79 -0.35,8.79  z" class="primitive"/>
            </g>
            <g transform="translate(80.48,69.75)" id="img-d699b54b-127">
              <path d="M-0.35,-8.96 L0.35,-8.96 0.35,8.96 -0.35,8.96  z" class="primitive"/>
            </g>
            <g transform="translate(81.12,69.75)" id="img-d699b54b-128">
              <path d="M-0.35,-8.96 L0.35,-8.96 0.35,8.96 -0.35,8.96  z" class="primitive"/>
            </g>
            <g transform="translate(81.77,70.02)" id="img-d699b54b-129">
              <path d="M-0.35,-8.7 L0.35,-8.7 0.35,8.7 -0.35,8.7  z" class="primitive"/>
            </g>
            <g transform="translate(82.41,71.72)" id="img-d699b54b-130">
              <path d="M-0.35,-6.99 L0.35,-6.99 0.35,6.99 -0.35,6.99  z" class="primitive"/>
            </g>
            <g transform="translate(83.05,69.48)" id="img-d699b54b-131">
              <path d="M-0.35,-9.23 L0.35,-9.23 0.35,9.23 -0.35,9.23  z" class="primitive"/>
            </g>
            <g transform="translate(83.69,69.66)" id="img-d699b54b-132">
              <path d="M-0.35,-9.05 L0.35,-9.05 0.35,9.05 -0.35,9.05  z" class="primitive"/>
            </g>
            <g transform="translate(84.33,70.65)" id="img-d699b54b-133">
              <path d="M-0.35,-8.07 L0.35,-8.07 0.35,8.07 -0.35,8.07  z" class="primitive"/>
            </g>
            <g transform="translate(84.98,72.62)" id="img-d699b54b-134">
              <path d="M-0.35,-6.1 L0.35,-6.1 0.35,6.1 -0.35,6.1  z" class="primitive"/>
            </g>
            <g transform="translate(85.62,72.8)" id="img-d699b54b-135">
              <path d="M-0.35,-5.92 L0.35,-5.92 0.35,5.92 -0.35,5.92  z" class="primitive"/>
            </g>
            <g transform="translate(86.26,70.11)" id="img-d699b54b-136">
              <path d="M-0.35,-8.61 L0.35,-8.61 0.35,8.61 -0.35,8.61  z" class="primitive"/>
            </g>
            <g transform="translate(86.9,71.72)" id="img-d699b54b-137">
              <path d="M-0.35,-6.99 L0.35,-6.99 0.35,6.99 -0.35,6.99  z" class="primitive"/>
            </g>
            <g transform="translate(87.55,72.17)" id="img-d699b54b-138">
              <path d="M-0.35,-6.54 L0.35,-6.54 0.35,6.54 -0.35,6.54  z" class="primitive"/>
            </g>
            <g transform="translate(88.19,73.78)" id="img-d699b54b-139">
              <path d="M-0.35,-4.93 L0.35,-4.93 0.35,4.93 -0.35,4.93  z" class="primitive"/>
            </g>
            <g transform="translate(88.83,71.63)" id="img-d699b54b-140">
              <path d="M-0.35,-7.08 L0.35,-7.08 0.35,7.08 -0.35,7.08  z" class="primitive"/>
            </g>
            <g transform="translate(89.47,72.8)" id="img-d699b54b-141">
              <path d="M-0.35,-5.92 L0.35,-5.92 0.35,5.92 -0.35,5.92  z" class="primitive"/>
            </g>
            <g transform="translate(90.11,73.07)" id="img-d699b54b-142">
              <path d="M-0.35,-5.65 L0.35,-5.65 0.35,5.65 -0.35,5.65  z" class="primitive"/>
            </g>
            <g transform="translate(90.76,73.61)" id="img-d699b54b-143">
              <path d="M-0.35,-5.11 L0.35,-5.11 0.35,5.11 -0.35,5.11  z" class="primitive"/>
            </g>
            <g transform="translate(91.4,73.52)" id="img-d699b54b-144">
              <path d="M-0.35,-5.2 L0.35,-5.2 0.35,5.2 -0.35,5.2  z" class="primitive"/>
            </g>
            <g transform="translate(92.04,72.53)" id="img-d699b54b-145">
              <path d="M-0.35,-6.19 L0.35,-6.19 0.35,6.19 -0.35,6.19  z" class="primitive"/>
            </g>
            <g transform="translate(92.68,73.96)" id="img-d699b54b-146">
              <path d="M-0.35,-4.75 L0.35,-4.75 0.35,4.75 -0.35,4.75  z" class="primitive"/>
            </g>
            <g transform="translate(93.32,73.34)" id="img-d699b54b-147">
              <path d="M-0.35,-5.38 L0.35,-5.38 0.35,5.38 -0.35,5.38  z" class="primitive"/>
            </g>
            <g transform="translate(93.97,74.14)" id="img-d699b54b-148">
              <path d="M-0.35,-4.57 L0.35,-4.57 0.35,4.57 -0.35,4.57  z" class="primitive"/>
            </g>
            <g transform="translate(94.61,73.96)" id="img-d699b54b-149">
              <path d="M-0.35,-4.75 L0.35,-4.75 0.35,4.75 -0.35,4.75  z" class="primitive"/>
            </g>
            <g transform="translate(95.25,73.87)" id="img-d699b54b-150">
              <path d="M-0.35,-4.84 L0.35,-4.84 0.35,4.84 -0.35,4.84  z" class="primitive"/>
            </g>
            <g transform="translate(95.89,75.76)" id="img-d699b54b-151">
              <path d="M-0.35,-2.96 L0.35,-2.96 0.35,2.96 -0.35,2.96  z" class="primitive"/>
            </g>
            <g transform="translate(96.54,73.87)" id="img-d699b54b-152">
              <path d="M-0.35,-4.84 L0.35,-4.84 0.35,4.84 -0.35,4.84  z" class="primitive"/>
            </g>
            <g transform="translate(97.18,74.41)" id="img-d699b54b-153">
              <path d="M-0.35,-4.3 L0.35,-4.3 0.35,4.3 -0.35,4.3  z" class="primitive"/>
            </g>
            <g transform="translate(97.82,75.85)" id="img-d699b54b-154">
              <path d="M-0.35,-2.87 L0.35,-2.87 0.35,2.87 -0.35,2.87  z" class="primitive"/>
            </g>
            <g transform="translate(98.46,75.31)" id="img-d699b54b-155">
              <path d="M-0.35,-3.41 L0.35,-3.41 0.35,3.41 -0.35,3.41  z" class="primitive"/>
            </g>
            <g transform="translate(99.1,75.4)" id="img-d699b54b-156">
              <path d="M-0.35,-3.32 L0.35,-3.32 0.35,3.32 -0.35,3.32  z" class="primitive"/>
            </g>
            <g transform="translate(99.75,75.13)" id="img-d699b54b-157">
              <path d="M-0.35,-3.59 L0.35,-3.59 0.35,3.59 -0.35,3.59  z" class="primitive"/>
            </g>
            <g transform="translate(100.39,75.58)" id="img-d699b54b-158">
              <path d="M-0.35,-3.14 L0.35,-3.14 0.35,3.14 -0.35,3.14  z" class="primitive"/>
            </g>
            <g transform="translate(101.03,76.12)" id="img-d699b54b-159">
              <path d="M-0.35,-2.6 L0.35,-2.6 0.35,2.6 -0.35,2.6  z" class="primitive"/>
            </g>
            <g transform="translate(101.67,75.49)" id="img-d699b54b-160">
              <path d="M-0.35,-3.23 L0.35,-3.23 0.35,3.23 -0.35,3.23  z" class="primitive"/>
            </g>
            <g transform="translate(102.31,75.58)" id="img-d699b54b-161">
              <path d="M-0.35,-3.14 L0.35,-3.14 0.35,3.14 -0.35,3.14  z" class="primitive"/>
            </g>
            <g transform="translate(102.96,75.76)" id="img-d699b54b-162">
              <path d="M-0.35,-2.96 L0.35,-2.96 0.35,2.96 -0.35,2.96  z" class="primitive"/>
            </g>
            <g transform="translate(103.6,77.37)" id="img-d699b54b-163">
              <path d="M-0.35,-1.34 L0.35,-1.34 0.35,1.34 -0.35,1.34  z" class="primitive"/>
            </g>
            <g transform="translate(104.24,77.01)" id="img-d699b54b-164">
              <path d="M-0.35,-1.7 L0.35,-1.7 0.35,1.7 -0.35,1.7  z" class="primitive"/>
            </g>
            <g transform="translate(104.88,77.19)" id="img-d699b54b-165">
              <path d="M-0.35,-1.52 L0.35,-1.52 0.35,1.52 -0.35,1.52  z" class="primitive"/>
            </g>
            <g transform="translate(105.53,77.28)" id="img-d699b54b-166">
              <path d="M-0.35,-1.43 L0.35,-1.43 0.35,1.43 -0.35,1.43  z" class="primitive"/>
            </g>
            <g transform="translate(106.17,77.55)" id="img-d699b54b-167">
              <path d="M-0.35,-1.17 L0.35,-1.17 0.35,1.17 -0.35,1.17  z" class="primitive"/>
            </g>
            <g transform="translate(106.81,76.47)" id="img-d699b54b-168">
              <path d="M-0.35,-2.24 L0.35,-2.24 0.35,2.24 -0.35,2.24  z" class="primitive"/>
            </g>
            <g transform="translate(107.45,77.37)" id="img-d699b54b-169">
              <path d="M-0.35,-1.34 L0.35,-1.34 0.35,1.34 -0.35,1.34  z" class="primitive"/>
            </g>
            <g transform="translate(108.09,77.55)" id="img-d699b54b-170">
              <path d="M-0.35,-1.17 L0.35,-1.17 0.35,1.17 -0.35,1.17  z" class="primitive"/>
            </g>
            <g transform="translate(108.74,77.19)" id="img-d699b54b-171">
              <path d="M-0.35,-1.52 L0.35,-1.52 0.35,1.52 -0.35,1.52  z" class="primitive"/>
            </g>
            <g transform="translate(109.38,77.64)" id="img-d699b54b-172">
              <path d="M-0.35,-1.08 L0.35,-1.08 0.35,1.08 -0.35,1.08  z" class="primitive"/>
            </g>
            <g transform="translate(110.02,49.85)" id="img-d699b54b-173">
              <path d="M-0.35,-28.87 L0.35,-28.87 0.35,28.87 -0.35,28.87  z" class="primitive"/>
            </g>
          </g>
        </g>
      </g>
    </g>
  </g>
  <g class="guide ylabels" font-size="2.82" font-family="'PT Sans Caption','Helvetica Neue','Helvetica',sans-serif" fill="#6C606B" id="img-d699b54b-174">
    <g transform="translate(11.02,78.71)" id="img-d699b54b-175">
      <g class="primitive">
        <text text-anchor="end" dy="0.35em">0</text>
      </g>
    </g>
    <g transform="translate(11.02,60.79)" id="img-d699b54b-176">
      <g class="primitive">
        <text text-anchor="end" dy="0.35em">100</text>
      </g>
    </g>
    <g transform="translate(11.02,42.86)" id="img-d699b54b-177">
      <g class="primitive">
        <text text-anchor="end" dy="0.35em">200</text>
      </g>
    </g>
    <g transform="translate(11.02,24.93)" id="img-d699b54b-178">
      <g class="primitive">
        <text text-anchor="end" dy="0.35em">300</text>
      </g>
    </g>
    <g transform="translate(11.02,7)" id="img-d699b54b-179">
      <g class="primitive">
        <text text-anchor="end" dy="0.35em">400</text>
      </g>
    </g>
  </g>
</g>
<defs>
  <clipPath id="img-d699b54b-4">
    <path d="M12.02,5 L136.42,5 136.42,80.72 12.02,80.72 " />
  </clipPath>
</defs>
</svg>
