<?xml version="1.0" encoding="UTF-8"?>
<svg xmlns="http://www.w3.org/2000/svg"
     xmlns:xlink="http://www.w3.org/1999/xlink"
     xmlns:gadfly="http://www.gadflyjl.org/ns"
     version="1.2"
     width="203.2mm" height="101.6mm" viewBox="0 0 203.2 101.6"
     stroke="none"
     fill="#000000"
     stroke-width="0.3"
     font-size="3.88"
>
<defs>
  <marker id="arrow" markerWidth="15" markerHeight="7" refX="5" refY="3.5" orient="auto" markerUnits="strokeWidth">
    <path d="M0,0 L15,3.5 L0,7 z" stroke="context-stroke" fill="context-stroke"/>
  </marker>
</defs>
<g class="plotroot xscalable yscalable" id="img-0c97b187-1">
  <g font-size="3.88" font-family="'PT Sans','Helvetica Neue','Helvetica',sans-serif" fill="#564A55" stroke="#000000" stroke-opacity="0.000" id="img-0c97b187-2">
    <g transform="translate(107.48,89.99)">
      <g class="primitive">
        <text text-anchor="middle" dy="0.6em">ρ₁₂</text>
      </g>
    </g>
  </g>
  <g class="guide xlabels" font-size="2.82" font-family="'PT Sans Caption','Helvetica Neue','Helvetica',sans-serif" fill="#6C606B" id="img-0c97b187-3">
    <g transform="translate(18.77,83.32)">
      <g class="primitive">
        <text text-anchor="middle" dy="0.6em">-1.0</text>
      </g>
    </g>
    <g transform="translate(63.13,83.32)">
      <g class="primitive">
        <text text-anchor="middle" dy="0.6em">-0.5</text>
      </g>
    </g>
    <g transform="translate(107.48,83.32)">
      <g class="primitive">
        <text text-anchor="middle" dy="0.6em">0.0</text>
      </g>
    </g>
    <g transform="translate(151.84,83.32)">
      <g class="primitive">
        <text text-anchor="middle" dy="0.6em">0.5</text>
      </g>
    </g>
    <g transform="translate(196.2,83.32)">
      <g class="primitive">
        <text text-anchor="middle" dy="0.6em">1.0</text>
      </g>
    </g>
  </g>
  <g clip-path="url(#img-0c97b187-4)">
    <g id="img-0c97b187-5">
      <g pointer-events="visible" fill="#000000" fill-opacity="0.000" stroke="#000000" stroke-opacity="0.000" class="guide background" id="img-0c97b187-6">
        <g transform="translate(107.48,43.66)" id="img-0c97b187-7">
          <path d="M-90.72,-38.66 L 90.72 -38.66 90.72 38.66 -90.72 38.66 z" class="primitive"/>
        </g>
      </g>
      <g class="guide ygridlines xfixed" stroke-dasharray="0.5,0.5" stroke-width="0.2" stroke="#D0D0E0" id="img-0c97b187-8">
        <g transform="translate(107.48,80.31)" id="img-0c97b187-9">
          <path fill="none" d="M-90.72,0 L 90.72 0" class="primitive"/>
        </g>
        <g transform="translate(107.48,55.88)" id="img-0c97b187-10">
          <path fill="none" d="M-90.72,0 L 90.72 0" class="primitive"/>
        </g>
        <g transform="translate(107.48,31.44)" id="img-0c97b187-11">
          <path fill="none" d="M-90.72,0 L 90.72 0" class="primitive"/>
        </g>
        <g transform="translate(107.48,7)" id="img-0c97b187-12">
          <path fill="none" d="M-90.72,0 L 90.72 0" class="primitive"/>
        </g>
      </g>
      <g class="guide xgridlines yfixed" stroke-dasharray="0.5,0.5" stroke-width="0.2" stroke="#D0D0E0" id="img-0c97b187-13">
        <g transform="translate(18.77,43.66)" id="img-0c97b187-14">
          <path fill="none" d="M0,-38.66 L 0 38.66" class="primitive"/>
        </g>
        <g transform="translate(63.13,43.66)" id="img-0c97b187-15">
          <path fill="none" d="M0,-38.66 L 0 38.66" class="primitive"/>
        </g>
        <g transform="translate(107.48,43.66)" id="img-0c97b187-16">
          <path fill="none" d="M0,-38.66 L 0 38.66" class="primitive"/>
        </g>
        <g transform="translate(151.84,43.66)" id="img-0c97b187-17">
          <path fill="none" d="M0,-38.66 L 0 38.66" class="primitive"/>
        </g>
        <g transform="translate(196.2,43.66)" id="img-0c97b187-18">
          <path fill="none" d="M0,-38.66 L 0 38.66" class="primitive"/>
        </g>
      </g>
      <g class="plotpanel" id="img-0c97b187-19">
        <metadata>
          <boundingbox value="16.76666666666668mm 5.0mm 181.43333333333334mm 77.315mm"/>
          <unitbox value="-1.0225436783768551 3081.8386414785514 2.0450873567537102 -3163.677282957103"/>
        </metadata>
        <g shape-rendering="crispEdges" stroke-width="0.3" id="img-0c97b187-20">
          <g stroke="#000000" stroke-opacity="0.000" class="geometry" fill="#00BFFF" id="img-0c97b187-21">
            <g transform="translate(19.36,73.26)" id="img-0c97b187-22">
              <path d="M-0.62,-7.05 L 0.62 -7.05 0.62 7.05 -0.62 7.05 z" class="primitive"/>
            </g>
            <g transform="translate(20.54,80.17)" id="img-0c97b187-23">
              <path d="M-0.62,-0.15 L 0.62 -0.15 0.62 0.15 -0.62 0.15 z" class="primitive"/>
            </g>
            <g transform="translate(21.72,80.27)" id="img-0c97b187-24">
              <path d="M-0.62,-0.05 L 0.62 -0.05 0.62 0.05 -0.62 0.05 z" class="primitive"/>
            </g>
            <g transform="translate(22.91,80.14)" id="img-0c97b187-25">
              <path d="M-0.62,-0.17 L 0.62 -0.17 0.62 0.17 -0.62 0.17 z" class="primitive"/>
            </g>
            <g transform="translate(24.09,80.19)" id="img-0c97b187-26">
              <path d="M-0.62,-0.12 L 0.62 -0.12 0.62 0.12 -0.62 0.12 z" class="primitive"/>
            </g>
            <g transform="translate(25.27,79.86)" id="img-0c97b187-27">
              <path d="M-0.62,-0.45 L 0.62 -0.45 0.62 0.45 -0.62 0.45 z" class="primitive"/>
            </g>
            <g transform="translate(26.46,79.91)" id="img-0c97b187-28">
              <path d="M-0.62,-0.4 L 0.62 -0.4 0.62 0.4 -0.62 0.4 z" class="primitive"/>
            </g>
            <g transform="translate(27.64,79.73)" id="img-0c97b187-29">
              <path d="M-0.62,-0.59 L 0.62 -0.59 0.62 0.59 -0.62 0.59 z" class="primitive"/>
            </g>
            <g transform="translate(28.82,79.75)" id="img-0c97b187-30">
              <path d="M-0.62,-0.56 L 0.62 -0.56 0.62 0.56 -0.62 0.56 z" class="primitive"/>
            </g>
            <g transform="translate(30,79.61)" id="img-0c97b187-31">
              <path d="M-0.62,-0.71 L 0.62 -0.71 0.62 0.71 -0.62 0.71 z" class="primitive"/>
            </g>
            <g transform="translate(31.19,79.51)" id="img-0c97b187-32">
              <path d="M-0.62,-0.81 L 0.62 -0.81 0.62 0.81 -0.62 0.81 z" class="primitive"/>
            </g>
            <g transform="translate(32.37,79.42)" id="img-0c97b187-33">
              <path d="M-0.62,-0.89 L 0.62 -0.89 0.62 0.89 -0.62 0.89 z" class="primitive"/>
            </g>
            <g transform="translate(33.55,79.31)" id="img-0c97b187-34">
              <path d="M-0.62,-1 L 0.62 -1 0.62 1 -0.62 1 z" class="primitive"/>
            </g>
            <g transform="translate(34.74,79.25)" id="img-0c97b187-35">
              <path d="M-0.62,-1.06 L 0.62 -1.06 0.62 1.06 -0.62 1.06 z" class="primitive"/>
            </g>
            <g transform="translate(35.92,79.26)" id="img-0c97b187-36">
              <path d="M-0.62,-1.05 L 0.62 -1.05 0.62 1.05 -0.62 1.05 z" class="primitive"/>
            </g>
            <g transform="translate(37.1,79.35)" id="img-0c97b187-37">
              <path d="M-0.62,-0.97 L 0.62 -0.97 0.62 0.97 -0.62 0.97 z" class="primitive"/>
            </g>
            <g transform="translate(38.28,79.06)" id="img-0c97b187-38">
              <path d="M-0.62,-1.26 L 0.62 -1.26 0.62 1.26 -0.62 1.26 z" class="primitive"/>
            </g>
            <g transform="translate(39.47,79)" id="img-0c97b187-39">
              <path d="M-0.62,-1.32 L 0.62 -1.32 0.62 1.32 -0.62 1.32 z" class="primitive"/>
            </g>
            <g transform="translate(40.65,78.95)" id="img-0c97b187-40">
              <path d="M-0.62,-1.37 L 0.62 -1.37 0.62 1.37 -0.62 1.37 z" class="primitive"/>
            </g>
            <g transform="translate(41.83,78.69)" id="img-0c97b187-41">
              <path d="M-0.62,-1.63 L 0.62 -1.63 0.62 1.63 -0.62 1.63 z" class="primitive"/>
            </g>
            <g transform="translate(43.02,79.08)" id="img-0c97b187-42">
              <path d="M-0.62,-1.23 L 0.62 -1.23 0.62 1.23 -0.62 1.23 z" class="primitive"/>
            </g>
            <g transform="translate(44.2,79.01)" id="img-0c97b187-43">
              <path d="M-0.62,-1.31 L 0.62 -1.31 0.62 1.31 -0.62 1.31 z" class="primitive"/>
            </g>
            <g transform="translate(45.38,78.92)" id="img-0c97b187-44">
              <path d="M-0.62,-1.39 L 0.62 -1.39 0.62 1.39 -0.62 1.39 z" class="primitive"/>
            </g>
            <g transform="translate(46.56,78.85)" id="img-0c97b187-45">
              <path d="M-0.62,-1.47 L 0.62 -1.47 0.62 1.47 -0.62 1.47 z" class="primitive"/>
            </g>
            <g transform="translate(47.75,78.98)" id="img-0c97b187-46">
              <path d="M-0.62,-1.33 L 0.62 -1.33 0.62 1.33 -0.62 1.33 z" class="primitive"/>
            </g>
            <g transform="translate(48.93,79.03)" id="img-0c97b187-47">
              <path d="M-0.62,-1.28 L 0.62 -1.28 0.62 1.28 -0.62 1.28 z" class="primitive"/>
            </g>
            <g transform="translate(50.11,79.07)" id="img-0c97b187-48">
              <path d="M-0.62,-1.25 L 0.62 -1.25 0.62 1.25 -0.62 1.25 z" class="primitive"/>
            </g>
            <g transform="translate(51.3,79.03)" id="img-0c97b187-49">
              <path d="M-0.62,-1.28 L 0.62 -1.28 0.62 1.28 -0.62 1.28 z" class="primitive"/>
            </g>
            <g transform="translate(52.48,79.14)" id="img-0c97b187-50">
              <path d="M-0.62,-1.17 L 0.62 -1.17 0.62 1.17 -0.62 1.17 z" class="primitive"/>
            </g>
            <g transform="translate(53.66,79.06)" id="img-0c97b187-51">
              <path d="M-0.62,-1.26 L 0.62 -1.26 0.62 1.26 -0.62 1.26 z" class="primitive"/>
            </g>
            <g transform="translate(54.84,79.13)" id="img-0c97b187-52">
              <path d="M-0.62,-1.19 L 0.62 -1.19 0.62 1.19 -0.62 1.19 z" class="primitive"/>
            </g>
            <g transform="translate(56.03,79.01)" id="img-0c97b187-53">
              <path d="M-0.62,-1.31 L 0.62 -1.31 0.62 1.31 -0.62 1.31 z" class="primitive"/>
            </g>
            <g transform="translate(57.21,79.02)" id="img-0c97b187-54">
              <path d="M-0.62,-1.3 L 0.62 -1.3 0.62 1.3 -0.62 1.3 z" class="primitive"/>
            </g>
            <g transform="translate(58.39,79.09)" id="img-0c97b187-55">
              <path d="M-0.62,-1.22 L 0.62 -1.22 0.62 1.22 -0.62 1.22 z" class="primitive"/>
            </g>
            <g transform="translate(59.58,78.92)" id="img-0c97b187-56">
              <path d="M-0.62,-1.39 L 0.62 -1.39 0.62 1.39 -0.62 1.39 z" class="primitive"/>
            </g>
            <g transform="translate(60.76,79.19)" id="img-0c97b187-57">
              <path d="M-0.62,-1.12 L 0.62 -1.12 0.62 1.12 -0.62 1.12 z" class="primitive"/>
            </g>
            <g transform="translate(61.94,79.06)" id="img-0c97b187-58">
              <path d="M-0.62,-1.26 L 0.62 -1.26 0.62 1.26 -0.62 1.26 z" class="primitive"/>
            </g>
            <g transform="translate(63.13,79.18)" id="img-0c97b187-59">
              <path d="M-0.62,-1.14 L 0.62 -1.14 0.62 1.14 -0.62 1.14 z" class="primitive"/>
            </g>
            <g transform="translate(64.31,79.03)" id="img-0c97b187-60">
              <path d="M-0.62,-1.28 L 0.62 -1.28 0.62 1.28 -0.62 1.28 z" class="primitive"/>
            </g>
            <g transform="translate(65.49,79.15)" id="img-0c97b187-61">
              <path d="M-0.62,-1.16 L 0.62 -1.16 0.62 1.16 -0.62 1.16 z" class="primitive"/>
            </g>
            <g transform="translate(66.67,79.22)" id="img-0c97b187-62">
              <path d="M-0.62,-1.1 L 0.62 -1.1 0.62 1.1 -0.62 1.1 z" class="primitive"/>
            </g>
            <g transform="translate(67.86,79.3)" id="img-0c97b187-63">
              <path d="M-0.62,-1.01 L 0.62 -1.01 0.62 1.01 -0.62 1.01 z" class="primitive"/>
            </g>
            <g transform="translate(69.04,79.22)" id="img-0c97b187-64">
              <path d="M-0.62,-1.1 L 0.62 -1.1 0.62 1.1 -0.62 1.1 z" class="primitive"/>
            </g>
            <g transform="translate(70.22,79.37)" id="img-0c97b187-65">
              <path d="M-0.62,-0.94 L 0.62 -0.94 0.62 0.94 -0.62 0.94 z" class="primitive"/>
            </g>
            <g transform="translate(71.41,79.39)" id="img-0c97b187-66">
              <path d="M-0.62,-0.93 L 0.62 -0.93 0.62 0.93 -0.62 0.93 z" class="primitive"/>
            </g>
            <g transform="translate(72.59,79.37)" id="img-0c97b187-67">
              <path d="M-0.62,-0.94 L 0.62 -0.94 0.62 0.94 -0.62 0.94 z" class="primitive"/>
            </g>
            <g transform="translate(73.77,79.23)" id="img-0c97b187-68">
              <path d="M-0.62,-1.09 L 0.62 -1.09 0.62 1.09 -0.62 1.09 z" class="primitive"/>
            </g>
            <g transform="translate(74.95,79.51)" id="img-0c97b187-69">
              <path d="M-0.62,-0.81 L 0.62 -0.81 0.62 0.81 -0.62 0.81 z" class="primitive"/>
            </g>
            <g transform="translate(76.14,79.44)" id="img-0c97b187-70">
              <path d="M-0.62,-0.88 L 0.62 -0.88 0.62 0.88 -0.62 0.88 z" class="primitive"/>
            </g>
            <g transform="translate(77.32,79.39)" id="img-0c97b187-71">
              <path d="M-0.62,-0.93 L 0.62 -0.93 0.62 0.93 -0.62 0.93 z" class="primitive"/>
            </g>
            <g transform="translate(78.5,79.53)" id="img-0c97b187-72">
              <path d="M-0.62,-0.78 L 0.62 -0.78 0.62 0.78 -0.62 0.78 z" class="primitive"/>
            </g>
            <g transform="translate(79.69,79.44)" id="img-0c97b187-73">
              <path d="M-0.62,-0.88 L 0.62 -0.88 0.62 0.88 -0.62 0.88 z" class="primitive"/>
            </g>
            <g transform="translate(80.87,79.37)" id="img-0c97b187-74">
              <path d="M-0.62,-0.94 L 0.62 -0.94 0.62 0.94 -0.62 0.94 z" class="primitive"/>
            </g>
            <g transform="translate(82.05,79.61)" id="img-0c97b187-75">
              <path d="M-0.62,-0.71 L 0.62 -0.71 0.62 0.71 -0.62 0.71 z" class="primitive"/>
            </g>
            <g transform="translate(83.23,79.58)" id="img-0c97b187-76">
              <path d="M-0.62,-0.73 L 0.62 -0.73 0.62 0.73 -0.62 0.73 z" class="primitive"/>
            </g>
            <g transform="translate(84.42,79.42)" id="img-0c97b187-77">
              <path d="M-0.62,-0.89 L 0.62 -0.89 0.62 0.89 -0.62 0.89 z" class="primitive"/>
            </g>
            <g transform="translate(85.6,79.57)" id="img-0c97b187-78">
              <path d="M-0.62,-0.75 L 0.62 -0.75 0.62 0.75 -0.62 0.75 z" class="primitive"/>
            </g>
            <g transform="translate(86.78,79.41)" id="img-0c97b187-79">
              <path d="M-0.62,-0.9 L 0.62 -0.9 0.62 0.9 -0.62 0.9 z" class="primitive"/>
            </g>
            <g transform="translate(87.97,79.8)" id="img-0c97b187-80">
              <path d="M-0.62,-0.51 L 0.62 -0.51 0.62 0.51 -0.62 0.51 z" class="primitive"/>
            </g>
            <g transform="translate(89.15,79.73)" id="img-0c97b187-81">
              <path d="M-0.62,-0.59 L 0.62 -0.59 0.62 0.59 -0.62 0.59 z" class="primitive"/>
            </g>
            <g transform="translate(90.33,79.44)" id="img-0c97b187-82">
              <path d="M-0.62,-0.88 L 0.62 -0.88 0.62 0.88 -0.62 0.88 z" class="primitive"/>
            </g>
            <g transform="translate(91.51,79.67)" id="img-0c97b187-83">
              <path d="M-0.62,-0.65 L 0.62 -0.65 0.62 0.65 -0.62 0.65 z" class="primitive"/>
            </g>
            <g transform="translate(92.7,79.77)" id="img-0c97b187-84">
              <path d="M-0.62,-0.55 L 0.62 -0.55 0.62 0.55 -0.62 0.55 z" class="primitive"/>
            </g>
            <g transform="translate(93.88,79.57)" id="img-0c97b187-85">
              <path d="M-0.62,-0.75 L 0.62 -0.75 0.62 0.75 -0.62 0.75 z" class="primitive"/>
            </g>
            <g transform="translate(95.06,79.63)" id="img-0c97b187-86">
              <path d="M-0.62,-0.68 L 0.62 -0.68 0.62 0.68 -0.62 0.68 z" class="primitive"/>
            </g>
            <g transform="translate(96.25,79.57)" id="img-0c97b187-87">
              <path d="M-0.62,-0.75 L 0.62 -0.75 0.62 0.75 -0.62 0.75 z" class="primitive"/>
            </g>
            <g transform="translate(97.43,79.78)" id="img-0c97b187-88">
              <path d="M-0.62,-0.54 L 0.62 -0.54 0.62 0.54 -0.62 0.54 z" class="primitive"/>
            </g>
            <g transform="translate(98.61,79.73)" id="img-0c97b187-89">
              <path d="M-0.62,-0.59 L 0.62 -0.59 0.62 0.59 -0.62 0.59 z" class="primitive"/>
            </g>
            <g transform="translate(99.79,79.84)" id="img-0c97b187-90">
              <path d="M-0.62,-0.48 L 0.62 -0.48 0.62 0.48 -0.62 0.48 z" class="primitive"/>
            </g>
            <g transform="translate(100.98,79.81)" id="img-0c97b187-91">
              <path d="M-0.62,-0.5 L 0.62 -0.5 0.62 0.5 -0.62 0.5 z" class="primitive"/>
            </g>
            <g transform="translate(102.16,79.75)" id="img-0c97b187-92">
              <path d="M-0.62,-0.56 L 0.62 -0.56 0.62 0.56 -0.62 0.56 z" class="primitive"/>
            </g>
            <g transform="translate(103.34,79.85)" id="img-0c97b187-93">
              <path d="M-0.62,-0.46 L 0.62 -0.46 0.62 0.46 -0.62 0.46 z" class="primitive"/>
            </g>
            <g transform="translate(104.53,79.84)" id="img-0c97b187-94">
              <path d="M-0.62,-0.48 L 0.62 -0.48 0.62 0.48 -0.62 0.48 z" class="primitive"/>
            </g>
            <g transform="translate(105.71,79.91)" id="img-0c97b187-95">
              <path d="M-0.62,-0.4 L 0.62 -0.4 0.62 0.4 -0.62 0.4 z" class="primitive"/>
            </g>
            <g transform="translate(106.89,79.91)" id="img-0c97b187-96">
              <path d="M-0.62,-0.4 L 0.62 -0.4 0.62 0.4 -0.62 0.4 z" class="primitive"/>
            </g>
            <g transform="translate(108.07,79.97)" id="img-0c97b187-97">
              <path d="M-0.62,-0.34 L 0.62 -0.34 0.62 0.34 -0.62 0.34 z" class="primitive"/>
            </g>
            <g transform="translate(109.26,80.03)" id="img-0c97b187-98">
              <path d="M-0.62,-0.28 L 0.62 -0.28 0.62 0.28 -0.62 0.28 z" class="primitive"/>
            </g>
            <g transform="translate(110.44,79.96)" id="img-0c97b187-99">
              <path d="M-0.62,-0.35 L 0.62 -0.35 0.62 0.35 -0.62 0.35 z" class="primitive"/>
            </g>
            <g transform="translate(111.62,79.84)" id="img-0c97b187-100">
              <path d="M-0.62,-0.48 L 0.62 -0.48 0.62 0.48 -0.62 0.48 z" class="primitive"/>
            </g>
            <g transform="translate(112.81,79.95)" id="img-0c97b187-101">
              <path d="M-0.62,-0.37 L 0.62 -0.37 0.62 0.37 -0.62 0.37 z" class="primitive"/>
            </g>
            <g transform="translate(113.99,79.96)" id="img-0c97b187-102">
              <path d="M-0.62,-0.35 L 0.62 -0.35 0.62 0.35 -0.62 0.35 z" class="primitive"/>
            </g>
            <g transform="translate(115.17,79.95)" id="img-0c97b187-103">
              <path d="M-0.62,-0.37 L 0.62 -0.37 0.62 0.37 -0.62 0.37 z" class="primitive"/>
            </g>
            <g transform="translate(116.36,80.01)" id="img-0c97b187-104">
              <path d="M-0.62,-0.31 L 0.62 -0.31 0.62 0.31 -0.62 0.31 z" class="primitive"/>
            </g>
            <g transform="translate(117.54,79.96)" id="img-0c97b187-105">
              <path d="M-0.62,-0.35 L 0.62 -0.35 0.62 0.35 -0.62 0.35 z" class="primitive"/>
            </g>
            <g transform="translate(118.72,79.9)" id="img-0c97b187-106">
              <path d="M-0.62,-0.42 L 0.62 -0.42 0.62 0.42 -0.62 0.42 z" class="primitive"/>
            </g>
            <g transform="translate(119.9,80.02)" id="img-0c97b187-107">
              <path d="M-0.62,-0.29 L 0.62 -0.29 0.62 0.29 -0.62 0.29 z" class="primitive"/>
            </g>
            <g transform="translate(121.09,80.05)" id="img-0c97b187-108">
              <path d="M-0.62,-0.27 L 0.62 -0.27 0.62 0.27 -0.62 0.27 z" class="primitive"/>
            </g>
            <g transform="translate(122.27,80.12)" id="img-0c97b187-109">
              <path d="M-0.62,-0.2 L 0.62 -0.2 0.62 0.2 -0.62 0.2 z" class="primitive"/>
            </g>
            <g transform="translate(123.45,79.89)" id="img-0c97b187-110">
              <path d="M-0.62,-0.43 L 0.62 -0.43 0.62 0.43 -0.62 0.43 z" class="primitive"/>
            </g>
            <g transform="translate(124.64,80.02)" id="img-0c97b187-111">
              <path d="M-0.62,-0.29 L 0.62 -0.29 0.62 0.29 -0.62 0.29 z" class="primitive"/>
            </g>
            <g transform="translate(125.82,79.99)" id="img-0c97b187-112">
              <path d="M-0.62,-0.33 L 0.62 -0.33 0.62 0.33 -0.62 0.33 z" class="primitive"/>
            </g>
            <g transform="translate(127,80.06)" id="img-0c97b187-113">
              <path d="M-0.62,-0.26 L 0.62 -0.26 0.62 0.26 -0.62 0.26 z" class="primitive"/>
            </g>
            <g transform="translate(128.18,79.99)" id="img-0c97b187-114">
              <path d="M-0.62,-0.33 L 0.62 -0.33 0.62 0.33 -0.62 0.33 z" class="primitive"/>
            </g>
            <g transform="translate(129.37,80.13)" id="img-0c97b187-115">
              <path d="M-0.62,-0.18 L 0.62 -0.18 0.62 0.18 -0.62 0.18 z" class="primitive"/>
            </g>
            <g transform="translate(130.55,80.06)" id="img-0c97b187-116">
              <path d="M-0.62,-0.26 L 0.62 -0.26 0.62 0.26 -0.62 0.26 z" class="primitive"/>
            </g>
            <g transform="translate(131.73,80.06)" id="img-0c97b187-117">
              <path d="M-0.62,-0.26 L 0.62 -0.26 0.62 0.26 -0.62 0.26 z" class="primitive"/>
            </g>
            <g transform="translate(132.92,80.02)" id="img-0c97b187-118">
              <path d="M-0.62,-0.29 L 0.62 -0.29 0.62 0.29 -0.62 0.29 z" class="primitive"/>
            </g>
            <g transform="translate(134.1,80.06)" id="img-0c97b187-119">
              <path d="M-0.62,-0.26 L 0.62 -0.26 0.62 0.26 -0.62 0.26 z" class="primitive"/>
            </g>
            <g transform="translate(135.28,80.02)" id="img-0c97b187-120">
              <path d="M-0.62,-0.29 L 0.62 -0.29 0.62 0.29 -0.62 0.29 z" class="primitive"/>
            </g>
            <g transform="translate(136.46,80.13)" id="img-0c97b187-121">
              <path d="M-0.62,-0.18 L 0.62 -0.18 0.62 0.18 -0.62 0.18 z" class="primitive"/>
            </g>
            <g transform="translate(137.65,80.07)" id="img-0c97b187-122">
              <path d="M-0.62,-0.24 L 0.62 -0.24 0.62 0.24 -0.62 0.24 z" class="primitive"/>
            </g>
            <g transform="translate(138.83,80.03)" id="img-0c97b187-123">
              <path d="M-0.62,-0.28 L 0.62 -0.28 0.62 0.28 -0.62 0.28 z" class="primitive"/>
            </g>
            <g transform="translate(140.01,80.05)" id="img-0c97b187-124">
              <path d="M-0.62,-0.27 L 0.62 -0.27 0.62 0.27 -0.62 0.27 z" class="primitive"/>
            </g>
            <g transform="translate(141.2,80.14)" id="img-0c97b187-125">
              <path d="M-0.62,-0.17 L 0.62 -0.17 0.62 0.17 -0.62 0.17 z" class="primitive"/>
            </g>
            <g transform="translate(142.38,80.13)" id="img-0c97b187-126">
              <path d="M-0.62,-0.18 L 0.62 -0.18 0.62 0.18 -0.62 0.18 z" class="primitive"/>
            </g>
            <g transform="translate(143.56,80.16)" id="img-0c97b187-127">
              <path d="M-0.62,-0.16 L 0.62 -0.16 0.62 0.16 -0.62 0.16 z" class="primitive"/>
            </g>
            <g transform="translate(144.74,80.05)" id="img-0c97b187-128">
              <path d="M-0.62,-0.27 L 0.62 -0.27 0.62 0.27 -0.62 0.27 z" class="primitive"/>
            </g>
            <g transform="translate(145.93,80.05)" id="img-0c97b187-129">
              <path d="M-0.62,-0.27 L 0.62 -0.27 0.62 0.27 -0.62 0.27 z" class="primitive"/>
            </g>
            <g transform="translate(147.11,80.13)" id="img-0c97b187-130">
              <path d="M-0.62,-0.18 L 0.62 -0.18 0.62 0.18 -0.62 0.18 z" class="primitive"/>
            </g>
            <g transform="translate(148.29,80.13)" id="img-0c97b187-131">
              <path d="M-0.62,-0.18 L 0.62 -0.18 0.62 0.18 -0.62 0.18 z" class="primitive"/>
            </g>
            <g transform="translate(149.48,80.16)" id="img-0c97b187-132">
              <path d="M-0.62,-0.16 L 0.62 -0.16 0.62 0.16 -0.62 0.16 z" class="primitive"/>
            </g>
            <g transform="translate(150.66,80.14)" id="img-0c97b187-133">
              <path d="M-0.62,-0.17 L 0.62 -0.17 0.62 0.17 -0.62 0.17 z" class="primitive"/>
            </g>
            <g transform="translate(151.84,80.19)" id="img-0c97b187-134">
              <path d="M-0.62,-0.12 L 0.62 -0.12 0.62 0.12 -0.62 0.12 z" class="primitive"/>
            </g>
            <g transform="translate(153.02,80.14)" id="img-0c97b187-135">
              <path d="M-0.62,-0.17 L 0.62 -0.17 0.62 0.17 -0.62 0.17 z" class="primitive"/>
            </g>
            <g transform="translate(154.21,80.16)" id="img-0c97b187-136">
              <path d="M-0.62,-0.16 L 0.62 -0.16 0.62 0.16 -0.62 0.16 z" class="primitive"/>
            </g>
            <g transform="translate(155.39,80.14)" id="img-0c97b187-137">
              <path d="M-0.62,-0.17 L 0.62 -0.17 0.62 0.17 -0.62 0.17 z" class="primitive"/>
            </g>
            <g transform="translate(156.57,80.03)" id="img-0c97b187-138">
              <path d="M-0.62,-0.28 L 0.62 -0.28 0.62 0.28 -0.62 0.28 z" class="primitive"/>
            </g>
            <g transform="translate(157.76,80.19)" id="img-0c97b187-139">
              <path d="M-0.62,-0.12 L 0.62 -0.12 0.62 0.12 -0.62 0.12 z" class="primitive"/>
            </g>
            <g transform="translate(158.94,80.12)" id="img-0c97b187-140">
              <path d="M-0.62,-0.2 L 0.62 -0.2 0.62 0.2 -0.62 0.2 z" class="primitive"/>
            </g>
            <g transform="translate(160.12,80.23)" id="img-0c97b187-141">
              <path d="M-0.62,-0.09 L 0.62 -0.09 0.62 0.09 -0.62 0.09 z" class="primitive"/>
            </g>
            <g transform="translate(161.3,80.17)" id="img-0c97b187-142">
              <path d="M-0.62,-0.15 L 0.62 -0.15 0.62 0.15 -0.62 0.15 z" class="primitive"/>
            </g>
            <g transform="translate(162.49,80.1)" id="img-0c97b187-143">
              <path d="M-0.62,-0.22 L 0.62 -0.22 0.62 0.22 -0.62 0.22 z" class="primitive"/>
            </g>
            <g transform="translate(163.67,80.16)" id="img-0c97b187-144">
              <path d="M-0.62,-0.16 L 0.62 -0.16 0.62 0.16 -0.62 0.16 z" class="primitive"/>
            </g>
            <g transform="translate(164.85,80.23)" id="img-0c97b187-145">
              <path d="M-0.62,-0.09 L 0.62 -0.09 0.62 0.09 -0.62 0.09 z" class="primitive"/>
            </g>
            <g transform="translate(166.04,80.18)" id="img-0c97b187-146">
              <path d="M-0.62,-0.13 L 0.62 -0.13 0.62 0.13 -0.62 0.13 z" class="primitive"/>
            </g>
            <g transform="translate(167.22,80.19)" id="img-0c97b187-147">
              <path d="M-0.62,-0.12 L 0.62 -0.12 0.62 0.12 -0.62 0.12 z" class="primitive"/>
            </g>
            <g transform="translate(168.4,80.21)" id="img-0c97b187-148">
              <path d="M-0.62,-0.11 L 0.62 -0.11 0.62 0.11 -0.62 0.11 z" class="primitive"/>
            </g>
            <g transform="translate(169.59,80.19)" id="img-0c97b187-149">
              <path d="M-0.62,-0.12 L 0.62 -0.12 0.62 0.12 -0.62 0.12 z" class="primitive"/>
            </g>
            <g transform="translate(170.77,80.18)" id="img-0c97b187-150">
              <path d="M-0.62,-0.13 L 0.62 -0.13 0.62 0.13 -0.62 0.13 z" class="primitive"/>
            </g>
            <g transform="translate(171.95,80.16)" id="img-0c97b187-151">
              <path d="M-0.62,-0.16 L 0.62 -0.16 0.62 0.16 -0.62 0.16 z" class="primitive"/>
            </g>
            <g transform="translate(173.13,80.23)" id="img-0c97b187-152">
              <path d="M-0.62,-0.09 L 0.62 -0.09 0.62 0.09 -0.62 0.09 z" class="primitive"/>
            </g>
            <g transform="translate(174.32,80.12)" id="img-0c97b187-153">
              <path d="M-0.62,-0.2 L 0.62 -0.2 0.62 0.2 -0.62 0.2 z" class="primitive"/>
            </g>
            <g transform="translate(175.5,80.24)" id="img-0c97b187-154">
              <path d="M-0.62,-0.07 L 0.62 -0.07 0.62 0.07 -0.62 0.07 z" class="primitive"/>
            </g>
            <g transform="translate(176.68,80.24)" id="img-0c97b187-155">
              <path d="M-0.62,-0.07 L 0.62 -0.07 0.62 0.07 -0.62 0.07 z" class="primitive"/>
            </g>
            <g transform="translate(177.87,80.23)" id="img-0c97b187-156">
              <path d="M-0.62,-0.09 L 0.62 -0.09 0.62 0.09 -0.62 0.09 z" class="primitive"/>
            </g>
            <g transform="translate(179.05,80.22)" id="img-0c97b187-157">
              <path d="M-0.62,-0.1 L 0.62 -0.1 0.62 0.1 -0.62 0.1 z" class="primitive"/>
            </g>
            <g transform="translate(180.23,80.27)" id="img-0c97b187-158">
              <path d="M-0.62,-0.05 L 0.62 -0.05 0.62 0.05 -0.62 0.05 z" class="primitive"/>
            </g>
            <g transform="translate(181.41,80.12)" id="img-0c97b187-159">
              <path d="M-0.62,-0.2 L 0.62 -0.2 0.62 0.2 -0.62 0.2 z" class="primitive"/>
            </g>
            <g transform="translate(182.6,80.24)" id="img-0c97b187-160">
              <path d="M-0.62,-0.07 L 0.62 -0.07 0.62 0.07 -0.62 0.07 z" class="primitive"/>
            </g>
            <g transform="translate(183.78,80.18)" id="img-0c97b187-161">
              <path d="M-0.62,-0.13 L 0.62 -0.13 0.62 0.13 -0.62 0.13 z" class="primitive"/>
            </g>
            <g transform="translate(184.96,80.19)" id="img-0c97b187-162">
              <path d="M-0.62,-0.12 L 0.62 -0.12 0.62 0.12 -0.62 0.12 z" class="primitive"/>
            </g>
            <g transform="translate(186.15,80.23)" id="img-0c97b187-163">
              <path d="M-0.62,-0.09 L 0.62 -0.09 0.62 0.09 -0.62 0.09 z" class="primitive"/>
            </g>
            <g transform="translate(187.33,80.22)" id="img-0c97b187-164">
              <path d="M-0.62,-0.1 L 0.62 -0.1 0.62 0.1 -0.62 0.1 z" class="primitive"/>
            </g>
            <g transform="translate(188.51,80.19)" id="img-0c97b187-165">
              <path d="M-0.62,-0.12 L 0.62 -0.12 0.62 0.12 -0.62 0.12 z" class="primitive"/>
            </g>
            <g transform="translate(189.69,80.22)" id="img-0c97b187-166">
              <path d="M-0.62,-0.1 L 0.62 -0.1 0.62 0.1 -0.62 0.1 z" class="primitive"/>
            </g>
            <g transform="translate(190.88,80.18)" id="img-0c97b187-167">
              <path d="M-0.62,-0.13 L 0.62 -0.13 0.62 0.13 -0.62 0.13 z" class="primitive"/>
            </g>
            <g transform="translate(192.06,80.18)" id="img-0c97b187-168">
              <path d="M-0.62,-0.13 L 0.62 -0.13 0.62 0.13 -0.62 0.13 z" class="primitive"/>
            </g>
            <g transform="translate(193.24,80.23)" id="img-0c97b187-169">
              <path d="M-0.62,-0.09 L 0.62 -0.09 0.62 0.09 -0.62 0.09 z" class="primitive"/>
            </g>
            <g transform="translate(194.43,80.06)" id="img-0c97b187-170">
              <path d="M-0.62,-0.26 L 0.62 -0.26 0.62 0.26 -0.62 0.26 z" class="primitive"/>
            </g>
            <g transform="translate(195.61,46.75)" id="img-0c97b187-171">
              <path d="M-0.62,-33.57 L 0.62 -33.57 0.62 33.57 -0.62 33.57 z" class="primitive"/>
            </g>
          </g>
        </g>
      </g>
    </g>
  </g>
  <g class="guide ylabels" font-size="2.82" font-family="'PT Sans Caption','Helvetica Neue','Helvetica',sans-serif" fill="#6C606B" id="img-0c97b187-172">
    <g transform="translate(15.77,80.31)" id="img-0c97b187-173">
      <g class="primitive">
        <text text-anchor="end" dy="0.35em">0</text>
      </g>
    </g>
    <g transform="translate(15.77,55.88)" id="img-0c97b187-174">
      <g class="primitive">
        <text text-anchor="end" dy="0.35em">1×10³</text>
      </g>
    </g>
    <g transform="translate(15.77,31.44)" id="img-0c97b187-175">
      <g class="primitive">
        <text text-anchor="end" dy="0.35em">2×10³</text>
      </g>
    </g>
    <g transform="translate(15.77,7)" id="img-0c97b187-176">
      <g class="primitive">
        <text text-anchor="end" dy="0.35em">3×10³</text>
      </g>
    </g>
  </g>
</g>
<defs>
  <clipPath id="img-0c97b187-4">
    <path d="M16.77,5 L 198.2 5 198.2 82.32 16.77 82.32" />
  </clipPath>
</defs>
</svg>
