<?xml version="1.0" encoding="UTF-8"?>
<svg xmlns="http://www.w3.org/2000/svg"
     xmlns:xlink="http://www.w3.org/1999/xlink"
     xmlns:gadfly="http://www.gadflyjl.org/ns"
     version="1.2"
     width="141.42mm" height="100mm" viewBox="0 0 141.42 100"
     stroke="none"
     fill="#000000"
     stroke-width="0.3"
     font-size="3.88"
>
<defs>
  <marker id="arrow" markerWidth="15" markerHeight="7" refX="5" refY="3.5" orient="auto" markerUnits="strokeWidth">
    <path d="M0,0 L15,3.5 L0,7 z" stroke="context-stroke" fill="context-stroke"/>
  </marker>
</defs>
<g class="plotroot xscalable yscalable" id="img-d6d2d229-1">
  <g font-size="3.88" font-family="'PT Sans','Helvetica Neue','Helvetica',sans-serif" fill="#564A55" stroke="#000000" stroke-opacity="0.000" id="img-d6d2d229-2">
    <g transform="translate(70.78,88.39)">
      <g class="primitive">
        <text text-anchor="middle" dy="0.6em">step</text>
      </g>
    </g>
  </g>
  <g class="guide xlabels" font-size="2.82" font-family="'PT Sans Caption','Helvetica Neue','Helvetica',sans-serif" fill="#6C606B" id="img-d6d2d229-3">
    <g transform="translate(23.3,81.72)">
      <g class="primitive">
        <text text-anchor="middle" dy="0.6em">0</text>
      </g>
    </g>
    <g transform="translate(39.13,81.72)">
      <g class="primitive">
        <text text-anchor="middle" dy="0.6em">10</text>
      </g>
    </g>
    <g transform="translate(54.95,81.72)">
      <g class="primitive">
        <text text-anchor="middle" dy="0.6em">20</text>
      </g>
    </g>
    <g transform="translate(70.78,81.72)">
      <g class="primitive">
        <text text-anchor="middle" dy="0.6em">30</text>
      </g>
    </g>
    <g transform="translate(86.6,81.72)">
      <g class="primitive">
        <text text-anchor="middle" dy="0.6em">40</text>
      </g>
    </g>
    <g transform="translate(102.43,81.72)">
      <g class="primitive">
        <text text-anchor="middle" dy="0.6em">50</text>
      </g>
    </g>
    <g transform="translate(118.25,81.72)">
      <g class="primitive">
        <text text-anchor="middle" dy="0.6em">60</text>
      </g>
    </g>
  </g>
  <g class="guide colorkey" id="img-d6d2d229-4">
    <g class="color_BOBYQA" id="img-d6d2d229-5">
      <g fill="#4C404B" font-size="2.82" font-family="'PT Sans','Helvetica Neue','Helvetica',sans-serif" id="img-d6d2d229-6">
        <g transform="translate(124.06,44.67)" id="img-d6d2d229-7">
          <g class="primitive">
            <text dy="0.35em">BOBYQA</text>
          </g>
        </g>
      </g>
      <g fill-opacity="1" fill="#00BFFF" stroke="#FFFFFF" id="img-d6d2d229-8">
        <g transform="translate(122.16,44.67)" id="img-d6d2d229-9">
          <path d="M-0.91,-0.91 L0.91,-0.91 0.91,0.91 -0.91,0.91  z" class="primitive"/>
        </g>
      </g>
    </g>
    <g fill="#362A35" font-size="3.88" font-family="'PT Sans','Helvetica Neue','Helvetica',sans-serif" stroke="#000000" stroke-opacity="0.000" id="img-d6d2d229-10">
      <g transform="translate(121.25,40.85)" id="img-d6d2d229-11">
        <g class="primitive">
          <text dy="-0em">algorithm</text>
        </g>
      </g>
    </g>
  </g>
  <g clip-path="url(#img-d6d2d229-12)">
    <g id="img-d6d2d229-13">
      <g pointer-events="visible" stroke-width="0.3" fill="#000000" fill-opacity="0.000" stroke="#000000" stroke-opacity="0.000" class="guide background" id="img-d6d2d229-14">
        <g transform="translate(70.78,42.86)" id="img-d6d2d229-15">
          <path d="M-49.47,-37.86 L49.47,-37.86 49.47,37.86 -49.47,37.86  z" class="primitive"/>
        </g>
      </g>
      <g class="guide ygridlines xfixed" stroke-dasharray="0.5,0.5" stroke-width="0.2" stroke="#D0D0E0" id="img-d6d2d229-16">
        <g transform="translate(70.78,78.72)" id="img-d6d2d229-17">
          <path fill="none" d="M-49.47,0 L49.47,0 " class="primitive"/>
        </g>
        <g transform="translate(70.78,66.76)" id="img-d6d2d229-18">
          <path fill="none" d="M-49.47,0 L49.47,0 " class="primitive"/>
        </g>
        <g transform="translate(70.78,54.81)" id="img-d6d2d229-19">
          <path fill="none" d="M-49.47,0 L49.47,0 " class="primitive"/>
        </g>
        <g transform="translate(70.78,42.86)" id="img-d6d2d229-20">
          <path fill="none" d="M-49.47,0 L49.47,0 " class="primitive"/>
        </g>
        <g transform="translate(70.78,30.91)" id="img-d6d2d229-21">
          <path fill="none" d="M-49.47,0 L49.47,0 " class="primitive"/>
        </g>
        <g transform="translate(70.78,18.95)" id="img-d6d2d229-22">
          <path fill="none" d="M-49.47,0 L49.47,0 " class="primitive"/>
        </g>
        <g transform="translate(70.78,7)" id="img-d6d2d229-23">
          <path fill="none" d="M-49.47,0 L49.47,0 " class="primitive"/>
        </g>
      </g>
      <g class="guide xgridlines yfixed" stroke-dasharray="0.5,0.5" stroke-width="0.2" stroke="#D0D0E0" id="img-d6d2d229-24">
        <g transform="translate(23.3,42.86)" id="img-d6d2d229-25">
          <path fill="none" d="M0,-37.86 L0,37.86 " class="primitive"/>
        </g>
        <g transform="translate(39.13,42.86)" id="img-d6d2d229-26">
          <path fill="none" d="M0,-37.86 L0,37.86 " class="primitive"/>
        </g>
        <g transform="translate(54.95,42.86)" id="img-d6d2d229-27">
          <path fill="none" d="M0,-37.86 L0,37.86 " class="primitive"/>
        </g>
        <g transform="translate(70.78,42.86)" id="img-d6d2d229-28">
          <path fill="none" d="M0,-37.86 L0,37.86 " class="primitive"/>
        </g>
        <g transform="translate(86.6,42.86)" id="img-d6d2d229-29">
          <path fill="none" d="M0,-37.86 L0,37.86 " class="primitive"/>
        </g>
        <g transform="translate(102.43,42.86)" id="img-d6d2d229-30">
          <path fill="none" d="M0,-37.86 L0,37.86 " class="primitive"/>
        </g>
        <g transform="translate(118.25,42.86)" id="img-d6d2d229-31">
          <path fill="none" d="M0,-37.86 L0,37.86 " class="primitive"/>
        </g>
      </g>
      <g class="plotpanel" id="img-d6d2d229-32">
        <metadata>
          <boundingbox value="21.304999999999993mm 5.0mm 98.94635623730952mm 75.715mm"/>
          <unitbox value="-1.263871566593575 1811.6732901066723 62.52774313318716 -63.346580213344495"/>
        </metadata>
        <g stroke-width="0.3" fill="#000000" fill-opacity="0.000" class="geometry" id="img-d6d2d229-33">
          <g class="color_BOBYQA" stroke-dasharray="none" stroke-opacity="1" stroke="#00BFFF" id="img-d6d2d229-34">
            <g transform="translate(69.2,69.65)" id="img-d6d2d229-35">
              <path fill="none" d="M-44.31,-32.34 L-42.73,-38.89 -41.14,-49.5 -39.56,-55.3 -37.98,-51.43 -36.4,-49.03 -34.81,6.36 -33.23,-47.81 -31.65,3.14 -30.07,4.65 -28.48,3.31 -26.9,5.35 -25.32,5.55 -23.74,6.37 -22.15,6.61 -20.57,6.65 -18.99,6.65 -17.41,6.71 -15.82,6.73 -14.24,6.74 -12.66,6.69 -11.08,6.7 -9.49,6.73 -7.91,6.74 -6.33,6.74 -4.75,6.74 -3.16,6.74 -1.58,6.74 0,6.74 1.58,6.74 3.16,6.74 4.75,6.74 6.33,6.74 7.91,6.74 9.49,6.75 11.08,6.75 12.66,6.75 14.24,6.75 15.82,6.75 17.41,6.75 18.99,6.75 20.57,6.75 22.15,6.75 23.74,6.75 25.32,6.75 26.9,6.75 28.48,6.75 30.07,6.75 31.65,6.75 33.23,6.75 34.81,6.75 36.4,6.75 37.98,6.75 39.56,6.75 41.14,6.75 42.73,6.75 44.31,6.75 " class="primitive"/>
            </g>
          </g>
        </g>
      </g>
    </g>
  </g>
  <g class="guide ylabels" font-size="2.82" font-family="'PT Sans Caption','Helvetica Neue','Helvetica',sans-serif" fill="#6C606B" id="img-d6d2d229-36">
    <g transform="translate(20.3,78.72)" id="img-d6d2d229-37">
      <g class="primitive">
        <text text-anchor="end" dy="0.35em">1750</text>
      </g>
    </g>
    <g transform="translate(20.3,66.76)" id="img-d6d2d229-38">
      <g class="primitive">
        <text text-anchor="end" dy="0.35em">1760</text>
      </g>
    </g>
    <g transform="translate(20.3,54.81)" id="img-d6d2d229-39">
      <g class="primitive">
        <text text-anchor="end" dy="0.35em">1770</text>
      </g>
    </g>
    <g transform="translate(20.3,42.86)" id="img-d6d2d229-40">
      <g class="primitive">
        <text text-anchor="end" dy="0.35em">1780</text>
      </g>
    </g>
    <g transform="translate(20.3,30.91)" id="img-d6d2d229-41">
      <g class="primitive">
        <text text-anchor="end" dy="0.35em">1790</text>
      </g>
    </g>
    <g transform="translate(20.3,18.95)" id="img-d6d2d229-42">
      <g class="primitive">
        <text text-anchor="end" dy="0.35em">1800</text>
      </g>
    </g>
    <g transform="translate(20.3,7)" id="img-d6d2d229-43">
      <g class="primitive">
        <text text-anchor="end" dy="0.35em">1810</text>
      </g>
    </g>
  </g>
  <g font-size="3.88" font-family="'PT Sans','Helvetica Neue','Helvetica',sans-serif" fill="#564A55" stroke="#000000" stroke-opacity="0.000" id="img-d6d2d229-44">
    <g transform="translate(8.81,40.86)" id="img-d6d2d229-45">
      <g class="primitive">
        <text text-anchor="middle" dy="0.35em" transform="rotate(-90,0, 2)">objective</text>
      </g>
    </g>
  </g>
</g>
<defs>
  <clipPath id="img-d6d2d229-12">
    <path d="M21.3,5 L120.25,5 120.25,80.72 21.3,80.72 " />
  </clipPath>
</defs>
</svg>
