<?xml version="1.0" encoding="UTF-8"?>
<svg xmlns="http://www.w3.org/2000/svg"
     xmlns:xlink="http://www.w3.org/1999/xlink"
     xmlns:gadfly="http://www.gadflyjl.org/ns"
     version="1.2"
     width="203.2mm" height="101.6mm" viewBox="0 0 203.2 101.6"
     stroke="none"
     fill="#000000"
     stroke-width="0.3"
     font-size="3.88"
>
<g class="plotroot xscalable yscalable" id="img-13b1ba85-1">
  <g font-size="3.88" font-family="'PT Sans','Helvetica Neue','Helvetica',sans-serif" fill="#564A55" stroke="#000000" stroke-opacity="0.000" id="img-13b1ba85-2">
    <text x="105.45" y="89.99" text-anchor="middle" dy="0.6em">Parametric bootstrap estimates of σ₁</text>
  </g>
  <g class="guide xlabels" font-size="2.82" font-family="'PT Sans Caption','Helvetica Neue','Helvetica',sans-serif" fill="#6C606B" id="img-13b1ba85-3">
    <text x="14.69" y="83.32" text-anchor="middle" dy="0.6em">-50</text>
    <text x="75.2" y="83.32" text-anchor="middle" dy="0.6em">0</text>
    <text x="135.7" y="83.32" text-anchor="middle" dy="0.6em">50</text>
    <text x="196.2" y="83.32" text-anchor="middle" dy="0.6em">100</text>
  </g>
<g clip-path="url(#img-13b1ba85-4)">
  <g id="img-13b1ba85-5">
    <g pointer-events="visible" opacity="1" fill="#000000" fill-opacity="0.000" stroke="#000000" stroke-opacity="0.000" class="guide background" id="img-13b1ba85-6">
      <rect x="12.69" y="5" width="185.51" height="77.32"/>
    </g>
    <g class="guide ygridlines xfixed" stroke-dasharray="0.5,0.5" stroke-width="0.2" stroke="#D0D0E0" id="img-13b1ba85-7">
      <path fill="none" d="M12.69,80.32 L 198.2 80.32"/>
      <path fill="none" d="M12.69,55.88 L 198.2 55.88"/>
      <path fill="none" d="M12.69,31.44 L 198.2 31.44"/>
      <path fill="none" d="M12.69,7 L 198.2 7"/>
    </g>
    <g class="guide xgridlines yfixed" stroke-dasharray="0.5,0.5" stroke-width="0.2" stroke="#D0D0E0" id="img-13b1ba85-8">
      <path fill="none" d="M14.69,5 L 14.69 82.32"/>
      <path fill="none" d="M75.2,5 L 75.2 82.32"/>
      <path fill="none" d="M135.7,5 L 135.7 82.32"/>
      <path fill="none" d="M196.2,5 L 196.2 82.32"/>
    </g>
    <g class="plotpanel" id="img-13b1ba85-9">
      <g stroke-width="0.3" fill="#000000" fill-opacity="0.000" class="geometry" id="img-13b1ba85-10">
        <g stroke-dasharray="none" stroke="#00BFFF" id="img-13b1ba85-11">
          <path fill="none" d="M68.26,80.29 L 68.75 80.24 69.25 80.12 69.74 79.82 70.23 79.16 70.73 77.82 71.22 75.34 71.71 71.16 72.2 64.78 72.7 55.97 73.19 45.13 73.68 33.37 74.18 22.5 74.67 14.56 75.16 11.22 75.66 13.15 76.15 19.82 76.64 29.67 77.14 40.65 77.63 50.92 78.12 59.26 78.61 65.2 79.11 68.89 79.6 70.81 80.09 71.51 80.59 71.46 81.08 71 81.57 70.32 82.07 69.54 82.56 68.69 83.05 67.81 83.55 66.9 84.04 65.97 84.53 65.01 85.02 64.03 85.52 63.06 86.01 62.09 86.5 61.13 87 60.19 87.49 59.26 87.98 58.33 88.48 57.37 88.97 56.38 89.46 55.36 89.96 54.3 90.45 53.22 90.94 52.12 91.43 51.03 91.93 49.94 92.42 48.87 92.91 47.82 93.41 46.79 93.9 45.78 94.39 44.79 94.89 43.81 95.38 42.83 95.87 41.84 96.37 40.84 96.86 39.84 97.35 38.82 97.84 37.79 98.34 36.74 98.83 35.66 99.32 34.55 99.82 33.43 100.31 32.29 100.8 31.18 101.3 30.1 101.79 29.06 102.28 28.08 102.78 27.14 103.27 26.22 103.76 25.32 104.25 24.41 104.75 23.51 105.24 22.63 105.73 21.79 106.23 21 106.72 20.29 107.21 19.66 107.71 19.11 108.2 18.64 108.69 18.25 109.19 17.95 109.68 17.72 110.17 17.57 110.66 17.46 111.16 17.39 111.65 17.34 112.14 17.3 112.64 17.29 113.13 17.3 113.62 17.37 114.12 17.51 114.61 17.74 115.1 18.04 115.6 18.43 116.09 18.89 116.58 19.4 117.07 19.95 117.57 20.53 118.06 21.12 118.55 21.73 119.05 22.34 119.54 22.96 120.03 23.58 120.53 24.19 121.02 24.81 121.51 25.42 122.01 26.05 122.5 26.72 122.99 27.45 123.48 28.29 123.98 29.23 124.47 30.27 124.96 31.39 125.46 32.57 125.95 33.76 126.44 34.94 126.94 36.11 127.43 37.24 127.92 38.33 128.42 39.39 128.91 40.4 129.4 41.39 129.89 42.36 130.39 43.32 130.88 44.29 131.37 45.27 131.87 46.26 132.36 47.27 132.85 48.28 133.35 49.31 133.84 50.33 134.33 51.36 134.83 52.39 135.32 53.39 135.81 54.38 136.3 55.34 136.8 56.28 137.29 57.19 137.78 58.09 138.28 58.99 138.77 59.87 139.26 60.75 139.76 61.61 140.25 62.44 140.74 63.23 141.24 63.99 141.73 64.71 142.22 65.39 142.71 66.04 143.21 66.67 143.7 67.28 144.19 67.88 144.69 68.46 145.18 69.02 145.67 69.56 146.17 70.08 146.66 70.58 147.15 71.05 147.65 71.51 148.14 71.94 148.63 72.36 149.13 72.76 149.62 73.13 150.11 73.49 150.6 73.82 151.1 74.14 151.59 74.44 152.08 74.74 152.58 75.04 153.07 75.34 153.56 75.63 154.06 75.91 154.55 76.18 155.04 76.45 155.54 76.7 156.03 76.95 156.52 77.19 157.01 77.42 157.51 77.63 158 77.83 158.49 78.02 158.99 78.18 159.48 78.33 159.97 78.46 160.47 78.58 160.96 78.69 161.45 78.78 161.95 78.86 162.44 78.95 162.93 79.03 163.42 79.11 163.92 79.2 164.41 79.29 164.9 79.38 165.4 79.47 165.89 79.55 166.38 79.62 166.88 79.68 167.37 79.73 167.86 79.76 168.36 79.79 168.85 79.82 169.34 79.85 169.83 79.87 170.33 79.89 170.82 79.92 171.31 79.94 171.81 79.96 172.3 79.98 172.79 80 173.29 80.02 173.78 80.04 174.27 80.07 174.77 80.09 175.26 80.12 175.75 80.14 176.24 80.16 176.74 80.18 177.23 80.2 177.72 80.21 178.22 80.22 178.71 80.23 179.2 80.24 179.7 80.25 180.19 80.25 180.68 80.26 181.18 80.26 181.67 80.27 182.16 80.27 182.65 80.28 183.15 80.28 183.64 80.29 184.13 80.29 184.63 80.29 185.12 80.3 185.61 80.3 186.11 80.3 186.6 80.31 187.09 80.31 187.59 80.31 188.08 80.31 188.57 80.31 189.06 80.31 189.56 80.31 190.05 80.31 190.54 80.31 191.04 80.31 191.53 80.31 192.02 80.31 192.52 80.31 193.01 80.31 193.5 80.31 194 80.31"/>
        </g>
      </g>
    </g>
  </g>
</g>
  <g class="guide ylabels" font-size="2.82" font-family="'PT Sans Caption','Helvetica Neue','Helvetica',sans-serif" fill="#6C606B" id="img-13b1ba85-12">
    <text x="11.69" y="80.32" text-anchor="end" dy="0.35em">0.00</text>
    <text x="11.69" y="55.88" text-anchor="end" dy="0.35em">0.01</text>
    <text x="11.69" y="31.44" text-anchor="end" dy="0.35em">0.02</text>
    <text x="11.69" y="7" text-anchor="end" dy="0.35em">0.03</text>
  </g>
</g>
<defs>
  <clipPath id="img-13b1ba85-4">
  <path d="M12.69,5 L 198.2 5 198.2 82.32 12.69 82.32" />
</clipPath>
</defs>
</svg>
