<?xml version="1.0" encoding="UTF-8"?>
<svg xmlns="http://www.w3.org/2000/svg"
     xmlns:xlink="http://www.w3.org/1999/xlink"
     xmlns:gadfly="http://www.gadflyjl.org/ns"
     version="1.2"
     width="203.2mm" height="101.6mm" viewBox="0 0 203.2 101.6"
     stroke="none"
     fill="#000000"
     stroke-width="0.3"
     font-size="3.88"
>
<g class="plotroot xscalable yscalable" id="img-47f57bbc-1">
  <g font-size="3.88" font-family="'PT Sans','Helvetica Neue','Helvetica',sans-serif" fill="#564A55" stroke="#000000" stroke-opacity="0.000" id="img-47f57bbc-2">
    <text x="105.45" y="89.99" text-anchor="middle" dy="0.6em">Parametric bootstrap estimates of σ</text>
  </g>
  <g class="guide xlabels" font-size="2.82" font-family="'PT Sans Caption','Helvetica Neue','Helvetica',sans-serif" fill="#6C606B" id="img-47f57bbc-3">
    <text x="14.69" y="83.32" text-anchor="middle" dy="0.6em">0</text>
    <text x="50.99" y="83.32" text-anchor="middle" dy="0.6em">20</text>
    <text x="87.3" y="83.32" text-anchor="middle" dy="0.6em">40</text>
    <text x="123.6" y="83.32" text-anchor="middle" dy="0.6em">60</text>
    <text x="159.9" y="83.32" text-anchor="middle" dy="0.6em">80</text>
    <text x="196.2" y="83.32" text-anchor="middle" dy="0.6em">100</text>
  </g>
<g clip-path="url(#img-47f57bbc-4)">
  <g id="img-47f57bbc-5">
    <g pointer-events="visible" opacity="1" fill="#000000" fill-opacity="0.000" stroke="#000000" stroke-opacity="0.000" class="guide background" id="img-47f57bbc-6">
      <rect x="12.69" y="5" width="185.51" height="77.32"/>
    </g>
    <g class="guide ygridlines xfixed" stroke-dasharray="0.5,0.5" stroke-width="0.2" stroke="#D0D0E0" id="img-47f57bbc-7">
      <path fill="none" d="M12.69,80.32 L 198.2 80.32"/>
      <path fill="none" d="M12.69,68.1 L 198.2 68.1"/>
      <path fill="none" d="M12.69,55.88 L 198.2 55.88"/>
      <path fill="none" d="M12.69,43.66 L 198.2 43.66"/>
      <path fill="none" d="M12.69,31.44 L 198.2 31.44"/>
      <path fill="none" d="M12.69,19.22 L 198.2 19.22"/>
      <path fill="none" d="M12.69,7 L 198.2 7"/>
    </g>
    <g class="guide xgridlines yfixed" stroke-dasharray="0.5,0.5" stroke-width="0.2" stroke="#D0D0E0" id="img-47f57bbc-8">
      <path fill="none" d="M14.69,5 L 14.69 82.32"/>
      <path fill="none" d="M50.99,5 L 50.99 82.32"/>
      <path fill="none" d="M87.3,5 L 87.3 82.32"/>
      <path fill="none" d="M123.6,5 L 123.6 82.32"/>
      <path fill="none" d="M159.9,5 L 159.9 82.32"/>
      <path fill="none" d="M196.2,5 L 196.2 82.32"/>
    </g>
    <g class="plotpanel" id="img-47f57bbc-9">
      <g stroke-width="0.3" fill="#000000" fill-opacity="0.000" class="geometry" id="img-47f57bbc-10">
        <g stroke-dasharray="none" stroke="#00BFFF" id="img-47f57bbc-11">
          <path fill="none" d="M51.47,80.31 L 51.9 80.31 52.34 80.31 52.77 80.31 53.21 80.31 53.64 80.31 54.08 80.31 54.52 80.31 54.95 80.3 55.39 80.29 55.82 80.28 56.26 80.27 56.69 80.27 57.13 80.27 57.56 80.27 58 80.27 58.43 80.28 58.87 80.27 59.31 80.26 59.74 80.25 60.18 80.24 60.61 80.22 61.05 80.19 61.48 80.16 61.92 80.13 62.35 80.09 62.79 80.05 63.23 80 63.66 79.96 64.1 79.91 64.53 79.87 64.97 79.83 65.4 79.78 65.84 79.73 66.27 79.67 66.71 79.6 67.14 79.52 67.58 79.41 68.02 79.29 68.45 79.15 68.89 79.01 69.32 78.85 69.76 78.68 70.19 78.48 70.63 78.24 71.06 77.95 71.5 77.64 71.93 77.31 72.37 76.98 72.81 76.67 73.24 76.36 73.68 76.05 74.11 75.73 74.55 75.38 74.98 74.98 75.42 74.53 75.85 74.01 76.29 73.44 76.72 72.81 77.16 72.14 77.6 71.44 78.03 70.72 78.47 70 78.9 69.27 79.34 68.53 79.77 67.75 80.21 66.9 80.64 65.99 81.08 65.01 81.51 64 81.95 62.97 82.39 61.92 82.82 60.81 83.26 59.63 83.69 58.34 84.13 56.98 84.56 55.6 85 54.24 85.43 52.94 85.87 51.68 86.31 50.42 86.74 49.13 87.18 47.77 87.61 46.38 88.05 44.95 88.48 43.5 88.92 42.03 89.35 40.52 89.79 39.01 90.22 37.52 90.66 36.07 91.1 34.69 91.53 33.38 91.97 32.12 92.4 30.88 92.84 29.64 93.27 28.36 93.71 27.03 94.14 25.62 94.58 24.13 95.01 22.58 95.45 21.02 95.89 19.51 96.32 18.13 96.76 16.94 97.19 15.98 97.63 15.26 98.06 14.73 98.5 14.34 98.93 14.03 99.37 13.73 99.8 13.37 100.24 12.92 100.68 12.4 101.11 11.88 101.55 11.44 101.98 11.18 102.42 11.14 102.85 11.29 103.29 11.58 103.72 11.93 104.16 12.29 104.59 12.66 105.03 13.08 105.47 13.58 105.9 14.18 106.34 14.83 106.77 15.49 107.21 16.11 107.64 16.68 108.08 17.25 108.51 17.87 108.95 18.62 109.39 19.53 109.82 20.61 110.26 21.83 110.69 23.16 111.13 24.52 111.56 25.88 112 27.22 112.43 28.54 112.87 29.85 113.3 31.16 113.74 32.5 114.18 33.88 114.61 35.3 115.05 36.76 115.48 38.21 115.92 39.62 116.35 40.96 116.79 42.24 117.22 43.48 117.66 44.71 118.09 45.94 118.53 47.15 118.97 48.32 119.4 49.46 119.84 50.59 120.27 51.74 120.71 52.92 121.14 54.14 121.58 55.39 122.01 56.66 122.45 57.94 122.88 59.2 123.32 60.41 123.76 61.56 124.19 62.61 124.63 63.57 125.06 64.46 125.5 65.28 125.93 66.05 126.37 66.77 126.8 67.46 127.24 68.12 127.67 68.77 128.11 69.39 128.55 70.02 128.98 70.65 129.42 71.3 129.85 71.94 130.29 72.55 130.72 73.1 131.16 73.59 131.59 74.01 132.03 74.39 132.47 74.75 132.9 75.09 133.34 75.42 133.77 75.75 134.21 76.06 134.64 76.36 135.08 76.62 135.51 76.86 135.95 77.07 136.38 77.28 136.82 77.52 137.26 77.76 137.69 78.02 138.13 78.26 138.56 78.47 139 78.64 139.43 78.76 139.87 78.84 140.3 78.91 140.74 78.98 141.17 79.06 141.61 79.16 142.05 79.25 142.48 79.35 142.92 79.43 143.35 79.51 143.79 79.59 144.22 79.66 144.66 79.74 145.09 79.81 145.53 79.87 145.96 79.93 146.4 79.97 146.84 80.01 147.27 80.04 147.71 80.08 148.14 80.11 148.58 80.15 149.01 80.17 149.45 80.19 149.88 80.2 150.32 80.2 150.75 80.19 151.19 80.17 151.63 80.16 152.06 80.16 152.5 80.18 152.93 80.2 153.37 80.22 153.8 80.25 154.24 80.26 154.67 80.28 155.11 80.29 155.55 80.29 155.98 80.3 156.42 80.3 156.85 80.3 157.29 80.3 157.72 80.3 158.16 80.31 158.59 80.31 159.03 80.31 159.46 80.31 159.9 80.31 160.34 80.31 160.77 80.31 161.21 80.31 161.64 80.31 162.08 80.31 162.51 80.31"/>
        </g>
      </g>
    </g>
  </g>
</g>
  <g class="guide ylabels" font-size="2.82" font-family="'PT Sans Caption','Helvetica Neue','Helvetica',sans-serif" fill="#6C606B" id="img-47f57bbc-12">
    <text x="11.69" y="80.32" text-anchor="end" dy="0.35em">0.00</text>
    <text x="11.69" y="68.1" text-anchor="end" dy="0.35em">0.01</text>
    <text x="11.69" y="55.88" text-anchor="end" dy="0.35em">0.02</text>
    <text x="11.69" y="43.66" text-anchor="end" dy="0.35em">0.03</text>
    <text x="11.69" y="31.44" text-anchor="end" dy="0.35em">0.04</text>
    <text x="11.69" y="19.22" text-anchor="end" dy="0.35em">0.05</text>
    <text x="11.69" y="7" text-anchor="end" dy="0.35em">0.06</text>
  </g>
</g>
<defs>
  <clipPath id="img-47f57bbc-4">
  <path d="M12.69,5 L 198.2 5 198.2 82.32 12.69 82.32" />
</clipPath>
</defs>
</svg>
