<?xml version="1.0" encoding="UTF-8"?>
<svg xmlns="http://www.w3.org/2000/svg"
     xmlns:xlink="http://www.w3.org/1999/xlink"
     xmlns:gadfly="http://www.gadflyjl.org/ns"
     version="1.2"
     width="152.4mm" height="101.6mm" viewBox="0 0 152.4 101.6"
     stroke="none"
     fill="#000000"
     stroke-width="0.3"
     font-size="3.88"
>
<g class="plotroot xscalable yscalable" id="img-fe01e0ef-1">
  <g font-size="3.88" font-family="'PT Sans','Helvetica Neue','Helvetica',sans-serif" fill="#564A55" stroke="#000000" stroke-opacity="0.000" id="img-fe01e0ef-2">
    <text x="87.06" y="89.99" text-anchor="middle" dy="0.6em">Standard Normal quantiles</text>
  </g>
  <g class="guide xlabels" font-size="2.82" font-family="'PT Sans Caption','Helvetica Neue','Helvetica',sans-serif" fill="#6C606B" id="img-fe01e0ef-3">
    <text x="28.73" y="83.32" text-anchor="middle" dy="0.6em">-3</text>
    <text x="48.17" y="83.32" text-anchor="middle" dy="0.6em">-2</text>
    <text x="67.62" y="83.32" text-anchor="middle" dy="0.6em">-1</text>
    <text x="87.06" y="83.32" text-anchor="middle" dy="0.6em">0</text>
    <text x="106.51" y="83.32" text-anchor="middle" dy="0.6em">1</text>
    <text x="125.95" y="83.32" text-anchor="middle" dy="0.6em">2</text>
    <text x="145.4" y="83.32" text-anchor="middle" dy="0.6em">3</text>
  </g>
<g clip-path="url(#img-fe01e0ef-4)">
  <g id="img-fe01e0ef-5">
    <g pointer-events="visible" opacity="1" fill="#000000" fill-opacity="0.000" stroke="#000000" stroke-opacity="0.000" class="guide background" id="img-fe01e0ef-6">
      <rect x="26.73" y="5" width="120.67" height="77.32"/>
    </g>
    <g class="guide ygridlines xfixed" stroke-dasharray="0.5,0.5" stroke-width="0.2" stroke="#D0D0E0" id="img-fe01e0ef-7">
      <path fill="none" d="M26.73,80.31 L 147.4 80.31"/>
      <path fill="none" d="M26.73,65.65 L 147.4 65.65"/>
      <path fill="none" d="M26.73,50.99 L 147.4 50.99"/>
      <path fill="none" d="M26.73,36.33 L 147.4 36.33"/>
      <path fill="none" d="M26.73,21.66 L 147.4 21.66"/>
      <path fill="none" d="M26.73,7 L 147.4 7"/>
    </g>
    <g class="guide xgridlines yfixed" stroke-dasharray="0.5,0.5" stroke-width="0.2" stroke="#D0D0E0" id="img-fe01e0ef-8">
      <path fill="none" d="M28.73,5 L 28.73 82.32"/>
      <path fill="none" d="M48.17,5 L 48.17 82.32"/>
      <path fill="none" d="M67.62,5 L 67.62 82.32"/>
      <path fill="none" d="M87.06,5 L 87.06 82.32"/>
      <path fill="none" d="M106.51,5 L 106.51 82.32"/>
      <path fill="none" d="M125.95,5 L 125.95 82.32"/>
      <path fill="none" d="M145.4,5 L 145.4 82.32"/>
    </g>
    <g class="plotpanel" id="img-fe01e0ef-9">
      <g stroke-width="0.3" fill="#000000" fill-opacity="0.000" class="geometry" id="img-fe01e0ef-10">
        <g stroke-dasharray="none" stroke="#00BFFF" id="img-fe01e0ef-11">
          <path fill="none" d="M31.09,67.33 L 38.21 65.28 41.82 64.2 44.33 63.4 46.29 62.72 47.9 62.13 49.28 61.64 50.49 61.22 51.57 60.84 52.56 60.48 53.46 60.17 54.3 59.87 55.08 59.61 55.81 59.34 56.5 59.08 57.15 58.85 57.77 58.61 58.36 58.38 58.93 58.17 59.48 57.95 60 57.73 60.5 57.52 60.99 57.34 61.46 57.16 61.92 56.99 62.36 56.8 62.79 56.64 63.21 56.48 63.62 56.33 64.02 56.16 64.41 56.01 64.79 55.85 65.16 55.68 65.52 55.52 65.88 55.37 66.23 55.24 66.57 55.1 66.91 54.95 67.24 54.82 67.56 54.69 67.88 54.56 68.2 54.44 68.51 54.3 68.81 54.17 69.11 54.04 69.41 53.93 69.7 53.79 69.99 53.66 70.28 53.53 70.56 53.4 70.83 53.29 71.11 53.17 71.38 53.04 71.65 52.93 71.91 52.82 72.18 52.7 72.44 52.58 72.7 52.47 72.95 52.36 73.2 52.25 73.45 52.14 73.7 52.03 73.95 51.91 74.19 51.8 74.43 51.69 74.67 51.59 74.91 51.49 75.15 51.37 75.38 51.26 75.61 51.15 75.84 51.04 76.07 50.93 76.3 50.84 76.53 50.73 76.75 50.63 76.98 50.54 77.2 50.43 77.42 50.33 77.64 50.22 77.86 50.12 78.08 50.01 78.29 49.9 78.51 49.81 78.72 49.72 78.94 49.62 79.15 49.51 79.36 49.41 79.57 49.31 79.78 49.2 79.99 49.11 80.2 49 80.4 48.89 80.61 48.79 80.81 48.69 81.02 48.6 81.22 48.5 81.43 48.4 81.63 48.3 81.83 48.2 82.04 48.1 82.24 48.01 82.44 47.92 82.64 47.82 82.84 47.72 83.04 47.62 83.24 47.52 83.43 47.42 83.63 47.33 83.83 47.23 84.03 47.13 84.23 47.04 84.42 46.93 84.62 46.84 84.82 46.74 85.01 46.65 85.21 46.55 85.4 46.44 85.6 46.35 85.79 46.26 85.99 46.15 86.18 46.05 86.38 45.95 86.58 45.85 86.77 45.75 86.97 45.65 87.16 45.55 87.35 45.45 87.55 45.35 87.75 45.25 87.94 45.15 88.14 45.05 88.33 44.95 88.53 44.84 88.72 44.74 88.92 44.65 89.11 44.54 89.31 44.44 89.51 44.34 89.7 44.23 89.9 44.13 90.1 44.04 90.29 43.93 90.49 43.82 90.69 43.72 90.89 43.6 91.09 43.49 91.29 43.39 91.49 43.28 91.69 43.16 91.89 43.05 92.09 42.94 92.29 42.84 92.49 42.74 92.7 42.64 92.9 42.52 93.11 42.4 93.31 42.28 93.52 42.17 93.72 42.06 93.93 41.94 94.14 41.83 94.35 41.7 94.56 41.59 94.77 41.47 94.98 41.36 95.19 41.25 95.4 41.14 95.62 41.02 95.83 40.9 96.05 40.78 96.27 40.66 96.48 40.53 96.7 40.4 96.93 40.27 97.15 40.15 97.37 40.02 97.6 39.9 97.82 39.78 98.05 39.64 98.28 39.51 98.51 39.39 98.74 39.25 98.98 39.13 99.22 38.98 99.45 38.86 99.69 38.73 99.93 38.59 100.18 38.45 100.42 38.3 100.67 38.15 100.92 37.99 101.18 37.83 101.43 37.69 101.69 37.54 101.95 37.38 102.21 37.22 102.48 37.07 102.74 36.91 103.02 36.73 103.29 36.58 103.57 36.39 103.85 36.23 104.13 36.06 104.42 35.87 104.71 35.69 105.01 35.52 105.31 35.33 105.62 35.16 105.93 34.98 106.24 34.8 106.56 34.58 106.89 34.37 107.22 34.17 107.55 33.96 107.9 33.74 108.25 33.52 108.6 33.31 108.97 33.07 109.34 32.86 109.72 32.61 110.11 32.35 110.5 32.1 110.91 31.84 111.33 31.58 111.76 31.31 112.21 31.03 112.66 30.7 113.13 30.4 113.62 30.09 114.13 29.75 114.65 29.39 115.19 29.04 115.76 28.63 116.35 28.22 116.97 27.79 117.63 27.36 118.32 26.86 119.05 26.35 119.83 25.79 120.66 25.16 121.57 24.52 122.55 23.8 123.64 23.06 124.85 22.2 126.23 21.17 127.84 20.02 129.79 18.46 132.3 16.77 135.91 13.98 143.03 8.24"/>
        </g>
      </g>
    </g>
  </g>
</g>
  <g class="guide ylabels" font-size="2.82" font-family="'PT Sans Caption','Helvetica Neue','Helvetica',sans-serif" fill="#6C606B" id="img-fe01e0ef-12">
    <text x="25.72" y="80.31" text-anchor="end" dy="0.35em">0</text>
    <text x="25.72" y="65.65" text-anchor="end" dy="0.35em">1.0×10³</text>
    <text x="25.72" y="50.99" text-anchor="end" dy="0.35em">2.0×10³</text>
    <text x="25.72" y="36.33" text-anchor="end" dy="0.35em">3.0×10³</text>
    <text x="25.72" y="21.66" text-anchor="end" dy="0.35em">4.0×10³</text>
    <text x="25.72" y="7" text-anchor="end" dy="0.35em">5.0×10³</text>
  </g>
  <g font-size="3.88" font-family="'PT Sans','Helvetica Neue','Helvetica',sans-serif" fill="#564A55" stroke="#000000" stroke-opacity="0.000" id="img-fe01e0ef-13">
    <text x="8.81" y="41.66" text-anchor="middle" dy="0.35em" transform="rotate(-90, 8.81, 43.66)">σ²</text>
  </g>
</g>
<defs>
  <clipPath id="img-fe01e0ef-4">
  <path d="M26.73,5 L 147.4 5 147.4 82.32 26.73 82.32" />
</clipPath>
</defs>
</svg>
