<?xml version="1.0" encoding="UTF-8"?>
<svg xmlns="http://www.w3.org/2000/svg"
     xmlns:xlink="http://www.w3.org/1999/xlink"
     xmlns:gadfly="http://www.gadflyjl.org/ns"
     version="1.2"
     width="203.2mm" height="101.6mm" viewBox="0 0 203.2 101.6"
     stroke="none"
     fill="#000000"
     stroke-width="0.3"
     font-size="3.88"
>
<g class="plotroot xscalable yscalable" id="img-f2b48a63-1">
  <g font-size="3.88" font-family="'PT Sans','Helvetica Neue','Helvetica',sans-serif" fill="#564A55" stroke="#000000" stroke-opacity="0.000" id="img-f2b48a63-2">
    <text x="108.85" y="89.99" text-anchor="middle" dy="0.6em">x</text>
  </g>
  <g class="guide xlabels" font-size="2.82" font-family="'PT Sans Caption','Helvetica Neue','Helvetica',sans-serif" fill="#6C606B" id="img-f2b48a63-3">
    <text x="21.5" y="83.32" text-anchor="middle" dy="0.6em">-3</text>
    <text x="50.62" y="83.32" text-anchor="middle" dy="0.6em">-2</text>
    <text x="79.73" y="83.32" text-anchor="middle" dy="0.6em">-1</text>
    <text x="108.85" y="83.32" text-anchor="middle" dy="0.6em">0</text>
    <text x="137.97" y="83.32" text-anchor="middle" dy="0.6em">1</text>
    <text x="167.08" y="83.32" text-anchor="middle" dy="0.6em">2</text>
    <text x="196.2" y="83.32" text-anchor="middle" dy="0.6em">3</text>
  </g>
<g clip-path="url(#img-f2b48a63-4)">
  <g id="img-f2b48a63-5">
    <g pointer-events="visible" opacity="1" fill="#000000" fill-opacity="0.000" stroke="#000000" stroke-opacity="0.000" class="guide background" id="img-f2b48a63-6">
      <rect x="19.5" y="5" width="178.7" height="77.32"/>
    </g>
    <g class="guide ygridlines xfixed" stroke-dasharray="0.5,0.5" stroke-width="0.2" stroke="#D0D0E0" id="img-f2b48a63-7">
      <path fill="none" d="M19.5,80.32 L 198.2 80.32"/>
      <path fill="none" d="M19.5,55.88 L 198.2 55.88"/>
      <path fill="none" d="M19.5,31.44 L 198.2 31.44"/>
      <path fill="none" d="M19.5,7 L 198.2 7"/>
    </g>
    <g class="guide xgridlines yfixed" stroke-dasharray="0.5,0.5" stroke-width="0.2" stroke="#D0D0E0" id="img-f2b48a63-8">
      <path fill="none" d="M21.5,5 L 21.5 82.32"/>
      <path fill="none" d="M50.62,5 L 50.62 82.32"/>
      <path fill="none" d="M79.73,5 L 79.73 82.32"/>
      <path fill="none" d="M108.85,5 L 108.85 82.32"/>
      <path fill="none" d="M137.97,5 L 137.97 82.32"/>
      <path fill="none" d="M167.08,5 L 167.08 82.32"/>
      <path fill="none" d="M196.2,5 L 196.2 82.32"/>
    </g>
    <g class="plotpanel" id="img-f2b48a63-9">
      <g stroke-width="0.3" fill="#000000" fill-opacity="0.000" class="geometry" id="img-f2b48a63-10">
        <g stroke-dasharray="none" stroke="#00BFFF" id="img-f2b48a63-11">
          <path fill="none" d="M25.05,67.47 L 35.7 64.05 41.11 62.61 44.87 61.51 47.79 60.58 50.21 59.85 52.27 59.24 54.09 58.68 55.71 58.2 57.19 57.74 58.54 57.36 59.79 57.03 60.96 56.68 62.05 56.36 63.08 56.07 64.06 55.78 64.99 55.51 65.88 55.25 66.73 54.99 67.54 54.76 68.33 54.53 69.08 54.3 69.81 54.09 70.52 53.86 71.2 53.67 71.86 53.48 72.51 53.29 73.14 53.11 73.75 52.93 74.34 52.74 74.93 52.57 75.5 52.4 76.05 52.24 76.6 52.08 77.13 51.92 77.65 51.75 78.17 51.59 78.67 51.44 79.17 51.28 79.65 51.14 80.13 51 80.6 50.86 81.07 50.72 81.52 50.58 81.97 50.45 82.42 50.31 82.86 50.18 83.29 50.05 83.71 49.92 84.14 49.8 84.55 49.66 84.96 49.54 85.37 49.42 85.77 49.3 86.17 49.18 86.56 49.06 86.95 48.94 87.34 48.82 87.72 48.7 88.1 48.59 88.47 48.48 88.84 48.37 89.21 48.26 89.58 48.16 89.94 48.07 90.3 47.96 90.65 47.86 91.01 47.76 91.36 47.65 91.71 47.55 92.05 47.44 92.4 47.35 92.74 47.24 93.08 47.14 93.41 47.05 93.75 46.96 94.08 46.86 94.41 46.76 94.74 46.66 95.07 46.57 95.39 46.47 95.72 46.37 96.04 46.28 96.36 46.17 96.68 46.08 97 45.98 97.32 45.9 97.63 45.8 97.94 45.71 98.26 45.61 98.57 45.52 98.88 45.43 99.19 45.33 99.5 45.24 99.8 45.15 100.11 45.05 100.41 44.97 100.72 44.88 101.02 44.78 101.32 44.69 101.62 44.6 101.92 44.51 102.22 44.42 102.52 44.33 102.82 44.25 103.12 44.15 103.42 44.06 103.71 43.98 104.01 43.89 104.31 43.79 104.6 43.7 104.9 43.62 105.19 43.52 105.48 43.44 105.78 43.35 106.07 43.26 106.37 43.18 106.66 43.1 106.95 43.01 107.24 42.92 107.54 42.83 107.83 42.75 108.12 42.65 108.41 42.57 108.7 42.49 109 42.4 109.29 42.32 109.58 42.24 109.87 42.14 110.16 42.05 110.46 41.97 110.75 41.89 111.04 41.8 111.33 41.71 111.63 41.63 111.92 41.55 112.21 41.46 112.51 41.37 112.8 41.28 113.1 41.2 113.39 41.1 113.69 41.01 113.99 40.92 114.28 40.84 114.58 40.75 114.88 40.65 115.18 40.57 115.47 40.48 115.77 40.39 116.08 40.31 116.38 40.22 116.68 40.14 116.98 40.05 117.29 39.96 117.59 39.87 117.9 39.78 118.2 39.69 118.51 39.6 118.82 39.51 119.13 39.43 119.44 39.33 119.76 39.25 120.07 39.15 120.38 39.06 120.7 38.97 121.02 38.88 121.34 38.79 121.66 38.69 121.98 38.59 122.3 38.5 122.63 38.4 122.96 38.3 123.29 38.2 123.62 38.1 123.95 38 124.29 37.9 124.62 37.8 124.96 37.7 125.3 37.6 125.65 37.5 125.99 37.4 126.34 37.29 126.69 37.19 127.05 37.08 127.4 36.98 127.76 36.88 128.12 36.77 128.49 36.66 128.86 36.55 129.23 36.45 129.6 36.34 129.98 36.24 130.36 36.12 130.75 36 131.14 35.88 131.53 35.77 131.93 35.65 132.33 35.53 132.74 35.41 133.15 35.27 133.56 35.15 133.98 35.02 134.41 34.9 134.84 34.78 135.28 34.65 135.72 34.52 136.17 34.39 136.63 34.26 137.1 34.12 137.57 33.99 138.05 33.86 138.53 33.71 139.03 33.56 139.53 33.41 140.04 33.25 140.57 33.1 141.1 32.95 141.65 32.77 142.2 32.6 142.77 32.42 143.35 32.26 143.95 32.09 144.56 31.92 145.19 31.73 145.83 31.54 146.5 31.34 147.18 31.14 147.89 30.92 148.62 30.72 149.37 30.48 150.16 30.25 150.97 30.02 151.82 29.74 152.71 29.49 153.64 29.22 154.61 28.93 155.65 28.65 156.74 28.34 157.91 27.95 159.16 27.57 160.51 27.21 161.99 26.76 163.61 26.3 165.43 25.73 167.49 25.16 169.91 24.47 172.83 23.61 176.59 22.45 182 20.92 192.65 17.9"/>
        </g>
      </g>
    </g>
  </g>
</g>
  <g class="guide ylabels" font-size="2.82" font-family="'PT Sans Caption','Helvetica Neue','Helvetica',sans-serif" fill="#6C606B" id="img-f2b48a63-12">
    <text x="18.5" y="80.32" text-anchor="end" dy="0.35em">1450</text>
    <text x="18.5" y="55.88" text-anchor="end" dy="0.35em">1500</text>
    <text x="18.5" y="31.44" text-anchor="end" dy="0.35em">1550</text>
    <text x="18.5" y="7" text-anchor="end" dy="0.35em">1600</text>
  </g>
  <g font-size="3.88" font-family="'PT Sans','Helvetica Neue','Helvetica',sans-serif" fill="#564A55" stroke="#000000" stroke-opacity="0.000" id="img-f2b48a63-13">
    <text x="8.81" y="43.66" text-anchor="end" dy="0.35em">y</text>
  </g>
</g>
<defs>
  <clipPath id="img-f2b48a63-4">
  <path d="M19.5,5 L 198.2 5 198.2 82.32 19.5 82.32" />
</clipPath>
</defs>
</svg>
