<?xml version="1.0" encoding="UTF-8"?>
<svg xmlns="http://www.w3.org/2000/svg"
     xmlns:xlink="http://www.w3.org/1999/xlink"
     xmlns:gadfly="http://www.gadflyjl.org/ns"
     version="1.2"
     width="152.4mm" height="101.6mm" viewBox="0 0 152.4 101.6"
     stroke="none"
     fill="#000000"
     stroke-width="0.3"
     font-size="3.88"
>
<g class="plotroot xscalable yscalable" id="img-ca36298d-1">
  <g font-size="3.88" font-family="'PT Sans','Helvetica Neue','Helvetica',sans-serif" fill="#564A55" stroke="#000000" stroke-opacity="0.000" id="img-ca36298d-2">
    <text x="80.05" y="89.99" text-anchor="middle" dy="0.6em">σ</text>
  </g>
  <g class="guide xlabels" font-size="2.82" font-family="'PT Sans Caption','Helvetica Neue','Helvetica',sans-serif" fill="#6C606B" id="img-ca36298d-3">
    <text x="14.69" y="83.32" text-anchor="middle" dy="0.6em">0</text>
    <text x="80.05" y="83.32" text-anchor="middle" dy="0.6em">50</text>
    <text x="145.4" y="83.32" text-anchor="middle" dy="0.6em">100</text>
  </g>
<g clip-path="url(#img-ca36298d-4)">
  <g id="img-ca36298d-5">
    <g pointer-events="visible" opacity="1" fill="#000000" fill-opacity="0.000" stroke="#000000" stroke-opacity="0.000" class="guide background" id="img-ca36298d-6">
      <rect x="12.69" y="5" width="134.71" height="77.32"/>
    </g>
    <g class="guide ygridlines xfixed" stroke-dasharray="0.5,0.5" stroke-width="0.2" stroke="#D0D0E0" id="img-ca36298d-7">
      <path fill="none" d="M12.69,80.32 L 147.4 80.32"/>
      <path fill="none" d="M12.69,68.1 L 147.4 68.1"/>
      <path fill="none" d="M12.69,55.88 L 147.4 55.88"/>
      <path fill="none" d="M12.69,43.66 L 147.4 43.66"/>
      <path fill="none" d="M12.69,31.44 L 147.4 31.44"/>
      <path fill="none" d="M12.69,19.22 L 147.4 19.22"/>
      <path fill="none" d="M12.69,7 L 147.4 7"/>
    </g>
    <g class="guide xgridlines yfixed" stroke-dasharray="0.5,0.5" stroke-width="0.2" stroke="#D0D0E0" id="img-ca36298d-8">
      <path fill="none" d="M14.69,5 L 14.69 82.32"/>
      <path fill="none" d="M80.05,5 L 80.05 82.32"/>
      <path fill="none" d="M145.4,5 L 145.4 82.32"/>
    </g>
    <g class="plotpanel" id="img-ca36298d-9">
      <g stroke-width="0.3" fill="#000000" fill-opacity="0.000" class="geometry" stroke-dasharray="none" stroke="#00BFFF" id="img-ca36298d-10">
        <path fill="none" d="M39.62,80.31 L 39.93 80.31 40.25 80.31 40.56 80.31 40.88 80.31 41.19 80.31 41.51 80.31 41.82 80.31 42.14 80.31 42.45 80.3 42.77 80.3 43.08 80.29 43.4 80.28 43.71 80.27 44.03 80.25 44.34 80.23 44.66 80.22 44.97 80.2 45.29 80.19 45.6 80.17 45.92 80.16 46.23 80.14 46.55 80.13 46.87 80.12 47.18 80.11 47.5 80.09 47.81 80.07 48.13 80.06 48.44 80.04 48.76 80.02 49.07 80.01 49.39 79.99 49.7 79.98 50.02 79.96 50.33 79.94 50.65 79.92 50.96 79.89 51.28 79.86 51.59 79.81 51.91 79.75 52.22 79.68 52.54 79.6 52.85 79.5 53.17 79.38 53.48 79.24 53.8 79.09 54.11 78.9 54.43 78.69 54.74 78.45 55.06 78.17 55.38 77.85 55.69 77.5 56.01 77.1 56.32 76.67 56.64 76.21 56.95 75.74 57.27 75.26 57.58 74.78 57.9 74.31 58.21 73.85 58.53 73.39 58.84 72.93 59.16 72.46 59.47 71.96 59.79 71.43 60.1 70.86 60.42 70.25 60.73 69.59 61.05 68.88 61.36 68.12 61.68 67.31 61.99 66.47 62.31 65.6 62.62 64.71 62.94 63.81 63.25 62.9 63.57 61.96 63.89 61 64.2 60 64.52 58.93 64.83 57.77 65.15 56.51 65.46 55.15 65.78 53.69 66.09 52.15 66.41 50.57 66.72 48.96 67.04 47.35 67.35 45.77 67.67 44.22 67.98 42.69 68.3 41.16 68.61 39.63 68.93 38.08 69.24 36.5 69.56 34.88 69.87 33.26 70.19 31.64 70.5 30.05 70.82 28.53 71.13 27.08 71.45 25.73 71.76 24.47 72.08 23.29 72.4 22.17 72.71 21.11 73.03 20.1 73.34 19.14 73.66 18.24 73.97 17.4 74.29 16.61 74.6 15.85 74.92 15.12 75.23 14.41 75.55 13.73 75.86 13.11 76.18 12.57 76.49 12.14 76.81 11.84 77.12 11.66 77.44 11.59 77.75 11.58 78.07 11.61 78.38 11.65 78.7 11.69 79.01 11.73 79.33 11.8 79.64 11.94 79.96 12.19 80.27 12.58 80.59 13.15 80.91 13.88 81.22 14.78 81.54 15.8 81.85 16.92 82.17 18.09 82.48 19.28 82.8 20.45 83.11 21.61 83.43 22.75 83.74 23.9 84.06 25.1 84.37 26.35 84.69 27.68 85 29.09 85.32 30.55 85.63 32.05 85.95 33.54 86.26 34.98 86.58 36.36 86.89 37.64 87.21 38.84 87.52 39.95 87.84 41.01 88.15 42.03 88.47 43.05 88.78 44.08 89.1 45.15 89.42 46.28 89.73 47.49 90.05 48.77 90.36 50.12 90.68 51.54 90.99 53 91.31 54.48 91.62 55.95 91.94 57.37 92.25 58.73 92.57 60 92.88 61.17 93.2 62.23 93.51 63.18 93.83 64.04 94.14 64.82 94.46 65.53 94.77 66.19 95.09 66.82 95.4 67.43 95.72 68.03 96.03 68.64 96.35 69.26 96.66 69.87 96.98 70.47 97.29 71.03 97.61 71.56 97.93 72.05 98.24 72.49 98.56 72.91 98.87 73.32 99.19 73.73 99.5 74.15 99.82 74.57 100.13 75.01 100.45 75.44 100.76 75.85 101.08 76.24 101.39 76.6 101.71 76.92 102.02 77.2 102.34 77.45 102.65 77.68 102.97 77.89 103.28 78.08 103.6 78.26 103.91 78.43 104.23 78.59 104.54 78.75 104.86 78.9 105.17 79.04 105.49 79.16 105.8 79.28 106.12 79.38 106.44 79.48 106.75 79.56 107.07 79.63 107.38 79.69 107.7 79.74 108.01 79.78 108.33 79.82 108.64 79.84 108.96 79.86 109.27 79.87 109.59 79.88 109.9 79.89 110.22 79.9 110.53 79.91 110.85 79.93 111.16 79.95 111.48 79.99 111.79 80.03 112.11 80.07 112.42 80.1 112.74 80.14 113.05 80.16 113.37 80.18 113.68 80.19 114 80.2 114.31 80.2 114.63 80.21 114.95 80.22 115.26 80.23 115.58 80.25 115.89 80.26 116.21 80.27 116.52 80.29 116.84 80.3 117.15 80.3 117.47 80.31 117.78 80.31 118.1 80.31 118.41 80.31 118.73 80.31 119.04 80.31 119.36 80.31 119.67 80.31 119.99 80.31"/>
      </g>
    </g>
  </g>
</g>
  <g class="guide ylabels" font-size="2.82" font-family="'PT Sans Caption','Helvetica Neue','Helvetica',sans-serif" fill="#6C606B" id="img-ca36298d-11">
    <text x="11.69" y="80.32" text-anchor="end" dy="0.35em">0.00</text>
    <text x="11.69" y="68.1" text-anchor="end" dy="0.35em">0.01</text>
    <text x="11.69" y="55.88" text-anchor="end" dy="0.35em">0.02</text>
    <text x="11.69" y="43.66" text-anchor="end" dy="0.35em">0.03</text>
    <text x="11.69" y="31.44" text-anchor="end" dy="0.35em">0.04</text>
    <text x="11.69" y="19.22" text-anchor="end" dy="0.35em">0.05</text>
    <text x="11.69" y="7" text-anchor="end" dy="0.35em">0.06</text>
  </g>
</g>
<defs>
  <clipPath id="img-ca36298d-4">
  <path d="M12.69,5 L 147.4 5 147.4 82.32 12.69 82.32" />
</clipPath>
</defs>
</svg>
