<?xml version="1.0" encoding="UTF-8"?>
<svg xmlns="http://www.w3.org/2000/svg"
     xmlns:xlink="http://www.w3.org/1999/xlink"
     xmlns:gadfly="http://www.gadflyjl.org/ns"
     version="1.2"
     width="152.4mm" height="101.6mm" viewBox="0 0 152.4 101.6"
     stroke="none"
     fill="#000000"
     stroke-width="0.3"
     font-size="3.88"
>
<g class="plotroot xscalable yscalable" id="img-bc3b6b9f-1">
  <g font-size="3.88" font-family="'PT Sans','Helvetica Neue','Helvetica',sans-serif" fill="#564A55" stroke="#000000" stroke-opacity="0.000" id="img-bc3b6b9f-2">
    <text x="79.71" y="89.99" text-anchor="middle" dy="0.6em">σ</text>
  </g>
  <g class="guide xlabels" font-size="2.82" font-family="'PT Sans Caption','Helvetica Neue','Helvetica',sans-serif" fill="#6C606B" id="img-bc3b6b9f-3">
    <text x="14.02" y="83.32" text-anchor="middle" dy="0.6em">0</text>
    <text x="46.87" y="83.32" text-anchor="middle" dy="0.6em">20</text>
    <text x="79.71" y="83.32" text-anchor="middle" dy="0.6em">40</text>
    <text x="112.56" y="83.32" text-anchor="middle" dy="0.6em">60</text>
    <text x="145.4" y="83.32" text-anchor="middle" dy="0.6em">80</text>
  </g>
<g clip-path="url(#img-bc3b6b9f-4)">
  <g id="img-bc3b6b9f-5">
    <g pointer-events="visible" opacity="1" fill="#000000" fill-opacity="0.000" stroke="#000000" stroke-opacity="0.000" class="guide background" id="img-bc3b6b9f-6">
      <rect x="12.02" y="5" width="135.38" height="77.32"/>
    </g>
    <g class="guide ygridlines xfixed" stroke-dasharray="0.5,0.5" stroke-width="0.2" stroke="#D0D0E0" id="img-bc3b6b9f-7">
      <path fill="none" d="M12.02,80.31 L 147.4 80.31"/>
      <path fill="none" d="M12.02,65.65 L 147.4 65.65"/>
      <path fill="none" d="M12.02,50.99 L 147.4 50.99"/>
      <path fill="none" d="M12.02,36.33 L 147.4 36.33"/>
      <path fill="none" d="M12.02,21.66 L 147.4 21.66"/>
      <path fill="none" d="M12.02,7 L 147.4 7"/>
    </g>
    <g class="guide xgridlines yfixed" stroke-dasharray="0.5,0.5" stroke-width="0.2" stroke="#D0D0E0" id="img-bc3b6b9f-8">
      <path fill="none" d="M14.02,5 L 14.02 82.32"/>
      <path fill="none" d="M46.87,5 L 46.87 82.32"/>
      <path fill="none" d="M79.71,5 L 79.71 82.32"/>
      <path fill="none" d="M112.56,5 L 112.56 82.32"/>
      <path fill="none" d="M145.4,5 L 145.4 82.32"/>
    </g>
    <g class="plotpanel" id="img-bc3b6b9f-9">
      <g shape-rendering="crispEdges" stroke-width="0.3" id="img-bc3b6b9f-10">
        <g stroke="#000000" stroke-opacity="0.000" class="geometry" fill="#00BFFF" id="img-bc3b6b9f-11">
          <rect x="51.88" y="80.02" width="0.64" height="0.29"/>
          <rect x="52.46" y="80.31" width="0.64" height="0.01"/>
          <rect x="53.05" y="80.02" width="0.64" height="0.29"/>
          <rect x="53.64" y="80.02" width="0.64" height="0.29"/>
          <rect x="54.22" y="80.31" width="0.64" height="0.01"/>
          <rect x="54.81" y="80.31" width="0.64" height="0.01"/>
          <rect x="55.39" y="80.02" width="0.64" height="0.29"/>
          <rect x="55.98" y="80.02" width="0.64" height="0.29"/>
          <rect x="56.56" y="80.31" width="0.64" height="0.01"/>
          <rect x="57.15" y="79.73" width="0.64" height="0.59"/>
          <rect x="57.74" y="80.02" width="0.64" height="0.29"/>
          <rect x="58.32" y="80.31" width="0.64" height="0.01"/>
          <rect x="58.91" y="79.44" width="0.64" height="0.88"/>
          <rect x="59.49" y="80.31" width="0.64" height="0.01"/>
          <rect x="60.08" y="80.02" width="0.64" height="0.29"/>
          <rect x="60.66" y="80.02" width="0.64" height="0.29"/>
          <rect x="61.25" y="79.44" width="0.64" height="0.88"/>
          <rect x="61.83" y="79.73" width="0.64" height="0.59"/>
          <rect x="62.42" y="79.44" width="0.64" height="0.88"/>
          <rect x="63.01" y="79.73" width="0.64" height="0.59"/>
          <rect x="63.59" y="79.14" width="0.64" height="1.17"/>
          <rect x="64.18" y="79.44" width="0.64" height="0.88"/>
          <rect x="64.76" y="77.38" width="0.64" height="2.93"/>
          <rect x="65.35" y="78.56" width="0.64" height="1.76"/>
          <rect x="65.93" y="78.56" width="0.64" height="1.76"/>
          <rect x="66.52" y="76.5" width="0.64" height="3.81"/>
          <rect x="67.11" y="75.92" width="0.64" height="4.4"/>
          <rect x="67.69" y="74.74" width="0.64" height="5.57"/>
          <rect x="68.28" y="73.57" width="0.64" height="6.74"/>
          <rect x="68.86" y="75.62" width="0.64" height="4.69"/>
          <rect x="69.45" y="74.45" width="0.64" height="5.87"/>
          <rect x="70.03" y="74.16" width="0.64" height="6.16"/>
          <rect x="70.62" y="69.17" width="0.64" height="11.14"/>
          <rect x="71.2" y="73.86" width="0.64" height="6.45"/>
          <rect x="71.79" y="72.98" width="0.64" height="7.33"/>
          <rect x="72.38" y="68.88" width="0.64" height="11.44"/>
          <rect x="72.96" y="68.88" width="0.64" height="11.44"/>
          <rect x="73.55" y="68.88" width="0.64" height="11.44"/>
          <rect x="74.13" y="66.83" width="0.64" height="13.49"/>
          <rect x="74.72" y="63.6" width="0.64" height="16.72"/>
          <rect x="75.3" y="65.07" width="0.64" height="15.25"/>
          <rect x="75.89" y="61.84" width="0.64" height="18.48"/>
          <rect x="76.47" y="63.6" width="0.64" height="16.72"/>
          <rect x="77.06" y="59.79" width="0.64" height="20.53"/>
          <rect x="77.65" y="60.08" width="0.64" height="20.23"/>
          <rect x="78.23" y="58.61" width="0.64" height="21.7"/>
          <rect x="78.82" y="53.92" width="0.64" height="26.39"/>
          <rect x="79.4" y="50.11" width="0.64" height="30.21"/>
          <rect x="79.99" y="47.47" width="0.64" height="32.85"/>
          <rect x="80.57" y="52.75" width="0.64" height="27.57"/>
          <rect x="81.16" y="46.59" width="0.64" height="33.72"/>
          <rect x="81.75" y="43.36" width="0.64" height="36.95"/>
          <rect x="82.33" y="42.19" width="0.64" height="38.12"/>
          <rect x="82.92" y="43.36" width="0.64" height="36.95"/>
          <rect x="83.5" y="37.5" width="0.64" height="42.82"/>
          <rect x="84.09" y="36.62" width="0.64" height="43.7"/>
          <rect x="84.67" y="30.75" width="0.64" height="49.56"/>
          <rect x="85.26" y="28.7" width="0.64" height="51.61"/>
          <rect x="85.84" y="39.85" width="0.64" height="40.47"/>
          <rect x="86.43" y="27.82" width="0.64" height="52.49"/>
          <rect x="87.02" y="28.99" width="0.64" height="51.32"/>
          <rect x="87.6" y="22.84" width="0.64" height="57.48"/>
          <rect x="88.19" y="26.36" width="0.64" height="53.96"/>
          <rect x="88.77" y="24.01" width="0.64" height="56.31"/>
          <rect x="89.36" y="27.53" width="0.64" height="52.79"/>
          <rect x="89.94" y="25.77" width="0.64" height="54.55"/>
          <rect x="90.53" y="20.49" width="0.64" height="59.83"/>
          <rect x="91.12" y="18.44" width="0.64" height="61.88"/>
          <rect x="91.7" y="22.25" width="0.64" height="58.07"/>
          <rect x="92.29" y="18.14" width="0.64" height="62.17"/>
          <rect x="92.87" y="20.49" width="0.64" height="59.83"/>
          <rect x="93.46" y="28.11" width="0.64" height="52.2"/>
          <rect x="94.04" y="19.61" width="0.64" height="60.7"/>
          <rect x="94.63" y="21.08" width="0.64" height="59.24"/>
          <rect x="95.21" y="21.96" width="0.64" height="58.36"/>
          <rect x="95.8" y="21.66" width="0.64" height="58.65"/>
          <rect x="96.39" y="20.49" width="0.64" height="59.83"/>
          <rect x="96.97" y="17.85" width="0.64" height="62.46"/>
          <rect x="97.56" y="26.94" width="0.64" height="53.37"/>
          <rect x="98.14" y="24.01" width="0.64" height="56.31"/>
          <rect x="98.73" y="28.41" width="0.64" height="51.91"/>
          <rect x="99.31" y="31.34" width="0.64" height="48.97"/>
          <rect x="99.9" y="33.69" width="0.64" height="46.63"/>
          <rect x="100.48" y="27.82" width="0.64" height="52.49"/>
          <rect x="101.07" y="31.93" width="0.64" height="48.39"/>
          <rect x="101.66" y="37.21" width="0.64" height="43.11"/>
          <rect x="102.24" y="34.86" width="0.64" height="45.46"/>
          <rect x="102.83" y="37.5" width="0.64" height="42.82"/>
          <rect x="103.41" y="44.54" width="0.64" height="35.78"/>
          <rect x="104" y="43.07" width="0.64" height="37.24"/>
          <rect x="104.58" y="44.54" width="0.64" height="35.78"/>
          <rect x="105.17" y="45.12" width="0.64" height="35.19"/>
          <rect x="105.76" y="47.47" width="0.64" height="32.85"/>
          <rect x="106.34" y="47.18" width="0.64" height="33.14"/>
          <rect x="106.93" y="50.11" width="0.64" height="30.21"/>
          <rect x="107.51" y="50.4" width="0.64" height="29.91"/>
          <rect x="108.1" y="53.63" width="0.64" height="26.69"/>
          <rect x="108.68" y="52.16" width="0.64" height="28.15"/>
          <rect x="109.27" y="54.8" width="0.64" height="25.51"/>
          <rect x="109.85" y="58.03" width="0.64" height="22.29"/>
          <rect x="110.44" y="59.79" width="0.64" height="20.53"/>
          <rect x="111.03" y="64.77" width="0.64" height="15.54"/>
          <rect x="111.61" y="63.6" width="0.64" height="16.72"/>
          <rect x="112.2" y="64.77" width="0.64" height="15.54"/>
          <rect x="112.78" y="66.24" width="0.64" height="14.08"/>
          <rect x="113.37" y="68" width="0.64" height="12.32"/>
          <rect x="113.95" y="66.24" width="0.64" height="14.08"/>
          <rect x="114.54" y="70.34" width="0.64" height="9.97"/>
          <rect x="115.13" y="68.88" width="0.64" height="11.44"/>
          <rect x="115.71" y="70.64" width="0.64" height="9.68"/>
          <rect x="116.3" y="69.17" width="0.64" height="11.14"/>
          <rect x="116.88" y="70.93" width="0.64" height="9.38"/>
          <rect x="117.47" y="74.16" width="0.64" height="6.16"/>
          <rect x="118.05" y="75.92" width="0.64" height="4.4"/>
          <rect x="118.64" y="71.52" width="0.64" height="8.8"/>
          <rect x="119.22" y="74.45" width="0.64" height="5.87"/>
          <rect x="119.81" y="73.57" width="0.64" height="6.74"/>
          <rect x="120.4" y="76.21" width="0.64" height="4.11"/>
          <rect x="120.98" y="75.04" width="0.64" height="5.28"/>
          <rect x="121.57" y="76.5" width="0.64" height="3.81"/>
          <rect x="122.15" y="77.38" width="0.64" height="2.93"/>
          <rect x="122.74" y="77.38" width="0.64" height="2.93"/>
          <rect x="123.32" y="77.97" width="0.64" height="2.35"/>
          <rect x="123.91" y="77.97" width="0.64" height="2.35"/>
          <rect x="124.49" y="78.26" width="0.64" height="2.05"/>
          <rect x="125.08" y="78.56" width="0.64" height="1.76"/>
          <rect x="125.67" y="78.26" width="0.64" height="2.05"/>
          <rect x="126.25" y="78.56" width="0.64" height="1.76"/>
          <rect x="126.84" y="80.31" width="0.64" height="0.01"/>
          <rect x="127.42" y="78.56" width="0.64" height="1.76"/>
          <rect x="128.01" y="79.44" width="0.64" height="0.88"/>
          <rect x="128.59" y="79.73" width="0.64" height="0.59"/>
          <rect x="129.18" y="79.73" width="0.64" height="0.59"/>
          <rect x="129.77" y="80.02" width="0.64" height="0.29"/>
          <rect x="130.35" y="79.73" width="0.64" height="0.59"/>
          <rect x="130.94" y="79.73" width="0.64" height="0.59"/>
          <rect x="131.52" y="80.31" width="0.64" height="0.01"/>
          <rect x="132.11" y="79.44" width="0.64" height="0.88"/>
          <rect x="132.69" y="80.31" width="0.64" height="0.01"/>
          <rect x="133.28" y="80.31" width="0.64" height="0.01"/>
          <rect x="133.86" y="79.44" width="0.64" height="0.88"/>
          <rect x="134.45" y="79.73" width="0.64" height="0.59"/>
          <rect x="135.04" y="80.31" width="0.64" height="0.01"/>
          <rect x="135.62" y="79.73" width="0.64" height="0.59"/>
          <rect x="136.21" y="80.31" width="0.64" height="0.01"/>
          <rect x="136.79" y="80.31" width="0.64" height="0.01"/>
          <rect x="137.38" y="80.31" width="0.64" height="0.01"/>
          <rect x="137.96" y="80.31" width="0.64" height="0.01"/>
          <rect x="138.55" y="80.02" width="0.64" height="0.29"/>
          <rect x="139.14" y="80.02" width="0.64" height="0.29"/>
        </g>
      </g>
    </g>
  </g>
</g>
  <g class="guide ylabels" font-size="2.82" font-family="'PT Sans Caption','Helvetica Neue','Helvetica',sans-serif" fill="#6C606B" id="img-bc3b6b9f-12">
    <text x="11.02" y="80.31" text-anchor="end" dy="0.35em">0</text>
    <text x="11.02" y="65.65" text-anchor="end" dy="0.35em">50</text>
    <text x="11.02" y="50.99" text-anchor="end" dy="0.35em">100</text>
    <text x="11.02" y="36.33" text-anchor="end" dy="0.35em">150</text>
    <text x="11.02" y="21.66" text-anchor="end" dy="0.35em">200</text>
    <text x="11.02" y="7" text-anchor="end" dy="0.35em">250</text>
  </g>
</g>
<defs>
  <clipPath id="img-bc3b6b9f-4">
  <path d="M12.02,5 L 147.4 5 147.4 82.32 12.02 82.32" />
</clipPath>
</defs>
</svg>
