<?xml version="1.0" encoding="UTF-8"?>
<svg xmlns="http://www.w3.org/2000/svg"
     xmlns:xlink="http://www.w3.org/1999/xlink"
     xmlns:gadfly="http://www.gadflyjl.org/ns"
     version="1.2"
     width="152.4mm" height="101.6mm" viewBox="0 0 152.4 101.6"
     stroke="none"
     fill="#000000"
     stroke-width="0.3"
     font-size="3.88"
>
<g class="plotroot xscalable yscalable" id="img-0335fa84-1">
  <g font-size="3.88" font-family="'PT Sans','Helvetica Neue','Helvetica',sans-serif" fill="#564A55" stroke="#000000" stroke-opacity="0.000" id="img-0335fa84-2">
    <text x="78.87" y="89.99" text-anchor="middle" dy="0.6em">κ⁻¹</text>
  </g>
  <g class="guide xlabels" font-size="2.82" font-family="'PT Sans Caption','Helvetica Neue','Helvetica',sans-serif" fill="#6C606B" id="img-0335fa84-3">
    <text x="12.35" y="83.32" text-anchor="middle" dy="0.6em">-0.2</text>
    <text x="38.96" y="83.32" text-anchor="middle" dy="0.6em">0.0</text>
    <text x="65.57" y="83.32" text-anchor="middle" dy="0.6em">0.2</text>
    <text x="92.18" y="83.32" text-anchor="middle" dy="0.6em">0.4</text>
    <text x="118.79" y="83.32" text-anchor="middle" dy="0.6em">0.6</text>
    <text x="145.4" y="83.32" text-anchor="middle" dy="0.6em">0.8</text>
  </g>
<g clip-path="url(#img-0335fa84-4)">
  <g id="img-0335fa84-5">
    <g pointer-events="visible" opacity="1" fill="#000000" fill-opacity="0.000" stroke="#000000" stroke-opacity="0.000" class="guide background" id="img-0335fa84-6">
      <rect x="10.35" y="5" width="137.05" height="77.32"/>
    </g>
    <g class="guide ygridlines xfixed" stroke-dasharray="0.5,0.5" stroke-width="0.2" stroke="#D0D0E0" id="img-0335fa84-7">
      <path fill="none" d="M10.35,80.32 L 147.4 80.32"/>
      <path fill="none" d="M10.35,61.99 L 147.4 61.99"/>
      <path fill="none" d="M10.35,43.66 L 147.4 43.66"/>
      <path fill="none" d="M10.35,25.33 L 147.4 25.33"/>
      <path fill="none" d="M10.35,7 L 147.4 7"/>
    </g>
    <g class="guide xgridlines yfixed" stroke-dasharray="0.5,0.5" stroke-width="0.2" stroke="#D0D0E0" id="img-0335fa84-8">
      <path fill="none" d="M12.35,5 L 12.35 82.32"/>
      <path fill="none" d="M38.96,5 L 38.96 82.32"/>
      <path fill="none" d="M65.57,5 L 65.57 82.32"/>
      <path fill="none" d="M92.18,5 L 92.18 82.32"/>
      <path fill="none" d="M118.79,5 L 118.79 82.32"/>
      <path fill="none" d="M145.4,5 L 145.4 82.32"/>
    </g>
    <g class="plotpanel" id="img-0335fa84-9">
      <g stroke-width="0.3" fill="#000000" fill-opacity="0.000" class="geometry" stroke-dasharray="none" stroke="#00BFFF" id="img-0335fa84-10">
        <path fill="none" d="M34.57,80.29 L 34.96 80.23 35.35 80.04 35.73 79.49 36.12 78.18 36.51 75.4 36.9 70.3 37.29 62.26 37.67 51.5 38.06 39.57 38.45 29.26 38.84 23.52 39.22 24.11 39.61 30.63 40 40.72 40.39 51.3 40.77 59.95 41.16 65.57 41.55 68.25 41.94 68.74 42.32 67.83 42.71 66.15 43.1 64.09 43.49 61.87 43.87 59.64 44.26 57.48 44.65 55.46 45.04 53.63 45.43 52.02 45.81 50.69 46.2 49.68 46.59 49.03 46.98 48.8 47.36 48.98 47.75 49.58 48.14 50.53 48.53 51.78 48.91 53.21 49.3 54.73 49.69 56.27 50.08 57.81 50.46 59.33 50.85 60.87 51.24 62.39 51.63 63.88 52.02 65.27 52.4 66.54 52.79 67.66 53.18 68.66 53.57 69.53 53.95 70.29 54.34 70.97 54.73 71.57 55.12 72.13 55.5 72.67 55.89 73.22 56.28 73.79 56.67 74.38 57.05 74.95 57.44 75.49 57.83 75.97 58.22 76.38 58.61 76.71 58.99 77 59.38 77.26 59.77 77.51 60.16 77.73 60.54 77.94 60.93 78.12 61.32 78.29 61.71 78.44 62.09 78.59 62.48 78.72 62.87 78.83 63.26 78.91 63.64 78.96 64.03 78.99 64.42 79 64.81 79.01 65.2 79.04 65.58 79.08 65.97 79.13 66.36 79.21 66.75 79.29 67.13 79.37 67.52 79.44 67.91 79.51 68.3 79.56 68.68 79.61 69.07 79.64 69.46 79.67 69.85 79.7 70.23 79.72 70.62 79.73 71.01 79.75 71.4 79.76 71.78 79.77 72.17 79.79 72.56 79.81 72.95 79.84 73.34 79.88 73.72 79.92 74.11 79.96 74.5 79.99 74.89 80.01 75.27 80.03 75.66 80.04 76.05 80.06 76.44 80.06 76.82 80.07 77.21 80.07 77.6 80.07 77.99 80.06 78.37 80.06 78.76 80.07 79.15 80.09 79.54 80.12 79.93 80.15 80.31 80.18 80.7 80.2 81.09 80.22 81.48 80.22 81.86 80.22 82.25 80.21 82.64 80.2 83.03 80.19 83.41 80.19 83.8 80.18 84.19 80.18 84.58 80.18 84.96 80.19 85.35 80.21 85.74 80.22 86.13 80.24 86.52 80.24 86.9 80.25 87.29 80.24 87.68 80.24 88.07 80.24 88.45 80.24 88.84 80.24 89.23 80.25 89.62 80.26 90 80.26 90.39 80.26 90.78 80.26 91.17 80.26 91.55 80.26 91.94 80.26 92.33 80.26 92.72 80.25 93.11 80.25 93.49 80.25 93.88 80.25 94.27 80.25 94.66 80.25 95.04 80.24 95.43 80.24 95.82 80.23 96.21 80.22 96.59 80.21 96.98 80.21 97.37 80.21 97.76 80.21 98.14 80.21 98.53 80.2 98.92 80.2 99.31 80.19 99.69 80.19 100.08 80.19 100.47 80.2 100.86 80.22 101.25 80.23 101.63 80.25 102.02 80.26 102.41 80.26 102.8 80.27 103.18 80.27 103.57 80.27 103.96 80.26 104.35 80.26 104.73 80.27 105.12 80.27 105.51 80.28 105.9 80.29 106.28 80.29 106.67 80.29 107.06 80.29 107.45 80.29 107.84 80.29 108.22 80.29 108.61 80.29 109 80.29 109.39 80.29 109.77 80.3 110.16 80.3 110.55 80.31 110.94 80.31 111.32 80.31 111.71 80.31 112.1 80.31 112.49 80.31 112.87 80.31 113.26 80.3 113.65 80.3 114.04 80.29 114.43 80.29 114.81 80.29 115.2 80.29 115.59 80.29 115.98 80.29 116.36 80.29 116.75 80.29 117.14 80.29 117.53 80.29 117.91 80.29 118.3 80.29 118.69 80.3 119.08 80.3 119.46 80.31 119.85 80.31 120.24 80.31 120.63 80.31 121.02 80.31 121.4 80.31 121.79 80.3 122.18 80.3 122.57 80.3 122.95 80.3 123.34 80.3 123.73 80.3 124.12 80.31 124.5 80.31 124.89 80.31 125.28 80.31 125.67 80.31 126.05 80.3 126.44 80.3 126.83 80.29 127.22 80.28 127.6 80.28 127.99 80.27 128.38 80.27 128.77 80.28 129.16 80.28 129.54 80.29 129.93 80.29 130.32 80.3 130.71 80.31 131.09 80.31 131.48 80.31 131.87 80.31 132.26 80.31 132.64 80.31 133.03 80.31 133.42 80.31"/>
      </g>
    </g>
  </g>
</g>
  <g class="guide ylabels" font-size="2.82" font-family="'PT Sans Caption','Helvetica Neue','Helvetica',sans-serif" fill="#6C606B" id="img-0335fa84-11">
    <text x="9.35" y="80.32" text-anchor="end" dy="0.35em">0</text>
    <text x="9.35" y="61.99" text-anchor="end" dy="0.35em">5</text>
    <text x="9.35" y="43.66" text-anchor="end" dy="0.35em">10</text>
    <text x="9.35" y="25.33" text-anchor="end" dy="0.35em">15</text>
    <text x="9.35" y="7" text-anchor="end" dy="0.35em">20</text>
  </g>
</g>
<defs>
  <clipPath id="img-0335fa84-4">
  <path d="M10.35,5 L 147.4 5 147.4 82.32 10.35 82.32" />
</clipPath>
</defs>
</svg>
