<?xml version="1.0" encoding="UTF-8"?>
<svg xmlns="http://www.w3.org/2000/svg" xmlns:xlink="http://www.w3.org/1999/xlink" width="600" height="450" viewBox="0 0 600 450">
<defs>
<g>
<g id="glyph-0-0-95792a90">
<path d="M 6.421875 -2.0625 C 6.421875 -0.640625 5.25 0.203125 3.40625 0.203125 C 1.484375 0.203125 0.53125 -0.546875 0.46875 -2.234375 C 0.46875 -2.234375 1.703125 -2.234375 1.703125 -2.234375 C 1.859375 -1.125 2.453125 -0.875 3.5 -0.875 C 4.515625 -0.875 5.203125 -1.28125 5.203125 -1.953125 C 5.203125 -2.484375 4.890625 -2.734375 4.078125 -2.921875 C 4.078125 -2.921875 2.984375 -3.1875 2.984375 -3.1875 C 1.25 -3.609375 0.65625 -4.15625 0.65625 -5.3125 C 0.65625 -6.65625 1.765625 -7.546875 3.46875 -7.546875 C 5.171875 -7.546875 6.125 -6.734375 6.125 -5.296875 C 6.125 -5.296875 4.90625 -5.296875 4.90625 -5.296875 C 4.875 -6.0625 4.375 -6.46875 3.4375 -6.46875 C 2.484375 -6.46875 1.875 -6.03125 1.875 -5.359375 C 1.875 -4.84375 2.28125 -4.53125 3.234375 -4.3125 C 3.234375 -4.3125 4.359375 -4.046875 4.359375 -4.046875 C 5.8125 -3.703125 6.421875 -3.15625 6.421875 -2.0625 Z M 6.421875 -2.0625 "/>
</g>
<g id="glyph-1-0-95792a90">
<path d="M 3.5625 0 C 3.15625 0.0625 2.890625 0.09375 2.609375 0.09375 C 1.6875 0.09375 1.1875 -0.328125 1.1875 -1.0625 C 1.1875 -1.0625 1.1875 -6.390625 1.1875 -6.390625 C 1.1875 -6.390625 0.203125 -6.390625 0.203125 -6.390625 C 0.203125 -6.390625 0.203125 -7.34375 0.203125 -7.34375 C 0.203125 -7.34375 1.1875 -7.34375 1.1875 -7.34375 C 1.1875 -7.34375 1.1875 -9.359375 1.1875 -9.359375 C 1.1875 -9.359375 2.359375 -9.359375 2.359375 -9.359375 C 2.359375 -9.359375 2.359375 -7.34375 2.359375 -7.34375 C 2.359375 -7.34375 3.5625 -7.34375 3.5625 -7.34375 C 3.5625 -7.34375 3.5625 -6.390625 3.5625 -6.390625 C 3.5625 -6.390625 2.359375 -6.390625 2.359375 -6.390625 C 2.359375 -6.390625 2.359375 -1.578125 2.359375 -1.578125 C 2.359375 -1.0625 2.484375 -0.921875 3 -0.921875 C 3.21875 -0.921875 3.40625 -0.9375 3.5625 -0.984375 C 3.5625 -0.984375 3.5625 0 3.5625 0 Z M 3.5625 0 "/>
</g>
<g id="glyph-1-1-95792a90">
<path d="M 7.1875 -3.328125 C 7.1875 -3.328125 1.78125 -3.328125 1.78125 -3.328125 C 1.8125 -1.65625 2.71875 -0.875 3.9375 -0.875 C 4.875 -0.875 5.53125 -1.265625 5.859375 -2.21875 C 5.859375 -2.21875 7.03125 -2.21875 7.03125 -2.21875 C 6.734375 -0.734375 5.578125 0.203125 3.890625 0.203125 C 1.828125 0.203125 0.5625 -1.21875 0.5625 -3.625 C 0.5625 -6.03125 1.875 -7.546875 3.921875 -7.546875 C 5.296875 -7.546875 6.40625 -6.8125 6.890625 -5.609375 C 7.09375 -5.0625 7.1875 -4.390625 7.1875 -3.328125 Z M 5.9375 -4.375 C 5.9375 -5.515625 5.046875 -6.46875 3.90625 -6.46875 C 2.734375 -6.46875 1.90625 -5.59375 1.8125 -4.28125 C 1.8125 -4.28125 5.921875 -4.28125 5.921875 -4.28125 C 5.9375 -4.3125 5.9375 -4.375 5.9375 -4.375 Z M 5.9375 -4.375 "/>
</g>
<g id="glyph-1-2-95792a90">
<path d="M 7.328125 -3.59375 C 7.328125 -1.265625 6.078125 0.203125 4.1875 0.203125 C 3.234375 0.203125 2.546875 -0.125 1.9375 -0.875 C 1.9375 -0.875 1.9375 3.046875 1.9375 3.046875 C 1.9375 3.046875 0.765625 3.046875 0.765625 3.046875 C 0.765625 3.046875 0.765625 -7.34375 0.765625 -7.34375 C 0.765625 -7.34375 1.828125 -7.34375 1.828125 -7.34375 C 1.828125 -7.34375 1.828125 -6.234375 1.828125 -6.234375 C 2.375 -7.09375 3.171875 -7.546875 4.171875 -7.546875 C 6.125 -7.546875 7.328125 -6.0625 7.328125 -3.59375 Z M 6.109375 -3.625 C 6.109375 -5.375 5.265625 -6.453125 3.96875 -6.453125 C 2.75 -6.453125 1.9375 -5.328125 1.9375 -3.609375 C 1.9375 -1.890625 2.75 -0.875 3.96875 -0.875 C 5.25 -0.875 6.109375 -1.953125 6.109375 -3.625 Z M 6.109375 -3.625 "/>
</g>
<g id="glyph-1-3-95792a90">
<path d="M 7.09375 -4.78125 C 7.09375 -1.515625 5.953125 0.203125 3.84375 0.203125 C 1.71875 0.203125 0.609375 -1.515625 0.609375 -4.859375 C 0.609375 -8.1875 1.703125 -9.921875 3.84375 -9.921875 C 6 -9.921875 7.09375 -8.21875 7.09375 -4.78125 Z M 5.84375 -4.890625 C 5.84375 -7.546875 5.1875 -8.828125 3.84375 -8.828125 C 2.515625 -8.828125 1.859375 -7.5625 1.859375 -4.84375 C 1.859375 -2.125 2.515625 -0.8125 3.828125 -0.8125 C 5.1875 -0.8125 5.84375 -2.078125 5.84375 -4.890625 Z M 5.84375 -4.890625 "/>
</g>
<g id="glyph-1-4-95792a90">
<path d="M 7.1875 -3.296875 C 7.1875 -1.1875 5.78125 0.203125 3.78125 0.203125 C 2.015625 0.203125 0.890625 -0.578125 0.484375 -2.546875 C 0.484375 -2.546875 1.71875 -2.546875 1.71875 -2.546875 C 2.015625 -1.421875 2.671875 -0.875 3.75 -0.875 C 5.09375 -0.875 5.921875 -1.6875 5.921875 -3.125 C 5.921875 -4.59375 5.078125 -5.453125 3.75 -5.453125 C 2.984375 -5.453125 2.5 -5.203125 1.9375 -4.515625 C 1.9375 -4.515625 0.796875 -4.515625 0.796875 -4.515625 C 0.796875 -4.515625 1.546875 -9.71875 1.546875 -9.71875 C 1.546875 -9.71875 6.65625 -9.71875 6.65625 -9.71875 C 6.65625 -9.71875 6.65625 -8.5 6.65625 -8.5 C 6.65625 -8.5 2.53125 -8.5 2.53125 -8.5 C 2.53125 -8.5 2.140625 -5.9375 2.140625 -5.9375 C 2.71875 -6.359375 3.28125 -6.53125 3.96875 -6.53125 C 5.875 -6.53125 7.1875 -5.25 7.1875 -3.296875 Z M 7.1875 -3.296875 "/>
</g>
<g id="glyph-1-5-95792a90">
<path d="M 4.859375 0 C 4.859375 0 3.625 0 3.625 0 C 3.625 0 3.625 -7.0625 3.625 -7.0625 C 3.625 -7.0625 1.421875 -7.0625 1.421875 -7.0625 C 1.421875 -7.0625 1.421875 -7.953125 1.421875 -7.953125 C 3.328125 -8.1875 3.609375 -8.40625 4.046875 -9.921875 C 4.046875 -9.921875 4.859375 -9.921875 4.859375 -9.921875 C 4.859375 -9.921875 4.859375 0 4.859375 0 Z M 4.859375 0 "/>
</g>
<g id="glyph-1-6-95792a90">
<path d="M 7.28125 -8.6875 C 5.1875 -6.203125 3.796875 -3.203125 3.25 0 C 3.25 0 1.9375 0 1.9375 0 C 2.625 -3.109375 4.03125 -6 6 -8.5 C 6 -8.5 0.640625 -8.5 0.640625 -8.5 C 0.640625 -8.5 0.640625 -9.71875 0.640625 -9.71875 C 0.640625 -9.71875 7.28125 -9.71875 7.28125 -9.71875 C 7.28125 -9.71875 7.28125 -8.6875 7.28125 -8.6875 Z M 7.28125 -8.6875 "/>
</g>
<g id="glyph-1-7-95792a90">
<path d="M 7.1875 -2.796875 C 7.1875 -1 5.8125 0.203125 3.84375 0.203125 C 1.890625 0.203125 0.515625 -1 0.515625 -2.8125 C 0.515625 -3.90625 1.078125 -4.671875 2.21875 -5.21875 C 1.203125 -5.859375 0.875 -6.359375 0.875 -7.28125 C 0.875 -8.828125 2.09375 -9.921875 3.84375 -9.921875 C 5.609375 -9.921875 6.828125 -8.828125 6.828125 -7.28125 C 6.828125 -6.34375 6.5 -5.84375 5.46875 -5.21875 C 6.625 -4.671875 7.1875 -3.90625 7.1875 -2.796875 Z M 5.578125 -7.25 C 5.578125 -8.21875 4.90625 -8.828125 3.84375 -8.828125 C 2.8125 -8.828125 2.125 -8.21875 2.125 -7.265625 C 2.125 -6.328125 2.8125 -5.71875 3.84375 -5.71875 C 4.890625 -5.71875 5.578125 -6.328125 5.578125 -7.25 Z M 5.921875 -2.78125 C 5.921875 -3.953125 5.078125 -4.671875 3.84375 -4.671875 C 2.625 -4.671875 1.78125 -3.953125 1.78125 -2.78125 C 1.78125 -1.625 2.625 -0.875 3.828125 -0.875 C 5.078125 -0.875 5.921875 -1.609375 5.921875 -2.78125 Z M 5.921875 -2.78125 "/>
</g>
<g id="glyph-1-8-95792a90">
<path d="M 8.71875 -2.90625 C 8.71875 -1.234375 7.546875 0 5.71875 0 C 5.71875 0 1.109375 0 1.109375 0 C 1.109375 0 1.109375 -10.203125 1.109375 -10.203125 C 1.109375 -10.203125 5.25 -10.203125 5.25 -10.203125 C 7.1875 -10.203125 8.28125 -9.09375 8.28125 -7.609375 C 8.28125 -6.578125 7.78125 -5.828125 6.859375 -5.390625 C 8.15625 -4.890625 8.71875 -4.140625 8.71875 -2.90625 Z M 6.96875 -7.4375 C 6.96875 -8.46875 6.375 -9.0625 4.921875 -9.0625 C 4.921875 -9.0625 2.40625 -9.0625 2.40625 -9.0625 C 2.40625 -9.0625 2.40625 -5.8125 2.40625 -5.8125 C 2.40625 -5.8125 4.921875 -5.8125 4.921875 -5.8125 C 6.375 -5.8125 6.96875 -6.390625 6.96875 -7.4375 Z M 7.421875 -2.890625 C 7.421875 -3.890625 6.8125 -4.65625 5.59375 -4.65625 C 5.59375 -4.65625 2.40625 -4.65625 2.40625 -4.65625 C 2.40625 -4.65625 2.40625 -1.140625 2.40625 -1.140625 C 2.40625 -1.140625 5.59375 -1.140625 5.59375 -1.140625 C 6.8125 -1.140625 7.421875 -1.921875 7.421875 -2.890625 Z M 7.421875 -2.890625 "/>
</g>
<g id="glyph-1-9-95792a90">
<path d="M 10.390625 -4.9375 C 10.390625 -1.953125 8.453125 0.25 5.453125 0.25 C 2.515625 0.25 0.53125 -1.828125 0.53125 -5.03125 C 0.53125 -8.21875 2.515625 -10.453125 5.453125 -10.453125 C 8.4375 -10.453125 10.390625 -8.234375 10.390625 -4.9375 Z M 9.09375 -4.96875 C 9.09375 -7.546875 7.65625 -9.3125 5.453125 -9.3125 C 3.296875 -9.3125 1.828125 -7.546875 1.828125 -5.03125 C 1.828125 -2.5 3.296875 -0.890625 5.453125 -0.890625 C 7.609375 -0.890625 9.09375 -2.5 9.09375 -4.96875 Z M 9.09375 -4.96875 "/>
</g>
<g id="glyph-1-10-95792a90">
<path d="M 9.25 -10.203125 C 9.25 -10.203125 5.421875 -4 5.421875 -4 C 5.421875 -4 5.421875 0 5.421875 0 C 5.421875 0 4.109375 0 4.109375 0 C 4.109375 0 4.109375 -4 4.109375 -4 C 4.109375 -4 0.1875 -10.203125 0.1875 -10.203125 C 0.1875 -10.203125 1.796875 -10.203125 1.796875 -10.203125 C 1.796875 -10.203125 4.78125 -5.234375 4.78125 -5.234375 C 4.78125 -5.234375 7.703125 -10.203125 7.703125 -10.203125 C 7.703125 -10.203125 9.25 -10.203125 9.25 -10.203125 Z M 9.25 -10.203125 "/>
</g>
<g id="glyph-1-11-95792a90">
<path d="M 10.390625 -5.046875 C 10.390625 -3.4375 9.90625 -2.203125 8.953125 -1.140625 C 8.953125 -1.140625 10.265625 -0.0625 10.265625 -0.0625 C 10.265625 -0.0625 9.609375 0.75 9.609375 0.75 C 9.609375 0.75 8.140625 -0.46875 8.140625 -0.46875 C 7.3125 0.03125 6.46875 0.25 5.453125 0.25 C 2.515625 0.25 0.53125 -1.828125 0.53125 -5.03125 C 0.53125 -8.21875 2.515625 -10.453125 5.453125 -10.453125 C 8.40625 -10.453125 10.390625 -8.21875 10.390625 -5.046875 Z M 9.09375 -5.046875 C 9.09375 -7.546875 7.625 -9.3125 5.453125 -9.3125 C 3.296875 -9.3125 1.828125 -7.546875 1.828125 -5.03125 C 1.828125 -2.5 3.28125 -0.890625 5.453125 -0.890625 C 6.0625 -0.890625 6.53125 -1.015625 7.125 -1.28125 C 7.125 -1.28125 6.09375 -2.15625 6.09375 -2.15625 C 6.09375 -2.15625 6.734375 -2.9375 6.734375 -2.9375 C 6.734375 -2.9375 7.984375 -1.921875 7.984375 -1.921875 C 8.734375 -2.765625 9.09375 -3.71875 9.09375 -5.046875 Z M 9.09375 -5.046875 "/>
</g>
<g id="glyph-1-12-95792a90">
<path d="M 9.140625 0 C 9.140625 0 7.6875 0 7.6875 0 C 7.6875 0 6.640625 -3.0625 6.640625 -3.0625 C 6.640625 -3.0625 2.703125 -3.0625 2.703125 -3.0625 C 2.703125 -3.0625 1.625 0 1.625 0 C 1.625 0 0.234375 0 0.234375 0 C 0.234375 0 3.875 -10.203125 3.875 -10.203125 C 3.875 -10.203125 5.5625 -10.203125 5.5625 -10.203125 C 5.5625 -10.203125 9.140625 0 9.140625 0 Z M 6.265625 -4.15625 C 6.265625 -4.15625 4.703125 -8.8125 4.703125 -8.8125 C 4.703125 -8.8125 3.03125 -4.15625 3.03125 -4.15625 C 3.03125 -4.15625 6.265625 -4.15625 6.265625 -4.15625 Z M 6.265625 -4.15625 "/>
</g>
<g id="glyph-1-13-95792a90">
<path d="M 2.109375 0 C 2.109375 0 0.953125 0 0.953125 0 C 0.953125 0 0.953125 -10.203125 0.953125 -10.203125 C 0.953125 -10.203125 2.109375 -10.203125 2.109375 -10.203125 C 2.109375 -10.203125 2.109375 0 2.109375 0 Z M 2.109375 0 "/>
</g>
<g id="glyph-1-14-95792a90">
<path d="M 6.9375 0 C 6.9375 0 5.890625 0 5.890625 0 C 5.890625 0 5.890625 -1.078125 5.890625 -1.078125 C 5.265625 -0.171875 4.5625 0.203125 3.5625 0.203125 C 1.578125 0.203125 0.359375 -1.265625 0.359375 -3.734375 C 0.359375 -6.078125 1.609375 -7.546875 3.515625 -7.546875 C 4.5 -7.546875 5.28125 -7.15625 5.765625 -6.40625 C 5.765625 -6.40625 5.765625 -10.203125 5.765625 -10.203125 C 5.765625 -10.203125 6.9375 -10.203125 6.9375 -10.203125 C 6.9375 -10.203125 6.9375 0 6.9375 0 Z M 5.765625 -3.640625 C 5.765625 -5.328125 4.96875 -6.453125 3.703125 -6.453125 C 2.4375 -6.453125 1.578125 -5.375 1.578125 -3.671875 C 1.578125 -1.953125 2.4375 -0.875 3.71875 -0.875 C 4.953125 -0.875 5.765625 -1.953125 5.765625 -3.640625 Z M 5.765625 -3.640625 "/>
</g>
<g id="glyph-1-15-95792a90">
<path d="M 4.5 -6.3125 C 2.6875 -6.28125 2.140625 -5.453125 2.140625 -3.8125 C 2.140625 -3.8125 2.140625 0 2.140625 0 C 2.140625 0 0.984375 0 0.984375 0 C 0.984375 0 0.984375 -7.34375 0.984375 -7.34375 C 0.984375 -7.34375 2.046875 -7.34375 2.046875 -7.34375 C 2.046875 -7.34375 2.046875 -6 2.046875 -6 C 2.71875 -7.09375 3.296875 -7.546875 4.046875 -7.546875 C 4.203125 -7.546875 4.296875 -7.53125 4.5 -7.5 C 4.5 -7.5 4.5 -6.3125 4.5 -6.3125 Z M 4.5 -6.3125 "/>
</g>
<g id="glyph-1-16-95792a90">
<path d="M 10.65625 0 C 10.65625 0 9.421875 0 9.421875 0 C 9.421875 0 9.421875 -8.546875 9.421875 -8.546875 C 9.421875 -8.546875 6.546875 0 6.546875 0 C 6.546875 0 5.1875 0 5.1875 0 C 5.1875 0 2.28125 -8.546875 2.28125 -8.546875 C 2.28125 -8.546875 2.28125 0 2.28125 0 C 2.28125 0 1.046875 0 1.046875 0 C 1.046875 0 1.046875 -10.203125 1.046875 -10.203125 C 1.046875 -10.203125 2.859375 -10.203125 2.859375 -10.203125 C 2.859375 -10.203125 5.875 -1.3125 5.875 -1.3125 C 5.875 -1.3125 8.84375 -10.203125 8.84375 -10.203125 C 8.84375 -10.203125 10.65625 -10.203125 10.65625 -10.203125 C 10.65625 -10.203125 10.65625 0 10.65625 0 Z M 10.65625 0 "/>
</g>
<g id="glyph-1-17-95792a90">
<path d="M 7.484375 -0.03125 C 7.109375 0.0625 6.9375 0.09375 6.6875 0.09375 C 6.125 0.09375 5.609375 -0.3125 5.484375 -0.875 C 4.84375 -0.1875 3.9375 0.203125 3 0.203125 C 1.515625 0.203125 0.59375 -0.578125 0.59375 -1.90625 C 0.59375 -2.796875 1.015625 -3.453125 1.875 -3.8125 C 2.328125 -3.984375 2.578125 -4.046875 4.234375 -4.25 C 5.15625 -4.375 5.453125 -4.578125 5.453125 -5.0625 C 5.453125 -5.0625 5.453125 -5.375 5.453125 -5.375 C 5.453125 -6.078125 4.859375 -6.46875 3.8125 -6.46875 C 2.71875 -6.46875 2.1875 -6.0625 2.09375 -5.171875 C 2.09375 -5.171875 0.90625 -5.171875 0.90625 -5.171875 C 0.984375 -6.859375 2.078125 -7.546875 3.84375 -7.546875 C 5.65625 -7.546875 6.609375 -6.84375 6.609375 -5.546875 C 6.609375 -5.546875 6.609375 -1.453125 6.609375 -1.453125 C 6.609375 -1.09375 6.828125 -0.875 7.234375 -0.875 C 7.3125 -0.875 7.359375 -0.875 7.484375 -0.90625 C 7.484375 -0.90625 7.484375 -0.03125 7.484375 -0.03125 Z M 5.453125 -2.53125 C 5.453125 -2.53125 5.453125 -3.625 5.453125 -3.625 C 5.046875 -3.4375 4.796875 -3.390625 3.5625 -3.21875 C 2.328125 -3.03125 1.8125 -2.703125 1.8125 -1.9375 C 1.8125 -1.140625 2.34375 -0.8125 3.25 -0.8125 C 4.375 -0.8125 5.453125 -1.484375 5.453125 -2.53125 Z M 5.453125 -2.53125 "/>
</g>
<g id="glyph-2-0-95792a90">
<path d="M -3.609375 -7.140625 C -1.203125 -7.140625 0.203125 -5.875 0.203125 -3.828125 C 0.203125 -1.734375 -1.203125 -0.5 -3.671875 -0.5 C -6.125 -0.5 -7.546875 -1.75 -7.546875 -3.8125 C -7.546875 -5.921875 -6.140625 -7.140625 -3.609375 -7.140625 Z M -3.625 -5.921875 C -5.453125 -5.921875 -6.46875 -5.140625 -6.46875 -3.828125 C -6.46875 -2.515625 -5.4375 -1.71875 -3.671875 -1.71875 C -1.890625 -1.71875 -0.875 -2.515625 -0.875 -3.828125 C -0.875 -5.109375 -1.90625 -5.921875 -3.625 -5.921875 Z M -3.625 -5.921875 "/>
</g>
<g id="glyph-2-1-95792a90">
<path d="M -3.328125 -7.1875 C -3.328125 -7.1875 -3.328125 -1.78125 -3.328125 -1.78125 C -1.65625 -1.8125 -0.875 -2.71875 -0.875 -3.9375 C -0.875 -4.875 -1.265625 -5.53125 -2.21875 -5.859375 C -2.21875 -5.859375 -2.21875 -7.03125 -2.21875 -7.03125 C -0.734375 -6.734375 0.203125 -5.578125 0.203125 -3.890625 C 0.203125 -1.828125 -1.21875 -0.5625 -3.625 -0.5625 C -6.03125 -0.5625 -7.546875 -1.875 -7.546875 -3.921875 C -7.546875 -5.296875 -6.8125 -6.40625 -5.609375 -6.890625 C -5.0625 -7.09375 -4.390625 -7.1875 -3.328125 -7.1875 Z M -4.375 -5.9375 C -5.515625 -5.9375 -6.46875 -5.046875 -6.46875 -3.90625 C -6.46875 -2.734375 -5.59375 -1.90625 -4.28125 -1.8125 C -4.28125 -1.8125 -4.28125 -5.921875 -4.28125 -5.921875 C -4.3125 -5.9375 -4.375 -5.9375 -4.375 -5.9375 Z M -4.375 -5.9375 "/>
</g>
<g id="glyph-3-0-95792a90">
<path d="M -3.75 -7.328125 C -1.375 -7.328125 0.203125 -6.0625 0.203125 -4.125 C 0.203125 -3.109375 -0.203125 -2.359375 -1.046875 -1.8125 C -1.046875 -1.8125 0 -1.8125 0 -1.8125 C 0 -1.8125 0 -0.75 0 -0.75 C 0 -0.75 -10.203125 -0.75 -10.203125 -0.75 C -10.203125 -0.75 -10.203125 -1.921875 -10.203125 -1.921875 C -10.203125 -1.921875 -6.34375 -1.921875 -6.34375 -1.921875 C -7.171875 -2.46875 -7.546875 -3.171875 -7.546875 -4.1875 C -7.546875 -6.125 -6.125 -7.328125 -3.75 -7.328125 Z M -3.6875 -6.109375 C -5.3125 -6.109375 -6.453125 -5.265625 -6.453125 -3.96875 C -6.515625 -2.734375 -5.390625 -1.921875 -3.671875 -1.921875 C -2 -1.921875 -0.875 -2.734375 -0.875 -3.96875 C -0.875 -5.234375 -2.015625 -6.109375 -3.6875 -6.109375 Z M -3.6875 -6.109375 "/>
</g>
<g id="glyph-4-0-95792a90">
<path d="M 1.53125 -2.140625 C 2.515625 -2.140625 3.046875 -1.453125 3.046875 -0.140625 C 3.046875 0.046875 3.03125 0.109375 3.015625 0.25 C 3.015625 0.25 2.015625 0.25 2.015625 0.25 C 2.015625 0.25 2.03125 -0.03125 2.03125 -0.03125 C 2.078125 -0.734375 1.765625 -0.984375 1.0625 -0.984375 C 1.0625 -0.984375 -7.34375 -0.984375 -7.34375 -0.984375 C -7.34375 -0.984375 -7.34375 -2.140625 -7.34375 -2.140625 C -7.34375 -2.140625 1.53125 -2.140625 1.53125 -2.140625 Z M -8.4375 -2.296875 C -8.4375 -2.296875 -8.4375 -0.84375 -8.4375 -0.84375 C -8.4375 -0.84375 -9.890625 -0.84375 -9.890625 -0.84375 C -9.890625 -0.84375 -9.890625 -2.296875 -9.890625 -2.296875 C -9.890625 -2.296875 -8.4375 -2.296875 -8.4375 -2.296875 Z M -8.4375 -2.296875 "/>
</g>
<g id="glyph-5-0-95792a90">
<path d="M -3.328125 -7.1875 C -3.328125 -7.1875 -3.328125 -1.78125 -3.328125 -1.78125 C -1.65625 -1.8125 -0.875 -2.71875 -0.875 -3.9375 C -0.875 -4.875 -1.265625 -5.53125 -2.21875 -5.859375 C -2.21875 -5.859375 -2.21875 -7.03125 -2.21875 -7.03125 C -0.734375 -6.734375 0.203125 -5.578125 0.203125 -3.890625 C 0.203125 -1.828125 -1.21875 -0.5625 -3.625 -0.5625 C -6.03125 -0.5625 -7.546875 -1.875 -7.546875 -3.921875 C -7.546875 -5.296875 -6.8125 -6.40625 -5.609375 -6.890625 C -5.0625 -7.09375 -4.390625 -7.1875 -3.328125 -7.1875 Z M -4.375 -5.9375 C -5.515625 -5.9375 -6.46875 -5.046875 -6.46875 -3.90625 C -6.46875 -2.734375 -5.59375 -1.90625 -4.28125 -1.8125 C -4.28125 -1.8125 -4.28125 -5.921875 -4.28125 -5.921875 C -4.3125 -5.9375 -4.375 -5.9375 -4.375 -5.9375 Z M -4.375 -5.9375 "/>
</g>
<g id="glyph-6-0-95792a90">
<path d="M -2.515625 -6.671875 C -0.84375 -6.53125 0.203125 -5.4375 0.203125 -3.6875 C 0.203125 -1.6875 -1.234375 -0.4375 -3.59375 -0.4375 C -6.03125 -0.4375 -7.546875 -1.71875 -7.546875 -3.703125 C -7.546875 -5.328125 -6.65625 -6.453125 -4.875 -6.59375 C -4.875 -6.59375 -4.875 -5.421875 -4.875 -5.421875 C -5.890625 -5.28125 -6.46875 -4.65625 -6.46875 -3.6875 C -6.46875 -2.40625 -5.4375 -1.65625 -3.59375 -1.65625 C -1.859375 -1.65625 -0.875 -2.421875 -0.875 -3.703125 C -0.875 -4.703125 -1.34375 -5.3125 -2.515625 -5.5 C -2.515625 -5.5 -2.515625 -6.671875 -2.515625 -6.671875 Z M -2.515625 -6.671875 "/>
</g>
<g id="glyph-7-0-95792a90">
<path d="M 0 -3.5625 C 0.0625 -3.15625 0.09375 -2.890625 0.09375 -2.609375 C 0.09375 -1.6875 -0.328125 -1.1875 -1.0625 -1.1875 C -1.0625 -1.1875 -6.390625 -1.1875 -6.390625 -1.1875 C -6.390625 -1.1875 -6.390625 -0.203125 -6.390625 -0.203125 C -6.390625 -0.203125 -7.34375 -0.203125 -7.34375 -0.203125 C -7.34375 -0.203125 -7.34375 -1.1875 -7.34375 -1.1875 C -7.34375 -1.1875 -9.359375 -1.1875 -9.359375 -1.1875 C -9.359375 -1.1875 -9.359375 -2.359375 -9.359375 -2.359375 C -9.359375 -2.359375 -7.34375 -2.359375 -7.34375 -2.359375 C -7.34375 -2.359375 -7.34375 -3.5625 -7.34375 -3.5625 C -7.34375 -3.5625 -6.390625 -3.5625 -6.390625 -3.5625 C -6.390625 -3.5625 -6.390625 -2.359375 -6.390625 -2.359375 C -6.390625 -2.359375 -1.578125 -2.359375 -1.578125 -2.359375 C -1.0625 -2.359375 -0.921875 -2.484375 -0.921875 -3 C -0.921875 -3.21875 -0.9375 -3.40625 -0.984375 -3.5625 C -0.984375 -3.5625 0 -3.5625 0 -3.5625 Z M 0 -3.5625 "/>
</g>
<g id="glyph-8-0-95792a90">
<path d="M 0 -2.140625 C 0 -2.140625 0 -0.984375 0 -0.984375 C 0 -0.984375 -7.34375 -0.984375 -7.34375 -0.984375 C -7.34375 -0.984375 -7.34375 -2.140625 -7.34375 -2.140625 C -7.34375 -2.140625 0 -2.140625 0 -2.140625 Z M -8.4375 -2.296875 C -8.4375 -2.296875 -8.4375 -0.84375 -8.4375 -0.84375 C -8.4375 -0.84375 -9.890625 -0.84375 -9.890625 -0.84375 C -9.890625 -0.84375 -9.890625 -2.296875 -9.890625 -2.296875 C -9.890625 -2.296875 -8.4375 -2.296875 -8.4375 -2.296875 Z M -8.4375 -2.296875 "/>
</g>
<g id="glyph-9-0-95792a90">
<path d="M -7.34375 -6.796875 C -7.34375 -6.796875 0 -3.984375 0 -3.984375 C 0 -3.984375 0 -2.71875 0 -2.71875 C 0 -2.71875 -7.34375 -0.140625 -7.34375 -0.140625 C -7.34375 -0.140625 -7.34375 -1.453125 -7.34375 -1.453125 C -7.34375 -1.453125 -1.390625 -3.421875 -1.390625 -3.421875 C -1.390625 -3.421875 -7.34375 -5.484375 -7.34375 -5.484375 C -7.34375 -5.484375 -7.34375 -6.796875 -7.34375 -6.796875 Z M -7.34375 -6.796875 "/>
</g>
<g id="glyph-10-0-95792a90">
<path d="M 7.1875 -3.296875 C 7.1875 -1.1875 5.78125 0.203125 3.78125 0.203125 C 2.015625 0.203125 0.890625 -0.578125 0.484375 -2.546875 C 0.484375 -2.546875 1.71875 -2.546875 1.71875 -2.546875 C 2.015625 -1.421875 2.671875 -0.875 3.75 -0.875 C 5.09375 -0.875 5.921875 -1.6875 5.921875 -3.125 C 5.921875 -4.59375 5.078125 -5.453125 3.75 -5.453125 C 2.984375 -5.453125 2.5 -5.203125 1.9375 -4.515625 C 1.9375 -4.515625 0.796875 -4.515625 0.796875 -4.515625 C 0.796875 -4.515625 1.546875 -9.71875 1.546875 -9.71875 C 1.546875 -9.71875 6.65625 -9.71875 6.65625 -9.71875 C 6.65625 -9.71875 6.65625 -8.5 6.65625 -8.5 C 6.65625 -8.5 2.53125 -8.5 2.53125 -8.5 C 2.53125 -8.5 2.140625 -5.9375 2.140625 -5.9375 C 2.71875 -6.359375 3.28125 -6.53125 3.96875 -6.53125 C 5.875 -6.53125 7.1875 -5.25 7.1875 -3.296875 Z M 7.1875 -3.296875 "/>
</g>
<g id="glyph-10-1-95792a90">
<path d="M 7.09375 -4.78125 C 7.09375 -1.515625 5.953125 0.203125 3.84375 0.203125 C 1.71875 0.203125 0.609375 -1.515625 0.609375 -4.859375 C 0.609375 -8.1875 1.703125 -9.921875 3.84375 -9.921875 C 6 -9.921875 7.09375 -8.21875 7.09375 -4.78125 Z M 5.84375 -4.890625 C 5.84375 -7.546875 5.1875 -8.828125 3.84375 -8.828125 C 2.515625 -8.828125 1.859375 -7.5625 1.859375 -4.84375 C 1.859375 -2.125 2.515625 -0.8125 3.828125 -0.8125 C 5.1875 -0.8125 5.84375 -2.078125 5.84375 -4.890625 Z M 5.84375 -4.890625 "/>
</g>
<g id="glyph-11-0-95792a90">
<path d="M 4.859375 0 C 4.859375 0 3.625 0 3.625 0 C 3.625 0 3.625 -7.0625 3.625 -7.0625 C 3.625 -7.0625 1.421875 -7.0625 1.421875 -7.0625 C 1.421875 -7.0625 1.421875 -7.953125 1.421875 -7.953125 C 3.328125 -8.1875 3.609375 -8.40625 4.046875 -9.921875 C 4.046875 -9.921875 4.859375 -9.921875 4.859375 -9.921875 C 4.859375 -9.921875 4.859375 0 4.859375 0 Z M 4.859375 0 "/>
</g>
<g id="glyph-11-1-95792a90">
<path d="M 7.1875 -2.796875 C 7.1875 -1 5.8125 0.203125 3.84375 0.203125 C 1.890625 0.203125 0.515625 -1 0.515625 -2.8125 C 0.515625 -3.90625 1.078125 -4.671875 2.21875 -5.21875 C 1.203125 -5.859375 0.875 -6.359375 0.875 -7.28125 C 0.875 -8.828125 2.09375 -9.921875 3.84375 -9.921875 C 5.609375 -9.921875 6.828125 -8.828125 6.828125 -7.28125 C 6.828125 -6.34375 6.5 -5.84375 5.46875 -5.21875 C 6.625 -4.671875 7.1875 -3.90625 7.1875 -2.796875 Z M 5.578125 -7.25 C 5.578125 -8.21875 4.90625 -8.828125 3.84375 -8.828125 C 2.8125 -8.828125 2.125 -8.21875 2.125 -7.265625 C 2.125 -6.328125 2.8125 -5.71875 3.84375 -5.71875 C 4.890625 -5.71875 5.578125 -6.328125 5.578125 -7.25 Z M 5.921875 -2.78125 C 5.921875 -3.953125 5.078125 -4.671875 3.84375 -4.671875 C 2.625 -4.671875 1.78125 -3.953125 1.78125 -2.78125 C 1.78125 -1.625 2.625 -0.875 3.828125 -0.875 C 5.078125 -0.875 5.921875 -1.609375 5.921875 -2.78125 Z M 5.921875 -2.78125 "/>
</g>
<g id="glyph-12-0-95792a90">
<path d="M 7.1875 -3.296875 C 7.1875 -1.1875 5.78125 0.203125 3.78125 0.203125 C 2.015625 0.203125 0.890625 -0.578125 0.484375 -2.546875 C 0.484375 -2.546875 1.71875 -2.546875 1.71875 -2.546875 C 2.015625 -1.421875 2.671875 -0.875 3.75 -0.875 C 5.09375 -0.875 5.921875 -1.6875 5.921875 -3.125 C 5.921875 -4.59375 5.078125 -5.453125 3.75 -5.453125 C 2.984375 -5.453125 2.5 -5.203125 1.9375 -4.515625 C 1.9375 -4.515625 0.796875 -4.515625 0.796875 -4.515625 C 0.796875 -4.515625 1.546875 -9.71875 1.546875 -9.71875 C 1.546875 -9.71875 6.65625 -9.71875 6.65625 -9.71875 C 6.65625 -9.71875 6.65625 -8.5 6.65625 -8.5 C 6.65625 -8.5 2.53125 -8.5 2.53125 -8.5 C 2.53125 -8.5 2.140625 -5.9375 2.140625 -5.9375 C 2.71875 -6.359375 3.28125 -6.53125 3.96875 -6.53125 C 5.875 -6.53125 7.1875 -5.25 7.1875 -3.296875 Z M 7.1875 -3.296875 "/>
</g>
<g id="glyph-12-1-95792a90">
<path d="M 7.09375 -4.78125 C 7.09375 -1.515625 5.953125 0.203125 3.84375 0.203125 C 1.71875 0.203125 0.609375 -1.515625 0.609375 -4.859375 C 0.609375 -8.1875 1.703125 -9.921875 3.84375 -9.921875 C 6 -9.921875 7.09375 -8.21875 7.09375 -4.78125 Z M 5.84375 -4.890625 C 5.84375 -7.546875 5.1875 -8.828125 3.84375 -8.828125 C 2.515625 -8.828125 1.859375 -7.5625 1.859375 -4.84375 C 1.859375 -2.125 2.515625 -0.8125 3.828125 -0.8125 C 5.1875 -0.8125 5.84375 -2.078125 5.84375 -4.890625 Z M 5.84375 -4.890625 "/>
</g>
<g id="glyph-13-0-95792a90">
<path d="M 7.34375 0 C 7.34375 0 5.203125 0 5.203125 0 C 5.03125 -0.21875 4.984375 -0.5625 4.984375 -0.953125 C 4.296875 -0.234375 3.53125 0.125 2.6875 0.125 C 1.421875 0.125 0.390625 -0.578125 0.390625 -2.046875 C 0.390625 -3.421875 1.125 -4.0625 2.625 -4.328125 C 2.625 -4.328125 3.40625 -4.46875 3.40625 -4.46875 C 4.375 -4.640625 4.96875 -4.546875 4.96875 -5.34375 C 4.96875 -5.859375 4.59375 -6.109375 3.84375 -6.109375 C 2.875 -6.109375 2.546875 -5.859375 2.453125 -5.0625 C 2.453125 -5.0625 0.5625 -5.0625 0.5625 -5.0625 C 0.6875 -6.8125 1.75 -7.6875 3.796875 -7.6875 C 5.84375 -7.6875 6.890625 -6.90625 6.890625 -5.359375 C 6.890625 -5.359375 6.890625 -1.15625 6.890625 -1.15625 C 6.890625 -0.765625 6.984375 -0.5625 7.34375 -0.234375 C 7.34375 -0.234375 7.34375 0 7.34375 0 Z M 4.96875 -3.234375 C 4.96875 -3.234375 4.96875 -3.5625 4.96875 -3.5625 C 4.75 -3.453125 4.65625 -3.4375 4.140625 -3.328125 C 4.140625 -3.328125 3.46875 -3.203125 3.46875 -3.203125 C 2.65625 -3.046875 2.359375 -2.84375 2.359375 -2.265625 C 2.359375 -1.703125 2.765625 -1.453125 3.421875 -1.453125 C 4.40625 -1.453125 4.96875 -2.09375 4.96875 -3.234375 Z M 4.96875 -3.234375 "/>
</g>
<g id="glyph-13-1-95792a90">
<path d="M 7.578125 0.25 C 7.578125 2.03125 6.265625 3.046875 3.96875 3.046875 C 1.90625 3.046875 0.65625 2.140625 0.625 0.90625 C 0.625 0.90625 2.65625 0.90625 2.65625 0.90625 C 2.8125 1.484375 3.296875 1.796875 4.046875 1.796875 C 5.03125 1.796875 5.71875 1.15625 5.71875 0.25 C 5.71875 0.25 5.71875 -0.875 5.71875 -0.875 C 4.984375 -0.140625 4.453125 0.125 3.5625 0.125 C 1.703125 0.125 0.46875 -1.34375 0.46875 -3.703125 C 0.46875 -6.03125 1.8125 -7.6875 3.609375 -7.6875 C 4.484375 -7.6875 5.125 -7.296875 5.71875 -6.390625 C 5.71875 -6.390625 5.71875 -7.5625 5.71875 -7.5625 C 5.71875 -7.5625 7.578125 -7.5625 7.578125 -7.5625 C 7.578125 -7.5625 7.578125 0.25 7.578125 0.25 Z M 5.734375 -3.71875 C 5.734375 -5.125 5.015625 -6.046875 4.03125 -6.046875 C 3.078125 -6.046875 2.4375 -5.15625 2.4375 -3.71875 C 2.4375 -2.359375 3.078125 -1.515625 4 -1.515625 C 5.03125 -1.515625 5.734375 -2.359375 5.734375 -3.71875 Z M 5.734375 -3.71875 "/>
</g>
<g id="glyph-13-2-95792a90">
<path d="M 7.96875 -3.71875 C 7.96875 -1.296875 6.53125 0.125 4.234375 0.125 C 1.90625 0.125 0.484375 -1.28125 0.484375 -3.78125 C 0.484375 -6.265625 1.90625 -7.6875 4.21875 -7.6875 C 6.578125 -7.6875 7.96875 -6.28125 7.96875 -3.71875 Z M 6 -3.75 C 6 -5.234375 5.3125 -6.109375 4.234375 -6.109375 C 3.15625 -6.109375 2.453125 -5.21875 2.453125 -3.78125 C 2.453125 -2.34375 3.15625 -1.453125 4.234375 -1.453125 C 5.28125 -1.453125 6 -2.34375 6 -3.75 Z M 6 -3.75 "/>
</g>
<g id="glyph-13-3-95792a90">
<path d="M 5.1875 -5.6875 C 4.90625 -5.71875 4.78125 -5.734375 4.5625 -5.734375 C 3.421875 -5.734375 2.84375 -5.171875 2.84375 -4.015625 C 2.84375 -4.015625 2.84375 0 2.84375 0 C 2.84375 0 0.875 0 0.875 0 C 0.875 0 0.875 -7.5625 0.875 -7.5625 C 0.875 -7.5625 2.84375 -7.5625 2.84375 -7.5625 C 2.84375 -7.5625 2.84375 -6.078125 2.84375 -6.078125 C 3.265625 -7.09375 4.046875 -7.6875 4.9375 -7.6875 C 5 -7.6875 5.0625 -7.6875 5.1875 -7.671875 C 5.1875 -7.671875 5.1875 -5.6875 5.1875 -5.6875 Z M 5.1875 -5.6875 "/>
</g>
<g id="glyph-13-4-95792a90">
<path d="M 2.890625 0 C 2.890625 0 0.9375 0 0.9375 0 C 0.9375 0 0.9375 -7.5625 0.9375 -7.5625 C 0.9375 -7.5625 2.890625 -7.5625 2.890625 -7.5625 C 2.890625 -7.5625 2.890625 0 2.890625 0 Z M 2.921875 -8.46875 C 2.921875 -8.46875 0.96875 -8.46875 0.96875 -8.46875 C 0.96875 -8.46875 0.96875 -10.4375 0.96875 -10.4375 C 0.96875 -10.4375 2.921875 -10.4375 2.921875 -10.4375 C 2.921875 -10.4375 2.921875 -8.46875 2.921875 -8.46875 Z M 2.921875 -8.46875 "/>
</g>
<g id="glyph-13-5-95792a90">
<path d="M 4.21875 0 C 3.859375 0.015625 3.515625 0.0625 3.078125 0.0625 C 1.796875 0.0625 1.15625 -0.4375 1.15625 -1.625 C 1.15625 -1.625 1.15625 -6.109375 1.15625 -6.109375 C 1.15625 -6.109375 0.203125 -6.109375 0.203125 -6.109375 C 0.203125 -6.109375 0.203125 -7.40625 0.203125 -7.40625 C 0.203125 -7.40625 1.15625 -7.40625 1.15625 -7.40625 C 1.15625 -7.40625 1.15625 -9.4375 1.15625 -9.4375 C 1.15625 -9.4375 3.125 -9.4375 3.125 -9.4375 C 3.125 -9.4375 3.125 -7.40625 3.125 -7.40625 C 3.125 -7.40625 4.21875 -7.40625 4.21875 -7.40625 C 4.21875 -7.40625 4.21875 -6.109375 4.21875 -6.109375 C 4.21875 -6.109375 3.125 -6.109375 3.125 -6.109375 C 3.125 -6.109375 3.125 -2.15625 3.125 -2.15625 C 3.125 -1.484375 3.25 -1.328125 3.765625 -1.328125 C 3.90625 -1.328125 4.015625 -1.34375 4.21875 -1.375 C 4.21875 -1.375 4.21875 0 4.21875 0 Z M 4.21875 0 "/>
</g>
<g id="glyph-13-6-95792a90">
<path d="M 7.578125 0 C 7.578125 0 5.609375 0 5.609375 0 C 5.609375 0 5.609375 -4.625 5.609375 -4.625 C 5.609375 -5.640625 5.109375 -6.015625 4.40625 -6.015625 C 3.53125 -6.015625 2.890625 -5.40625 2.890625 -4.53125 C 2.890625 -4.53125 2.890625 0 2.890625 0 C 2.890625 0 0.9375 0 0.9375 0 C 0.9375 0 0.9375 -10.203125 0.9375 -10.203125 C 0.9375 -10.203125 2.890625 -10.203125 2.890625 -10.203125 C 2.890625 -10.203125 2.890625 -6.46875 2.890625 -6.46875 C 3.4375 -7.296875 4.140625 -7.6875 5.109375 -7.6875 C 6.53125 -7.6875 7.578125 -6.828125 7.578125 -5.0625 C 7.578125 -5.0625 7.578125 0 7.578125 0 Z M 7.578125 0 "/>
</g>
<g id="glyph-13-7-95792a90">
<path d="M 11.53125 0 C 11.53125 0 9.578125 0 9.578125 0 C 9.578125 0 9.578125 -5.046875 9.578125 -5.046875 C 9.578125 -5.640625 9.171875 -6.015625 8.515625 -6.015625 C 7.671875 -6.015625 7.171875 -5.453125 7.171875 -4.53125 C 7.171875 -4.53125 7.171875 0 7.171875 0 C 7.171875 0 5.203125 0 5.203125 0 C 5.203125 0 5.203125 -5.046875 5.203125 -5.046875 C 5.203125 -5.640625 4.796875 -6.015625 4.140625 -6.015625 C 3.296875 -6.015625 2.796875 -5.453125 2.796875 -4.53125 C 2.796875 -4.53125 2.796875 0 2.796875 0 C 2.796875 0 0.84375 0 0.84375 0 C 0.84375 0 0.84375 -7.5625 0.84375 -7.5625 C 0.84375 -7.5625 2.78125 -7.5625 2.78125 -7.5625 C 2.78125 -7.5625 2.78125 -6.625 2.78125 -6.625 C 3.4375 -7.390625 3.984375 -7.6875 4.859375 -7.6875 C 5.796875 -7.6875 6.546875 -7.28125 6.921875 -6.5625 C 7.5 -7.34375 8.171875 -7.6875 9.125 -7.6875 C 10.640625 -7.6875 11.53125 -6.8125 11.53125 -5.34375 C 11.53125 -5.34375 11.53125 0 11.53125 0 Z M 11.53125 0 "/>
</g>
<g id="glyph-14-0-95792a90">
<path d="M 2.890625 0 C 2.890625 0 0.9375 0 0.9375 0 C 0.9375 0 0.9375 -10.203125 0.9375 -10.203125 C 0.9375 -10.203125 2.890625 -10.203125 2.890625 -10.203125 C 2.890625 -10.203125 2.890625 0 2.890625 0 Z M 2.890625 0 "/>
</g>
<g id="glyph-15-0-95792a90">
<path d="M 9.046875 0 C 9.046875 0 7.578125 0 7.578125 0 C 7.578125 0 2.296875 -8.28125 2.296875 -8.28125 C 2.296875 -8.28125 2.296875 0 2.296875 0 C 2.296875 0 1.0625 0 1.0625 0 C 1.0625 0 1.0625 -10.203125 1.0625 -10.203125 C 1.0625 -10.203125 2.484375 -10.203125 2.484375 -10.203125 C 2.484375 -10.203125 7.8125 -1.859375 7.8125 -1.859375 C 7.8125 -1.859375 7.8125 -10.203125 7.8125 -10.203125 C 7.8125 -10.203125 9.046875 -10.203125 9.046875 -10.203125 C 9.046875 -10.203125 9.046875 0 9.046875 0 Z M 9.046875 0 "/>
</g>
<g id="glyph-16-0-95792a90">
<path d="M 7.1875 -3.328125 C 7.1875 -3.328125 1.78125 -3.328125 1.78125 -3.328125 C 1.8125 -1.65625 2.71875 -0.875 3.9375 -0.875 C 4.875 -0.875 5.53125 -1.265625 5.859375 -2.21875 C 5.859375 -2.21875 7.03125 -2.21875 7.03125 -2.21875 C 6.734375 -0.734375 5.578125 0.203125 3.890625 0.203125 C 1.828125 0.203125 0.5625 -1.21875 0.5625 -3.625 C 0.5625 -6.03125 1.875 -7.546875 3.921875 -7.546875 C 5.296875 -7.546875 6.40625 -6.8125 6.890625 -5.609375 C 7.09375 -5.0625 7.1875 -4.390625 7.1875 -3.328125 Z M 5.9375 -4.375 C 5.9375 -5.515625 5.046875 -6.46875 3.90625 -6.46875 C 2.734375 -6.46875 1.90625 -5.59375 1.8125 -4.28125 C 1.8125 -4.28125 5.921875 -4.28125 5.921875 -4.28125 C 5.9375 -4.3125 5.9375 -4.375 5.9375 -4.375 Z M 5.9375 -4.375 "/>
</g>
</g>
</defs>
<rect x="-60" y="-45" width="720" height="540" fill="rgb(100%, 100%, 100%)" fill-opacity="1"/>
<path fill-rule="nonzero" fill="rgb(100%, 100%, 100%)" fill-opacity="1" d="M 77 391 L 453 391 L 453 16 L 77 16 Z M 77 391 "/>
<path fill="none" stroke-width="1" stroke-linecap="butt" stroke-linejoin="miter" stroke="rgb(0%, 0%, 0%)" stroke-opacity="0.12" stroke-miterlimit="1.154701" d="M 91.648438 391 L 91.648438 16 "/>
<path fill="none" stroke-width="1" stroke-linecap="butt" stroke-linejoin="miter" stroke="rgb(0%, 0%, 0%)" stroke-opacity="0.12" stroke-miterlimit="1.154701" d="M 213.726562 391 L 213.726562 16 "/>
<path fill="none" stroke-width="1" stroke-linecap="butt" stroke-linejoin="miter" stroke="rgb(0%, 0%, 0%)" stroke-opacity="0.12" stroke-miterlimit="1.154701" d="M 335.804688 391 L 335.804688 16 "/>
<path fill="none" stroke-width="1" stroke-linecap="butt" stroke-linejoin="miter" stroke="rgb(0%, 0%, 0%)" stroke-opacity="0.12" stroke-miterlimit="1.154701" d="M 77 380.246094 L 453 380.246094 "/>
<path fill="none" stroke-width="1" stroke-linecap="butt" stroke-linejoin="miter" stroke="rgb(0%, 0%, 0%)" stroke-opacity="0.12" stroke-miterlimit="1.154701" d="M 77 218 L 453 218 "/>
<path fill="none" stroke-width="1" stroke-linecap="butt" stroke-linejoin="miter" stroke="rgb(0%, 0%, 0%)" stroke-opacity="0.12" stroke-miterlimit="1.154701" d="M 77 55.75 L 453 55.75 "/>
<g fill="rgb(0%, 0%, 0%)" fill-opacity="1">
<use xlink:href="#glyph-0-0-95792a90" x="251.770006" y="431.567999"/>
</g>
<g fill="rgb(0%, 0%, 0%)" fill-opacity="1">
<use xlink:href="#glyph-1-0-95792a90" x="258.770006" y="431.567999"/>
<use xlink:href="#glyph-1-1-95792a90" x="262.662006" y="431.567999"/>
<use xlink:href="#glyph-1-2-95792a90" x="270.446007" y="431.567999"/>
</g>
<g fill="rgb(0%, 0%, 0%)" fill-opacity="1">
<use xlink:href="#glyph-1-3-95792a90" x="87.757355" y="412.257999"/>
</g>
<g fill="rgb(0%, 0%, 0%)" fill-opacity="1">
<use xlink:href="#glyph-1-4-95792a90" x="205.943285" y="412.257999"/>
<use xlink:href="#glyph-1-3-95792a90" x="213.727285" y="412.257999"/>
</g>
<g fill="rgb(0%, 0%, 0%)" fill-opacity="1">
<use xlink:href="#glyph-1-5-95792a90" x="324.129215" y="412.257999"/>
<use xlink:href="#glyph-1-3-95792a90" x="331.913215" y="412.257999"/>
<use xlink:href="#glyph-1-3-95792a90" x="339.697215" y="412.257999"/>
</g>
<g fill="rgb(0%, 0%, 0%)" fill-opacity="1">
<use xlink:href="#glyph-2-0-95792a90" x="27.811998" y="231.121993"/>
</g>
<g fill="rgb(0%, 0%, 0%)" fill-opacity="1">
<use xlink:href="#glyph-3-0-95792a90" x="27.811998" y="223.337992"/>
</g>
<g fill="rgb(0%, 0%, 0%)" fill-opacity="1">
<use xlink:href="#glyph-4-0-95792a90" x="27.811999" y="215.553993"/>
</g>
<g fill="rgb(0%, 0%, 0%)" fill-opacity="1">
<use xlink:href="#glyph-5-0-95792a90" x="27.811999" y="212.445992"/>
</g>
<g fill="rgb(0%, 0%, 0%)" fill-opacity="1">
<use xlink:href="#glyph-6-0-95792a90" x="27.811999" y="204.661992"/>
</g>
<g fill="rgb(0%, 0%, 0%)" fill-opacity="1">
<use xlink:href="#glyph-7-0-95792a90" x="27.812" y="197.661995"/>
</g>
<g fill="rgb(0%, 0%, 0%)" fill-opacity="1">
<use xlink:href="#glyph-8-0-95792a90" x="27.812" y="193.769997"/>
</g>
<g fill="rgb(0%, 0%, 0%)" fill-opacity="1">
<use xlink:href="#glyph-9-0-95792a90" x="27.812" y="190.661995"/>
</g>
<g fill="rgb(0%, 0%, 0%)" fill-opacity="1">
<use xlink:href="#glyph-2-1-95792a90" x="27.812" y="183.661996"/>
</g>
<g fill="rgb(0%, 0%, 0%)" fill-opacity="1">
<use xlink:href="#glyph-1-5-95792a90" x="35.864001" y="385.350656"/>
<use xlink:href="#glyph-1-6-95792a90" x="43.648002" y="385.350656"/>
</g>
<g fill="rgb(0%, 0%, 0%)" fill-opacity="1">
<use xlink:href="#glyph-10-0-95792a90" x="51.432001" y="385.350656"/>
<use xlink:href="#glyph-10-1-95792a90" x="59.216001" y="385.350656"/>
</g>
<g fill="rgb(0%, 0%, 0%)" fill-opacity="1">
<use xlink:href="#glyph-1-5-95792a90" x="35.864001" y="223.102232"/>
<use xlink:href="#glyph-1-7-95792a90" x="43.648002" y="223.102232"/>
</g>
<g fill="rgb(0%, 0%, 0%)" fill-opacity="1">
<use xlink:href="#glyph-10-1-95792a90" x="51.432001" y="223.102232"/>
<use xlink:href="#glyph-10-1-95792a90" x="59.216001" y="223.102232"/>
</g>
<g fill="rgb(0%, 0%, 0%)" fill-opacity="1">
<use xlink:href="#glyph-11-0-95792a90" x="35.864001" y="60.853815"/>
<use xlink:href="#glyph-11-1-95792a90" x="43.648002" y="60.853815"/>
</g>
<g fill="rgb(0%, 0%, 0%)" fill-opacity="1">
<use xlink:href="#glyph-12-0-95792a90" x="51.432001" y="60.853815"/>
<use xlink:href="#glyph-12-1-95792a90" x="59.216001" y="60.853815"/>
</g>
<path fill="none" stroke-width="1.5" stroke-linecap="butt" stroke-linejoin="miter" stroke="rgb(0%, 44.705883%, 69.803923%)" stroke-opacity="1" stroke-miterlimit="2" d="M 94.089844 267.832031 L 96.53125 241.164062 L 98.972656 221.246094 L 101.414062 190.242188 L 103.855469 197.746094 L 106.296875 222.527344 L 108.742188 234.957031 L 111.183594 289.292969 L 113.625 309.308594 L 116.066406 300.121094 L 118.507812 307.710938 L 120.949219 335.121094 L 123.390625 272.183594 L 125.832031 323.726562 L 128.273438 354.488281 L 130.714844 336.183594 L 133.15625 359.085938 L 135.597656 355.058594 L 138.039062 352.238281 L 140.480469 362.800781 L 142.921875 362.980469 L 145.363281 348.082031 L 147.804688 364.082031 L 150.246094 355.980469 L 152.6875 366.519531 L 155.128906 365.835938 L 157.570312 368.996094 L 160.011719 372.136719 L 162.453125 369.8125 L 164.894531 370.675781 L 167.335938 370.910156 L 169.777344 371.847656 L 172.222656 372.507812 L 174.664062 372.703125 L 177.105469 372.921875 L 179.546875 372.875 L 181.988281 372.566406 L 184.429688 373.066406 L 186.871094 373.039062 L 189.3125 373.1875 L 191.753906 373.28125 L 194.195312 373.445312 L 196.636719 373.628906 L 199.078125 373.628906 L 201.519531 373.898438 L 203.960938 373.875 L 206.402344 373.929688 L 208.84375 373.816406 L 213.726562 373.933594 L 216.167969 373.949219 L 218.609375 373.902344 L 221.050781 373.804688 L 223.492188 373.898438 L 225.933594 373.953125 L 267.441406 373.953125 "/>
<path fill="none" stroke-width="1.5" stroke-linecap="butt" stroke-linejoin="miter" stroke="rgb(90.196079%, 62.352943%, 0%)" stroke-opacity="1" stroke-miterlimit="2" d="M 94.089844 267.832031 L 96.53125 241.164062 L 98.972656 221.246094 L 101.414062 190.242188 L 103.855469 252.382812 L 106.296875 298.140625 L 108.742188 33.042969 L 111.183594 346.28125 L 113.625 304.207031 L 116.066406 235.808594 L 118.507812 335.789062 L 120.949219 267.628906 L 123.390625 320 L 125.832031 242.949219 L 128.273438 341.878906 L 130.714844 343.460938 L 133.15625 338.296875 L 135.597656 340.566406 L 138.039062 316.460938 L 140.480469 308.394531 L 142.921875 359.632812 L 145.363281 263.347656 L 147.804688 346.46875 L 150.246094 342.367188 L 152.6875 361.105469 L 155.128906 353.847656 L 157.570312 335.4375 L 160.011719 364.71875 L 162.453125 357.910156 L 164.894531 363.144531 L 167.335938 369.519531 L 169.777344 372.277344 L 172.222656 357.351562 L 174.664062 365.863281 L 177.105469 368.90625 L 179.546875 366.664062 L 181.988281 366.582031 L 184.429688 369.675781 L 186.871094 370.1875 L 189.3125 373.589844 L 191.753906 373.300781 L 194.195312 368.949219 L 196.636719 371.90625 L 199.078125 369.820312 L 201.519531 372.175781 L 203.960938 373.046875 L 206.402344 373.261719 L 208.84375 373.757812 L 211.285156 371.996094 L 213.726562 372.972656 L 216.167969 373.675781 L 218.609375 372.828125 L 221.050781 373.785156 L 223.492188 373.1875 L 225.933594 373.863281 L 228.375 373.824219 L 230.816406 373.464844 L 233.257812 373.933594 L 235.703125 373.582031 L 238.144531 373.921875 L 240.585938 373.71875 L 243.027344 373.929688 L 245.46875 373.832031 L 247.910156 373.933594 L 250.351562 373.878906 L 252.792969 373.949219 L 255.234375 373.925781 L 257.675781 373.949219 L 260.117188 373.917969 L 262.558594 373.949219 L 265 373.902344 L 267.441406 373.953125 L 272.324219 373.945312 L 274.765625 373.953125 L 277.207031 373.949219 L 279.648438 373.953125 L 282.089844 373.953125 L 284.53125 373.945312 L 286.972656 373.945312 L 289.414062 373.953125 L 291.855469 373.949219 L 294.296875 373.953125 L 296.742188 373.949219 L 299.183594 373.953125 L 435.910156 373.953125 "/>
<path fill-rule="nonzero" fill="rgb(100%, 100%, 100%)" fill-opacity="1" stroke-width="1" stroke-linecap="butt" stroke-linejoin="miter" stroke="rgb(0%, 0%, 0%)" stroke-opacity="1" stroke-miterlimit="2" d="M 471 243 L 584 243 L 584 164 L 471 164 Z M 471 243 "/>
<path fill="none" stroke-width="1" stroke-linecap="butt" stroke-linejoin="miter" stroke="rgb(0%, 0%, 0%)" stroke-opacity="1" stroke-miterlimit="1.154701" d="M 91.648438 391.5 L 91.648438 396.5 "/>
<path fill="none" stroke-width="1" stroke-linecap="butt" stroke-linejoin="miter" stroke="rgb(0%, 0%, 0%)" stroke-opacity="1" stroke-miterlimit="1.154701" d="M 213.726562 391.5 L 213.726562 396.5 "/>
<path fill="none" stroke-width="1" stroke-linecap="butt" stroke-linejoin="miter" stroke="rgb(0%, 0%, 0%)" stroke-opacity="1" stroke-miterlimit="1.154701" d="M 335.804688 391.5 L 335.804688 396.5 "/>
<path fill="none" stroke-width="1" stroke-linecap="butt" stroke-linejoin="miter" stroke="rgb(0%, 0%, 0%)" stroke-opacity="1" stroke-miterlimit="1.154701" d="M 76.5 380.246094 L 71.5 380.246094 "/>
<path fill="none" stroke-width="1" stroke-linecap="butt" stroke-linejoin="miter" stroke="rgb(0%, 0%, 0%)" stroke-opacity="1" stroke-miterlimit="1.154701" d="M 76.5 218 L 71.5 218 "/>
<path fill="none" stroke-width="1" stroke-linecap="butt" stroke-linejoin="miter" stroke="rgb(0%, 0%, 0%)" stroke-opacity="1" stroke-miterlimit="1.154701" d="M 76.5 55.75 L 71.5 55.75 "/>
<path fill="none" stroke-width="1.5" stroke-linecap="butt" stroke-linejoin="miter" stroke="rgb(0%, 44.705883%, 69.803923%)" stroke-opacity="1" stroke-miterlimit="2" d="M 476.878906 204.15625 L 496.878906 204.15625 "/>
<path fill="none" stroke-width="1.5" stroke-linecap="butt" stroke-linejoin="miter" stroke="rgb(90.196079%, 62.352943%, 0%)" stroke-opacity="1" stroke-miterlimit="2" d="M 476.878906 227.15625 L 496.878906 227.15625 "/>
<g fill="rgb(0%, 0%, 0%)" fill-opacity="1">
<use xlink:href="#glyph-13-0-95792a90" x="495.608014" y="183.102994"/>
</g>
<g fill="rgb(0%, 0%, 0%)" fill-opacity="1">
<use xlink:href="#glyph-14-0-95792a90" x="503.392014" y="183.102994"/>
</g>
<g fill="rgb(0%, 0%, 0%)" fill-opacity="1">
<use xlink:href="#glyph-13-1-95792a90" x="507.284013" y="183.102994"/>
<use xlink:href="#glyph-13-2-95792a90" x="515.838014" y="183.102994"/>
<use xlink:href="#glyph-13-3-95792a90" x="524.392015" y="183.102994"/>
<use xlink:href="#glyph-13-4-95792a90" x="529.838014" y="183.102994"/>
<use xlink:href="#glyph-13-5-95792a90" x="533.730012" y="183.102994"/>
<use xlink:href="#glyph-13-6-95792a90" x="538.392011" y="183.102994"/>
<use xlink:href="#glyph-13-7-95792a90" x="546.946012" y="183.102994"/>
</g>
<g fill="rgb(0%, 0%, 0%)" fill-opacity="1">
<use xlink:href="#glyph-1-8-95792a90" x="501.877993" y="209.257993"/>
<use xlink:href="#glyph-1-9-95792a90" x="511.215993" y="209.257993"/>
<use xlink:href="#glyph-1-8-95792a90" x="522.107993" y="209.257993"/>
<use xlink:href="#glyph-1-10-95792a90" x="531.445995" y="209.257993"/>
<use xlink:href="#glyph-1-11-95792a90" x="540.783996" y="209.257993"/>
<use xlink:href="#glyph-1-12-95792a90" x="551.675999" y="209.257993"/>
</g>
<g fill="rgb(0%, 0%, 0%)" fill-opacity="1">
<use xlink:href="#glyph-15-0-95792a90" x="501.878014" y="232.257994"/>
</g>
<g fill="rgb(0%, 0%, 0%)" fill-opacity="1">
<use xlink:href="#glyph-16-0-95792a90" x="511.986014" y="232.257994"/>
</g>
<g fill="rgb(0%, 0%, 0%)" fill-opacity="1">
<use xlink:href="#glyph-1-13-95792a90" x="519.770015" y="232.257994"/>
<use xlink:href="#glyph-1-14-95792a90" x="522.878015" y="232.257994"/>
<use xlink:href="#glyph-1-1-95792a90" x="530.662015" y="232.257994"/>
<use xlink:href="#glyph-1-15-95792a90" x="538.446016" y="232.257994"/>
<use xlink:href="#glyph-1-16-95792a90" x="543.108015" y="232.257994"/>
<use xlink:href="#glyph-1-1-95792a90" x="554.770014" y="232.257994"/>
<use xlink:href="#glyph-1-17-95792a90" x="562.554014" y="232.257994"/>
<use xlink:href="#glyph-1-14-95792a90" x="570.338015" y="232.257994"/>
</g>
<path fill="none" stroke-width="1" stroke-linecap="butt" stroke-linejoin="miter" stroke="rgb(0%, 0%, 0%)" stroke-opacity="1" stroke-miterlimit="1.154701" d="M 76.5 391 L 453.5 391 "/>
<path fill="none" stroke-width="1" stroke-linecap="butt" stroke-linejoin="miter" stroke="rgb(0%, 0%, 0%)" stroke-opacity="1" stroke-miterlimit="1.154701" d="M 77 391.5 L 77 15.5 "/>
<path fill="none" stroke-width="1" stroke-linecap="butt" stroke-linejoin="miter" stroke="rgb(0%, 0%, 0%)" stroke-opacity="1" stroke-miterlimit="1.154701" d="M 76.5 16 L 453.5 16 "/>
<path fill="none" stroke-width="1" stroke-linecap="butt" stroke-linejoin="miter" stroke="rgb(0%, 0%, 0%)" stroke-opacity="1" stroke-miterlimit="1.154701" d="M 453 391.5 L 453 15.5 "/>
</svg>
