<?xml version="1.0" encoding="UTF-8"?>
<svg xmlns="http://www.w3.org/2000/svg"
     xmlns:xlink="http://www.w3.org/1999/xlink"
     xmlns:gadfly="http://www.gadflyjl.org/ns"
     version="1.2"
     width="152.4mm" height="101.6mm" viewBox="0 0 152.4 101.6"
     stroke="none"
     fill="#000000"
     stroke-width="0.3"
     font-size="3.88"
>
<g class="plotroot xscalable yscalable" id="img-e754e1d7-1">
  <g font-size="3.88" font-family="'PT Sans','Helvetica Neue','Helvetica',sans-serif" fill="#564A55" stroke="#000000" stroke-opacity="0.000" id="img-e754e1d7-2">
    <text x="81.84" y="89.99" text-anchor="middle" dy="0.6em">Standard Normal Quantiles</text>
  </g>
  <g class="guide xlabels" font-size="2.82" font-family="'PT Sans Caption','Helvetica Neue','Helvetica',sans-serif" fill="#6C606B" id="img-e754e1d7-3">
    <text x="18.29" y="83.32" text-anchor="middle" dy="0.6em">-3</text>
    <text x="39.47" y="83.32" text-anchor="middle" dy="0.6em">-2</text>
    <text x="60.66" y="83.32" text-anchor="middle" dy="0.6em">-1</text>
    <text x="81.84" y="83.32" text-anchor="middle" dy="0.6em">0</text>
    <text x="103.03" y="83.32" text-anchor="middle" dy="0.6em">1</text>
    <text x="124.21" y="83.32" text-anchor="middle" dy="0.6em">2</text>
    <text x="145.4" y="83.32" text-anchor="middle" dy="0.6em">3</text>
  </g>
<g clip-path="url(#img-e754e1d7-4)">
  <g id="img-e754e1d7-5">
    <g pointer-events="visible" opacity="1" fill="#000000" fill-opacity="0.000" stroke="#000000" stroke-opacity="0.000" class="guide background" id="img-e754e1d7-6">
      <rect x="16.29" y="5" width="131.11" height="77.32"/>
    </g>
    <g class="guide ygridlines xfixed" stroke-dasharray="0.5,0.5" stroke-width="0.2" stroke="#D0D0E0" id="img-e754e1d7-7">
      <path fill="none" d="M16.29,80.32 L 147.4 80.32"/>
      <path fill="none" d="M16.29,55.88 L 147.4 55.88"/>
      <path fill="none" d="M16.29,31.44 L 147.4 31.44"/>
      <path fill="none" d="M16.29,7 L 147.4 7"/>
    </g>
    <g class="guide xgridlines yfixed" stroke-dasharray="0.5,0.5" stroke-width="0.2" stroke="#D0D0E0" id="img-e754e1d7-8">
      <path fill="none" d="M18.29,5 L 18.29 82.32"/>
      <path fill="none" d="M39.47,5 L 39.47 82.32"/>
      <path fill="none" d="M60.66,5 L 60.66 82.32"/>
      <path fill="none" d="M81.84,5 L 81.84 82.32"/>
      <path fill="none" d="M103.03,5 L 103.03 82.32"/>
      <path fill="none" d="M124.21,5 L 124.21 82.32"/>
      <path fill="none" d="M145.4,5 L 145.4 82.32"/>
    </g>
    <g class="plotpanel" id="img-e754e1d7-9">
      <g stroke-width="0.3" fill="#000000" fill-opacity="0.000" class="geometry" stroke-dasharray="none" stroke="#00BFFF" id="img-e754e1d7-10">
        <path fill="none" d="M20.87,80.32 L 28.62 80.32 32.56 80.32 35.29 80.32 37.42 80.32 39.17 80.32 40.68 80.32 42 80.32 43.18 80.32 44.25 80.32 45.23 80.32 46.15 80.32 46.99 80.32 47.79 80.32 48.54 80.32 49.25 80.32 49.93 80.32 50.58 80.32 51.19 80.32 51.79 80.32 52.36 80.32 52.91 80.32 53.44 80.32 53.95 80.32 54.45 80.32 54.93 80.32 55.4 80.32 55.86 80.32 56.3 80.32 56.74 80.32 57.16 80.32 57.57 80.32 57.98 80.32 58.38 80.32 58.76 80.32 59.14 80.32 59.52 80.32 59.88 80.32 60.25 80.32 60.6 80.32 60.95 80.32 61.29 80.32 61.63 80.32 61.96 80.32 62.29 80.32 62.61 80.32 62.93 80.32 63.24 80.32 63.55 80.32 63.86 80.32 64.16 80.32 64.46 80.32 64.76 80.32 65.05 80.32 65.34 80.32 65.63 80.32 65.91 80.32 66.19 80.32 66.47 80.32 66.74 80.32 67.01 80.32 67.29 80.32 67.55 80.32 67.82 80.32 68.08 80.32 68.34 80.32 68.6 80.32 68.86 80.32 69.11 80.32 69.37 80.32 69.62 80.32 69.87 80.32 70.12 80.32 70.37 80.32 70.61 80.32 70.85 80.32 71.1 80.32 71.34 80.32 71.58 80.32 71.82 80.32 72.05 80.32 72.29 80.32 72.52 80.32 72.76 80.32 72.99 80.32 73.22 80.32 73.45 80.32 73.68 80.32 73.91 80.32 74.13 80.32 74.36 80.32 74.59 80.32 74.81 80.27 75.04 80.07 75.26 78.07 75.48 76 75.7 74.81 75.92 73.62 76.15 72.82 76.37 72.25 76.58 71.49 76.8 70.88 77.02 70.35 77.24 69.66 77.46 69.15 77.67 68.68 77.89 68.24 78.11 67.74 78.32 67.34 78.54 66.92 78.75 66.53 78.97 66.12 79.18 65.72 79.39 65.31 79.61 65.04 79.82 64.73 80.03 64.38 80.25 64.15 80.46 63.84 80.67 63.5 80.89 63.28 81.1 63 81.31 62.67 81.52 62.35 81.74 62.04 81.95 61.73 82.16 61.47 82.37 61.24 82.59 60.96 82.8 60.69 83.01 60.32 83.22 60.04 83.44 59.77 83.65 59.41 83.86 59.14 84.08 58.91 84.29 58.67 84.5 58.36 84.72 58.05 84.93 57.88 85.15 57.57 85.36 57.34 85.58 57.03 85.8 56.76 86.01 56.57 86.23 56.33 86.45 56.11 86.66 55.91 86.88 55.7 87.1 55.48 87.32 55.23 87.54 54.95 87.76 54.69 87.98 54.46 88.2 54.24 88.43 54.01 88.65 53.81 88.87 53.56 89.1 53.3 89.32 53.09 89.55 52.82 89.78 52.56 90.01 52.32 90.24 52.06 90.47 51.86 90.7 51.57 90.93 51.33 91.16 51.14 91.4 50.81 91.63 50.6 91.87 50.43 92.11 50.2 92.35 49.95 92.59 49.72 92.83 49.49 93.07 49.31 93.32 49.12 93.57 48.87 93.81 48.68 94.06 48.47 94.32 48.22 94.57 48 94.83 47.77 95.08 47.55 95.34 47.3 95.6 47.03 95.87 46.77 96.13 46.51 96.4 46.27 96.67 45.97 96.94 45.73 97.22 45.53 97.5 45.33 97.78 45.06 98.06 44.86 98.35 44.62 98.63 44.34 98.93 44.08 99.22 43.77 99.52 43.56 99.82 43.32 100.13 43.01 100.44 42.78 100.76 42.51 101.07 42.16 101.4 41.92 101.72 41.62 102.06 41.25 102.39 41.01 102.74 40.73 103.09 40.45 103.44 40.21 103.8 39.87 104.17 39.55 104.54 39.3 104.92 38.92 105.31 38.59 105.71 38.29 106.11 38.07 106.52 37.7 106.95 37.35 107.38 36.93 107.83 36.61 108.28 36.22 108.75 35.8 109.24 35.45 109.73 35.12 110.25 34.68 110.78 34.3 111.33 33.91 111.9 33.51 112.49 33.05 113.11 32.47 113.75 32.06 114.43 31.67 115.14 31.1 115.89 30.36 116.69 29.65 117.54 29.03 118.45 28.33 119.43 27.69 120.51 27.12 121.69 26.24 123.01 24.94 124.51 24.1 126.27 22.68 128.39 21.36 131.13 19.56 135.06 16.63 142.82 10.68"/>
      </g>
    </g>
  </g>
</g>
  <g class="guide ylabels" font-size="2.82" font-family="'PT Sans Caption','Helvetica Neue','Helvetica',sans-serif" fill="#6C606B" id="img-e754e1d7-11">
    <text x="15.28" y="80.32" text-anchor="end" dy="0.35em">0</text>
    <text x="15.28" y="55.88" text-anchor="end" dy="0.35em">1</text>
    <text x="15.28" y="31.44" text-anchor="end" dy="0.35em">2</text>
    <text x="15.28" y="7" text-anchor="end" dy="0.35em">3</text>
  </g>
  <g font-size="3.88" font-family="'PT Sans','Helvetica Neue','Helvetica',sans-serif" fill="#564A55" stroke="#000000" stroke-opacity="0.000" id="img-e754e1d7-12">
    <text x="8.81" y="41.66" text-anchor="middle" dy="0.35em" transform="rotate(-90, 8.81, 43.66)">σ₂</text>
  </g>
</g>
<defs>
  <clipPath id="img-e754e1d7-4">
  <path d="M16.29,5 L 147.4 5 147.4 82.32 16.29 82.32" />
</clipPath>
</defs>
</svg>
