<?xml version="1.0" encoding="UTF-8"?>
<svg xmlns="http://www.w3.org/2000/svg"
     xmlns:xlink="http://www.w3.org/1999/xlink"
     xmlns:gadfly="http://www.gadflyjl.org/ns"
     version="1.2"
     width="152.4mm" height="101.6mm" viewBox="0 0 152.4 101.6"
     stroke="none"
     fill="#000000"
     stroke-width="0.3"
     font-size="3.88"
>
<g class="plotroot xscalable yscalable" id="img-ae891640-1">
  <g font-size="3.88" font-family="'PT Sans','Helvetica Neue','Helvetica',sans-serif" fill="#564A55" stroke="#000000" stroke-opacity="0.000" id="img-ae891640-2">
    <text x="79.21" y="89.99" text-anchor="middle" dy="0.6em">θ₁</text>
  </g>
  <g class="guide xlabels" font-size="2.82" font-family="'PT Sans Caption','Helvetica Neue','Helvetica',sans-serif" fill="#6C606B" id="img-ae891640-3">
    <text x="13.02" y="83.32" text-anchor="middle" dy="0.6em">-1</text>
    <text x="39.5" y="83.32" text-anchor="middle" dy="0.6em">0</text>
    <text x="65.97" y="83.32" text-anchor="middle" dy="0.6em">1</text>
    <text x="92.45" y="83.32" text-anchor="middle" dy="0.6em">2</text>
    <text x="118.92" y="83.32" text-anchor="middle" dy="0.6em">3</text>
    <text x="145.4" y="83.32" text-anchor="middle" dy="0.6em">4</text>
  </g>
<g clip-path="url(#img-ae891640-4)">
  <g id="img-ae891640-5">
    <g pointer-events="visible" opacity="1" fill="#000000" fill-opacity="0.000" stroke="#000000" stroke-opacity="0.000" class="guide background" id="img-ae891640-6">
      <rect x="11.02" y="5" width="136.38" height="77.32"/>
    </g>
    <g class="guide ygridlines xfixed" stroke-dasharray="0.5,0.5" stroke-width="0.2" stroke="#D0D0E0" id="img-ae891640-7">
      <path fill="none" d="M11.02,80.32 L 147.4 80.32"/>
      <path fill="none" d="M11.02,55.88 L 147.4 55.88"/>
      <path fill="none" d="M11.02,31.44 L 147.4 31.44"/>
      <path fill="none" d="M11.02,7 L 147.4 7"/>
    </g>
    <g class="guide xgridlines yfixed" stroke-dasharray="0.5,0.5" stroke-width="0.2" stroke="#D0D0E0" id="img-ae891640-8">
      <path fill="none" d="M13.02,5 L 13.02 82.32"/>
      <path fill="none" d="M39.5,5 L 39.5 82.32"/>
      <path fill="none" d="M65.97,5 L 65.97 82.32"/>
      <path fill="none" d="M92.45,5 L 92.45 82.32"/>
      <path fill="none" d="M118.92,5 L 118.92 82.32"/>
      <path fill="none" d="M145.4,5 L 145.4 82.32"/>
    </g>
    <g class="plotpanel" id="img-ae891640-9">
      <g stroke-width="0.3" fill="#000000" fill-opacity="0.000" class="geometry" stroke-dasharray="none" stroke="#00BFFF" id="img-ae891640-10">
        <path fill="none" d="M34.21,80.3 L 34.57 80.28 34.92 80.22 35.27 80.09 35.62 79.81 35.98 79.25 36.33 78.22 36.68 76.48 37.03 73.78 37.38 69.92 37.74 64.91 38.09 59.05 38.44 52.93 38.79 47.41 39.15 43.4 39.5 41.59 39.85 42.23 40.2 45.05 40.55 49.35 40.91 54.23 41.26 58.81 41.61 62.5 41.96 65.01 42.32 66.33 42.67 66.64 43.02 66.21 43.37 65.27 43.72 64.01 44.08 62.56 44.43 61 44.78 59.38 45.13 57.74 45.49 56.09 45.84 54.45 46.19 52.81 46.54 51.18 46.89 49.52 47.25 47.84 47.6 46.15 47.95 44.45 48.3 42.77 48.66 41.16 49.01 39.64 49.36 38.22 49.71 36.91 50.07 35.68 50.42 34.52 50.77 33.39 51.12 32.28 51.47 31.16 51.83 30.05 52.18 28.95 52.53 27.9 52.88 26.94 53.24 26.11 53.59 25.43 53.94 24.92 54.29 24.55 54.64 24.35 55 24.29 55.35 24.38 55.7 24.63 56.05 25.02 56.41 25.52 56.76 26.07 57.11 26.61 57.46 27.07 57.81 27.42 58.17 27.67 58.52 27.84 58.87 28.02 59.22 28.27 59.58 28.66 59.93 29.24 60.28 30.02 60.63 31 60.98 32.14 61.34 33.43 61.69 34.82 62.04 36.29 62.39 37.81 62.75 39.32 63.1 40.82 63.45 42.28 63.8 43.7 64.15 45.11 64.51 46.52 64.86 47.96 65.21 49.44 65.56 50.94 65.92 52.43 66.27 53.89 66.62 55.28 66.97 56.57 67.32 57.74 67.68 58.81 68.03 59.78 68.38 60.65 68.73 61.43 69.09 62.12 69.44 62.75 69.79 63.32 70.14 63.86 70.49 64.42 70.85 65 71.2 65.63 71.55 66.33 71.9 67.07 72.26 67.85 72.61 68.65 72.96 69.44 73.31 70.21 73.66 70.94 74.02 71.62 74.37 72.24 74.72 72.79 75.07 73.27 75.43 73.7 75.78 74.09 76.13 74.45 76.48 74.8 76.83 75.15 77.19 75.49 77.54 75.84 77.89 76.19 78.24 76.53 78.6 76.84 78.95 77.13 79.3 77.38 79.65 77.59 80 77.77 80.36 77.91 80.71 78.03 81.06 78.15 81.41 78.26 81.77 78.38 82.12 78.51 82.47 78.65 82.82 78.8 83.17 78.95 83.53 79.1 83.88 79.23 84.23 79.35 84.58 79.45 84.94 79.53 85.29 79.59 85.64 79.64 85.99 79.67 86.34 79.68 86.7 79.7 87.05 79.71 87.4 79.72 87.75 79.74 88.11 79.77 88.46 79.81 88.81 79.86 89.16 79.9 89.51 79.95 89.87 79.98 90.22 80.01 90.57 80.03 90.92 80.05 91.28 80.07 91.63 80.09 91.98 80.11 92.33 80.14 92.68 80.16 93.04 80.18 93.39 80.2 93.74 80.22 94.09 80.23 94.45 80.25 94.8 80.26 95.15 80.27 95.5 80.28 95.85 80.28 96.21 80.29 96.56 80.3 96.91 80.3 97.26 80.3 97.62 80.3 97.97 80.29 98.32 80.29 98.67 80.28 99.02 80.28 99.38 80.28 99.73 80.28 100.08 80.28 100.43 80.29 100.79 80.29 101.14 80.3 101.49 80.3 101.84 80.31 102.19 80.31 102.55 80.31 102.9 80.31 103.25 80.31 103.6 80.31 103.96 80.31 104.31 80.31 104.66 80.31 105.01 80.31 105.36 80.31 105.72 80.31 106.07 80.31 106.42 80.31 106.77 80.31 107.13 80.31 107.48 80.31 107.83 80.31 108.18 80.31 108.54 80.31 108.89 80.31 109.24 80.31 109.59 80.31 109.94 80.31 110.3 80.31 110.65 80.31 111 80.31 111.35 80.31 111.71 80.31 112.06 80.31 112.41 80.31 112.76 80.31 113.11 80.3 113.47 80.3 113.82 80.29 114.17 80.29 114.52 80.28 114.88 80.28 115.23 80.27 115.58 80.27 115.93 80.28 116.28 80.28 116.64 80.28 116.99 80.28 117.34 80.28 117.69 80.28 118.05 80.28 118.4 80.27 118.75 80.27 119.1 80.28 119.45 80.28 119.81 80.29 120.16 80.29 120.51 80.3 120.86 80.3 121.22 80.31 121.57 80.31 121.92 80.31 122.27 80.31 122.62 80.31 122.98 80.31 123.33 80.31 123.68 80.31 124.03 80.31"/>
      </g>
    </g>
  </g>
</g>
  <g class="guide ylabels" font-size="2.82" font-family="'PT Sans Caption','Helvetica Neue','Helvetica',sans-serif" fill="#6C606B" id="img-ae891640-11">
    <text x="10.02" y="80.32" text-anchor="end" dy="0.35em">0.0</text>
    <text x="10.02" y="55.88" text-anchor="end" dy="0.35em">0.5</text>
    <text x="10.02" y="31.44" text-anchor="end" dy="0.35em">1.0</text>
    <text x="10.02" y="7" text-anchor="end" dy="0.35em">1.5</text>
  </g>
</g>
<defs>
  <clipPath id="img-ae891640-4">
  <path d="M11.02,5 L 147.4 5 147.4 82.32 11.02 82.32" />
</clipPath>
</defs>
</svg>
