<?xml version="1.0" encoding="UTF-8"?>
<svg xmlns="http://www.w3.org/2000/svg"
     xmlns:xlink="http://www.w3.org/1999/xlink"
     xmlns:gadfly="http://www.gadflyjl.org/ns"
     version="1.2"
     width="177.8mm" height="101.6mm" viewBox="0 0 177.8 101.6"
     stroke="none"
     fill="#000000"
     stroke-width="0.3"
     font-size="3.88"
>
<defs>
  <marker id="arrow" markerWidth="15" markerHeight="7" refX="5" refY="3.5" orient="auto" markerUnits="strokeWidth">
    <path d="M0,0 L15,3.5 L0,7 z" stroke="context-stroke" fill="context-stroke"/>
  </marker>
</defs>
<g class="plotroot xscalable yscalable" id="img-f537cefe-1">
  <g font-size="3.88" font-family="'PT Sans','Helvetica Neue','Helvetica',sans-serif" fill="#564A55" stroke="#000000" stroke-opacity="0.000" id="img-f537cefe-2">
    <g transform="translate(92.75,89.99)">
      <g class="primitive">
        <text text-anchor="middle" dy="0.6em">Parametric bootstrap estimates of σ</text>
      </g>
    </g>
  </g>
  <g class="guide xlabels" font-size="2.82" font-family="'PT Sans Caption','Helvetica Neue','Helvetica',sans-serif" fill="#6C606B" id="img-f537cefe-3">
    <g transform="translate(14.69,83.32)">
      <g class="primitive">
        <text text-anchor="middle" dy="0.6em">0</text>
      </g>
    </g>
    <g transform="translate(45.91,83.32)">
      <g class="primitive">
        <text text-anchor="middle" dy="0.6em">20</text>
      </g>
    </g>
    <g transform="translate(77.14,83.32)">
      <g class="primitive">
        <text text-anchor="middle" dy="0.6em">40</text>
      </g>
    </g>
    <g transform="translate(108.36,83.32)">
      <g class="primitive">
        <text text-anchor="middle" dy="0.6em">60</text>
      </g>
    </g>
    <g transform="translate(139.58,83.32)">
      <g class="primitive">
        <text text-anchor="middle" dy="0.6em">80</text>
      </g>
    </g>
    <g transform="translate(170.8,83.32)">
      <g class="primitive">
        <text text-anchor="middle" dy="0.6em">100</text>
      </g>
    </g>
  </g>
  <g clip-path="url(#img-f537cefe-4)">
    <g id="img-f537cefe-5">
      <g pointer-events="visible" stroke-width="0.3" fill="#000000" fill-opacity="0.000" stroke="#000000" stroke-opacity="0.000" class="guide background" id="img-f537cefe-6">
        <g transform="translate(92.75,43.66)" id="img-f537cefe-7">
          <path d="M-80.05,-38.66 L 80.05 -38.66 80.05 38.66 -80.05 38.66 z" class="primitive"/>
        </g>
      </g>
      <g class="guide ygridlines xfixed" stroke-dasharray="0.5,0.5" stroke-width="0.2" stroke="#D0D0E0" id="img-f537cefe-8">
        <g transform="translate(92.75,80.32)" id="img-f537cefe-9">
          <path fill="none" d="M-80.05,0 L 80.05 0" class="primitive"/>
        </g>
        <g transform="translate(92.75,68.1)" id="img-f537cefe-10">
          <path fill="none" d="M-80.05,0 L 80.05 0" class="primitive"/>
        </g>
        <g transform="translate(92.75,55.88)" id="img-f537cefe-11">
          <path fill="none" d="M-80.05,0 L 80.05 0" class="primitive"/>
        </g>
        <g transform="translate(92.75,43.66)" id="img-f537cefe-12">
          <path fill="none" d="M-80.05,0 L 80.05 0" class="primitive"/>
        </g>
        <g transform="translate(92.75,31.44)" id="img-f537cefe-13">
          <path fill="none" d="M-80.05,0 L 80.05 0" class="primitive"/>
        </g>
        <g transform="translate(92.75,19.22)" id="img-f537cefe-14">
          <path fill="none" d="M-80.05,0 L 80.05 0" class="primitive"/>
        </g>
        <g transform="translate(92.75,7)" id="img-f537cefe-15">
          <path fill="none" d="M-80.05,0 L 80.05 0" class="primitive"/>
        </g>
      </g>
      <g class="guide xgridlines yfixed" stroke-dasharray="0.5,0.5" stroke-width="0.2" stroke="#D0D0E0" id="img-f537cefe-16">
        <g transform="translate(14.69,43.66)" id="img-f537cefe-17">
          <path fill="none" d="M0,-38.66 L 0 38.66" class="primitive"/>
        </g>
        <g transform="translate(45.91,43.66)" id="img-f537cefe-18">
          <path fill="none" d="M0,-38.66 L 0 38.66" class="primitive"/>
        </g>
        <g transform="translate(77.14,43.66)" id="img-f537cefe-19">
          <path fill="none" d="M0,-38.66 L 0 38.66" class="primitive"/>
        </g>
        <g transform="translate(108.36,43.66)" id="img-f537cefe-20">
          <path fill="none" d="M0,-38.66 L 0 38.66" class="primitive"/>
        </g>
        <g transform="translate(139.58,43.66)" id="img-f537cefe-21">
          <path fill="none" d="M0,-38.66 L 0 38.66" class="primitive"/>
        </g>
        <g transform="translate(170.8,43.66)" id="img-f537cefe-22">
          <path fill="none" d="M0,-38.66 L 0 38.66" class="primitive"/>
        </g>
      </g>
      <g class="plotpanel" id="img-f537cefe-23">
        <metadata>
          <boundingbox value="12.693333333333328mm 5.0mm 160.10666666666665mm 77.315mm"/>
          <unitbox value="-1.2811752647762216 0.06163677282957103 102.56235052955245 -0.06327354565914206"/>
        </metadata>
        <g stroke-width="0.3" fill="#000000" fill-opacity="0.000" class="geometry" id="img-f537cefe-24">
          <g class="color_LCHab{Float32}(70.0f0,60.0f0,240.0f0)" stroke-dasharray="none" stroke="#00BFFF" id="img-f537cefe-25">
            <g transform="translate(93.8,60.29)" id="img-f537cefe-26">
              <path fill="none" d="M-47.45,20.02 L -47.08 20.02 -46.7 20.02 -46.33 20.02 -45.96 20.02 -45.59 20.02 -45.22 20.02 -44.84 20.02 -44.47 20.02 -44.1 20.01 -43.73 20.01 -43.35 20 -42.98 20 -42.61 19.99 -42.24 19.98 -41.87 19.97 -41.49 19.96 -41.12 19.95 -40.75 19.93 -40.38 19.92 -40.01 19.89 -39.63 19.86 -39.26 19.82 -38.89 19.77 -38.52 19.72 -38.14 19.68 -37.77 19.63 -37.4 19.59 -37.03 19.55 -36.66 19.52 -36.28 19.5 -35.91 19.48 -35.54 19.45 -35.17 19.42 -34.8 19.38 -34.42 19.32 -34.05 19.25 -33.68 19.15 -33.31 19.03 -32.93 18.89 -32.56 18.72 -32.19 18.54 -31.82 18.34 -31.45 18.14 -31.07 17.92 -30.7 17.7 -30.33 17.46 -29.96 17.22 -29.59 16.97 -29.21 16.71 -28.84 16.43 -28.47 16.12 -28.1 15.79 -27.72 15.42 -27.35 15.02 -26.98 14.57 -26.61 14.08 -26.24 13.54 -25.86 12.97 -25.49 12.36 -25.12 11.71 -24.75 11.03 -24.38 10.3 -24 9.53 -23.63 8.71 -23.26 7.83 -22.89 6.9 -22.51 5.92 -22.14 4.91 -21.77 3.88 -21.4 2.84 -21.03 1.82 -20.65 0.79 -20.28 -0.24 -19.91 -1.29 -19.54 -2.39 -19.17 -3.55 -18.79 -4.8 -18.42 -6.15 -18.05 -7.58 -17.68 -9.11 -17.3 -10.71 -16.93 -12.38 -16.56 -14.1 -16.19 -15.86 -15.82 -17.63 -15.44 -19.41 -15.07 -21.17 -14.7 -22.89 -14.33 -24.56 -13.96 -26.14 -13.58 -27.63 -13.21 -29.02 -12.84 -30.29 -12.47 -31.46 -12.09 -32.53 -11.72 -33.52 -11.35 -34.44 -10.98 -35.31 -10.61 -36.14 -10.23 -36.96 -9.86 -37.79 -9.49 -38.65 -9.12 -39.57 -8.75 -40.55 -8.37 -41.6 -8 -42.71 -7.63 -43.85 -7.26 -45 -6.88 -46.11 -6.51 -47.14 -6.14 -48.04 -5.77 -48.78 -5.4 -49.35 -5.02 -49.76 -4.65 -50.03 -4.28 -50.18 -3.91 -50.26 -3.54 -50.28 -3.16 -50.25 -2.79 -50.17 -2.42 -50.02 -2.05 -49.77 -1.67 -49.39 -1.3 -48.84 -0.93 -48.13 -0.56 -47.24 -0.19 -46.21 0.19 -45.08 0.56 -43.92 0.93 -42.79 1.3 -41.74 1.67 -40.81 2.05 -39.98 2.42 -39.22 2.79 -38.46 3.16 -37.65 3.54 -36.69 3.91 -35.56 4.28 -34.24 4.65 -32.72 5.02 -31.06 5.4 -29.28 5.77 -27.45 6.14 -25.61 6.51 -23.82 6.88 -22.12 7.26 -20.53 7.63 -19.07 8 -17.76 8.37 -16.57 8.75 -15.49 9.12 -14.48 9.49 -13.53 9.86 -12.57 10.23 -11.59 10.61 -10.55 10.98 -9.43 11.35 -8.24 11.72 -6.99 12.09 -5.71 12.47 -4.43 12.84 -3.17 13.21 -1.96 13.58 -0.82 13.96 0.24 14.33 1.23 14.7 2.12 15.07 2.92 15.44 3.64 15.82 4.27 16.19 4.84 16.56 5.37 16.93 5.89 17.3 6.43 17.68 7 18.05 7.64 18.42 8.33 18.79 9.07 19.17 9.84 19.54 10.6 19.91 11.34 20.28 12.02 20.65 12.64 21.03 13.18 21.4 13.65 21.77 14.04 22.14 14.38 22.51 14.68 22.89 14.95 23.26 15.2 23.63 15.45 24 15.71 24.38 15.97 24.75 16.23 25.12 16.48 25.49 16.73 25.86 16.97 26.24 17.2 26.61 17.41 26.98 17.62 27.35 17.81 27.72 17.99 28.1 18.15 28.47 18.3 28.84 18.42 29.21 18.53 29.59 18.62 29.96 18.69 30.33 18.76 30.7 18.82 31.07 18.89 31.45 18.97 31.82 19.07 32.19 19.18 32.56 19.29 32.93 19.41 33.31 19.53 33.68 19.63 34.05 19.72 34.42 19.79 34.8 19.84 35.17 19.88 35.54 19.91 35.91 19.92 36.28 19.93 36.66 19.94 37.03 19.95 37.4 19.95 37.77 19.96 38.14 19.97 38.52 19.97 38.89 19.97 39.26 19.98 39.63 19.98 40.01 19.97 40.38 19.97 40.75 19.97 41.12 19.97 41.49 19.97 41.87 19.98 42.24 19.98 42.61 19.99 42.98 20 43.35 20 43.73 20.01 44.1 20.01 44.47 20.02 44.84 20.02 45.22 20.02 45.59 20.02 45.96 20.02 46.33 20.02 46.7 20.02 47.08 20.02 47.45 20.02" class="primitive"/>
            </g>
          </g>
        </g>
      </g>
    </g>
  </g>
  <g class="guide ylabels" font-size="2.82" font-family="'PT Sans Caption','Helvetica Neue','Helvetica',sans-serif" fill="#6C606B" id="img-f537cefe-27">
    <g transform="translate(11.69,80.32)" id="img-f537cefe-28">
      <g class="primitive">
        <text text-anchor="end" dy="0.35em">0.00</text>
      </g>
    </g>
    <g transform="translate(11.69,68.1)" id="img-f537cefe-29">
      <g class="primitive">
        <text text-anchor="end" dy="0.35em">0.01</text>
      </g>
    </g>
    <g transform="translate(11.69,55.88)" id="img-f537cefe-30">
      <g class="primitive">
        <text text-anchor="end" dy="0.35em">0.02</text>
      </g>
    </g>
    <g transform="translate(11.69,43.66)" id="img-f537cefe-31">
      <g class="primitive">
        <text text-anchor="end" dy="0.35em">0.03</text>
      </g>
    </g>
    <g transform="translate(11.69,31.44)" id="img-f537cefe-32">
      <g class="primitive">
        <text text-anchor="end" dy="0.35em">0.04</text>
      </g>
    </g>
    <g transform="translate(11.69,19.22)" id="img-f537cefe-33">
      <g class="primitive">
        <text text-anchor="end" dy="0.35em">0.05</text>
      </g>
    </g>
    <g transform="translate(11.69,7)" id="img-f537cefe-34">
      <g class="primitive">
        <text text-anchor="end" dy="0.35em">0.06</text>
      </g>
    </g>
  </g>
</g>
<defs>
  <clipPath id="img-f537cefe-4">
    <path d="M12.69,5 L 172.8 5 172.8 82.32 12.69 82.32" />
  </clipPath>
</defs>
</svg>
