<?xml version="1.0" encoding="UTF-8"?>
<svg xmlns="http://www.w3.org/2000/svg"
     xmlns:xlink="http://www.w3.org/1999/xlink"
     xmlns:gadfly="http://www.gadflyjl.org/ns"
     version="1.2"
     width="177.8mm" height="101.6mm" viewBox="0 0 177.8 101.6"
     stroke="none"
     fill="#000000"
     stroke-width="0.3"
     font-size="3.88"
>
<defs>
  <marker id="arrow" markerWidth="15" markerHeight="7" refX="5" refY="3.5" orient="auto" markerUnits="strokeWidth">
    <path d="M0,0 L15,3.5 L0,7 z" stroke="context-stroke" fill="context-stroke"/>
  </marker>
</defs>
<g class="plotroot xscalable yscalable" id="img-8f95ad94-1">
  <g font-size="3.88" font-family="'PT Sans','Helvetica Neue','Helvetica',sans-serif" fill="#564A55" stroke="#000000" stroke-opacity="0.000" id="img-8f95ad94-2">
    <g transform="translate(92.41,89.99)">
      <g class="primitive">
        <text text-anchor="middle" dy="0.6em">Parametric bootstrap samples of correlation of random effects</text>
      </g>
    </g>
  </g>
  <g class="guide xlabels" font-size="2.82" font-family="'PT Sans Caption','Helvetica Neue','Helvetica',sans-serif" fill="#6C606B" id="img-8f95ad94-3">
    <g transform="translate(14.02,83.32)">
      <g class="primitive">
        <text text-anchor="middle" dy="0.6em">-3</text>
      </g>
    </g>
    <g transform="translate(53.22,83.32)">
      <g class="primitive">
        <text text-anchor="middle" dy="0.6em">-2</text>
      </g>
    </g>
    <g transform="translate(92.41,83.32)">
      <g class="primitive">
        <text text-anchor="middle" dy="0.6em">-1</text>
      </g>
    </g>
    <g transform="translate(131.6,83.32)">
      <g class="primitive">
        <text text-anchor="middle" dy="0.6em">0</text>
      </g>
    </g>
    <g transform="translate(170.8,83.32)">
      <g class="primitive">
        <text text-anchor="middle" dy="0.6em">1</text>
      </g>
    </g>
  </g>
  <g clip-path="url(#img-8f95ad94-4)">
    <g id="img-8f95ad94-5">
      <g pointer-events="visible" stroke-width="0.3" fill="#000000" fill-opacity="0.000" stroke="#000000" stroke-opacity="0.000" class="guide background" id="img-8f95ad94-6">
        <g transform="translate(92.41,43.66)" id="img-8f95ad94-7">
          <path d="M-80.39,-38.66 L 80.39 -38.66 80.39 38.66 -80.39 38.66 z" class="primitive"/>
        </g>
      </g>
      <g class="guide ygridlines xfixed" stroke-dasharray="0.5,0.5" stroke-width="0.2" stroke="#D0D0E0" id="img-8f95ad94-8">
        <g transform="translate(92.41,80.32)" id="img-8f95ad94-9">
          <path fill="none" d="M-80.39,0 L 80.39 0" class="primitive"/>
        </g>
        <g transform="translate(92.41,61.99)" id="img-8f95ad94-10">
          <path fill="none" d="M-80.39,0 L 80.39 0" class="primitive"/>
        </g>
        <g transform="translate(92.41,43.66)" id="img-8f95ad94-11">
          <path fill="none" d="M-80.39,0 L 80.39 0" class="primitive"/>
        </g>
        <g transform="translate(92.41,25.33)" id="img-8f95ad94-12">
          <path fill="none" d="M-80.39,0 L 80.39 0" class="primitive"/>
        </g>
        <g transform="translate(92.41,7)" id="img-8f95ad94-13">
          <path fill="none" d="M-80.39,0 L 80.39 0" class="primitive"/>
        </g>
      </g>
      <g class="guide xgridlines yfixed" stroke-dasharray="0.5,0.5" stroke-width="0.2" stroke="#D0D0E0" id="img-8f95ad94-14">
        <g transform="translate(14.02,43.66)" id="img-8f95ad94-15">
          <path fill="none" d="M0,-38.66 L 0 38.66" class="primitive"/>
        </g>
        <g transform="translate(53.22,43.66)" id="img-8f95ad94-16">
          <path fill="none" d="M0,-38.66 L 0 38.66" class="primitive"/>
        </g>
        <g transform="translate(92.41,43.66)" id="img-8f95ad94-17">
          <path fill="none" d="M0,-38.66 L 0 38.66" class="primitive"/>
        </g>
        <g transform="translate(131.6,43.66)" id="img-8f95ad94-18">
          <path fill="none" d="M0,-38.66 L 0 38.66" class="primitive"/>
        </g>
        <g transform="translate(170.8,43.66)" id="img-8f95ad94-19">
          <path fill="none" d="M0,-38.66 L 0 38.66" class="primitive"/>
        </g>
      </g>
      <g class="plotpanel" id="img-8f95ad94-20">
        <metadata>
          <boundingbox value="12.02000000000001mm 5.0mm 160.77999999999997mm 77.315mm"/>
          <unitbox value="-3.0510269166985586 410.91181886380684 4.102053833397117 -421.82363772761374"/>
        </metadata>
        <g shape-rendering="crispEdges" stroke-width="0.3" id="img-8f95ad94-21">
          <g class="geometry" fill-opacity="1" stroke="#000000" stroke-opacity="0.000" fill="#00BFFF" id="img-8f95ad94-22">
            <g transform="translate(92.67,79.86)" id="img-8f95ad94-23">
              <path d="M-0.29,-0.46 L 0.29 -0.46 0.29 0.46 -0.29 0.46 z" class="primitive"/>
            </g>
            <g transform="translate(93.19,80.32)" id="img-8f95ad94-24">
              <path d="M-0.29,-0 L 0.29 -0 0.29 0 -0.29 0 z" class="primitive"/>
            </g>
            <g transform="translate(93.72,80.32)" id="img-8f95ad94-25">
              <path d="M-0.29,-0 L 0.29 -0 0.29 0 -0.29 0 z" class="primitive"/>
            </g>
            <g transform="translate(94.24,80.32)" id="img-8f95ad94-26">
              <path d="M-0.29,-0 L 0.29 -0 0.29 0 -0.29 0 z" class="primitive"/>
            </g>
            <g transform="translate(94.76,80.32)" id="img-8f95ad94-27">
              <path d="M-0.29,-0 L 0.29 -0 0.29 0 -0.29 0 z" class="primitive"/>
            </g>
            <g transform="translate(95.28,80.32)" id="img-8f95ad94-28">
              <path d="M-0.29,-0 L 0.29 -0 0.29 0 -0.29 0 z" class="primitive"/>
            </g>
            <g transform="translate(95.81,80.32)" id="img-8f95ad94-29">
              <path d="M-0.29,-0 L 0.29 -0 0.29 0 -0.29 0 z" class="primitive"/>
            </g>
            <g transform="translate(96.33,80.32)" id="img-8f95ad94-30">
              <path d="M-0.29,-0 L 0.29 -0 0.29 0 -0.29 0 z" class="primitive"/>
            </g>
            <g transform="translate(96.85,80.32)" id="img-8f95ad94-31">
              <path d="M-0.29,-0 L 0.29 -0 0.29 0 -0.29 0 z" class="primitive"/>
            </g>
            <g transform="translate(97.37,80.32)" id="img-8f95ad94-32">
              <path d="M-0.29,-0 L 0.29 -0 0.29 0 -0.29 0 z" class="primitive"/>
            </g>
            <g transform="translate(97.9,80.32)" id="img-8f95ad94-33">
              <path d="M-0.29,-0 L 0.29 -0 0.29 0 -0.29 0 z" class="primitive"/>
            </g>
            <g transform="translate(98.42,80.13)" id="img-8f95ad94-34">
              <path d="M-0.29,-0.18 L 0.29 -0.18 0.29 0.18 -0.29 0.18 z" class="primitive"/>
            </g>
            <g transform="translate(98.94,80.32)" id="img-8f95ad94-35">
              <path d="M-0.29,-0 L 0.29 -0 0.29 0 -0.29 0 z" class="primitive"/>
            </g>
            <g transform="translate(99.47,80.32)" id="img-8f95ad94-36">
              <path d="M-0.29,-0 L 0.29 -0 0.29 0 -0.29 0 z" class="primitive"/>
            </g>
            <g transform="translate(99.99,80.22)" id="img-8f95ad94-37">
              <path d="M-0.29,-0.09 L 0.29 -0.09 0.29 0.09 -0.29 0.09 z" class="primitive"/>
            </g>
            <g transform="translate(100.51,80.13)" id="img-8f95ad94-38">
              <path d="M-0.29,-0.18 L 0.29 -0.18 0.29 0.18 -0.29 0.18 z" class="primitive"/>
            </g>
            <g transform="translate(101.03,80.32)" id="img-8f95ad94-39">
              <path d="M-0.29,-0 L 0.29 -0 0.29 0 -0.29 0 z" class="primitive"/>
            </g>
            <g transform="translate(101.56,79.95)" id="img-8f95ad94-40">
              <path d="M-0.29,-0.37 L 0.29 -0.37 0.29 0.37 -0.29 0.37 z" class="primitive"/>
            </g>
            <g transform="translate(102.08,80.32)" id="img-8f95ad94-41">
              <path d="M-0.29,-0 L 0.29 -0 0.29 0 -0.29 0 z" class="primitive"/>
            </g>
            <g transform="translate(102.6,80.04)" id="img-8f95ad94-42">
              <path d="M-0.29,-0.27 L 0.29 -0.27 0.29 0.27 -0.29 0.27 z" class="primitive"/>
            </g>
            <g transform="translate(103.12,80.22)" id="img-8f95ad94-43">
              <path d="M-0.29,-0.09 L 0.29 -0.09 0.29 0.09 -0.29 0.09 z" class="primitive"/>
            </g>
            <g transform="translate(103.65,80.04)" id="img-8f95ad94-44">
              <path d="M-0.29,-0.27 L 0.29 -0.27 0.29 0.27 -0.29 0.27 z" class="primitive"/>
            </g>
            <g transform="translate(104.17,79.95)" id="img-8f95ad94-45">
              <path d="M-0.29,-0.37 L 0.29 -0.37 0.29 0.37 -0.29 0.37 z" class="primitive"/>
            </g>
            <g transform="translate(104.69,79.77)" id="img-8f95ad94-46">
              <path d="M-0.29,-0.55 L 0.29 -0.55 0.29 0.55 -0.29 0.55 z" class="primitive"/>
            </g>
            <g transform="translate(105.21,79.67)" id="img-8f95ad94-47">
              <path d="M-0.29,-0.64 L 0.29 -0.64 0.29 0.64 -0.29 0.64 z" class="primitive"/>
            </g>
            <g transform="translate(105.74,79.49)" id="img-8f95ad94-48">
              <path d="M-0.29,-0.82 L 0.29 -0.82 0.29 0.82 -0.29 0.82 z" class="primitive"/>
            </g>
            <g transform="translate(106.26,79.49)" id="img-8f95ad94-49">
              <path d="M-0.29,-0.82 L 0.29 -0.82 0.29 0.82 -0.29 0.82 z" class="primitive"/>
            </g>
            <g transform="translate(106.78,79.86)" id="img-8f95ad94-50">
              <path d="M-0.29,-0.46 L 0.29 -0.46 0.29 0.46 -0.29 0.46 z" class="primitive"/>
            </g>
            <g transform="translate(107.3,79.31)" id="img-8f95ad94-51">
              <path d="M-0.29,-1.01 L 0.29 -1.01 0.29 1.01 -0.29 1.01 z" class="primitive"/>
            </g>
            <g transform="translate(107.83,79.22)" id="img-8f95ad94-52">
              <path d="M-0.29,-1.1 L 0.29 -1.1 0.29 1.1 -0.29 1.1 z" class="primitive"/>
            </g>
            <g transform="translate(108.35,78.57)" id="img-8f95ad94-53">
              <path d="M-0.29,-1.74 L 0.29 -1.74 0.29 1.74 -0.29 1.74 z" class="primitive"/>
            </g>
            <g transform="translate(108.87,79.49)" id="img-8f95ad94-54">
              <path d="M-0.29,-0.82 L 0.29 -0.82 0.29 0.82 -0.29 0.82 z" class="primitive"/>
            </g>
            <g transform="translate(109.39,78.67)" id="img-8f95ad94-55">
              <path d="M-0.29,-1.65 L 0.29 -1.65 0.29 1.65 -0.29 1.65 z" class="primitive"/>
            </g>
            <g transform="translate(109.92,78.3)" id="img-8f95ad94-56">
              <path d="M-0.29,-2.02 L 0.29 -2.02 0.29 2.02 -0.29 2.02 z" class="primitive"/>
            </g>
            <g transform="translate(110.44,78.02)" id="img-8f95ad94-57">
              <path d="M-0.29,-2.29 L 0.29 -2.29 0.29 2.29 -0.29 2.29 z" class="primitive"/>
            </g>
            <g transform="translate(110.96,78.02)" id="img-8f95ad94-58">
              <path d="M-0.29,-2.29 L 0.29 -2.29 0.29 2.29 -0.29 2.29 z" class="primitive"/>
            </g>
            <g transform="translate(111.48,78.21)" id="img-8f95ad94-59">
              <path d="M-0.29,-2.11 L 0.29 -2.11 0.29 2.11 -0.29 2.11 z" class="primitive"/>
            </g>
            <g transform="translate(112.01,77.38)" id="img-8f95ad94-60">
              <path d="M-0.29,-2.93 L 0.29 -2.93 0.29 2.93 -0.29 2.93 z" class="primitive"/>
            </g>
            <g transform="translate(112.53,78.12)" id="img-8f95ad94-61">
              <path d="M-0.29,-2.2 L 0.29 -2.2 0.29 2.2 -0.29 2.2 z" class="primitive"/>
            </g>
            <g transform="translate(113.05,77.84)" id="img-8f95ad94-62">
              <path d="M-0.29,-2.47 L 0.29 -2.47 0.29 2.47 -0.29 2.47 z" class="primitive"/>
            </g>
            <g transform="translate(113.58,75.82)" id="img-8f95ad94-63">
              <path d="M-0.29,-4.49 L 0.29 -4.49 0.29 4.49 -0.29 4.49 z" class="primitive"/>
            </g>
            <g transform="translate(114.1,76.47)" id="img-8f95ad94-64">
              <path d="M-0.29,-3.85 L 0.29 -3.85 0.29 3.85 -0.29 3.85 z" class="primitive"/>
            </g>
            <g transform="translate(114.62,75.64)" id="img-8f95ad94-65">
              <path d="M-0.29,-4.67 L 0.29 -4.67 0.29 4.67 -0.29 4.67 z" class="primitive"/>
            </g>
            <g transform="translate(115.14,76.47)" id="img-8f95ad94-66">
              <path d="M-0.29,-3.85 L 0.29 -3.85 0.29 3.85 -0.29 3.85 z" class="primitive"/>
            </g>
            <g transform="translate(115.67,75.55)" id="img-8f95ad94-67">
              <path d="M-0.29,-4.77 L 0.29 -4.77 0.29 4.77 -0.29 4.77 z" class="primitive"/>
            </g>
            <g transform="translate(116.19,75.09)" id="img-8f95ad94-68">
              <path d="M-0.29,-5.22 L 0.29 -5.22 0.29 5.22 -0.29 5.22 z" class="primitive"/>
            </g>
            <g transform="translate(116.71,73.9)" id="img-8f95ad94-69">
              <path d="M-0.29,-6.42 L 0.29 -6.42 0.29 6.42 -0.29 6.42 z" class="primitive"/>
            </g>
            <g transform="translate(117.23,75.37)" id="img-8f95ad94-70">
              <path d="M-0.29,-4.95 L 0.29 -4.95 0.29 4.95 -0.29 4.95 z" class="primitive"/>
            </g>
            <g transform="translate(117.76,73.72)" id="img-8f95ad94-71">
              <path d="M-0.29,-6.6 L 0.29 -6.6 0.29 6.6 -0.29 6.6 z" class="primitive"/>
            </g>
            <g transform="translate(118.28,72.8)" id="img-8f95ad94-72">
              <path d="M-0.29,-7.51 L 0.29 -7.51 0.29 7.51 -0.29 7.51 z" class="primitive"/>
            </g>
            <g transform="translate(118.8,72.8)" id="img-8f95ad94-73">
              <path d="M-0.29,-7.51 L 0.29 -7.51 0.29 7.51 -0.29 7.51 z" class="primitive"/>
            </g>
            <g transform="translate(119.32,73.44)" id="img-8f95ad94-74">
              <path d="M-0.29,-6.87 L 0.29 -6.87 0.29 6.87 -0.29 6.87 z" class="primitive"/>
            </g>
            <g transform="translate(119.85,72.43)" id="img-8f95ad94-75">
              <path d="M-0.29,-7.88 L 0.29 -7.88 0.29 7.88 -0.29 7.88 z" class="primitive"/>
            </g>
            <g transform="translate(120.37,73.35)" id="img-8f95ad94-76">
              <path d="M-0.29,-6.96 L 0.29 -6.96 0.29 6.96 -0.29 6.96 z" class="primitive"/>
            </g>
            <g transform="translate(120.89,74.27)" id="img-8f95ad94-77">
              <path d="M-0.29,-6.05 L 0.29 -6.05 0.29 6.05 -0.29 6.05 z" class="primitive"/>
            </g>
            <g transform="translate(121.41,71.52)" id="img-8f95ad94-78">
              <path d="M-0.29,-8.8 L 0.29 -8.8 0.29 8.8 -0.29 8.8 z" class="primitive"/>
            </g>
            <g transform="translate(121.94,71.7)" id="img-8f95ad94-79">
              <path d="M-0.29,-8.61 L 0.29 -8.61 0.29 8.61 -0.29 8.61 z" class="primitive"/>
            </g>
            <g transform="translate(122.46,71.06)" id="img-8f95ad94-80">
              <path d="M-0.29,-9.26 L 0.29 -9.26 0.29 9.26 -0.29 9.26 z" class="primitive"/>
            </g>
            <g transform="translate(122.98,71.61)" id="img-8f95ad94-81">
              <path d="M-0.29,-8.71 L 0.29 -8.71 0.29 8.71 -0.29 8.71 z" class="primitive"/>
            </g>
            <g transform="translate(123.5,71.06)" id="img-8f95ad94-82">
              <path d="M-0.29,-9.26 L 0.29 -9.26 0.29 9.26 -0.29 9.26 z" class="primitive"/>
            </g>
            <g transform="translate(124.03,69.32)" id="img-8f95ad94-83">
              <path d="M-0.29,-11 L 0.29 -11 0.29 11 -0.29 11 z" class="primitive"/>
            </g>
            <g transform="translate(124.55,69.87)" id="img-8f95ad94-84">
              <path d="M-0.29,-10.45 L 0.29 -10.45 0.29 10.45 -0.29 10.45 z" class="primitive"/>
            </g>
            <g transform="translate(125.07,69.78)" id="img-8f95ad94-85">
              <path d="M-0.29,-10.54 L 0.29 -10.54 0.29 10.54 -0.29 10.54 z" class="primitive"/>
            </g>
            <g transform="translate(125.6,69.23)" id="img-8f95ad94-86">
              <path d="M-0.29,-11.09 L 0.29 -11.09 0.29 11.09 -0.29 11.09 z" class="primitive"/>
            </g>
            <g transform="translate(126.12,69.59)" id="img-8f95ad94-87">
              <path d="M-0.29,-10.72 L 0.29 -10.72 0.29 10.72 -0.29 10.72 z" class="primitive"/>
            </g>
            <g transform="translate(126.64,69.13)" id="img-8f95ad94-88">
              <path d="M-0.29,-11.18 L 0.29 -11.18 0.29 11.18 -0.29 11.18 z" class="primitive"/>
            </g>
            <g transform="translate(127.16,70.05)" id="img-8f95ad94-89">
              <path d="M-0.29,-10.26 L 0.29 -10.26 0.29 10.26 -0.29 10.26 z" class="primitive"/>
            </g>
            <g transform="translate(127.69,67.58)" id="img-8f95ad94-90">
              <path d="M-0.29,-12.74 L 0.29 -12.74 0.29 12.74 -0.29 12.74 z" class="primitive"/>
            </g>
            <g transform="translate(128.21,67.39)" id="img-8f95ad94-91">
              <path d="M-0.29,-12.92 L 0.29 -12.92 0.29 12.92 -0.29 12.92 z" class="primitive"/>
            </g>
            <g transform="translate(128.73,68.58)" id="img-8f95ad94-92">
              <path d="M-0.29,-11.73 L 0.29 -11.73 0.29 11.73 -0.29 11.73 z" class="primitive"/>
            </g>
            <g transform="translate(129.25,66.2)" id="img-8f95ad94-93">
              <path d="M-0.29,-14.11 L 0.29 -14.11 0.29 14.11 -0.29 14.11 z" class="primitive"/>
            </g>
            <g transform="translate(129.78,68.22)" id="img-8f95ad94-94">
              <path d="M-0.29,-12.1 L 0.29 -12.1 0.29 12.1 -0.29 12.1 z" class="primitive"/>
            </g>
            <g transform="translate(130.3,66.84)" id="img-8f95ad94-95">
              <path d="M-0.29,-13.47 L 0.29 -13.47 0.29 13.47 -0.29 13.47 z" class="primitive"/>
            </g>
            <g transform="translate(130.82,68.4)" id="img-8f95ad94-96">
              <path d="M-0.29,-11.91 L 0.29 -11.91 0.29 11.91 -0.29 11.91 z" class="primitive"/>
            </g>
            <g transform="translate(131.34,66.84)" id="img-8f95ad94-97">
              <path d="M-0.29,-13.47 L 0.29 -13.47 0.29 13.47 -0.29 13.47 z" class="primitive"/>
            </g>
            <g transform="translate(131.87,68.86)" id="img-8f95ad94-98">
              <path d="M-0.29,-11.46 L 0.29 -11.46 0.29 11.46 -0.29 11.46 z" class="primitive"/>
            </g>
            <g transform="translate(132.39,68.22)" id="img-8f95ad94-99">
              <path d="M-0.29,-12.1 L 0.29 -12.1 0.29 12.1 -0.29 12.1 z" class="primitive"/>
            </g>
            <g transform="translate(132.91,67.67)" id="img-8f95ad94-100">
              <path d="M-0.29,-12.65 L 0.29 -12.65 0.29 12.65 -0.29 12.65 z" class="primitive"/>
            </g>
            <g transform="translate(133.43,66.48)" id="img-8f95ad94-101">
              <path d="M-0.29,-13.84 L 0.29 -13.84 0.29 13.84 -0.29 13.84 z" class="primitive"/>
            </g>
            <g transform="translate(133.96,67.58)" id="img-8f95ad94-102">
              <path d="M-0.29,-12.74 L 0.29 -12.74 0.29 12.74 -0.29 12.74 z" class="primitive"/>
            </g>
            <g transform="translate(134.48,68.49)" id="img-8f95ad94-103">
              <path d="M-0.29,-11.82 L 0.29 -11.82 0.29 11.82 -0.29 11.82 z" class="primitive"/>
            </g>
            <g transform="translate(135,66.29)" id="img-8f95ad94-104">
              <path d="M-0.29,-14.02 L 0.29 -14.02 0.29 14.02 -0.29 14.02 z" class="primitive"/>
            </g>
            <g transform="translate(135.52,67.94)" id="img-8f95ad94-105">
              <path d="M-0.29,-12.37 L 0.29 -12.37 0.29 12.37 -0.29 12.37 z" class="primitive"/>
            </g>
            <g transform="translate(136.05,67.48)" id="img-8f95ad94-106">
              <path d="M-0.29,-12.83 L 0.29 -12.83 0.29 12.83 -0.29 12.83 z" class="primitive"/>
            </g>
            <g transform="translate(136.57,66.39)" id="img-8f95ad94-107">
              <path d="M-0.29,-13.93 L 0.29 -13.93 0.29 13.93 -0.29 13.93 z" class="primitive"/>
            </g>
            <g transform="translate(137.09,67.94)" id="img-8f95ad94-108">
              <path d="M-0.29,-12.37 L 0.29 -12.37 0.29 12.37 -0.29 12.37 z" class="primitive"/>
            </g>
            <g transform="translate(137.61,66.94)" id="img-8f95ad94-109">
              <path d="M-0.29,-13.38 L 0.29 -13.38 0.29 13.38 -0.29 13.38 z" class="primitive"/>
            </g>
            <g transform="translate(138.14,67.85)" id="img-8f95ad94-110">
              <path d="M-0.29,-12.46 L 0.29 -12.46 0.29 12.46 -0.29 12.46 z" class="primitive"/>
            </g>
            <g transform="translate(138.66,68.03)" id="img-8f95ad94-111">
              <path d="M-0.29,-12.28 L 0.29 -12.28 0.29 12.28 -0.29 12.28 z" class="primitive"/>
            </g>
            <g transform="translate(139.18,69.23)" id="img-8f95ad94-112">
              <path d="M-0.29,-11.09 L 0.29 -11.09 0.29 11.09 -0.29 11.09 z" class="primitive"/>
            </g>
            <g transform="translate(139.71,69.41)" id="img-8f95ad94-113">
              <path d="M-0.29,-10.91 L 0.29 -10.91 0.29 10.91 -0.29 10.91 z" class="primitive"/>
            </g>
            <g transform="translate(140.23,69.04)" id="img-8f95ad94-114">
              <path d="M-0.29,-11.27 L 0.29 -11.27 0.29 11.27 -0.29 11.27 z" class="primitive"/>
            </g>
            <g transform="translate(140.75,67.3)" id="img-8f95ad94-115">
              <path d="M-0.29,-13.01 L 0.29 -13.01 0.29 13.01 -0.29 13.01 z" class="primitive"/>
            </g>
            <g transform="translate(141.27,67.67)" id="img-8f95ad94-116">
              <path d="M-0.29,-12.65 L 0.29 -12.65 0.29 12.65 -0.29 12.65 z" class="primitive"/>
            </g>
            <g transform="translate(141.8,68.58)" id="img-8f95ad94-117">
              <path d="M-0.29,-11.73 L 0.29 -11.73 0.29 11.73 -0.29 11.73 z" class="primitive"/>
            </g>
            <g transform="translate(142.32,70.23)" id="img-8f95ad94-118">
              <path d="M-0.29,-10.08 L 0.29 -10.08 0.29 10.08 -0.29 10.08 z" class="primitive"/>
            </g>
            <g transform="translate(142.84,68.86)" id="img-8f95ad94-119">
              <path d="M-0.29,-11.46 L 0.29 -11.46 0.29 11.46 -0.29 11.46 z" class="primitive"/>
            </g>
            <g transform="translate(143.36,67.94)" id="img-8f95ad94-120">
              <path d="M-0.29,-12.37 L 0.29 -12.37 0.29 12.37 -0.29 12.37 z" class="primitive"/>
            </g>
            <g transform="translate(143.89,69.59)" id="img-8f95ad94-121">
              <path d="M-0.29,-10.72 L 0.29 -10.72 0.29 10.72 -0.29 10.72 z" class="primitive"/>
            </g>
            <g transform="translate(144.41,70.69)" id="img-8f95ad94-122">
              <path d="M-0.29,-9.62 L 0.29 -9.62 0.29 9.62 -0.29 9.62 z" class="primitive"/>
            </g>
            <g transform="translate(144.93,68.22)" id="img-8f95ad94-123">
              <path d="M-0.29,-12.1 L 0.29 -12.1 0.29 12.1 -0.29 12.1 z" class="primitive"/>
            </g>
            <g transform="translate(145.45,71.15)" id="img-8f95ad94-124">
              <path d="M-0.29,-9.16 L 0.29 -9.16 0.29 9.16 -0.29 9.16 z" class="primitive"/>
            </g>
            <g transform="translate(145.98,70.97)" id="img-8f95ad94-125">
              <path d="M-0.29,-9.35 L 0.29 -9.35 0.29 9.35 -0.29 9.35 z" class="primitive"/>
            </g>
            <g transform="translate(146.5,70.69)" id="img-8f95ad94-126">
              <path d="M-0.29,-9.62 L 0.29 -9.62 0.29 9.62 -0.29 9.62 z" class="primitive"/>
            </g>
            <g transform="translate(147.02,70.42)" id="img-8f95ad94-127">
              <path d="M-0.29,-9.9 L 0.29 -9.9 0.29 9.9 -0.29 9.9 z" class="primitive"/>
            </g>
            <g transform="translate(147.54,70.78)" id="img-8f95ad94-128">
              <path d="M-0.29,-9.53 L 0.29 -9.53 0.29 9.53 -0.29 9.53 z" class="primitive"/>
            </g>
            <g transform="translate(148.07,71.88)" id="img-8f95ad94-129">
              <path d="M-0.29,-8.43 L 0.29 -8.43 0.29 8.43 -0.29 8.43 z" class="primitive"/>
            </g>
            <g transform="translate(148.59,70.97)" id="img-8f95ad94-130">
              <path d="M-0.29,-9.35 L 0.29 -9.35 0.29 9.35 -0.29 9.35 z" class="primitive"/>
            </g>
            <g transform="translate(149.11,72.43)" id="img-8f95ad94-131">
              <path d="M-0.29,-7.88 L 0.29 -7.88 0.29 7.88 -0.29 7.88 z" class="primitive"/>
            </g>
            <g transform="translate(149.63,71.33)" id="img-8f95ad94-132">
              <path d="M-0.29,-8.98 L 0.29 -8.98 0.29 8.98 -0.29 8.98 z" class="primitive"/>
            </g>
            <g transform="translate(150.16,72.34)" id="img-8f95ad94-133">
              <path d="M-0.29,-7.97 L 0.29 -7.97 0.29 7.97 -0.29 7.97 z" class="primitive"/>
            </g>
            <g transform="translate(150.68,72.34)" id="img-8f95ad94-134">
              <path d="M-0.29,-7.97 L 0.29 -7.97 0.29 7.97 -0.29 7.97 z" class="primitive"/>
            </g>
            <g transform="translate(151.2,73.72)" id="img-8f95ad94-135">
              <path d="M-0.29,-6.6 L 0.29 -6.6 0.29 6.6 -0.29 6.6 z" class="primitive"/>
            </g>
            <g transform="translate(151.73,73.26)" id="img-8f95ad94-136">
              <path d="M-0.29,-7.06 L 0.29 -7.06 0.29 7.06 -0.29 7.06 z" class="primitive"/>
            </g>
            <g transform="translate(152.25,73.81)" id="img-8f95ad94-137">
              <path d="M-0.29,-6.51 L 0.29 -6.51 0.29 6.51 -0.29 6.51 z" class="primitive"/>
            </g>
            <g transform="translate(152.77,75.27)" id="img-8f95ad94-138">
              <path d="M-0.29,-5.04 L 0.29 -5.04 0.29 5.04 -0.29 5.04 z" class="primitive"/>
            </g>
            <g transform="translate(153.29,72.89)" id="img-8f95ad94-139">
              <path d="M-0.29,-7.42 L 0.29 -7.42 0.29 7.42 -0.29 7.42 z" class="primitive"/>
            </g>
            <g transform="translate(153.82,74.27)" id="img-8f95ad94-140">
              <path d="M-0.29,-6.05 L 0.29 -6.05 0.29 6.05 -0.29 6.05 z" class="primitive"/>
            </g>
            <g transform="translate(154.34,73.99)" id="img-8f95ad94-141">
              <path d="M-0.29,-6.32 L 0.29 -6.32 0.29 6.32 -0.29 6.32 z" class="primitive"/>
            </g>
            <g transform="translate(154.86,75.37)" id="img-8f95ad94-142">
              <path d="M-0.29,-4.95 L 0.29 -4.95 0.29 4.95 -0.29 4.95 z" class="primitive"/>
            </g>
            <g transform="translate(155.38,76.28)" id="img-8f95ad94-143">
              <path d="M-0.29,-4.03 L 0.29 -4.03 0.29 4.03 -0.29 4.03 z" class="primitive"/>
            </g>
            <g transform="translate(155.91,74.63)" id="img-8f95ad94-144">
              <path d="M-0.29,-5.68 L 0.29 -5.68 0.29 5.68 -0.29 5.68 z" class="primitive"/>
            </g>
            <g transform="translate(156.43,76.56)" id="img-8f95ad94-145">
              <path d="M-0.29,-3.76 L 0.29 -3.76 0.29 3.76 -0.29 3.76 z" class="primitive"/>
            </g>
            <g transform="translate(156.95,76.01)" id="img-8f95ad94-146">
              <path d="M-0.29,-4.31 L 0.29 -4.31 0.29 4.31 -0.29 4.31 z" class="primitive"/>
            </g>
            <g transform="translate(157.47,75.64)" id="img-8f95ad94-147">
              <path d="M-0.29,-4.67 L 0.29 -4.67 0.29 4.67 -0.29 4.67 z" class="primitive"/>
            </g>
            <g transform="translate(158,76.92)" id="img-8f95ad94-148">
              <path d="M-0.29,-3.39 L 0.29 -3.39 0.29 3.39 -0.29 3.39 z" class="primitive"/>
            </g>
            <g transform="translate(158.52,76.01)" id="img-8f95ad94-149">
              <path d="M-0.29,-4.31 L 0.29 -4.31 0.29 4.31 -0.29 4.31 z" class="primitive"/>
            </g>
            <g transform="translate(159.04,76.74)" id="img-8f95ad94-150">
              <path d="M-0.29,-3.57 L 0.29 -3.57 0.29 3.57 -0.29 3.57 z" class="primitive"/>
            </g>
            <g transform="translate(159.56,75.73)" id="img-8f95ad94-151">
              <path d="M-0.29,-4.58 L 0.29 -4.58 0.29 4.58 -0.29 4.58 z" class="primitive"/>
            </g>
            <g transform="translate(160.09,76.92)" id="img-8f95ad94-152">
              <path d="M-0.29,-3.39 L 0.29 -3.39 0.29 3.39 -0.29 3.39 z" class="primitive"/>
            </g>
            <g transform="translate(160.61,77.75)" id="img-8f95ad94-153">
              <path d="M-0.29,-2.57 L 0.29 -2.57 0.29 2.57 -0.29 2.57 z" class="primitive"/>
            </g>
            <g transform="translate(161.13,77.29)" id="img-8f95ad94-154">
              <path d="M-0.29,-3.02 L 0.29 -3.02 0.29 3.02 -0.29 3.02 z" class="primitive"/>
            </g>
            <g transform="translate(161.65,77.38)" id="img-8f95ad94-155">
              <path d="M-0.29,-2.93 L 0.29 -2.93 0.29 2.93 -0.29 2.93 z" class="primitive"/>
            </g>
            <g transform="translate(162.18,77.66)" id="img-8f95ad94-156">
              <path d="M-0.29,-2.66 L 0.29 -2.66 0.29 2.66 -0.29 2.66 z" class="primitive"/>
            </g>
            <g transform="translate(162.7,77.57)" id="img-8f95ad94-157">
              <path d="M-0.29,-2.75 L 0.29 -2.75 0.29 2.75 -0.29 2.75 z" class="primitive"/>
            </g>
            <g transform="translate(163.22,77.47)" id="img-8f95ad94-158">
              <path d="M-0.29,-2.84 L 0.29 -2.84 0.29 2.84 -0.29 2.84 z" class="primitive"/>
            </g>
            <g transform="translate(163.74,77.02)" id="img-8f95ad94-159">
              <path d="M-0.29,-3.3 L 0.29 -3.3 0.29 3.3 -0.29 3.3 z" class="primitive"/>
            </g>
            <g transform="translate(164.27,77.2)" id="img-8f95ad94-160">
              <path d="M-0.29,-3.12 L 0.29 -3.12 0.29 3.12 -0.29 3.12 z" class="primitive"/>
            </g>
            <g transform="translate(164.79,77.47)" id="img-8f95ad94-161">
              <path d="M-0.29,-2.84 L 0.29 -2.84 0.29 2.84 -0.29 2.84 z" class="primitive"/>
            </g>
            <g transform="translate(165.31,77.75)" id="img-8f95ad94-162">
              <path d="M-0.29,-2.57 L 0.29 -2.57 0.29 2.57 -0.29 2.57 z" class="primitive"/>
            </g>
            <g transform="translate(165.84,78.85)" id="img-8f95ad94-163">
              <path d="M-0.29,-1.47 L 0.29 -1.47 0.29 1.47 -0.29 1.47 z" class="primitive"/>
            </g>
            <g transform="translate(166.36,78.12)" id="img-8f95ad94-164">
              <path d="M-0.29,-2.2 L 0.29 -2.2 0.29 2.2 -0.29 2.2 z" class="primitive"/>
            </g>
            <g transform="translate(166.88,78.85)" id="img-8f95ad94-165">
              <path d="M-0.29,-1.47 L 0.29 -1.47 0.29 1.47 -0.29 1.47 z" class="primitive"/>
            </g>
            <g transform="translate(167.4,78.12)" id="img-8f95ad94-166">
              <path d="M-0.29,-2.2 L 0.29 -2.2 0.29 2.2 -0.29 2.2 z" class="primitive"/>
            </g>
            <g transform="translate(167.93,78.48)" id="img-8f95ad94-167">
              <path d="M-0.29,-1.83 L 0.29 -1.83 0.29 1.83 -0.29 1.83 z" class="primitive"/>
            </g>
            <g transform="translate(168.45,79.22)" id="img-8f95ad94-168">
              <path d="M-0.29,-1.1 L 0.29 -1.1 0.29 1.1 -0.29 1.1 z" class="primitive"/>
            </g>
            <g transform="translate(168.97,78.39)" id="img-8f95ad94-169">
              <path d="M-0.29,-1.92 L 0.29 -1.92 0.29 1.92 -0.29 1.92 z" class="primitive"/>
            </g>
            <g transform="translate(169.49,79.12)" id="img-8f95ad94-170">
              <path d="M-0.29,-1.19 L 0.29 -1.19 0.29 1.19 -0.29 1.19 z" class="primitive"/>
            </g>
            <g transform="translate(170.02,78.85)" id="img-8f95ad94-171">
              <path d="M-0.29,-1.47 L 0.29 -1.47 0.29 1.47 -0.29 1.47 z" class="primitive"/>
            </g>
            <g transform="translate(170.54,51.08)" id="img-8f95ad94-172">
              <path d="M-0.29,-29.23 L 0.29 -29.23 0.29 29.23 -0.29 29.23 z" class="primitive"/>
            </g>
          </g>
        </g>
      </g>
    </g>
  </g>
  <g class="guide ylabels" font-size="2.82" font-family="'PT Sans Caption','Helvetica Neue','Helvetica',sans-serif" fill="#6C606B" id="img-8f95ad94-173">
    <g transform="translate(11.02,80.32)" id="img-8f95ad94-174">
      <g class="primitive">
        <text text-anchor="end" dy="0.35em">0</text>
      </g>
    </g>
    <g transform="translate(11.02,61.99)" id="img-8f95ad94-175">
      <g class="primitive">
        <text text-anchor="end" dy="0.35em">100</text>
      </g>
    </g>
    <g transform="translate(11.02,43.66)" id="img-8f95ad94-176">
      <g class="primitive">
        <text text-anchor="end" dy="0.35em">200</text>
      </g>
    </g>
    <g transform="translate(11.02,25.33)" id="img-8f95ad94-177">
      <g class="primitive">
        <text text-anchor="end" dy="0.35em">300</text>
      </g>
    </g>
    <g transform="translate(11.02,7)" id="img-8f95ad94-178">
      <g class="primitive">
        <text text-anchor="end" dy="0.35em">400</text>
      </g>
    </g>
  </g>
</g>
<defs>
  <clipPath id="img-8f95ad94-4">
    <path d="M12.02,5 L 172.8 5 172.8 82.32 12.02 82.32" />
  </clipPath>
</defs>
</svg>
