<?xml version="1.0" encoding="UTF-8"?>
<svg xmlns="http://www.w3.org/2000/svg"
     xmlns:xlink="http://www.w3.org/1999/xlink"
     xmlns:gadfly="http://www.gadflyjl.org/ns"
     version="1.2"
     width="152.4mm" height="101.6mm" viewBox="0 0 152.4 101.6"
     stroke="none"
     fill="#000000"
     stroke-width="0.3"
     font-size="3.88"
>
<defs>
  <marker id="arrow" markerWidth="15" markerHeight="7" refX="5" refY="3.5" orient="auto" markerUnits="strokeWidth">
    <path d="M0,0 L15,3.5 L0,7 z" stroke="context-stroke" fill="context-stroke"/>
  </marker>
</defs>
<g class="plotroot xscalable yscalable" id="img-2b098916-1">
  <g font-size="3.88" font-family="'PT Sans','Helvetica Neue','Helvetica',sans-serif" fill="#564A55" stroke="#000000" stroke-opacity="0.000" id="img-2b098916-2">
    <g transform="translate(83.02,89.99)">
      <g class="primitive">
        <text text-anchor="middle" dy="0.6em">Scaled and shifted u₃</text>
      </g>
    </g>
  </g>
  <g class="guide xlabels" font-size="2.82" font-family="'PT Sans Caption','Helvetica Neue','Helvetica',sans-serif" fill="#6C606B" id="img-2b098916-3">
    <g transform="translate(20.63,83.32)">
      <g class="primitive">
        <text text-anchor="middle" dy="0.6em">-5</text>
      </g>
    </g>
    <g transform="translate(83.02,83.32)">
      <g class="primitive">
        <text text-anchor="middle" dy="0.6em">0</text>
      </g>
    </g>
    <g transform="translate(145.4,83.32)">
      <g class="primitive">
        <text text-anchor="middle" dy="0.6em">5</text>
      </g>
    </g>
  </g>
  <g clip-path="url(#img-2b098916-4)">
    <g id="img-2b098916-5">
      <g pointer-events="visible" stroke-width="0.3" fill="#000000" fill-opacity="0.000" stroke="#000000" stroke-opacity="0.000" class="guide background" id="img-2b098916-6">
        <g transform="translate(83.02,43.66)" id="img-2b098916-7">
          <path d="M-64.38,-38.66 L 64.38 -38.66 64.38 38.66 -64.38 38.66 z" class="primitive"/>
        </g>
      </g>
      <g class="guide ygridlines xfixed" stroke-dasharray="0.5,0.5" stroke-width="0.2" stroke="#D0D0E0" id="img-2b098916-8">
        <g transform="translate(83.02,80.32)" id="img-2b098916-9">
          <path fill="none" d="M-64.38,0 L 64.38 0" class="primitive"/>
        </g>
        <g transform="translate(83.02,61.99)" id="img-2b098916-10">
          <path fill="none" d="M-64.38,0 L 64.38 0" class="primitive"/>
        </g>
        <g transform="translate(83.02,43.66)" id="img-2b098916-11">
          <path fill="none" d="M-64.38,0 L 64.38 0" class="primitive"/>
        </g>
        <g transform="translate(83.02,25.33)" id="img-2b098916-12">
          <path fill="none" d="M-64.38,0 L 64.38 0" class="primitive"/>
        </g>
        <g transform="translate(83.02,7)" id="img-2b098916-13">
          <path fill="none" d="M-64.38,0 L 64.38 0" class="primitive"/>
        </g>
      </g>
      <g class="guide xgridlines yfixed" stroke-dasharray="0.5,0.5" stroke-width="0.2" stroke="#D0D0E0" id="img-2b098916-14">
        <g transform="translate(20.63,43.66)" id="img-2b098916-15">
          <path fill="none" d="M0,-38.66 L 0 38.66" class="primitive"/>
        </g>
        <g transform="translate(83.02,43.66)" id="img-2b098916-16">
          <path fill="none" d="M0,-38.66 L 0 38.66" class="primitive"/>
        </g>
        <g transform="translate(145.4,43.66)" id="img-2b098916-17">
          <path fill="none" d="M0,-38.66 L 0 38.66" class="primitive"/>
        </g>
      </g>
      <g class="plotpanel" id="img-2b098916-18">
        <metadata>
          <boundingbox value="18.63166666666669mm 5.0mm 128.76833333333332mm 77.315mm"/>
          <unitbox value="-5.1602970839288815 1.310911818863807 10.320594167857763 -0.4218236377276138"/>
        </metadata>
        <g stroke-width="0.3" fill="#000000" fill-opacity="0.000" class="geometry" id="img-2b098916-19">
          <g class="color_LCHab{Float32}(70.0f0,60.0f0,240.0f0)" stroke-dasharray="none" stroke="#00BFFF" id="img-2b098916-20">
            <g transform="translate(83.02,55.62)" id="img-2b098916-21">
              <path fill="none" d="M-62.38,-17.86 L -61.6 -16.62 -60.82 -15.43 -60.04 -14.29 -59.26 -13.19 -58.49 -12.14 -57.71 -11.13 -56.93 -10.17 -56.15 -9.24 -55.37 -8.35 -54.59 -7.5 -53.81 -6.69 -53.03 -5.91 -52.25 -5.17 -51.47 -4.46 -50.69 -3.79 -49.91 -3.14 -49.13 -2.53 -48.35 -1.95 -47.57 -1.39 -46.79 -0.86 -46.01 -0.36 -45.23 0.11 -44.45 0.56 -43.67 0.99 -42.89 1.39 -42.11 1.77 -41.33 2.13 -40.55 2.47 -39.77 2.78 -38.99 3.08 -38.21 3.36 -37.43 3.62 -36.65 3.87 -35.87 4.1 -35.09 4.31 -34.31 4.51 -33.53 4.69 -32.75 4.86 -31.97 5.02 -31.19 5.17 -30.41 5.3 -29.63 5.42 -28.85 5.53 -28.07 5.64 -27.29 5.73 -26.51 5.81 -25.73 5.89 -24.95 5.96 -24.17 6.02 -23.39 6.07 -22.61 6.12 -21.83 6.16 -21.05 6.2 -20.27 6.23 -19.5 6.26 -18.72 6.28 -17.94 6.3 -17.16 6.32 -16.38 6.33 -15.6 6.34 -14.82 6.35 -14.04 6.36 -13.26 6.36 -12.48 6.37 -11.7 6.37 -10.92 6.37 -10.14 6.37 -9.36 6.37 -8.58 6.37 -7.8 6.37 -7.02 6.37 -6.24 6.37 -5.46 6.37 -4.68 6.37 -3.9 6.37 -3.12 6.36 -2.34 6.36 -1.56 6.36 -0.78 6.36 0 6.36 0.78 6.36 1.56 6.36 2.34 6.36 3.12 6.36 3.9 6.36 4.68 6.36 5.46 6.36 6.24 6.35 7.02 6.35 7.8 6.34 8.58 6.33 9.36 6.32 10.14 6.31 10.92 6.29 11.7 6.28 12.48 6.25 13.26 6.23 14.04 6.2 14.82 6.16 15.6 6.12 16.38 6.08 17.16 6.03 17.94 5.97 18.72 5.91 19.5 5.83 20.27 5.75 21.05 5.67 21.83 5.57 22.61 5.46 23.39 5.35 24.17 5.22 24.95 5.08 25.73 4.93 26.51 4.77 27.29 4.59 28.07 4.4 28.85 4.2 29.63 3.98 30.41 3.74 31.19 3.49 31.97 3.22 32.75 2.94 33.53 2.63 34.31 2.3 35.09 1.96 35.87 1.59 36.65 1.2 37.43 0.79 38.21 0.36 38.99 -0.1 39.77 -0.59 40.55 -1.1 41.33 -1.64 42.11 -2.2 42.89 -2.8 43.67 -3.42 44.45 -4.08 45.23 -4.77 46.01 -5.49 46.79 -6.25 47.57 -7.04 48.35 -7.86 49.13 -8.73 49.91 -9.63 50.69 -10.57 51.47 -11.55 52.25 -12.58 53.03 -13.65 53.81 -14.76 54.59 -15.92 55.37 -17.13 56.15 -18.38 56.93 -19.69 57.71 -21.05 58.49 -22.46 59.26 -23.93 60.04 -25.46 60.82 -27.04 61.6 -28.68 62.38 -30.39" class="primitive"/>
            </g>
          </g>
        </g>
      </g>
    </g>
  </g>
  <g class="guide ylabels" font-size="2.82" font-family="'PT Sans Caption','Helvetica Neue','Helvetica',sans-serif" fill="#6C606B" id="img-2b098916-22">
    <g transform="translate(17.63,80.32)" id="img-2b098916-23">
      <g class="primitive">
        <text text-anchor="end" dy="0.35em">0.9</text>
      </g>
    </g>
    <g transform="translate(17.63,61.99)" id="img-2b098916-24">
      <g class="primitive">
        <text text-anchor="end" dy="0.35em">1.0</text>
      </g>
    </g>
    <g transform="translate(17.63,43.66)" id="img-2b098916-25">
      <g class="primitive">
        <text text-anchor="end" dy="0.35em">1.1</text>
      </g>
    </g>
    <g transform="translate(17.63,25.33)" id="img-2b098916-26">
      <g class="primitive">
        <text text-anchor="end" dy="0.35em">1.2</text>
      </g>
    </g>
    <g transform="translate(17.63,7)" id="img-2b098916-27">
      <g class="primitive">
        <text text-anchor="end" dy="0.35em">1.3</text>
      </g>
    </g>
  </g>
  <g font-size="3.88" font-family="'PT Sans','Helvetica Neue','Helvetica',sans-serif" fill="#564A55" stroke="#000000" stroke-opacity="0.000" id="img-2b098916-28">
    <g transform="translate(8.81,41.66)" id="img-2b098916-29">
      <g class="primitive">
        <text text-anchor="middle" dy="0.35em" transform="rotate(-90,0, 2)">Kernel ratio</text>
      </g>
    </g>
  </g>
</g>
<defs>
  <clipPath id="img-2b098916-4">
    <path d="M18.63,5 L 147.4 5 147.4 82.32 18.63 82.32" />
  </clipPath>
</defs>
</svg>
