<?xml version="1.0" encoding="UTF-8"?>
<svg xmlns="http://www.w3.org/2000/svg"
     xmlns:xlink="http://www.w3.org/1999/xlink"
     xmlns:gadfly="http://www.gadflyjl.org/ns"
     version="1.2"
     width="152.4mm" height="101.6mm" viewBox="0 0 152.4 101.6"
     stroke="none"
     fill="#000000"
     stroke-width="0.3"
     font-size="3.88"
>
<defs>
  <marker id="arrow" markerWidth="15" markerHeight="7" refX="5" refY="3.5" orient="auto" markerUnits="strokeWidth">
    <path d="M0,0 L15,3.5 L0,7 z" stroke="context-stroke" fill="context-stroke"/>
  </marker>
</defs>
<g class="plotroot xscalable yscalable" id="img-e4b52b8d-1">
  <g font-size="3.88" font-family="'PT Sans','Helvetica Neue','Helvetica',sans-serif" fill="#564A55" stroke="#000000" stroke-opacity="0.000" id="img-e4b52b8d-2">
    <g transform="translate(82.68,89.99)">
      <g class="primitive">
        <text text-anchor="middle" dy="0.6em">u₃</text>
      </g>
    </g>
  </g>
  <g class="guide xlabels" font-size="2.82" font-family="'PT Sans Caption','Helvetica Neue','Helvetica',sans-serif" fill="#6C606B" id="img-e4b52b8d-3">
    <g transform="translate(19.96,83.32)">
      <g class="primitive">
        <text text-anchor="middle" dy="0.6em">-5</text>
      </g>
    </g>
    <g transform="translate(82.68,83.32)">
      <g class="primitive">
        <text text-anchor="middle" dy="0.6em">0</text>
      </g>
    </g>
    <g transform="translate(145.4,83.32)">
      <g class="primitive">
        <text text-anchor="middle" dy="0.6em">5</text>
      </g>
    </g>
  </g>
  <g clip-path="url(#img-e4b52b8d-4)">
    <g id="img-e4b52b8d-5">
      <g pointer-events="visible" stroke-width="0.3" fill="#000000" fill-opacity="0.000" stroke="#000000" stroke-opacity="0.000" class="guide background" id="img-e4b52b8d-6">
        <g transform="translate(82.68,43.66)" id="img-e4b52b8d-7">
          <path d="M-64.72,-38.66 L 64.72 -38.66 64.72 38.66 -64.72 38.66 z" class="primitive"/>
        </g>
      </g>
      <g class="guide ygridlines xfixed" stroke-dasharray="0.5,0.5" stroke-width="0.2" stroke="#D0D0E0" id="img-e4b52b8d-8">
        <g transform="translate(82.68,80.32)" id="img-e4b52b8d-9">
          <path fill="none" d="M-64.72,0 L 64.72 0" class="primitive"/>
        </g>
        <g transform="translate(82.68,61.99)" id="img-e4b52b8d-10">
          <path fill="none" d="M-64.72,0 L 64.72 0" class="primitive"/>
        </g>
        <g transform="translate(82.68,43.66)" id="img-e4b52b8d-11">
          <path fill="none" d="M-64.72,0 L 64.72 0" class="primitive"/>
        </g>
        <g transform="translate(82.68,25.33)" id="img-e4b52b8d-12">
          <path fill="none" d="M-64.72,0 L 64.72 0" class="primitive"/>
        </g>
        <g transform="translate(82.68,7)" id="img-e4b52b8d-13">
          <path fill="none" d="M-64.72,0 L 64.72 0" class="primitive"/>
        </g>
      </g>
      <g class="guide xgridlines yfixed" stroke-dasharray="0.5,0.5" stroke-width="0.2" stroke="#D0D0E0" id="img-e4b52b8d-14">
        <g transform="translate(19.96,43.66)" id="img-e4b52b8d-15">
          <path fill="none" d="M0,-38.66 L 0 38.66" class="primitive"/>
        </g>
        <g transform="translate(82.68,43.66)" id="img-e4b52b8d-16">
          <path fill="none" d="M0,-38.66 L 0 38.66" class="primitive"/>
        </g>
        <g transform="translate(145.4,43.66)" id="img-e4b52b8d-17">
          <path fill="none" d="M0,-38.66 L 0 38.66" class="primitive"/>
        </g>
      </g>
      <g class="plotpanel" id="img-e4b52b8d-18">
        <metadata>
          <boundingbox value="17.958333333333343mm 5.0mm 129.44166666666663mm 77.315mm"/>
          <unitbox value="-5.159436657144755 41.09118188638069 10.31887331428951 -42.18236377276138"/>
        </metadata>
        <g stroke-width="0.3" fill="#000000" fill-opacity="0.000" class="geometry" id="img-e4b52b8d-19">
          <g class="color_LCHab{Float32}(70.0f0,60.0f0,240.0f0)" stroke-dasharray="none" stroke="#00BFFF" id="img-e4b52b8d-20">
            <g transform="translate(82.68,57.64)" id="img-e4b52b8d-21">
              <path fill="none" d="M-62.72,-41.94 L -61.94 -40.6 -61.15 -39.28 -60.37 -37.98 -59.58 -36.68 -58.8 -35.41 -58.02 -34.15 -57.23 -32.9 -56.45 -31.67 -55.66 -30.45 -54.88 -29.25 -54.1 -28.06 -53.31 -26.89 -52.53 -25.73 -51.74 -24.59 -50.96 -23.46 -50.18 -22.35 -49.39 -21.25 -48.61 -20.17 -47.82 -19.1 -47.04 -18.05 -46.26 -17.01 -45.47 -15.99 -44.69 -14.98 -43.9 -13.99 -43.12 -13.02 -42.34 -12.05 -41.55 -11.11 -40.77 -10.18 -39.98 -9.26 -39.2 -8.36 -38.42 -7.48 -37.63 -6.61 -36.85 -5.75 -36.06 -4.91 -35.28 -4.09 -34.5 -3.28 -33.71 -2.49 -32.93 -1.71 -32.14 -0.95 -31.36 -0.2 -30.58 0.53 -29.79 1.25 -29.01 1.95 -28.22 2.64 -27.44 3.31 -26.66 3.96 -25.87 4.6 -25.09 5.22 -24.3 5.83 -23.52 6.42 -22.74 7 -21.95 7.56 -21.17 8.11 -20.38 8.64 -19.6 9.15 -18.82 9.65 -18.03 10.13 -17.25 10.6 -16.46 11.05 -15.68 11.49 -14.9 11.91 -14.11 12.31 -13.33 12.7 -12.54 13.08 -11.76 13.44 -10.98 13.78 -10.19 14.1 -9.41 14.41 -8.62 14.71 -7.84 14.99 -7.06 15.25 -6.27 15.5 -5.49 15.73 -4.7 15.95 -3.92 16.15 -3.14 16.33 -2.35 16.5 -1.57 16.65 -0.78 16.79 0 16.91 0.78 17.02 1.57 17.11 2.35 17.18 3.14 17.24 3.92 17.28 4.7 17.31 5.49 17.32 6.27 17.32 7.06 17.29 7.84 17.26 8.62 17.21 9.41 17.14 10.19 17.05 10.98 16.95 11.76 16.84 12.54 16.71 13.33 16.56 14.11 16.4 14.9 16.22 15.68 16.03 16.46 15.82 17.25 15.59 18.03 15.35 18.82 15.09 19.6 14.82 20.38 14.53 21.17 14.23 21.95 13.91 22.74 13.57 23.52 13.22 24.3 12.85 25.09 12.47 25.87 12.07 26.66 11.66 27.44 11.23 28.22 10.78 29.01 10.32 29.79 9.85 30.58 9.36 31.36 8.85 32.14 8.33 32.93 7.79 33.71 7.24 34.5 6.67 35.28 6.08 36.06 5.48 36.85 4.87 37.63 4.24 38.42 3.59 39.2 2.93 39.98 2.25 40.77 1.56 41.55 0.86 42.34 0.13 43.12 -0.61 43.9 -1.36 44.69 -2.13 45.47 -2.91 46.26 -3.71 47.04 -4.52 47.82 -5.35 48.61 -6.2 49.39 -7.06 50.18 -7.93 50.96 -8.82 51.74 -9.73 52.53 -10.65 53.31 -11.58 54.1 -12.53 54.88 -13.5 55.66 -14.48 56.45 -15.47 57.23 -16.48 58.02 -17.51 58.8 -18.55 59.58 -19.61 60.37 -20.68 61.15 -21.76 61.94 -22.86 62.72 -23.98" class="primitive"/>
            </g>
          </g>
        </g>
      </g>
    </g>
  </g>
  <g class="guide ylabels" font-size="2.82" font-family="'PT Sans Caption','Helvetica Neue','Helvetica',sans-serif" fill="#6C606B" id="img-e4b52b8d-22">
    <g transform="translate(16.96,80.32)" id="img-e4b52b8d-23">
      <g class="primitive">
        <text text-anchor="end" dy="0.35em">0</text>
      </g>
    </g>
    <g transform="translate(16.96,61.99)" id="img-e4b52b8d-24">
      <g class="primitive">
        <text text-anchor="end" dy="0.35em">10</text>
      </g>
    </g>
    <g transform="translate(16.96,43.66)" id="img-e4b52b8d-25">
      <g class="primitive">
        <text text-anchor="end" dy="0.35em">20</text>
      </g>
    </g>
    <g transform="translate(16.96,25.33)" id="img-e4b52b8d-26">
      <g class="primitive">
        <text text-anchor="end" dy="0.35em">30</text>
      </g>
    </g>
    <g transform="translate(16.96,7)" id="img-e4b52b8d-27">
      <g class="primitive">
        <text text-anchor="end" dy="0.35em">40</text>
      </g>
    </g>
  </g>
  <g font-size="3.88" font-family="'PT Sans','Helvetica Neue','Helvetica',sans-serif" fill="#564A55" stroke="#000000" stroke-opacity="0.000" id="img-e4b52b8d-28">
    <g transform="translate(8.81,41.66)" id="img-e4b52b8d-29">
      <g class="primitive">
        <text text-anchor="middle" dy="0.35em" transform="rotate(-90,0, 2)">Deviance contribution</text>
      </g>
    </g>
  </g>
</g>
<defs>
  <clipPath id="img-e4b52b8d-4">
    <path d="M17.96,5 L 147.4 5 147.4 82.32 17.96 82.32" />
  </clipPath>
</defs>
</svg>
