<?xml version="1.0" encoding="UTF-8"?>
<svg xmlns="http://www.w3.org/2000/svg"
     xmlns:xlink="http://www.w3.org/1999/xlink"
     xmlns:gadfly="http://www.gadflyjl.org/ns"
     version="1.2"
     width="152.4mm" height="101.6mm" viewBox="0 0 152.4 101.6"
     stroke="none"
     fill="#000000"
     stroke-width="0.3"
     font-size="3.88"
>
<defs>
  <marker id="arrow" markerWidth="15" markerHeight="7" refX="5" refY="3.5" orient="auto" markerUnits="strokeWidth">
    <path d="M0,0 L15,3.5 L0,7 z" stroke="context-stroke" fill="context-stroke"/>
  </marker>
</defs>
<g class="plotroot xscalable yscalable" id="img-cfa3642b-1">
  <g font-size="3.88" font-family="'PT Sans','Helvetica Neue','Helvetica',sans-serif" fill="#564A55" stroke="#000000" stroke-opacity="0.000" id="img-cfa3642b-2">
    <g transform="translate(81.84,89.99)">
      <g class="primitive">
        <text text-anchor="middle" dy="0.6em">Scaled and shifted u₁</text>
      </g>
    </g>
  </g>
  <g class="guide xlabels" font-size="2.82" font-family="'PT Sans Caption','Helvetica Neue','Helvetica',sans-serif" fill="#6C606B" id="img-cfa3642b-3">
    <g transform="translate(18.29,83.32)">
      <g class="primitive">
        <text text-anchor="middle" dy="0.6em">-5</text>
      </g>
    </g>
    <g transform="translate(81.84,83.32)">
      <g class="primitive">
        <text text-anchor="middle" dy="0.6em">0</text>
      </g>
    </g>
    <g transform="translate(145.4,83.32)">
      <g class="primitive">
        <text text-anchor="middle" dy="0.6em">5</text>
      </g>
    </g>
  </g>
  <g clip-path="url(#img-cfa3642b-4)">
    <g id="img-cfa3642b-5">
      <g pointer-events="visible" stroke-width="0.3" fill="#000000" fill-opacity="0.000" stroke="#000000" stroke-opacity="0.000" class="guide background" id="img-cfa3642b-6">
        <g transform="translate(81.84,43.66)" id="img-cfa3642b-7">
          <path d="M-65.56,-38.66 L 65.56 -38.66 65.56 38.66 -65.56 38.66 z" class="primitive"/>
        </g>
      </g>
      <g class="guide ygridlines xfixed" stroke-dasharray="0.5,0.5" stroke-width="0.2" stroke="#D0D0E0" id="img-cfa3642b-8">
        <g transform="translate(81.84,80.31)" id="img-cfa3642b-9">
          <path fill="none" d="M-65.56,0 L 65.56 0" class="primitive"/>
        </g>
        <g transform="translate(81.84,61.99)" id="img-cfa3642b-10">
          <path fill="none" d="M-65.56,0 L 65.56 0" class="primitive"/>
        </g>
        <g transform="translate(81.84,43.66)" id="img-cfa3642b-11">
          <path fill="none" d="M-65.56,0 L 65.56 0" class="primitive"/>
        </g>
        <g transform="translate(81.84,25.33)" id="img-cfa3642b-12">
          <path fill="none" d="M-65.56,0 L 65.56 0" class="primitive"/>
        </g>
        <g transform="translate(81.84,7)" id="img-cfa3642b-13">
          <path fill="none" d="M-65.56,0 L 65.56 0" class="primitive"/>
        </g>
      </g>
      <g class="guide xgridlines yfixed" stroke-dasharray="0.5,0.5" stroke-width="0.2" stroke="#D0D0E0" id="img-cfa3642b-14">
        <g transform="translate(18.29,43.66)" id="img-cfa3642b-15">
          <path fill="none" d="M0,-38.66 L 0 38.66" class="primitive"/>
        </g>
        <g transform="translate(81.84,43.66)" id="img-cfa3642b-16">
          <path fill="none" d="M0,-38.66 L 0 38.66" class="primitive"/>
        </g>
        <g transform="translate(145.4,43.66)" id="img-cfa3642b-17">
          <path fill="none" d="M0,-38.66 L 0 38.66" class="primitive"/>
        </g>
      </g>
      <g class="plotpanel" id="img-cfa3642b-18">
        <metadata>
          <boundingbox value="16.285000000000025mm 5.0mm 131.11499999999998mm 77.315mm"/>
          <unitbox value="-5.157337843684853 4.109118188638068 10.314675687369705 -4.2182363772761375"/>
        </metadata>
        <g stroke-width="0.3" fill="#000000" fill-opacity="0.000" class="geometry" id="img-cfa3642b-19">
          <g class="color_LCHab{Float32}(70.0f0,60.0f0,240.0f0)" stroke-dasharray="none" stroke="#00BFFF" id="img-cfa3642b-20">
            <g transform="translate(81.84,58.91)" id="img-cfa3642b-21">
              <path fill="none" d="M-63.56,-50.56 L -62.76 -46.96 -61.97 -43.63 -61.17 -40.54 -60.38 -37.67 -59.59 -35 -58.79 -32.52 -58 -30.22 -57.2 -28.07 -56.41 -26.06 -55.61 -24.19 -54.82 -22.45 -54.02 -20.82 -53.23 -19.29 -52.43 -17.86 -51.64 -16.53 -50.85 -15.28 -50.05 -14.1 -49.26 -13.01 -48.46 -11.97 -47.67 -11.01 -46.87 -10.1 -46.08 -9.24 -45.28 -8.44 -44.49 -7.69 -43.7 -6.98 -42.9 -6.31 -42.11 -5.68 -41.31 -5.09 -40.52 -4.54 -39.72 -4.02 -38.93 -3.53 -38.13 -3.06 -37.34 -2.63 -36.55 -2.22 -35.75 -1.83 -34.96 -1.47 -34.16 -1.13 -33.37 -0.81 -32.57 -0.51 -31.78 -0.23 -30.98 0.03 -30.19 0.28 -29.4 0.51 -28.6 0.73 -27.81 0.94 -27.01 1.13 -26.22 1.3 -25.42 1.47 -24.63 1.62 -23.83 1.76 -23.04 1.9 -22.25 2.02 -21.45 2.13 -20.66 2.24 -19.86 2.33 -19.07 2.42 -18.27 2.5 -17.48 2.57 -16.68 2.64 -15.89 2.7 -15.09 2.76 -14.3 2.8 -13.51 2.85 -12.71 2.89 -11.92 2.92 -11.12 2.95 -10.33 2.98 -9.53 3 -8.74 3.02 -7.94 3.03 -7.15 3.04 -6.36 3.05 -5.56 3.06 -4.77 3.07 -3.97 3.07 -3.18 3.07 -2.38 3.07 -1.59 3.08 -0.79 3.08 -0 3.08 0.79 3.08 1.59 3.08 2.38 3.08 3.18 3.08 3.97 3.08 4.77 3.09 5.56 3.09 6.36 3.1 7.15 3.11 7.94 3.12 8.74 3.13 9.53 3.15 10.33 3.17 11.12 3.2 11.92 3.22 12.71 3.25 13.51 3.29 14.3 3.33 15.09 3.37 15.89 3.42 16.68 3.47 17.48 3.53 18.27 3.59 19.07 3.66 19.86 3.73 20.66 3.81 21.45 3.89 22.25 3.98 23.04 4.08 23.83 4.18 24.63 4.28 25.42 4.4 26.22 4.52 27.01 4.64 27.81 4.77 28.6 4.91 29.4 5.05 30.19 5.2 30.98 5.36 31.78 5.52 32.57 5.69 33.37 5.86 34.16 6.04 34.96 6.22 35.75 6.41 36.55 6.61 37.34 6.81 38.13 7.01 38.93 7.22 39.72 7.43 40.52 7.65 41.31 7.88 42.11 8.1 42.9 8.33 43.7 8.57 44.49 8.8 45.28 9.04 46.08 9.28 46.87 9.53 47.67 9.78 48.46 10.02 49.26 10.27 50.05 10.53 50.85 10.78 51.64 11.03 52.43 11.28 53.23 11.54 54.02 11.79 54.82 12.04 55.61 12.29 56.41 12.54 57.2 12.79 58 13.04 58.79 13.28 59.59 13.53 60.38 13.77 61.17 14.01 61.97 14.24 62.76 14.48 63.56 14.71" class="primitive"/>
            </g>
          </g>
        </g>
      </g>
    </g>
  </g>
  <g class="guide ylabels" font-size="2.82" font-family="'PT Sans Caption','Helvetica Neue','Helvetica',sans-serif" fill="#6C606B" id="img-cfa3642b-22">
    <g transform="translate(15.28,80.31)" id="img-cfa3642b-23">
      <g class="primitive">
        <text text-anchor="end" dy="0.35em">0</text>
      </g>
    </g>
    <g transform="translate(15.28,61.99)" id="img-cfa3642b-24">
      <g class="primitive">
        <text text-anchor="end" dy="0.35em">1</text>
      </g>
    </g>
    <g transform="translate(15.28,43.66)" id="img-cfa3642b-25">
      <g class="primitive">
        <text text-anchor="end" dy="0.35em">2</text>
      </g>
    </g>
    <g transform="translate(15.28,25.33)" id="img-cfa3642b-26">
      <g class="primitive">
        <text text-anchor="end" dy="0.35em">3</text>
      </g>
    </g>
    <g transform="translate(15.28,7)" id="img-cfa3642b-27">
      <g class="primitive">
        <text text-anchor="end" dy="0.35em">4</text>
      </g>
    </g>
  </g>
  <g font-size="3.88" font-family="'PT Sans','Helvetica Neue','Helvetica',sans-serif" fill="#564A55" stroke="#000000" stroke-opacity="0.000" id="img-cfa3642b-28">
    <g transform="translate(8.81,41.66)" id="img-cfa3642b-29">
      <g class="primitive">
        <text text-anchor="middle" dy="0.35em" transform="rotate(-90,0, 2)">Kernel ratio</text>
      </g>
    </g>
  </g>
</g>
<defs>
  <clipPath id="img-cfa3642b-4">
    <path d="M16.29,5 L 147.4 5 147.4 82.32 16.29 82.32" />
  </clipPath>
</defs>
</svg>
