<?xml version="1.0" encoding="UTF-8"?>
<svg xmlns="http://www.w3.org/2000/svg"
     xmlns:xlink="http://www.w3.org/1999/xlink"
     xmlns:gadfly="http://www.gadflyjl.org/ns"
     version="1.2"
     width="152.4mm" height="101.6mm" viewBox="0 0 152.4 101.6"
     stroke="none"
     fill="#000000"
     stroke-width="0.3"
     font-size="3.88"
>
<defs>
  <marker id="arrow" markerWidth="15" markerHeight="7" refX="5" refY="3.5" orient="auto" markerUnits="strokeWidth">
    <path d="M0,0 L15,3.5 L0,7 z" stroke="context-stroke" fill="context-stroke"/>
  </marker>
</defs>
<g class="plotroot xscalable yscalable" id="img-0c81a24c-1">
  <g font-size="3.88" font-family="'PT Sans','Helvetica Neue','Helvetica',sans-serif" fill="#564A55" stroke="#000000" stroke-opacity="0.000" id="img-0c81a24c-2">
    <g transform="translate(82.68,89.99)">
      <g class="primitive">
        <text text-anchor="middle" dy="0.6em">Scaled and shifted u₃</text>
      </g>
    </g>
  </g>
  <g class="guide xlabels" font-size="2.82" font-family="'PT Sans Caption','Helvetica Neue','Helvetica',sans-serif" fill="#6C606B" id="img-0c81a24c-3">
    <g transform="translate(19.96,83.32)">
      <g class="primitive">
        <text text-anchor="middle" dy="0.6em">-5</text>
      </g>
    </g>
    <g transform="translate(82.68,83.32)">
      <g class="primitive">
        <text text-anchor="middle" dy="0.6em">0</text>
      </g>
    </g>
    <g transform="translate(145.4,83.32)">
      <g class="primitive">
        <text text-anchor="middle" dy="0.6em">5</text>
      </g>
    </g>
  </g>
  <g clip-path="url(#img-0c81a24c-4)">
    <g id="img-0c81a24c-5">
      <g pointer-events="visible" stroke-width="0.3" fill="#000000" fill-opacity="0.000" stroke="#000000" stroke-opacity="0.000" class="guide background" id="img-0c81a24c-6">
        <g transform="translate(82.68,43.66)" id="img-0c81a24c-7">
          <path d="M-64.72,-38.66 L 64.72 -38.66 64.72 38.66 -64.72 38.66 z" class="primitive"/>
        </g>
      </g>
      <g class="guide ygridlines xfixed" stroke-dasharray="0.5,0.5" stroke-width="0.2" stroke="#D0D0E0" id="img-0c81a24c-8">
        <g transform="translate(82.68,80.32)" id="img-0c81a24c-9">
          <path fill="none" d="M-64.72,0 L 64.72 0" class="primitive"/>
        </g>
        <g transform="translate(82.68,65.65)" id="img-0c81a24c-10">
          <path fill="none" d="M-64.72,0 L 64.72 0" class="primitive"/>
        </g>
        <g transform="translate(82.68,50.99)" id="img-0c81a24c-11">
          <path fill="none" d="M-64.72,0 L 64.72 0" class="primitive"/>
        </g>
        <g transform="translate(82.68,36.33)" id="img-0c81a24c-12">
          <path fill="none" d="M-64.72,0 L 64.72 0" class="primitive"/>
        </g>
        <g transform="translate(82.68,21.66)" id="img-0c81a24c-13">
          <path fill="none" d="M-64.72,0 L 64.72 0" class="primitive"/>
        </g>
        <g transform="translate(82.68,7)" id="img-0c81a24c-14">
          <path fill="none" d="M-64.72,0 L 64.72 0" class="primitive"/>
        </g>
      </g>
      <g class="guide xgridlines yfixed" stroke-dasharray="0.5,0.5" stroke-width="0.2" stroke="#D0D0E0" id="img-0c81a24c-15">
        <g transform="translate(19.96,43.66)" id="img-0c81a24c-16">
          <path fill="none" d="M0,-38.66 L 0 38.66" class="primitive"/>
        </g>
        <g transform="translate(82.68,43.66)" id="img-0c81a24c-17">
          <path fill="none" d="M0,-38.66 L 0 38.66" class="primitive"/>
        </g>
        <g transform="translate(145.4,43.66)" id="img-0c81a24c-18">
          <path fill="none" d="M0,-38.66 L 0 38.66" class="primitive"/>
        </g>
      </g>
      <g class="plotpanel" id="img-0c81a24c-19">
        <metadata>
          <boundingbox value="17.958333333333343mm 5.0mm 129.44166666666663mm 77.315mm"/>
          <unitbox value="-5.159436657144755 25.681988678987928 10.31887331428951 -26.36397735797586"/>
        </metadata>
        <g stroke-width="0.3" fill="#000000" fill-opacity="0.000" class="geometry" id="img-0c81a24c-20">
          <g class="color_LCHab{Float32}(70.0f0,60.0f0,240.0f0)" stroke-dasharray="none" stroke="#00BFFF" id="img-0c81a24c-21">
            <g transform="translate(82.68,55.77)" id="img-0c81a24c-22">
              <path fill="none" d="M-62.72,-48.04 L -61.94 -46.25 -61.15 -44.49 -60.37 -42.74 -59.58 -41.02 -58.8 -39.32 -58.02 -37.65 -57.23 -35.99 -56.45 -34.36 -55.66 -32.74 -54.88 -31.15 -54.1 -29.59 -53.31 -28.04 -52.53 -26.52 -51.74 -25.01 -50.96 -23.53 -50.18 -22.08 -49.39 -20.64 -48.61 -19.23 -47.82 -17.83 -47.04 -16.46 -46.26 -15.12 -45.47 -13.79 -44.69 -12.49 -43.9 -11.21 -43.12 -9.95 -42.34 -8.71 -41.55 -7.49 -40.77 -6.3 -39.98 -5.13 -39.2 -3.99 -38.42 -2.86 -37.63 -1.76 -36.85 -0.68 -36.06 0.38 -35.28 1.42 -34.5 2.43 -33.71 3.42 -32.93 4.39 -32.14 5.34 -31.36 6.26 -30.58 7.16 -29.79 8.04 -29.01 8.89 -28.22 9.73 -27.44 10.54 -26.66 11.32 -25.87 12.09 -25.09 12.83 -24.3 13.55 -23.52 14.25 -22.74 14.92 -21.95 15.57 -21.17 16.2 -20.38 16.81 -19.6 17.39 -18.82 17.95 -18.03 18.49 -17.25 19.01 -16.46 19.5 -15.68 19.97 -14.9 20.41 -14.11 20.84 -13.33 21.24 -12.54 21.62 -11.76 21.97 -10.98 22.3 -10.19 22.61 -9.41 22.9 -8.62 23.16 -7.84 23.4 -7.06 23.62 -6.27 23.82 -5.49 23.99 -4.7 24.14 -3.92 24.26 -3.14 24.37 -2.35 24.45 -1.57 24.5 -0.78 24.54 0 24.55 0.78 24.54 1.57 24.5 2.35 24.45 3.14 24.37 3.92 24.26 4.7 24.14 5.49 23.99 6.27 23.82 7.06 23.62 7.84 23.4 8.62 23.16 9.41 22.9 10.19 22.62 10.98 22.31 11.76 21.97 12.54 21.62 13.33 21.24 14.11 20.84 14.9 20.42 15.68 19.98 16.46 19.51 17.25 19.02 18.03 18.5 18.82 17.97 19.6 17.41 20.38 16.83 21.17 16.22 21.95 15.59 22.74 14.94 23.52 14.27 24.3 13.58 25.09 12.86 25.87 12.12 26.66 11.36 27.44 10.57 28.22 9.77 29.01 8.94 29.79 8.08 30.58 7.21 31.36 6.31 32.14 5.39 32.93 4.45 33.71 3.49 34.5 2.5 35.28 1.49 36.06 0.46 36.85 -0.59 37.63 -1.67 38.42 -2.77 39.2 -3.89 39.98 -5.03 40.77 -6.19 41.55 -7.38 42.34 -8.59 43.12 -9.82 43.9 -11.07 44.69 -12.34 45.47 -13.64 46.26 -14.96 47.04 -16.3 47.82 -17.66 48.61 -19.05 49.39 -20.45 50.18 -21.88 50.96 -23.33 51.74 -24.8 52.53 -26.3 53.31 -27.81 54.1 -29.35 54.88 -30.91 55.66 -32.49 56.45 -34.09 57.23 -35.72 58.02 -37.36 58.8 -39.03 59.58 -40.72 60.37 -42.43 61.15 -44.16 61.94 -45.92 62.72 -47.69" class="primitive"/>
            </g>
          </g>
        </g>
      </g>
    </g>
  </g>
  <g class="guide ylabels" font-size="2.82" font-family="'PT Sans Caption','Helvetica Neue','Helvetica',sans-serif" fill="#6C606B" id="img-0c81a24c-23">
    <g transform="translate(16.96,80.32)" id="img-0c81a24c-24">
      <g class="primitive">
        <text text-anchor="end" dy="0.35em">0</text>
      </g>
    </g>
    <g transform="translate(16.96,65.65)" id="img-0c81a24c-25">
      <g class="primitive">
        <text text-anchor="end" dy="0.35em">5</text>
      </g>
    </g>
    <g transform="translate(16.96,50.99)" id="img-0c81a24c-26">
      <g class="primitive">
        <text text-anchor="end" dy="0.35em">10</text>
      </g>
    </g>
    <g transform="translate(16.96,36.33)" id="img-0c81a24c-27">
      <g class="primitive">
        <text text-anchor="end" dy="0.35em">15</text>
      </g>
    </g>
    <g transform="translate(16.96,21.66)" id="img-0c81a24c-28">
      <g class="primitive">
        <text text-anchor="end" dy="0.35em">20</text>
      </g>
    </g>
    <g transform="translate(16.96,7)" id="img-0c81a24c-29">
      <g class="primitive">
        <text text-anchor="end" dy="0.35em">25</text>
      </g>
    </g>
  </g>
  <g font-size="3.88" font-family="'PT Sans','Helvetica Neue','Helvetica',sans-serif" fill="#564A55" stroke="#000000" stroke-opacity="0.000" id="img-0c81a24c-30">
    <g transform="translate(8.81,41.66)" id="img-0c81a24c-31">
      <g class="primitive">
        <text text-anchor="middle" dy="0.35em" transform="rotate(-90,0, 2)">Shifted deviance contribution</text>
      </g>
    </g>
  </g>
</g>
<defs>
  <clipPath id="img-0c81a24c-4">
    <path d="M17.96,5 L 147.4 5 147.4 82.32 17.96 82.32" />
  </clipPath>
</defs>
</svg>
