<?xml version="1.0" encoding="UTF-8"?>
<svg xmlns="http://www.w3.org/2000/svg"
     xmlns:xlink="http://www.w3.org/1999/xlink"
     xmlns:gadfly="http://www.gadflyjl.org/ns"
     version="1.2"
     width="152.4mm" height="101.6mm" viewBox="0 0 152.4 101.6"
     stroke="none"
     fill="#000000"
     stroke-width="0.3"
     font-size="3.88"
>
<defs>
  <marker id="arrow" markerWidth="15" markerHeight="7" refX="5" refY="3.5" orient="auto" markerUnits="strokeWidth">
    <path d="M0,0 L15,3.5 L0,7 z" stroke="context-stroke" fill="context-stroke"/>
  </marker>
</defs>
<g class="plotroot xscalable yscalable" id="img-7df38194-1">
  <g font-size="3.88" font-family="'PT Sans','Helvetica Neue','Helvetica',sans-serif" fill="#564A55" stroke="#000000" stroke-opacity="0.000" id="img-7df38194-2">
    <g transform="translate(82.68,89.99)">
      <g class="primitive">
        <text text-anchor="middle" dy="0.6em">Scaled and shifted u₁</text>
      </g>
    </g>
  </g>
  <g class="guide xlabels" font-size="2.82" font-family="'PT Sans Caption','Helvetica Neue','Helvetica',sans-serif" fill="#6C606B" id="img-7df38194-3">
    <g transform="translate(19.96,83.32)">
      <g class="primitive">
        <text text-anchor="middle" dy="0.6em">-5</text>
      </g>
    </g>
    <g transform="translate(82.68,83.32)">
      <g class="primitive">
        <text text-anchor="middle" dy="0.6em">0</text>
      </g>
    </g>
    <g transform="translate(145.4,83.32)">
      <g class="primitive">
        <text text-anchor="middle" dy="0.6em">5</text>
      </g>
    </g>
  </g>
  <g clip-path="url(#img-7df38194-4)">
    <g id="img-7df38194-5">
      <g pointer-events="visible" stroke-width="0.3" fill="#000000" fill-opacity="0.000" stroke="#000000" stroke-opacity="0.000" class="guide background" id="img-7df38194-6">
        <g transform="translate(82.68,43.66)" id="img-7df38194-7">
          <path d="M-64.72,-38.66 L 64.72 -38.66 64.72 38.66 -64.72 38.66 z" class="primitive"/>
        </g>
      </g>
      <g class="guide ygridlines xfixed" stroke-dasharray="0.5,0.5" stroke-width="0.2" stroke="#D0D0E0" id="img-7df38194-8">
        <g transform="translate(82.68,80.31)" id="img-7df38194-9">
          <path fill="none" d="M-64.72,0 L 64.72 0" class="primitive"/>
        </g>
        <g transform="translate(82.68,55.88)" id="img-7df38194-10">
          <path fill="none" d="M-64.72,0 L 64.72 0" class="primitive"/>
        </g>
        <g transform="translate(82.68,31.44)" id="img-7df38194-11">
          <path fill="none" d="M-64.72,0 L 64.72 0" class="primitive"/>
        </g>
        <g transform="translate(82.68,7)" id="img-7df38194-12">
          <path fill="none" d="M-64.72,0 L 64.72 0" class="primitive"/>
        </g>
      </g>
      <g class="guide xgridlines yfixed" stroke-dasharray="0.5,0.5" stroke-width="0.2" stroke="#D0D0E0" id="img-7df38194-13">
        <g transform="translate(19.96,43.66)" id="img-7df38194-14">
          <path fill="none" d="M0,-38.66 L 0 38.66" class="primitive"/>
        </g>
        <g transform="translate(82.68,43.66)" id="img-7df38194-15">
          <path fill="none" d="M0,-38.66 L 0 38.66" class="primitive"/>
        </g>
        <g transform="translate(145.4,43.66)" id="img-7df38194-16">
          <path fill="none" d="M0,-38.66 L 0 38.66" class="primitive"/>
        </g>
      </g>
      <g class="plotpanel" id="img-7df38194-17">
        <metadata>
          <boundingbox value="17.958333333333343mm 5.0mm 129.44166666666663mm 77.315mm"/>
          <unitbox value="-5.159436657144755 30.818386414785515 10.31887331428951 -31.636772829571033"/>
        </metadata>
        <g stroke-width="0.3" fill="#000000" fill-opacity="0.000" class="geometry" id="img-7df38194-18">
          <g class="color_LCHab{Float32}(70.0f0,60.0f0,240.0f0)" stroke-dasharray="none" stroke="#00BFFF" id="img-7df38194-19">
            <g transform="translate(82.68,59.88)" id="img-7df38194-20">
              <path fill="none" d="M-62.72,-33.97 L -61.94 -32.71 -61.15 -31.45 -60.37 -30.21 -59.58 -28.98 -58.8 -27.76 -58.02 -26.56 -57.23 -25.37 -56.45 -24.2 -55.66 -23.03 -54.88 -21.88 -54.1 -20.75 -53.31 -19.63 -52.53 -18.52 -51.74 -17.42 -50.96 -16.34 -50.18 -15.27 -49.39 -14.22 -48.61 -13.18 -47.82 -12.15 -47.04 -11.14 -46.26 -10.15 -45.47 -9.16 -44.69 -8.19 -43.9 -7.24 -43.12 -6.3 -42.34 -5.38 -41.55 -4.47 -40.77 -3.57 -39.98 -2.69 -39.2 -1.83 -38.42 -0.98 -37.63 -0.14 -36.85 0.67 -36.06 1.48 -35.28 2.27 -34.5 3.04 -33.71 3.8 -32.93 4.54 -32.14 5.26 -31.36 5.97 -30.58 6.67 -29.79 7.35 -29.01 8.01 -28.22 8.65 -27.44 9.28 -26.66 9.9 -25.87 10.49 -25.09 11.07 -24.3 11.64 -23.52 12.18 -22.74 12.71 -21.95 13.23 -21.17 13.72 -20.38 14.2 -19.6 14.67 -18.82 15.11 -18.03 15.54 -17.25 15.95 -16.46 16.34 -15.68 16.72 -14.9 17.08 -14.11 17.42 -13.33 17.74 -12.54 18.04 -11.76 18.33 -10.98 18.6 -10.19 18.85 -9.41 19.08 -8.62 19.3 -7.84 19.5 -7.06 19.67 -6.27 19.83 -5.49 19.97 -4.7 20.1 -3.92 20.2 -3.14 20.29 -2.35 20.35 -1.57 20.4 -0.78 20.43 0 20.44 0.78 20.43 1.57 20.4 2.35 20.35 3.14 20.28 3.92 20.2 4.7 20.09 5.49 19.97 6.27 19.82 7.06 19.66 7.84 19.47 8.62 19.27 9.41 19.04 10.19 18.8 10.98 18.54 11.76 18.25 12.54 17.95 13.33 17.62 14.11 17.28 14.9 16.91 15.68 16.53 16.46 16.12 17.25 15.7 18.03 15.25 18.82 14.78 19.6 14.29 20.38 13.79 21.17 13.26 21.95 12.71 22.74 12.14 23.52 11.54 24.3 10.93 25.09 10.3 25.87 9.64 26.66 8.97 27.44 8.27 28.22 7.55 29.01 6.81 29.79 6.05 30.58 5.27 31.36 4.47 32.14 3.64 32.93 2.79 33.71 1.93 34.5 1.04 35.28 0.13 36.06 -0.81 36.85 -1.76 37.63 -2.74 38.42 -3.74 39.2 -4.75 39.98 -5.8 40.77 -6.86 41.55 -7.94 42.34 -9.05 43.12 -10.18 43.9 -11.33 44.69 -12.5 45.47 -13.7 46.26 -14.91 47.04 -16.15 47.82 -17.41 48.61 -18.7 49.39 -20 50.18 -21.33 50.96 -22.68 51.74 -24.05 52.53 -25.44 53.31 -26.86 54.1 -28.29 54.88 -29.75 55.66 -31.24 56.45 -32.74 57.23 -34.27 58.02 -35.82 58.8 -37.39 59.58 -38.98 60.37 -40.6 61.15 -42.23 61.94 -43.89 62.72 -45.58" class="primitive"/>
            </g>
          </g>
        </g>
      </g>
    </g>
  </g>
  <g class="guide ylabels" font-size="2.82" font-family="'PT Sans Caption','Helvetica Neue','Helvetica',sans-serif" fill="#6C606B" id="img-7df38194-21">
    <g transform="translate(16.96,80.31)" id="img-7df38194-22">
      <g class="primitive">
        <text text-anchor="end" dy="0.35em">0</text>
      </g>
    </g>
    <g transform="translate(16.96,55.88)" id="img-7df38194-23">
      <g class="primitive">
        <text text-anchor="end" dy="0.35em">10</text>
      </g>
    </g>
    <g transform="translate(16.96,31.44)" id="img-7df38194-24">
      <g class="primitive">
        <text text-anchor="end" dy="0.35em">20</text>
      </g>
    </g>
    <g transform="translate(16.96,7)" id="img-7df38194-25">
      <g class="primitive">
        <text text-anchor="end" dy="0.35em">30</text>
      </g>
    </g>
  </g>
  <g font-size="3.88" font-family="'PT Sans','Helvetica Neue','Helvetica',sans-serif" fill="#564A55" stroke="#000000" stroke-opacity="0.000" id="img-7df38194-26">
    <g transform="translate(8.81,41.66)" id="img-7df38194-27">
      <g class="primitive">
        <text text-anchor="middle" dy="0.35em" transform="rotate(-90,0, 2)">Shifted deviance contribution</text>
      </g>
    </g>
  </g>
</g>
<defs>
  <clipPath id="img-7df38194-4">
    <path d="M17.96,5 L 147.4 5 147.4 82.32 17.96 82.32" />
  </clipPath>
</defs>
</svg>
