<?xml version="1.0" encoding="UTF-8"?>
<svg xmlns="http://www.w3.org/2000/svg"
     xmlns:xlink="http://www.w3.org/1999/xlink"
     xmlns:gadfly="http://www.gadflyjl.org/ns"
     version="1.2"
     width="152.4mm" height="101.6mm" viewBox="0 0 152.4 101.6"
     stroke="none"
     fill="#000000"
     stroke-width="0.3"
     font-size="3.88"
>
<g class="plotroot xscalable yscalable" id="img-2c848d32-1">
  <g font-size="3.88" font-family="'PT Sans','Helvetica Neue','Helvetica',sans-serif" fill="#564A55" stroke="#000000" stroke-opacity="0.000" id="img-2c848d32-2">
    <text x="78.04" y="89.99" text-anchor="middle" dy="0.6em">σ</text>
  </g>
  <g class="guide xlabels" font-size="2.82" font-family="'PT Sans Caption','Helvetica Neue','Helvetica',sans-serif" fill="#6C606B" id="img-2c848d32-3">
    <text x="10.67" y="83.32" text-anchor="middle" dy="0.6em">0.0</text>
    <text x="55.58" y="83.32" text-anchor="middle" dy="0.6em">0.5</text>
    <text x="100.49" y="83.32" text-anchor="middle" dy="0.6em">1.0</text>
    <text x="145.4" y="83.32" text-anchor="middle" dy="0.6em">1.5</text>
  </g>
<g clip-path="url(#img-2c848d32-4)">
  <g id="img-2c848d32-5">
    <g pointer-events="visible" opacity="1" fill="#000000" fill-opacity="0.000" stroke="#000000" stroke-opacity="0.000" class="guide background" id="img-2c848d32-6">
      <rect x="8.67" y="5" width="138.73" height="77.32"/>
    </g>
    <g class="guide ygridlines xfixed" stroke-dasharray="0.5,0.5" stroke-width="0.2" stroke="#D0D0E0" id="img-2c848d32-7">
      <path fill="none" d="M8.67,80.31 L 147.4 80.31"/>
      <path fill="none" d="M8.67,61.99 L 147.4 61.99"/>
      <path fill="none" d="M8.67,43.66 L 147.4 43.66"/>
      <path fill="none" d="M8.67,25.33 L 147.4 25.33"/>
      <path fill="none" d="M8.67,7 L 147.4 7"/>
    </g>
    <g class="guide xgridlines yfixed" stroke-dasharray="0.5,0.5" stroke-width="0.2" stroke="#D0D0E0" id="img-2c848d32-8">
      <path fill="none" d="M10.67,5 L 10.67 82.32"/>
      <path fill="none" d="M55.58,5 L 55.58 82.32"/>
      <path fill="none" d="M100.49,5 L 100.49 82.32"/>
      <path fill="none" d="M145.4,5 L 145.4 82.32"/>
    </g>
    <g class="plotpanel" id="img-2c848d32-9">
      <g stroke-width="0.3" fill="#000000" fill-opacity="0.000" class="geometry" stroke-dasharray="none" stroke="#00BFFF" id="img-2c848d32-10">
        <path fill="none" d="M42.04,80.31 L 42.37 80.31 42.7 80.31 43.03 80.31 43.36 80.31 43.69 80.31 44.02 80.31 44.35 80.31 44.68 80.31 45.01 80.3 45.34 80.3 45.67 80.29 46 80.29 46.33 80.28 46.66 80.27 46.99 80.26 47.32 80.26 47.64 80.26 47.97 80.26 48.3 80.26 48.63 80.25 48.96 80.25 49.29 80.25 49.62 80.25 49.95 80.25 50.28 80.26 50.61 80.26 50.94 80.25 51.27 80.25 51.6 80.24 51.93 80.23 52.26 80.21 52.59 80.18 52.92 80.15 53.25 80.11 53.58 80.07 53.91 80.03 54.23 79.99 54.56 79.94 54.89 79.89 55.22 79.82 55.55 79.74 55.88 79.65 56.21 79.55 56.54 79.43 56.87 79.31 57.2 79.19 57.53 79.08 57.86 78.97 58.19 78.87 58.52 78.78 58.85 78.69 59.18 78.6 59.51 78.51 59.84 78.41 60.17 78.29 60.5 78.16 60.82 78.01 61.15 77.83 61.48 77.61 61.81 77.36 62.14 77.06 62.47 76.73 62.8 76.34 63.13 75.89 63.46 75.38 63.79 74.8 64.12 74.16 64.45 73.45 64.78 72.68 65.11 71.86 65.44 71.01 65.77 70.12 66.1 69.2 66.43 68.26 66.76 67.28 67.09 66.26 67.42 65.19 67.74 64.07 68.07 62.89 68.4 61.67 68.73 60.4 69.06 59.11 69.39 57.82 69.72 56.52 70.05 55.25 70.38 54.01 70.71 52.81 71.04 51.66 71.37 50.56 71.7 49.49 72.03 48.44 72.36 47.38 72.69 46.27 73.02 45.07 73.35 43.74 73.68 42.28 74.01 40.68 74.33 38.95 74.66 37.13 74.99 35.25 75.32 33.35 75.65 31.46 75.98 29.61 76.31 27.82 76.64 26.12 76.97 24.51 77.3 22.99 77.63 21.55 77.96 20.19 78.29 18.9 78.62 17.7 78.95 16.57 79.28 15.52 79.61 14.56 79.94 13.69 80.27 12.9 80.6 12.22 80.92 11.63 81.25 11.16 81.58 10.81 81.91 10.61 82.24 10.56 82.57 10.66 82.9 10.92 83.23 11.3 83.56 11.77 83.89 12.31 84.22 12.85 84.55 13.36 84.88 13.82 85.21 14.23 85.54 14.6 85.87 14.95 86.2 15.29 86.53 15.64 86.86 16 87.19 16.4 87.51 16.87 87.84 17.44 88.17 18.17 88.5 19.08 88.83 20.21 89.16 21.53 89.49 23.03 89.82 24.64 90.15 26.3 90.48 27.97 90.81 29.6 91.14 31.16 91.47 32.64 91.8 34.04 92.13 35.36 92.46 36.6 92.79 37.77 93.12 38.89 93.45 39.96 93.78 41.04 94.11 42.14 94.43 43.29 94.76 44.52 95.09 45.84 95.42 47.23 95.75 48.66 96.08 50.1 96.41 51.52 96.74 52.89 97.07 54.21 97.4 55.48 97.73 56.71 98.06 57.91 98.39 59.07 98.72 60.2 99.05 61.28 99.38 62.28 99.71 63.22 100.04 64.09 100.37 64.91 100.7 65.7 101.02 66.45 101.35 67.18 101.68 67.89 102.01 68.55 102.34 69.16 102.67 69.72 103 70.22 103.33 70.69 103.66 71.13 103.99 71.58 104.32 72.06 104.65 72.57 104.98 73.12 105.31 73.7 105.64 74.27 105.97 74.81 106.3 75.31 106.63 75.74 106.96 76.11 107.29 76.43 107.61 76.71 107.94 76.96 108.27 77.2 108.6 77.45 108.93 77.7 109.26 77.95 109.59 78.19 109.92 78.41 110.25 78.62 110.58 78.79 110.91 78.94 111.24 79.05 111.57 79.14 111.9 79.2 112.23 79.25 112.56 79.29 112.89 79.33 113.22 79.37 113.55 79.41 113.88 79.46 114.2 79.52 114.53 79.58 114.86 79.65 115.19 79.72 115.52 79.79 115.85 79.85 116.18 79.91 116.51 79.97 116.84 80.02 117.17 80.06 117.5 80.1 117.83 80.14 118.16 80.17 118.49 80.19 118.82 80.21 119.15 80.22 119.48 80.23 119.81 80.24 120.14 80.25 120.47 80.25 120.8 80.26 121.12 80.26 121.45 80.27 121.78 80.28 122.11 80.29 122.44 80.29 122.77 80.3 123.1 80.3 123.43 80.31 123.76 80.31 124.09 80.31 124.42 80.31 124.75 80.31 125.08 80.31 125.41 80.31 125.74 80.31 126.07 80.31"/>
      </g>
    </g>
  </g>
</g>
  <g class="guide ylabels" font-size="2.82" font-family="'PT Sans Caption','Helvetica Neue','Helvetica',sans-serif" fill="#6C606B" id="img-2c848d32-11">
    <text x="7.67" y="80.31" text-anchor="end" dy="0.35em">0</text>
    <text x="7.67" y="61.99" text-anchor="end" dy="0.35em">1</text>
    <text x="7.67" y="43.66" text-anchor="end" dy="0.35em">2</text>
    <text x="7.67" y="25.33" text-anchor="end" dy="0.35em">3</text>
    <text x="7.67" y="7" text-anchor="end" dy="0.35em">4</text>
  </g>
</g>
<defs>
  <clipPath id="img-2c848d32-4">
  <path d="M8.67,5 L 147.4 5 147.4 82.32 8.67 82.32" />
</clipPath>
</defs>
</svg>
