<?xml version="1.0" encoding="UTF-8"?>
<svg xmlns="http://www.w3.org/2000/svg"
     xmlns:xlink="http://www.w3.org/1999/xlink"
     xmlns:gadfly="http://www.gadflyjl.org/ns"
     version="1.2"
     width="152.4mm" height="101.6mm" viewBox="0 0 152.4 101.6"
     stroke="none"
     fill="#000000"
     stroke-width="0.3"
     font-size="3.88"
>
<g class="plotroot xscalable yscalable" id="img-b63df6d4-1">
  <g font-size="3.88" font-family="'PT Sans','Helvetica Neue','Helvetica',sans-serif" fill="#564A55" stroke="#000000" stroke-opacity="0.000" id="img-b63df6d4-2">
    <text x="79.21" y="89.99" text-anchor="middle" dy="0.6em">σ₁</text>
  </g>
  <g class="guide xlabels" font-size="2.82" font-family="'PT Sans Caption','Helvetica Neue','Helvetica',sans-serif" fill="#6C606B" id="img-b63df6d4-3">
    <text x="13.02" y="83.32" text-anchor="middle" dy="0.6em">0</text>
    <text x="39.5" y="83.32" text-anchor="middle" dy="0.6em">1</text>
    <text x="65.97" y="83.32" text-anchor="middle" dy="0.6em">2</text>
    <text x="92.45" y="83.32" text-anchor="middle" dy="0.6em">3</text>
    <text x="118.92" y="83.32" text-anchor="middle" dy="0.6em">4</text>
    <text x="145.4" y="83.32" text-anchor="middle" dy="0.6em">5</text>
  </g>
<g clip-path="url(#img-b63df6d4-4)">
  <g id="img-b63df6d4-5">
    <g pointer-events="visible" opacity="1" fill="#000000" fill-opacity="0.000" stroke="#000000" stroke-opacity="0.000" class="guide background" id="img-b63df6d4-6">
      <rect x="11.02" y="5" width="136.38" height="77.32"/>
    </g>
    <g class="guide ygridlines xfixed" stroke-dasharray="0.5,0.5" stroke-width="0.2" stroke="#D0D0E0" id="img-b63df6d4-7">
      <path fill="none" d="M11.02,80.31 L 147.4 80.31"/>
      <path fill="none" d="M11.02,65.65 L 147.4 65.65"/>
      <path fill="none" d="M11.02,50.99 L 147.4 50.99"/>
      <path fill="none" d="M11.02,36.33 L 147.4 36.33"/>
      <path fill="none" d="M11.02,21.66 L 147.4 21.66"/>
      <path fill="none" d="M11.02,7 L 147.4 7"/>
    </g>
    <g class="guide xgridlines yfixed" stroke-dasharray="0.5,0.5" stroke-width="0.2" stroke="#D0D0E0" id="img-b63df6d4-8">
      <path fill="none" d="M13.02,5 L 13.02 82.32"/>
      <path fill="none" d="M39.5,5 L 39.5 82.32"/>
      <path fill="none" d="M65.97,5 L 65.97 82.32"/>
      <path fill="none" d="M92.45,5 L 92.45 82.32"/>
      <path fill="none" d="M118.92,5 L 118.92 82.32"/>
      <path fill="none" d="M145.4,5 L 145.4 82.32"/>
    </g>
    <g class="plotpanel" id="img-b63df6d4-9">
      <g stroke-width="0.3" fill="#000000" fill-opacity="0.000" class="geometry" stroke-dasharray="none" stroke="#00BFFF" id="img-b63df6d4-10">
        <path fill="none" d="M41.31,80.31 L 41.69 80.31 42.06 80.31 42.44 80.31 42.82 80.31 43.2 80.31 43.58 80.31 43.96 80.31 44.34 80.31 44.71 80.3 45.09 80.3 45.47 80.28 45.85 80.27 46.23 80.25 46.61 80.23 46.99 80.21 47.37 80.19 47.74 80.16 48.12 80.13 48.5 80.11 48.88 80.08 49.26 80.06 49.64 80.03 50.02 80 50.39 79.97 50.77 79.94 51.15 79.9 51.53 79.86 51.91 79.82 52.29 79.77 52.67 79.71 53.04 79.65 53.42 79.58 53.8 79.5 54.18 79.41 54.56 79.31 54.94 79.2 55.32 79.07 55.7 78.93 56.07 78.77 56.45 78.59 56.83 78.38 57.21 78.15 57.59 77.9 57.97 77.64 58.35 77.36 58.72 77.07 59.1 76.76 59.48 76.43 59.86 76.07 60.24 75.69 60.62 75.29 61 74.87 61.37 74.43 61.75 73.99 62.13 73.55 62.51 73.12 62.89 72.7 63.27 72.28 63.65 71.84 64.03 71.38 64.4 70.87 64.78 70.31 65.16 69.68 65.54 68.97 65.92 68.2 66.3 67.35 66.68 66.46 67.05 65.54 67.43 64.62 67.81 63.69 68.19 62.78 68.57 61.88 68.95 60.96 69.33 60.01 69.7 59 70.08 57.91 70.46 56.72 70.84 55.44 71.22 54.08 71.6 52.65 71.98 51.2 72.36 49.76 72.73 48.37 73.11 47.05 73.49 45.82 73.87 44.67 74.25 43.6 74.63 42.58 75.01 41.59 75.38 40.58 75.76 39.54 76.14 38.43 76.52 37.25 76.9 36 77.28 34.68 77.66 33.29 78.04 31.86 78.41 30.38 78.79 28.88 79.17 27.37 79.55 25.87 79.93 24.42 80.31 23.03 80.69 21.74 81.06 20.56 81.44 19.49 81.82 18.54 82.2 17.69 82.58 16.93 82.96 16.25 83.34 15.65 83.71 15.14 84.09 14.73 84.47 14.41 84.85 14.21 85.23 14.08 85.61 14.01 85.99 13.96 86.37 13.88 86.74 13.78 87.12 13.65 87.5 13.52 87.88 13.45 88.26 13.48 88.64 13.64 89.02 13.96 89.39 14.41 89.77 14.98 90.15 15.62 90.53 16.28 90.91 16.93 91.29 17.54 91.67 18.08 92.04 18.58 92.42 19.04 92.8 19.52 93.18 20.09 93.56 20.8 93.94 21.73 94.32 22.91 94.7 24.37 95.07 26.08 95.45 27.99 95.83 30.03 96.21 32.12 96.59 34.17 96.97 36.11 97.35 37.91 97.72 39.52 98.1 40.95 98.48 42.2 98.86 43.3 99.24 44.27 99.62 45.16 100 45.99 100.37 46.81 100.75 47.64 101.13 48.51 101.51 49.44 101.89 50.45 102.27 51.54 102.65 52.7 103.03 53.91 103.4 55.17 103.78 56.46 104.16 57.76 104.54 59.06 104.92 60.33 105.3 61.55 105.68 62.69 106.05 63.75 106.43 64.7 106.81 65.53 107.19 66.26 107.57 66.9 107.95 67.46 108.33 67.98 108.7 68.47 109.08 68.96 109.46 69.46 109.84 69.99 110.22 70.54 110.6 71.11 110.98 71.69 111.36 72.27 111.73 72.83 112.11 73.37 112.49 73.87 112.87 74.33 113.25 74.75 113.63 75.14 114.01 75.5 114.38 75.84 114.76 76.18 115.14 76.5 115.52 76.82 115.9 77.12 116.28 77.41 116.66 77.67 117.03 77.91 117.41 78.13 117.79 78.33 118.17 78.51 118.55 78.67 118.93 78.83 119.31 78.97 119.69 79.11 120.06 79.23 120.44 79.34 120.82 79.44 121.2 79.52 121.58 79.59 121.96 79.66 122.34 79.71 122.71 79.77 123.09 79.82 123.47 79.87 123.85 79.91 124.23 79.95 124.61 79.98 124.99 80 125.36 80.01 125.74 80.01 126.12 80 126.5 79.99 126.88 79.98 127.26 79.98 127.64 79.97 128.02 79.98 128.39 79.99 128.77 80.01 129.15 80.03 129.53 80.05 129.91 80.08 130.29 80.1 130.67 80.12 131.04 80.15 131.42 80.17 131.8 80.19 132.18 80.21 132.56 80.23 132.94 80.25 133.32 80.27 133.69 80.28 134.07 80.29 134.45 80.3 134.83 80.31 135.21 80.31 135.59 80.31 135.97 80.31 136.35 80.31 136.72 80.31 137.1 80.31 137.48 80.31 137.86 80.31"/>
      </g>
    </g>
  </g>
</g>
  <g class="guide ylabels" font-size="2.82" font-family="'PT Sans Caption','Helvetica Neue','Helvetica',sans-serif" fill="#6C606B" id="img-b63df6d4-11">
    <text x="10.02" y="80.31" text-anchor="end" dy="0.35em">0.0</text>
    <text x="10.02" y="65.65" text-anchor="end" dy="0.35em">0.2</text>
    <text x="10.02" y="50.99" text-anchor="end" dy="0.35em">0.4</text>
    <text x="10.02" y="36.33" text-anchor="end" dy="0.35em">0.6</text>
    <text x="10.02" y="21.66" text-anchor="end" dy="0.35em">0.8</text>
    <text x="10.02" y="7" text-anchor="end" dy="0.35em">1.0</text>
  </g>
</g>
<defs>
  <clipPath id="img-b63df6d4-4">
  <path d="M11.02,5 L 147.4 5 147.4 82.32 11.02 82.32" />
</clipPath>
</defs>
</svg>
