<?xml version="1.0" encoding="UTF-8"?>
<svg xmlns="http://www.w3.org/2000/svg"
     xmlns:xlink="http://www.w3.org/1999/xlink"
     xmlns:gadfly="http://www.gadflyjl.org/ns"
     version="1.2"
     width="203.2mm" height="101.6mm" viewBox="0 0 203.2 101.6"
     stroke="none"
     fill="#000000"
     stroke-width="0.3"
     font-size="3.88"
>
<g class="plotroot xscalable yscalable" id="img-302658df-1">
  <g font-size="3.88" font-family="'PT Sans','Helvetica Neue','Helvetica',sans-serif" fill="#564A55" stroke="#000000" stroke-opacity="0.000" id="img-302658df-2">
    <text x="108.08" y="89.99" text-anchor="middle" dy="0.6em">Standard Normal Quantiles</text>
  </g>
  <g class="guide xlabels" font-size="2.82" font-family="'PT Sans Caption','Helvetica Neue','Helvetica',sans-serif" fill="#6C606B" id="img-302658df-3">
    <text x="19.96" y="83.32" text-anchor="middle" dy="0.6em">-3</text>
    <text x="49.33" y="83.32" text-anchor="middle" dy="0.6em">-2</text>
    <text x="78.71" y="83.32" text-anchor="middle" dy="0.6em">-1</text>
    <text x="108.08" y="83.32" text-anchor="middle" dy="0.6em">0</text>
    <text x="137.45" y="83.32" text-anchor="middle" dy="0.6em">1</text>
    <text x="166.83" y="83.32" text-anchor="middle" dy="0.6em">2</text>
    <text x="196.2" y="83.32" text-anchor="middle" dy="0.6em">3</text>
  </g>
<g clip-path="url(#img-302658df-4)">
  <g id="img-302658df-5">
    <g pointer-events="visible" opacity="1" fill="#000000" fill-opacity="0.000" stroke="#000000" stroke-opacity="0.000" class="guide background" id="img-302658df-6">
      <rect x="17.96" y="5" width="180.24" height="77.32"/>
    </g>
    <g class="guide ygridlines xfixed" stroke-dasharray="0.5,0.5" stroke-width="0.2" stroke="#D0D0E0" id="img-302658df-7">
      <path fill="none" d="M17.96,80.32 L 198.2 80.32"/>
      <path fill="none" d="M17.96,61.99 L 198.2 61.99"/>
      <path fill="none" d="M17.96,43.66 L 198.2 43.66"/>
      <path fill="none" d="M17.96,25.33 L 198.2 25.33"/>
      <path fill="none" d="M17.96,7 L 198.2 7"/>
    </g>
    <g class="guide xgridlines yfixed" stroke-dasharray="0.5,0.5" stroke-width="0.2" stroke="#D0D0E0" id="img-302658df-8">
      <path fill="none" d="M19.96,5 L 19.96 82.32"/>
      <path fill="none" d="M49.33,5 L 49.33 82.32"/>
      <path fill="none" d="M78.71,5 L 78.71 82.32"/>
      <path fill="none" d="M108.08,5 L 108.08 82.32"/>
      <path fill="none" d="M137.45,5 L 137.45 82.32"/>
      <path fill="none" d="M166.83,5 L 166.83 82.32"/>
      <path fill="none" d="M196.2,5 L 196.2 82.32"/>
    </g>
    <g class="plotpanel" id="img-302658df-9">
      <g stroke-width="0.3" fill="#000000" fill-opacity="0.000" class="geometry" stroke-dasharray="none" stroke="#00BFFF" id="img-302658df-10">
        <path fill="none" d="M23.54,80.32 L 34.29 80.32 39.75 80.32 43.54 80.32 46.48 80.32 48.92 80.32 51 80.32 52.83 80.32 54.47 80.32 55.96 80.32 57.32 80.32 58.59 80.32 59.76 80.32 60.87 80.32 61.91 80.32 62.9 80.32 63.83 80.32 64.73 80.32 65.59 80.32 66.41 80.32 67.2 80.32 67.96 80.32 68.7 80.32 69.41 80.32 70.1 77.29 70.77 75.95 71.42 75.1 72.05 74.27 72.67 73.6 73.27 73.15 73.86 72.54 74.43 71.92 74.99 71.47 75.54 71.03 76.08 70.66 76.61 70.25 77.13 69.91 77.64 69.57 78.13 69.2 78.63 68.82 79.11 68.46 79.58 68.2 80.05 67.82 80.51 67.51 80.97 67.29 81.41 67.02 81.86 66.73 82.29 66.43 82.72 66.17 83.15 65.91 83.57 65.71 83.98 65.54 84.39 65.28 84.8 65.04 85.2 64.77 85.59 64.6 85.99 64.36 86.38 64.14 86.76 63.92 87.14 63.69 87.52 63.48 87.9 63.24 88.27 63.07 88.64 62.89 89 62.72 89.36 62.52 89.72 62.38 90.08 62.22 90.43 62.04 90.78 61.86 91.13 61.7 91.48 61.5 91.82 61.36 92.17 61.14 92.51 60.96 92.84 60.76 93.18 60.56 93.51 60.37 93.85 60.21 94.18 60.03 94.51 59.86 94.83 59.68 95.16 59.56 95.48 59.41 95.8 59.25 96.12 59.14 96.44 58.95 96.76 58.77 97.08 58.56 97.39 58.42 97.71 58.26 98.02 58.08 98.33 57.94 98.64 57.79 98.95 57.63 99.26 57.47 99.57 57.31 99.87 57.15 100.18 57.01 100.49 56.85 100.79 56.68 101.09 56.51 101.4 56.33 101.7 56.18 102 56.05 102.3 55.92 102.6 55.79 102.9 55.67 103.2 55.46 103.5 55.33 103.79 55.16 104.09 55.01 104.39 54.86 104.68 54.74 104.98 54.58 105.28 54.42 105.57 54.25 105.87 54.11 106.16 53.96 106.46 53.8 106.75 53.63 107.05 53.46 107.34 53.32 107.64 53.21 107.93 53.04 108.23 52.93 108.52 52.81 108.82 52.69 109.11 52.52 109.4 52.34 109.7 52.21 109.99 52.07 110.29 51.93 110.59 51.8 110.88 51.67 111.18 51.52 111.47 51.38 111.77 51.2 112.07 51.06 112.36 50.9 112.66 50.72 112.96 50.59 113.26 50.44 113.56 50.31 113.86 50.2 114.16 50.06 114.46 49.88 114.76 49.76 115.07 49.6 115.37 49.44 115.67 49.33 115.98 49.19 116.28 49.04 116.59 48.91 116.9 48.76 117.21 48.63 117.52 48.47 117.83 48.3 118.14 48.17 118.45 48.03 118.77 47.88 119.08 47.73 119.4 47.57 119.72 47.43 120.03 47.25 120.36 47.13 120.68 47.01 121 46.88 121.33 46.76 121.65 46.62 121.98 46.53 122.31 46.35 122.64 46.19 122.98 46.01 123.31 45.83 123.65 45.68 123.99 45.5 124.33 45.33 124.68 45.16 125.03 44.97 125.37 44.81 125.73 44.62 126.08 44.46 126.44 44.27 126.8 44.13 127.16 43.96 127.52 43.75 127.89 43.61 128.26 43.41 128.64 43.27 129.02 43.09 129.4 42.9 129.78 42.74 130.17 42.6 130.56 42.39 130.96 42.23 131.36 42 131.77 41.77 132.18 41.55 132.59 41.41 133.01 41.18 133.44 41.03 133.87 40.82 134.3 40.6 134.74 40.42 135.19 40.21 135.65 39.92 136.11 39.69 136.57 39.47 137.05 39.34 137.53 39.16 138.02 38.91 138.52 38.66 139.03 38.36 139.55 38.14 140.08 37.85 140.62 37.55 141.17 37.3 141.73 37.07 142.3 36.74 142.89 36.4 143.49 36.1 144.11 35.73 144.74 35.42 145.39 35.14 146.06 34.8 146.75 34.57 147.46 34.27 148.2 33.89 148.96 33.54 149.75 33.08 150.57 32.73 151.43 32.26 152.32 31.84 153.26 31.41 154.25 31.06 155.29 30.62 156.39 30.18 157.57 29.74 158.83 29.13 160.2 28.68 161.69 27.75 163.32 27.01 165.16 26.11 167.24 25.07 169.67 23.91 172.62 22.28 176.41 20.41 181.87 18.03 192.62 12.36"/>
      </g>
    </g>
  </g>
</g>
  <g class="guide ylabels" font-size="2.82" font-family="'PT Sans Caption','Helvetica Neue','Helvetica',sans-serif" fill="#6C606B" id="img-302658df-11">
    <text x="16.96" y="80.32" text-anchor="end" dy="0.35em">0</text>
    <text x="16.96" y="61.99" text-anchor="end" dy="0.35em">20</text>
    <text x="16.96" y="43.66" text-anchor="end" dy="0.35em">40</text>
    <text x="16.96" y="25.33" text-anchor="end" dy="0.35em">60</text>
    <text x="16.96" y="7" text-anchor="end" dy="0.35em">80</text>
  </g>
  <g font-size="3.88" font-family="'PT Sans','Helvetica Neue','Helvetica',sans-serif" fill="#564A55" stroke="#000000" stroke-opacity="0.000" id="img-302658df-12">
    <text x="8.81" y="41.66" text-anchor="middle" dy="0.35em" transform="rotate(-90, 8.81, 43.66)">σ₁</text>
  </g>
</g>
<defs>
  <clipPath id="img-302658df-4">
  <path d="M17.96,5 L 198.2 5 198.2 82.32 17.96 82.32" />
</clipPath>
</defs>
</svg>
