<?xml version="1.0" encoding="UTF-8"?>
<svg xmlns="http://www.w3.org/2000/svg"
     xmlns:xlink="http://www.w3.org/1999/xlink"
     xmlns:gadfly="http://www.gadflyjl.org/ns"
     version="1.2"
     width="203.2mm" height="101.6mm" viewBox="0 0 203.2 101.6"
     stroke="none"
     fill="#000000"
     stroke-width="0.3"
     font-size="3.88"
>
<g class="plotroot xscalable yscalable" id="img-0ea14037-1">
  <g font-size="3.88" font-family="'PT Sans','Helvetica Neue','Helvetica',sans-serif" fill="#564A55" stroke="#000000" stroke-opacity="0.000" id="img-0ea14037-2">
    <text x="107.48" y="89.99" text-anchor="middle" dy="0.6em">ρ₁₂</text>
  </g>
  <g class="guide xlabels" font-size="2.82" font-family="'PT Sans Caption','Helvetica Neue','Helvetica',sans-serif" fill="#6C606B" id="img-0ea14037-3">
    <text x="18.77" y="83.32" text-anchor="middle" dy="0.6em">-1.0</text>
    <text x="63.13" y="83.32" text-anchor="middle" dy="0.6em">-0.5</text>
    <text x="107.48" y="83.32" text-anchor="middle" dy="0.6em">0.0</text>
    <text x="151.84" y="83.32" text-anchor="middle" dy="0.6em">0.5</text>
    <text x="196.2" y="83.32" text-anchor="middle" dy="0.6em">1.0</text>
  </g>
<g clip-path="url(#img-0ea14037-4)">
  <g id="img-0ea14037-5">
    <g pointer-events="visible" opacity="1" fill="#000000" fill-opacity="0.000" stroke="#000000" stroke-opacity="0.000" class="guide background" id="img-0ea14037-6">
      <rect x="16.77" y="5" width="181.43" height="77.32"/>
    </g>
    <g class="guide ygridlines xfixed" stroke-dasharray="0.5,0.5" stroke-width="0.2" stroke="#D0D0E0" id="img-0ea14037-7">
      <path fill="none" d="M16.77,80.31 L 198.2 80.31"/>
      <path fill="none" d="M16.77,55.88 L 198.2 55.88"/>
      <path fill="none" d="M16.77,31.44 L 198.2 31.44"/>
      <path fill="none" d="M16.77,7 L 198.2 7"/>
    </g>
    <g class="guide xgridlines yfixed" stroke-dasharray="0.5,0.5" stroke-width="0.2" stroke="#D0D0E0" id="img-0ea14037-8">
      <path fill="none" d="M18.77,5 L 18.77 82.32"/>
      <path fill="none" d="M63.13,5 L 63.13 82.32"/>
      <path fill="none" d="M107.48,5 L 107.48 82.32"/>
      <path fill="none" d="M151.84,5 L 151.84 82.32"/>
      <path fill="none" d="M196.2,5 L 196.2 82.32"/>
    </g>
    <g class="plotpanel" id="img-0ea14037-9">
      <g shape-rendering="crispEdges" stroke-width="0.3" id="img-0ea14037-10">
        <g stroke="#000000" stroke-opacity="0.000" class="geometry" fill="#00BFFF" id="img-0ea14037-11">
          <rect x="18.74" y="65.46" width="1.23" height="14.86"/>
          <rect x="19.92" y="80.1" width="1.23" height="0.22"/>
          <rect x="21.11" y="80" width="1.23" height="0.32"/>
          <rect x="22.29" y="79.95" width="1.23" height="0.37"/>
          <rect x="23.47" y="79.85" width="1.23" height="0.46"/>
          <rect x="24.66" y="79.8" width="1.23" height="0.51"/>
          <rect x="25.84" y="79.51" width="1.23" height="0.81"/>
          <rect x="27.02" y="79.22" width="1.23" height="1.1"/>
          <rect x="28.2" y="79" width="1.23" height="1.32"/>
          <rect x="29.39" y="78.92" width="1.23" height="1.39"/>
          <rect x="30.57" y="78.48" width="1.23" height="1.83"/>
          <rect x="31.75" y="78.75" width="1.23" height="1.56"/>
          <rect x="32.94" y="78.87" width="1.23" height="1.44"/>
          <rect x="34.12" y="77.94" width="1.23" height="2.37"/>
          <rect x="35.3" y="78.04" width="1.23" height="2.27"/>
          <rect x="36.49" y="77.82" width="1.23" height="2.49"/>
          <rect x="37.67" y="77.87" width="1.23" height="2.44"/>
          <rect x="38.85" y="77.65" width="1.23" height="2.66"/>
          <rect x="40.03" y="77.97" width="1.23" height="2.35"/>
          <rect x="41.22" y="77.28" width="1.23" height="3.03"/>
          <rect x="42.4" y="77.87" width="1.23" height="2.44"/>
          <rect x="43.58" y="77.19" width="1.23" height="3.13"/>
          <rect x="44.77" y="77.55" width="1.23" height="2.76"/>
          <rect x="45.95" y="77.04" width="1.23" height="3.27"/>
          <rect x="47.13" y="77.46" width="1.23" height="2.86"/>
          <rect x="48.31" y="77.58" width="1.23" height="2.74"/>
          <rect x="49.5" y="77.68" width="1.23" height="2.64"/>
          <rect x="50.68" y="77.55" width="1.23" height="2.76"/>
          <rect x="51.86" y="77.21" width="1.23" height="3.1"/>
          <rect x="53.05" y="78.04" width="1.23" height="2.27"/>
          <rect x="54.23" y="77.75" width="1.23" height="2.57"/>
          <rect x="55.41" y="77.68" width="1.23" height="2.64"/>
          <rect x="56.59" y="77.6" width="1.23" height="2.71"/>
          <rect x="57.78" y="77.5" width="1.23" height="2.81"/>
          <rect x="58.96" y="78.09" width="1.23" height="2.22"/>
          <rect x="60.14" y="77.36" width="1.23" height="2.96"/>
          <rect x="61.33" y="77.99" width="1.23" height="2.32"/>
          <rect x="62.51" y="77.46" width="1.23" height="2.86"/>
          <rect x="63.69" y="77.85" width="1.23" height="2.47"/>
          <rect x="64.87" y="78.02" width="1.23" height="2.3"/>
          <rect x="66.06" y="78.29" width="1.23" height="2.03"/>
          <rect x="67.24" y="78.24" width="1.23" height="2.08"/>
          <rect x="68.42" y="78.36" width="1.23" height="1.96"/>
          <rect x="69.61" y="78.68" width="1.23" height="1.64"/>
          <rect x="70.79" y="78.53" width="1.23" height="1.78"/>
          <rect x="71.97" y="78.38" width="1.23" height="1.93"/>
          <rect x="73.15" y="78.82" width="1.23" height="1.49"/>
          <rect x="74.34" y="78.38" width="1.23" height="1.93"/>
          <rect x="75.52" y="78.6" width="1.23" height="1.71"/>
          <rect x="76.7" y="78.9" width="1.23" height="1.42"/>
          <rect x="77.89" y="78.58" width="1.23" height="1.74"/>
          <rect x="79.07" y="78.87" width="1.23" height="1.44"/>
          <rect x="80.25" y="78.65" width="1.23" height="1.66"/>
          <rect x="81.43" y="78.75" width="1.23" height="1.56"/>
          <rect x="82.62" y="78.56" width="1.23" height="1.76"/>
          <rect x="83.8" y="78.8" width="1.23" height="1.52"/>
          <rect x="84.98" y="79.02" width="1.23" height="1.3"/>
          <rect x="86.17" y="78.73" width="1.23" height="1.59"/>
          <rect x="87.35" y="78.6" width="1.23" height="1.71"/>
          <rect x="88.53" y="78.95" width="1.23" height="1.37"/>
          <rect x="89.72" y="78.95" width="1.23" height="1.37"/>
          <rect x="90.9" y="79.12" width="1.23" height="1.2"/>
          <rect x="92.08" y="79.26" width="1.23" height="1.05"/>
          <rect x="93.26" y="79.34" width="1.23" height="0.98"/>
          <rect x="94.45" y="79.14" width="1.23" height="1.17"/>
          <rect x="95.63" y="79.44" width="1.23" height="0.88"/>
          <rect x="96.81" y="79.12" width="1.23" height="1.2"/>
          <rect x="98" y="79.44" width="1.23" height="0.88"/>
          <rect x="99.18" y="79.41" width="1.23" height="0.9"/>
          <rect x="100.36" y="79.58" width="1.23" height="0.73"/>
          <rect x="101.54" y="79.22" width="1.23" height="1.1"/>
          <rect x="102.73" y="79.29" width="1.23" height="1.03"/>
          <rect x="103.91" y="79.51" width="1.23" height="0.81"/>
          <rect x="105.09" y="79.17" width="1.23" height="1.15"/>
          <rect x="106.28" y="79.29" width="1.23" height="1.03"/>
          <rect x="107.46" y="79.51" width="1.23" height="0.81"/>
          <rect x="108.64" y="79.24" width="1.23" height="1.08"/>
          <rect x="109.82" y="79.44" width="1.23" height="0.88"/>
          <rect x="111.01" y="79.58" width="1.23" height="0.73"/>
          <rect x="112.19" y="79.31" width="1.23" height="1"/>
          <rect x="113.37" y="79.46" width="1.23" height="0.86"/>
          <rect x="114.56" y="79.44" width="1.23" height="0.88"/>
          <rect x="115.74" y="79.63" width="1.23" height="0.68"/>
          <rect x="116.92" y="79.75" width="1.23" height="0.56"/>
          <rect x="118.1" y="79.48" width="1.23" height="0.83"/>
          <rect x="119.29" y="79.78" width="1.23" height="0.54"/>
          <rect x="120.47" y="79.7" width="1.23" height="0.61"/>
          <rect x="121.65" y="79.68" width="1.23" height="0.64"/>
          <rect x="122.84" y="79.66" width="1.23" height="0.66"/>
          <rect x="124.02" y="79.48" width="1.23" height="0.83"/>
          <rect x="125.2" y="79.46" width="1.23" height="0.86"/>
          <rect x="126.38" y="79.85" width="1.23" height="0.46"/>
          <rect x="127.57" y="79.66" width="1.23" height="0.66"/>
          <rect x="128.75" y="79.73" width="1.23" height="0.59"/>
          <rect x="129.93" y="79.73" width="1.23" height="0.59"/>
          <rect x="131.12" y="79.97" width="1.23" height="0.34"/>
          <rect x="132.3" y="79.75" width="1.23" height="0.56"/>
          <rect x="133.48" y="79.61" width="1.23" height="0.71"/>
          <rect x="134.66" y="79.83" width="1.23" height="0.49"/>
          <rect x="135.85" y="79.83" width="1.23" height="0.49"/>
          <rect x="137.03" y="79.8" width="1.23" height="0.51"/>
          <rect x="138.21" y="79.78" width="1.23" height="0.54"/>
          <rect x="139.4" y="79.78" width="1.23" height="0.54"/>
          <rect x="140.58" y="79.88" width="1.23" height="0.44"/>
          <rect x="141.76" y="79.88" width="1.23" height="0.44"/>
          <rect x="142.95" y="79.85" width="1.23" height="0.46"/>
          <rect x="144.13" y="79.8" width="1.23" height="0.51"/>
          <rect x="145.31" y="80.02" width="1.23" height="0.29"/>
          <rect x="146.49" y="80" width="1.23" height="0.32"/>
          <rect x="147.68" y="80" width="1.23" height="0.32"/>
          <rect x="148.86" y="79.95" width="1.23" height="0.37"/>
          <rect x="150.04" y="80.02" width="1.23" height="0.29"/>
          <rect x="151.23" y="79.9" width="1.23" height="0.42"/>
          <rect x="152.41" y="80.05" width="1.23" height="0.27"/>
          <rect x="153.59" y="80.1" width="1.23" height="0.22"/>
          <rect x="154.77" y="79.92" width="1.23" height="0.39"/>
          <rect x="155.96" y="79.9" width="1.23" height="0.42"/>
          <rect x="157.14" y="80" width="1.23" height="0.32"/>
          <rect x="158.32" y="79.95" width="1.23" height="0.37"/>
          <rect x="159.51" y="80.1" width="1.23" height="0.22"/>
          <rect x="160.69" y="80.02" width="1.23" height="0.29"/>
          <rect x="161.87" y="80.05" width="1.23" height="0.27"/>
          <rect x="163.05" y="80.05" width="1.23" height="0.27"/>
          <rect x="164.24" y="79.95" width="1.23" height="0.37"/>
          <rect x="165.42" y="79.92" width="1.23" height="0.39"/>
          <rect x="166.6" y="79.95" width="1.23" height="0.37"/>
          <rect x="167.79" y="80.02" width="1.23" height="0.29"/>
          <rect x="168.97" y="80.05" width="1.23" height="0.27"/>
          <rect x="170.15" y="80.12" width="1.23" height="0.2"/>
          <rect x="171.33" y="80.02" width="1.23" height="0.29"/>
          <rect x="172.52" y="80.02" width="1.23" height="0.29"/>
          <rect x="173.7" y="79.95" width="1.23" height="0.37"/>
          <rect x="174.88" y="80.05" width="1.23" height="0.27"/>
          <rect x="176.07" y="79.97" width="1.23" height="0.34"/>
          <rect x="177.25" y="80.17" width="1.23" height="0.15"/>
          <rect x="178.43" y="80.17" width="1.23" height="0.15"/>
          <rect x="179.61" y="80.02" width="1.23" height="0.29"/>
          <rect x="180.8" y="80.14" width="1.23" height="0.17"/>
          <rect x="181.98" y="80.07" width="1.23" height="0.24"/>
          <rect x="183.16" y="80.07" width="1.23" height="0.24"/>
          <rect x="184.35" y="80.14" width="1.23" height="0.17"/>
          <rect x="185.53" y="80.05" width="1.23" height="0.27"/>
          <rect x="186.71" y="80.12" width="1.23" height="0.2"/>
          <rect x="187.89" y="80" width="1.23" height="0.32"/>
          <rect x="189.08" y="80.19" width="1.23" height="0.12"/>
          <rect x="190.26" y="80.19" width="1.23" height="0.12"/>
          <rect x="191.44" y="80.12" width="1.23" height="0.2"/>
          <rect x="192.63" y="80" width="1.23" height="0.32"/>
          <rect x="193.81" y="80.1" width="1.23" height="0.22"/>
          <rect x="194.99" y="16.07" width="1.23" height="64.25"/>
        </g>
      </g>
    </g>
  </g>
</g>
  <g class="guide ylabels" font-size="2.82" font-family="'PT Sans Caption','Helvetica Neue','Helvetica',sans-serif" fill="#6C606B" id="img-0ea14037-12">
    <text x="15.77" y="80.31" text-anchor="end" dy="0.35em">0</text>
    <text x="15.77" y="55.88" text-anchor="end" dy="0.35em">1×10³</text>
    <text x="15.77" y="31.44" text-anchor="end" dy="0.35em">2×10³</text>
    <text x="15.77" y="7" text-anchor="end" dy="0.35em">3×10³</text>
  </g>
</g>
<defs>
  <clipPath id="img-0ea14037-4">
  <path d="M16.77,5 L 198.2 5 198.2 82.32 16.77 82.32" />
</clipPath>
</defs>
</svg>
