<?xml version="1.0" encoding="UTF-8"?>
<svg xmlns="http://www.w3.org/2000/svg"
     xmlns:xlink="http://www.w3.org/1999/xlink"
     xmlns:gadfly="http://www.gadflyjl.org/ns"
     version="1.2"
     width="203.2mm" height="101.6mm" viewBox="0 0 203.2 101.6"
     stroke="none"
     fill="#000000"
     stroke-width="0.3"
     font-size="3.88"
>
<g class="plotroot xscalable yscalable" id="img-ab206ea2-1">
  <g font-size="3.88" font-family="'PT Sans','Helvetica Neue','Helvetica',sans-serif" fill="#564A55" stroke="#000000" stroke-opacity="0.000" id="img-ab206ea2-2">
    <text x="104.61" y="89.99" text-anchor="middle" dy="0.6em">σ₁</text>
  </g>
  <g class="guide xlabels" font-size="2.82" font-family="'PT Sans Caption','Helvetica Neue','Helvetica',sans-serif" fill="#6C606B" id="img-ab206ea2-3">
    <text x="13.02" y="83.31" text-anchor="middle" dy="0.6em">0</text>
    <text x="49.66" y="83.31" text-anchor="middle" dy="0.6em">1</text>
    <text x="86.29" y="83.31" text-anchor="middle" dy="0.6em">2</text>
    <text x="122.93" y="83.31" text-anchor="middle" dy="0.6em">3</text>
    <text x="159.56" y="83.31" text-anchor="middle" dy="0.6em">4</text>
    <text x="196.2" y="83.31" text-anchor="middle" dy="0.6em">5</text>
  </g>
<g clip-path="url(#img-ab206ea2-4)">
  <g id="img-ab206ea2-5">
    <g pointer-events="visible" opacity="1" fill="#000000" fill-opacity="0.000" stroke="#000000" stroke-opacity="0.000" class="guide background" id="img-ab206ea2-6">
      <rect x="11.02" y="5" width="187.18" height="77.31"/>
    </g>
    <g class="guide ygridlines xfixed" stroke-dasharray="0.5,0.5" stroke-width="0.2" stroke="#D0D0E0" id="img-ab206ea2-7">
      <path fill="none" d="M11.02,80.31 L 198.2 80.31"/>
      <path fill="none" d="M11.02,43.66 L 198.2 43.66"/>
      <path fill="none" d="M11.02,7 L 198.2 7"/>
    </g>
    <g class="guide xgridlines yfixed" stroke-dasharray="0.5,0.5" stroke-width="0.2" stroke="#D0D0E0" id="img-ab206ea2-8">
      <path fill="none" d="M13.02,5 L 13.02 82.31"/>
      <path fill="none" d="M49.66,5 L 49.66 82.31"/>
      <path fill="none" d="M86.29,5 L 86.29 82.31"/>
      <path fill="none" d="M122.93,5 L 122.93 82.31"/>
      <path fill="none" d="M159.56,5 L 159.56 82.31"/>
      <path fill="none" d="M196.2,5 L 196.2 82.31"/>
    </g>
    <g class="plotpanel" id="img-ab206ea2-9">
      <g stroke-width="0.3" fill="#000000" fill-opacity="0.000" class="geometry" stroke-dasharray="none" stroke="#00BFFF" id="img-ab206ea2-10">
        <path fill="none" d="M59.72,80.31 L 60.22 80.31 60.72 80.31 61.22 80.31 61.72 80.31 62.23 80.31 62.73 80.31 63.23 80.31 63.73 80.31 64.24 80.31 64.74 80.3 65.24 80.3 65.74 80.29 66.25 80.28 66.75 80.28 67.25 80.27 67.75 80.27 68.26 80.26 68.76 80.27 69.26 80.27 69.76 80.27 70.26 80.28 70.77 80.28 71.27 80.29 71.77 80.29 72.27 80.28 72.78 80.28 73.28 80.26 73.78 80.24 74.28 80.22 74.79 80.19 75.29 80.15 75.79 80.11 76.29 80.06 76.8 80.01 77.3 79.95 77.8 79.89 78.3 79.82 78.8 79.75 79.31 79.69 79.81 79.61 80.31 79.54 80.81 79.45 81.32 79.37 81.82 79.27 82.32 79.16 82.82 79.04 83.33 78.89 83.83 78.73 84.33 78.53 84.83 78.29 85.34 78.02 85.84 77.71 86.34 77.37 86.84 77.01 87.34 76.63 87.85 76.26 88.35 75.88 88.85 75.5 89.35 75.11 89.86 74.71 90.36 74.28 90.86 73.81 91.36 73.29 91.87 72.72 92.37 72.09 92.87 71.41 93.37 70.69 93.88 69.94 94.38 69.16 94.88 68.35 95.38 67.51 95.89 66.64 96.39 65.73 96.89 64.77 97.39 63.78 97.89 62.77 98.4 61.74 98.9 60.72 99.4 59.71 99.9 58.72 100.41 57.72 100.91 56.7 101.41 55.64 101.91 54.52 102.42 53.29 102.92 51.96 103.42 50.52 103.92 48.98 104.43 47.36 104.93 45.7 105.43 44.04 105.93 42.41 106.43 40.84 106.94 39.35 107.44 37.93 107.94 36.59 108.44 35.32 108.95 34.08 109.45 32.87 109.95 31.65 110.45 30.41 110.96 29.14 111.46 27.84 111.96 26.51 112.46 25.17 112.97 23.85 113.47 22.56 113.97 21.33 114.47 20.19 114.97 19.16 115.48 18.27 115.98 17.5 116.48 16.88 116.98 16.38 117.49 15.98 117.99 15.66 118.49 15.37 118.99 15.08 119.5 14.77 120 14.39 120.5 13.95 121 13.43 121.51 12.86 122.01 12.25 122.51 11.63 123.01 11.06 123.51 10.58 124.02 10.22 124.52 10.02 125.02 9.99 125.52 10.13 126.03 10.44 126.53 10.89 127.03 11.46 127.53 12.13 128.04 12.9 128.54 13.74 129.04 14.65 129.54 15.61 130.05 16.59 130.55 17.56 131.05 18.52 131.55 19.45 132.05 20.37 132.56 21.29 133.06 22.27 133.56 23.34 134.06 24.53 134.57 25.84 135.07 27.26 135.57 28.76 136.07 30.31 136.58 31.85 137.08 33.36 137.58 34.82 138.08 36.24 138.59 37.62 139.09 38.99 139.59 40.35 140.09 41.73 140.6 43.13 141.1 44.55 141.6 45.99 142.1 47.42 142.6 48.83 143.11 50.19 143.61 51.49 144.11 52.71 144.61 53.86 145.12 54.94 145.62 55.99 146.12 57.02 146.62 58.05 147.13 59.11 147.63 60.17 148.13 61.23 148.63 62.25 149.14 63.22 149.64 64.13 150.14 64.96 150.64 65.73 151.14 66.44 151.65 67.12 152.15 67.76 152.65 68.39 153.15 69.01 153.66 69.62 154.16 70.21 154.66 70.8 155.16 71.37 155.67 71.92 156.17 72.45 156.67 72.98 157.17 73.49 157.68 73.99 158.18 74.48 158.68 74.95 159.18 75.4 159.68 75.83 160.19 76.22 160.69 76.56 161.19 76.87 161.69 77.13 162.2 77.36 162.7 77.56 163.2 77.74 163.7 77.91 164.21 78.06 164.71 78.21 165.21 78.35 165.71 78.49 166.22 78.63 166.72 78.78 167.22 78.93 167.72 79.09 168.22 79.23 168.73 79.37 169.23 79.5 169.73 79.62 170.23 79.72 170.74 79.81 171.24 79.89 171.74 79.95 172.24 80 172.75 80.04 173.25 80.07 173.75 80.09 174.25 80.11 174.76 80.12 175.26 80.12 175.76 80.13 176.26 80.13 176.77 80.13 177.27 80.14 177.77 80.15 178.27 80.16 178.77 80.18 179.28 80.19 179.78 80.21 180.28 80.23 180.78 80.25 181.29 80.27 181.79 80.28 182.29 80.29 182.79 80.3 183.3 80.3 183.8 80.31 184.3 80.31 184.8 80.31 185.31 80.31 185.81 80.31 186.31 80.31 186.81 80.31 187.31 80.31 187.82 80.31"/>
      </g>
    </g>
  </g>
</g>
  <g class="guide ylabels" font-size="2.82" font-family="'PT Sans Caption','Helvetica Neue','Helvetica',sans-serif" fill="#6C606B" id="img-ab206ea2-11">
    <text x="10.02" y="80.31" text-anchor="end" dy="0.35em">0.0</text>
    <text x="10.02" y="43.66" text-anchor="end" dy="0.35em">0.5</text>
    <text x="10.02" y="7" text-anchor="end" dy="0.35em">1.0</text>
  </g>
</g>
<defs>
  <clipPath id="img-ab206ea2-4">
  <path d="M11.02,5 L 198.2 5 198.2 82.31 11.02 82.31" />
</clipPath>
</defs>
</svg>
