<?xml version="1.0" encoding="UTF-8"?>
<svg xmlns="http://www.w3.org/2000/svg"
     xmlns:xlink="http://www.w3.org/1999/xlink"
     xmlns:gadfly="http://www.gadflyjl.org/ns"
     version="1.2"
     width="203.2mm" height="101.6mm" viewBox="0 0 203.2 101.6"
     stroke="none"
     fill="#000000"
     stroke-width="0.3"
     font-size="3.88"
>
<g class="plotroot xscalable yscalable" id="img-e93946fa-1">
  <g font-size="3.88" font-family="'PT Sans','Helvetica Neue','Helvetica',sans-serif" fill="#564A55" stroke="#000000" stroke-opacity="0.000" id="img-e93946fa-2">
    <text x="104.61" y="89.99" text-anchor="middle" dy="0.6em">σ₁²</text>
  </g>
  <g class="guide xlabels" font-size="2.82" font-family="'PT Sans Caption','Helvetica Neue','Helvetica',sans-serif" fill="#6C606B" id="img-e93946fa-3">
    <text x="13.02" y="83.32" text-anchor="middle" dy="0.6em">0</text>
    <text x="43.55" y="83.32" text-anchor="middle" dy="0.6em">1.0×10³</text>
    <text x="74.08" y="83.32" text-anchor="middle" dy="0.6em">2.0×10³</text>
    <text x="104.61" y="83.32" text-anchor="middle" dy="0.6em">3.0×10³</text>
    <text x="135.14" y="83.32" text-anchor="middle" dy="0.6em">4.0×10³</text>
    <text x="165.67" y="83.32" text-anchor="middle" dy="0.6em">5.0×10³</text>
    <text x="196.2" y="83.32" text-anchor="middle" dy="0.6em">6.0×10³</text>
  </g>
<g clip-path="url(#img-e93946fa-4)">
  <g id="img-e93946fa-5">
    <g pointer-events="visible" opacity="1" fill="#000000" fill-opacity="0.000" stroke="#000000" stroke-opacity="0.000" class="guide background" id="img-e93946fa-6">
      <rect x="11.02" y="5" width="187.18" height="77.32"/>
    </g>
    <g class="guide xgridlines yfixed" stroke-dasharray="0.5,0.5" stroke-width="0.2" stroke="#D0D0E0" id="img-e93946fa-7">
      <path fill="none" d="M13.02,5 L 13.02 82.32"/>
      <path fill="none" d="M43.55,5 L 43.55 82.32"/>
      <path fill="none" d="M74.08,5 L 74.08 82.32"/>
      <path fill="none" d="M104.61,5 L 104.61 82.32"/>
      <path fill="none" d="M135.14,5 L 135.14 82.32"/>
      <path fill="none" d="M165.67,5 L 165.67 82.32"/>
      <path fill="none" d="M196.2,5 L 196.2 82.32"/>
    </g>
    <g class="guide ygridlines xfixed" stroke-dasharray="0.5,0.5" stroke-width="0.2" stroke="#D0D0E0" id="img-e93946fa-8">
      <path fill="none" d="M11.02,80.31 L 198.2 80.31"/>
      <path fill="none" d="M11.02,72.98 L 198.2 72.98"/>
      <path fill="none" d="M11.02,14.33 L 198.2 14.33"/>
      <path fill="none" d="M11.02,7 L 198.2 7"/>
    </g>
    <g class="plotpanel" id="img-e93946fa-9">
      <g class="yfixed" id="img-e93946fa-10">
        <g stroke-dasharray="none" stroke-width="0.3" stroke="#FF0000" id="img-e93946fa-11">
          <path fill="none" d="M68.47,5 L 68.47 82.32"/>
        </g>
        <g stroke-dasharray="none" stroke-width="0.3" stroke="#FF0000" id="img-e93946fa-12">
          <path fill="none" d="M13.02,5 L 13.02 82.32"/>
        </g>
      </g>
      <g class="yfixed" id="img-e93946fa-13">
        <g stroke-dasharray="none" stroke-width="0.3" stroke="#FFA500" id="img-e93946fa-14">
          <path fill="none" d="M87.75,5 L 87.75 82.32"/>
        </g>
        <g stroke-dasharray="none" stroke-width="0.3" stroke="#FFA500" id="img-e93946fa-15">
          <path fill="none" d="M13.46,5 L 13.46 82.32"/>
        </g>
      </g>
      <g stroke-width="0.3" fill="#000000" fill-opacity="0.000" class="geometry" stroke-dasharray="none" stroke="#00BFFF" id="img-e93946fa-16">
        <path fill="none" d="M13.02,80.17 L 13.02 79.88 13.02 79.58 13.02 79.29 13.02 79 13.02 78.7 13.02 78.41 13.02 78.12 13.02 77.82 13.02 77.53 13.02 77.24 13.02 76.94 13.02 76.65 13.02 76.36 13.02 76.06 13.02 75.77 13.02 75.48 13.02 75.18 13.02 74.89 13.02 74.6 13.02 74.3 13.02 74.01 13.02 73.72 13.02 73.42 13.35 73.13 13.71 72.84 14.01 72.54 14.35 72.25 14.66 71.96 14.88 71.66 15.22 71.37 15.58 71.08 15.86 70.78 16.15 70.49 16.41 70.2 16.7 69.9 16.95 69.61 17.22 69.32 17.51 69.02 17.83 68.73 18.13 68.44 18.36 68.14 18.69 67.85 18.98 67.56 19.19 67.26 19.45 66.97 19.73 66.68 20.02 66.39 20.29 66.09 20.56 65.8 20.77 65.51 20.95 65.21 21.24 64.92 21.5 64.63 21.81 64.33 21.99 64.04 22.28 63.75 22.53 63.45 22.79 63.16 23.06 62.87 23.33 62.57 23.62 62.28 23.83 61.99 24.06 61.69 24.27 61.4 24.54 61.11 24.72 60.81 24.92 60.52 25.16 60.23 25.39 59.93 25.62 59.64 25.89 59.35 26.08 59.05 26.38 58.76 26.64 58.47 26.92 58.17 27.21 57.88 27.48 57.59 27.71 57.29 27.97 57 28.23 56.71 28.5 56.41 28.67 56.12 28.91 55.83 29.15 55.53 29.31 55.24 29.62 54.95 29.89 54.65 30.23 54.36 30.44 54.07 30.7 53.77 30.99 53.48 31.22 53.19 31.47 52.9 31.72 52.6 32 52.31 32.25 52.02 32.52 51.72 32.76 51.43 33.03 51.14 33.33 50.84 33.62 50.55 33.92 50.26 34.2 49.96 34.42 49.67 34.64 49.38 34.88 49.08 35.1 48.79 35.48 48.5 35.71 48.2 36.02 47.91 36.3 47.62 36.57 47.32 36.8 47.03 37.1 46.74 37.4 46.44 37.72 46.15 37.99 45.86 38.27 45.56 38.58 45.27 38.9 44.98 39.23 44.68 39.51 44.39 39.72 44.1 40.05 43.8 40.29 43.51 40.51 43.22 40.77 42.92 41.11 42.63 41.47 42.34 41.73 42.04 42.01 41.75 42.31 41.46 42.57 41.16 42.84 40.87 43.15 40.58 43.46 40.29 43.83 39.99 44.14 39.7 44.46 39.41 44.86 39.11 45.13 38.82 45.46 38.53 45.74 38.23 45.99 37.94 46.29 37.65 46.69 37.35 46.97 37.06 47.31 36.77 47.67 36.47 47.92 36.18 48.24 35.89 48.57 35.59 48.86 35.3 49.22 35.01 49.52 34.71 49.89 34.42 50.27 34.13 50.59 33.83 50.92 33.54 51.26 33.25 51.61 32.95 51.99 32.66 52.34 32.37 52.76 32.07 53.05 31.78 53.34 31.49 53.66 31.19 53.95 30.9 54.28 30.61 54.52 30.31 54.96 30.02 55.36 29.73 55.79 29.43 56.26 29.14 56.62 28.85 57.08 28.55 57.51 28.26 57.94 27.97 58.44 27.67 58.85 27.38 59.33 27.09 59.76 26.8 60.26 26.5 60.62 26.21 61.07 25.92 61.62 25.62 62.01 25.33 62.53 25.04 62.92 24.74 63.38 24.45 63.91 24.16 64.34 23.86 64.72 23.57 65.29 23.28 65.75 22.98 66.4 22.69 67.03 22.4 67.66 22.1 68.05 21.81 68.68 21.52 69.14 21.22 69.71 20.93 70.35 20.64 70.88 20.34 71.5 20.05 72.32 19.76 73.01 19.46 73.68 19.17 74.04 18.88 74.59 18.58 75.35 18.29 76.09 18 77.01 17.7 77.68 17.41 78.56 17.12 79.5 16.82 80.29 16.53 81.01 16.24 82.04 15.94 83.13 15.65 84.09 15.36 85.29 15.06 86.27 14.77 87.22 14.48 88.31 14.18 89.09 13.89 90.09 13.6 91.36 13.31 92.56 13.01 94.13 12.72 95.34 12.43 96.97 12.13 98.44 11.84 99.95 11.55 101.23 11.25 102.78 10.96 104.39 10.67 106 10.37 108.25 10.08 109.94 9.79 113.45 9.49 116.31 9.2 119.81 8.91 123.98 8.61 128.68 8.32 135.43 8.03 143.46 7.73 154.04 7.44 180.89 7.15"/>
      </g>
    </g>
  </g>
</g>
  <g class="guide ylabels" font-size="2.82" font-family="'PT Sans Caption','Helvetica Neue','Helvetica',sans-serif" fill="#6C606B" id="img-e93946fa-17">
    <text x="10.02" y="80.31" text-anchor="end" dy="0.35em">0.0</text>
    <text x="10.02" y="72.98" text-anchor="end" dy="0.35em">0.1</text>
    <text x="10.02" y="14.33" text-anchor="end" dy="0.35em">0.9</text>
    <text x="10.02" y="7" text-anchor="end" dy="0.35em">1.0</text>
  </g>
</g>
<defs>
  <clipPath id="img-e93946fa-4">
  <path d="M11.02,5 L 198.2 5 198.2 82.32 11.02 82.32" />
</clipPath>
</defs>
</svg>
