<?xml version="1.0" encoding="UTF-8"?>
<svg xmlns="http://www.w3.org/2000/svg"
     xmlns:xlink="http://www.w3.org/1999/xlink"
     xmlns:gadfly="http://www.gadflyjl.org/ns"
     version="1.2"
     width="203.2mm" height="101.6mm" viewBox="0 0 203.2 101.6"
     stroke="none"
     fill="#000000"
     stroke-width="0.3"
     font-size="3.88"
>
<g class="plotroot xscalable yscalable" id="img-19ae5559-1">
  <g font-size="3.88" font-family="'PT Sans','Helvetica Neue','Helvetica',sans-serif" fill="#564A55" stroke="#000000" stroke-opacity="0.000" id="img-19ae5559-2">
    <text x="107.7" y="89.99" text-anchor="middle" dy="0.6em">Standard Normal quantiles</text>
  </g>
  <g class="guide xlabels" font-size="2.82" font-family="'PT Sans Caption','Helvetica Neue','Helvetica',sans-serif" fill="#6C606B" id="img-19ae5559-3">
    <text x="19.2" y="83.32" text-anchor="middle" dy="0.6em">-3</text>
    <text x="48.7" y="83.32" text-anchor="middle" dy="0.6em">-2</text>
    <text x="78.2" y="83.32" text-anchor="middle" dy="0.6em">-1</text>
    <text x="107.7" y="83.32" text-anchor="middle" dy="0.6em">0</text>
    <text x="137.2" y="83.32" text-anchor="middle" dy="0.6em">1</text>
    <text x="166.7" y="83.32" text-anchor="middle" dy="0.6em">2</text>
    <text x="196.2" y="83.32" text-anchor="middle" dy="0.6em">3</text>
  </g>
<g clip-path="url(#img-19ae5559-4)">
  <g id="img-19ae5559-5">
    <g pointer-events="visible" opacity="1" fill="#000000" fill-opacity="0.000" stroke="#000000" stroke-opacity="0.000" class="guide background" id="img-19ae5559-6">
      <rect x="17.2" y="5" width="181" height="77.32"/>
    </g>
    <g class="guide ygridlines xfixed" stroke-dasharray="0.5,0.5" stroke-width="0.2" stroke="#D0D0E0" id="img-19ae5559-7">
      <path fill="none" d="M17.2,80.32 L 198.2 80.32"/>
      <path fill="none" d="M17.2,61.99 L 198.2 61.99"/>
      <path fill="none" d="M17.2,43.66 L 198.2 43.66"/>
      <path fill="none" d="M17.2,25.33 L 198.2 25.33"/>
      <path fill="none" d="M17.2,7 L 198.2 7"/>
    </g>
    <g class="guide xgridlines yfixed" stroke-dasharray="0.5,0.5" stroke-width="0.2" stroke="#D0D0E0" id="img-19ae5559-8">
      <path fill="none" d="M19.2,5 L 19.2 82.32"/>
      <path fill="none" d="M48.7,5 L 48.7 82.32"/>
      <path fill="none" d="M78.2,5 L 78.2 82.32"/>
      <path fill="none" d="M107.7,5 L 107.7 82.32"/>
      <path fill="none" d="M137.2,5 L 137.2 82.32"/>
      <path fill="none" d="M166.7,5 L 166.7 82.32"/>
      <path fill="none" d="M196.2,5 L 196.2 82.32"/>
    </g>
    <g class="plotpanel" id="img-19ae5559-9">
      <g stroke-width="0.3" fill="#000000" fill-opacity="0.000" class="geometry" stroke-dasharray="none" stroke="#00BFFF" id="img-19ae5559-10">
        <path fill="none" d="M22.79,53.06 L 33.59 50.82 39.07 50 42.88 49.3 45.84 48.67 48.28 48.36 50.38 47.76 52.21 47.42 53.86 47.09 55.35 46.76 56.72 46.49 57.99 46.26 59.17 46.01 60.28 45.74 61.33 45.56 62.32 45.32 63.26 45.09 64.16 44.89 65.02 44.71 65.85 44.54 66.64 44.33 67.41 44.18 68.15 43.99 68.86 43.86 69.55 43.77 70.23 43.61 70.88 43.49 71.52 43.37 72.14 43.27 72.74 43.12 73.33 42.99 73.91 42.86 74.47 42.73 75.02 42.62 75.56 42.52 76.09 42.39 76.61 42.3 77.12 42.22 77.63 42.11 78.12 42.01 78.6 41.92 79.08 41.78 79.55 41.7 80.01 41.6 80.47 41.49 80.92 41.39 81.36 41.3 81.8 41.22 82.23 41.12 82.66 41.04 83.08 40.95 83.5 40.87 83.91 40.79 84.32 40.71 84.72 40.63 85.12 40.56 85.51 40.49 85.9 40.42 86.29 40.35 86.67 40.26 87.05 40.18 87.43 40.1 87.8 40.02 88.17 39.9 88.54 39.83 88.9 39.77 89.26 39.69 89.62 39.62 89.98 39.54 90.33 39.46 90.68 39.39 91.03 39.31 91.37 39.24 91.72 39.18 92.06 39.09 92.4 39.03 92.74 38.95 93.07 38.9 93.4 38.84 93.74 38.76 94.07 38.68 94.39 38.62 94.72 38.54 95.05 38.47 95.37 38.42 95.69 38.36 96.01 38.28 96.33 38.21 96.65 38.12 96.97 38.06 97.28 37.99 97.6 37.92 97.91 37.84 98.22 37.77 98.53 37.71 98.84 37.63 99.15 37.56 99.46 37.48 99.77 37.41 100.07 37.34 100.38 37.3 100.68 37.25 100.99 37.19 101.29 37.13 101.59 37.06 101.89 37 102.19 36.94 102.5 36.86 102.8 36.8 103.1 36.75 103.39 36.67 103.69 36.6 103.99 36.54 104.29 36.48 104.59 36.42 104.88 36.37 105.18 36.3 105.48 36.25 105.77 36.18 106.07 36.12 106.37 36.05 106.66 35.98 106.96 35.9 107.26 35.82 107.55 35.75 107.85 35.68 108.14 35.61 108.44 35.55 108.73 35.5 109.03 35.45 109.33 35.38 109.62 35.31 109.92 35.24 110.22 35.18 110.51 35.11 110.81 35.04 111.11 34.97 111.41 34.89 111.7 34.82 112 34.77 112.3 34.72 112.6 34.65 112.9 34.6 113.2 34.54 113.5 34.47 113.81 34.39 114.11 34.32 114.41 34.27 114.72 34.21 115.02 34.13 115.33 34.08 115.63 34 115.94 33.95 116.25 33.89 116.56 33.84 116.87 33.77 117.18 33.7 117.49 33.63 117.8 33.53 118.12 33.48 118.43 33.41 118.75 33.34 119.07 33.27 119.39 33.22 119.71 33.13 120.03 33.07 120.35 33 120.68 32.93 121 32.86 121.33 32.78 121.66 32.7 121.99 32.63 122.33 32.54 122.66 32.46 123 32.39 123.34 32.31 123.68 32.22 124.02 32.15 124.37 32.06 124.72 31.97 125.07 31.89 125.42 31.85 125.78 31.77 126.14 31.67 126.5 31.61 126.86 31.54 127.23 31.47 127.6 31.37 127.97 31.28 128.35 31.19 128.73 31.1 129.11 31.01 129.5 30.95 129.89 30.87 130.28 30.77 130.68 30.67 131.08 30.6 131.49 30.51 131.9 30.41 132.32 30.31 132.74 30.2 133.16 30.08 133.6 29.99 134.03 29.89 134.48 29.78 134.93 29.67 135.38 29.56 135.85 29.47 136.32 29.35 136.79 29.25 137.28 29.12 137.77 28.98 138.27 28.88 138.78 28.78 139.3 28.66 139.84 28.55 140.38 28.43 140.93 28.27 141.49 28.16 142.07 28.04 142.66 27.9 143.26 27.79 143.88 27.65 144.52 27.52 145.17 27.39 145.84 27.23 146.54 27.09 147.25 26.91 147.99 26.78 148.76 26.6 149.55 26.46 150.37 26.24 151.24 26.04 152.13 25.79 153.08 25.57 154.07 25.33 155.11 25.07 156.22 24.79 157.41 24.47 158.67 24.17 160.04 23.81 161.54 23.45 163.18 23.11 165.02 22.72 167.12 22.19 169.56 21.59 172.52 20.97 176.33 20.22 181.81 18.87 192.61 16.06"/>
      </g>
    </g>
  </g>
</g>
  <g class="guide ylabels" font-size="2.82" font-family="'PT Sans Caption','Helvetica Neue','Helvetica',sans-serif" fill="#6C606B" id="img-19ae5559-11">
    <text x="16.2" y="80.32" text-anchor="end" dy="0.35em">0</text>
    <text x="16.2" y="61.99" text-anchor="end" dy="0.35em">20</text>
    <text x="16.2" y="43.66" text-anchor="end" dy="0.35em">40</text>
    <text x="16.2" y="25.33" text-anchor="end" dy="0.35em">60</text>
    <text x="16.2" y="7" text-anchor="end" dy="0.35em">80</text>
  </g>
  <g font-size="3.88" font-family="'PT Sans','Helvetica Neue','Helvetica',sans-serif" fill="#564A55" stroke="#000000" stroke-opacity="0.000" id="img-19ae5559-12">
    <text x="9.85" y="43.66" text-anchor="end" dy="0.35em">σ</text>
  </g>
</g>
<defs>
  <clipPath id="img-19ae5559-4">
  <path d="M17.2,5 L 198.2 5 198.2 82.32 17.2 82.32" />
</clipPath>
</defs>
</svg>
