<?xml version="1.0" encoding="UTF-8"?>
<svg xmlns="http://www.w3.org/2000/svg"
     xmlns:xlink="http://www.w3.org/1999/xlink"
     xmlns:gadfly="http://www.gadflyjl.org/ns"
     version="1.2"
     width="203.2mm" height="101.6mm" viewBox="0 0 203.2 101.6"
     stroke="none"
     fill="#000000"
     stroke-width="0.3"
     font-size="3.88"
>
<g class="plotroot xscalable yscalable" id="img-26ec64dc-1">
  <g font-size="3.88" font-family="'PT Sans','Helvetica Neue','Helvetica',sans-serif" fill="#564A55" stroke="#000000" stroke-opacity="0.000" id="img-26ec64dc-2">
    <text x="103.44" y="89.99" text-anchor="middle" dy="0.6em">σ₁</text>
  </g>
  <g class="guide xlabels" font-size="2.82" font-family="'PT Sans Caption','Helvetica Neue','Helvetica',sans-serif" fill="#6C606B" id="img-26ec64dc-3">
    <text x="10.67" y="83.32" text-anchor="middle" dy="0.6em">0.0</text>
    <text x="57.06" y="83.32" text-anchor="middle" dy="0.6em">0.5</text>
    <text x="103.44" y="83.32" text-anchor="middle" dy="0.6em">1.0</text>
    <text x="149.82" y="83.32" text-anchor="middle" dy="0.6em">1.5</text>
    <text x="196.2" y="83.32" text-anchor="middle" dy="0.6em">2.0</text>
  </g>
<g clip-path="url(#img-26ec64dc-4)">
  <g id="img-26ec64dc-5">
    <g pointer-events="visible" opacity="1" fill="#000000" fill-opacity="0.000" stroke="#000000" stroke-opacity="0.000" class="guide background" id="img-26ec64dc-6">
      <rect x="8.67" y="5" width="189.53" height="77.32"/>
    </g>
    <g class="guide ygridlines xfixed" stroke-dasharray="0.5,0.5" stroke-width="0.2" stroke="#D0D0E0" id="img-26ec64dc-7">
      <path fill="none" d="M8.67,80.31 L 198.2 80.31"/>
      <path fill="none" d="M8.67,61.99 L 198.2 61.99"/>
      <path fill="none" d="M8.67,43.66 L 198.2 43.66"/>
      <path fill="none" d="M8.67,25.33 L 198.2 25.33"/>
      <path fill="none" d="M8.67,7 L 198.2 7"/>
    </g>
    <g class="guide xgridlines yfixed" stroke-dasharray="0.5,0.5" stroke-width="0.2" stroke="#D0D0E0" id="img-26ec64dc-8">
      <path fill="none" d="M10.67,5 L 10.67 82.32"/>
      <path fill="none" d="M57.06,5 L 57.06 82.32"/>
      <path fill="none" d="M103.44,5 L 103.44 82.32"/>
      <path fill="none" d="M149.82,5 L 149.82 82.32"/>
      <path fill="none" d="M196.2,5 L 196.2 82.32"/>
    </g>
    <g class="plotpanel" id="img-26ec64dc-9">
      <g stroke-width="0.3" fill="#000000" fill-opacity="0.000" class="geometry" stroke-dasharray="none" stroke="#00BFFF" id="img-26ec64dc-10">
        <path fill="none" d="M39.16,80.31 L 39.61 80.31 40.06 80.31 40.51 80.31 40.97 80.31 41.42 80.31 41.87 80.31 42.32 80.31 42.77 80.3 43.22 80.3 43.68 80.29 44.13 80.27 44.58 80.25 45.03 80.22 45.48 80.2 45.94 80.16 46.39 80.13 46.84 80.1 47.29 80.08 47.74 80.06 48.19 80.04 48.65 80.02 49.1 80 49.55 79.98 50 79.94 50.45 79.9 50.9 79.85 51.36 79.8 51.81 79.74 52.26 79.69 52.71 79.63 53.16 79.57 53.61 79.5 54.07 79.43 54.52 79.34 54.97 79.24 55.42 79.12 55.87 78.97 56.33 78.78 56.78 78.55 57.23 78.27 57.68 77.97 58.13 77.63 58.58 77.28 59.04 76.91 59.49 76.53 59.94 76.15 60.39 75.75 60.84 75.35 61.29 74.93 61.75 74.5 62.2 74.05 62.65 73.58 63.1 73.1 63.55 72.61 64 72.11 64.46 71.61 64.91 71.08 65.36 70.52 65.81 69.9 66.26 69.2 66.72 68.41 67.17 67.54 67.62 66.59 68.07 65.57 68.52 64.51 68.97 63.42 69.43 62.3 69.88 61.14 70.33 59.95 70.78 58.72 71.23 57.45 71.68 56.13 72.14 54.78 72.59 53.4 73.04 52.01 73.49 50.63 73.94 49.29 74.39 47.99 74.85 46.78 75.3 45.65 75.75 44.59 76.2 43.59 76.65 42.62 77.11 41.65 77.56 40.65 78.01 39.62 78.46 38.55 78.91 37.47 79.36 36.41 79.82 35.38 80.27 34.39 80.72 33.45 81.17 32.5 81.62 31.52 82.07 30.47 82.53 29.32 82.98 28.08 83.43 26.78 83.88 25.51 84.33 24.35 84.79 23.39 85.24 22.72 85.69 22.37 86.14 22.34 86.59 22.59 87.04 23.04 87.5 23.65 87.95 24.33 88.4 25.05 88.85 25.79 89.3 26.56 89.75 27.34 90.21 28.15 90.66 28.97 91.11 29.78 91.56 30.56 92.01 31.3 92.46 31.98 92.92 32.6 93.37 33.19 93.82 33.77 94.27 34.36 94.72 34.99 95.18 35.67 95.63 36.41 96.08 37.22 96.53 38.1 96.98 39.05 97.43 40.09 97.89 41.2 98.34 42.4 98.79 43.67 99.24 44.99 99.69 46.35 100.14 47.72 100.6 49.07 101.05 50.4 101.5 51.69 101.95 52.94 102.4 54.15 102.85 55.33 103.31 56.47 103.76 57.59 104.21 58.67 104.66 59.7 105.11 60.68 105.57 61.61 106.02 62.49 106.47 63.31 106.92 64.09 107.37 64.84 107.82 65.57 108.28 66.28 108.73 66.99 109.18 67.7 109.63 68.41 110.08 69.11 110.53 69.8 110.99 70.48 111.44 71.14 111.89 71.8 112.34 72.45 112.79 73.07 113.24 73.66 113.7 74.2 114.15 74.7 114.6 75.15 115.05 75.55 115.5 75.91 115.96 76.24 116.41 76.54 116.86 76.81 117.31 77.07 117.76 77.3 118.21 77.51 118.67 77.71 119.12 77.89 119.57 78.07 120.02 78.25 120.47 78.43 120.92 78.61 121.38 78.8 121.83 78.99 122.28 79.17 122.73 79.33 123.18 79.47 123.63 79.57 124.09 79.65 124.54 79.7 124.99 79.72 125.44 79.74 125.89 79.75 126.35 79.77 126.8 79.78 127.25 79.8 127.7 79.82 128.15 79.85 128.6 79.89 129.06 79.92 129.51 79.95 129.96 79.97 130.41 79.99 130.86 80.01 131.31 80.03 131.77 80.04 132.22 80.04 132.67 80.05 133.12 80.06 133.57 80.07 134.02 80.08 134.48 80.09 134.93 80.11 135.38 80.14 135.83 80.17 136.28 80.19 136.74 80.22 137.19 80.25 137.64 80.27 138.09 80.28 138.54 80.29 138.99 80.3 139.45 80.31 139.9 80.31 140.35 80.31 140.8 80.31 141.25 80.31 141.7 80.31 142.16 80.31 142.61 80.31 143.06 80.31 143.51 80.31 143.96 80.31 144.41 80.31 144.87 80.3 145.32 80.3 145.77 80.29 146.22 80.28 146.67 80.28 147.13 80.28 147.58 80.28 148.03 80.28 148.48 80.28 148.93 80.29 149.38 80.29 149.84 80.3 150.29 80.31 150.74 80.31 151.19 80.31 151.64 80.31 152.09 80.31 152.55 80.31 153 80.31 153.45 80.31 153.9 80.31 154.35 80.31"/>
      </g>
    </g>
  </g>
</g>
  <g class="guide ylabels" font-size="2.82" font-family="'PT Sans Caption','Helvetica Neue','Helvetica',sans-serif" fill="#6C606B" id="img-26ec64dc-11">
    <text x="7.67" y="80.31" text-anchor="end" dy="0.35em">0</text>
    <text x="7.67" y="61.99" text-anchor="end" dy="0.35em">1</text>
    <text x="7.67" y="43.66" text-anchor="end" dy="0.35em">2</text>
    <text x="7.67" y="25.33" text-anchor="end" dy="0.35em">3</text>
    <text x="7.67" y="7" text-anchor="end" dy="0.35em">4</text>
  </g>
</g>
<defs>
  <clipPath id="img-26ec64dc-4">
  <path d="M8.67,5 L 198.2 5 198.2 82.32 8.67 82.32" />
</clipPath>
</defs>
</svg>
