<?xml version="1.0" encoding="UTF-8"?>
<svg xmlns="http://www.w3.org/2000/svg"
     xmlns:xlink="http://www.w3.org/1999/xlink"
     xmlns:gadfly="http://www.gadflyjl.org/ns"
     version="1.2"
     width="141.42mm" height="100mm" viewBox="0 0 141.42 100"
     stroke="none"
     fill="#000000"
     stroke-width="0.3"
     font-size="3.88"
>
<defs>
  <marker id="arrow" markerWidth="15" markerHeight="7" refX="5" refY="3.5" orient="auto" markerUnits="strokeWidth">
    <path d="M0,0 L15,3.5 L0,7 z" stroke="context-stroke" fill="context-stroke"/>
  </marker>
</defs>
<g class="plotroot xscalable yscalable" id="img-04d22776-1">
  <g font-size="3.88" font-family="'PT Sans','Helvetica Neue','Helvetica',sans-serif" fill="#564A55" stroke="#000000" stroke-opacity="0.000" id="img-04d22776-2">
    <g transform="translate(73.72,88.39)">
      <g class="primitive">
        <text text-anchor="middle" dy="0.6em">σ₁</text>
      </g>
    </g>
  </g>
  <g class="guide xlabels" font-size="2.82" font-family="'PT Sans Caption','Helvetica Neue','Helvetica',sans-serif" fill="#6C606B" id="img-04d22776-3">
    <g transform="translate(13.02,81.71)">
      <g class="primitive">
        <text text-anchor="middle" dy="0.6em">0</text>
      </g>
    </g>
    <g transform="translate(37.3,81.71)">
      <g class="primitive">
        <text text-anchor="middle" dy="0.6em">1</text>
      </g>
    </g>
    <g transform="translate(61.58,81.71)">
      <g class="primitive">
        <text text-anchor="middle" dy="0.6em">2</text>
      </g>
    </g>
    <g transform="translate(85.86,81.71)">
      <g class="primitive">
        <text text-anchor="middle" dy="0.6em">3</text>
      </g>
    </g>
    <g transform="translate(110.14,81.71)">
      <g class="primitive">
        <text text-anchor="middle" dy="0.6em">4</text>
      </g>
    </g>
    <g transform="translate(134.42,81.71)">
      <g class="primitive">
        <text text-anchor="middle" dy="0.6em">5</text>
      </g>
    </g>
  </g>
  <g clip-path="url(#img-04d22776-4)">
    <g id="img-04d22776-5">
      <g pointer-events="visible" fill="#000000" fill-opacity="0.000" stroke="#000000" stroke-opacity="0.000" class="guide background" id="img-04d22776-6">
        <g transform="translate(73.72,42.86)" id="img-04d22776-7">
          <path d="M-62.7,-37.86 L 62.7 -37.86 62.7 37.86 -62.7 37.86 z" class="primitive"/>
        </g>
      </g>
      <g class="guide ygridlines xfixed" stroke-dasharray="0.5,0.5" stroke-width="0.2" stroke="#D0D0E0" id="img-04d22776-8">
        <g transform="translate(73.72,78.71)" id="img-04d22776-9">
          <path fill="none" d="M-62.7,0 L 62.7 0" class="primitive"/>
        </g>
        <g transform="translate(73.72,42.86)" id="img-04d22776-10">
          <path fill="none" d="M-62.7,0 L 62.7 0" class="primitive"/>
        </g>
        <g transform="translate(73.72,7)" id="img-04d22776-11">
          <path fill="none" d="M-62.7,0 L 62.7 0" class="primitive"/>
        </g>
      </g>
      <g class="guide xgridlines yfixed" stroke-dasharray="0.5,0.5" stroke-width="0.2" stroke="#D0D0E0" id="img-04d22776-12">
        <g transform="translate(13.02,42.86)" id="img-04d22776-13">
          <path fill="none" d="M0,-37.86 L 0 37.86" class="primitive"/>
        </g>
        <g transform="translate(37.3,42.86)" id="img-04d22776-14">
          <path fill="none" d="M0,-37.86 L 0 37.86" class="primitive"/>
        </g>
        <g transform="translate(61.58,42.86)" id="img-04d22776-15">
          <path fill="none" d="M0,-37.86 L 0 37.86" class="primitive"/>
        </g>
        <g transform="translate(85.86,42.86)" id="img-04d22776-16">
          <path fill="none" d="M0,-37.86 L 0 37.86" class="primitive"/>
        </g>
        <g transform="translate(110.14,42.86)" id="img-04d22776-17">
          <path fill="none" d="M0,-37.86 L 0 37.86" class="primitive"/>
        </g>
        <g transform="translate(134.42,42.86)" id="img-04d22776-18">
          <path fill="none" d="M0,-37.86 L 0 37.86" class="primitive"/>
        </g>
      </g>
      <g class="plotpanel" id="img-04d22776-19">
        <metadata>
          <boundingbox value="11.019999999999996mm 5.0mm 125.40135623730951mm 75.71499999999999mm"/>
          <unitbox value="-0.08237140267570389 1.0278881684445373 5.164742805351407 -1.055776336889075"/>
        </metadata>
        <g stroke-width="0.3" fill="#000000" fill-opacity="0.000" class="geometry" id="img-04d22776-20">
          <g class="color_LCHab{Float32}(70.0f0,60.0f0,240.0f0)" stroke-dasharray="none" stroke="#00BFFF" id="img-04d22776-21">
            <g transform="translate(88.67,57.02)" id="img-04d22776-22">
              <path fill="none" d="M-39.98,21.69 L -39.67 21.69 -39.35 21.69 -39.04 21.69 -38.73 21.69 -38.41 21.69 -38.1 21.69 -37.79 21.68 -37.47 21.68 -37.16 21.67 -36.84 21.65 -36.53 21.63 -36.22 21.61 -35.9 21.57 -35.59 21.53 -35.28 21.48 -34.96 21.43 -34.65 21.37 -34.34 21.32 -34.02 21.27 -33.71 21.23 -33.4 21.19 -33.08 21.16 -32.77 21.13 -32.45 21.09 -32.14 21.05 -31.83 21 -31.51 20.93 -31.2 20.85 -30.89 20.76 -30.57 20.65 -30.26 20.54 -29.95 20.43 -29.63 20.31 -29.32 20.18 -29.01 20.05 -28.69 19.9 -28.38 19.73 -28.06 19.55 -27.75 19.34 -27.44 19.11 -27.12 18.86 -26.81 18.59 -26.5 18.3 -26.18 17.99 -25.87 17.67 -25.56 17.33 -25.24 16.98 -24.93 16.62 -24.62 16.24 -24.3 15.85 -23.99 15.43 -23.67 14.98 -23.36 14.49 -23.05 13.97 -22.73 13.4 -22.42 12.78 -22.11 12.11 -21.79 11.4 -21.48 10.65 -21.17 9.85 -20.85 9.01 -20.54 8.13 -20.23 7.21 -19.91 6.25 -19.6 5.26 -19.28 4.24 -18.97 3.2 -18.66 2.15 -18.34 1.1 -18.03 0.03 -17.72 -1.05 -17.4 -2.13 -17.09 -3.23 -16.78 -4.35 -16.46 -5.5 -16.15 -6.69 -15.84 -7.91 -15.52 -9.18 -15.21 -10.48 -14.89 -11.81 -14.58 -13.15 -14.27 -14.5 -13.95 -15.83 -13.64 -17.14 -13.33 -18.43 -13.01 -19.68 -12.7 -20.93 -12.39 -22.16 -12.07 -23.41 -11.76 -24.67 -11.45 -25.96 -11.13 -27.25 -10.82 -28.54 -10.5 -29.8 -10.19 -31.01 -9.88 -32.13 -9.56 -33.15 -9.25 -34.08 -8.94 -34.92 -8.62 -35.71 -8.31 -36.47 -8 -37.23 -7.68 -38.01 -7.37 -38.82 -7.06 -39.64 -6.74 -40.47 -6.43 -41.28 -6.11 -42.06 -5.8 -42.8 -5.49 -43.49 -5.17 -44.13 -4.86 -44.74 -4.55 -45.32 -4.23 -45.87 -3.92 -46.38 -3.61 -46.84 -3.29 -47.22 -2.98 -47.47 -2.67 -47.57 -2.35 -47.48 -2.04 -47.18 -1.72 -46.69 -1.41 -46.03 -1.1 -45.24 -0.78 -44.4 -0.47 -43.57 -0.16 -42.79 0.16 -42.11 0.47 -41.54 0.78 -41.08 1.1 -40.71 1.41 -40.38 1.72 -40.06 2.04 -39.68 2.35 -39.2 2.67 -38.59 2.98 -37.82 3.29 -36.89 3.61 -35.8 3.92 -34.56 4.23 -33.22 4.55 -31.8 4.86 -30.34 5.17 -28.87 5.49 -27.42 5.8 -26 6.11 -24.63 6.43 -23.29 6.74 -21.97 7.06 -20.66 7.37 -19.35 7.68 -18 8 -16.64 8.31 -15.26 8.62 -13.9 8.94 -12.58 9.25 -11.34 9.56 -10.2 9.88 -9.16 10.19 -8.23 10.5 -7.38 10.82 -6.59 11.13 -5.83 11.45 -5.06 11.76 -4.28 12.07 -3.46 12.39 -2.6 12.7 -1.71 13.01 -0.8 13.33 0.11 13.64 1.01 13.95 1.89 14.27 2.73 14.58 3.54 14.89 4.32 15.21 5.06 15.52 5.79 15.84 6.5 16.15 7.21 16.46 7.91 16.78 8.61 17.09 9.31 17.4 10.02 17.72 10.73 18.03 11.44 18.34 12.15 18.66 12.85 18.97 13.54 19.28 14.19 19.6 14.8 19.91 15.35 20.23 15.85 20.54 16.29 20.85 16.68 21.17 17.02 21.48 17.31 21.79 17.57 22.11 17.8 22.42 18 22.73 18.17 23.05 18.33 23.36 18.47 23.67 18.6 23.99 18.73 24.3 18.87 24.62 19.01 24.93 19.17 25.24 19.35 25.56 19.53 25.87 19.73 26.18 19.92 26.5 20.1 26.81 20.28 27.12 20.43 27.44 20.56 27.75 20.66 28.06 20.75 28.38 20.82 28.69 20.87 29.01 20.92 29.32 20.96 29.63 21 29.95 21.05 30.26 21.1 30.57 21.16 30.89 21.21 31.2 21.27 31.51 21.33 31.83 21.38 32.14 21.42 32.45 21.45 32.77 21.48 33.08 21.5 33.4 21.51 33.71 21.52 34.02 21.53 34.34 21.54 34.65 21.56 34.96 21.57 35.28 21.59 35.59 21.61 35.9 21.63 36.22 21.64 36.53 21.66 36.84 21.67 37.16 21.68 37.47 21.68 37.79 21.69 38.1 21.69 38.41 21.69 38.73 21.69 39.04 21.69 39.35 21.69 39.67 21.69 39.98 21.69" class="primitive"/>
            </g>
          </g>
        </g>
      </g>
    </g>
  </g>
  <g class="guide ylabels" font-size="2.82" font-family="'PT Sans Caption','Helvetica Neue','Helvetica',sans-serif" fill="#6C606B" id="img-04d22776-23">
    <g transform="translate(10.02,78.71)" id="img-04d22776-24">
      <g class="primitive">
        <text text-anchor="end" dy="0.35em">0.0</text>
      </g>
    </g>
    <g transform="translate(10.02,42.86)" id="img-04d22776-25">
      <g class="primitive">
        <text text-anchor="end" dy="0.35em">0.5</text>
      </g>
    </g>
    <g transform="translate(10.02,7)" id="img-04d22776-26">
      <g class="primitive">
        <text text-anchor="end" dy="0.35em">1.0</text>
      </g>
    </g>
  </g>
</g>
<defs>
  <clipPath id="img-04d22776-4">
    <path d="M11.02,5 L 136.42 5 136.42 80.71 11.02 80.71" />
  </clipPath>
</defs>
</svg>
