<?xml version="1.0" encoding="UTF-8"?>
<svg xmlns="http://www.w3.org/2000/svg"
     xmlns:xlink="http://www.w3.org/1999/xlink"
     xmlns:gadfly="http://www.gadflyjl.org/ns"
     version="1.2"
     width="141.42mm" height="100mm" viewBox="0 0 141.42 100"
     stroke="none"
     fill="#000000"
     stroke-width="0.3"
     font-size="3.88"
>
<defs>
  <marker id="arrow" markerWidth="15" markerHeight="7" refX="5" refY="3.5" orient="auto" markerUnits="strokeWidth">
    <path d="M0,0 L15,3.5 L0,7 z" stroke="context-stroke" fill="context-stroke"/>
  </marker>
</defs>
<g class="plotroot xscalable yscalable" id="img-47858242-1">
  <g font-size="3.88" font-family="'PT Sans','Helvetica Neue','Helvetica',sans-serif" fill="#564A55" stroke="#000000" stroke-opacity="0.000" id="img-47858242-2">
    <g transform="translate(73.38,88.39)">
      <g class="primitive">
        <text text-anchor="middle" dy="0.6em">σ</text>
      </g>
    </g>
  </g>
  <g class="guide xlabels" font-size="2.82" font-family="'PT Sans Caption','Helvetica Neue','Helvetica',sans-serif" fill="#6C606B" id="img-47858242-3">
    <g transform="translate(12.35,81.72)">
      <g class="primitive">
        <text text-anchor="middle" dy="0.6em">0.3</text>
      </g>
    </g>
    <g transform="translate(36.76,81.72)">
      <g class="primitive">
        <text text-anchor="middle" dy="0.6em">0.4</text>
      </g>
    </g>
    <g transform="translate(61.18,81.72)">
      <g class="primitive">
        <text text-anchor="middle" dy="0.6em">0.5</text>
      </g>
    </g>
    <g transform="translate(85.59,81.72)">
      <g class="primitive">
        <text text-anchor="middle" dy="0.6em">0.6</text>
      </g>
    </g>
    <g transform="translate(110.01,81.72)">
      <g class="primitive">
        <text text-anchor="middle" dy="0.6em">0.7</text>
      </g>
    </g>
    <g transform="translate(134.42,81.72)">
      <g class="primitive">
        <text text-anchor="middle" dy="0.6em">0.8</text>
      </g>
    </g>
  </g>
  <g clip-path="url(#img-47858242-4)">
    <g id="img-47858242-5">
      <g pointer-events="visible" fill="#000000" fill-opacity="0.000" stroke="#000000" stroke-opacity="0.000" class="guide background" id="img-47858242-6">
        <g transform="translate(73.38,42.86)" id="img-47858242-7">
          <path d="M-63.04,-37.86 L 63.04 -37.86 63.04 37.86 -63.04 37.86 z" class="primitive"/>
        </g>
      </g>
      <g class="guide ygridlines xfixed" stroke-dasharray="0.5,0.5" stroke-width="0.2" stroke="#D0D0E0" id="img-47858242-8">
        <g transform="translate(73.38,78.72)" id="img-47858242-9">
          <path fill="none" d="M-63.04,0 L 63.04 0" class="primitive"/>
        </g>
        <g transform="translate(73.38,54.81)" id="img-47858242-10">
          <path fill="none" d="M-63.04,0 L 63.04 0" class="primitive"/>
        </g>
        <g transform="translate(73.38,30.91)" id="img-47858242-11">
          <path fill="none" d="M-63.04,0 L 63.04 0" class="primitive"/>
        </g>
        <g transform="translate(73.38,7)" id="img-47858242-12">
          <path fill="none" d="M-63.04,0 L 63.04 0" class="primitive"/>
        </g>
      </g>
      <g class="guide xgridlines yfixed" stroke-dasharray="0.5,0.5" stroke-width="0.2" stroke="#D0D0E0" id="img-47858242-13">
        <g transform="translate(12.35,42.86)" id="img-47858242-14">
          <path fill="none" d="M0,-37.86 L 0 37.86" class="primitive"/>
        </g>
        <g transform="translate(36.76,42.86)" id="img-47858242-15">
          <path fill="none" d="M0,-37.86 L 0 37.86" class="primitive"/>
        </g>
        <g transform="translate(61.18,42.86)" id="img-47858242-16">
          <path fill="none" d="M0,-37.86 L 0 37.86" class="primitive"/>
        </g>
        <g transform="translate(85.59,42.86)" id="img-47858242-17">
          <path fill="none" d="M0,-37.86 L 0 37.86" class="primitive"/>
        </g>
        <g transform="translate(110.01,42.86)" id="img-47858242-18">
          <path fill="none" d="M0,-37.86 L 0 37.86" class="primitive"/>
        </g>
        <g transform="translate(134.42,42.86)" id="img-47858242-19">
          <path fill="none" d="M0,-37.86 L 0 37.86" class="primitive"/>
        </g>
      </g>
      <g class="plotpanel" id="img-47858242-20">
        <metadata>
          <boundingbox value="10.346666666666664mm 5.0mm 126.07468957064285mm 75.715mm"/>
          <unitbox value="0.2918082937297063 15.418322526668062 0.5163834125405875 -15.836645053336124"/>
        </metadata>
        <g stroke-width="0.3" fill="#000000" fill-opacity="0.000" class="geometry" id="img-47858242-21">
          <g class="color_LCHab{Float32}(70.0f0,60.0f0,240.0f0)" stroke-dasharray="none" stroke="#00BFFF" id="img-47858242-22">
            <g transform="translate(73.94,63.33)" id="img-47858242-23">
              <path fill="none" d="M-37.79,15.38 L -37.5 15.38 -37.2 15.38 -36.9 15.38 -36.61 15.38 -36.31 15.38 -36.01 15.38 -35.72 15.38 -35.42 15.38 -35.12 15.38 -34.83 15.37 -34.53 15.37 -34.24 15.36 -33.94 15.36 -33.64 15.35 -33.35 15.34 -33.05 15.33 -32.75 15.32 -32.46 15.32 -32.16 15.31 -31.86 15.3 -31.57 15.29 -31.27 15.27 -30.97 15.26 -30.68 15.24 -30.38 15.22 -30.09 15.2 -29.79 15.17 -29.49 15.14 -29.2 15.11 -28.9 15.08 -28.6 15.05 -28.31 15.02 -28.01 14.99 -27.71 14.96 -27.42 14.92 -27.12 14.89 -26.82 14.85 -26.53 14.81 -26.23 14.77 -25.94 14.71 -25.64 14.65 -25.34 14.58 -25.05 14.5 -24.75 14.4 -24.45 14.28 -24.16 14.15 -23.86 14 -23.56 13.83 -23.27 13.65 -22.97 13.47 -22.68 13.28 -22.38 13.09 -22.08 12.89 -21.79 12.68 -21.49 12.46 -21.19 12.23 -20.9 11.97 -20.6 11.69 -20.3 11.37 -20.01 11.02 -19.71 10.61 -19.41 10.16 -19.12 9.66 -18.82 9.11 -18.53 8.52 -18.23 7.9 -17.93 7.25 -17.64 6.58 -17.34 5.9 -17.04 5.21 -16.75 4.52 -16.45 3.82 -16.15 3.1 -15.86 2.38 -15.56 1.64 -15.27 0.88 -14.97 0.1 -14.67 -0.71 -14.38 -1.55 -14.08 -2.42 -13.78 -3.35 -13.49 -4.32 -13.19 -5.35 -12.89 -6.43 -12.6 -7.54 -12.3 -8.66 -12 -9.77 -11.71 -10.85 -11.41 -11.9 -11.12 -12.91 -10.82 -13.9 -10.52 -14.89 -10.23 -15.91 -9.93 -16.97 -9.63 -18.1 -9.34 -19.29 -9.04 -20.53 -8.74 -21.78 -8.45 -23.01 -8.15 -24.18 -7.85 -25.27 -7.56 -26.26 -7.26 -27.13 -6.97 -27.9 -6.67 -28.58 -6.37 -29.2 -6.08 -29.78 -5.78 -30.36 -5.48 -30.96 -5.19 -31.6 -4.89 -32.3 -4.59 -33.05 -4.3 -33.83 -4 -34.62 -3.71 -35.38 -3.41 -36.08 -3.11 -36.69 -2.82 -37.19 -2.52 -37.57 -2.22 -37.82 -1.93 -37.95 -1.63 -37.96 -1.33 -37.87 -1.04 -37.68 -0.74 -37.41 -0.44 -37.07 -0.15 -36.67 0.15 -36.22 0.44 -35.73 0.74 -35.21 1.04 -34.65 1.33 -34.05 1.63 -33.41 1.93 -32.72 2.22 -31.97 2.52 -31.17 2.82 -30.32 3.11 -29.43 3.41 -28.53 3.71 -27.62 4 -26.74 4.3 -25.9 4.59 -25.12 4.89 -24.39 5.19 -23.71 5.48 -23.05 5.78 -22.38 6.08 -21.66 6.37 -20.89 6.67 -20.03 6.97 -19.1 7.26 -18.1 7.56 -17.05 7.85 -15.97 8.15 -14.89 8.45 -13.82 8.74 -12.78 9.04 -11.78 9.34 -10.81 9.63 -9.87 9.93 -8.95 10.23 -8.06 10.52 -7.17 10.82 -6.31 11.12 -5.46 11.41 -4.62 11.71 -3.79 12 -2.95 12.3 -2.11 12.6 -1.26 12.89 -0.41 13.19 0.44 13.49 1.26 13.78 2.03 14.08 2.74 14.38 3.39 14.67 3.97 14.97 4.5 15.27 4.99 15.56 5.46 15.86 5.91 16.15 6.36 16.45 6.8 16.75 7.23 17.04 7.65 17.34 8.06 17.64 8.45 17.93 8.85 18.23 9.23 18.53 9.63 18.82 10.02 19.12 10.42 19.41 10.82 19.71 11.2 20.01 11.58 20.3 11.94 20.6 12.27 20.9 12.58 21.19 12.85 21.49 13.09 21.79 13.3 22.08 13.47 22.38 13.62 22.68 13.75 22.97 13.86 23.27 13.97 23.56 14.07 23.86 14.17 24.16 14.27 24.45 14.36 24.75 14.46 25.05 14.56 25.34 14.64 25.64 14.72 25.94 14.79 26.23 14.84 26.53 14.88 26.82 14.91 27.12 14.93 27.42 14.94 27.71 14.95 28.01 14.97 28.31 14.99 28.6 15.01 28.9 15.04 29.2 15.06 29.49 15.09 29.79 15.12 30.09 15.14 30.38 15.17 30.68 15.18 30.97 15.2 31.27 15.21 31.57 15.22 31.86 15.23 32.16 15.24 32.46 15.25 32.75 15.27 33.05 15.28 33.35 15.3 33.64 15.32 33.94 15.33 34.24 15.35 34.53 15.36 34.83 15.37 35.12 15.37 35.42 15.38 35.72 15.38 36.01 15.38 36.31 15.38 36.61 15.38 36.9 15.38 37.2 15.38 37.5 15.38 37.79 15.38" class="primitive"/>
            </g>
          </g>
        </g>
      </g>
    </g>
  </g>
  <g class="guide ylabels" font-size="2.82" font-family="'PT Sans Caption','Helvetica Neue','Helvetica',sans-serif" fill="#6C606B" id="img-47858242-24">
    <g transform="translate(9.35,78.72)" id="img-47858242-25">
      <g class="primitive">
        <text text-anchor="end" dy="0.35em">0</text>
      </g>
    </g>
    <g transform="translate(9.35,54.81)" id="img-47858242-26">
      <g class="primitive">
        <text text-anchor="end" dy="0.35em">5</text>
      </g>
    </g>
    <g transform="translate(9.35,30.91)" id="img-47858242-27">
      <g class="primitive">
        <text text-anchor="end" dy="0.35em">10</text>
      </g>
    </g>
    <g transform="translate(9.35,7)" id="img-47858242-28">
      <g class="primitive">
        <text text-anchor="end" dy="0.35em">15</text>
      </g>
    </g>
  </g>
</g>
<defs>
  <clipPath id="img-47858242-4">
    <path d="M10.35,5 L 136.42 5 136.42 80.72 10.35 80.72" />
  </clipPath>
</defs>
</svg>
