<?xml version="1.0" encoding="UTF-8"?>
<svg xmlns="http://www.w3.org/2000/svg"
     xmlns:xlink="http://www.w3.org/1999/xlink"
     xmlns:gadfly="http://www.gadflyjl.org/ns"
     version="1.2"
     width="141.42mm" height="100mm" viewBox="0 0 141.42 100"
     stroke="none"
     fill="#000000"
     stroke-width="0.3"
     font-size="3.88"
>
<defs>
  <marker id="arrow" markerWidth="15" markerHeight="7" refX="5" refY="3.5" orient="auto" markerUnits="strokeWidth">
    <path d="M0,0 L15,3.5 L0,7 z" stroke="context-stroke" fill="context-stroke"/>
  </marker>
</defs>
<g class="plotroot xscalable yscalable" id="img-84aa42af-1">
  <g font-size="3.88" font-family="'PT Sans','Helvetica Neue','Helvetica',sans-serif" fill="#564A55" stroke="#000000" stroke-opacity="0.000" id="img-84aa42af-2">
    <g transform="translate(81.57,88.39)">
      <g class="primitive">
        <text text-anchor="middle" dy="0.6em">Standard Normal Quantiles</text>
      </g>
    </g>
  </g>
  <g class="guide xlabels" font-size="2.82" font-family="'PT Sans Caption','Helvetica Neue','Helvetica',sans-serif" fill="#6C606B" id="img-84aa42af-3">
    <g transform="translate(28.73,81.72)">
      <g class="primitive">
        <text text-anchor="middle" dy="0.6em">-3</text>
      </g>
    </g>
    <g transform="translate(46.34,81.72)">
      <g class="primitive">
        <text text-anchor="middle" dy="0.6em">-2</text>
      </g>
    </g>
    <g transform="translate(63.96,81.72)">
      <g class="primitive">
        <text text-anchor="middle" dy="0.6em">-1</text>
      </g>
    </g>
    <g transform="translate(81.57,81.72)">
      <g class="primitive">
        <text text-anchor="middle" dy="0.6em">0</text>
      </g>
    </g>
    <g transform="translate(99.19,81.72)">
      <g class="primitive">
        <text text-anchor="middle" dy="0.6em">1</text>
      </g>
    </g>
    <g transform="translate(116.81,81.72)">
      <g class="primitive">
        <text text-anchor="middle" dy="0.6em">2</text>
      </g>
    </g>
    <g transform="translate(134.42,81.72)">
      <g class="primitive">
        <text text-anchor="middle" dy="0.6em">3</text>
      </g>
    </g>
  </g>
  <g clip-path="url(#img-84aa42af-4)">
    <g id="img-84aa42af-5">
      <g pointer-events="visible" fill="#000000" fill-opacity="0.000" stroke="#000000" stroke-opacity="0.000" class="guide background" id="img-84aa42af-6">
        <g transform="translate(81.57,42.86)" id="img-84aa42af-7">
          <path d="M-54.85,-37.86 L 54.85 -37.86 54.85 37.86 -54.85 37.86 z" class="primitive"/>
        </g>
      </g>
      <g class="guide ygridlines xfixed" stroke-dasharray="0.5,0.5" stroke-width="0.2" stroke="#D0D0E0" id="img-84aa42af-8">
        <g transform="translate(81.57,78.72)" id="img-84aa42af-9">
          <path fill="none" d="M-54.85,0 L 54.85 0" class="primitive"/>
        </g>
        <g transform="translate(81.57,66.76)" id="img-84aa42af-10">
          <path fill="none" d="M-54.85,0 L 54.85 0" class="primitive"/>
        </g>
        <g transform="translate(81.57,54.81)" id="img-84aa42af-11">
          <path fill="none" d="M-54.85,0 L 54.85 0" class="primitive"/>
        </g>
        <g transform="translate(81.57,42.86)" id="img-84aa42af-12">
          <path fill="none" d="M-54.85,0 L 54.85 0" class="primitive"/>
        </g>
        <g transform="translate(81.57,30.91)" id="img-84aa42af-13">
          <path fill="none" d="M-54.85,0 L 54.85 0" class="primitive"/>
        </g>
        <g transform="translate(81.57,18.95)" id="img-84aa42af-14">
          <path fill="none" d="M-54.85,0 L 54.85 0" class="primitive"/>
        </g>
        <g transform="translate(81.57,7)" id="img-84aa42af-15">
          <path fill="none" d="M-54.85,0 L 54.85 0" class="primitive"/>
        </g>
      </g>
      <g class="guide xgridlines yfixed" stroke-dasharray="0.5,0.5" stroke-width="0.2" stroke="#D0D0E0" id="img-84aa42af-16">
        <g transform="translate(28.73,42.86)" id="img-84aa42af-17">
          <path fill="none" d="M0,-37.86 L 0 37.86" class="primitive"/>
        </g>
        <g transform="translate(46.34,42.86)" id="img-84aa42af-18">
          <path fill="none" d="M0,-37.86 L 0 37.86" class="primitive"/>
        </g>
        <g transform="translate(63.96,42.86)" id="img-84aa42af-19">
          <path fill="none" d="M0,-37.86 L 0 37.86" class="primitive"/>
        </g>
        <g transform="translate(81.57,42.86)" id="img-84aa42af-20">
          <path fill="none" d="M0,-37.86 L 0 37.86" class="primitive"/>
        </g>
        <g transform="translate(99.19,42.86)" id="img-84aa42af-21">
          <path fill="none" d="M0,-37.86 L 0 37.86" class="primitive"/>
        </g>
        <g transform="translate(116.81,42.86)" id="img-84aa42af-22">
          <path fill="none" d="M0,-37.86 L 0 37.86" class="primitive"/>
        </g>
        <g transform="translate(134.42,42.86)" id="img-84aa42af-23">
          <path fill="none" d="M0,-37.86 L 0 37.86" class="primitive"/>
        </g>
      </g>
      <g class="plotpanel" id="img-84aa42af-24">
        <metadata>
          <boundingbox value="26.72500000000001mm 5.0mm 109.6963562373095mm 75.715mm"/>
          <unitbox value="-3.113532769029971 6167.329010667225 6.227065538059942 -6334.65802133445"/>
        </metadata>
        <g stroke-width="0.3" fill="#000000" fill-opacity="0.000" class="geometry" id="img-84aa42af-25">
          <g class="color_LCHab{Float32}(70.0f0,60.0f0,240.0f0)" stroke-dasharray="none" stroke="#00BFFF" id="img-84aa42af-26">
            <g transform="translate(81.57,65.65)" id="img-84aa42af-27">
              <path fill="none" d="M-50.7,13.07 L -44.25 13.07 -40.98 13.07 -38.71 13.07 -36.94 13.07 -35.48 13.07 -34.23 13.07 -33.13 13.07 -32.15 13.07 -31.26 13.07 -30.44 13.07 -29.68 13.07 -28.98 13.07 -28.31 13.07 -27.69 13.07 -27.1 13.07 -26.53 13.07 -26 13.07 -25.48 13.07 -24.99 13.07 -24.52 13.07 -24.06 13.07 -23.62 13.07 -23.19 13.07 -22.78 13.07 -22.38 13.03 -21.99 12.9 -21.61 12.77 -21.24 12.65 -20.88 12.52 -20.52 12.4 -20.18 12.27 -19.84 12.15 -19.51 12.03 -19.19 11.91 -18.87 11.8 -18.56 11.68 -18.26 11.57 -17.96 11.45 -17.66 11.34 -17.37 11.23 -17.09 11.12 -16.81 11 -16.53 10.9 -16.26 10.8 -15.99 10.7 -15.73 10.59 -15.47 10.48 -15.21 10.38 -14.95 10.28 -14.7 10.17 -14.45 10.07 -14.21 9.97 -13.96 9.86 -13.72 9.76 -13.48 9.66 -13.25 9.56 -13.02 9.46 -12.78 9.36 -12.56 9.26 -12.33 9.16 -12.1 9.05 -11.88 8.95 -11.66 8.85 -11.44 8.75 -11.22 8.66 -11.01 8.56 -10.8 8.46 -10.58 8.35 -10.37 8.25 -10.16 8.16 -9.95 8.07 -9.75 7.97 -9.54 7.86 -9.34 7.75 -9.14 7.65 -8.94 7.55 -8.73 7.46 -8.54 7.36 -8.34 7.25 -8.14 7.16 -7.94 7.06 -7.75 6.96 -7.56 6.87 -7.36 6.76 -7.17 6.66 -6.98 6.56 -6.79 6.46 -6.6 6.36 -6.41 6.26 -6.22 6.16 -6.03 6.05 -5.85 5.95 -5.66 5.84 -5.47 5.74 -5.29 5.63 -5.1 5.53 -4.92 5.43 -4.74 5.34 -4.55 5.23 -4.37 5.12 -4.19 5.02 -4.01 4.91 -3.83 4.81 -3.65 4.7 -3.47 4.61 -3.29 4.51 -3.11 4.39 -2.93 4.28 -2.75 4.18 -2.57 4.08 -2.39 3.97 -2.21 3.87 -2.04 3.77 -1.86 3.66 -1.68 3.55 -1.5 3.44 -1.33 3.34 -1.15 3.23 -0.97 3.13 -0.8 3.02 -0.62 2.9 -0.44 2.79 -0.26 2.69 -0.09 2.59 0.09 2.48 0.26 2.37 0.44 2.27 0.62 2.15 0.8 2.04 0.97 1.93 1.15 1.82 1.33 1.71 1.5 1.6 1.68 1.49 1.86 1.38 2.04 1.26 2.21 1.14 2.39 1.03 2.57 0.91 2.75 0.8 2.93 0.67 3.11 0.56 3.29 0.44 3.47 0.32 3.65 0.21 3.83 0.09 4.01 -0.03 4.19 -0.15 4.37 -0.27 4.55 -0.41 4.74 -0.54 4.92 -0.68 5.1 -0.81 5.29 -0.94 5.47 -1.08 5.66 -1.21 5.85 -1.35 6.03 -1.48 6.22 -1.61 6.41 -1.74 6.6 -1.87 6.79 -2 6.98 -2.14 7.17 -2.28 7.36 -2.42 7.56 -2.57 7.75 -2.7 7.94 -2.84 8.14 -2.98 8.34 -3.13 8.54 -3.29 8.73 -3.44 8.94 -3.6 9.14 -3.76 9.34 -3.91 9.54 -4.08 9.75 -4.24 9.95 -4.4 10.16 -4.57 10.37 -4.75 10.58 -4.92 10.8 -5.08 11.01 -5.25 11.22 -5.43 11.44 -5.61 11.66 -5.78 11.88 -5.97 12.1 -6.15 12.33 -6.34 12.56 -6.53 12.78 -6.72 13.02 -6.92 13.25 -7.09 13.48 -7.29 13.72 -7.49 13.96 -7.69 14.21 -7.91 14.45 -8.13 14.7 -8.36 14.95 -8.58 15.21 -8.79 15.47 -9.01 15.73 -9.25 15.99 -9.48 16.26 -9.73 16.53 -9.98 16.81 -10.24 17.09 -10.49 17.37 -10.76 17.66 -11 17.96 -11.28 18.26 -11.56 18.56 -11.86 18.87 -12.14 19.19 -12.44 19.51 -12.77 19.84 -13.09 20.18 -13.41 20.52 -13.74 20.88 -14.07 21.24 -14.45 21.61 -14.82 21.99 -15.22 22.38 -15.6 22.78 -16.01 23.19 -16.44 23.62 -16.86 24.06 -17.32 24.52 -17.75 24.99 -18.31 25.48 -18.78 26 -19.31 26.53 -19.89 27.1 -20.48 27.69 -21.13 28.31 -21.77 28.98 -22.56 29.68 -23.29 30.44 -24.17 31.26 -25.1 32.15 -26.19 33.13 -27.32 34.23 -28.8 35.48 -30.47 36.94 -32.4 38.71 -34.73 40.98 -37.78 44.25 -42.42 50.7 -52.07" class="primitive"/>
            </g>
          </g>
        </g>
      </g>
    </g>
  </g>
  <g class="guide ylabels" font-size="2.82" font-family="'PT Sans Caption','Helvetica Neue','Helvetica',sans-serif" fill="#6C606B" id="img-84aa42af-28">
    <g transform="translate(25.72,78.72)" id="img-84aa42af-29">
      <g class="primitive">
        <text text-anchor="end" dy="0.35em">0</text>
      </g>
    </g>
    <g transform="translate(25.72,66.76)" id="img-84aa42af-30">
      <g class="primitive">
        <text text-anchor="end" dy="0.35em">1.0×10³</text>
      </g>
    </g>
    <g transform="translate(25.72,54.81)" id="img-84aa42af-31">
      <g class="primitive">
        <text text-anchor="end" dy="0.35em">2.0×10³</text>
      </g>
    </g>
    <g transform="translate(25.72,42.86)" id="img-84aa42af-32">
      <g class="primitive">
        <text text-anchor="end" dy="0.35em">3.0×10³</text>
      </g>
    </g>
    <g transform="translate(25.72,30.91)" id="img-84aa42af-33">
      <g class="primitive">
        <text text-anchor="end" dy="0.35em">4.0×10³</text>
      </g>
    </g>
    <g transform="translate(25.72,18.95)" id="img-84aa42af-34">
      <g class="primitive">
        <text text-anchor="end" dy="0.35em">5.0×10³</text>
      </g>
    </g>
    <g transform="translate(25.72,7)" id="img-84aa42af-35">
      <g class="primitive">
        <text text-anchor="end" dy="0.35em">6.0×10³</text>
      </g>
    </g>
  </g>
  <g font-size="3.88" font-family="'PT Sans','Helvetica Neue','Helvetica',sans-serif" fill="#564A55" stroke="#000000" stroke-opacity="0.000" id="img-84aa42af-36">
    <g transform="translate(8.81,40.86)" id="img-84aa42af-37">
      <g class="primitive">
        <text text-anchor="middle" dy="0.35em" transform="rotate(-90,0, 2)">σ₁²</text>
      </g>
    </g>
  </g>
</g>
<defs>
  <clipPath id="img-84aa42af-4">
    <path d="M26.73,5 L 136.42 5 136.42 80.72 26.73 80.72" />
  </clipPath>
</defs>
</svg>
