<?xml version="1.0" encoding="UTF-8"?>
<svg xmlns="http://www.w3.org/2000/svg"
     xmlns:xlink="http://www.w3.org/1999/xlink"
     xmlns:gadfly="http://www.gadflyjl.org/ns"
     version="1.2"
     width="141.42mm" height="100mm" viewBox="0 0 141.42 100"
     stroke="none"
     fill="#000000"
     stroke-width="0.3"
     font-size="3.88"
>
<defs>
  <marker id="arrow" markerWidth="15" markerHeight="7" refX="5" refY="3.5" orient="auto" markerUnits="strokeWidth">
    <path d="M0,0 L15,3.5 L0,7 z" stroke="context-stroke" fill="context-stroke"/>
  </marker>
</defs>
<g class="plotroot xscalable yscalable" id="img-75ab1487-1">
  <g font-size="3.88" font-family="'PT Sans','Helvetica Neue','Helvetica',sans-serif" fill="#564A55" stroke="#000000" stroke-opacity="0.000" id="img-75ab1487-2">
    <g transform="translate(74.22,88.39)">
      <g class="primitive">
        <text text-anchor="middle" dy="0.6em">κ⁻¹</text>
      </g>
    </g>
  </g>
  <g class="guide xlabels" font-size="2.82" font-family="'PT Sans Caption','Helvetica Neue','Helvetica',sans-serif" fill="#6C606B" id="img-75ab1487-3">
    <g transform="translate(14.02,81.72)">
      <g class="primitive">
        <text text-anchor="middle" dy="0.6em">0.00</text>
      </g>
    </g>
    <g transform="translate(44.12,81.72)">
      <g class="primitive">
        <text text-anchor="middle" dy="0.6em">0.25</text>
      </g>
    </g>
    <g transform="translate(74.22,81.72)">
      <g class="primitive">
        <text text-anchor="middle" dy="0.6em">0.50</text>
      </g>
    </g>
    <g transform="translate(104.32,81.72)">
      <g class="primitive">
        <text text-anchor="middle" dy="0.6em">0.75</text>
      </g>
    </g>
    <g transform="translate(134.42,81.72)">
      <g class="primitive">
        <text text-anchor="middle" dy="0.6em">1.00</text>
      </g>
    </g>
  </g>
  <g clip-path="url(#img-75ab1487-4)">
    <g id="img-75ab1487-5">
      <g pointer-events="visible" fill="#000000" fill-opacity="0.000" stroke="#000000" stroke-opacity="0.000" class="guide background" id="img-75ab1487-6">
        <g transform="translate(74.22,42.86)" id="img-75ab1487-7">
          <path d="M-62.2,-37.86 L 62.2 -37.86 62.2 37.86 -62.2 37.86 z" class="primitive"/>
        </g>
      </g>
      <g class="guide ygridlines xfixed" stroke-dasharray="0.5,0.5" stroke-width="0.2" stroke="#D0D0E0" id="img-75ab1487-8">
        <g transform="translate(74.22,78.71)" id="img-75ab1487-9">
          <path fill="none" d="M-62.2,0 L 62.2 0" class="primitive"/>
        </g>
        <g transform="translate(74.22,60.79)" id="img-75ab1487-10">
          <path fill="none" d="M-62.2,0 L 62.2 0" class="primitive"/>
        </g>
        <g transform="translate(74.22,42.86)" id="img-75ab1487-11">
          <path fill="none" d="M-62.2,0 L 62.2 0" class="primitive"/>
        </g>
        <g transform="translate(74.22,24.93)" id="img-75ab1487-12">
          <path fill="none" d="M-62.2,0 L 62.2 0" class="primitive"/>
        </g>
        <g transform="translate(74.22,7)" id="img-75ab1487-13">
          <path fill="none" d="M-62.2,0 L 62.2 0" class="primitive"/>
        </g>
      </g>
      <g class="guide xgridlines yfixed" stroke-dasharray="0.5,0.5" stroke-width="0.2" stroke="#D0D0E0" id="img-75ab1487-14">
        <g transform="translate(14.02,42.86)" id="img-75ab1487-15">
          <path fill="none" d="M0,-37.86 L 0 37.86" class="primitive"/>
        </g>
        <g transform="translate(44.12,42.86)" id="img-75ab1487-16">
          <path fill="none" d="M0,-37.86 L 0 37.86" class="primitive"/>
        </g>
        <g transform="translate(74.22,42.86)" id="img-75ab1487-17">
          <path fill="none" d="M0,-37.86 L 0 37.86" class="primitive"/>
        </g>
        <g transform="translate(104.32,42.86)" id="img-75ab1487-18">
          <path fill="none" d="M0,-37.86 L 0 37.86" class="primitive"/>
        </g>
        <g transform="translate(134.42,42.86)" id="img-75ab1487-19">
          <path fill="none" d="M0,-37.86 L 0 37.86" class="primitive"/>
        </g>
      </g>
      <g class="plotpanel" id="img-75ab1487-20">
        <metadata>
          <boundingbox value="12.02000000000001mm 5.0mm 124.4013562373095mm 75.715mm"/>
          <unitbox value="-0.016611108566402077 411.15526737781494 1.033222217132804 -422.31053475563"/>
        </metadata>
        <g shape-rendering="crispEdges" stroke-width="0.3" id="img-75ab1487-21">
          <g stroke="#000000" stroke-opacity="0.000" class="geometry" fill="#00BFFF" id="img-75ab1487-22">
            <g transform="translate(14.38,50.12)" id="img-75ab1487-23">
              <path d="M-0.38,-28.6 L 0.38 -28.6 0.38 28.6 -0.38 28.6 z" class="primitive"/>
            </g>
            <g transform="translate(15.09,78.45)" id="img-75ab1487-24">
              <path d="M-0.38,-0.27 L 0.38 -0.27 0.38 0.27 -0.38 0.27 z" class="primitive"/>
            </g>
            <g transform="translate(15.8,78.36)" id="img-75ab1487-25">
              <path d="M-0.38,-0.36 L 0.38 -0.36 0.38 0.36 -0.38 0.36 z" class="primitive"/>
            </g>
            <g transform="translate(16.52,78.36)" id="img-75ab1487-26">
              <path d="M-0.38,-0.36 L 0.38 -0.36 0.38 0.36 -0.38 0.36 z" class="primitive"/>
            </g>
            <g transform="translate(17.23,78.36)" id="img-75ab1487-27">
              <path d="M-0.38,-0.36 L 0.38 -0.36 0.38 0.36 -0.38 0.36 z" class="primitive"/>
            </g>
            <g transform="translate(17.95,78.27)" id="img-75ab1487-28">
              <path d="M-0.38,-0.45 L 0.38 -0.45 0.38 0.45 -0.38 0.45 z" class="primitive"/>
            </g>
            <g transform="translate(18.66,77.91)" id="img-75ab1487-29">
              <path d="M-0.38,-0.81 L 0.38 -0.81 0.38 0.81 -0.38 0.81 z" class="primitive"/>
            </g>
            <g transform="translate(19.37,78.18)" id="img-75ab1487-30">
              <path d="M-0.38,-0.54 L 0.38 -0.54 0.38 0.54 -0.38 0.54 z" class="primitive"/>
            </g>
            <g transform="translate(20.09,77.82)" id="img-75ab1487-31">
              <path d="M-0.38,-0.9 L 0.38 -0.9 0.38 0.9 -0.38 0.9 z" class="primitive"/>
            </g>
            <g transform="translate(20.8,77.46)" id="img-75ab1487-32">
              <path d="M-0.38,-1.26 L 0.38 -1.26 0.38 1.26 -0.38 1.26 z" class="primitive"/>
            </g>
            <g transform="translate(21.52,77.1)" id="img-75ab1487-33">
              <path d="M-0.38,-1.61 L 0.38 -1.61 0.38 1.61 -0.38 1.61 z" class="primitive"/>
            </g>
            <g transform="translate(22.23,75.94)" id="img-75ab1487-34">
              <path d="M-0.38,-2.78 L 0.38 -2.78 0.38 2.78 -0.38 2.78 z" class="primitive"/>
            </g>
            <g transform="translate(22.94,76.83)" id="img-75ab1487-35">
              <path d="M-0.38,-1.88 L 0.38 -1.88 0.38 1.88 -0.38 1.88 z" class="primitive"/>
            </g>
            <g transform="translate(23.66,76.2)" id="img-75ab1487-36">
              <path d="M-0.38,-2.51 L 0.38 -2.51 0.38 2.51 -0.38 2.51 z" class="primitive"/>
            </g>
            <g transform="translate(24.37,75.94)" id="img-75ab1487-37">
              <path d="M-0.38,-2.78 L 0.38 -2.78 0.38 2.78 -0.38 2.78 z" class="primitive"/>
            </g>
            <g transform="translate(25.08,74.59)" id="img-75ab1487-38">
              <path d="M-0.38,-4.12 L 0.38 -4.12 0.38 4.12 -0.38 4.12 z" class="primitive"/>
            </g>
            <g transform="translate(25.8,74.41)" id="img-75ab1487-39">
              <path d="M-0.38,-4.3 L 0.38 -4.3 0.38 4.3 -0.38 4.3 z" class="primitive"/>
            </g>
            <g transform="translate(26.51,72.26)" id="img-75ab1487-40">
              <path d="M-0.38,-6.45 L 0.38 -6.45 0.38 6.45 -0.38 6.45 z" class="primitive"/>
            </g>
            <g transform="translate(27.23,71.45)" id="img-75ab1487-41">
              <path d="M-0.38,-7.26 L 0.38 -7.26 0.38 7.26 -0.38 7.26 z" class="primitive"/>
            </g>
            <g transform="translate(27.94,69.75)" id="img-75ab1487-42">
              <path d="M-0.38,-8.96 L 0.38 -8.96 0.38 8.96 -0.38 8.96 z" class="primitive"/>
            </g>
            <g transform="translate(28.65,70.92)" id="img-75ab1487-43">
              <path d="M-0.38,-7.8 L 0.38 -7.8 0.38 7.8 -0.38 7.8 z" class="primitive"/>
            </g>
            <g transform="translate(29.37,67.51)" id="img-75ab1487-44">
              <path d="M-0.38,-11.21 L 0.38 -11.21 0.38 11.21 -0.38 11.21 z" class="primitive"/>
            </g>
            <g transform="translate(30.08,65.81)" id="img-75ab1487-45">
              <path d="M-0.38,-12.91 L 0.38 -12.91 0.38 12.91 -0.38 12.91 z" class="primitive"/>
            </g>
            <g transform="translate(30.79,61.59)" id="img-75ab1487-46">
              <path d="M-0.38,-17.12 L 0.38 -17.12 0.38 17.12 -0.38 17.12 z" class="primitive"/>
            </g>
            <g transform="translate(31.51,61.95)" id="img-75ab1487-47">
              <path d="M-0.38,-16.76 L 0.38 -16.76 0.38 16.76 -0.38 16.76 z" class="primitive"/>
            </g>
            <g transform="translate(32.22,58.81)" id="img-75ab1487-48">
              <path d="M-0.38,-19.9 L 0.38 -19.9 0.38 19.9 -0.38 19.9 z" class="primitive"/>
            </g>
            <g transform="translate(32.94,56.66)" id="img-75ab1487-49">
              <path d="M-0.38,-22.05 L 0.38 -22.05 0.38 22.05 -0.38 22.05 z" class="primitive"/>
            </g>
            <g transform="translate(33.65,55.41)" id="img-75ab1487-50">
              <path d="M-0.38,-23.31 L 0.38 -23.31 0.38 23.31 -0.38 23.31 z" class="primitive"/>
            </g>
            <g transform="translate(34.36,56.12)" id="img-75ab1487-51">
              <path d="M-0.38,-22.59 L 0.38 -22.59 0.38 22.59 -0.38 22.59 z" class="primitive"/>
            </g>
            <g transform="translate(35.08,53.26)" id="img-75ab1487-52">
              <path d="M-0.38,-25.46 L 0.38 -25.46 0.38 25.46 -0.38 25.46 z" class="primitive"/>
            </g>
            <g transform="translate(35.79,50.48)" id="img-75ab1487-53">
              <path d="M-0.38,-28.24 L 0.38 -28.24 0.38 28.24 -0.38 28.24 z" class="primitive"/>
            </g>
            <g transform="translate(36.51,52.45)" id="img-75ab1487-54">
              <path d="M-0.38,-26.27 L 0.38 -26.27 0.38 26.27 -0.38 26.27 z" class="primitive"/>
            </g>
            <g transform="translate(37.22,49.94)" id="img-75ab1487-55">
              <path d="M-0.38,-28.78 L 0.38 -28.78 0.38 28.78 -0.38 28.78 z" class="primitive"/>
            </g>
            <g transform="translate(37.93,50.3)" id="img-75ab1487-56">
              <path d="M-0.38,-28.42 L 0.38 -28.42 0.38 28.42 -0.38 28.42 z" class="primitive"/>
            </g>
            <g transform="translate(38.65,51.46)" id="img-75ab1487-57">
              <path d="M-0.38,-27.25 L 0.38 -27.25 0.38 27.25 -0.38 27.25 z" class="primitive"/>
            </g>
            <g transform="translate(39.36,52.09)" id="img-75ab1487-58">
              <path d="M-0.38,-26.62 L 0.38 -26.62 0.38 26.62 -0.38 26.62 z" class="primitive"/>
            </g>
            <g transform="translate(40.07,51.19)" id="img-75ab1487-59">
              <path d="M-0.38,-27.52 L 0.38 -27.52 0.38 27.52 -0.38 27.52 z" class="primitive"/>
            </g>
            <g transform="translate(40.79,53.26)" id="img-75ab1487-60">
              <path d="M-0.38,-25.46 L 0.38 -25.46 0.38 25.46 -0.38 25.46 z" class="primitive"/>
            </g>
            <g transform="translate(41.5,53.44)" id="img-75ab1487-61">
              <path d="M-0.38,-25.28 L 0.38 -25.28 0.38 25.28 -0.38 25.28 z" class="primitive"/>
            </g>
            <g transform="translate(42.22,55.59)" id="img-75ab1487-62">
              <path d="M-0.38,-23.13 L 0.38 -23.13 0.38 23.13 -0.38 23.13 z" class="primitive"/>
            </g>
            <g transform="translate(42.93,51.55)" id="img-75ab1487-63">
              <path d="M-0.38,-27.16 L 0.38 -27.16 0.38 27.16 -0.38 27.16 z" class="primitive"/>
            </g>
            <g transform="translate(43.64,58.46)" id="img-75ab1487-64">
              <path d="M-0.38,-20.26 L 0.38 -20.26 0.38 20.26 -0.38 20.26 z" class="primitive"/>
            </g>
            <g transform="translate(44.36,55.05)" id="img-75ab1487-65">
              <path d="M-0.38,-23.67 L 0.38 -23.67 0.38 23.67 -0.38 23.67 z" class="primitive"/>
            </g>
            <g transform="translate(45.07,56.04)" id="img-75ab1487-66">
              <path d="M-0.38,-22.68 L 0.38 -22.68 0.38 22.68 -0.38 22.68 z" class="primitive"/>
            </g>
            <g transform="translate(45.79,58.81)" id="img-75ab1487-67">
              <path d="M-0.38,-19.9 L 0.38 -19.9 0.38 19.9 -0.38 19.9 z" class="primitive"/>
            </g>
            <g transform="translate(46.5,61.32)" id="img-75ab1487-68">
              <path d="M-0.38,-17.39 L 0.38 -17.39 0.38 17.39 -0.38 17.39 z" class="primitive"/>
            </g>
            <g transform="translate(47.21,59.8)" id="img-75ab1487-69">
              <path d="M-0.38,-18.91 L 0.38 -18.91 0.38 18.91 -0.38 18.91 z" class="primitive"/>
            </g>
            <g transform="translate(47.93,59.62)" id="img-75ab1487-70">
              <path d="M-0.38,-19.09 L 0.38 -19.09 0.38 19.09 -0.38 19.09 z" class="primitive"/>
            </g>
            <g transform="translate(48.64,62.85)" id="img-75ab1487-71">
              <path d="M-0.38,-15.87 L 0.38 -15.87 0.38 15.87 -0.38 15.87 z" class="primitive"/>
            </g>
            <g transform="translate(49.35,63.21)" id="img-75ab1487-72">
              <path d="M-0.38,-15.51 L 0.38 -15.51 0.38 15.51 -0.38 15.51 z" class="primitive"/>
            </g>
            <g transform="translate(50.07,65.36)" id="img-75ab1487-73">
              <path d="M-0.38,-13.36 L 0.38 -13.36 0.38 13.36 -0.38 13.36 z" class="primitive"/>
            </g>
            <g transform="translate(50.78,65.99)" id="img-75ab1487-74">
              <path d="M-0.38,-12.73 L 0.38 -12.73 0.38 12.73 -0.38 12.73 z" class="primitive"/>
            </g>
            <g transform="translate(51.5,67.24)" id="img-75ab1487-75">
              <path d="M-0.38,-11.47 L 0.38 -11.47 0.38 11.47 -0.38 11.47 z" class="primitive"/>
            </g>
            <g transform="translate(52.21,68.14)" id="img-75ab1487-76">
              <path d="M-0.38,-10.58 L 0.38 -10.58 0.38 10.58 -0.38 10.58 z" class="primitive"/>
            </g>
            <g transform="translate(52.92,68.59)" id="img-75ab1487-77">
              <path d="M-0.38,-10.13 L 0.38 -10.13 0.38 10.13 -0.38 10.13 z" class="primitive"/>
            </g>
            <g transform="translate(53.64,70.29)" id="img-75ab1487-78">
              <path d="M-0.38,-8.43 L 0.38 -8.43 0.38 8.43 -0.38 8.43 z" class="primitive"/>
            </g>
            <g transform="translate(54.35,70.29)" id="img-75ab1487-79">
              <path d="M-0.38,-8.43 L 0.38 -8.43 0.38 8.43 -0.38 8.43 z" class="primitive"/>
            </g>
            <g transform="translate(55.07,70.65)" id="img-75ab1487-80">
              <path d="M-0.38,-8.07 L 0.38 -8.07 0.38 8.07 -0.38 8.07 z" class="primitive"/>
            </g>
            <g transform="translate(55.78,71.72)" id="img-75ab1487-81">
              <path d="M-0.38,-6.99 L 0.38 -6.99 0.38 6.99 -0.38 6.99 z" class="primitive"/>
            </g>
            <g transform="translate(56.49,72.71)" id="img-75ab1487-82">
              <path d="M-0.38,-6.01 L 0.38 -6.01 0.38 6.01 -0.38 6.01 z" class="primitive"/>
            </g>
            <g transform="translate(57.21,71.9)" id="img-75ab1487-83">
              <path d="M-0.38,-6.81 L 0.38 -6.81 0.38 6.81 -0.38 6.81 z" class="primitive"/>
            </g>
            <g transform="translate(57.92,74.05)" id="img-75ab1487-84">
              <path d="M-0.38,-4.66 L 0.38 -4.66 0.38 4.66 -0.38 4.66 z" class="primitive"/>
            </g>
            <g transform="translate(58.63,74.14)" id="img-75ab1487-85">
              <path d="M-0.38,-4.57 L 0.38 -4.57 0.38 4.57 -0.38 4.57 z" class="primitive"/>
            </g>
            <g transform="translate(59.35,74.41)" id="img-75ab1487-86">
              <path d="M-0.38,-4.3 L 0.38 -4.3 0.38 4.3 -0.38 4.3 z" class="primitive"/>
            </g>
            <g transform="translate(60.06,74.14)" id="img-75ab1487-87">
              <path d="M-0.38,-4.57 L 0.38 -4.57 0.38 4.57 -0.38 4.57 z" class="primitive"/>
            </g>
            <g transform="translate(60.78,75.67)" id="img-75ab1487-88">
              <path d="M-0.38,-3.05 L 0.38 -3.05 0.38 3.05 -0.38 3.05 z" class="primitive"/>
            </g>
            <g transform="translate(61.49,74.41)" id="img-75ab1487-89">
              <path d="M-0.38,-4.3 L 0.38 -4.3 0.38 4.3 -0.38 4.3 z" class="primitive"/>
            </g>
            <g transform="translate(62.2,75.31)" id="img-75ab1487-90">
              <path d="M-0.38,-3.41 L 0.38 -3.41 0.38 3.41 -0.38 3.41 z" class="primitive"/>
            </g>
            <g transform="translate(62.92,76.12)" id="img-75ab1487-91">
              <path d="M-0.38,-2.6 L 0.38 -2.6 0.38 2.6 -0.38 2.6 z" class="primitive"/>
            </g>
            <g transform="translate(63.63,75.04)" id="img-75ab1487-92">
              <path d="M-0.38,-3.68 L 0.38 -3.68 0.38 3.68 -0.38 3.68 z" class="primitive"/>
            </g>
            <g transform="translate(64.34,76.2)" id="img-75ab1487-93">
              <path d="M-0.38,-2.51 L 0.38 -2.51 0.38 2.51 -0.38 2.51 z" class="primitive"/>
            </g>
            <g transform="translate(65.06,76.56)" id="img-75ab1487-94">
              <path d="M-0.38,-2.15 L 0.38 -2.15 0.38 2.15 -0.38 2.15 z" class="primitive"/>
            </g>
            <g transform="translate(65.77,76.38)" id="img-75ab1487-95">
              <path d="M-0.38,-2.33 L 0.38 -2.33 0.38 2.33 -0.38 2.33 z" class="primitive"/>
            </g>
            <g transform="translate(66.49,76.92)" id="img-75ab1487-96">
              <path d="M-0.38,-1.79 L 0.38 -1.79 0.38 1.79 -0.38 1.79 z" class="primitive"/>
            </g>
            <g transform="translate(67.2,77.01)" id="img-75ab1487-97">
              <path d="M-0.38,-1.7 L 0.38 -1.7 0.38 1.7 -0.38 1.7 z" class="primitive"/>
            </g>
            <g transform="translate(67.91,76.83)" id="img-75ab1487-98">
              <path d="M-0.38,-1.88 L 0.38 -1.88 0.38 1.88 -0.38 1.88 z" class="primitive"/>
            </g>
            <g transform="translate(68.63,77.01)" id="img-75ab1487-99">
              <path d="M-0.38,-1.7 L 0.38 -1.7 0.38 1.7 -0.38 1.7 z" class="primitive"/>
            </g>
            <g transform="translate(69.34,77.1)" id="img-75ab1487-100">
              <path d="M-0.38,-1.61 L 0.38 -1.61 0.38 1.61 -0.38 1.61 z" class="primitive"/>
            </g>
            <g transform="translate(70.06,78.18)" id="img-75ab1487-101">
              <path d="M-0.38,-0.54 L 0.38 -0.54 0.38 0.54 -0.38 0.54 z" class="primitive"/>
            </g>
            <g transform="translate(70.77,77.01)" id="img-75ab1487-102">
              <path d="M-0.38,-1.7 L 0.38 -1.7 0.38 1.7 -0.38 1.7 z" class="primitive"/>
            </g>
            <g transform="translate(71.48,77.46)" id="img-75ab1487-103">
              <path d="M-0.38,-1.26 L 0.38 -1.26 0.38 1.26 -0.38 1.26 z" class="primitive"/>
            </g>
            <g transform="translate(72.2,77.73)" id="img-75ab1487-104">
              <path d="M-0.38,-0.99 L 0.38 -0.99 0.38 0.99 -0.38 0.99 z" class="primitive"/>
            </g>
            <g transform="translate(72.91,77.91)" id="img-75ab1487-105">
              <path d="M-0.38,-0.81 L 0.38 -0.81 0.38 0.81 -0.38 0.81 z" class="primitive"/>
            </g>
            <g transform="translate(73.62,77.73)" id="img-75ab1487-106">
              <path d="M-0.38,-0.99 L 0.38 -0.99 0.38 0.99 -0.38 0.99 z" class="primitive"/>
            </g>
            <g transform="translate(74.34,78.09)" id="img-75ab1487-107">
              <path d="M-0.38,-0.63 L 0.38 -0.63 0.38 0.63 -0.38 0.63 z" class="primitive"/>
            </g>
            <g transform="translate(75.05,78)" id="img-75ab1487-108">
              <path d="M-0.38,-0.72 L 0.38 -0.72 0.38 0.72 -0.38 0.72 z" class="primitive"/>
            </g>
            <g transform="translate(75.77,78.27)" id="img-75ab1487-109">
              <path d="M-0.38,-0.45 L 0.38 -0.45 0.38 0.45 -0.38 0.45 z" class="primitive"/>
            </g>
            <g transform="translate(76.48,77.82)" id="img-75ab1487-110">
              <path d="M-0.38,-0.9 L 0.38 -0.9 0.38 0.9 -0.38 0.9 z" class="primitive"/>
            </g>
            <g transform="translate(77.19,78.18)" id="img-75ab1487-111">
              <path d="M-0.38,-0.54 L 0.38 -0.54 0.38 0.54 -0.38 0.54 z" class="primitive"/>
            </g>
            <g transform="translate(77.91,78)" id="img-75ab1487-112">
              <path d="M-0.38,-0.72 L 0.38 -0.72 0.38 0.72 -0.38 0.72 z" class="primitive"/>
            </g>
            <g transform="translate(78.62,78.45)" id="img-75ab1487-113">
              <path d="M-0.38,-0.27 L 0.38 -0.27 0.38 0.27 -0.38 0.27 z" class="primitive"/>
            </g>
            <g transform="translate(79.34,78.09)" id="img-75ab1487-114">
              <path d="M-0.38,-0.63 L 0.38 -0.63 0.38 0.63 -0.38 0.63 z" class="primitive"/>
            </g>
            <g transform="translate(80.05,78.27)" id="img-75ab1487-115">
              <path d="M-0.38,-0.45 L 0.38 -0.45 0.38 0.45 -0.38 0.45 z" class="primitive"/>
            </g>
            <g transform="translate(80.76,78.18)" id="img-75ab1487-116">
              <path d="M-0.38,-0.54 L 0.38 -0.54 0.38 0.54 -0.38 0.54 z" class="primitive"/>
            </g>
            <g transform="translate(81.48,78.18)" id="img-75ab1487-117">
              <path d="M-0.38,-0.54 L 0.38 -0.54 0.38 0.54 -0.38 0.54 z" class="primitive"/>
            </g>
            <g transform="translate(82.19,78.54)" id="img-75ab1487-118">
              <path d="M-0.38,-0.18 L 0.38 -0.18 0.38 0.18 -0.38 0.18 z" class="primitive"/>
            </g>
            <g transform="translate(82.9,78.36)" id="img-75ab1487-119">
              <path d="M-0.38,-0.36 L 0.38 -0.36 0.38 0.36 -0.38 0.36 z" class="primitive"/>
            </g>
            <g transform="translate(83.62,77.91)" id="img-75ab1487-120">
              <path d="M-0.38,-0.81 L 0.38 -0.81 0.38 0.81 -0.38 0.81 z" class="primitive"/>
            </g>
            <g transform="translate(84.33,78.18)" id="img-75ab1487-121">
              <path d="M-0.38,-0.54 L 0.38 -0.54 0.38 0.54 -0.38 0.54 z" class="primitive"/>
            </g>
            <g transform="translate(85.05,78.27)" id="img-75ab1487-122">
              <path d="M-0.38,-0.45 L 0.38 -0.45 0.38 0.45 -0.38 0.45 z" class="primitive"/>
            </g>
            <g transform="translate(85.76,78.45)" id="img-75ab1487-123">
              <path d="M-0.38,-0.27 L 0.38 -0.27 0.38 0.27 -0.38 0.27 z" class="primitive"/>
            </g>
            <g transform="translate(86.47,78.63)" id="img-75ab1487-124">
              <path d="M-0.38,-0.09 L 0.38 -0.09 0.38 0.09 -0.38 0.09 z" class="primitive"/>
            </g>
            <g transform="translate(87.19,78.54)" id="img-75ab1487-125">
              <path d="M-0.38,-0.18 L 0.38 -0.18 0.38 0.18 -0.38 0.18 z" class="primitive"/>
            </g>
            <g transform="translate(87.9,78.63)" id="img-75ab1487-126">
              <path d="M-0.38,-0.09 L 0.38 -0.09 0.38 0.09 -0.38 0.09 z" class="primitive"/>
            </g>
            <g transform="translate(88.61,78.63)" id="img-75ab1487-127">
              <path d="M-0.38,-0.09 L 0.38 -0.09 0.38 0.09 -0.38 0.09 z" class="primitive"/>
            </g>
            <g transform="translate(89.33,78.54)" id="img-75ab1487-128">
              <path d="M-0.38,-0.18 L 0.38 -0.18 0.38 0.18 -0.38 0.18 z" class="primitive"/>
            </g>
            <g transform="translate(90.04,78.45)" id="img-75ab1487-129">
              <path d="M-0.38,-0.27 L 0.38 -0.27 0.38 0.27 -0.38 0.27 z" class="primitive"/>
            </g>
            <g transform="translate(90.76,78.45)" id="img-75ab1487-130">
              <path d="M-0.38,-0.27 L 0.38 -0.27 0.38 0.27 -0.38 0.27 z" class="primitive"/>
            </g>
            <g transform="translate(91.47,78.54)" id="img-75ab1487-131">
              <path d="M-0.38,-0.18 L 0.38 -0.18 0.38 0.18 -0.38 0.18 z" class="primitive"/>
            </g>
            <g transform="translate(92.18,78.54)" id="img-75ab1487-132">
              <path d="M-0.38,-0.18 L 0.38 -0.18 0.38 0.18 -0.38 0.18 z" class="primitive"/>
            </g>
            <g transform="translate(92.9,78.63)" id="img-75ab1487-133">
              <path d="M-0.38,-0.09 L 0.38 -0.09 0.38 0.09 -0.38 0.09 z" class="primitive"/>
            </g>
            <g transform="translate(93.61,78.36)" id="img-75ab1487-134">
              <path d="M-0.38,-0.36 L 0.38 -0.36 0.38 0.36 -0.38 0.36 z" class="primitive"/>
            </g>
            <g transform="translate(94.33,78.72)" id="img-75ab1487-135">
              <path d="M-0.38,-0 L 0.38 -0 0.38 0 -0.38 0 z" class="primitive"/>
            </g>
            <g transform="translate(95.04,78.72)" id="img-75ab1487-136">
              <path d="M-0.38,-0 L 0.38 -0 0.38 0 -0.38 0 z" class="primitive"/>
            </g>
            <g transform="translate(95.75,78.72)" id="img-75ab1487-137">
              <path d="M-0.38,-0 L 0.38 -0 0.38 0 -0.38 0 z" class="primitive"/>
            </g>
            <g transform="translate(96.47,78.54)" id="img-75ab1487-138">
              <path d="M-0.38,-0.18 L 0.38 -0.18 0.38 0.18 -0.38 0.18 z" class="primitive"/>
            </g>
            <g transform="translate(97.18,78.54)" id="img-75ab1487-139">
              <path d="M-0.38,-0.18 L 0.38 -0.18 0.38 0.18 -0.38 0.18 z" class="primitive"/>
            </g>
            <g transform="translate(97.89,78.72)" id="img-75ab1487-140">
              <path d="M-0.38,-0 L 0.38 -0 0.38 0 -0.38 0 z" class="primitive"/>
            </g>
            <g transform="translate(98.61,78.27)" id="img-75ab1487-141">
              <path d="M-0.38,-0.45 L 0.38 -0.45 0.38 0.45 -0.38 0.45 z" class="primitive"/>
            </g>
            <g transform="translate(99.32,78.63)" id="img-75ab1487-142">
              <path d="M-0.38,-0.09 L 0.38 -0.09 0.38 0.09 -0.38 0.09 z" class="primitive"/>
            </g>
            <g transform="translate(100.04,78.54)" id="img-75ab1487-143">
              <path d="M-0.38,-0.18 L 0.38 -0.18 0.38 0.18 -0.38 0.18 z" class="primitive"/>
            </g>
            <g transform="translate(100.75,78.54)" id="img-75ab1487-144">
              <path d="M-0.38,-0.18 L 0.38 -0.18 0.38 0.18 -0.38 0.18 z" class="primitive"/>
            </g>
            <g transform="translate(101.46,78.54)" id="img-75ab1487-145">
              <path d="M-0.38,-0.18 L 0.38 -0.18 0.38 0.18 -0.38 0.18 z" class="primitive"/>
            </g>
            <g transform="translate(102.18,78.72)" id="img-75ab1487-146">
              <path d="M-0.38,-0 L 0.38 -0 0.38 0 -0.38 0 z" class="primitive"/>
            </g>
            <g transform="translate(102.89,78.72)" id="img-75ab1487-147">
              <path d="M-0.38,-0 L 0.38 -0 0.38 0 -0.38 0 z" class="primitive"/>
            </g>
            <g transform="translate(103.61,78.63)" id="img-75ab1487-148">
              <path d="M-0.38,-0.09 L 0.38 -0.09 0.38 0.09 -0.38 0.09 z" class="primitive"/>
            </g>
            <g transform="translate(104.32,78.72)" id="img-75ab1487-149">
              <path d="M-0.38,-0 L 0.38 -0 0.38 0 -0.38 0 z" class="primitive"/>
            </g>
            <g transform="translate(105.03,78.72)" id="img-75ab1487-150">
              <path d="M-0.38,-0 L 0.38 -0 0.38 0 -0.38 0 z" class="primitive"/>
            </g>
            <g transform="translate(105.75,78.72)" id="img-75ab1487-151">
              <path d="M-0.38,-0 L 0.38 -0 0.38 0 -0.38 0 z" class="primitive"/>
            </g>
            <g transform="translate(106.46,78.63)" id="img-75ab1487-152">
              <path d="M-0.38,-0.09 L 0.38 -0.09 0.38 0.09 -0.38 0.09 z" class="primitive"/>
            </g>
            <g transform="translate(107.17,78.54)" id="img-75ab1487-153">
              <path d="M-0.38,-0.18 L 0.38 -0.18 0.38 0.18 -0.38 0.18 z" class="primitive"/>
            </g>
            <g transform="translate(107.89,78.72)" id="img-75ab1487-154">
              <path d="M-0.38,-0 L 0.38 -0 0.38 0 -0.38 0 z" class="primitive"/>
            </g>
            <g transform="translate(108.6,78.72)" id="img-75ab1487-155">
              <path d="M-0.38,-0 L 0.38 -0 0.38 0 -0.38 0 z" class="primitive"/>
            </g>
            <g transform="translate(109.32,78.63)" id="img-75ab1487-156">
              <path d="M-0.38,-0.09 L 0.38 -0.09 0.38 0.09 -0.38 0.09 z" class="primitive"/>
            </g>
            <g transform="translate(110.03,78.63)" id="img-75ab1487-157">
              <path d="M-0.38,-0.09 L 0.38 -0.09 0.38 0.09 -0.38 0.09 z" class="primitive"/>
            </g>
            <g transform="translate(110.74,78.72)" id="img-75ab1487-158">
              <path d="M-0.38,-0 L 0.38 -0 0.38 0 -0.38 0 z" class="primitive"/>
            </g>
            <g transform="translate(111.46,78.72)" id="img-75ab1487-159">
              <path d="M-0.38,-0 L 0.38 -0 0.38 0 -0.38 0 z" class="primitive"/>
            </g>
            <g transform="translate(112.17,78.72)" id="img-75ab1487-160">
              <path d="M-0.38,-0 L 0.38 -0 0.38 0 -0.38 0 z" class="primitive"/>
            </g>
            <g transform="translate(112.88,78.72)" id="img-75ab1487-161">
              <path d="M-0.38,-0 L 0.38 -0 0.38 0 -0.38 0 z" class="primitive"/>
            </g>
            <g transform="translate(113.6,78.72)" id="img-75ab1487-162">
              <path d="M-0.38,-0 L 0.38 -0 0.38 0 -0.38 0 z" class="primitive"/>
            </g>
            <g transform="translate(114.31,78.72)" id="img-75ab1487-163">
              <path d="M-0.38,-0 L 0.38 -0 0.38 0 -0.38 0 z" class="primitive"/>
            </g>
            <g transform="translate(115.03,78.72)" id="img-75ab1487-164">
              <path d="M-0.38,-0 L 0.38 -0 0.38 0 -0.38 0 z" class="primitive"/>
            </g>
            <g transform="translate(115.74,78.72)" id="img-75ab1487-165">
              <path d="M-0.38,-0 L 0.38 -0 0.38 0 -0.38 0 z" class="primitive"/>
            </g>
            <g transform="translate(116.45,78.72)" id="img-75ab1487-166">
              <path d="M-0.38,-0 L 0.38 -0 0.38 0 -0.38 0 z" class="primitive"/>
            </g>
            <g transform="translate(117.17,78.54)" id="img-75ab1487-167">
              <path d="M-0.38,-0.18 L 0.38 -0.18 0.38 0.18 -0.38 0.18 z" class="primitive"/>
            </g>
            <g transform="translate(117.88,78.72)" id="img-75ab1487-168">
              <path d="M-0.38,-0 L 0.38 -0 0.38 0 -0.38 0 z" class="primitive"/>
            </g>
            <g transform="translate(118.6,78.72)" id="img-75ab1487-169">
              <path d="M-0.38,-0 L 0.38 -0 0.38 0 -0.38 0 z" class="primitive"/>
            </g>
            <g transform="translate(119.31,78.72)" id="img-75ab1487-170">
              <path d="M-0.38,-0 L 0.38 -0 0.38 0 -0.38 0 z" class="primitive"/>
            </g>
            <g transform="translate(120.02,78.72)" id="img-75ab1487-171">
              <path d="M-0.38,-0 L 0.38 -0 0.38 0 -0.38 0 z" class="primitive"/>
            </g>
            <g transform="translate(120.74,78.54)" id="img-75ab1487-172">
              <path d="M-0.38,-0.18 L 0.38 -0.18 0.38 0.18 -0.38 0.18 z" class="primitive"/>
            </g>
          </g>
        </g>
      </g>
    </g>
  </g>
  <g class="guide ylabels" font-size="2.82" font-family="'PT Sans Caption','Helvetica Neue','Helvetica',sans-serif" fill="#6C606B" id="img-75ab1487-173">
    <g transform="translate(11.02,78.71)" id="img-75ab1487-174">
      <g class="primitive">
        <text text-anchor="end" dy="0.35em">0</text>
      </g>
    </g>
    <g transform="translate(11.02,60.79)" id="img-75ab1487-175">
      <g class="primitive">
        <text text-anchor="end" dy="0.35em">100</text>
      </g>
    </g>
    <g transform="translate(11.02,42.86)" id="img-75ab1487-176">
      <g class="primitive">
        <text text-anchor="end" dy="0.35em">200</text>
      </g>
    </g>
    <g transform="translate(11.02,24.93)" id="img-75ab1487-177">
      <g class="primitive">
        <text text-anchor="end" dy="0.35em">300</text>
      </g>
    </g>
    <g transform="translate(11.02,7)" id="img-75ab1487-178">
      <g class="primitive">
        <text text-anchor="end" dy="0.35em">400</text>
      </g>
    </g>
  </g>
</g>
<defs>
  <clipPath id="img-75ab1487-4">
    <path d="M12.02,5 L 136.42 5 136.42 80.72 12.02 80.72" />
  </clipPath>
</defs>
</svg>
