<?xml version="1.0" encoding="UTF-8"?>
<svg xmlns="http://www.w3.org/2000/svg"
     xmlns:xlink="http://www.w3.org/1999/xlink"
     xmlns:gadfly="http://www.gadflyjl.org/ns"
     version="1.2"
     width="141.42mm" height="100mm" viewBox="0 0 141.42 100"
     stroke="none"
     fill="#000000"
     stroke-width="0.3"
     font-size="3.88"
>
<defs>
  <marker id="arrow" markerWidth="15" markerHeight="7" refX="5" refY="3.5" orient="auto" markerUnits="strokeWidth">
    <path d="M0,0 L15,3.5 L0,7 z" stroke="context-stroke" fill="context-stroke"/>
  </marker>
</defs>
<g class="plotroot xscalable yscalable" id="img-0e9bca88-1">
  <g font-size="3.88" font-family="'PT Sans','Helvetica Neue','Helvetica',sans-serif" fill="#564A55" stroke="#000000" stroke-opacity="0.000" id="img-0e9bca88-2">
    <g transform="translate(74.22,88.39)">
      <g class="primitive">
        <text text-anchor="middle" dy="0.6em">ρ₁₂</text>
      </g>
    </g>
  </g>
  <g class="guide xlabels" font-size="2.82" font-family="'PT Sans Caption','Helvetica Neue','Helvetica',sans-serif" fill="#6C606B" id="img-0e9bca88-3">
    <g transform="translate(14.02,81.72)">
      <g class="primitive">
        <text text-anchor="middle" dy="0.6em">0.0</text>
      </g>
    </g>
    <g transform="translate(38.1,81.72)">
      <g class="primitive">
        <text text-anchor="middle" dy="0.6em">0.2</text>
      </g>
    </g>
    <g transform="translate(62.18,81.72)">
      <g class="primitive">
        <text text-anchor="middle" dy="0.6em">0.4</text>
      </g>
    </g>
    <g transform="translate(86.26,81.72)">
      <g class="primitive">
        <text text-anchor="middle" dy="0.6em">0.6</text>
      </g>
    </g>
    <g transform="translate(110.34,81.72)">
      <g class="primitive">
        <text text-anchor="middle" dy="0.6em">0.8</text>
      </g>
    </g>
    <g transform="translate(134.42,81.72)">
      <g class="primitive">
        <text text-anchor="middle" dy="0.6em">1.0</text>
      </g>
    </g>
  </g>
  <g clip-path="url(#img-0e9bca88-4)">
    <g id="img-0e9bca88-5">
      <g pointer-events="visible" fill="#000000" fill-opacity="0.000" stroke="#000000" stroke-opacity="0.000" class="guide background" id="img-0e9bca88-6">
        <g transform="translate(74.22,42.86)" id="img-0e9bca88-7">
          <path d="M-62.2,-37.86 L 62.2 -37.86 62.2 37.86 -62.2 37.86 z" class="primitive"/>
        </g>
      </g>
      <g class="guide ygridlines xfixed" stroke-dasharray="0.5,0.5" stroke-width="0.2" stroke="#D0D0E0" id="img-0e9bca88-8">
        <g transform="translate(74.22,78.72)" id="img-0e9bca88-9">
          <path fill="none" d="M-62.2,0 L 62.2 0" class="primitive"/>
        </g>
        <g transform="translate(74.22,64.37)" id="img-0e9bca88-10">
          <path fill="none" d="M-62.2,0 L 62.2 0" class="primitive"/>
        </g>
        <g transform="translate(74.22,50.03)" id="img-0e9bca88-11">
          <path fill="none" d="M-62.2,0 L 62.2 0" class="primitive"/>
        </g>
        <g transform="translate(74.22,35.69)" id="img-0e9bca88-12">
          <path fill="none" d="M-62.2,0 L 62.2 0" class="primitive"/>
        </g>
        <g transform="translate(74.22,21.34)" id="img-0e9bca88-13">
          <path fill="none" d="M-62.2,0 L 62.2 0" class="primitive"/>
        </g>
        <g transform="translate(74.22,7)" id="img-0e9bca88-14">
          <path fill="none" d="M-62.2,0 L 62.2 0" class="primitive"/>
        </g>
      </g>
      <g class="guide xgridlines yfixed" stroke-dasharray="0.5,0.5" stroke-width="0.2" stroke="#D0D0E0" id="img-0e9bca88-15">
        <g transform="translate(14.02,42.86)" id="img-0e9bca88-16">
          <path fill="none" d="M0,-37.86 L 0 37.86" class="primitive"/>
        </g>
        <g transform="translate(38.1,42.86)" id="img-0e9bca88-17">
          <path fill="none" d="M0,-37.86 L 0 37.86" class="primitive"/>
        </g>
        <g transform="translate(62.18,42.86)" id="img-0e9bca88-18">
          <path fill="none" d="M0,-37.86 L 0 37.86" class="primitive"/>
        </g>
        <g transform="translate(86.26,42.86)" id="img-0e9bca88-19">
          <path fill="none" d="M0,-37.86 L 0 37.86" class="primitive"/>
        </g>
        <g transform="translate(110.34,42.86)" id="img-0e9bca88-20">
          <path fill="none" d="M0,-37.86 L 0 37.86" class="primitive"/>
        </g>
        <g transform="translate(134.42,42.86)" id="img-0e9bca88-21">
          <path fill="none" d="M0,-37.86 L 0 37.86" class="primitive"/>
        </g>
      </g>
      <g class="plotpanel" id="img-0e9bca88-22">
        <metadata>
          <boundingbox value="12.019999999999996mm 5.0mm 124.40135623730951mm 75.715mm"/>
          <unitbox value="-0.016611108566402074 256.97204211113433 1.033222217132804 -263.9440842222687"/>
        </metadata>
        <g shape-rendering="crispEdges" stroke-width="0.3" id="img-0e9bca88-23">
          <g stroke="#000000" stroke-opacity="0.000" class="geometry" fill="#00BFFF" id="img-0e9bca88-24">
            <g transform="translate(18.43,78.57)" id="img-0e9bca88-25">
              <path d="M-0.39,-0.14 L 0.39 -0.14 0.39 0.14 -0.39 0.14 z" class="primitive"/>
            </g>
            <g transform="translate(19.15,78.72)" id="img-0e9bca88-26">
              <path d="M-0.39,-0 L 0.39 -0 0.39 0 -0.39 0 z" class="primitive"/>
            </g>
            <g transform="translate(19.88,78.72)" id="img-0e9bca88-27">
              <path d="M-0.39,-0 L 0.39 -0 0.39 0 -0.39 0 z" class="primitive"/>
            </g>
            <g transform="translate(20.6,78.72)" id="img-0e9bca88-28">
              <path d="M-0.39,-0 L 0.39 -0 0.39 0 -0.39 0 z" class="primitive"/>
            </g>
            <g transform="translate(21.32,78.72)" id="img-0e9bca88-29">
              <path d="M-0.39,-0 L 0.39 -0 0.39 0 -0.39 0 z" class="primitive"/>
            </g>
            <g transform="translate(22.05,78.57)" id="img-0e9bca88-30">
              <path d="M-0.39,-0.14 L 0.39 -0.14 0.39 0.14 -0.39 0.14 z" class="primitive"/>
            </g>
            <g transform="translate(22.77,78.57)" id="img-0e9bca88-31">
              <path d="M-0.39,-0.14 L 0.39 -0.14 0.39 0.14 -0.39 0.14 z" class="primitive"/>
            </g>
            <g transform="translate(23.49,78.43)" id="img-0e9bca88-32">
              <path d="M-0.39,-0.29 L 0.39 -0.29 0.39 0.29 -0.39 0.29 z" class="primitive"/>
            </g>
            <g transform="translate(24.22,78.72)" id="img-0e9bca88-33">
              <path d="M-0.39,-0 L 0.39 -0 0.39 0 -0.39 0 z" class="primitive"/>
            </g>
            <g transform="translate(24.94,78.72)" id="img-0e9bca88-34">
              <path d="M-0.39,-0 L 0.39 -0 0.39 0 -0.39 0 z" class="primitive"/>
            </g>
            <g transform="translate(25.67,78.28)" id="img-0e9bca88-35">
              <path d="M-0.39,-0.43 L 0.39 -0.43 0.39 0.43 -0.39 0.43 z" class="primitive"/>
            </g>
            <g transform="translate(26.39,78.43)" id="img-0e9bca88-36">
              <path d="M-0.39,-0.29 L 0.39 -0.29 0.39 0.29 -0.39 0.29 z" class="primitive"/>
            </g>
            <g transform="translate(27.11,78.57)" id="img-0e9bca88-37">
              <path d="M-0.39,-0.14 L 0.39 -0.14 0.39 0.14 -0.39 0.14 z" class="primitive"/>
            </g>
            <g transform="translate(27.84,78.43)" id="img-0e9bca88-38">
              <path d="M-0.39,-0.29 L 0.39 -0.29 0.39 0.29 -0.39 0.29 z" class="primitive"/>
            </g>
            <g transform="translate(28.56,78.57)" id="img-0e9bca88-39">
              <path d="M-0.39,-0.14 L 0.39 -0.14 0.39 0.14 -0.39 0.14 z" class="primitive"/>
            </g>
            <g transform="translate(29.28,78.72)" id="img-0e9bca88-40">
              <path d="M-0.39,-0 L 0.39 -0 0.39 0 -0.39 0 z" class="primitive"/>
            </g>
            <g transform="translate(30.01,78.57)" id="img-0e9bca88-41">
              <path d="M-0.39,-0.14 L 0.39 -0.14 0.39 0.14 -0.39 0.14 z" class="primitive"/>
            </g>
            <g transform="translate(30.73,78.43)" id="img-0e9bca88-42">
              <path d="M-0.39,-0.29 L 0.39 -0.29 0.39 0.29 -0.39 0.29 z" class="primitive"/>
            </g>
            <g transform="translate(31.46,78.28)" id="img-0e9bca88-43">
              <path d="M-0.39,-0.43 L 0.39 -0.43 0.39 0.43 -0.39 0.43 z" class="primitive"/>
            </g>
            <g transform="translate(32.18,78.43)" id="img-0e9bca88-44">
              <path d="M-0.39,-0.29 L 0.39 -0.29 0.39 0.29 -0.39 0.29 z" class="primitive"/>
            </g>
            <g transform="translate(32.9,78.43)" id="img-0e9bca88-45">
              <path d="M-0.39,-0.29 L 0.39 -0.29 0.39 0.29 -0.39 0.29 z" class="primitive"/>
            </g>
            <g transform="translate(33.63,78.28)" id="img-0e9bca88-46">
              <path d="M-0.39,-0.43 L 0.39 -0.43 0.39 0.43 -0.39 0.43 z" class="primitive"/>
            </g>
            <g transform="translate(34.35,78.28)" id="img-0e9bca88-47">
              <path d="M-0.39,-0.43 L 0.39 -0.43 0.39 0.43 -0.39 0.43 z" class="primitive"/>
            </g>
            <g transform="translate(35.07,78.43)" id="img-0e9bca88-48">
              <path d="M-0.39,-0.29 L 0.39 -0.29 0.39 0.29 -0.39 0.29 z" class="primitive"/>
            </g>
            <g transform="translate(35.8,78.43)" id="img-0e9bca88-49">
              <path d="M-0.39,-0.29 L 0.39 -0.29 0.39 0.29 -0.39 0.29 z" class="primitive"/>
            </g>
            <g transform="translate(36.52,77.85)" id="img-0e9bca88-50">
              <path d="M-0.39,-0.86 L 0.39 -0.86 0.39 0.86 -0.39 0.86 z" class="primitive"/>
            </g>
            <g transform="translate(37.24,78.28)" id="img-0e9bca88-51">
              <path d="M-0.39,-0.43 L 0.39 -0.43 0.39 0.43 -0.39 0.43 z" class="primitive"/>
            </g>
            <g transform="translate(37.97,78.57)" id="img-0e9bca88-52">
              <path d="M-0.39,-0.14 L 0.39 -0.14 0.39 0.14 -0.39 0.14 z" class="primitive"/>
            </g>
            <g transform="translate(38.69,78.43)" id="img-0e9bca88-53">
              <path d="M-0.39,-0.29 L 0.39 -0.29 0.39 0.29 -0.39 0.29 z" class="primitive"/>
            </g>
            <g transform="translate(39.42,78.28)" id="img-0e9bca88-54">
              <path d="M-0.39,-0.43 L 0.39 -0.43 0.39 0.43 -0.39 0.43 z" class="primitive"/>
            </g>
            <g transform="translate(40.14,77.85)" id="img-0e9bca88-55">
              <path d="M-0.39,-0.86 L 0.39 -0.86 0.39 0.86 -0.39 0.86 z" class="primitive"/>
            </g>
            <g transform="translate(40.86,77.85)" id="img-0e9bca88-56">
              <path d="M-0.39,-0.86 L 0.39 -0.86 0.39 0.86 -0.39 0.86 z" class="primitive"/>
            </g>
            <g transform="translate(41.59,78.14)" id="img-0e9bca88-57">
              <path d="M-0.39,-0.57 L 0.39 -0.57 0.39 0.57 -0.39 0.57 z" class="primitive"/>
            </g>
            <g transform="translate(42.31,78.14)" id="img-0e9bca88-58">
              <path d="M-0.39,-0.57 L 0.39 -0.57 0.39 0.57 -0.39 0.57 z" class="primitive"/>
            </g>
            <g transform="translate(43.03,77.71)" id="img-0e9bca88-59">
              <path d="M-0.39,-1 L 0.39 -1 0.39 1 -0.39 1 z" class="primitive"/>
            </g>
            <g transform="translate(43.76,77.57)" id="img-0e9bca88-60">
              <path d="M-0.39,-1.15 L 0.39 -1.15 0.39 1.15 -0.39 1.15 z" class="primitive"/>
            </g>
            <g transform="translate(44.48,78.14)" id="img-0e9bca88-61">
              <path d="M-0.39,-0.57 L 0.39 -0.57 0.39 0.57 -0.39 0.57 z" class="primitive"/>
            </g>
            <g transform="translate(45.21,77.85)" id="img-0e9bca88-62">
              <path d="M-0.39,-0.86 L 0.39 -0.86 0.39 0.86 -0.39 0.86 z" class="primitive"/>
            </g>
            <g transform="translate(45.93,78.14)" id="img-0e9bca88-63">
              <path d="M-0.39,-0.57 L 0.39 -0.57 0.39 0.57 -0.39 0.57 z" class="primitive"/>
            </g>
            <g transform="translate(46.65,77.57)" id="img-0e9bca88-64">
              <path d="M-0.39,-1.15 L 0.39 -1.15 0.39 1.15 -0.39 1.15 z" class="primitive"/>
            </g>
            <g transform="translate(47.38,77.57)" id="img-0e9bca88-65">
              <path d="M-0.39,-1.15 L 0.39 -1.15 0.39 1.15 -0.39 1.15 z" class="primitive"/>
            </g>
            <g transform="translate(48.1,77.71)" id="img-0e9bca88-66">
              <path d="M-0.39,-1 L 0.39 -1 0.39 1 -0.39 1 z" class="primitive"/>
            </g>
            <g transform="translate(48.82,76.56)" id="img-0e9bca88-67">
              <path d="M-0.39,-2.15 L 0.39 -2.15 0.39 2.15 -0.39 2.15 z" class="primitive"/>
            </g>
            <g transform="translate(49.55,76.56)" id="img-0e9bca88-68">
              <path d="M-0.39,-2.15 L 0.39 -2.15 0.39 2.15 -0.39 2.15 z" class="primitive"/>
            </g>
            <g transform="translate(50.27,76.99)" id="img-0e9bca88-69">
              <path d="M-0.39,-1.72 L 0.39 -1.72 0.39 1.72 -0.39 1.72 z" class="primitive"/>
            </g>
            <g transform="translate(51,76.99)" id="img-0e9bca88-70">
              <path d="M-0.39,-1.72 L 0.39 -1.72 0.39 1.72 -0.39 1.72 z" class="primitive"/>
            </g>
            <g transform="translate(51.72,77.14)" id="img-0e9bca88-71">
              <path d="M-0.39,-1.58 L 0.39 -1.58 0.39 1.58 -0.39 1.58 z" class="primitive"/>
            </g>
            <g transform="translate(52.44,76.28)" id="img-0e9bca88-72">
              <path d="M-0.39,-2.44 L 0.39 -2.44 0.39 2.44 -0.39 2.44 z" class="primitive"/>
            </g>
            <g transform="translate(53.17,75.56)" id="img-0e9bca88-73">
              <path d="M-0.39,-3.16 L 0.39 -3.16 0.39 3.16 -0.39 3.16 z" class="primitive"/>
            </g>
            <g transform="translate(53.89,76.56)" id="img-0e9bca88-74">
              <path d="M-0.39,-2.15 L 0.39 -2.15 0.39 2.15 -0.39 2.15 z" class="primitive"/>
            </g>
            <g transform="translate(54.61,76.56)" id="img-0e9bca88-75">
              <path d="M-0.39,-2.15 L 0.39 -2.15 0.39 2.15 -0.39 2.15 z" class="primitive"/>
            </g>
            <g transform="translate(55.34,74.7)" id="img-0e9bca88-76">
              <path d="M-0.39,-4.02 L 0.39 -4.02 0.39 4.02 -0.39 4.02 z" class="primitive"/>
            </g>
            <g transform="translate(56.06,75.56)" id="img-0e9bca88-77">
              <path d="M-0.39,-3.16 L 0.39 -3.16 0.39 3.16 -0.39 3.16 z" class="primitive"/>
            </g>
            <g transform="translate(56.79,75.27)" id="img-0e9bca88-78">
              <path d="M-0.39,-3.44 L 0.39 -3.44 0.39 3.44 -0.39 3.44 z" class="primitive"/>
            </g>
            <g transform="translate(57.51,75.27)" id="img-0e9bca88-79">
              <path d="M-0.39,-3.44 L 0.39 -3.44 0.39 3.44 -0.39 3.44 z" class="primitive"/>
            </g>
            <g transform="translate(58.23,76.28)" id="img-0e9bca88-80">
              <path d="M-0.39,-2.44 L 0.39 -2.44 0.39 2.44 -0.39 2.44 z" class="primitive"/>
            </g>
            <g transform="translate(58.96,74.84)" id="img-0e9bca88-81">
              <path d="M-0.39,-3.87 L 0.39 -3.87 0.39 3.87 -0.39 3.87 z" class="primitive"/>
            </g>
            <g transform="translate(59.68,74.84)" id="img-0e9bca88-82">
              <path d="M-0.39,-3.87 L 0.39 -3.87 0.39 3.87 -0.39 3.87 z" class="primitive"/>
            </g>
            <g transform="translate(60.4,76.13)" id="img-0e9bca88-83">
              <path d="M-0.39,-2.58 L 0.39 -2.58 0.39 2.58 -0.39 2.58 z" class="primitive"/>
            </g>
            <g transform="translate(61.13,73.69)" id="img-0e9bca88-84">
              <path d="M-0.39,-5.02 L 0.39 -5.02 0.39 5.02 -0.39 5.02 z" class="primitive"/>
            </g>
            <g transform="translate(61.85,73.55)" id="img-0e9bca88-85">
              <path d="M-0.39,-5.16 L 0.39 -5.16 0.39 5.16 -0.39 5.16 z" class="primitive"/>
            </g>
            <g transform="translate(62.58,73.98)" id="img-0e9bca88-86">
              <path d="M-0.39,-4.73 L 0.39 -4.73 0.39 4.73 -0.39 4.73 z" class="primitive"/>
            </g>
            <g transform="translate(63.3,72.55)" id="img-0e9bca88-87">
              <path d="M-0.39,-6.17 L 0.39 -6.17 0.39 6.17 -0.39 6.17 z" class="primitive"/>
            </g>
            <g transform="translate(64.02,73.55)" id="img-0e9bca88-88">
              <path d="M-0.39,-5.16 L 0.39 -5.16 0.39 5.16 -0.39 5.16 z" class="primitive"/>
            </g>
            <g transform="translate(64.75,73.55)" id="img-0e9bca88-89">
              <path d="M-0.39,-5.16 L 0.39 -5.16 0.39 5.16 -0.39 5.16 z" class="primitive"/>
            </g>
            <g transform="translate(65.47,72.98)" id="img-0e9bca88-90">
              <path d="M-0.39,-5.74 L 0.39 -5.74 0.39 5.74 -0.39 5.74 z" class="primitive"/>
            </g>
            <g transform="translate(66.19,70.68)" id="img-0e9bca88-91">
              <path d="M-0.39,-8.03 L 0.39 -8.03 0.39 8.03 -0.39 8.03 z" class="primitive"/>
            </g>
            <g transform="translate(66.92,71.11)" id="img-0e9bca88-92">
              <path d="M-0.39,-7.6 L 0.39 -7.6 0.39 7.6 -0.39 7.6 z" class="primitive"/>
            </g>
            <g transform="translate(67.64,72.98)" id="img-0e9bca88-93">
              <path d="M-0.39,-5.74 L 0.39 -5.74 0.39 5.74 -0.39 5.74 z" class="primitive"/>
            </g>
            <g transform="translate(68.37,71.83)" id="img-0e9bca88-94">
              <path d="M-0.39,-6.88 L 0.39 -6.88 0.39 6.88 -0.39 6.88 z" class="primitive"/>
            </g>
            <g transform="translate(69.09,70.54)" id="img-0e9bca88-95">
              <path d="M-0.39,-8.18 L 0.39 -8.18 0.39 8.18 -0.39 8.18 z" class="primitive"/>
            </g>
            <g transform="translate(69.81,70.25)" id="img-0e9bca88-96">
              <path d="M-0.39,-8.46 L 0.39 -8.46 0.39 8.46 -0.39 8.46 z" class="primitive"/>
            </g>
            <g transform="translate(70.54,69.54)" id="img-0e9bca88-97">
              <path d="M-0.39,-9.18 L 0.39 -9.18 0.39 9.18 -0.39 9.18 z" class="primitive"/>
            </g>
            <g transform="translate(71.26,67.67)" id="img-0e9bca88-98">
              <path d="M-0.39,-11.04 L 0.39 -11.04 0.39 11.04 -0.39 11.04 z" class="primitive"/>
            </g>
            <g transform="translate(71.98,68.24)" id="img-0e9bca88-99">
              <path d="M-0.39,-10.47 L 0.39 -10.47 0.39 10.47 -0.39 10.47 z" class="primitive"/>
            </g>
            <g transform="translate(72.71,67.1)" id="img-0e9bca88-100">
              <path d="M-0.39,-11.62 L 0.39 -11.62 0.39 11.62 -0.39 11.62 z" class="primitive"/>
            </g>
            <g transform="translate(73.43,69.25)" id="img-0e9bca88-101">
              <path d="M-0.39,-9.47 L 0.39 -9.47 0.39 9.47 -0.39 9.47 z" class="primitive"/>
            </g>
            <g transform="translate(74.16,66.52)" id="img-0e9bca88-102">
              <path d="M-0.39,-12.19 L 0.39 -12.19 0.39 12.19 -0.39 12.19 z" class="primitive"/>
            </g>
            <g transform="translate(74.88,67.24)" id="img-0e9bca88-103">
              <path d="M-0.39,-11.47 L 0.39 -11.47 0.39 11.47 -0.39 11.47 z" class="primitive"/>
            </g>
            <g transform="translate(75.6,65.81)" id="img-0e9bca88-104">
              <path d="M-0.39,-12.91 L 0.39 -12.91 0.39 12.91 -0.39 12.91 z" class="primitive"/>
            </g>
            <g transform="translate(76.33,66.81)" id="img-0e9bca88-105">
              <path d="M-0.39,-11.9 L 0.39 -11.9 0.39 11.9 -0.39 11.9 z" class="primitive"/>
            </g>
            <g transform="translate(77.05,64.37)" id="img-0e9bca88-106">
              <path d="M-0.39,-14.34 L 0.39 -14.34 0.39 14.34 -0.39 14.34 z" class="primitive"/>
            </g>
            <g transform="translate(77.77,62.94)" id="img-0e9bca88-107">
              <path d="M-0.39,-15.78 L 0.39 -15.78 0.39 15.78 -0.39 15.78 z" class="primitive"/>
            </g>
            <g transform="translate(78.5,60.07)" id="img-0e9bca88-108">
              <path d="M-0.39,-18.65 L 0.39 -18.65 0.39 18.65 -0.39 18.65 z" class="primitive"/>
            </g>
            <g transform="translate(79.22,60.5)" id="img-0e9bca88-109">
              <path d="M-0.39,-18.22 L 0.39 -18.22 0.39 18.22 -0.39 18.22 z" class="primitive"/>
            </g>
            <g transform="translate(79.95,62.36)" id="img-0e9bca88-110">
              <path d="M-0.39,-16.35 L 0.39 -16.35 0.39 16.35 -0.39 16.35 z" class="primitive"/>
            </g>
            <g transform="translate(80.67,61.5)" id="img-0e9bca88-111">
              <path d="M-0.39,-17.21 L 0.39 -17.21 0.39 17.21 -0.39 17.21 z" class="primitive"/>
            </g>
            <g transform="translate(81.39,57.63)" id="img-0e9bca88-112">
              <path d="M-0.39,-21.08 L 0.39 -21.08 0.39 21.08 -0.39 21.08 z" class="primitive"/>
            </g>
            <g transform="translate(82.12,58.49)" id="img-0e9bca88-113">
              <path d="M-0.39,-20.22 L 0.39 -20.22 0.39 20.22 -0.39 20.22 z" class="primitive"/>
            </g>
            <g transform="translate(82.84,59.5)" id="img-0e9bca88-114">
              <path d="M-0.39,-19.22 L 0.39 -19.22 0.39 19.22 -0.39 19.22 z" class="primitive"/>
            </g>
            <g transform="translate(83.56,57.63)" id="img-0e9bca88-115">
              <path d="M-0.39,-21.08 L 0.39 -21.08 0.39 21.08 -0.39 21.08 z" class="primitive"/>
            </g>
            <g transform="translate(84.29,56.77)" id="img-0e9bca88-116">
              <path d="M-0.39,-21.94 L 0.39 -21.94 0.39 21.94 -0.39 21.94 z" class="primitive"/>
            </g>
            <g transform="translate(85.01,55.77)" id="img-0e9bca88-117">
              <path d="M-0.39,-22.95 L 0.39 -22.95 0.39 22.95 -0.39 22.95 z" class="primitive"/>
            </g>
            <g transform="translate(85.74,55.05)" id="img-0e9bca88-118">
              <path d="M-0.39,-23.67 L 0.39 -23.67 0.39 23.67 -0.39 23.67 z" class="primitive"/>
            </g>
            <g transform="translate(86.46,58.49)" id="img-0e9bca88-119">
              <path d="M-0.39,-20.22 L 0.39 -20.22 0.39 20.22 -0.39 20.22 z" class="primitive"/>
            </g>
            <g transform="translate(87.18,53.9)" id="img-0e9bca88-120">
              <path d="M-0.39,-24.81 L 0.39 -24.81 0.39 24.81 -0.39 24.81 z" class="primitive"/>
            </g>
            <g transform="translate(87.91,50.17)" id="img-0e9bca88-121">
              <path d="M-0.39,-28.54 L 0.39 -28.54 0.39 28.54 -0.39 28.54 z" class="primitive"/>
            </g>
            <g transform="translate(88.63,53.61)" id="img-0e9bca88-122">
              <path d="M-0.39,-25.1 L 0.39 -25.1 0.39 25.1 -0.39 25.1 z" class="primitive"/>
            </g>
            <g transform="translate(89.35,49.46)" id="img-0e9bca88-123">
              <path d="M-0.39,-29.26 L 0.39 -29.26 0.39 29.26 -0.39 29.26 z" class="primitive"/>
            </g>
            <g transform="translate(90.08,51.32)" id="img-0e9bca88-124">
              <path d="M-0.39,-27.4 L 0.39 -27.4 0.39 27.4 -0.39 27.4 z" class="primitive"/>
            </g>
            <g transform="translate(90.8,56.2)" id="img-0e9bca88-125">
              <path d="M-0.39,-22.52 L 0.39 -22.52 0.39 22.52 -0.39 22.52 z" class="primitive"/>
            </g>
            <g transform="translate(91.53,52.47)" id="img-0e9bca88-126">
              <path d="M-0.39,-26.25 L 0.39 -26.25 0.39 26.25 -0.39 26.25 z" class="primitive"/>
            </g>
            <g transform="translate(92.25,50.89)" id="img-0e9bca88-127">
              <path d="M-0.39,-27.83 L 0.39 -27.83 0.39 27.83 -0.39 27.83 z" class="primitive"/>
            </g>
            <g transform="translate(92.97,51.32)" id="img-0e9bca88-128">
              <path d="M-0.39,-27.4 L 0.39 -27.4 0.39 27.4 -0.39 27.4 z" class="primitive"/>
            </g>
            <g transform="translate(93.7,50.17)" id="img-0e9bca88-129">
              <path d="M-0.39,-28.54 L 0.39 -28.54 0.39 28.54 -0.39 28.54 z" class="primitive"/>
            </g>
            <g transform="translate(94.42,48.16)" id="img-0e9bca88-130">
              <path d="M-0.39,-30.55 L 0.39 -30.55 0.39 30.55 -0.39 30.55 z" class="primitive"/>
            </g>
            <g transform="translate(95.14,53.33)" id="img-0e9bca88-131">
              <path d="M-0.39,-25.39 L 0.39 -25.39 0.39 25.39 -0.39 25.39 z" class="primitive"/>
            </g>
            <g transform="translate(95.87,49.31)" id="img-0e9bca88-132">
              <path d="M-0.39,-29.4 L 0.39 -29.4 0.39 29.4 -0.39 29.4 z" class="primitive"/>
            </g>
            <g transform="translate(96.59,47.73)" id="img-0e9bca88-133">
              <path d="M-0.39,-30.98 L 0.39 -30.98 0.39 30.98 -0.39 30.98 z" class="primitive"/>
            </g>
            <g transform="translate(97.32,49.89)" id="img-0e9bca88-134">
              <path d="M-0.39,-28.83 L 0.39 -28.83 0.39 28.83 -0.39 28.83 z" class="primitive"/>
            </g>
            <g transform="translate(98.04,51.75)" id="img-0e9bca88-135">
              <path d="M-0.39,-26.96 L 0.39 -26.96 0.39 26.96 -0.39 26.96 z" class="primitive"/>
            </g>
            <g transform="translate(98.76,50.6)" id="img-0e9bca88-136">
              <path d="M-0.39,-28.11 L 0.39 -28.11 0.39 28.11 -0.39 28.11 z" class="primitive"/>
            </g>
            <g transform="translate(99.49,54.48)" id="img-0e9bca88-137">
              <path d="M-0.39,-24.24 L 0.39 -24.24 0.39 24.24 -0.39 24.24 z" class="primitive"/>
            </g>
            <g transform="translate(100.21,49.17)" id="img-0e9bca88-138">
              <path d="M-0.39,-29.55 L 0.39 -29.55 0.39 29.55 -0.39 29.55 z" class="primitive"/>
            </g>
            <g transform="translate(100.93,54.62)" id="img-0e9bca88-139">
              <path d="M-0.39,-24.1 L 0.39 -24.1 0.39 24.1 -0.39 24.1 z" class="primitive"/>
            </g>
            <g transform="translate(101.66,50.75)" id="img-0e9bca88-140">
              <path d="M-0.39,-27.97 L 0.39 -27.97 0.39 27.97 -0.39 27.97 z" class="primitive"/>
            </g>
            <g transform="translate(102.38,52.04)" id="img-0e9bca88-141">
              <path d="M-0.39,-26.68 L 0.39 -26.68 0.39 26.68 -0.39 26.68 z" class="primitive"/>
            </g>
            <g transform="translate(103.11,53.61)" id="img-0e9bca88-142">
              <path d="M-0.39,-25.1 L 0.39 -25.1 0.39 25.1 -0.39 25.1 z" class="primitive"/>
            </g>
            <g transform="translate(103.83,53.76)" id="img-0e9bca88-143">
              <path d="M-0.39,-24.96 L 0.39 -24.96 0.39 24.96 -0.39 24.96 z" class="primitive"/>
            </g>
            <g transform="translate(104.55,55.05)" id="img-0e9bca88-144">
              <path d="M-0.39,-23.67 L 0.39 -23.67 0.39 23.67 -0.39 23.67 z" class="primitive"/>
            </g>
            <g transform="translate(105.28,55.48)" id="img-0e9bca88-145">
              <path d="M-0.39,-23.24 L 0.39 -23.24 0.39 23.24 -0.39 23.24 z" class="primitive"/>
            </g>
            <g transform="translate(106,58.78)" id="img-0e9bca88-146">
              <path d="M-0.39,-19.94 L 0.39 -19.94 0.39 19.94 -0.39 19.94 z" class="primitive"/>
            </g>
            <g transform="translate(106.72,58.2)" id="img-0e9bca88-147">
              <path d="M-0.39,-20.51 L 0.39 -20.51 0.39 20.51 -0.39 20.51 z" class="primitive"/>
            </g>
            <g transform="translate(107.45,60.07)" id="img-0e9bca88-148">
              <path d="M-0.39,-18.65 L 0.39 -18.65 0.39 18.65 -0.39 18.65 z" class="primitive"/>
            </g>
            <g transform="translate(108.17,64.8)" id="img-0e9bca88-149">
              <path d="M-0.39,-13.91 L 0.39 -13.91 0.39 13.91 -0.39 13.91 z" class="primitive"/>
            </g>
            <g transform="translate(108.9,58.2)" id="img-0e9bca88-150">
              <path d="M-0.39,-20.51 L 0.39 -20.51 0.39 20.51 -0.39 20.51 z" class="primitive"/>
            </g>
            <g transform="translate(109.62,61.79)" id="img-0e9bca88-151">
              <path d="M-0.39,-16.92 L 0.39 -16.92 0.39 16.92 -0.39 16.92 z" class="primitive"/>
            </g>
            <g transform="translate(110.34,65.81)" id="img-0e9bca88-152">
              <path d="M-0.39,-12.91 L 0.39 -12.91 0.39 12.91 -0.39 12.91 z" class="primitive"/>
            </g>
            <g transform="translate(111.07,64.95)" id="img-0e9bca88-153">
              <path d="M-0.39,-13.77 L 0.39 -13.77 0.39 13.77 -0.39 13.77 z" class="primitive"/>
            </g>
            <g transform="translate(111.79,66.81)" id="img-0e9bca88-154">
              <path d="M-0.39,-11.9 L 0.39 -11.9 0.39 11.9 -0.39 11.9 z" class="primitive"/>
            </g>
            <g transform="translate(112.51,66.24)" id="img-0e9bca88-155">
              <path d="M-0.39,-12.48 L 0.39 -12.48 0.39 12.48 -0.39 12.48 z" class="primitive"/>
            </g>
            <g transform="translate(113.24,69.54)" id="img-0e9bca88-156">
              <path d="M-0.39,-9.18 L 0.39 -9.18 0.39 9.18 -0.39 9.18 z" class="primitive"/>
            </g>
            <g transform="translate(113.96,68.82)" id="img-0e9bca88-157">
              <path d="M-0.39,-9.9 L 0.39 -9.9 0.39 9.9 -0.39 9.9 z" class="primitive"/>
            </g>
            <g transform="translate(114.69,70.54)" id="img-0e9bca88-158">
              <path d="M-0.39,-8.18 L 0.39 -8.18 0.39 8.18 -0.39 8.18 z" class="primitive"/>
            </g>
            <g transform="translate(115.41,71.26)" id="img-0e9bca88-159">
              <path d="M-0.39,-7.46 L 0.39 -7.46 0.39 7.46 -0.39 7.46 z" class="primitive"/>
            </g>
            <g transform="translate(116.13,73.55)" id="img-0e9bca88-160">
              <path d="M-0.39,-5.16 L 0.39 -5.16 0.39 5.16 -0.39 5.16 z" class="primitive"/>
            </g>
            <g transform="translate(116.86,75.99)" id="img-0e9bca88-161">
              <path d="M-0.39,-2.73 L 0.39 -2.73 0.39 2.73 -0.39 2.73 z" class="primitive"/>
            </g>
            <g transform="translate(117.58,75.99)" id="img-0e9bca88-162">
              <path d="M-0.39,-2.73 L 0.39 -2.73 0.39 2.73 -0.39 2.73 z" class="primitive"/>
            </g>
            <g transform="translate(118.3,76.13)" id="img-0e9bca88-163">
              <path d="M-0.39,-2.58 L 0.39 -2.58 0.39 2.58 -0.39 2.58 z" class="primitive"/>
            </g>
            <g transform="translate(119.03,75.13)" id="img-0e9bca88-164">
              <path d="M-0.39,-3.59 L 0.39 -3.59 0.39 3.59 -0.39 3.59 z" class="primitive"/>
            </g>
            <g transform="translate(119.75,76.85)" id="img-0e9bca88-165">
              <path d="M-0.39,-1.86 L 0.39 -1.86 0.39 1.86 -0.39 1.86 z" class="primitive"/>
            </g>
            <g transform="translate(120.48,77.42)" id="img-0e9bca88-166">
              <path d="M-0.39,-1.29 L 0.39 -1.29 0.39 1.29 -0.39 1.29 z" class="primitive"/>
            </g>
            <g transform="translate(121.2,78.14)" id="img-0e9bca88-167">
              <path d="M-0.39,-0.57 L 0.39 -0.57 0.39 0.57 -0.39 0.57 z" class="primitive"/>
            </g>
            <g transform="translate(121.92,77.57)" id="img-0e9bca88-168">
              <path d="M-0.39,-1.15 L 0.39 -1.15 0.39 1.15 -0.39 1.15 z" class="primitive"/>
            </g>
            <g transform="translate(122.65,77.14)" id="img-0e9bca88-169">
              <path d="M-0.39,-1.58 L 0.39 -1.58 0.39 1.58 -0.39 1.58 z" class="primitive"/>
            </g>
            <g transform="translate(123.37,78.43)" id="img-0e9bca88-170">
              <path d="M-0.39,-0.29 L 0.39 -0.29 0.39 0.29 -0.39 0.29 z" class="primitive"/>
            </g>
            <g transform="translate(124.09,78.57)" id="img-0e9bca88-171">
              <path d="M-0.39,-0.14 L 0.39 -0.14 0.39 0.14 -0.39 0.14 z" class="primitive"/>
            </g>
            <g transform="translate(124.82,78.43)" id="img-0e9bca88-172">
              <path d="M-0.39,-0.29 L 0.39 -0.29 0.39 0.29 -0.39 0.29 z" class="primitive"/>
            </g>
            <g transform="translate(125.54,78.72)" id="img-0e9bca88-173">
              <path d="M-0.39,-0 L 0.39 -0 0.39 0 -0.39 0 z" class="primitive"/>
            </g>
            <g transform="translate(126.27,78.57)" id="img-0e9bca88-174">
              <path d="M-0.39,-0.14 L 0.39 -0.14 0.39 0.14 -0.39 0.14 z" class="primitive"/>
            </g>
          </g>
        </g>
      </g>
    </g>
  </g>
  <g class="guide ylabels" font-size="2.82" font-family="'PT Sans Caption','Helvetica Neue','Helvetica',sans-serif" fill="#6C606B" id="img-0e9bca88-175">
    <g transform="translate(11.02,78.72)" id="img-0e9bca88-176">
      <g class="primitive">
        <text text-anchor="end" dy="0.35em">0</text>
      </g>
    </g>
    <g transform="translate(11.02,64.37)" id="img-0e9bca88-177">
      <g class="primitive">
        <text text-anchor="end" dy="0.35em">50</text>
      </g>
    </g>
    <g transform="translate(11.02,50.03)" id="img-0e9bca88-178">
      <g class="primitive">
        <text text-anchor="end" dy="0.35em">100</text>
      </g>
    </g>
    <g transform="translate(11.02,35.69)" id="img-0e9bca88-179">
      <g class="primitive">
        <text text-anchor="end" dy="0.35em">150</text>
      </g>
    </g>
    <g transform="translate(11.02,21.34)" id="img-0e9bca88-180">
      <g class="primitive">
        <text text-anchor="end" dy="0.35em">200</text>
      </g>
    </g>
    <g transform="translate(11.02,7)" id="img-0e9bca88-181">
      <g class="primitive">
        <text text-anchor="end" dy="0.35em">250</text>
      </g>
    </g>
  </g>
</g>
<defs>
  <clipPath id="img-0e9bca88-4">
    <path d="M12.02,5 L 136.42 5 136.42 80.72 12.02 80.72" />
  </clipPath>
</defs>
</svg>
