<?xml version="1.0" encoding="UTF-8"?>
<svg xmlns="http://www.w3.org/2000/svg"
     xmlns:xlink="http://www.w3.org/1999/xlink"
     xmlns:gadfly="http://www.gadflyjl.org/ns"
     version="1.2"
     width="141.42mm" height="100mm" viewBox="0 0 141.42 100"
     stroke="none"
     fill="#000000"
     stroke-width="0.3"
     font-size="3.88"
>
<defs>
  <marker id="arrow" markerWidth="15" markerHeight="7" refX="5" refY="3.5" orient="auto" markerUnits="strokeWidth">
    <path d="M0,0 L15,3.5 L0,7 z" stroke="context-stroke" fill="context-stroke"/>
  </marker>
</defs>
<g class="plotroot xscalable yscalable" id="img-4ddf4e3d-1">
  <g font-size="3.88" font-family="'PT Sans','Helvetica Neue','Helvetica',sans-serif" fill="#564A55" stroke="#000000" stroke-opacity="0.000" id="img-4ddf4e3d-2">
    <g transform="translate(76.59,88.39)">
      <g class="primitive">
        <text text-anchor="middle" dy="0.6em">ρ₁₂</text>
      </g>
    </g>
  </g>
  <g class="guide xlabels" font-size="2.82" font-family="'PT Sans Caption','Helvetica Neue','Helvetica',sans-serif" fill="#6C606B" id="img-4ddf4e3d-3">
    <g transform="translate(18.77,81.72)">
      <g class="primitive">
        <text text-anchor="middle" dy="0.6em">-1.0</text>
      </g>
    </g>
    <g transform="translate(41.9,81.72)">
      <g class="primitive">
        <text text-anchor="middle" dy="0.6em">-0.5</text>
      </g>
    </g>
    <g transform="translate(65.03,81.72)">
      <g class="primitive">
        <text text-anchor="middle" dy="0.6em">0.0</text>
      </g>
    </g>
    <g transform="translate(88.16,81.72)">
      <g class="primitive">
        <text text-anchor="middle" dy="0.6em">0.5</text>
      </g>
    </g>
    <g transform="translate(111.29,81.72)">
      <g class="primitive">
        <text text-anchor="middle" dy="0.6em">1.0</text>
      </g>
    </g>
    <g transform="translate(134.42,81.72)">
      <g class="primitive">
        <text text-anchor="middle" dy="0.6em">1.5</text>
      </g>
    </g>
  </g>
  <g clip-path="url(#img-4ddf4e3d-4)">
    <g id="img-4ddf4e3d-5">
      <g pointer-events="visible" fill="#000000" fill-opacity="0.000" stroke="#000000" stroke-opacity="0.000" class="guide background" id="img-4ddf4e3d-6">
        <g transform="translate(76.59,42.86)" id="img-4ddf4e3d-7">
          <path d="M-59.83,-37.86 L 59.83 -37.86 59.83 37.86 -59.83 37.86 z" class="primitive"/>
        </g>
      </g>
      <g class="guide ygridlines xfixed" stroke-dasharray="0.5,0.5" stroke-width="0.2" stroke="#D0D0E0" id="img-4ddf4e3d-8">
        <g transform="translate(76.59,78.72)" id="img-4ddf4e3d-9">
          <path fill="none" d="M-59.83,0 L 59.83 0" class="primitive"/>
        </g>
        <g transform="translate(76.59,54.81)" id="img-4ddf4e3d-10">
          <path fill="none" d="M-59.83,0 L 59.83 0" class="primitive"/>
        </g>
        <g transform="translate(76.59,30.91)" id="img-4ddf4e3d-11">
          <path fill="none" d="M-59.83,0 L 59.83 0" class="primitive"/>
        </g>
        <g transform="translate(76.59,7)" id="img-4ddf4e3d-12">
          <path fill="none" d="M-59.83,0 L 59.83 0" class="primitive"/>
        </g>
      </g>
      <g class="guide xgridlines yfixed" stroke-dasharray="0.5,0.5" stroke-width="0.2" stroke="#D0D0E0" id="img-4ddf4e3d-13">
        <g transform="translate(18.77,42.86)" id="img-4ddf4e3d-14">
          <path fill="none" d="M0,-37.86 L 0 37.86" class="primitive"/>
        </g>
        <g transform="translate(41.9,42.86)" id="img-4ddf4e3d-15">
          <path fill="none" d="M0,-37.86 L 0 37.86" class="primitive"/>
        </g>
        <g transform="translate(65.03,42.86)" id="img-4ddf4e3d-16">
          <path fill="none" d="M0,-37.86 L 0 37.86" class="primitive"/>
        </g>
        <g transform="translate(88.16,42.86)" id="img-4ddf4e3d-17">
          <path fill="none" d="M0,-37.86 L 0 37.86" class="primitive"/>
        </g>
        <g transform="translate(111.29,42.86)" id="img-4ddf4e3d-18">
          <path fill="none" d="M0,-37.86 L 0 37.86" class="primitive"/>
        </g>
        <g transform="translate(134.42,42.86)" id="img-4ddf4e3d-19">
          <path fill="none" d="M0,-37.86 L 0 37.86" class="primitive"/>
        </g>
      </g>
      <g class="plotpanel" id="img-4ddf4e3d-20">
        <metadata>
          <boundingbox value="16.76666666666668mm 5.0mm 119.65468957064283mm 75.715mm"/>
          <unitbox value="-1.0432321423243798 3083.6645053336124 2.5864642846487595 -3167.329010667225"/>
        </metadata>
        <g shape-rendering="crispEdges" stroke-width="0.3" id="img-4ddf4e3d-21">
          <g stroke="#000000" stroke-opacity="0.000" class="geometry" fill="#00BFFF" id="img-4ddf4e3d-22">
            <g transform="translate(19.08,71.84)" id="img-4ddf4e3d-23">
              <path d="M-0.33,-6.87 L 0.33 -6.87 0.33 6.87 -0.33 6.87 z" class="primitive"/>
            </g>
            <g transform="translate(19.69,78.57)" id="img-4ddf4e3d-24">
              <path d="M-0.33,-0.14 L 0.33 -0.14 0.33 0.14 -0.33 0.14 z" class="primitive"/>
            </g>
            <g transform="translate(20.31,78.67)" id="img-4ddf4e3d-25">
              <path d="M-0.33,-0.05 L 0.33 -0.05 0.33 0.05 -0.33 0.05 z" class="primitive"/>
            </g>
            <g transform="translate(20.93,78.56)" id="img-4ddf4e3d-26">
              <path d="M-0.33,-0.16 L 0.33 -0.16 0.33 0.16 -0.33 0.16 z" class="primitive"/>
            </g>
            <g transform="translate(21.54,78.6)" id="img-4ddf4e3d-27">
              <path d="M-0.33,-0.12 L 0.33 -0.12 0.33 0.12 -0.33 0.12 z" class="primitive"/>
            </g>
            <g transform="translate(22.16,78.28)" id="img-4ddf4e3d-28">
              <path d="M-0.33,-0.43 L 0.33 -0.43 0.33 0.43 -0.33 0.43 z" class="primitive"/>
            </g>
            <g transform="translate(22.78,78.34)" id="img-4ddf4e3d-29">
              <path d="M-0.33,-0.37 L 0.33 -0.37 0.33 0.37 -0.33 0.37 z" class="primitive"/>
            </g>
            <g transform="translate(23.39,78.13)" id="img-4ddf4e3d-30">
              <path d="M-0.33,-0.59 L 0.33 -0.59 0.33 0.59 -0.33 0.59 z" class="primitive"/>
            </g>
            <g transform="translate(24.01,78.14)" id="img-4ddf4e3d-31">
              <path d="M-0.33,-0.57 L 0.33 -0.57 0.33 0.57 -0.33 0.57 z" class="primitive"/>
            </g>
            <g transform="translate(24.63,78.01)" id="img-4ddf4e3d-32">
              <path d="M-0.33,-0.71 L 0.33 -0.71 0.33 0.71 -0.33 0.71 z" class="primitive"/>
            </g>
            <g transform="translate(25.24,77.93)" id="img-4ddf4e3d-33">
              <path d="M-0.33,-0.79 L 0.33 -0.79 0.33 0.79 -0.33 0.79 z" class="primitive"/>
            </g>
            <g transform="translate(25.86,77.84)" id="img-4ddf4e3d-34">
              <path d="M-0.33,-0.87 L 0.33 -0.87 0.33 0.87 -0.33 0.87 z" class="primitive"/>
            </g>
            <g transform="translate(26.48,77.75)" id="img-4ddf4e3d-35">
              <path d="M-0.33,-0.97 L 0.33 -0.97 0.33 0.97 -0.33 0.97 z" class="primitive"/>
            </g>
            <g transform="translate(27.09,77.7)" id="img-4ddf4e3d-36">
              <path d="M-0.33,-1.02 L 0.33 -1.02 0.33 1.02 -0.33 1.02 z" class="primitive"/>
            </g>
            <g transform="translate(27.71,77.7)" id="img-4ddf4e3d-37">
              <path d="M-0.33,-1.02 L 0.33 -1.02 0.33 1.02 -0.33 1.02 z" class="primitive"/>
            </g>
            <g transform="translate(28.33,77.77)" id="img-4ddf4e3d-38">
              <path d="M-0.33,-0.94 L 0.33 -0.94 0.33 0.94 -0.33 0.94 z" class="primitive"/>
            </g>
            <g transform="translate(28.94,77.47)" id="img-4ddf4e3d-39">
              <path d="M-0.33,-1.24 L 0.33 -1.24 0.33 1.24 -0.33 1.24 z" class="primitive"/>
            </g>
            <g transform="translate(29.56,77.44)" id="img-4ddf4e3d-40">
              <path d="M-0.33,-1.28 L 0.33 -1.28 0.33 1.28 -0.33 1.28 z" class="primitive"/>
            </g>
            <g transform="translate(30.18,77.38)" id="img-4ddf4e3d-41">
              <path d="M-0.33,-1.34 L 0.33 -1.34 0.33 1.34 -0.33 1.34 z" class="primitive"/>
            </g>
            <g transform="translate(30.79,77.11)" id="img-4ddf4e3d-42">
              <path d="M-0.33,-1.6 L 0.33 -1.6 0.33 1.6 -0.33 1.6 z" class="primitive"/>
            </g>
            <g transform="translate(31.41,77.47)" id="img-4ddf4e3d-43">
              <path d="M-0.33,-1.24 L 0.33 -1.24 0.33 1.24 -0.33 1.24 z" class="primitive"/>
            </g>
            <g transform="translate(32.03,77.4)" id="img-4ddf4e3d-44">
              <path d="M-0.33,-1.31 L 0.33 -1.31 0.33 1.31 -0.33 1.31 z" class="primitive"/>
            </g>
            <g transform="translate(32.65,77.38)" id="img-4ddf4e3d-45">
              <path d="M-0.33,-1.34 L 0.33 -1.34 0.33 1.34 -0.33 1.34 z" class="primitive"/>
            </g>
            <g transform="translate(33.26,77.26)" id="img-4ddf4e3d-46">
              <path d="M-0.33,-1.46 L 0.33 -1.46 0.33 1.46 -0.33 1.46 z" class="primitive"/>
            </g>
            <g transform="translate(33.88,77.41)" id="img-4ddf4e3d-47">
              <path d="M-0.33,-1.3 L 0.33 -1.3 0.33 1.3 -0.33 1.3 z" class="primitive"/>
            </g>
            <g transform="translate(34.5,77.44)" id="img-4ddf4e3d-48">
              <path d="M-0.33,-1.28 L 0.33 -1.28 0.33 1.28 -0.33 1.28 z" class="primitive"/>
            </g>
            <g transform="translate(35.11,77.5)" id="img-4ddf4e3d-49">
              <path d="M-0.33,-1.22 L 0.33 -1.22 0.33 1.22 -0.33 1.22 z" class="primitive"/>
            </g>
            <g transform="translate(35.73,77.46)" id="img-4ddf4e3d-50">
              <path d="M-0.33,-1.26 L 0.33 -1.26 0.33 1.26 -0.33 1.26 z" class="primitive"/>
            </g>
            <g transform="translate(36.35,77.57)" id="img-4ddf4e3d-51">
              <path d="M-0.33,-1.15 L 0.33 -1.15 0.33 1.15 -0.33 1.15 z" class="primitive"/>
            </g>
            <g transform="translate(36.96,77.5)" id="img-4ddf4e3d-52">
              <path d="M-0.33,-1.22 L 0.33 -1.22 0.33 1.22 -0.33 1.22 z" class="primitive"/>
            </g>
            <g transform="translate(37.58,77.54)" id="img-4ddf4e3d-53">
              <path d="M-0.33,-1.17 L 0.33 -1.17 0.33 1.17 -0.33 1.17 z" class="primitive"/>
            </g>
            <g transform="translate(38.2,77.44)" id="img-4ddf4e3d-54">
              <path d="M-0.33,-1.28 L 0.33 -1.28 0.33 1.28 -0.33 1.28 z" class="primitive"/>
            </g>
            <g transform="translate(38.81,77.45)" id="img-4ddf4e3d-55">
              <path d="M-0.33,-1.27 L 0.33 -1.27 0.33 1.27 -0.33 1.27 z" class="primitive"/>
            </g>
            <g transform="translate(39.43,77.53)" id="img-4ddf4e3d-56">
              <path d="M-0.33,-1.18 L 0.33 -1.18 0.33 1.18 -0.33 1.18 z" class="primitive"/>
            </g>
            <g transform="translate(40.05,77.35)" id="img-4ddf4e3d-57">
              <path d="M-0.33,-1.36 L 0.33 -1.36 0.33 1.36 -0.33 1.36 z" class="primitive"/>
            </g>
            <g transform="translate(40.66,77.6)" id="img-4ddf4e3d-58">
              <path d="M-0.33,-1.11 L 0.33 -1.11 0.33 1.11 -0.33 1.11 z" class="primitive"/>
            </g>
            <g transform="translate(41.28,77.52)" id="img-4ddf4e3d-59">
              <path d="M-0.33,-1.2 L 0.33 -1.2 0.33 1.2 -0.33 1.2 z" class="primitive"/>
            </g>
            <g transform="translate(41.9,77.58)" id="img-4ddf4e3d-60">
              <path d="M-0.33,-1.14 L 0.33 -1.14 0.33 1.14 -0.33 1.14 z" class="primitive"/>
            </g>
            <g transform="translate(42.51,77.46)" id="img-4ddf4e3d-61">
              <path d="M-0.33,-1.26 L 0.33 -1.26 0.33 1.26 -0.33 1.26 z" class="primitive"/>
            </g>
            <g transform="translate(43.13,77.58)" id="img-4ddf4e3d-62">
              <path d="M-0.33,-1.14 L 0.33 -1.14 0.33 1.14 -0.33 1.14 z" class="primitive"/>
            </g>
            <g transform="translate(43.75,77.66)" id="img-4ddf4e3d-63">
              <path d="M-0.33,-1.05 L 0.33 -1.05 0.33 1.05 -0.33 1.05 z" class="primitive"/>
            </g>
            <g transform="translate(44.36,77.72)" id="img-4ddf4e3d-64">
              <path d="M-0.33,-0.99 L 0.33 -0.99 0.33 0.99 -0.33 0.99 z" class="primitive"/>
            </g>
            <g transform="translate(44.98,77.6)" id="img-4ddf4e3d-65">
              <path d="M-0.33,-1.11 L 0.33 -1.11 0.33 1.11 -0.33 1.11 z" class="primitive"/>
            </g>
            <g transform="translate(45.6,77.82)" id="img-4ddf4e3d-66">
              <path d="M-0.33,-0.9 L 0.33 -0.9 0.33 0.9 -0.33 0.9 z" class="primitive"/>
            </g>
            <g transform="translate(46.22,77.82)" id="img-4ddf4e3d-67">
              <path d="M-0.33,-0.9 L 0.33 -0.9 0.33 0.9 -0.33 0.9 z" class="primitive"/>
            </g>
            <g transform="translate(46.83,77.77)" id="img-4ddf4e3d-68">
              <path d="M-0.33,-0.94 L 0.33 -0.94 0.33 0.94 -0.33 0.94 z" class="primitive"/>
            </g>
            <g transform="translate(47.45,77.7)" id="img-4ddf4e3d-69">
              <path d="M-0.33,-1.02 L 0.33 -1.02 0.33 1.02 -0.33 1.02 z" class="primitive"/>
            </g>
            <g transform="translate(48.07,77.89)" id="img-4ddf4e3d-70">
              <path d="M-0.33,-0.82 L 0.33 -0.82 0.33 0.82 -0.33 0.82 z" class="primitive"/>
            </g>
            <g transform="translate(48.68,77.85)" id="img-4ddf4e3d-71">
              <path d="M-0.33,-0.86 L 0.33 -0.86 0.33 0.86 -0.33 0.86 z" class="primitive"/>
            </g>
            <g transform="translate(49.3,77.81)" id="img-4ddf4e3d-72">
              <path d="M-0.33,-0.91 L 0.33 -0.91 0.33 0.91 -0.33 0.91 z" class="primitive"/>
            </g>
            <g transform="translate(49.92,77.94)" id="img-4ddf4e3d-73">
              <path d="M-0.33,-0.78 L 0.33 -0.78 0.33 0.78 -0.33 0.78 z" class="primitive"/>
            </g>
            <g transform="translate(50.53,77.85)" id="img-4ddf4e3d-74">
              <path d="M-0.33,-0.86 L 0.33 -0.86 0.33 0.86 -0.33 0.86 z" class="primitive"/>
            </g>
            <g transform="translate(51.15,77.81)" id="img-4ddf4e3d-75">
              <path d="M-0.33,-0.91 L 0.33 -0.91 0.33 0.91 -0.33 0.91 z" class="primitive"/>
            </g>
            <g transform="translate(51.77,78.02)" id="img-4ddf4e3d-76">
              <path d="M-0.33,-0.69 L 0.33 -0.69 0.33 0.69 -0.33 0.69 z" class="primitive"/>
            </g>
            <g transform="translate(52.38,77.97)" id="img-4ddf4e3d-77">
              <path d="M-0.33,-0.74 L 0.33 -0.74 0.33 0.74 -0.33 0.74 z" class="primitive"/>
            </g>
            <g transform="translate(53,77.91)" id="img-4ddf4e3d-78">
              <path d="M-0.33,-0.8 L 0.33 -0.8 0.33 0.8 -0.33 0.8 z" class="primitive"/>
            </g>
            <g transform="translate(53.62,77.96)" id="img-4ddf4e3d-79">
              <path d="M-0.33,-0.75 L 0.33 -0.75 0.33 0.75 -0.33 0.75 z" class="primitive"/>
            </g>
            <g transform="translate(54.23,77.85)" id="img-4ddf4e3d-80">
              <path d="M-0.33,-0.86 L 0.33 -0.86 0.33 0.86 -0.33 0.86 z" class="primitive"/>
            </g>
            <g transform="translate(54.85,78.19)" id="img-4ddf4e3d-81">
              <path d="M-0.33,-0.53 L 0.33 -0.53 0.33 0.53 -0.33 0.53 z" class="primitive"/>
            </g>
            <g transform="translate(55.47,78.12)" id="img-4ddf4e3d-82">
              <path d="M-0.33,-0.6 L 0.33 -0.6 0.33 0.6 -0.33 0.6 z" class="primitive"/>
            </g>
            <g transform="translate(56.08,77.88)" id="img-4ddf4e3d-83">
              <path d="M-0.33,-0.84 L 0.33 -0.84 0.33 0.84 -0.33 0.84 z" class="primitive"/>
            </g>
            <g transform="translate(56.7,78.09)" id="img-4ddf4e3d-84">
              <path d="M-0.33,-0.62 L 0.33 -0.62 0.33 0.62 -0.33 0.62 z" class="primitive"/>
            </g>
            <g transform="translate(57.32,78.17)" id="img-4ddf4e3d-85">
              <path d="M-0.33,-0.55 L 0.33 -0.55 0.33 0.55 -0.33 0.55 z" class="primitive"/>
            </g>
            <g transform="translate(57.94,78.02)" id="img-4ddf4e3d-86">
              <path d="M-0.33,-0.69 L 0.33 -0.69 0.33 0.69 -0.33 0.69 z" class="primitive"/>
            </g>
            <g transform="translate(58.55,78.03)" id="img-4ddf4e3d-87">
              <path d="M-0.33,-0.68 L 0.33 -0.68 0.33 0.68 -0.33 0.68 z" class="primitive"/>
            </g>
            <g transform="translate(59.17,77.97)" id="img-4ddf4e3d-88">
              <path d="M-0.33,-0.74 L 0.33 -0.74 0.33 0.74 -0.33 0.74 z" class="primitive"/>
            </g>
            <g transform="translate(59.79,78.21)" id="img-4ddf4e3d-89">
              <path d="M-0.33,-0.5 L 0.33 -0.5 0.33 0.5 -0.33 0.5 z" class="primitive"/>
            </g>
            <g transform="translate(60.4,78.14)" id="img-4ddf4e3d-90">
              <path d="M-0.33,-0.57 L 0.33 -0.57 0.33 0.57 -0.33 0.57 z" class="primitive"/>
            </g>
            <g transform="translate(61.02,78.22)" id="img-4ddf4e3d-91">
              <path d="M-0.33,-0.49 L 0.33 -0.49 0.33 0.49 -0.33 0.49 z" class="primitive"/>
            </g>
            <g transform="translate(61.64,78.21)" id="img-4ddf4e3d-92">
              <path d="M-0.33,-0.5 L 0.33 -0.5 0.33 0.5 -0.33 0.5 z" class="primitive"/>
            </g>
            <g transform="translate(62.25,78.18)" id="img-4ddf4e3d-93">
              <path d="M-0.33,-0.54 L 0.33 -0.54 0.33 0.54 -0.33 0.54 z" class="primitive"/>
            </g>
            <g transform="translate(62.87,78.26)" id="img-4ddf4e3d-94">
              <path d="M-0.33,-0.45 L 0.33 -0.45 0.33 0.45 -0.33 0.45 z" class="primitive"/>
            </g>
            <g transform="translate(63.49,78.25)" id="img-4ddf4e3d-95">
              <path d="M-0.33,-0.47 L 0.33 -0.47 0.33 0.47 -0.33 0.47 z" class="primitive"/>
            </g>
            <g transform="translate(64.1,78.31)" id="img-4ddf4e3d-96">
              <path d="M-0.33,-0.41 L 0.33 -0.41 0.33 0.41 -0.33 0.41 z" class="primitive"/>
            </g>
            <g transform="translate(64.72,78.3)" id="img-4ddf4e3d-97">
              <path d="M-0.33,-0.42 L 0.33 -0.42 0.33 0.42 -0.33 0.42 z" class="primitive"/>
            </g>
            <g transform="translate(65.34,78.42)" id="img-4ddf4e3d-98">
              <path d="M-0.33,-0.3 L 0.33 -0.3 0.33 0.3 -0.33 0.3 z" class="primitive"/>
            </g>
            <g transform="translate(65.95,78.43)" id="img-4ddf4e3d-99">
              <path d="M-0.33,-0.29 L 0.33 -0.29 0.33 0.29 -0.33 0.29 z" class="primitive"/>
            </g>
            <g transform="translate(66.57,78.38)" id="img-4ddf4e3d-100">
              <path d="M-0.33,-0.33 L 0.33 -0.33 0.33 0.33 -0.33 0.33 z" class="primitive"/>
            </g>
            <g transform="translate(67.19,78.26)" id="img-4ddf4e3d-101">
              <path d="M-0.33,-0.45 L 0.33 -0.45 0.33 0.45 -0.33 0.45 z" class="primitive"/>
            </g>
            <g transform="translate(67.8,78.36)" id="img-4ddf4e3d-102">
              <path d="M-0.33,-0.36 L 0.33 -0.36 0.33 0.36 -0.33 0.36 z" class="primitive"/>
            </g>
            <g transform="translate(68.42,78.33)" id="img-4ddf4e3d-103">
              <path d="M-0.33,-0.38 L 0.33 -0.38 0.33 0.38 -0.33 0.38 z" class="primitive"/>
            </g>
            <g transform="translate(69.04,78.38)" id="img-4ddf4e3d-104">
              <path d="M-0.33,-0.33 L 0.33 -0.33 0.33 0.33 -0.33 0.33 z" class="primitive"/>
            </g>
            <g transform="translate(69.65,78.38)" id="img-4ddf4e3d-105">
              <path d="M-0.33,-0.33 L 0.33 -0.33 0.33 0.33 -0.33 0.33 z" class="primitive"/>
            </g>
            <g transform="translate(70.27,78.38)" id="img-4ddf4e3d-106">
              <path d="M-0.33,-0.33 L 0.33 -0.33 0.33 0.33 -0.33 0.33 z" class="primitive"/>
            </g>
            <g transform="translate(70.89,78.33)" id="img-4ddf4e3d-107">
              <path d="M-0.33,-0.38 L 0.33 -0.38 0.33 0.38 -0.33 0.38 z" class="primitive"/>
            </g>
            <g transform="translate(71.51,78.4)" id="img-4ddf4e3d-108">
              <path d="M-0.33,-0.31 L 0.33 -0.31 0.33 0.31 -0.33 0.31 z" class="primitive"/>
            </g>
            <g transform="translate(72.12,78.45)" id="img-4ddf4e3d-109">
              <path d="M-0.33,-0.26 L 0.33 -0.26 0.33 0.26 -0.33 0.26 z" class="primitive"/>
            </g>
            <g transform="translate(72.74,78.52)" id="img-4ddf4e3d-110">
              <path d="M-0.33,-0.19 L 0.33 -0.19 0.33 0.19 -0.33 0.19 z" class="primitive"/>
            </g>
            <g transform="translate(73.36,78.31)" id="img-4ddf4e3d-111">
              <path d="M-0.33,-0.41 L 0.33 -0.41 0.33 0.41 -0.33 0.41 z" class="primitive"/>
            </g>
            <g transform="translate(73.97,78.42)" id="img-4ddf4e3d-112">
              <path d="M-0.33,-0.3 L 0.33 -0.3 0.33 0.3 -0.33 0.3 z" class="primitive"/>
            </g>
            <g transform="translate(74.59,78.38)" id="img-4ddf4e3d-113">
              <path d="M-0.33,-0.33 L 0.33 -0.33 0.33 0.33 -0.33 0.33 z" class="primitive"/>
            </g>
            <g transform="translate(75.21,78.44)" id="img-4ddf4e3d-114">
              <path d="M-0.33,-0.27 L 0.33 -0.27 0.33 0.27 -0.33 0.27 z" class="primitive"/>
            </g>
            <g transform="translate(75.82,78.43)" id="img-4ddf4e3d-115">
              <path d="M-0.33,-0.29 L 0.33 -0.29 0.33 0.29 -0.33 0.29 z" class="primitive"/>
            </g>
            <g transform="translate(76.44,78.55)" id="img-4ddf4e3d-116">
              <path d="M-0.33,-0.17 L 0.33 -0.17 0.33 0.17 -0.33 0.17 z" class="primitive"/>
            </g>
            <g transform="translate(77.06,78.46)" id="img-4ddf4e3d-117">
              <path d="M-0.33,-0.25 L 0.33 -0.25 0.33 0.25 -0.33 0.25 z" class="primitive"/>
            </g>
            <g transform="translate(77.67,78.45)" id="img-4ddf4e3d-118">
              <path d="M-0.33,-0.26 L 0.33 -0.26 0.33 0.26 -0.33 0.26 z" class="primitive"/>
            </g>
            <g transform="translate(78.29,78.4)" id="img-4ddf4e3d-119">
              <path d="M-0.33,-0.31 L 0.33 -0.31 0.33 0.31 -0.33 0.31 z" class="primitive"/>
            </g>
            <g transform="translate(78.91,78.46)" id="img-4ddf4e3d-120">
              <path d="M-0.33,-0.25 L 0.33 -0.25 0.33 0.25 -0.33 0.25 z" class="primitive"/>
            </g>
            <g transform="translate(79.52,78.45)" id="img-4ddf4e3d-121">
              <path d="M-0.33,-0.26 L 0.33 -0.26 0.33 0.26 -0.33 0.26 z" class="primitive"/>
            </g>
            <g transform="translate(80.14,78.52)" id="img-4ddf4e3d-122">
              <path d="M-0.33,-0.19 L 0.33 -0.19 0.33 0.19 -0.33 0.19 z" class="primitive"/>
            </g>
            <g transform="translate(80.76,78.46)" id="img-4ddf4e3d-123">
              <path d="M-0.33,-0.25 L 0.33 -0.25 0.33 0.25 -0.33 0.25 z" class="primitive"/>
            </g>
            <g transform="translate(81.37,78.44)" id="img-4ddf4e3d-124">
              <path d="M-0.33,-0.27 L 0.33 -0.27 0.33 0.27 -0.33 0.27 z" class="primitive"/>
            </g>
            <g transform="translate(81.99,78.45)" id="img-4ddf4e3d-125">
              <path d="M-0.33,-0.26 L 0.33 -0.26 0.33 0.26 -0.33 0.26 z" class="primitive"/>
            </g>
            <g transform="translate(82.61,78.54)" id="img-4ddf4e3d-126">
              <path d="M-0.33,-0.18 L 0.33 -0.18 0.33 0.18 -0.33 0.18 z" class="primitive"/>
            </g>
            <g transform="translate(83.22,78.51)" id="img-4ddf4e3d-127">
              <path d="M-0.33,-0.2 L 0.33 -0.2 0.33 0.2 -0.33 0.2 z" class="primitive"/>
            </g>
            <g transform="translate(83.84,78.56)" id="img-4ddf4e3d-128">
              <path d="M-0.33,-0.16 L 0.33 -0.16 0.33 0.16 -0.33 0.16 z" class="primitive"/>
            </g>
            <g transform="translate(84.46,78.43)" id="img-4ddf4e3d-129">
              <path d="M-0.33,-0.29 L 0.33 -0.29 0.33 0.29 -0.33 0.29 z" class="primitive"/>
            </g>
            <g transform="translate(85.08,78.48)" id="img-4ddf4e3d-130">
              <path d="M-0.33,-0.24 L 0.33 -0.24 0.33 0.24 -0.33 0.24 z" class="primitive"/>
            </g>
            <g transform="translate(85.69,78.55)" id="img-4ddf4e3d-131">
              <path d="M-0.33,-0.17 L 0.33 -0.17 0.33 0.17 -0.33 0.17 z" class="primitive"/>
            </g>
            <g transform="translate(86.31,78.56)" id="img-4ddf4e3d-132">
              <path d="M-0.33,-0.16 L 0.33 -0.16 0.33 0.16 -0.33 0.16 z" class="primitive"/>
            </g>
            <g transform="translate(86.93,78.55)" id="img-4ddf4e3d-133">
              <path d="M-0.33,-0.17 L 0.33 -0.17 0.33 0.17 -0.33 0.17 z" class="primitive"/>
            </g>
            <g transform="translate(87.54,78.56)" id="img-4ddf4e3d-134">
              <path d="M-0.33,-0.16 L 0.33 -0.16 0.33 0.16 -0.33 0.16 z" class="primitive"/>
            </g>
            <g transform="translate(88.16,78.58)" id="img-4ddf4e3d-135">
              <path d="M-0.33,-0.13 L 0.33 -0.13 0.33 0.13 -0.33 0.13 z" class="primitive"/>
            </g>
            <g transform="translate(88.78,78.54)" id="img-4ddf4e3d-136">
              <path d="M-0.33,-0.18 L 0.33 -0.18 0.33 0.18 -0.33 0.18 z" class="primitive"/>
            </g>
            <g transform="translate(89.39,78.58)" id="img-4ddf4e3d-137">
              <path d="M-0.33,-0.13 L 0.33 -0.13 0.33 0.13 -0.33 0.13 z" class="primitive"/>
            </g>
            <g transform="translate(90.01,78.54)" id="img-4ddf4e3d-138">
              <path d="M-0.33,-0.18 L 0.33 -0.18 0.33 0.18 -0.33 0.18 z" class="primitive"/>
            </g>
            <g transform="translate(90.63,78.48)" id="img-4ddf4e3d-139">
              <path d="M-0.33,-0.24 L 0.33 -0.24 0.33 0.24 -0.33 0.24 z" class="primitive"/>
            </g>
            <g transform="translate(91.24,78.62)" id="img-4ddf4e3d-140">
              <path d="M-0.33,-0.1 L 0.33 -0.1 0.33 0.1 -0.33 0.1 z" class="primitive"/>
            </g>
            <g transform="translate(91.86,78.54)" id="img-4ddf4e3d-141">
              <path d="M-0.33,-0.18 L 0.33 -0.18 0.33 0.18 -0.33 0.18 z" class="primitive"/>
            </g>
            <g transform="translate(92.48,78.63)" id="img-4ddf4e3d-142">
              <path d="M-0.33,-0.08 L 0.33 -0.08 0.33 0.08 -0.33 0.08 z" class="primitive"/>
            </g>
            <g transform="translate(93.09,78.55)" id="img-4ddf4e3d-143">
              <path d="M-0.33,-0.17 L 0.33 -0.17 0.33 0.17 -0.33 0.17 z" class="primitive"/>
            </g>
            <g transform="translate(93.71,78.5)" id="img-4ddf4e3d-144">
              <path d="M-0.33,-0.22 L 0.33 -0.22 0.33 0.22 -0.33 0.22 z" class="primitive"/>
            </g>
            <g transform="translate(94.33,78.57)" id="img-4ddf4e3d-145">
              <path d="M-0.33,-0.14 L 0.33 -0.14 0.33 0.14 -0.33 0.14 z" class="primitive"/>
            </g>
            <g transform="translate(94.94,78.64)" id="img-4ddf4e3d-146">
              <path d="M-0.33,-0.07 L 0.33 -0.07 0.33 0.07 -0.33 0.07 z" class="primitive"/>
            </g>
            <g transform="translate(95.56,78.6)" id="img-4ddf4e3d-147">
              <path d="M-0.33,-0.12 L 0.33 -0.12 0.33 0.12 -0.33 0.12 z" class="primitive"/>
            </g>
            <g transform="translate(96.18,78.58)" id="img-4ddf4e3d-148">
              <path d="M-0.33,-0.13 L 0.33 -0.13 0.33 0.13 -0.33 0.13 z" class="primitive"/>
            </g>
            <g transform="translate(96.8,78.58)" id="img-4ddf4e3d-149">
              <path d="M-0.33,-0.13 L 0.33 -0.13 0.33 0.13 -0.33 0.13 z" class="primitive"/>
            </g>
            <g transform="translate(97.41,78.6)" id="img-4ddf4e3d-150">
              <path d="M-0.33,-0.12 L 0.33 -0.12 0.33 0.12 -0.33 0.12 z" class="primitive"/>
            </g>
            <g transform="translate(98.03,78.56)" id="img-4ddf4e3d-151">
              <path d="M-0.33,-0.16 L 0.33 -0.16 0.33 0.16 -0.33 0.16 z" class="primitive"/>
            </g>
            <g transform="translate(98.65,78.58)" id="img-4ddf4e3d-152">
              <path d="M-0.33,-0.13 L 0.33 -0.13 0.33 0.13 -0.33 0.13 z" class="primitive"/>
            </g>
            <g transform="translate(99.26,78.61)" id="img-4ddf4e3d-153">
              <path d="M-0.33,-0.11 L 0.33 -0.11 0.33 0.11 -0.33 0.11 z" class="primitive"/>
            </g>
            <g transform="translate(99.88,78.55)" id="img-4ddf4e3d-154">
              <path d="M-0.33,-0.17 L 0.33 -0.17 0.33 0.17 -0.33 0.17 z" class="primitive"/>
            </g>
            <g transform="translate(100.5,78.63)" id="img-4ddf4e3d-155">
              <path d="M-0.33,-0.08 L 0.33 -0.08 0.33 0.08 -0.33 0.08 z" class="primitive"/>
            </g>
            <g transform="translate(101.11,78.67)" id="img-4ddf4e3d-156">
              <path d="M-0.33,-0.05 L 0.33 -0.05 0.33 0.05 -0.33 0.05 z" class="primitive"/>
            </g>
            <g transform="translate(101.73,78.66)" id="img-4ddf4e3d-157">
              <path d="M-0.33,-0.06 L 0.33 -0.06 0.33 0.06 -0.33 0.06 z" class="primitive"/>
            </g>
            <g transform="translate(102.35,78.61)" id="img-4ddf4e3d-158">
              <path d="M-0.33,-0.11 L 0.33 -0.11 0.33 0.11 -0.33 0.11 z" class="primitive"/>
            </g>
            <g transform="translate(102.96,78.57)" id="img-4ddf4e3d-159">
              <path d="M-0.33,-0.14 L 0.33 -0.14 0.33 0.14 -0.33 0.14 z" class="primitive"/>
            </g>
            <g transform="translate(103.58,78.6)" id="img-4ddf4e3d-160">
              <path d="M-0.33,-0.12 L 0.33 -0.12 0.33 0.12 -0.33 0.12 z" class="primitive"/>
            </g>
            <g transform="translate(104.2,78.62)" id="img-4ddf4e3d-161">
              <path d="M-0.33,-0.1 L 0.33 -0.1 0.33 0.1 -0.33 0.1 z" class="primitive"/>
            </g>
            <g transform="translate(104.81,78.58)" id="img-4ddf4e3d-162">
              <path d="M-0.33,-0.13 L 0.33 -0.13 0.33 0.13 -0.33 0.13 z" class="primitive"/>
            </g>
            <g transform="translate(105.43,78.56)" id="img-4ddf4e3d-163">
              <path d="M-0.33,-0.16 L 0.33 -0.16 0.33 0.16 -0.33 0.16 z" class="primitive"/>
            </g>
            <g transform="translate(106.05,78.64)" id="img-4ddf4e3d-164">
              <path d="M-0.33,-0.07 L 0.33 -0.07 0.33 0.07 -0.33 0.07 z" class="primitive"/>
            </g>
            <g transform="translate(106.66,78.62)" id="img-4ddf4e3d-165">
              <path d="M-0.33,-0.1 L 0.33 -0.1 0.33 0.1 -0.33 0.1 z" class="primitive"/>
            </g>
            <g transform="translate(107.28,78.58)" id="img-4ddf4e3d-166">
              <path d="M-0.33,-0.13 L 0.33 -0.13 0.33 0.13 -0.33 0.13 z" class="primitive"/>
            </g>
            <g transform="translate(107.9,78.55)" id="img-4ddf4e3d-167">
              <path d="M-0.33,-0.17 L 0.33 -0.17 0.33 0.17 -0.33 0.17 z" class="primitive"/>
            </g>
            <g transform="translate(108.51,78.57)" id="img-4ddf4e3d-168">
              <path d="M-0.33,-0.14 L 0.33 -0.14 0.33 0.14 -0.33 0.14 z" class="primitive"/>
            </g>
            <g transform="translate(109.13,78.54)" id="img-4ddf4e3d-169">
              <path d="M-0.33,-0.18 L 0.33 -0.18 0.33 0.18 -0.33 0.18 z" class="primitive"/>
            </g>
            <g transform="translate(109.75,78.66)" id="img-4ddf4e3d-170">
              <path d="M-0.33,-0.06 L 0.33 -0.06 0.33 0.06 -0.33 0.06 z" class="primitive"/>
            </g>
            <g transform="translate(110.37,78.52)" id="img-4ddf4e3d-171">
              <path d="M-0.33,-0.19 L 0.33 -0.19 0.33 0.19 -0.33 0.19 z" class="primitive"/>
            </g>
            <g transform="translate(110.98,45.94)" id="img-4ddf4e3d-172">
              <path d="M-0.33,-32.77 L 0.33 -32.77 0.33 32.77 -0.33 32.77 z" class="primitive"/>
            </g>
          </g>
        </g>
      </g>
    </g>
  </g>
  <g class="guide ylabels" font-size="2.82" font-family="'PT Sans Caption','Helvetica Neue','Helvetica',sans-serif" fill="#6C606B" id="img-4ddf4e3d-173">
    <g transform="translate(15.77,78.72)" id="img-4ddf4e3d-174">
      <g class="primitive">
        <text text-anchor="end" dy="0.35em">0</text>
      </g>
    </g>
    <g transform="translate(15.77,54.81)" id="img-4ddf4e3d-175">
      <g class="primitive">
        <text text-anchor="end" dy="0.35em">1×10³</text>
      </g>
    </g>
    <g transform="translate(15.77,30.91)" id="img-4ddf4e3d-176">
      <g class="primitive">
        <text text-anchor="end" dy="0.35em">2×10³</text>
      </g>
    </g>
    <g transform="translate(15.77,7)" id="img-4ddf4e3d-177">
      <g class="primitive">
        <text text-anchor="end" dy="0.35em">3×10³</text>
      </g>
    </g>
  </g>
</g>
<defs>
  <clipPath id="img-4ddf4e3d-4">
    <path d="M16.77,5 L 136.42 5 136.42 80.72 16.77 80.72" />
  </clipPath>
</defs>
</svg>
