<?xml version="1.0" encoding="UTF-8"?>
<svg xmlns="http://www.w3.org/2000/svg"
     xmlns:xlink="http://www.w3.org/1999/xlink"
     xmlns:gadfly="http://www.gadflyjl.org/ns"
     version="1.2"
     width="141.42mm" height="100mm" viewBox="0 0 141.42 100"
     stroke="none"
     fill="#000000"
     stroke-width="0.3"
     font-size="3.88"
>
<defs>
  <marker id="arrow" markerWidth="15" markerHeight="7" refX="5" refY="3.5" orient="auto" markerUnits="strokeWidth">
    <path d="M0,0 L15,3.5 L0,7 z" stroke="context-stroke" fill="context-stroke"/>
  </marker>
</defs>
<g class="plotroot xscalable" id="img-94b82c3a-1">
  <g font-size="3.88" font-family="'PT Sans','Helvetica Neue','Helvetica',sans-serif" fill="#564A55" stroke="#000000" stroke-opacity="0.000" id="img-94b82c3a-2">
    <g transform="translate(76.55,88.39)">
      <g class="primitive">
        <text text-anchor="middle" dy="0.6em">Centered age (yr)</text>
      </g>
    </g>
  </g>
  <g class="guide xlabels" font-size="2.82" font-family="'PT Sans Caption','Helvetica Neue','Helvetica',sans-serif" fill="#6C606B" id="img-94b82c3a-3">
    <g transform="translate(18.69,81.72)">
      <g class="primitive">
        <text text-anchor="middle" dy="0.6em">-20</text>
      </g>
    </g>
    <g transform="translate(47.62,81.72)">
      <g class="primitive">
        <text text-anchor="middle" dy="0.6em">-10</text>
      </g>
    </g>
    <g transform="translate(76.55,81.72)">
      <g class="primitive">
        <text text-anchor="middle" dy="0.6em">0</text>
      </g>
    </g>
    <g transform="translate(105.49,81.72)">
      <g class="primitive">
        <text text-anchor="middle" dy="0.6em">10</text>
      </g>
    </g>
    <g transform="translate(134.42,81.72)">
      <g class="primitive">
        <text text-anchor="middle" dy="0.6em">20</text>
      </g>
    </g>
  </g>
  <g clip-path="url(#img-94b82c3a-4)">
    <g id="img-94b82c3a-5">
      <g pointer-events="visible" stroke-width="0.3" fill="#000000" fill-opacity="0.000" stroke="#000000" stroke-opacity="0.000" class="guide background" id="img-94b82c3a-6">
        <g transform="translate(76.55,42.86)" id="img-94b82c3a-7">
          <path d="M-59.87,-37.86 L59.87,-37.86 59.87,37.86 -59.87,37.86  z" class="primitive"/>
        </g>
      </g>
      <g class="guide ygridlines xfixed" stroke-dasharray="0.5,0.5" stroke-width="0.2" stroke="#D0D0E0" id="img-94b82c3a-8">
        <g transform="translate(76.55,42.86)" id="img-94b82c3a-9">
          <path fill="none" d="M-59.87,0 L59.87,0 " class="primitive"/>
        </g>
      </g>
      <g class="guide xgridlines yfixed" stroke-dasharray="0.5,0.5" stroke-width="0.2" stroke="#D0D0E0" id="img-94b82c3a-10">
        <g transform="translate(18.69,42.86)" id="img-94b82c3a-11">
          <path fill="none" d="M0,-37.86 L0,37.86 " class="primitive"/>
        </g>
        <g transform="translate(47.62,42.86)" id="img-94b82c3a-12">
          <path fill="none" d="M0,-37.86 L0,37.86 " class="primitive"/>
        </g>
        <g transform="translate(76.55,42.86)" id="img-94b82c3a-13">
          <path fill="none" d="M0,-37.86 L0,37.86 " class="primitive"/>
        </g>
        <g transform="translate(105.49,42.86)" id="img-94b82c3a-14">
          <path fill="none" d="M0,-37.86 L0,37.86 " class="primitive"/>
        </g>
        <g transform="translate(134.42,42.86)" id="img-94b82c3a-15">
          <path fill="none" d="M0,-37.86 L0,37.86 " class="primitive"/>
        </g>
      </g>
      <g class="plotpanel" id="img-94b82c3a-16">
        <metadata>
          <boundingbox value="16.685000000000002mm 5.0mm 119.73635623730951mm 75.715mm"/>
          <unitbox value="-20.691226185106135 2.5 41.38245237021227 -2.0"/>
        </metadata>
        <g stroke-width="0.3" fill="#000000" fill-opacity="0.000" class="geometry" id="img-94b82c3a-17">
          <g class="color_LCHab{Float32}(70.0,_60.0,_240.0)" stroke-dasharray="none" stroke-opacity="1" stroke="#00BFFF" id="img-94b82c3a-18">
            <g transform="translate(76.56,46.9)" id="img-94b82c3a-19">
              <path fill="none" d="M-39.24,8.2 L-39.24,8.2 -39.24,8.2 -39.24,8.2 -39.24,8.2 -39.24,8.2 -39.24,8.2 -39.24,8.2 -39.24,8.2 -39.24,8.2 -39.24,8.2 -39.24,8.2 -39.24,8.2 -39.24,8.2 -39.24,8.2 -39.24,8.2 -39.24,8.2 -39.24,8.2 -39.24,8.2 -39.24,8.2 -39.24,8.2 -39.24,8.2 -39.24,8.2 -39.24,8.2 -39.24,8.2 -39.24,8.2 -39.24,8.2 -39.24,8.2 -39.24,8.2 -39.24,8.2 -39.24,8.2 -39.24,8.2 -39.24,8.2 -39.24,8.2 -39.24,8.2 -39.24,8.2 -39.24,8.2 -39.24,8.2 -39.24,8.2 -39.24,8.2 -39.24,8.2 -39.24,8.2 -39.24,8.2 -39.24,8.2 -36.35,6.79 -36.35,6.79 -36.35,6.79 -36.35,6.79 -36.35,6.79 -36.35,6.79 -36.35,6.79 -36.35,6.79 -36.35,6.79 -36.35,6.79 -36.35,6.79 -36.35,6.79 -36.35,6.79 -36.35,6.79 -36.35,6.79 -36.35,6.79 -36.35,6.79 -36.35,6.79 -36.35,6.79 -36.35,6.79 -36.35,6.79 -36.35,6.79 -36.35,6.79 -36.35,6.79 -36.35,6.79 -36.35,6.79 -36.35,6.79 -36.35,6.79 -36.35,6.79 -36.35,6.79 -36.35,6.79 -36.35,6.79 -36.35,6.79 -36.35,6.79 -36.35,6.79 -36.35,6.79 -36.35,6.79 -36.35,6.79 -36.35,6.79 -36.35,6.79 -36.35,6.79 -36.35,6.79 -36.35,6.79 -36.35,6.79 -36.35,6.79 -36.35,6.79 -36.35,6.79 -36.35,6.79 -36.35,6.79 -36.35,6.79 -36.35,6.79 -36.35,6.79 -36.35,6.79 -36.35,6.79 -36.35,6.79 -36.35,6.79 -36.35,6.79 -36.35,6.79 -36.35,6.79 -36.35,6.79 -36.35,6.79 -36.35,6.79 -36.35,6.79 -36.35,6.79 -36.35,6.79 -36.35,6.79 -36.35,6.79 -36.35,6.79 -36.35,6.79 -36.35,6.79 -36.35,6.79 -36.35,6.79 -36.35,6.79 -33.45,5.46 -33.45,5.46 -33.45,5.46 -33.45,5.46 -33.45,5.46 -33.45,5.46 -33.45,5.46 -33.45,5.46 -33.45,5.46 -33.45,5.46 -33.45,5.46 -33.45,5.46 -33.45,5.46 -33.45,5.46 -33.45,5.46 -33.45,5.46 -33.45,5.46 -33.45,5.46 -33.45,5.46 -33.45,5.46 -33.45,5.46 -33.45,5.46 -33.45,5.46 -33.45,5.46 -33.45,5.46 -33.45,5.46 -33.45,5.46 -33.45,5.46 -33.45,5.46 -33.45,5.46 -33.45,5.46 -33.45,5.46 -33.45,5.46 -33.45,5.46 -33.45,5.46 -33.45,5.46 -33.45,5.46 -33.45,5.46 -33.45,5.46 -33.45,5.46 -33.45,5.46 -33.45,5.46 -33.45,5.46 -33.45,5.46 -33.45,5.46 -33.45,5.46 -33.45,5.46 -33.45,5.46 -33.45,5.46 -33.45,5.46 -33.45,5.46 -33.45,5.46 -33.45,5.46 -33.45,5.46 -33.45,5.46 -33.45,5.46 -33.45,5.46 -33.45,5.46 -33.45,5.46 -33.45,5.46 -33.45,5.46 -33.45,5.46 -33.45,5.46 -33.45,5.46 -33.45,5.46 -33.45,5.46 -33.45,5.46 -33.45,5.46 -33.45,5.46 -33.45,5.46 -33.45,5.46 -33.45,5.46 -33.45,5.46 -33.45,5.46 -33.45,5.46 -33.45,5.46 -33.45,5.46 -33.45,5.46 -33.45,5.46 -33.45,5.46 -33.45,5.46 -33.45,5.46 -30.56,4.2 -30.56,4.2 -30.56,4.2 -30.56,4.2 -30.56,4.2 -30.56,4.2 -30.56,4.2 -30.56,4.2 -30.56,4.2 -30.56,4.2 -30.56,4.2 -30.56,4.2 -30.56,4.2 -30.56,4.2 -30.56,4.2 -30.56,4.2 -30.56,4.2 -30.56,4.2 -30.56,4.2 -30.56,4.2 -30.56,4.2 -30.56,4.2 -30.56,4.2 -30.56,4.2 -30.56,4.2 -30.56,4.2 -30.56,4.2 -30.56,4.2 -30.56,4.2 -30.56,4.2 -30.56,4.2 -30.56,4.2 -30.56,4.2 -30.56,4.2 -30.56,4.2 -30.56,4.2 -30.56,4.2 -30.56,4.2 -30.56,4.2 -30.56,4.2 -30.56,4.2 -30.56,4.2 -30.56,4.2 -30.56,4.2 -30.56,4.2 -30.56,4.2 -30.56,4.2 -30.56,4.2 -30.56,4.2 -30.56,4.2 -30.56,4.2 -30.56,4.2 -30.56,4.2 -30.56,4.2 -30.56,4.2 -30.56,4.2 -30.56,4.2 -30.56,4.2 -30.56,4.2 -30.56,4.2 -30.56,4.2 -30.56,4.2 -30.56,4.2 -30.56,4.2 -30.56,4.2 -30.56,4.2 -30.56,4.2 -30.56,4.2 -30.56,4.2 -30.56,4.2 -30.56,4.2 -30.56,4.2 -30.56,4.2 -30.56,4.2 -30.56,4.2 -30.56,4.2 -30.56,4.2 -30.56,4.2 -30.56,4.2 -27.67,3.01 -27.67,3.01 -27.67,3.01 -27.67,3.01 -27.67,3.01 -27.67,3.01 -27.67,3.01 -27.67,3.01 -27.67,3.01 -27.67,3.01 -27.67,3.01 -27.67,3.01 -27.67,3.01 -27.67,3.01 -27.67,3.01 -27.67,3.01 -27.67,3.01 -27.67,3.01 -27.67,3.01 -27.67,3.01 -27.67,3.01 -27.67,3.01 -27.67,3.01 -27.67,3.01 -27.67,3.01 -27.67,3.01 -27.67,3.01 -27.67,3.01 -27.67,3.01 -27.67,3.01 -27.67,3.01 -27.67,3.01 -27.67,3.01 -27.67,3.01 -27.67,3.01 -27.67,3.01 -27.67,3.01 -27.67,3.01 -27.67,3.01 -27.67,3.01 -27.67,3.01 -27.67,3.01 -27.67,3.01 -27.67,3.01 -27.67,3.01 -27.67,3.01 -27.67,3.01 -27.67,3.01 -27.67,3.01 -27.67,3.01 -27.67,3.01 -27.67,3.01 -27.67,3.01 -27.67,3.01 -27.67,3.01 -27.67,3.01 -27.67,3.01 -27.67,3.01 -27.67,3.01 -27.67,3.01 -27.67,3.01 -27.67,3.01 -27.67,3.01 -27.67,3.01 -27.67,3.01 -27.67,3.01 -27.67,3.01 -27.67,3.01 -27.67,3.01 -27.67,3.01 -27.67,3.01 -27.67,3.01 -27.67,3.01 -27.67,3.01 -27.67,3.01 -27.67,3.01 -27.67,3.01 -27.67,3.01 -27.67,3.01 -27.67,3.01 -27.67,3.01 -27.67,3.01 -27.67,3.01 -27.67,3.01 -27.67,3.01 -27.67,3.01 -27.67,3.01 -27.67,3.01 -27.67,3.01 -24.77,1.88 -24.77,1.88 -24.77,1.88 -24.77,1.88 -24.77,1.88 -24.77,1.88 -24.77,1.88 -24.77,1.88 -24.77,1.88 -24.77,1.88 -24.77,1.88 -24.77,1.88 -24.77,1.88 -24.77,1.88 -24.77,1.88 -24.77,1.88 -24.77,1.88 -24.77,1.88 -24.77,1.88 -24.77,1.88 -24.77,1.88 -24.77,1.88 -24.77,1.88 -24.77,1.88 -24.77,1.88 -24.77,1.88 -24.77,1.88 -24.77,1.88 -24.77,1.88 -24.77,1.88 -24.77,1.88 -24.77,1.88 -24.77,1.88 -24.77,1.88 -24.77,1.88 -24.77,1.88 -24.77,1.88 -24.77,1.88 -24.77,1.88 -24.77,1.88 -24.77,1.88 -24.77,1.88 -24.77,1.88 -24.77,1.88 -24.77,1.88 -24.77,1.88 -24.77,1.88 -24.77,1.88 -24.77,1.88 -24.77,1.88 -24.77,1.88 -24.77,1.88 -24.77,1.88 -24.77,1.88 -24.77,1.88 -24.77,1.88 -24.77,1.88 -24.77,1.88 -24.77,1.88 -24.77,1.88 -24.77,1.88 -24.77,1.88 -24.77,1.88 -24.77,1.88 -24.77,1.88 -24.77,1.88 -24.77,1.88 -24.77,1.88 -24.77,1.88 -24.77,1.88 -24.77,1.88 -24.77,1.88 -24.77,1.88 -24.77,1.88 -24.77,1.88 -24.77,1.88 -21.88,0.84 -21.88,0.84 -21.88,0.84 -21.88,0.84 -21.88,0.84 -21.88,0.84 -21.88,0.84 -21.88,0.84 -21.88,0.84 -21.88,0.84 -21.88,0.84 -21.88,0.84 -21.88,0.84 -21.88,0.84 -21.88,0.84 -21.88,0.84 -21.88,0.84 -21.88,0.84 -21.88,0.84 -21.88,0.84 -21.88,0.84 -21.88,0.84 -21.88,0.84 -21.88,0.84 -21.88,0.84 -21.88,0.84 -21.88,0.84 -21.88,0.84 -21.88,0.84 -21.88,0.84 -21.88,0.84 -21.88,0.84 -21.88,0.84 -21.88,0.84 -21.88,0.84 -21.88,0.84 -21.88,0.84 -21.88,0.84 -21.88,0.84 -21.88,0.84 -21.88,0.84 -21.88,0.84 -21.88,0.84 -21.88,0.84 -21.88,0.84 -21.88,0.84 -21.88,0.84 -21.88,0.84 -21.88,0.84 -21.88,0.84 -21.88,0.84 -21.88,0.84 -21.88,0.84 -21.88,0.84 -21.88,0.84 -21.88,0.84 -21.88,0.84 -21.88,0.84 -21.88,0.84 -21.88,0.84 -21.88,0.84 -21.88,0.84 -21.88,0.84 -21.88,0.84 -21.88,0.84 -21.88,0.84 -21.88,0.84 -21.88,0.84 -21.88,0.84 -21.88,0.84 -21.88,0.84 -21.88,0.84 -21.88,0.84 -21.88,0.84 -21.88,0.84 -21.88,0.84 -21.88,0.84 -21.88,0.84 -21.88,0.84 -21.88,0.84 -21.88,0.84 -21.88,0.84 -21.88,0.84 -21.88,0.84 -21.88,0.84 -18.99,-0.13 -18.99,-0.13 -18.99,-0.13 -18.99,-0.13 -18.99,-0.13 -18.99,-0.13 -18.99,-0.13 -18.99,-0.13 -18.99,-0.13 -18.99,-0.13 -18.99,-0.13 -18.99,-0.13 -18.99,-0.13 -18.99,-0.13 -18.99,-0.13 -18.99,-0.13 -18.99,-0.13 -18.99,-0.13 -18.99,-0.13 -18.99,-0.13 -18.99,-0.13 -18.99,-0.13 -18.99,-0.13 -18.99,-0.13 -18.99,-0.13 -18.99,-0.13 -18.99,-0.13 -18.99,-0.13 -18.99,-0.13 -18.99,-0.13 -18.99,-0.13 -18.99,-0.13 -18.99,-0.13 -18.99,-0.13 -18.99,-0.13 -18.99,-0.13 -18.99,-0.13 -18.99,-0.13 -18.99,-0.13 -18.99,-0.13 -18.99,-0.13 -18.99,-0.13 -18.99,-0.13 -18.99,-0.13 -18.99,-0.13 -18.99,-0.13 -18.99,-0.13 -18.99,-0.13 -18.99,-0.13 -18.99,-0.13 -18.99,-0.13 -18.99,-0.13 -18.99,-0.13 -18.99,-0.13 -18.99,-0.13 -18.99,-0.13 -18.99,-0.13 -18.99,-0.13 -18.99,-0.13 -18.99,-0.13 -18.99,-0.13 -18.99,-0.13 -18.99,-0.13 -18.99,-0.13 -18.99,-0.13 -18.99,-0.13 -18.99,-0.13 -18.99,-0.13 -18.99,-0.13 -18.99,-0.13 -18.99,-0.13 -18.99,-0.13 -18.99,-0.13 -18.99,-0.13 -18.99,-0.13 -18.99,-0.13 -18.99,-0.13 -16.09,-1.03 -16.09,-1.03 -16.09,-1.03 -16.09,-1.03 -16.09,-1.03 -16.09,-1.03 -16.09,-1.03 -16.09,-1.03 -16.09,-1.03 -16.09,-1.03 -16.09,-1.03 -16.09,-1.03 -16.09,-1.03 -16.09,-1.03 -16.09,-1.03 -16.09,-1.03 -16.09,-1.03 -16.09,-1.03 -16.09,-1.03 -16.09,-1.03 -16.09,-1.03 -16.09,-1.03 -16.09,-1.03 -16.09,-1.03 -16.09,-1.03 -16.09,-1.03 -16.09,-1.03 -16.09,-1.03 -16.09,-1.03 -16.09,-1.03 -16.09,-1.03 -16.09,-1.03 -16.09,-1.03 -16.09,-1.03 -16.09,-1.03 -16.09,-1.03 -16.09,-1.03 -16.09,-1.03 -16.09,-1.03 -16.09,-1.03 -16.09,-1.03 -16.09,-1.03 -16.09,-1.03 -16.09,-1.03 -16.09,-1.03 -16.09,-1.03 -16.09,-1.03 -16.09,-1.03 -16.09,-1.03 -16.09,-1.03 -16.09,-1.03 -16.09,-1.03 -16.09,-1.03 -16.09,-1.03 -16.09,-1.03 -16.09,-1.03 -16.09,-1.03 -16.09,-1.03 -16.09,-1.03 -16.09,-1.03 -16.09,-1.03 -16.09,-1.03 -16.09,-1.03 -16.09,-1.03 -16.09,-1.03 -16.09,-1.03 -16.09,-1.03 -16.09,-1.03 -16.09,-1.03 -16.09,-1.03 -16.09,-1.03 -16.09,-1.03 -16.09,-1.03 -16.09,-1.03 -16.09,-1.03 -16.09,-1.03 -16.09,-1.03 -16.09,-1.03 -16.09,-1.03 -16.09,-1.03 -16.09,-1.03 -16.09,-1.03 -16.09,-1.03 -13.2,-1.83 -13.2,-1.83 -13.2,-1.83 -13.2,-1.83 -13.2,-1.83 -13.2,-1.83 -13.2,-1.83 -13.2,-1.83 -13.2,-1.83 -13.2,-1.83 -13.2,-1.83 -13.2,-1.83 -13.2,-1.83 -13.2,-1.83 -13.2,-1.83 -13.2,-1.83 -13.2,-1.83 -13.2,-1.83 -13.2,-1.83 -13.2,-1.83 -13.2,-1.83 -13.2,-1.83 -13.2,-1.83 -13.2,-1.83 -13.2,-1.83 -13.2,-1.83 -13.2,-1.83 -13.2,-1.83 -13.2,-1.83 -13.2,-1.83 -13.2,-1.83 -13.2,-1.83 -13.2,-1.83 -13.2,-1.83 -13.2,-1.83 -13.2,-1.83 -13.2,-1.83 -13.2,-1.83 -13.2,-1.83 -13.2,-1.83 -13.2,-1.83 -13.2,-1.83 -13.2,-1.83 -13.2,-1.83 -13.2,-1.83 -13.2,-1.83 -13.2,-1.83 -13.2,-1.83 -13.2,-1.83 -13.2,-1.83 -13.2,-1.83 -13.2,-1.83 -13.2,-1.83 -13.2,-1.83 -13.2,-1.83 -13.2,-1.83 -13.2,-1.83 -13.2,-1.83 -13.2,-1.83 -13.2,-1.83 -13.2,-1.83 -13.2,-1.83 -13.2,-1.83 -13.2,-1.83 -13.2,-1.83 -13.2,-1.83 -13.2,-1.83 -13.2,-1.83 -10.31,-2.56 -10.31,-2.56 -10.31,-2.56 -10.31,-2.56 -10.31,-2.56 -10.31,-2.56 -10.31,-2.56 -10.31,-2.56 -10.31,-2.56 -10.31,-2.56 -10.31,-2.56 -10.31,-2.56 -10.31,-2.56 -10.31,-2.56 -10.31,-2.56 -10.31,-2.56 -10.31,-2.56 -10.31,-2.56 -10.31,-2.56 -10.31,-2.56 -10.31,-2.56 -10.31,-2.56 -10.31,-2.56 -10.31,-2.56 -10.31,-2.56 -10.31,-2.56 -10.31,-2.56 -10.31,-2.56 -10.31,-2.56 -10.31,-2.56 -10.31,-2.56 -10.31,-2.56 -10.31,-2.56 -10.31,-2.56 -10.31,-2.56 -10.31,-2.56 -10.31,-2.56 -10.31,-2.56 -10.31,-2.56 -10.31,-2.56 -10.31,-2.56 -10.31,-2.56 -10.31,-2.56 -10.31,-2.56 -10.31,-2.56 -10.31,-2.56 -10.31,-2.56 -10.31,-2.56 -10.31,-2.56 -10.31,-2.56 -10.31,-2.56 -10.31,-2.56 -10.31,-2.56 -10.31,-2.56 -10.31,-2.56 -10.31,-2.56 -10.31,-2.56 -10.31,-2.56 -10.31,-2.56 -10.31,-2.56 -7.41,-3.24 -7.41,-3.24 -7.41,-3.24 -7.41,-3.24 -7.41,-3.24 -7.41,-3.24 -7.41,-3.24 -7.41,-3.24 -7.41,-3.24 -7.41,-3.24 -7.41,-3.24 -7.41,-3.24 -7.41,-3.24 -7.41,-3.24 -7.41,-3.24 -7.41,-3.24 -7.41,-3.24 -7.41,-3.24 -7.41,-3.24 -7.41,-3.24 -7.41,-3.24 -7.41,-3.24 -7.41,-3.24 -7.41,-3.24 -7.41,-3.24 -7.41,-3.24 -7.41,-3.24 -7.41,-3.24 -7.41,-3.24 -7.41,-3.24 -7.41,-3.24 -7.41,-3.24 -7.41,-3.24 -7.41,-3.24 -7.41,-3.24 -7.41,-3.24 -7.41,-3.24 -7.41,-3.24 -7.41,-3.24 -7.41,-3.24 -7.41,-3.24 -7.41,-3.24 -7.41,-3.24 -7.41,-3.24 -7.41,-3.24 -7.41,-3.24 -7.41,-3.24 -7.41,-3.24 -7.41,-3.24 -7.41,-3.24 -7.41,-3.24 -7.41,-3.24 -7.41,-3.24 -7.41,-3.24 -7.41,-3.24 -7.41,-3.24 -7.41,-3.24 -7.41,-3.24 -7.41,-3.24 -7.41,-3.24 -7.41,-3.24 -7.41,-3.24 -7.41,-3.24 -7.41,-3.24 -7.41,-3.24 -7.41,-3.24 -7.41,-3.24 -7.41,-3.24 -7.41,-3.24 -7.41,-3.24 -7.41,-3.24 -7.41,-3.24 -7.41,-3.24 -7.41,-3.24 -7.41,-3.24 -7.41,-3.24 -7.41,-3.24 -7.41,-3.24 -7.41,-3.24 -4.52,-3.75 -4.52,-3.75 -4.52,-3.75 -4.52,-3.75 -4.52,-3.75 -4.52,-3.75 -4.52,-3.75 -4.52,-3.75 -4.52,-3.75 -4.52,-3.75 -4.52,-3.75 -4.52,-3.75 -4.52,-3.75 -4.52,-3.75 -4.52,-3.75 -4.52,-3.75 -4.52,-3.75 -4.52,-3.75 -4.52,-3.75 -4.52,-3.75 -4.52,-3.75 -4.52,-3.75 -4.52,-3.75 -4.52,-3.75 -4.52,-3.75 -4.52,-3.75 -4.52,-3.75 -4.52,-3.75 -4.52,-3.75 -4.52,-3.75 -4.52,-3.75 -4.52,-3.75 -4.52,-3.75 -4.52,-3.75 -4.52,-3.75 -4.52,-3.75 -4.52,-3.75 -4.52,-3.75 -4.52,-3.75 -4.52,-3.75 -4.52,-3.75 -4.52,-3.75 -4.52,-3.75 -4.52,-3.75 -4.52,-3.75 -4.52,-3.75 -4.52,-3.75 -4.52,-3.75 -4.52,-3.75 -4.52,-3.75 -4.52,-3.75 -4.52,-3.75 -4.52,-3.75 -4.52,-3.75 -4.52,-3.75 -4.52,-3.75 -4.52,-3.75 -4.52,-3.75 -4.52,-3.75 -4.52,-3.75 -4.52,-3.75 -4.52,-3.75 -4.52,-3.75 -4.52,-3.75 -4.52,-3.75 -4.52,-3.75 -4.52,-3.75 -4.52,-3.75 -4.52,-3.75 -4.52,-3.75 -4.52,-3.75 -4.52,-3.75 -4.52,-3.75 -4.52,-3.75 -4.52,-3.75 -4.52,-3.75 -4.52,-3.75 -4.52,-3.75 -4.52,-3.75 -4.52,-3.75 -1.63,-4.05 -1.63,-4.05 -1.63,-4.05 -1.63,-4.05 -1.63,-4.05 -1.63,-4.05 -1.63,-4.05 -1.63,-4.05 -1.63,-4.05 -1.63,-4.05 -1.63,-4.05 -1.63,-4.05 -1.63,-4.05 -1.63,-4.05 -1.63,-4.05 -1.63,-4.05 -1.63,-4.05 -1.63,-4.05 -1.63,-4.05 -1.63,-4.05 -1.63,-4.05 -1.63,-4.05 -1.63,-4.05 -1.63,-4.05 -1.63,-4.05 -1.63,-4.05 -1.63,-4.05 -1.63,-4.05 -1.63,-4.05 -1.63,-4.05 -1.63,-4.05 -1.63,-4.05 -1.63,-4.05 -1.63,-4.05 -1.63,-4.05 -1.63,-4.05 -1.63,-4.05 -1.63,-4.05 -1.63,-4.05 -1.63,-4.05 -1.63,-4.05 -1.63,-4.05 -1.63,-4.05 -1.63,-4.05 -1.63,-4.05 -1.63,-4.05 -1.63,-4.05 -1.63,-4.05 -1.63,-4.05 -1.63,-4.05 -1.63,-4.05 -1.63,-4.05 -1.63,-4.05 -1.63,-4.05 -1.63,-4.05 -1.63,-4.05 -1.63,-4.05 -1.63,-4.05 -1.63,-4.05 -1.63,-4.05 -1.63,-4.05 -1.63,-4.05 -1.63,-4.05 -1.63,-4.05 -1.63,-4.05 -1.63,-4.05 -1.63,-4.05 -1.63,-4.05 -1.63,-4.05 -1.63,-4.05 -1.63,-4.05 -1.63,-4.05 -1.63,-4.05 -1.63,-4.05 1.27,-4.21 1.27,-4.21 1.27,-4.21 1.27,-4.21 1.27,-4.21 1.27,-4.21 1.27,-4.21 1.27,-4.21 1.27,-4.21 1.27,-4.21 1.27,-4.21 1.27,-4.21 1.27,-4.21 1.27,-4.21 1.27,-4.21 1.27,-4.21 1.27,-4.21 1.27,-4.21 1.27,-4.21 1.27,-4.21 1.27,-4.21 1.27,-4.21 1.27,-4.21 1.27,-4.21 1.27,-4.21 1.27,-4.21 1.27,-4.21 1.27,-4.21 1.27,-4.21 1.27,-4.21 1.27,-4.21 1.27,-4.21 1.27,-4.21 1.27,-4.21 1.27,-4.21 1.27,-4.21 1.27,-4.21 1.27,-4.21 1.27,-4.21 1.27,-4.21 1.27,-4.21 1.27,-4.21 1.27,-4.21 1.27,-4.21 1.27,-4.21 1.27,-4.21 1.27,-4.21 1.27,-4.21 1.27,-4.21 1.27,-4.21 1.27,-4.21 1.27,-4.21 1.27,-4.21 1.27,-4.21 1.27,-4.21 1.27,-4.21 1.27,-4.21 1.27,-4.21 1.27,-4.21 1.27,-4.21 1.27,-4.21 1.27,-4.21 1.27,-4.21 1.27,-4.21 1.27,-4.21 1.27,-4.21 1.27,-4.21 1.27,-4.21 1.27,-4.21 1.27,-4.21 1.27,-4.21 1.27,-4.21 1.27,-4.21 1.27,-4.21 1.27,-4.21 1.27,-4.21 1.27,-4.21 1.27,-4.21 1.27,-4.21 1.27,-4.21 1.27,-4.21 1.27,-4.21 1.27,-4.21 1.27,-4.21 1.27,-4.21 1.27,-4.21 4.16,-4.3 4.16,-4.3 4.16,-4.3 4.16,-4.3 4.16,-4.3 4.16,-4.3 4.16,-4.3 4.16,-4.3 4.16,-4.3 4.16,-4.3 4.16,-4.3 4.16,-4.3 4.16,-4.3 4.16,-4.3 4.16,-4.3 4.16,-4.3 4.16,-4.3 4.16,-4.3 4.16,-4.3 4.16,-4.3 4.16,-4.3 4.16,-4.3 4.16,-4.3 4.16,-4.3 4.16,-4.3 4.16,-4.3 4.16,-4.3 4.16,-4.3 4.16,-4.3 4.16,-4.3 4.16,-4.3 4.16,-4.3 4.16,-4.3 4.16,-4.3 4.16,-4.3 4.16,-4.3 4.16,-4.3 4.16,-4.3 4.16,-4.3 4.16,-4.3 4.16,-4.3 4.16,-4.3 4.16,-4.3 4.16,-4.3 4.16,-4.3 4.16,-4.3 4.16,-4.3 4.16,-4.3 4.16,-4.3 4.16,-4.3 4.16,-4.3 4.16,-4.3 4.16,-4.3 4.16,-4.3 4.16,-4.3 4.16,-4.3 4.16,-4.3 4.16,-4.3 4.16,-4.3 4.16,-4.3 4.16,-4.3 7.05,-4.3 7.05,-4.3 7.05,-4.3 7.05,-4.3 7.05,-4.3 7.05,-4.3 7.05,-4.3 7.05,-4.3 7.05,-4.3 7.05,-4.3 7.05,-4.3 7.05,-4.3 7.05,-4.3 7.05,-4.3 7.05,-4.3 7.05,-4.3 7.05,-4.3 7.05,-4.3 7.05,-4.3 7.05,-4.3 7.05,-4.3 7.05,-4.3 7.05,-4.3 7.05,-4.3 7.05,-4.3 7.05,-4.3 7.05,-4.3 7.05,-4.3 7.05,-4.3 7.05,-4.3 7.05,-4.3 7.05,-4.3 7.05,-4.3 7.05,-4.3 7.05,-4.3 7.05,-4.3 7.05,-4.3 7.05,-4.3 7.05,-4.3 7.05,-4.3 7.05,-4.3 7.05,-4.3 7.05,-4.3 7.05,-4.3 7.05,-4.3 7.05,-4.3 7.05,-4.3 7.05,-4.3 7.05,-4.3 7.05,-4.3 7.05,-4.3 7.05,-4.3 7.05,-4.3 7.05,-4.3 7.05,-4.3 7.05,-4.3 7.05,-4.3 7.05,-4.3 7.05,-4.3 7.05,-4.3 7.05,-4.3 7.05,-4.3 7.05,-4.3 7.05,-4.3 7.05,-4.3 7.05,-4.3 7.05,-4.3 7.05,-4.3 9.95,-4.17 9.95,-4.17 9.95,-4.17 9.95,-4.17 9.95,-4.17 9.95,-4.17 9.95,-4.17 9.95,-4.17 9.95,-4.17 9.95,-4.17 9.95,-4.17 9.95,-4.17 9.95,-4.17 9.95,-4.17 9.95,-4.17 9.95,-4.17 9.95,-4.17 9.95,-4.17 9.95,-4.17 9.95,-4.17 9.95,-4.17 9.95,-4.17 9.95,-4.17 9.95,-4.17 9.95,-4.17 9.95,-4.17 9.95,-4.17 9.95,-4.17 9.95,-4.17 9.95,-4.17 9.95,-4.17 9.95,-4.17 9.95,-4.17 9.95,-4.17 9.95,-4.17 9.95,-4.17 9.95,-4.17 9.95,-4.17 9.95,-4.17 9.95,-4.17 9.95,-4.17 9.95,-4.17 9.95,-4.17 9.95,-4.17 9.95,-4.17 9.95,-4.17 9.95,-4.17 9.95,-4.17 9.95,-4.17 9.95,-4.17 12.84,-3.94 12.84,-3.94 12.84,-3.94 12.84,-3.94 12.84,-3.94 12.84,-3.94 12.84,-3.94 12.84,-3.94 12.84,-3.94 12.84,-3.94 12.84,-3.94 12.84,-3.94 12.84,-3.94 12.84,-3.94 12.84,-3.94 12.84,-3.94 12.84,-3.94 12.84,-3.94 12.84,-3.94 12.84,-3.94 12.84,-3.94 12.84,-3.94 12.84,-3.94 12.84,-3.94 12.84,-3.94 12.84,-3.94 12.84,-3.94 12.84,-3.94 12.84,-3.94 12.84,-3.94 12.84,-3.94 12.84,-3.94 12.84,-3.94 12.84,-3.94 12.84,-3.94 12.84,-3.94 12.84,-3.94 12.84,-3.94 12.84,-3.94 12.84,-3.94 12.84,-3.94 12.84,-3.94 12.84,-3.94 12.84,-3.94 12.84,-3.94 12.84,-3.94 12.84,-3.94 12.84,-3.94 12.84,-3.94 12.84,-3.94 12.84,-3.94 12.84,-3.94 12.84,-3.94 12.84,-3.94 12.84,-3.94 12.84,-3.94 12.84,-3.94 12.84,-3.94 15.73,-3.64 15.73,-3.64 15.73,-3.64 15.73,-3.64 15.73,-3.64 15.73,-3.64 15.73,-3.64 15.73,-3.64 15.73,-3.64 15.73,-3.64 15.73,-3.64 15.73,-3.64 15.73,-3.64 15.73,-3.64 15.73,-3.64 15.73,-3.64 15.73,-3.64 15.73,-3.64 15.73,-3.64 15.73,-3.64 15.73,-3.64 15.73,-3.64 15.73,-3.64 15.73,-3.64 15.73,-3.64 15.73,-3.64 15.73,-3.64 15.73,-3.64 15.73,-3.64 15.73,-3.64 15.73,-3.64 15.73,-3.64 15.73,-3.64 15.73,-3.64 15.73,-3.64 15.73,-3.64 15.73,-3.64 15.73,-3.64 15.73,-3.64 15.73,-3.64 15.73,-3.64 15.73,-3.64 15.73,-3.64 15.73,-3.64 15.73,-3.64 15.73,-3.64 15.73,-3.64 15.73,-3.64 18.63,-3.28 18.63,-3.28 18.63,-3.28 18.63,-3.28 18.63,-3.28 18.63,-3.28 18.63,-3.28 18.63,-3.28 18.63,-3.28 18.63,-3.28 18.63,-3.28 18.63,-3.28 18.63,-3.28 18.63,-3.28 18.63,-3.28 18.63,-3.28 18.63,-3.28 18.63,-3.28 18.63,-3.28 18.63,-3.28 18.63,-3.28 18.63,-3.28 18.63,-3.28 18.63,-3.28 18.63,-3.28 18.63,-3.28 18.63,-3.28 18.63,-3.28 18.63,-3.28 18.63,-3.28 18.63,-3.28 18.63,-3.28 18.63,-3.28 18.63,-3.28 18.63,-3.28 18.63,-3.28 18.63,-3.28 18.63,-3.28 18.63,-3.28 18.63,-3.28 18.63,-3.28 18.63,-3.28 18.63,-3.28 18.63,-3.28 18.63,-3.28 18.63,-3.28 18.63,-3.28 18.63,-3.28 18.63,-3.28 18.63,-3.28 18.63,-3.28 18.63,-3.28 18.63,-3.28 21.52,-2.88 21.52,-2.88 21.52,-2.88 21.52,-2.88 21.52,-2.88 21.52,-2.88 21.52,-2.88 21.52,-2.88 21.52,-2.88 21.52,-2.88 21.52,-2.88 21.52,-2.88 21.52,-2.88 21.52,-2.88 21.52,-2.88 21.52,-2.88 21.52,-2.88 21.52,-2.88 21.52,-2.88 21.52,-2.88 21.52,-2.88 21.52,-2.88 21.52,-2.88 21.52,-2.88 21.52,-2.88 21.52,-2.88 21.52,-2.88 21.52,-2.88 21.52,-2.88 21.52,-2.88 21.52,-2.88 21.52,-2.88 21.52,-2.88 21.52,-2.88 21.52,-2.88 21.52,-2.88 21.52,-2.88 21.52,-2.88 24.41,-2.38 24.41,-2.38 24.41,-2.38 24.41,-2.38 24.41,-2.38 24.41,-2.38 24.41,-2.38 24.41,-2.38 24.41,-2.38 24.41,-2.38 24.41,-2.38 24.41,-2.38 24.41,-2.38 24.41,-2.38 24.41,-2.38 24.41,-2.38 24.41,-2.38 24.41,-2.38 24.41,-2.38 24.41,-2.38 24.41,-2.38 24.41,-2.38 24.41,-2.38 24.41,-2.38 24.41,-2.38 24.41,-2.38 24.41,-2.38 24.41,-2.38 24.41,-2.38 24.41,-2.38 24.41,-2.38 24.41,-2.38 24.41,-2.38 24.41,-2.38 24.41,-2.38 24.41,-2.38 24.41,-2.38 24.41,-2.38 24.41,-2.38 24.41,-2.38 24.41,-2.38 24.41,-2.38 24.41,-2.38 24.41,-2.38 24.41,-2.38 24.41,-2.38 24.41,-2.38 24.41,-2.38 24.41,-2.38 24.41,-2.38 24.41,-2.38 24.41,-2.38 24.41,-2.38 24.41,-2.38 24.41,-2.38 24.41,-2.38 24.41,-2.38 27.31,-1.8 27.31,-1.8 27.31,-1.8 27.31,-1.8 27.31,-1.8 27.31,-1.8 27.31,-1.8 27.31,-1.8 27.31,-1.8 27.31,-1.8 27.31,-1.8 27.31,-1.8 27.31,-1.8 27.31,-1.8 27.31,-1.8 27.31,-1.8 27.31,-1.8 27.31,-1.8 27.31,-1.8 27.31,-1.8 27.31,-1.8 27.31,-1.8 27.31,-1.8 27.31,-1.8 27.31,-1.8 27.31,-1.8 27.31,-1.8 27.31,-1.8 27.31,-1.8 27.31,-1.8 27.31,-1.8 27.31,-1.8 30.2,-1.12 30.2,-1.12 30.2,-1.12 30.2,-1.12 30.2,-1.12 30.2,-1.12 30.2,-1.12 30.2,-1.12 30.2,-1.12 30.2,-1.12 30.2,-1.12 30.2,-1.12 30.2,-1.12 30.2,-1.12 30.2,-1.12 30.2,-1.12 30.2,-1.12 30.2,-1.12 30.2,-1.12 30.2,-1.12 30.2,-1.12 30.2,-1.12 30.2,-1.12 30.2,-1.12 30.2,-1.12 30.2,-1.12 30.2,-1.12 30.2,-1.12 30.2,-1.12 30.2,-1.12 30.2,-1.12 30.2,-1.12 30.2,-1.12 30.2,-1.12 30.2,-1.12 30.2,-1.12 30.2,-1.12 30.2,-1.12 30.2,-1.12 30.2,-1.12 30.2,-1.12 30.2,-1.12 30.2,-1.12 30.2,-1.12 30.2,-1.12 30.2,-1.12 30.2,-1.12 30.2,-1.12 30.2,-1.12 30.2,-1.12 30.2,-1.12 30.2,-1.12 30.2,-1.12 30.2,-1.12 33.09,-0.34 33.09,-0.34 33.09,-0.34 33.09,-0.34 33.09,-0.34 33.09,-0.34 33.09,-0.34 33.09,-0.34 33.09,-0.34 33.09,-0.34 33.09,-0.34 33.09,-0.34 33.09,-0.34 33.09,-0.34 33.09,-0.34 33.09,-0.34 33.09,-0.34 33.09,-0.34 33.09,-0.34 33.09,-0.34 33.09,-0.34 33.09,-0.34 33.09,-0.34 33.09,-0.34 33.09,-0.34 33.09,-0.34 33.09,-0.34 33.09,-0.34 33.09,-0.34 33.09,-0.34 33.09,-0.34 33.09,-0.34 33.09,-0.34 33.09,-0.34 35.99,0.54 35.99,0.54 35.99,0.54 35.99,0.54 35.99,0.54 35.99,0.54 35.99,0.54 35.99,0.54 35.99,0.54 35.99,0.54 35.99,0.54 35.99,0.54 35.99,0.54 35.99,0.54 35.99,0.54 35.99,0.54 35.99,0.54 35.99,0.54 35.99,0.54 35.99,0.54 35.99,0.54 35.99,0.54 35.99,0.54 35.99,0.54 35.99,0.54 35.99,0.54 35.99,0.54 35.99,0.54 35.99,0.54 35.99,0.54 38.88,1.52 38.88,1.52 38.88,1.52 38.88,1.52 38.88,1.52 38.88,1.52 38.88,1.52 38.88,1.52 38.88,1.52 38.88,1.52 38.88,1.52 38.88,1.52 38.88,1.52 38.88,1.52 38.88,1.52 38.88,1.52 38.88,1.52 38.88,1.52 38.88,1.52 38.88,1.52 38.88,1.52 38.88,1.52 38.88,1.52 38.88,1.52 38.88,1.52 38.88,1.52 38.88,1.52 41.77,2.59 41.77,2.59 41.77,2.59 41.77,2.59 41.77,2.59 41.77,2.59 41.77,2.59 41.77,2.59 41.77,2.59 41.77,2.59 41.77,2.59 41.77,2.59 41.77,2.59 41.77,2.59 41.77,2.59 41.77,2.59 41.77,2.59 41.77,2.59 41.77,2.59 41.77,2.59 41.77,2.59 41.77,2.59 41.77,2.59 41.77,2.59 41.77,2.59 41.77,2.59 41.77,2.59 41.77,2.59 41.77,2.59 41.77,2.59 41.77,2.59 44.67,3.75 44.67,3.75 44.67,3.75 44.67,3.75 44.67,3.75 44.67,3.75 44.67,3.75 44.67,3.75 44.67,3.75 44.67,3.75 44.67,3.75 44.67,3.75 44.67,3.75 44.67,3.75 44.67,3.75 44.67,3.75 44.67,3.75 44.67,3.75 44.67,3.75 44.67,3.75 44.67,3.75 44.67,3.75 44.67,3.75 44.67,3.75 47.56,5.01 47.56,5.01 47.56,5.01 47.56,5.01 47.56,5.01 47.56,5.01 47.56,5.01 47.56,5.01 47.56,5.01 47.56,5.01 47.56,5.01 47.56,5.01 47.56,5.01 47.56,5.01 47.56,5.01 47.56,5.01 47.56,5.01 47.56,5.01 47.56,5.01 47.56,5.01 47.56,5.01 47.56,5.01 47.56,5.01 47.56,5.01 47.56,5.01 47.56,5.01 47.56,5.01 47.56,5.01 47.56,5.01 47.56,5.01 47.56,5.01 50.46,6.37 50.46,6.37 50.46,6.37 50.46,6.37 50.46,6.37 50.46,6.37 50.46,6.37 50.46,6.37 50.46,6.37 50.46,6.37 50.46,6.37 50.46,6.37 50.46,6.37 50.46,6.37 50.46,6.37 50.46,6.37 50.46,6.37 50.46,6.37 50.46,6.37 50.46,6.37 50.46,6.37 50.46,6.37 50.46,6.37 50.46,6.37 50.46,6.37 50.46,6.37 50.46,6.37 50.46,6.37 50.46,6.37 50.46,6.37 50.46,6.37 50.46,6.37 50.46,6.37 50.46,6.37 50.46,6.37 53.35,7.82 53.35,7.82 53.35,7.82 53.35,7.82 53.35,7.82 53.35,7.82 53.35,7.82 53.35,7.82 53.35,7.82 53.35,7.82 53.35,7.82 53.35,7.82 53.35,7.82 53.35,7.82 53.35,7.82 53.35,7.82 53.35,7.82 53.35,7.82 53.35,7.82 53.35,7.82 53.35,7.82 53.35,7.82 53.35,7.82 53.35,7.82 53.35,7.82 53.35,7.82 53.35,7.82 53.35,7.82 53.35,7.82 53.35,7.82 53.35,7.82 53.35,7.82 53.35,7.82 53.35,7.82 53.35,7.82 53.35,7.82 56.24,9.37 56.24,9.37 56.24,9.37 56.24,9.37 56.24,9.37 56.24,9.37 56.24,9.37 56.24,9.37 56.24,9.37 56.24,9.37 56.24,9.37 56.24,9.37 56.24,9.37 56.24,9.37 56.24,9.37 56.24,9.37 56.24,9.37 56.24,9.37 56.24,9.37 56.24,9.37 56.24,9.37 56.24,9.37 56.24,9.37 56.24,9.37 56.24,9.37 56.24,9.37 56.24,9.37 56.24,9.37 56.24,9.37 56.24,9.37 56.24,9.37 56.24,9.37 " class="primitive"/>
            </g>
          </g>
        </g>
      </g>
    </g>
  </g>
  <g class="guide ylabels" font-size="2.82" font-family="'PT Sans Caption','Helvetica Neue','Helvetica',sans-serif" fill="#6C606B" id="img-94b82c3a-20">
    <g transform="translate(15.68,61.79)" id="img-94b82c3a-21">
      <g class="primitive">
        <text text-anchor="end" dy="0.35em">N</text>
      </g>
    </g>
    <g transform="translate(15.68,23.93)" id="img-94b82c3a-22">
      <g class="primitive">
        <text text-anchor="end" dy="0.35em">Y</text>
      </g>
    </g>
  </g>
  <g font-size="3.88" font-family="'PT Sans','Helvetica Neue','Helvetica',sans-serif" fill="#564A55" stroke="#000000" stroke-opacity="0.000" id="img-94b82c3a-23">
    <g transform="translate(8.81,40.86)" id="img-94b82c3a-24">
      <g class="primitive">
        <text text-anchor="middle" dy="0.35em" transform="rotate(-90,0, 2)">Contraception use</text>
      </g>
    </g>
  </g>
</g>
<defs>
  <clipPath id="img-94b82c3a-4">
    <path d="M16.69,5 L136.42,5 136.42,80.72 16.69,80.72 " />
  </clipPath>
</defs>
</svg>
