<?xml version="1.0" encoding="UTF-8"?>
<svg xmlns="http://www.w3.org/2000/svg"
     xmlns:xlink="http://www.w3.org/1999/xlink"
     xmlns:gadfly="http://www.gadflyjl.org/ns"
     version="1.2"
     width="141.42mm" height="100mm" viewBox="0 0 141.42 100"
     stroke="none"
     fill="#000000"
     stroke-width="0.3"
     font-size="3.88"
>
<defs>
  <marker id="arrow" markerWidth="15" markerHeight="7" refX="5" refY="3.5" orient="auto" markerUnits="strokeWidth">
    <path d="M0,0 L15,3.5 L0,7 z" stroke="context-stroke" fill="context-stroke"/>
  </marker>
</defs>
<g class="plotroot xscalable yscalable" id="img-b536d691-1">
  <g font-size="3.88" font-family="'PT Sans','Helvetica Neue','Helvetica',sans-serif" fill="#564A55" stroke="#000000" stroke-opacity="0.000" id="img-b536d691-2">
    <g transform="translate(72.55,88.39)">
      <g class="primitive">
        <text text-anchor="middle" dy="0.6em">σ₁</text>
      </g>
    </g>
  </g>
  <g class="guide xlabels" font-size="2.82" font-family="'PT Sans Caption','Helvetica Neue','Helvetica',sans-serif" fill="#6C606B" id="img-b536d691-3">
    <g transform="translate(10.67,81.72)">
      <g class="primitive">
        <text text-anchor="middle" dy="0.6em">0.0</text>
      </g>
    </g>
    <g transform="translate(51.92,81.72)">
      <g class="primitive">
        <text text-anchor="middle" dy="0.6em">0.5</text>
      </g>
    </g>
    <g transform="translate(93.17,81.72)">
      <g class="primitive">
        <text text-anchor="middle" dy="0.6em">1.0</text>
      </g>
    </g>
    <g transform="translate(134.42,81.72)">
      <g class="primitive">
        <text text-anchor="middle" dy="0.6em">1.5</text>
      </g>
    </g>
  </g>
  <g clip-path="url(#img-b536d691-4)">
    <g id="img-b536d691-5">
      <g pointer-events="visible" fill="#000000" fill-opacity="0.000" stroke="#000000" stroke-opacity="0.000" class="guide background" id="img-b536d691-6">
        <g transform="translate(72.55,42.86)" id="img-b536d691-7">
          <path d="M-63.87,-37.86 L 63.87 -37.86 63.87 37.86 -63.87 37.86 z" class="primitive"/>
        </g>
      </g>
      <g class="guide ygridlines xfixed" stroke-dasharray="0.5,0.5" stroke-width="0.2" stroke="#D0D0E0" id="img-b536d691-8">
        <g transform="translate(72.55,78.71)" id="img-b536d691-9">
          <path fill="none" d="M-63.87,0 L 63.87 0" class="primitive"/>
        </g>
        <g transform="translate(72.55,54.81)" id="img-b536d691-10">
          <path fill="none" d="M-63.87,0 L 63.87 0" class="primitive"/>
        </g>
        <g transform="translate(72.55,30.9)" id="img-b536d691-11">
          <path fill="none" d="M-63.87,0 L 63.87 0" class="primitive"/>
        </g>
        <g transform="translate(72.55,7)" id="img-b536d691-12">
          <path fill="none" d="M-63.87,0 L 63.87 0" class="primitive"/>
        </g>
      </g>
      <g class="guide xgridlines yfixed" stroke-dasharray="0.5,0.5" stroke-width="0.2" stroke="#D0D0E0" id="img-b536d691-13">
        <g transform="translate(10.67,42.86)" id="img-b536d691-14">
          <path fill="none" d="M0,-37.86 L 0 37.86" class="primitive"/>
        </g>
        <g transform="translate(51.92,42.86)" id="img-b536d691-15">
          <path fill="none" d="M0,-37.86 L 0 37.86" class="primitive"/>
        </g>
        <g transform="translate(93.17,42.86)" id="img-b536d691-16">
          <path fill="none" d="M0,-37.86 L 0 37.86" class="primitive"/>
        </g>
        <g transform="translate(134.42,42.86)" id="img-b536d691-17">
          <path fill="none" d="M0,-37.86 L 0 37.86" class="primitive"/>
        </g>
      </g>
      <g class="plotpanel" id="img-b536d691-18">
        <metadata>
          <boundingbox value="8.673333333333332mm 5.0mm 127.74802290397618mm 75.715mm"/>
          <unitbox value="-0.02424281155851587 3.083664505333612 1.5484856231170319 -3.167329010667225"/>
        </metadata>
        <g stroke-width="0.3" fill="#000000" fill-opacity="0.000" class="geometry" id="img-b536d691-19">
          <g class="color_LCHab{Float32}(70.0f0,60.0f0,240.0f0)" stroke-dasharray="none" stroke="#00BFFF" id="img-b536d691-20">
            <g transform="translate(85.35,58.22)" id="img-b536d691-21">
              <path fill="none" d="M-47.93,20.49 L -47.56 20.49 -47.18 20.49 -46.8 20.49 -46.43 20.49 -46.05 20.49 -45.68 20.49 -45.3 20.49 -44.92 20.48 -44.55 20.47 -44.17 20.46 -43.8 20.45 -43.42 20.43 -43.04 20.4 -42.67 20.37 -42.29 20.34 -41.92 20.31 -41.54 20.28 -41.16 20.25 -40.79 20.21 -40.41 20.17 -40.04 20.13 -39.66 20.08 -39.28 20.03 -38.91 19.98 -38.53 19.92 -38.16 19.85 -37.78 19.78 -37.41 19.69 -37.03 19.58 -36.65 19.45 -36.28 19.3 -35.9 19.13 -35.53 18.93 -35.15 18.73 -34.77 18.52 -34.4 18.3 -34.02 18.09 -33.65 17.88 -33.27 17.67 -32.89 17.44 -32.52 17.2 -32.14 16.94 -31.77 16.63 -31.39 16.29 -31.01 15.91 -30.64 15.5 -30.26 15.06 -29.89 14.59 -29.51 14.09 -29.13 13.57 -28.76 13.02 -28.38 12.43 -28.01 11.8 -27.63 11.12 -27.26 10.39 -26.88 9.61 -26.5 8.79 -26.13 7.93 -25.75 7.03 -25.38 6.1 -25 5.15 -24.62 4.18 -24.25 3.18 -23.87 2.17 -23.5 1.12 -23.12 0.05 -22.74 -1.05 -22.37 -2.19 -21.99 -3.36 -21.62 -4.56 -21.24 -5.81 -20.86 -7.1 -20.49 -8.45 -20.11 -9.87 -19.74 -11.39 -19.36 -13.01 -18.98 -14.75 -18.61 -16.6 -18.23 -18.54 -17.86 -20.55 -17.48 -22.56 -17.1 -24.54 -16.73 -26.43 -16.35 -28.21 -15.98 -29.87 -15.6 -31.41 -15.23 -32.85 -14.85 -34.23 -14.47 -35.58 -14.1 -36.91 -13.72 -38.24 -13.35 -39.59 -12.97 -40.93 -12.59 -42.26 -12.22 -43.54 -11.84 -44.74 -11.47 -45.83 -11.09 -46.8 -10.71 -47.62 -10.34 -48.29 -9.96 -48.8 -9.59 -49.16 -9.21 -49.38 -8.83 -49.46 -8.46 -49.44 -8.08 -49.34 -7.71 -49.23 -7.33 -49.16 -6.95 -49.16 -6.58 -49.27 -6.2 -49.48 -5.83 -49.76 -5.45 -50.06 -5.08 -50.3 -4.7 -50.44 -4.32 -50.41 -3.95 -50.18 -3.57 -49.74 -3.2 -49.1 -2.82 -48.29 -2.44 -47.35 -2.07 -46.32 -1.69 -45.24 -1.32 -44.13 -0.94 -42.99 -0.56 -41.81 -0.19 -40.57 0.19 -39.25 0.56 -37.84 0.94 -36.35 1.32 -34.79 1.69 -33.22 2.07 -31.68 2.44 -30.24 2.82 -28.91 3.2 -27.71 3.57 -26.63 3.95 -25.62 4.32 -24.64 4.7 -23.65 5.08 -22.6 5.45 -21.47 5.83 -20.26 6.2 -18.97 6.58 -17.6 6.95 -16.16 7.33 -14.69 7.71 -13.18 8.08 -11.67 8.46 -10.17 8.83 -8.7 9.21 -7.26 9.59 -5.85 9.96 -4.49 10.34 -3.17 10.71 -1.9 11.09 -0.69 11.47 0.46 11.84 1.56 12.22 2.61 12.59 3.61 12.97 4.58 13.35 5.52 13.72 6.43 14.1 7.29 14.47 8.12 14.85 8.89 15.23 9.62 15.6 10.3 15.98 10.93 16.35 11.53 16.73 12.09 17.1 12.63 17.48 13.14 17.86 13.62 18.23 14.06 18.61 14.48 18.98 14.85 19.36 15.18 19.74 15.48 20.11 15.75 20.49 16.01 20.86 16.25 21.24 16.49 21.62 16.73 21.99 16.97 22.37 17.22 22.74 17.47 23.12 17.71 23.5 17.95 23.87 18.18 24.25 18.41 24.62 18.63 25 18.84 25.38 19.05 25.75 19.23 26.13 19.4 26.5 19.55 26.88 19.67 27.26 19.77 27.63 19.84 28.01 19.9 28.38 19.94 28.76 19.98 29.13 20.01 29.51 20.05 29.89 20.08 30.26 20.11 30.64 20.14 31.01 20.16 31.39 20.17 31.77 20.18 32.14 20.19 32.52 20.2 32.89 20.21 33.27 20.22 33.65 20.24 34.02 20.26 34.4 20.29 34.77 20.32 35.15 20.34 35.53 20.37 35.9 20.39 36.28 20.41 36.65 20.42 37.03 20.44 37.41 20.45 37.78 20.46 38.16 20.47 38.53 20.47 38.91 20.47 39.28 20.47 39.66 20.47 40.04 20.46 40.41 20.46 40.79 20.45 41.16 20.44 41.54 20.44 41.92 20.44 42.29 20.44 42.67 20.45 43.04 20.46 43.42 20.46 43.8 20.47 44.17 20.48 44.55 20.48 44.92 20.49 45.3 20.49 45.68 20.49 46.05 20.49 46.43 20.49 46.8 20.49 47.18 20.49 47.56 20.49 47.93 20.49" class="primitive"/>
            </g>
          </g>
        </g>
      </g>
    </g>
  </g>
  <g class="guide ylabels" font-size="2.82" font-family="'PT Sans Caption','Helvetica Neue','Helvetica',sans-serif" fill="#6C606B" id="img-b536d691-22">
    <g transform="translate(7.67,78.71)" id="img-b536d691-23">
      <g class="primitive">
        <text text-anchor="end" dy="0.35em">0</text>
      </g>
    </g>
    <g transform="translate(7.67,54.81)" id="img-b536d691-24">
      <g class="primitive">
        <text text-anchor="end" dy="0.35em">1</text>
      </g>
    </g>
    <g transform="translate(7.67,30.9)" id="img-b536d691-25">
      <g class="primitive">
        <text text-anchor="end" dy="0.35em">2</text>
      </g>
    </g>
    <g transform="translate(7.67,7)" id="img-b536d691-26">
      <g class="primitive">
        <text text-anchor="end" dy="0.35em">3</text>
      </g>
    </g>
  </g>
</g>
<defs>
  <clipPath id="img-b536d691-4">
    <path d="M8.67,5 L 136.42 5 136.42 80.72 8.67 80.72" />
  </clipPath>
</defs>
</svg>
