<?xml version="1.0" encoding="UTF-8"?>
<svg xmlns="http://www.w3.org/2000/svg"
     xmlns:xlink="http://www.w3.org/1999/xlink"
     xmlns:gadfly="http://www.gadflyjl.org/ns"
     version="1.2"
     width="152.4mm" height="101.6mm" viewBox="0 0 152.4 101.6"
     stroke="none"
     fill="#000000"
     stroke-width="0.3"
     font-size="3.88"
>
<g class="plotroot xscalable yscalable" id="img-0045e236-1">
  <g font-size="3.88" font-family="'PT Sans','Helvetica Neue','Helvetica',sans-serif" fill="#564A55" stroke="#000000" stroke-opacity="0.000" id="img-0045e236-2">
    <text x="79.21" y="89.99" text-anchor="middle" dy="0.6em">σ₂</text>
  </g>
  <g class="guide xlabels" font-size="2.82" font-family="'PT Sans Caption','Helvetica Neue','Helvetica',sans-serif" fill="#6C606B" id="img-0045e236-3">
    <text x="13.02" y="83.32" text-anchor="middle" dy="0.6em">-1</text>
    <text x="35.08" y="83.32" text-anchor="middle" dy="0.6em">0</text>
    <text x="57.15" y="83.32" text-anchor="middle" dy="0.6em">1</text>
    <text x="79.21" y="83.32" text-anchor="middle" dy="0.6em">2</text>
    <text x="101.27" y="83.32" text-anchor="middle" dy="0.6em">3</text>
    <text x="123.34" y="83.32" text-anchor="middle" dy="0.6em">4</text>
    <text x="145.4" y="83.32" text-anchor="middle" dy="0.6em">5</text>
  </g>
<g clip-path="url(#img-0045e236-4)">
  <g id="img-0045e236-5">
    <g pointer-events="visible" opacity="1" fill="#000000" fill-opacity="0.000" stroke="#000000" stroke-opacity="0.000" class="guide background" id="img-0045e236-6">
      <rect x="11.02" y="5" width="136.38" height="77.32"/>
    </g>
    <g class="guide ygridlines xfixed" stroke-dasharray="0.5,0.5" stroke-width="0.2" stroke="#D0D0E0" id="img-0045e236-7">
      <path fill="none" d="M11.02,80.32 L 147.4 80.32"/>
      <path fill="none" d="M11.02,61.99 L 147.4 61.99"/>
      <path fill="none" d="M11.02,43.66 L 147.4 43.66"/>
      <path fill="none" d="M11.02,25.33 L 147.4 25.33"/>
      <path fill="none" d="M11.02,7 L 147.4 7"/>
    </g>
    <g class="guide xgridlines yfixed" stroke-dasharray="0.5,0.5" stroke-width="0.2" stroke="#D0D0E0" id="img-0045e236-8">
      <path fill="none" d="M13.02,5 L 13.02 82.32"/>
      <path fill="none" d="M35.08,5 L 35.08 82.32"/>
      <path fill="none" d="M57.15,5 L 57.15 82.32"/>
      <path fill="none" d="M79.21,5 L 79.21 82.32"/>
      <path fill="none" d="M101.27,5 L 101.27 82.32"/>
      <path fill="none" d="M123.34,5 L 123.34 82.32"/>
      <path fill="none" d="M145.4,5 L 145.4 82.32"/>
    </g>
    <g class="plotpanel" id="img-0045e236-9">
      <g stroke-width="0.3" fill="#000000" fill-opacity="0.000" class="geometry" stroke-dasharray="none" stroke="#00BFFF" id="img-0045e236-10">
        <path fill="none" d="M32.13,80.31 L 32.51 80.31 32.88 80.31 33.26 80.31 33.63 80.31 34 80.31 34.38 80.31 34.75 80.31 35.12 80.3 35.5 80.29 35.87 80.28 36.25 80.27 36.62 80.25 36.99 80.22 37.37 80.19 37.74 80.16 38.12 80.13 38.49 80.09 38.86 80.06 39.24 80.01 39.61 79.96 39.99 79.89 40.36 79.81 40.73 79.7 41.11 79.57 41.48 79.4 41.86 79.22 42.23 79 42.6 78.74 42.98 78.46 43.35 78.13 43.73 77.75 44.1 77.33 44.47 76.85 44.85 76.32 45.22 75.73 45.59 75.09 45.97 74.39 46.34 73.65 46.72 72.86 47.09 72.04 47.46 71.18 47.84 70.29 48.21 69.38 48.59 68.43 48.96 67.44 49.33 66.41 49.71 65.31 50.08 64.14 50.46 62.9 50.83 61.58 51.2 60.2 51.58 58.75 51.95 57.26 52.33 55.72 52.7 54.16 53.07 52.57 53.45 50.96 53.82 49.35 54.2 47.74 54.57 46.14 54.94 44.55 55.32 42.97 55.69 41.4 56.06 39.84 56.44 38.27 56.81 36.68 57.19 35.08 57.56 33.47 57.93 31.87 58.31 30.29 58.68 28.77 59.06 27.33 59.43 25.99 59.8 24.74 60.18 23.58 60.55 22.48 60.93 21.39 61.3 20.29 61.67 19.14 62.05 17.93 62.42 16.67 62.8 15.38 63.17 14.1 63.54 12.86 63.92 11.72 64.29 10.71 64.67 9.86 65.04 9.18 65.41 8.68 65.79 8.33 66.16 8.1 66.54 7.96 66.91 7.87 67.28 7.79 67.66 7.72 68.03 7.64 68.4 7.55 68.78 7.47 69.15 7.42 69.53 7.43 69.9 7.5 70.27 7.67 70.65 7.92 71.02 8.29 71.4 8.77 71.77 9.39 72.14 10.18 72.52 11.16 72.89 12.33 73.27 13.69 73.64 15.2 74.01 16.8 74.39 18.44 74.76 20.05 75.14 21.57 75.51 22.97 75.88 24.27 76.26 25.47 76.63 26.62 77.01 27.77 77.38 28.95 77.75 30.22 78.13 31.59 78.5 33.06 78.87 34.61 79.25 36.23 79.62 37.87 80 39.52 80.37 41.15 80.74 42.75 81.12 44.31 81.49 45.81 81.87 47.24 82.24 48.58 82.61 49.83 82.99 50.99 83.36 52.05 83.74 53.05 84.11 54 84.48 54.92 84.86 55.83 85.23 56.74 85.61 57.65 85.98 58.55 86.35 59.44 86.73 60.33 87.1 61.2 87.48 62.06 87.85 62.89 88.22 63.69 88.6 64.45 88.97 65.16 89.34 65.84 89.72 66.48 90.09 67.1 90.47 67.71 90.84 68.32 91.21 68.94 91.59 69.56 91.96 70.19 92.34 70.8 92.71 71.38 93.08 71.92 93.46 72.42 93.83 72.86 94.21 73.26 94.58 73.64 94.95 74 95.33 74.37 95.7 74.74 96.08 75.12 96.45 75.51 96.82 75.89 97.2 76.26 97.57 76.6 97.95 76.9 98.32 77.15 98.69 77.37 99.07 77.55 99.44 77.7 99.81 77.84 100.19 77.96 100.56 78.08 100.94 78.19 101.31 78.3 101.68 78.4 102.06 78.49 102.43 78.57 102.81 78.64 103.18 78.7 103.55 78.77 103.93 78.84 104.3 78.93 104.68 79.03 105.05 79.14 105.42 79.26 105.8 79.37 106.17 79.48 106.55 79.57 106.92 79.64 107.29 79.7 107.67 79.74 108.04 79.78 108.42 79.81 108.79 79.85 109.16 79.88 109.54 79.92 109.91 79.95 110.28 79.99 110.66 80.02 111.03 80.05 111.41 80.06 111.78 80.08 112.15 80.09 112.53 80.09 112.9 80.1 113.28 80.11 113.65 80.12 114.02 80.13 114.4 80.15 114.77 80.17 115.15 80.18 115.52 80.2 115.89 80.21 116.27 80.22 116.64 80.23 117.02 80.23 117.39 80.23 117.76 80.23 118.14 80.23 118.51 80.23 118.89 80.23 119.26 80.23 119.63 80.23 120.01 80.23 120.38 80.23 120.75 80.23 121.13 80.24 121.5 80.25 121.88 80.26 122.25 80.27 122.62 80.28 123 80.29 123.37 80.29 123.75 80.3 124.12 80.31 124.49 80.31 124.87 80.31 125.24 80.31 125.62 80.31 125.99 80.31 126.36 80.31 126.74 80.31 127.11 80.31 127.49 80.31"/>
      </g>
    </g>
  </g>
</g>
  <g class="guide ylabels" font-size="2.82" font-family="'PT Sans Caption','Helvetica Neue','Helvetica',sans-serif" fill="#6C606B" id="img-0045e236-11">
    <text x="10.02" y="80.32" text-anchor="end" dy="0.35em">0.0</text>
    <text x="10.02" y="61.99" text-anchor="end" dy="0.35em">0.2</text>
    <text x="10.02" y="43.66" text-anchor="end" dy="0.35em">0.4</text>
    <text x="10.02" y="25.33" text-anchor="end" dy="0.35em">0.6</text>
    <text x="10.02" y="7" text-anchor="end" dy="0.35em">0.8</text>
  </g>
</g>
<defs>
  <clipPath id="img-0045e236-4">
  <path d="M11.02,5 L 147.4 5 147.4 82.32 11.02 82.32" />
</clipPath>
</defs>
</svg>
