<?xml version="1.0" encoding="UTF-8"?>
<svg xmlns="http://www.w3.org/2000/svg"
     xmlns:xlink="http://www.w3.org/1999/xlink"
     xmlns:gadfly="http://www.gadflyjl.org/ns"
     version="1.2"
     width="203.2mm" height="101.6mm" viewBox="0 0 203.2 101.6"
     stroke="none"
     fill="#000000"
     stroke-width="0.3"
     font-size="3.88"
>
<defs>
  <marker id="arrow" markerWidth="15" markerHeight="7" refX="5" refY="3.5" orient="auto" markerUnits="strokeWidth">
    <path d="M0,0 L15,3.5 L0,7 z" stroke="context-stroke" fill="context-stroke"/>
  </marker>
</defs>
<g class="plotroot xscalable yscalable" id="img-7a805e53-1">
  <g font-size="3.88" font-family="'PT Sans','Helvetica Neue','Helvetica',sans-serif" fill="#564A55" stroke="#000000" stroke-opacity="0.000" id="img-7a805e53-2">
    <g transform="translate(104.61,89.99)">
      <g class="primitive">
        <text text-anchor="middle" dy="0.6em">σ₁²</text>
      </g>
    </g>
  </g>
  <g class="guide xlabels" font-size="2.82" font-family="'PT Sans Caption','Helvetica Neue','Helvetica',sans-serif" fill="#6C606B" id="img-7a805e53-3">
    <g transform="translate(13.02,83.32)">
      <g class="primitive">
        <text text-anchor="middle" dy="0.6em">0</text>
      </g>
    </g>
    <g transform="translate(43.55,83.32)">
      <g class="primitive">
        <text text-anchor="middle" dy="0.6em">1.0×10³</text>
      </g>
    </g>
    <g transform="translate(74.08,83.32)">
      <g class="primitive">
        <text text-anchor="middle" dy="0.6em">2.0×10³</text>
      </g>
    </g>
    <g transform="translate(104.61,83.32)">
      <g class="primitive">
        <text text-anchor="middle" dy="0.6em">3.0×10³</text>
      </g>
    </g>
    <g transform="translate(135.14,83.32)">
      <g class="primitive">
        <text text-anchor="middle" dy="0.6em">4.0×10³</text>
      </g>
    </g>
    <g transform="translate(165.67,83.32)">
      <g class="primitive">
        <text text-anchor="middle" dy="0.6em">5.0×10³</text>
      </g>
    </g>
    <g transform="translate(196.2,83.32)">
      <g class="primitive">
        <text text-anchor="middle" dy="0.6em">6.0×10³</text>
      </g>
    </g>
  </g>
  <g clip-path="url(#img-7a805e53-4)">
    <g id="img-7a805e53-5">
      <g pointer-events="visible" fill="#000000" fill-opacity="0.000" stroke="#000000" stroke-opacity="0.000" class="guide background" id="img-7a805e53-6">
        <g transform="translate(104.61,43.66)" id="img-7a805e53-7">
          <path d="M-93.59,-38.66 L 93.59 -38.66 93.59 38.66 -93.59 38.66 z" class="primitive"/>
        </g>
      </g>
      <g class="guide xgridlines yfixed" stroke-dasharray="0.5,0.5" stroke-width="0.2" stroke="#D0D0E0" id="img-7a805e53-8">
        <g transform="translate(13.02,43.66)" id="img-7a805e53-9">
          <path fill="none" d="M0,-38.66 L 0 38.66" class="primitive"/>
        </g>
        <g transform="translate(43.55,43.66)" id="img-7a805e53-10">
          <path fill="none" d="M0,-38.66 L 0 38.66" class="primitive"/>
        </g>
        <g transform="translate(74.08,43.66)" id="img-7a805e53-11">
          <path fill="none" d="M0,-38.66 L 0 38.66" class="primitive"/>
        </g>
        <g transform="translate(104.61,43.66)" id="img-7a805e53-12">
          <path fill="none" d="M0,-38.66 L 0 38.66" class="primitive"/>
        </g>
        <g transform="translate(135.14,43.66)" id="img-7a805e53-13">
          <path fill="none" d="M0,-38.66 L 0 38.66" class="primitive"/>
        </g>
        <g transform="translate(165.67,43.66)" id="img-7a805e53-14">
          <path fill="none" d="M0,-38.66 L 0 38.66" class="primitive"/>
        </g>
        <g transform="translate(196.2,43.66)" id="img-7a805e53-15">
          <path fill="none" d="M0,-38.66 L 0 38.66" class="primitive"/>
        </g>
      </g>
      <g class="guide ygridlines xfixed" stroke-dasharray="0.5,0.5" stroke-width="0.2" stroke="#D0D0E0" id="img-7a805e53-16">
        <g transform="translate(104.61,80.31)" id="img-7a805e53-17">
          <path fill="none" d="M-93.59,0 L 93.59 0" class="primitive"/>
        </g>
        <g transform="translate(104.61,72.98)" id="img-7a805e53-18">
          <path fill="none" d="M-93.59,0 L 93.59 0" class="primitive"/>
        </g>
        <g transform="translate(104.61,14.33)" id="img-7a805e53-19">
          <path fill="none" d="M-93.59,0 L 93.59 0" class="primitive"/>
        </g>
        <g transform="translate(104.61,7)" id="img-7a805e53-20">
          <path fill="none" d="M-93.59,0 L 93.59 0" class="primitive"/>
        </g>
      </g>
      <g class="plotpanel" id="img-7a805e53-21">
        <metadata>
          <boundingbox value="11.02000000000001mm 5.0mm 187.18mm 77.315mm"/>
          <unitbox value="-65.50933508024893 1.027279547159517 6131.018670160498 -1.0545590943190344"/>
        </metadata>
        <g class="yfixed" id="img-7a805e53-22">
          <g stroke-dasharray="none" stroke-width="0.3" stroke="#FF0000" id="img-7a805e53-23">
            <g transform="translate(68.02,43.66)" id="img-7a805e53-24">
              <path fill="none" d="M0,-38.66 L 0 38.66" class="primitive"/>
            </g>
          </g>
          <g stroke-dasharray="none" stroke-width="0.3" stroke="#FF0000" id="img-7a805e53-25">
            <g transform="translate(13.02,43.66)" id="img-7a805e53-26">
              <path fill="none" d="M0,-38.66 L 0 38.66" class="primitive"/>
            </g>
          </g>
        </g>
        <g class="yfixed" id="img-7a805e53-27">
          <g stroke-dasharray="none" stroke-width="0.3" stroke="#FFA500" id="img-7a805e53-28">
            <g transform="translate(86.77,43.66)" id="img-7a805e53-29">
              <path fill="none" d="M0,-38.66 L 0 38.66" class="primitive"/>
            </g>
          </g>
          <g stroke-dasharray="none" stroke-width="0.3" stroke="#FFA500" id="img-7a805e53-30">
            <g transform="translate(13.02,43.66)" id="img-7a805e53-31">
              <path fill="none" d="M0,-38.66 L 0 38.66" class="primitive"/>
            </g>
          </g>
        </g>
        <g stroke-width="0.3" fill="#000000" fill-opacity="0.000" class="geometry" id="img-7a805e53-32">
          <g class="color_LCHab{Float32}(70.0f0,60.0f0,240.0f0)" stroke-dasharray="none" stroke="#00BFFF" id="img-7a805e53-33">
            <g transform="translate(46.4,43.66)" id="img-7a805e53-34">
              <path fill="none" d="M-33.38,36.51 L -33.38 36.22 -33.38 35.92 -33.38 35.63 -33.38 35.34 -33.38 35.04 -33.38 34.75 -33.38 34.46 -33.38 34.16 -33.38 33.87 -33.38 33.58 -33.38 33.29 -33.38 32.99 -33.38 32.7 -33.38 32.41 -33.38 32.11 -33.38 31.82 -33.38 31.53 -33.38 31.23 -33.38 30.94 -33.38 30.65 -33.38 30.35 -33.38 30.06 -33.38 29.77 -33.38 29.47 -33.28 29.18 -32.96 28.89 -32.62 28.59 -32.3 28.3 -31.98 28.01 -31.67 27.71 -31.34 27.42 -31.03 27.13 -30.72 26.83 -30.43 26.54 -30.13 26.25 -29.84 25.95 -29.56 25.66 -29.25 25.37 -28.97 25.07 -28.68 24.78 -28.4 24.49 -28.11 24.19 -27.83 23.9 -27.59 23.61 -27.34 23.31 -27.06 23.02 -26.78 22.73 -26.51 22.43 -26.25 22.14 -25.98 21.85 -25.72 21.55 -25.46 21.26 -25.19 20.97 -24.92 20.67 -24.67 20.38 -24.41 20.09 -24.16 19.8 -23.9 19.5 -23.65 19.21 -23.38 18.92 -23.12 18.62 -22.86 18.33 -22.61 18.04 -22.35 17.74 -22.12 17.45 -21.86 17.16 -21.61 16.86 -21.33 16.57 -21.07 16.28 -20.84 15.98 -20.6 15.69 -20.35 15.4 -20.06 15.1 -19.79 14.81 -19.54 14.52 -19.28 14.22 -19.05 13.93 -18.79 13.64 -18.52 13.34 -18.29 13.05 -18.04 12.76 -17.78 12.46 -17.54 12.17 -17.26 11.88 -17.01 11.58 -16.75 11.29 -16.51 11 -16.25 10.7 -15.98 10.41 -15.73 10.12 -15.46 9.82 -15.2 9.53 -14.91 9.24 -14.66 8.94 -14.39 8.65 -14.12 8.36 -13.86 8.06 -13.63 7.77 -13.36 7.48 -13.08 7.18 -12.82 6.89 -12.55 6.6 -12.27 6.31 -12.02 6.01 -11.78 5.72 -11.52 5.43 -11.22 5.13 -10.94 4.84 -10.69 4.55 -10.42 4.25 -10.15 3.96 -9.89 3.67 -9.62 3.37 -9.36 3.08 -9.07 2.79 -8.79 2.49 -8.52 2.2 -8.25 1.91 -7.99 1.61 -7.72 1.32 -7.41 1.03 -7.14 0.73 -6.87 0.44 -6.61 0.15 -6.32 -0.15 -6.05 -0.44 -5.79 -0.73 -5.5 -1.03 -5.2 -1.32 -4.93 -1.61 -4.65 -1.91 -4.36 -2.2 -4.09 -2.49 -3.8 -2.79 -3.52 -3.08 -3.21 -3.37 -2.92 -3.67 -2.64 -3.96 -2.33 -4.25 -2.04 -4.55 -1.72 -4.84 -1.42 -5.13 -1.12 -5.43 -0.83 -5.72 -0.54 -6.01 -0.24 -6.31 0.08 -6.6 0.38 -6.89 0.7 -7.18 1.05 -7.48 1.39 -7.77 1.74 -8.06 2.08 -8.36 2.41 -8.65 2.75 -8.94 3.1 -9.24 3.44 -9.53 3.77 -9.82 4.11 -10.12 4.45 -10.41 4.77 -10.7 5.11 -11 5.47 -11.29 5.83 -11.58 6.19 -11.88 6.56 -12.17 6.91 -12.46 7.26 -12.76 7.62 -13.05 7.98 -13.34 8.41 -13.64 8.78 -13.93 9.2 -14.22 9.59 -14.52 9.99 -14.81 10.41 -15.1 10.84 -15.4 11.25 -15.69 11.67 -15.98 12.14 -16.28 12.57 -16.57 12.98 -16.86 13.41 -17.16 13.87 -17.45 14.32 -17.74 14.77 -18.04 15.26 -18.33 15.72 -18.62 16.2 -18.92 16.69 -19.21 17.16 -19.5 17.66 -19.8 18.12 -20.09 18.61 -20.38 19.13 -20.67 19.65 -20.97 20.2 -21.26 20.77 -21.55 21.34 -21.85 21.91 -22.14 22.45 -22.43 23.02 -22.73 23.62 -23.02 24.22 -23.31 24.84 -23.61 25.49 -23.9 26.15 -24.19 26.8 -24.49 27.47 -24.78 28.09 -25.07 28.81 -25.37 29.52 -25.66 30.29 -25.95 31.01 -26.25 31.78 -26.54 32.63 -26.83 33.44 -27.13 34.27 -27.42 35.1 -27.71 35.94 -28.01 36.9 -28.3 37.85 -28.59 38.88 -28.89 39.85 -29.18 40.89 -29.47 41.99 -29.77 43.07 -30.06 44.24 -30.35 45.35 -30.65 46.78 -30.94 47.97 -31.23 49.33 -31.53 50.81 -31.82 52.3 -32.11 53.97 -32.41 55.61 -32.7 57.62 -32.99 59.49 -33.29 61.74 -33.58 64.11 -33.87 66.9 -34.16 69.78 -34.46 73.56 -34.75 77.84 -35.04 82.75 -35.34 88.72 -35.63 96.5 -35.92 108.36 -36.22 133.01 -36.51" class="primitive"/>
            </g>
          </g>
        </g>
      </g>
    </g>
  </g>
  <g class="guide ylabels" font-size="2.82" font-family="'PT Sans Caption','Helvetica Neue','Helvetica',sans-serif" fill="#6C606B" id="img-7a805e53-35">
    <g transform="translate(10.02,80.31)" id="img-7a805e53-36">
      <g class="primitive">
        <text text-anchor="end" dy="0.35em">0.0</text>
      </g>
    </g>
    <g transform="translate(10.02,72.98)" id="img-7a805e53-37">
      <g class="primitive">
        <text text-anchor="end" dy="0.35em">0.1</text>
      </g>
    </g>
    <g transform="translate(10.02,14.33)" id="img-7a805e53-38">
      <g class="primitive">
        <text text-anchor="end" dy="0.35em">0.9</text>
      </g>
    </g>
    <g transform="translate(10.02,7)" id="img-7a805e53-39">
      <g class="primitive">
        <text text-anchor="end" dy="0.35em">1.0</text>
      </g>
    </g>
  </g>
</g>
<defs>
  <clipPath id="img-7a805e53-4">
    <path d="M11.02,5 L 198.2 5 198.2 82.32 11.02 82.32" />
  </clipPath>
</defs>
</svg>
