<?xml version="1.0" encoding="UTF-8"?>
<svg xmlns="http://www.w3.org/2000/svg"
     xmlns:xlink="http://www.w3.org/1999/xlink"
     xmlns:gadfly="http://www.gadflyjl.org/ns"
     version="1.2"
     width="203.2mm" height="101.6mm" viewBox="0 0 203.2 101.6"
     stroke="none"
     fill="#000000"
     stroke-width="0.3"
     font-size="3.88"
>
<defs>
  <marker id="arrow" markerWidth="15" markerHeight="7" refX="5" refY="3.5" orient="auto" markerUnits="strokeWidth">
    <path d="M0,0 L15,3.5 L0,7 z" stroke="context-stroke" fill="context-stroke"/>
  </marker>
</defs>
<g class="plotroot xscalable yscalable" id="img-fd4fc776-1">
  <g font-size="3.88" font-family="'PT Sans','Helvetica Neue','Helvetica',sans-serif" fill="#564A55" stroke="#000000" stroke-opacity="0.000" id="img-fd4fc776-2">
    <g transform="translate(108.08,89.99)">
      <g class="primitive">
        <text text-anchor="middle" dy="0.6em">Standard Normal Quantiles</text>
      </g>
    </g>
  </g>
  <g class="guide xlabels" font-size="2.82" font-family="'PT Sans Caption','Helvetica Neue','Helvetica',sans-serif" fill="#6C606B" id="img-fd4fc776-3">
    <g transform="translate(19.96,83.32)">
      <g class="primitive">
        <text text-anchor="middle" dy="0.6em">-3</text>
      </g>
    </g>
    <g transform="translate(49.33,83.32)">
      <g class="primitive">
        <text text-anchor="middle" dy="0.6em">-2</text>
      </g>
    </g>
    <g transform="translate(78.71,83.32)">
      <g class="primitive">
        <text text-anchor="middle" dy="0.6em">-1</text>
      </g>
    </g>
    <g transform="translate(108.08,83.32)">
      <g class="primitive">
        <text text-anchor="middle" dy="0.6em">0</text>
      </g>
    </g>
    <g transform="translate(137.45,83.32)">
      <g class="primitive">
        <text text-anchor="middle" dy="0.6em">1</text>
      </g>
    </g>
    <g transform="translate(166.83,83.32)">
      <g class="primitive">
        <text text-anchor="middle" dy="0.6em">2</text>
      </g>
    </g>
    <g transform="translate(196.2,83.32)">
      <g class="primitive">
        <text text-anchor="middle" dy="0.6em">3</text>
      </g>
    </g>
  </g>
  <g clip-path="url(#img-fd4fc776-4)">
    <g id="img-fd4fc776-5">
      <g pointer-events="visible" fill="#000000" fill-opacity="0.000" stroke="#000000" stroke-opacity="0.000" class="guide background" id="img-fd4fc776-6">
        <g transform="translate(108.08,43.66)" id="img-fd4fc776-7">
          <path d="M-90.12,-38.66 L 90.12 -38.66 90.12 38.66 -90.12 38.66 z" class="primitive"/>
        </g>
      </g>
      <g class="guide ygridlines xfixed" stroke-dasharray="0.5,0.5" stroke-width="0.2" stroke="#D0D0E0" id="img-fd4fc776-8">
        <g transform="translate(108.08,80.32)" id="img-fd4fc776-9">
          <path fill="none" d="M-90.12,0 L 90.12 0" class="primitive"/>
        </g>
        <g transform="translate(108.08,61.99)" id="img-fd4fc776-10">
          <path fill="none" d="M-90.12,0 L 90.12 0" class="primitive"/>
        </g>
        <g transform="translate(108.08,43.66)" id="img-fd4fc776-11">
          <path fill="none" d="M-90.12,0 L 90.12 0" class="primitive"/>
        </g>
        <g transform="translate(108.08,25.33)" id="img-fd4fc776-12">
          <path fill="none" d="M-90.12,0 L 90.12 0" class="primitive"/>
        </g>
        <g transform="translate(108.08,7)" id="img-fd4fc776-13">
          <path fill="none" d="M-90.12,0 L 90.12 0" class="primitive"/>
        </g>
      </g>
      <g class="guide xgridlines yfixed" stroke-dasharray="0.5,0.5" stroke-width="0.2" stroke="#D0D0E0" id="img-fd4fc776-14">
        <g transform="translate(19.96,43.66)" id="img-fd4fc776-15">
          <path fill="none" d="M0,-38.66 L 0 38.66" class="primitive"/>
        </g>
        <g transform="translate(49.33,43.66)" id="img-fd4fc776-16">
          <path fill="none" d="M0,-38.66 L 0 38.66" class="primitive"/>
        </g>
        <g transform="translate(78.71,43.66)" id="img-fd4fc776-17">
          <path fill="none" d="M0,-38.66 L 0 38.66" class="primitive"/>
        </g>
        <g transform="translate(108.08,43.66)" id="img-fd4fc776-18">
          <path fill="none" d="M0,-38.66 L 0 38.66" class="primitive"/>
        </g>
        <g transform="translate(137.45,43.66)" id="img-fd4fc776-19">
          <path fill="none" d="M0,-38.66 L 0 38.66" class="primitive"/>
        </g>
        <g transform="translate(166.83,43.66)" id="img-fd4fc776-20">
          <path fill="none" d="M0,-38.66 L 0 38.66" class="primitive"/>
        </g>
        <g transform="translate(196.2,43.66)" id="img-fd4fc776-21">
          <path fill="none" d="M0,-38.66 L 0 38.66" class="primitive"/>
        </g>
      </g>
      <g class="plotpanel" id="img-fd4fc776-22">
        <metadata>
          <boundingbox value="17.958333333333343mm 5.0mm 180.24166666666667mm 77.315mm"/>
          <unitbox value="-3.068088325689158 82.18236377276138 6.136176651378316 -84.36472754552275"/>
        </metadata>
        <g stroke-width="0.3" fill="#000000" fill-opacity="0.000" class="geometry" id="img-fd4fc776-23">
          <g class="color_LCHab{Float32}(70.0f0,60.0f0,240.0f0)" stroke-dasharray="none" stroke="#00BFFF" id="img-fd4fc776-24">
            <g transform="translate(108.08,53.83)" id="img-fd4fc776-25">
              <path fill="none" d="M-84.54,26.49 L -73.79 26.49 -68.33 26.49 -64.54 26.49 -61.59 26.49 -59.16 26.49 -57.08 26.49 -55.25 26.49 -53.61 26.49 -52.12 26.49 -50.76 26.49 -49.49 26.49 -48.32 26.49 -47.21 26.49 -46.17 26.49 -45.18 26.49 -44.24 26.49 -43.35 26.49 -42.49 26.49 -41.67 26.49 -40.88 26.49 -40.12 26.49 -39.38 26.49 -38.67 26.49 -37.98 26.49 -37.31 24.89 -36.66 23.09 -36.03 21.93 -35.41 21.04 -34.81 20.29 -34.22 19.63 -33.65 19 -33.09 18.45 -32.54 17.93 -32 17.48 -31.47 17.04 -30.95 16.62 -30.44 16.24 -29.94 15.84 -29.45 15.47 -28.97 15.12 -28.5 14.78 -28.03 14.45 -27.57 14.14 -27.11 13.87 -26.66 13.6 -26.22 13.31 -25.79 13.01 -25.36 12.74 -24.93 12.48 -24.51 12.23 -24.1 11.97 -23.69 11.73 -23.28 11.48 -22.88 11.24 -22.48 11.01 -22.09 10.78 -21.7 10.57 -21.32 10.34 -20.94 10.13 -20.56 9.91 -20.18 9.69 -19.81 9.48 -19.44 9.27 -19.08 9.07 -18.72 8.89 -18.36 8.69 -18 8.5 -17.65 8.28 -17.29 8.09 -16.95 7.92 -16.6 7.74 -16.25 7.55 -15.91 7.35 -15.57 7.15 -15.23 6.98 -14.9 6.8 -14.56 6.64 -14.23 6.45 -13.9 6.27 -13.57 6.12 -13.25 5.94 -12.92 5.77 -12.6 5.61 -12.28 5.43 -11.96 5.27 -11.64 5.1 -11.32 4.95 -11 4.78 -10.69 4.61 -10.37 4.46 -10.06 4.29 -9.75 4.13 -9.44 3.95 -9.13 3.8 -8.82 3.63 -8.51 3.47 -8.2 3.32 -7.9 3.18 -7.59 3.02 -7.29 2.86 -6.99 2.71 -6.68 2.55 -6.38 2.39 -6.08 2.25 -5.78 2.11 -5.48 1.96 -5.18 1.8 -4.88 1.64 -4.58 1.5 -4.29 1.35 -3.99 1.21 -3.69 1.07 -3.39 0.92 -3.1 0.78 -2.8 0.63 -2.51 0.48 -2.21 0.34 -1.92 0.2 -1.62 0.06 -1.33 -0.08 -1.03 -0.24 -0.74 -0.38 -0.44 -0.52 -0.15 -0.65 0.15 -0.79 0.44 -0.93 0.74 -1.06 1.03 -1.21 1.33 -1.35 1.62 -1.49 1.92 -1.63 2.21 -1.77 2.51 -1.9 2.8 -2.04 3.1 -2.17 3.39 -2.32 3.69 -2.46 3.99 -2.59 4.29 -2.74 4.58 -2.87 4.88 -3.02 5.18 -3.16 5.48 -3.3 5.78 -3.44 6.08 -3.57 6.38 -3.7 6.68 -3.85 6.99 -3.99 7.29 -4.13 7.59 -4.29 7.9 -4.44 8.2 -4.59 8.51 -4.74 8.82 -4.89 9.13 -5.04 9.44 -5.19 9.75 -5.34 10.06 -5.48 10.37 -5.62 10.69 -5.77 11 -5.91 11.32 -6.05 11.64 -6.2 11.96 -6.35 12.28 -6.51 12.6 -6.66 12.92 -6.8 13.25 -6.95 13.57 -7.1 13.9 -7.24 14.23 -7.42 14.56 -7.57 14.9 -7.74 15.23 -7.89 15.57 -8.05 15.91 -8.22 16.25 -8.39 16.6 -8.55 16.95 -8.71 17.29 -8.9 17.65 -9.07 18 -9.22 18.36 -9.39 18.72 -9.57 19.08 -9.74 19.44 -9.91 19.81 -10.09 20.18 -10.26 20.56 -10.44 20.94 -10.62 21.32 -10.8 21.7 -10.98 22.09 -11.15 22.48 -11.33 22.88 -11.52 23.28 -11.71 23.69 -11.9 24.1 -12.11 24.51 -12.31 24.93 -12.51 25.36 -12.7 25.79 -12.9 26.22 -13.11 26.66 -13.32 27.11 -13.53 27.57 -13.76 28.03 -13.98 28.5 -14.2 28.97 -14.43 29.45 -14.63 29.94 -14.87 30.44 -15.11 30.95 -15.36 31.47 -15.6 32 -15.85 32.54 -16.12 33.09 -16.38 33.65 -16.65 34.22 -16.91 34.81 -17.18 35.41 -17.48 36.03 -17.78 36.66 -18.1 37.31 -18.4 37.98 -18.71 38.67 -19.05 39.38 -19.37 40.12 -19.72 40.88 -20.05 41.67 -20.47 42.49 -20.82 43.35 -21.21 44.24 -21.64 45.18 -22.06 46.17 -22.53 47.21 -22.99 48.32 -23.55 49.49 -24.06 50.76 -24.66 52.12 -25.3 53.61 -26.04 55.25 -26.78 57.08 -27.75 59.16 -28.82 61.59 -30.03 64.54 -31.47 68.33 -33.29 73.79 -35.96 84.54 -41.17" class="primitive"/>
            </g>
          </g>
        </g>
      </g>
    </g>
  </g>
  <g class="guide ylabels" font-size="2.82" font-family="'PT Sans Caption','Helvetica Neue','Helvetica',sans-serif" fill="#6C606B" id="img-fd4fc776-26">
    <g transform="translate(16.96,80.32)" id="img-fd4fc776-27">
      <g class="primitive">
        <text text-anchor="end" dy="0.35em">0</text>
      </g>
    </g>
    <g transform="translate(16.96,61.99)" id="img-fd4fc776-28">
      <g class="primitive">
        <text text-anchor="end" dy="0.35em">20</text>
      </g>
    </g>
    <g transform="translate(16.96,43.66)" id="img-fd4fc776-29">
      <g class="primitive">
        <text text-anchor="end" dy="0.35em">40</text>
      </g>
    </g>
    <g transform="translate(16.96,25.33)" id="img-fd4fc776-30">
      <g class="primitive">
        <text text-anchor="end" dy="0.35em">60</text>
      </g>
    </g>
    <g transform="translate(16.96,7)" id="img-fd4fc776-31">
      <g class="primitive">
        <text text-anchor="end" dy="0.35em">80</text>
      </g>
    </g>
  </g>
  <g font-size="3.88" font-family="'PT Sans','Helvetica Neue','Helvetica',sans-serif" fill="#564A55" stroke="#000000" stroke-opacity="0.000" id="img-fd4fc776-32">
    <g transform="translate(8.81,41.66)" id="img-fd4fc776-33">
      <g class="primitive">
        <text text-anchor="middle" dy="0.35em" transform="rotate(-90,0, 2)">σ₁</text>
      </g>
    </g>
  </g>
</g>
<defs>
  <clipPath id="img-fd4fc776-4">
    <path d="M17.96,5 L 198.2 5 198.2 82.32 17.96 82.32" />
  </clipPath>
</defs>
</svg>
