<?xml version="1.0" encoding="UTF-8"?>
<svg xmlns="http://www.w3.org/2000/svg"
     xmlns:xlink="http://www.w3.org/1999/xlink"
     xmlns:gadfly="http://www.gadflyjl.org/ns"
     version="1.2"
     width="203.2mm" height="101.6mm" viewBox="0 0 203.2 101.6"
     stroke="none"
     fill="#000000"
     stroke-width="0.3"
     font-size="3.88"
>
<defs>
  <marker id="arrow" markerWidth="15" markerHeight="7" refX="5" refY="3.5" orient="auto" markerUnits="strokeWidth">
    <path d="M0,0 L15,3.5 L0,7 z" stroke="context-stroke" fill="context-stroke"/>
  </marker>
</defs>
<g class="plotroot xscalable yscalable" id="img-a584ae3d-1">
  <g font-size="3.88" font-family="'PT Sans','Helvetica Neue','Helvetica',sans-serif" fill="#564A55" stroke="#000000" stroke-opacity="0.000" id="img-a584ae3d-2">
    <g transform="translate(104.61,89.99)">
      <g class="primitive">
        <text text-anchor="middle" dy="0.6em">σ₁</text>
      </g>
    </g>
  </g>
  <g class="guide xlabels" font-size="2.82" font-family="'PT Sans Caption','Helvetica Neue','Helvetica',sans-serif" fill="#6C606B" id="img-a584ae3d-3">
    <g transform="translate(13.02,83.32)">
      <g class="primitive">
        <text text-anchor="middle" dy="0.6em">0</text>
      </g>
    </g>
    <g transform="translate(58.82,83.32)">
      <g class="primitive">
        <text text-anchor="middle" dy="0.6em">20</text>
      </g>
    </g>
    <g transform="translate(104.61,83.32)">
      <g class="primitive">
        <text text-anchor="middle" dy="0.6em">40</text>
      </g>
    </g>
    <g transform="translate(150.4,83.32)">
      <g class="primitive">
        <text text-anchor="middle" dy="0.6em">60</text>
      </g>
    </g>
    <g transform="translate(196.2,83.32)">
      <g class="primitive">
        <text text-anchor="middle" dy="0.6em">80</text>
      </g>
    </g>
  </g>
  <g clip-path="url(#img-a584ae3d-4)">
    <g id="img-a584ae3d-5">
      <g pointer-events="visible" fill="#000000" fill-opacity="0.000" stroke="#000000" stroke-opacity="0.000" class="guide background" id="img-a584ae3d-6">
        <g transform="translate(104.61,43.66)" id="img-a584ae3d-7">
          <path d="M-93.59,-38.66 L 93.59 -38.66 93.59 38.66 -93.59 38.66 z" class="primitive"/>
        </g>
      </g>
      <g class="guide xgridlines yfixed" stroke-dasharray="0.5,0.5" stroke-width="0.2" stroke="#D0D0E0" id="img-a584ae3d-8">
        <g transform="translate(13.02,43.66)" id="img-a584ae3d-9">
          <path fill="none" d="M0,-38.66 L 0 38.66" class="primitive"/>
        </g>
        <g transform="translate(58.82,43.66)" id="img-a584ae3d-10">
          <path fill="none" d="M0,-38.66 L 0 38.66" class="primitive"/>
        </g>
        <g transform="translate(104.61,43.66)" id="img-a584ae3d-11">
          <path fill="none" d="M0,-38.66 L 0 38.66" class="primitive"/>
        </g>
        <g transform="translate(150.4,43.66)" id="img-a584ae3d-12">
          <path fill="none" d="M0,-38.66 L 0 38.66" class="primitive"/>
        </g>
        <g transform="translate(196.2,43.66)" id="img-a584ae3d-13">
          <path fill="none" d="M0,-38.66 L 0 38.66" class="primitive"/>
        </g>
      </g>
      <g class="guide ygridlines xfixed" stroke-dasharray="0.5,0.5" stroke-width="0.2" stroke="#D0D0E0" id="img-a584ae3d-14">
        <g transform="translate(104.61,80.31)" id="img-a584ae3d-15">
          <path fill="none" d="M-93.59,0 L 93.59 0" class="primitive"/>
        </g>
        <g transform="translate(104.61,72.98)" id="img-a584ae3d-16">
          <path fill="none" d="M-93.59,0 L 93.59 0" class="primitive"/>
        </g>
        <g transform="translate(104.61,14.33)" id="img-a584ae3d-17">
          <path fill="none" d="M-93.59,0 L 93.59 0" class="primitive"/>
        </g>
        <g transform="translate(104.61,7)" id="img-a584ae3d-18">
          <path fill="none" d="M-93.59,0 L 93.59 0" class="primitive"/>
        </g>
      </g>
      <g class="plotpanel" id="img-a584ae3d-19">
        <metadata>
          <boundingbox value="11.02000000000001mm 5.0mm 187.17999999999998mm 77.315mm"/>
          <unitbox value="-0.8734578010699859 1.027279547159517 81.74691560213998 -1.0545590943190344"/>
        </metadata>
        <g class="yfixed" id="img-a584ae3d-20">
          <g stroke-dasharray="none" stroke-width="0.3" stroke="#FF0000" id="img-a584ae3d-21">
            <g transform="translate(110.2,43.66)" id="img-a584ae3d-22">
              <path fill="none" d="M0,-38.66 L 0 38.66" class="primitive"/>
            </g>
          </g>
          <g stroke-dasharray="none" stroke-width="0.3" stroke="#FF0000" id="img-a584ae3d-23">
            <g transform="translate(13.02,43.66)" id="img-a584ae3d-24">
              <path fill="none" d="M0,-38.66 L 0 38.66" class="primitive"/>
            </g>
          </g>
        </g>
        <g class="yfixed" id="img-a584ae3d-25">
          <g stroke-dasharray="none" stroke-width="0.3" stroke="#FFA500" id="img-a584ae3d-26">
            <g transform="translate(125.56,43.66)" id="img-a584ae3d-27">
              <path fill="none" d="M0,-38.66 L 0 38.66" class="primitive"/>
            </g>
          </g>
          <g stroke-dasharray="none" stroke-width="0.3" stroke="#FFA500" id="img-a584ae3d-28">
            <g transform="translate(13.02,43.66)" id="img-a584ae3d-29">
              <path fill="none" d="M0,-38.66 L 0 38.66" class="primitive"/>
            </g>
          </g>
        </g>
        <g stroke-width="0.3" fill="#000000" fill-opacity="0.000" class="geometry" id="img-a584ae3d-30">
          <g class="color_LCHab{Float32}(70.0f0,60.0f0,240.0f0)" stroke-dasharray="none" stroke="#00BFFF" id="img-a584ae3d-31">
            <g transform="translate(79.2,43.66)" id="img-a584ae3d-32">
              <path fill="none" d="M-66.18,36.51 L -66.18 36.22 -66.18 35.92 -66.18 35.63 -66.18 35.34 -66.18 35.04 -66.18 34.75 -66.18 34.46 -66.18 34.16 -66.18 33.87 -66.18 33.58 -66.18 33.29 -66.18 32.99 -66.18 32.7 -66.18 32.41 -66.18 32.11 -66.18 31.82 -66.18 31.53 -66.18 31.23 -66.18 30.94 -66.18 30.65 -66.18 30.35 -66.18 30.06 -66.18 29.77 -66.18 29.47 -62.19 29.18 -57.68 28.89 -54.8 28.59 -52.58 28.3 -50.71 28.01 -49.04 27.71 -47.47 27.42 -46.1 27.13 -44.8 26.83 -43.68 26.54 -42.58 26.25 -41.53 25.95 -40.58 25.66 -39.57 25.37 -38.66 25.07 -37.77 24.78 -36.93 24.49 -36.1 24.19 -35.33 23.9 -34.65 23.61 -33.97 23.31 -33.24 23.02 -32.51 22.73 -31.83 22.43 -31.19 22.14 -30.55 21.85 -29.92 21.55 -29.31 21.26 -28.69 20.97 -28.08 20.67 -27.51 20.38 -26.93 20.09 -26.4 19.8 -25.85 19.5 -25.31 19.21 -24.75 18.92 -24.21 18.62 -23.68 18.33 -23.17 18.04 -22.67 17.74 -22.2 17.45 -21.72 17.16 -21.23 16.86 -20.69 16.57 -20.2 16.28 -19.78 15.98 -19.34 15.69 -18.87 15.4 -18.36 15.1 -17.87 14.81 -17.43 14.52 -16.98 14.22 -16.58 13.93 -16.12 13.64 -15.68 13.34 -15.28 13.05 -14.85 12.76 -14.42 12.46 -14.02 12.17 -13.57 11.88 -13.16 11.58 -12.74 11.29 -12.36 11 -11.95 10.7 -11.53 10.41 -11.13 10.12 -10.71 9.82 -10.31 9.53 -9.86 9.24 -9.49 8.94 -9.08 8.65 -8.68 8.36 -8.28 8.06 -7.94 7.77 -7.55 7.48 -7.14 7.18 -6.76 6.89 -6.37 6.6 -5.98 6.31 -5.61 6.01 -5.27 5.72 -4.91 5.43 -4.5 5.13 -4.11 4.84 -3.76 4.55 -3.38 4.25 -3.02 3.96 -2.66 3.67 -2.3 3.37 -1.96 3.08 -1.57 2.79 -1.2 2.49 -0.85 2.2 -0.49 1.91 -0.15 1.61 0.21 1.32 0.6 1.03 0.95 0.73 1.29 0.44 1.62 0.15 1.98 -0.15 2.32 -0.44 2.65 -0.73 3.01 -1.03 3.38 -1.32 3.72 -1.61 4.06 -1.91 4.41 -2.2 4.74 -2.49 5.09 -2.79 5.42 -3.08 5.8 -3.37 6.15 -3.67 6.47 -3.96 6.84 -4.25 7.18 -4.55 7.56 -4.84 7.9 -5.13 8.25 -5.43 8.59 -5.72 8.92 -6.01 9.26 -6.31 9.62 -6.6 9.96 -6.89 10.32 -7.18 10.71 -7.48 11.09 -7.77 11.48 -8.06 11.85 -8.36 12.21 -8.65 12.59 -8.94 12.97 -9.24 13.33 -9.53 13.69 -9.82 14.05 -10.12 14.42 -10.41 14.76 -10.7 15.12 -11 15.5 -11.29 15.88 -11.58 16.25 -11.88 16.64 -12.17 17 -12.46 17.36 -12.76 17.73 -13.05 18.1 -13.34 18.53 -13.64 18.91 -13.93 19.33 -14.22 19.72 -14.52 20.12 -14.81 20.54 -15.1 20.96 -15.4 21.36 -15.69 21.77 -15.98 22.24 -16.28 22.65 -16.57 23.05 -16.86 23.45 -17.16 23.9 -17.45 24.33 -17.74 24.75 -18.04 25.21 -18.33 25.64 -18.62 26.09 -18.92 26.54 -19.21 26.98 -19.5 27.45 -19.8 27.86 -20.09 28.31 -20.38 28.78 -20.67 29.25 -20.97 29.74 -21.26 30.25 -21.55 30.76 -21.85 31.26 -22.14 31.73 -22.43 32.24 -22.73 32.75 -23.02 33.28 -23.31 33.81 -23.61 34.37 -23.9 34.93 -24.19 35.48 -24.49 36.05 -24.78 36.56 -25.07 37.16 -25.37 37.76 -25.66 38.39 -25.95 38.97 -26.25 39.61 -26.54 40.29 -26.83 40.94 -27.13 41.6 -27.42 42.26 -27.71 42.93 -28.01 43.68 -28.3 44.42 -28.59 45.22 -28.89 45.96 -29.18 46.76 -29.47 47.59 -29.77 48.4 -30.06 49.28 -30.35 50.09 -30.65 51.14 -30.94 52.02 -31.23 53 -31.53 54.06 -31.82 55.12 -32.11 56.3 -32.41 57.44 -32.7 58.83 -32.99 60.11 -33.29 61.63 -33.58 63.21 -33.87 65.05 -34.16 66.92 -34.46 69.34 -34.75 72.02 -35.04 75.04 -35.34 78.62 -35.63 83.17 -35.92 89.84 -36.22 102.86 -36.51" class="primitive"/>
            </g>
          </g>
        </g>
      </g>
    </g>
  </g>
  <g class="guide ylabels" font-size="2.82" font-family="'PT Sans Caption','Helvetica Neue','Helvetica',sans-serif" fill="#6C606B" id="img-a584ae3d-33">
    <g transform="translate(10.02,80.31)" id="img-a584ae3d-34">
      <g class="primitive">
        <text text-anchor="end" dy="0.35em">0.0</text>
      </g>
    </g>
    <g transform="translate(10.02,72.98)" id="img-a584ae3d-35">
      <g class="primitive">
        <text text-anchor="end" dy="0.35em">0.1</text>
      </g>
    </g>
    <g transform="translate(10.02,14.33)" id="img-a584ae3d-36">
      <g class="primitive">
        <text text-anchor="end" dy="0.35em">0.9</text>
      </g>
    </g>
    <g transform="translate(10.02,7)" id="img-a584ae3d-37">
      <g class="primitive">
        <text text-anchor="end" dy="0.35em">1.0</text>
      </g>
    </g>
  </g>
</g>
<defs>
  <clipPath id="img-a584ae3d-4">
    <path d="M11.02,5 L 198.2 5 198.2 82.32 11.02 82.32" />
  </clipPath>
</defs>
</svg>
