<?xml version="1.0" encoding="UTF-8"?>
<svg xmlns="http://www.w3.org/2000/svg"
     xmlns:xlink="http://www.w3.org/1999/xlink"
     xmlns:gadfly="http://www.gadflyjl.org/ns"
     version="1.2"
     width="203.2mm" height="101.6mm" viewBox="0 0 203.2 101.6"
     stroke="none"
     fill="#000000"
     stroke-width="0.3"
     font-size="3.88"
>
<defs>
  <marker id="arrow" markerWidth="15" markerHeight="7" refX="5" refY="3.5" orient="auto" markerUnits="strokeWidth">
    <path d="M0,0 L15,3.5 L0,7 z" stroke="context-stroke" fill="context-stroke"/>
  </marker>
</defs>
<g class="plotroot xscalable yscalable" id="img-67262a8d-1">
  <g font-size="3.88" font-family="'PT Sans','Helvetica Neue','Helvetica',sans-serif" fill="#564A55" stroke="#000000" stroke-opacity="0.000" id="img-67262a8d-2">
    <g transform="translate(105.11,89.99)">
      <g class="primitive">
        <text text-anchor="middle" dy="0.6em">ρ₁₂</text>
      </g>
    </g>
  </g>
  <g class="guide xlabels" font-size="2.82" font-family="'PT Sans Caption','Helvetica Neue','Helvetica',sans-serif" fill="#6C606B" id="img-67262a8d-3">
    <g transform="translate(14.02,83.32)">
      <g class="primitive">
        <text text-anchor="middle" dy="0.6em">0.00</text>
      </g>
    </g>
    <g transform="translate(59.56,83.32)">
      <g class="primitive">
        <text text-anchor="middle" dy="0.6em">0.25</text>
      </g>
    </g>
    <g transform="translate(105.11,83.32)">
      <g class="primitive">
        <text text-anchor="middle" dy="0.6em">0.50</text>
      </g>
    </g>
    <g transform="translate(150.66,83.32)">
      <g class="primitive">
        <text text-anchor="middle" dy="0.6em">0.75</text>
      </g>
    </g>
    <g transform="translate(196.2,83.32)">
      <g class="primitive">
        <text text-anchor="middle" dy="0.6em">1.00</text>
      </g>
    </g>
  </g>
  <g clip-path="url(#img-67262a8d-4)">
    <g id="img-67262a8d-5">
      <g pointer-events="visible" fill="#000000" fill-opacity="0.000" stroke="#000000" stroke-opacity="0.000" class="guide background" id="img-67262a8d-6">
        <g transform="translate(105.11,43.66)" id="img-67262a8d-7">
          <path d="M-93.09,-38.66 L 93.09 -38.66 93.09 38.66 -93.09 38.66 z" class="primitive"/>
        </g>
      </g>
      <g class="guide ygridlines xfixed" stroke-dasharray="0.5,0.5" stroke-width="0.2" stroke="#D0D0E0" id="img-67262a8d-8">
        <g transform="translate(105.11,80.31)" id="img-67262a8d-9">
          <path fill="none" d="M-93.09,0 L 93.09 0" class="primitive"/>
        </g>
        <g transform="translate(105.11,65.65)" id="img-67262a8d-10">
          <path fill="none" d="M-93.09,0 L 93.09 0" class="primitive"/>
        </g>
        <g transform="translate(105.11,50.99)" id="img-67262a8d-11">
          <path fill="none" d="M-93.09,0 L 93.09 0" class="primitive"/>
        </g>
        <g transform="translate(105.11,36.33)" id="img-67262a8d-12">
          <path fill="none" d="M-93.09,0 L 93.09 0" class="primitive"/>
        </g>
        <g transform="translate(105.11,21.66)" id="img-67262a8d-13">
          <path fill="none" d="M-93.09,0 L 93.09 0" class="primitive"/>
        </g>
        <g transform="translate(105.11,7)" id="img-67262a8d-14">
          <path fill="none" d="M-93.09,0 L 93.09 0" class="primitive"/>
        </g>
      </g>
      <g class="guide xgridlines yfixed" stroke-dasharray="0.5,0.5" stroke-width="0.2" stroke="#D0D0E0" id="img-67262a8d-15">
        <g transform="translate(14.02,43.66)" id="img-67262a8d-16">
          <path fill="none" d="M0,-38.66 L 0 38.66" class="primitive"/>
        </g>
        <g transform="translate(59.56,43.66)" id="img-67262a8d-17">
          <path fill="none" d="M0,-38.66 L 0 38.66" class="primitive"/>
        </g>
        <g transform="translate(105.11,43.66)" id="img-67262a8d-18">
          <path fill="none" d="M0,-38.66 L 0 38.66" class="primitive"/>
        </g>
        <g transform="translate(150.66,43.66)" id="img-67262a8d-19">
          <path fill="none" d="M0,-38.66 L 0 38.66" class="primitive"/>
        </g>
        <g transform="translate(196.2,43.66)" id="img-67262a8d-20">
          <path fill="none" d="M0,-38.66 L 0 38.66" class="primitive"/>
        </g>
      </g>
      <g class="plotpanel" id="img-67262a8d-21">
        <metadata>
          <boundingbox value="12.02000000000001mm 5.0mm 186.17999999999998mm 77.315mm"/>
          <unitbox value="-0.010978153474585575 256.81988678987926 1.021956306949171 -263.6397735797586"/>
        </metadata>
        <g shape-rendering="crispEdges" stroke-width="0.3" id="img-67262a8d-22">
          <g stroke="#000000" stroke-opacity="0.000" class="geometry" fill="#00BFFF" id="img-67262a8d-23">
            <g transform="translate(20.69,80.17)" id="img-67262a8d-24">
              <path d="M-0.57,-0.15 L 0.57 -0.15 0.57 0.15 -0.57 0.15 z" class="primitive"/>
            </g>
            <g transform="translate(21.79,80.32)" id="img-67262a8d-25">
              <path d="M-0.57,-0 L 0.57 -0 0.57 0 -0.57 0 z" class="primitive"/>
            </g>
            <g transform="translate(22.88,80.32)" id="img-67262a8d-26">
              <path d="M-0.57,-0 L 0.57 -0 0.57 0 -0.57 0 z" class="primitive"/>
            </g>
            <g transform="translate(23.98,80.32)" id="img-67262a8d-27">
              <path d="M-0.57,-0 L 0.57 -0 0.57 0 -0.57 0 z" class="primitive"/>
            </g>
            <g transform="translate(25.07,80.32)" id="img-67262a8d-28">
              <path d="M-0.57,-0 L 0.57 -0 0.57 0 -0.57 0 z" class="primitive"/>
            </g>
            <g transform="translate(26.17,80.17)" id="img-67262a8d-29">
              <path d="M-0.57,-0.15 L 0.57 -0.15 0.57 0.15 -0.57 0.15 z" class="primitive"/>
            </g>
            <g transform="translate(27.26,80.17)" id="img-67262a8d-30">
              <path d="M-0.57,-0.15 L 0.57 -0.15 0.57 0.15 -0.57 0.15 z" class="primitive"/>
            </g>
            <g transform="translate(28.36,80.02)" id="img-67262a8d-31">
              <path d="M-0.57,-0.29 L 0.57 -0.29 0.57 0.29 -0.57 0.29 z" class="primitive"/>
            </g>
            <g transform="translate(29.45,80.32)" id="img-67262a8d-32">
              <path d="M-0.57,-0 L 0.57 -0 0.57 0 -0.57 0 z" class="primitive"/>
            </g>
            <g transform="translate(30.55,80.32)" id="img-67262a8d-33">
              <path d="M-0.57,-0 L 0.57 -0 0.57 0 -0.57 0 z" class="primitive"/>
            </g>
            <g transform="translate(31.64,79.88)" id="img-67262a8d-34">
              <path d="M-0.57,-0.44 L 0.57 -0.44 0.57 0.44 -0.57 0.44 z" class="primitive"/>
            </g>
            <g transform="translate(32.74,80.02)" id="img-67262a8d-35">
              <path d="M-0.57,-0.29 L 0.57 -0.29 0.57 0.29 -0.57 0.29 z" class="primitive"/>
            </g>
            <g transform="translate(33.83,80.17)" id="img-67262a8d-36">
              <path d="M-0.57,-0.15 L 0.57 -0.15 0.57 0.15 -0.57 0.15 z" class="primitive"/>
            </g>
            <g transform="translate(34.93,80.02)" id="img-67262a8d-37">
              <path d="M-0.57,-0.29 L 0.57 -0.29 0.57 0.29 -0.57 0.29 z" class="primitive"/>
            </g>
            <g transform="translate(36.02,80.17)" id="img-67262a8d-38">
              <path d="M-0.57,-0.15 L 0.57 -0.15 0.57 0.15 -0.57 0.15 z" class="primitive"/>
            </g>
            <g transform="translate(37.12,80.32)" id="img-67262a8d-39">
              <path d="M-0.57,-0 L 0.57 -0 0.57 0 -0.57 0 z" class="primitive"/>
            </g>
            <g transform="translate(38.21,80.17)" id="img-67262a8d-40">
              <path d="M-0.57,-0.15 L 0.57 -0.15 0.57 0.15 -0.57 0.15 z" class="primitive"/>
            </g>
            <g transform="translate(39.31,80.02)" id="img-67262a8d-41">
              <path d="M-0.57,-0.29 L 0.57 -0.29 0.57 0.29 -0.57 0.29 z" class="primitive"/>
            </g>
            <g transform="translate(40.4,79.88)" id="img-67262a8d-42">
              <path d="M-0.57,-0.44 L 0.57 -0.44 0.57 0.44 -0.57 0.44 z" class="primitive"/>
            </g>
            <g transform="translate(41.5,80.02)" id="img-67262a8d-43">
              <path d="M-0.57,-0.29 L 0.57 -0.29 0.57 0.29 -0.57 0.29 z" class="primitive"/>
            </g>
            <g transform="translate(42.59,80.02)" id="img-67262a8d-44">
              <path d="M-0.57,-0.29 L 0.57 -0.29 0.57 0.29 -0.57 0.29 z" class="primitive"/>
            </g>
            <g transform="translate(43.69,79.88)" id="img-67262a8d-45">
              <path d="M-0.57,-0.44 L 0.57 -0.44 0.57 0.44 -0.57 0.44 z" class="primitive"/>
            </g>
            <g transform="translate(44.78,79.88)" id="img-67262a8d-46">
              <path d="M-0.57,-0.44 L 0.57 -0.44 0.57 0.44 -0.57 0.44 z" class="primitive"/>
            </g>
            <g transform="translate(45.88,80.02)" id="img-67262a8d-47">
              <path d="M-0.57,-0.29 L 0.57 -0.29 0.57 0.29 -0.57 0.29 z" class="primitive"/>
            </g>
            <g transform="translate(46.97,80.02)" id="img-67262a8d-48">
              <path d="M-0.57,-0.29 L 0.57 -0.29 0.57 0.29 -0.57 0.29 z" class="primitive"/>
            </g>
            <g transform="translate(48.07,79.44)" id="img-67262a8d-49">
              <path d="M-0.57,-0.88 L 0.57 -0.88 0.57 0.88 -0.57 0.88 z" class="primitive"/>
            </g>
            <g transform="translate(49.16,79.88)" id="img-67262a8d-50">
              <path d="M-0.57,-0.44 L 0.57 -0.44 0.57 0.44 -0.57 0.44 z" class="primitive"/>
            </g>
            <g transform="translate(50.26,80.17)" id="img-67262a8d-51">
              <path d="M-0.57,-0.15 L 0.57 -0.15 0.57 0.15 -0.57 0.15 z" class="primitive"/>
            </g>
            <g transform="translate(51.35,80.02)" id="img-67262a8d-52">
              <path d="M-0.57,-0.29 L 0.57 -0.29 0.57 0.29 -0.57 0.29 z" class="primitive"/>
            </g>
            <g transform="translate(52.45,79.88)" id="img-67262a8d-53">
              <path d="M-0.57,-0.44 L 0.57 -0.44 0.57 0.44 -0.57 0.44 z" class="primitive"/>
            </g>
            <g transform="translate(53.55,79.44)" id="img-67262a8d-54">
              <path d="M-0.57,-0.88 L 0.57 -0.88 0.57 0.88 -0.57 0.88 z" class="primitive"/>
            </g>
            <g transform="translate(54.64,79.44)" id="img-67262a8d-55">
              <path d="M-0.57,-0.88 L 0.57 -0.88 0.57 0.88 -0.57 0.88 z" class="primitive"/>
            </g>
            <g transform="translate(55.74,79.73)" id="img-67262a8d-56">
              <path d="M-0.57,-0.59 L 0.57 -0.59 0.57 0.59 -0.57 0.59 z" class="primitive"/>
            </g>
            <g transform="translate(56.83,79.73)" id="img-67262a8d-57">
              <path d="M-0.57,-0.59 L 0.57 -0.59 0.57 0.59 -0.57 0.59 z" class="primitive"/>
            </g>
            <g transform="translate(57.93,79.29)" id="img-67262a8d-58">
              <path d="M-0.57,-1.03 L 0.57 -1.03 0.57 1.03 -0.57 1.03 z" class="primitive"/>
            </g>
            <g transform="translate(59.02,79.14)" id="img-67262a8d-59">
              <path d="M-0.57,-1.17 L 0.57 -1.17 0.57 1.17 -0.57 1.17 z" class="primitive"/>
            </g>
            <g transform="translate(60.12,79.73)" id="img-67262a8d-60">
              <path d="M-0.57,-0.59 L 0.57 -0.59 0.57 0.59 -0.57 0.59 z" class="primitive"/>
            </g>
            <g transform="translate(61.21,79.44)" id="img-67262a8d-61">
              <path d="M-0.57,-0.88 L 0.57 -0.88 0.57 0.88 -0.57 0.88 z" class="primitive"/>
            </g>
            <g transform="translate(62.31,79.73)" id="img-67262a8d-62">
              <path d="M-0.57,-0.59 L 0.57 -0.59 0.57 0.59 -0.57 0.59 z" class="primitive"/>
            </g>
            <g transform="translate(63.4,79.14)" id="img-67262a8d-63">
              <path d="M-0.57,-1.17 L 0.57 -1.17 0.57 1.17 -0.57 1.17 z" class="primitive"/>
            </g>
            <g transform="translate(64.5,79.14)" id="img-67262a8d-64">
              <path d="M-0.57,-1.17 L 0.57 -1.17 0.57 1.17 -0.57 1.17 z" class="primitive"/>
            </g>
            <g transform="translate(65.59,79.29)" id="img-67262a8d-65">
              <path d="M-0.57,-1.03 L 0.57 -1.03 0.57 1.03 -0.57 1.03 z" class="primitive"/>
            </g>
            <g transform="translate(66.69,78.12)" id="img-67262a8d-66">
              <path d="M-0.57,-2.2 L 0.57 -2.2 0.57 2.2 -0.57 2.2 z" class="primitive"/>
            </g>
            <g transform="translate(67.78,78.12)" id="img-67262a8d-67">
              <path d="M-0.57,-2.2 L 0.57 -2.2 0.57 2.2 -0.57 2.2 z" class="primitive"/>
            </g>
            <g transform="translate(68.88,78.56)" id="img-67262a8d-68">
              <path d="M-0.57,-1.76 L 0.57 -1.76 0.57 1.76 -0.57 1.76 z" class="primitive"/>
            </g>
            <g transform="translate(69.97,78.56)" id="img-67262a8d-69">
              <path d="M-0.57,-1.76 L 0.57 -1.76 0.57 1.76 -0.57 1.76 z" class="primitive"/>
            </g>
            <g transform="translate(71.07,78.7)" id="img-67262a8d-70">
              <path d="M-0.57,-1.61 L 0.57 -1.61 0.57 1.61 -0.57 1.61 z" class="primitive"/>
            </g>
            <g transform="translate(72.16,77.82)" id="img-67262a8d-71">
              <path d="M-0.57,-2.49 L 0.57 -2.49 0.57 2.49 -0.57 2.49 z" class="primitive"/>
            </g>
            <g transform="translate(73.26,77.09)" id="img-67262a8d-72">
              <path d="M-0.57,-3.23 L 0.57 -3.23 0.57 3.23 -0.57 3.23 z" class="primitive"/>
            </g>
            <g transform="translate(74.35,78.12)" id="img-67262a8d-73">
              <path d="M-0.57,-2.2 L 0.57 -2.2 0.57 2.2 -0.57 2.2 z" class="primitive"/>
            </g>
            <g transform="translate(75.45,78.12)" id="img-67262a8d-74">
              <path d="M-0.57,-2.2 L 0.57 -2.2 0.57 2.2 -0.57 2.2 z" class="primitive"/>
            </g>
            <g transform="translate(76.54,76.21)" id="img-67262a8d-75">
              <path d="M-0.57,-4.11 L 0.57 -4.11 0.57 4.11 -0.57 4.11 z" class="primitive"/>
            </g>
            <g transform="translate(77.64,77.09)" id="img-67262a8d-76">
              <path d="M-0.57,-3.23 L 0.57 -3.23 0.57 3.23 -0.57 3.23 z" class="primitive"/>
            </g>
            <g transform="translate(78.73,76.8)" id="img-67262a8d-77">
              <path d="M-0.57,-3.52 L 0.57 -3.52 0.57 3.52 -0.57 3.52 z" class="primitive"/>
            </g>
            <g transform="translate(79.83,76.8)" id="img-67262a8d-78">
              <path d="M-0.57,-3.52 L 0.57 -3.52 0.57 3.52 -0.57 3.52 z" class="primitive"/>
            </g>
            <g transform="translate(80.92,77.82)" id="img-67262a8d-79">
              <path d="M-0.57,-2.49 L 0.57 -2.49 0.57 2.49 -0.57 2.49 z" class="primitive"/>
            </g>
            <g transform="translate(82.02,76.36)" id="img-67262a8d-80">
              <path d="M-0.57,-3.96 L 0.57 -3.96 0.57 3.96 -0.57 3.96 z" class="primitive"/>
            </g>
            <g transform="translate(83.11,76.36)" id="img-67262a8d-81">
              <path d="M-0.57,-3.96 L 0.57 -3.96 0.57 3.96 -0.57 3.96 z" class="primitive"/>
            </g>
            <g transform="translate(84.21,77.68)" id="img-67262a8d-82">
              <path d="M-0.57,-2.64 L 0.57 -2.64 0.57 2.64 -0.57 2.64 z" class="primitive"/>
            </g>
            <g transform="translate(85.3,75.18)" id="img-67262a8d-83">
              <path d="M-0.57,-5.13 L 0.57 -5.13 0.57 5.13 -0.57 5.13 z" class="primitive"/>
            </g>
            <g transform="translate(86.4,75.04)" id="img-67262a8d-84">
              <path d="M-0.57,-5.28 L 0.57 -5.28 0.57 5.28 -0.57 5.28 z" class="primitive"/>
            </g>
            <g transform="translate(87.49,75.48)" id="img-67262a8d-85">
              <path d="M-0.57,-4.84 L 0.57 -4.84 0.57 4.84 -0.57 4.84 z" class="primitive"/>
            </g>
            <g transform="translate(88.59,74.01)" id="img-67262a8d-86">
              <path d="M-0.57,-6.31 L 0.57 -6.31 0.57 6.31 -0.57 6.31 z" class="primitive"/>
            </g>
            <g transform="translate(89.68,75.04)" id="img-67262a8d-87">
              <path d="M-0.57,-5.28 L 0.57 -5.28 0.57 5.28 -0.57 5.28 z" class="primitive"/>
            </g>
            <g transform="translate(90.78,75.04)" id="img-67262a8d-88">
              <path d="M-0.57,-5.28 L 0.57 -5.28 0.57 5.28 -0.57 5.28 z" class="primitive"/>
            </g>
            <g transform="translate(91.87,74.45)" id="img-67262a8d-89">
              <path d="M-0.57,-5.87 L 0.57 -5.87 0.57 5.87 -0.57 5.87 z" class="primitive"/>
            </g>
            <g transform="translate(92.97,72.1)" id="img-67262a8d-90">
              <path d="M-0.57,-8.21 L 0.57 -8.21 0.57 8.21 -0.57 8.21 z" class="primitive"/>
            </g>
            <g transform="translate(94.06,72.54)" id="img-67262a8d-91">
              <path d="M-0.57,-7.77 L 0.57 -7.77 0.57 7.77 -0.57 7.77 z" class="primitive"/>
            </g>
            <g transform="translate(95.16,74.3)" id="img-67262a8d-92">
              <path d="M-0.57,-6.01 L 0.57 -6.01 0.57 6.01 -0.57 6.01 z" class="primitive"/>
            </g>
            <g transform="translate(96.25,73.42)" id="img-67262a8d-93">
              <path d="M-0.57,-6.89 L 0.57 -6.89 0.57 6.89 -0.57 6.89 z" class="primitive"/>
            </g>
            <g transform="translate(97.35,72.1)" id="img-67262a8d-94">
              <path d="M-0.57,-8.21 L 0.57 -8.21 0.57 8.21 -0.57 8.21 z" class="primitive"/>
            </g>
            <g transform="translate(98.44,71.52)" id="img-67262a8d-95">
              <path d="M-0.57,-8.8 L 0.57 -8.8 0.57 8.8 -0.57 8.8 z" class="primitive"/>
            </g>
            <g transform="translate(99.54,70.93)" id="img-67262a8d-96">
              <path d="M-0.57,-9.38 L 0.57 -9.38 0.57 9.38 -0.57 9.38 z" class="primitive"/>
            </g>
            <g transform="translate(100.63,69.02)" id="img-67262a8d-97">
              <path d="M-0.57,-11.29 L 0.57 -11.29 0.57 11.29 -0.57 11.29 z" class="primitive"/>
            </g>
            <g transform="translate(101.73,69.76)" id="img-67262a8d-98">
              <path d="M-0.57,-10.56 L 0.57 -10.56 0.57 10.56 -0.57 10.56 z" class="primitive"/>
            </g>
            <g transform="translate(102.82,68.29)" id="img-67262a8d-99">
              <path d="M-0.57,-12.02 L 0.57 -12.02 0.57 12.02 -0.57 12.02 z" class="primitive"/>
            </g>
            <g transform="translate(103.92,70.64)" id="img-67262a8d-100">
              <path d="M-0.57,-9.68 L 0.57 -9.68 0.57 9.68 -0.57 9.68 z" class="primitive"/>
            </g>
            <g transform="translate(105.01,67.85)" id="img-67262a8d-101">
              <path d="M-0.57,-12.46 L 0.57 -12.46 0.57 12.46 -0.57 12.46 z" class="primitive"/>
            </g>
            <g transform="translate(106.11,68.58)" id="img-67262a8d-102">
              <path d="M-0.57,-11.73 L 0.57 -11.73 0.57 11.73 -0.57 11.73 z" class="primitive"/>
            </g>
            <g transform="translate(107.2,67.12)" id="img-67262a8d-103">
              <path d="M-0.57,-13.2 L 0.57 -13.2 0.57 13.2 -0.57 13.2 z" class="primitive"/>
            </g>
            <g transform="translate(108.3,68.14)" id="img-67262a8d-104">
              <path d="M-0.57,-12.17 L 0.57 -12.17 0.57 12.17 -0.57 12.17 z" class="primitive"/>
            </g>
            <g transform="translate(109.39,65.65)" id="img-67262a8d-105">
              <path d="M-0.57,-14.66 L 0.57 -14.66 0.57 14.66 -0.57 14.66 z" class="primitive"/>
            </g>
            <g transform="translate(110.49,64.19)" id="img-67262a8d-106">
              <path d="M-0.57,-16.13 L 0.57 -16.13 0.57 16.13 -0.57 16.13 z" class="primitive"/>
            </g>
            <g transform="translate(111.58,61.25)" id="img-67262a8d-107">
              <path d="M-0.57,-19.06 L 0.57 -19.06 0.57 19.06 -0.57 19.06 z" class="primitive"/>
            </g>
            <g transform="translate(112.68,61.69)" id="img-67262a8d-108">
              <path d="M-0.57,-18.62 L 0.57 -18.62 0.57 18.62 -0.57 18.62 z" class="primitive"/>
            </g>
            <g transform="translate(113.77,63.6)" id="img-67262a8d-109">
              <path d="M-0.57,-16.72 L 0.57 -16.72 0.57 16.72 -0.57 16.72 z" class="primitive"/>
            </g>
            <g transform="translate(114.87,62.72)" id="img-67262a8d-110">
              <path d="M-0.57,-17.6 L 0.57 -17.6 0.57 17.6 -0.57 17.6 z" class="primitive"/>
            </g>
            <g transform="translate(115.96,58.76)" id="img-67262a8d-111">
              <path d="M-0.57,-21.55 L 0.57 -21.55 0.57 21.55 -0.57 21.55 z" class="primitive"/>
            </g>
            <g transform="translate(117.06,59.64)" id="img-67262a8d-112">
              <path d="M-0.57,-20.67 L 0.57 -20.67 0.57 20.67 -0.57 20.67 z" class="primitive"/>
            </g>
            <g transform="translate(118.15,60.81)" id="img-67262a8d-113">
              <path d="M-0.57,-19.5 L 0.57 -19.5 0.57 19.5 -0.57 19.5 z" class="primitive"/>
            </g>
            <g transform="translate(119.25,58.61)" id="img-67262a8d-114">
              <path d="M-0.57,-21.7 L 0.57 -21.7 0.57 21.7 -0.57 21.7 z" class="primitive"/>
            </g>
            <g transform="translate(120.34,57.88)" id="img-67262a8d-115">
              <path d="M-0.57,-22.43 L 0.57 -22.43 0.57 22.43 -0.57 22.43 z" class="primitive"/>
            </g>
            <g transform="translate(121.44,56.85)" id="img-67262a8d-116">
              <path d="M-0.57,-23.46 L 0.57 -23.46 0.57 23.46 -0.57 23.46 z" class="primitive"/>
            </g>
            <g transform="translate(122.53,56.27)" id="img-67262a8d-117">
              <path d="M-0.57,-24.05 L 0.57 -24.05 0.57 24.05 -0.57 24.05 z" class="primitive"/>
            </g>
            <g transform="translate(123.63,59.49)" id="img-67262a8d-118">
              <path d="M-0.57,-20.82 L 0.57 -20.82 0.57 20.82 -0.57 20.82 z" class="primitive"/>
            </g>
            <g transform="translate(124.72,54.95)" id="img-67262a8d-119">
              <path d="M-0.57,-25.37 L 0.57 -25.37 0.57 25.37 -0.57 25.37 z" class="primitive"/>
            </g>
            <g transform="translate(125.82,51.28)" id="img-67262a8d-120">
              <path d="M-0.57,-29.03 L 0.57 -29.03 0.57 29.03 -0.57 29.03 z" class="primitive"/>
            </g>
            <g transform="translate(126.91,54.21)" id="img-67262a8d-121">
              <path d="M-0.57,-26.1 L 0.57 -26.1 0.57 26.1 -0.57 26.1 z" class="primitive"/>
            </g>
            <g transform="translate(128.01,50.7)" id="img-67262a8d-122">
              <path d="M-0.57,-29.62 L 0.57 -29.62 0.57 29.62 -0.57 29.62 z" class="primitive"/>
            </g>
            <g transform="translate(129.1,52.46)" id="img-67262a8d-123">
              <path d="M-0.57,-27.86 L 0.57 -27.86 0.57 27.86 -0.57 27.86 z" class="primitive"/>
            </g>
            <g transform="translate(130.2,57.15)" id="img-67262a8d-124">
              <path d="M-0.57,-23.17 L 0.57 -23.17 0.57 23.17 -0.57 23.17 z" class="primitive"/>
            </g>
            <g transform="translate(131.3,53.77)" id="img-67262a8d-125">
              <path d="M-0.57,-26.54 L 0.57 -26.54 0.57 26.54 -0.57 26.54 z" class="primitive"/>
            </g>
            <g transform="translate(132.39,51.58)" id="img-67262a8d-126">
              <path d="M-0.57,-28.74 L 0.57 -28.74 0.57 28.74 -0.57 28.74 z" class="primitive"/>
            </g>
            <g transform="translate(133.49,52.46)" id="img-67262a8d-127">
              <path d="M-0.57,-27.86 L 0.57 -27.86 0.57 27.86 -0.57 27.86 z" class="primitive"/>
            </g>
            <g transform="translate(134.58,50.84)" id="img-67262a8d-128">
              <path d="M-0.57,-29.47 L 0.57 -29.47 0.57 29.47 -0.57 29.47 z" class="primitive"/>
            </g>
            <g transform="translate(135.68,49.23)" id="img-67262a8d-129">
              <path d="M-0.57,-31.09 L 0.57 -31.09 0.57 31.09 -0.57 31.09 z" class="primitive"/>
            </g>
            <g transform="translate(136.77,54.36)" id="img-67262a8d-130">
              <path d="M-0.57,-25.95 L 0.57 -25.95 0.57 25.95 -0.57 25.95 z" class="primitive"/>
            </g>
            <g transform="translate(137.87,50.4)" id="img-67262a8d-131">
              <path d="M-0.57,-29.91 L 0.57 -29.91 0.57 29.91 -0.57 29.91 z" class="primitive"/>
            </g>
            <g transform="translate(138.96,48.35)" id="img-67262a8d-132">
              <path d="M-0.57,-31.97 L 0.57 -31.97 0.57 31.97 -0.57 31.97 z" class="primitive"/>
            </g>
            <g transform="translate(140.06,50.99)" id="img-67262a8d-133">
              <path d="M-0.57,-29.33 L 0.57 -29.33 0.57 29.33 -0.57 29.33 z" class="primitive"/>
            </g>
            <g transform="translate(141.15,52.9)" id="img-67262a8d-134">
              <path d="M-0.57,-27.42 L 0.57 -27.42 0.57 27.42 -0.57 27.42 z" class="primitive"/>
            </g>
            <g transform="translate(142.25,51.28)" id="img-67262a8d-135">
              <path d="M-0.57,-29.03 L 0.57 -29.03 0.57 29.03 -0.57 29.03 z" class="primitive"/>
            </g>
            <g transform="translate(143.34,55.68)" id="img-67262a8d-136">
              <path d="M-0.57,-24.63 L 0.57 -24.63 0.57 24.63 -0.57 24.63 z" class="primitive"/>
            </g>
            <g transform="translate(144.44,49.96)" id="img-67262a8d-137">
              <path d="M-0.57,-30.35 L 0.57 -30.35 0.57 30.35 -0.57 30.35 z" class="primitive"/>
            </g>
            <g transform="translate(145.53,55.68)" id="img-67262a8d-138">
              <path d="M-0.57,-24.63 L 0.57 -24.63 0.57 24.63 -0.57 24.63 z" class="primitive"/>
            </g>
            <g transform="translate(146.63,52.02)" id="img-67262a8d-139">
              <path d="M-0.57,-28.3 L 0.57 -28.3 0.57 28.3 -0.57 28.3 z" class="primitive"/>
            </g>
            <g transform="translate(147.72,52.9)" id="img-67262a8d-140">
              <path d="M-0.57,-27.42 L 0.57 -27.42 0.57 27.42 -0.57 27.42 z" class="primitive"/>
            </g>
            <g transform="translate(148.82,54.51)" id="img-67262a8d-141">
              <path d="M-0.57,-25.81 L 0.57 -25.81 0.57 25.81 -0.57 25.81 z" class="primitive"/>
            </g>
            <g transform="translate(149.91,54.95)" id="img-67262a8d-142">
              <path d="M-0.57,-25.37 L 0.57 -25.37 0.57 25.37 -0.57 25.37 z" class="primitive"/>
            </g>
            <g transform="translate(151.01,56.12)" id="img-67262a8d-143">
              <path d="M-0.57,-24.19 L 0.57 -24.19 0.57 24.19 -0.57 24.19 z" class="primitive"/>
            </g>
            <g transform="translate(152.1,56.27)" id="img-67262a8d-144">
              <path d="M-0.57,-24.05 L 0.57 -24.05 0.57 24.05 -0.57 24.05 z" class="primitive"/>
            </g>
            <g transform="translate(153.2,60.08)" id="img-67262a8d-145">
              <path d="M-0.57,-20.23 L 0.57 -20.23 0.57 20.23 -0.57 20.23 z" class="primitive"/>
            </g>
            <g transform="translate(154.29,59.49)" id="img-67262a8d-146">
              <path d="M-0.57,-20.82 L 0.57 -20.82 0.57 20.82 -0.57 20.82 z" class="primitive"/>
            </g>
            <g transform="translate(155.39,61.25)" id="img-67262a8d-147">
              <path d="M-0.57,-19.06 L 0.57 -19.06 0.57 19.06 -0.57 19.06 z" class="primitive"/>
            </g>
            <g transform="translate(156.48,66.09)" id="img-67262a8d-148">
              <path d="M-0.57,-14.22 L 0.57 -14.22 0.57 14.22 -0.57 14.22 z" class="primitive"/>
            </g>
            <g transform="translate(157.58,59.2)" id="img-67262a8d-149">
              <path d="M-0.57,-21.11 L 0.57 -21.11 0.57 21.11 -0.57 21.11 z" class="primitive"/>
            </g>
            <g transform="translate(158.67,63.31)" id="img-67262a8d-150">
              <path d="M-0.57,-17.01 L 0.57 -17.01 0.57 17.01 -0.57 17.01 z" class="primitive"/>
            </g>
            <g transform="translate(159.77,66.97)" id="img-67262a8d-151">
              <path d="M-0.57,-13.34 L 0.57 -13.34 0.57 13.34 -0.57 13.34 z" class="primitive"/>
            </g>
            <g transform="translate(160.86,66.24)" id="img-67262a8d-152">
              <path d="M-0.57,-14.08 L 0.57 -14.08 0.57 14.08 -0.57 14.08 z" class="primitive"/>
            </g>
            <g transform="translate(161.96,68.14)" id="img-67262a8d-153">
              <path d="M-0.57,-12.17 L 0.57 -12.17 0.57 12.17 -0.57 12.17 z" class="primitive"/>
            </g>
            <g transform="translate(163.05,67.56)" id="img-67262a8d-154">
              <path d="M-0.57,-12.76 L 0.57 -12.76 0.57 12.76 -0.57 12.76 z" class="primitive"/>
            </g>
            <g transform="translate(164.15,70.93)" id="img-67262a8d-155">
              <path d="M-0.57,-9.38 L 0.57 -9.38 0.57 9.38 -0.57 9.38 z" class="primitive"/>
            </g>
            <g transform="translate(165.24,70.2)" id="img-67262a8d-156">
              <path d="M-0.57,-10.12 L 0.57 -10.12 0.57 10.12 -0.57 10.12 z" class="primitive"/>
            </g>
            <g transform="translate(166.34,71.96)" id="img-67262a8d-157">
              <path d="M-0.57,-8.36 L 0.57 -8.36 0.57 8.36 -0.57 8.36 z" class="primitive"/>
            </g>
            <g transform="translate(167.43,72.84)" id="img-67262a8d-158">
              <path d="M-0.57,-7.48 L 0.57 -7.48 0.57 7.48 -0.57 7.48 z" class="primitive"/>
            </g>
            <g transform="translate(168.53,74.89)" id="img-67262a8d-159">
              <path d="M-0.57,-5.43 L 0.57 -5.43 0.57 5.43 -0.57 5.43 z" class="primitive"/>
            </g>
            <g transform="translate(169.62,77.53)" id="img-67262a8d-160">
              <path d="M-0.57,-2.79 L 0.57 -2.79 0.57 2.79 -0.57 2.79 z" class="primitive"/>
            </g>
            <g transform="translate(170.72,77.53)" id="img-67262a8d-161">
              <path d="M-0.57,-2.79 L 0.57 -2.79 0.57 2.79 -0.57 2.79 z" class="primitive"/>
            </g>
            <g transform="translate(171.81,77.68)" id="img-67262a8d-162">
              <path d="M-0.57,-2.64 L 0.57 -2.64 0.57 2.64 -0.57 2.64 z" class="primitive"/>
            </g>
            <g transform="translate(172.91,76.8)" id="img-67262a8d-163">
              <path d="M-0.57,-3.52 L 0.57 -3.52 0.57 3.52 -0.57 3.52 z" class="primitive"/>
            </g>
            <g transform="translate(174,78.26)" id="img-67262a8d-164">
              <path d="M-0.57,-2.05 L 0.57 -2.05 0.57 2.05 -0.57 2.05 z" class="primitive"/>
            </g>
            <g transform="translate(175.1,79)" id="img-67262a8d-165">
              <path d="M-0.57,-1.32 L 0.57 -1.32 0.57 1.32 -0.57 1.32 z" class="primitive"/>
            </g>
            <g transform="translate(176.19,79.73)" id="img-67262a8d-166">
              <path d="M-0.57,-0.59 L 0.57 -0.59 0.57 0.59 -0.57 0.59 z" class="primitive"/>
            </g>
            <g transform="translate(177.29,79.14)" id="img-67262a8d-167">
              <path d="M-0.57,-1.17 L 0.57 -1.17 0.57 1.17 -0.57 1.17 z" class="primitive"/>
            </g>
            <g transform="translate(178.38,78.7)" id="img-67262a8d-168">
              <path d="M-0.57,-1.61 L 0.57 -1.61 0.57 1.61 -0.57 1.61 z" class="primitive"/>
            </g>
            <g transform="translate(179.48,80.02)" id="img-67262a8d-169">
              <path d="M-0.57,-0.29 L 0.57 -0.29 0.57 0.29 -0.57 0.29 z" class="primitive"/>
            </g>
            <g transform="translate(180.57,80.17)" id="img-67262a8d-170">
              <path d="M-0.57,-0.15 L 0.57 -0.15 0.57 0.15 -0.57 0.15 z" class="primitive"/>
            </g>
            <g transform="translate(181.67,80.02)" id="img-67262a8d-171">
              <path d="M-0.57,-0.29 L 0.57 -0.29 0.57 0.29 -0.57 0.29 z" class="primitive"/>
            </g>
            <g transform="translate(182.76,80.32)" id="img-67262a8d-172">
              <path d="M-0.57,-0 L 0.57 -0 0.57 0 -0.57 0 z" class="primitive"/>
            </g>
            <g transform="translate(183.86,80.17)" id="img-67262a8d-173">
              <path d="M-0.57,-0.15 L 0.57 -0.15 0.57 0.15 -0.57 0.15 z" class="primitive"/>
            </g>
          </g>
        </g>
      </g>
    </g>
  </g>
  <g class="guide ylabels" font-size="2.82" font-family="'PT Sans Caption','Helvetica Neue','Helvetica',sans-serif" fill="#6C606B" id="img-67262a8d-174">
    <g transform="translate(11.02,80.31)" id="img-67262a8d-175">
      <g class="primitive">
        <text text-anchor="end" dy="0.35em">0</text>
      </g>
    </g>
    <g transform="translate(11.02,65.65)" id="img-67262a8d-176">
      <g class="primitive">
        <text text-anchor="end" dy="0.35em">50</text>
      </g>
    </g>
    <g transform="translate(11.02,50.99)" id="img-67262a8d-177">
      <g class="primitive">
        <text text-anchor="end" dy="0.35em">100</text>
      </g>
    </g>
    <g transform="translate(11.02,36.33)" id="img-67262a8d-178">
      <g class="primitive">
        <text text-anchor="end" dy="0.35em">150</text>
      </g>
    </g>
    <g transform="translate(11.02,21.66)" id="img-67262a8d-179">
      <g class="primitive">
        <text text-anchor="end" dy="0.35em">200</text>
      </g>
    </g>
    <g transform="translate(11.02,7)" id="img-67262a8d-180">
      <g class="primitive">
        <text text-anchor="end" dy="0.35em">250</text>
      </g>
    </g>
  </g>
</g>
<defs>
  <clipPath id="img-67262a8d-4">
    <path d="M12.02,5 L 198.2 5 198.2 82.32 12.02 82.32" />
  </clipPath>
</defs>
</svg>
