<?xml version="1.0" encoding="UTF-8"?>
<svg xmlns="http://www.w3.org/2000/svg"
     xmlns:xlink="http://www.w3.org/1999/xlink"
     xmlns:gadfly="http://www.gadflyjl.org/ns"
     version="1.2"
     width="177.8mm" height="101.6mm" viewBox="0 0 177.8 101.6"
     stroke="none"
     fill="#000000"
     stroke-width="0.3"
     font-size="3.88"
>
<defs>
  <marker id="arrow" markerWidth="15" markerHeight="7" refX="5" refY="3.5" orient="auto" markerUnits="strokeWidth">
    <path d="M0,0 L15,3.5 L0,7 z" stroke="context-stroke" fill="context-stroke"/>
  </marker>
</defs>
<g class="plotroot xscalable yscalable" id="img-45273c62-1">
  <g font-size="3.88" font-family="'PT Sans','Helvetica Neue','Helvetica',sans-serif" fill="#564A55" stroke="#000000" stroke-opacity="0.000" id="img-45273c62-2">
    <g transform="translate(93.58,89.99)">
      <g class="primitive">
        <text text-anchor="middle" dy="0.6em">Parametric bootstrap estimates of β₁</text>
      </g>
    </g>
  </g>
  <g class="guide xlabels" font-size="2.82" font-family="'PT Sans Caption','Helvetica Neue','Helvetica',sans-serif" fill="#6C606B" id="img-45273c62-3">
    <g transform="translate(16.37,83.32)">
      <g class="primitive">
        <text text-anchor="middle" dy="0.6em">1400</text>
      </g>
    </g>
    <g transform="translate(47.25,83.32)">
      <g class="primitive">
        <text text-anchor="middle" dy="0.6em">1450</text>
      </g>
    </g>
    <g transform="translate(78.14,83.32)">
      <g class="primitive">
        <text text-anchor="middle" dy="0.6em">1500</text>
      </g>
    </g>
    <g transform="translate(109.03,83.32)">
      <g class="primitive">
        <text text-anchor="middle" dy="0.6em">1550</text>
      </g>
    </g>
    <g transform="translate(139.91,83.32)">
      <g class="primitive">
        <text text-anchor="middle" dy="0.6em">1600</text>
      </g>
    </g>
    <g transform="translate(170.8,83.32)">
      <g class="primitive">
        <text text-anchor="middle" dy="0.6em">1650</text>
      </g>
    </g>
  </g>
  <g clip-path="url(#img-45273c62-4)">
    <g id="img-45273c62-5">
      <g pointer-events="visible" fill="#000000" fill-opacity="0.000" stroke="#000000" stroke-opacity="0.000" class="guide background" id="img-45273c62-6">
        <g transform="translate(93.58,43.66)" id="img-45273c62-7">
          <path d="M-79.22,-38.66 L 79.22 -38.66 79.22 38.66 -79.22 38.66 z" class="primitive"/>
        </g>
      </g>
      <g class="guide ygridlines xfixed" stroke-dasharray="0.5,0.5" stroke-width="0.2" stroke="#D0D0E0" id="img-45273c62-8">
        <g transform="translate(93.58,80.32)" id="img-45273c62-9">
          <path fill="none" d="M-79.22,0 L 79.22 0" class="primitive"/>
        </g>
        <g transform="translate(93.58,65.65)" id="img-45273c62-10">
          <path fill="none" d="M-79.22,0 L 79.22 0" class="primitive"/>
        </g>
        <g transform="translate(93.58,50.99)" id="img-45273c62-11">
          <path fill="none" d="M-79.22,0 L 79.22 0" class="primitive"/>
        </g>
        <g transform="translate(93.58,36.33)" id="img-45273c62-12">
          <path fill="none" d="M-79.22,0 L 79.22 0" class="primitive"/>
        </g>
        <g transform="translate(93.58,21.66)" id="img-45273c62-13">
          <path fill="none" d="M-79.22,0 L 79.22 0" class="primitive"/>
        </g>
        <g transform="translate(93.58,7)" id="img-45273c62-14">
          <path fill="none" d="M-79.22,0 L 79.22 0" class="primitive"/>
        </g>
      </g>
      <g class="guide xgridlines yfixed" stroke-dasharray="0.5,0.5" stroke-width="0.2" stroke="#D0D0E0" id="img-45273c62-15">
        <g transform="translate(16.37,43.66)" id="img-45273c62-16">
          <path fill="none" d="M0,-38.66 L 0 38.66" class="primitive"/>
        </g>
        <g transform="translate(47.25,43.66)" id="img-45273c62-17">
          <path fill="none" d="M0,-38.66 L 0 38.66" class="primitive"/>
        </g>
        <g transform="translate(78.14,43.66)" id="img-45273c62-18">
          <path fill="none" d="M0,-38.66 L 0 38.66" class="primitive"/>
        </g>
        <g transform="translate(109.03,43.66)" id="img-45273c62-19">
          <path fill="none" d="M0,-38.66 L 0 38.66" class="primitive"/>
        </g>
        <g transform="translate(139.91,43.66)" id="img-45273c62-20">
          <path fill="none" d="M0,-38.66 L 0 38.66" class="primitive"/>
        </g>
        <g transform="translate(170.8,43.66)" id="img-45273c62-21">
          <path fill="none" d="M0,-38.66 L 0 38.66" class="primitive"/>
        </g>
      </g>
      <g class="plotpanel" id="img-45273c62-22">
        <metadata>
          <boundingbox value="14.366666666666674mm 5.0mm 158.4333333333333mm 77.315mm"/>
          <unitbox value="1396.762357004101 0.02568198867898793 256.475285991798 -0.02636397735797586"/>
        </metadata>
        <g stroke-width="0.3" fill="#000000" fill-opacity="0.000" class="geometry" id="img-45273c62-23">
          <g class="color_LCHab{Float32}(70.0f0,60.0f0,240.0f0)" stroke-dasharray="none" stroke="#00BFFF" id="img-45273c62-24">
            <g transform="translate(93.14,61.31)" id="img-45273c62-25">
              <path fill="none" d="M-47.48,19 L -47.1 19 -46.73 19 -46.36 19 -45.99 19 -45.61 19 -45.24 19 -44.87 19 -44.5 19 -44.13 19 -43.75 18.99 -43.38 18.99 -43.01 18.98 -42.64 18.97 -42.26 18.96 -41.89 18.96 -41.52 18.95 -41.15 18.94 -40.77 18.94 -40.4 18.93 -40.03 18.92 -39.66 18.91 -39.28 18.9 -38.91 18.88 -38.54 18.87 -38.17 18.85 -37.8 18.83 -37.42 18.82 -37.05 18.8 -36.68 18.79 -36.31 18.78 -35.93 18.78 -35.56 18.77 -35.19 18.75 -34.82 18.73 -34.44 18.69 -34.07 18.65 -33.7 18.59 -33.33 18.53 -32.95 18.46 -32.58 18.38 -32.21 18.31 -31.84 18.24 -31.46 18.16 -31.09 18.07 -30.72 17.98 -30.35 17.88 -29.98 17.77 -29.6 17.66 -29.23 17.55 -28.86 17.45 -28.49 17.35 -28.11 17.26 -27.74 17.16 -27.37 17.05 -27 16.91 -26.62 16.74 -26.25 16.54 -25.88 16.29 -25.51 16.01 -25.13 15.69 -24.76 15.34 -24.39 14.98 -24.02 14.6 -23.65 14.22 -23.27 13.83 -22.9 13.44 -22.53 13.05 -22.16 12.66 -21.78 12.28 -21.41 11.88 -21.04 11.48 -20.67 11.06 -20.29 10.62 -19.92 10.14 -19.55 9.61 -19.18 9.03 -18.8 8.4 -18.43 7.71 -18.06 6.96 -17.69 6.18 -17.31 5.35 -16.94 4.47 -16.57 3.55 -16.2 2.58 -15.83 1.57 -15.45 0.53 -15.08 -0.53 -14.71 -1.6 -14.34 -2.67 -13.96 -3.73 -13.59 -4.81 -13.22 -5.9 -12.85 -7.05 -12.47 -8.25 -12.1 -9.53 -11.73 -10.86 -11.36 -12.26 -10.98 -13.69 -10.61 -15.15 -10.24 -16.61 -9.87 -18.08 -9.5 -19.55 -9.12 -21.02 -8.75 -22.47 -8.38 -23.93 -8.01 -25.37 -7.63 -26.8 -7.26 -28.22 -6.89 -29.63 -6.52 -31.03 -6.14 -32.41 -5.77 -33.76 -5.4 -35.07 -5.03 -36.32 -4.65 -37.48 -4.28 -38.56 -3.91 -39.53 -3.54 -40.38 -3.17 -41.1 -2.79 -41.71 -2.42 -42.2 -2.05 -42.58 -1.68 -42.89 -1.3 -43.15 -0.93 -43.38 -0.56 -43.61 -0.19 -43.84 0.19 -44.07 0.56 -44.29 0.93 -44.49 1.3 -44.66 1.68 -44.8 2.05 -44.92 2.42 -45.03 2.79 -45.13 3.17 -45.22 3.54 -45.27 3.91 -45.24 4.28 -45.09 4.65 -44.78 5.03 -44.3 5.4 -43.65 5.77 -42.86 6.14 -41.96 6.52 -40.99 6.89 -40 7.26 -38.99 7.63 -37.99 8.01 -36.97 8.38 -35.92 8.75 -34.84 9.12 -33.71 9.5 -32.52 9.87 -31.28 10.24 -30.01 10.61 -28.73 10.98 -27.48 11.36 -26.28 11.73 -25.13 12.1 -24.03 12.47 -22.96 12.85 -21.91 13.22 -20.85 13.59 -19.76 13.96 -18.61 14.34 -17.4 14.71 -16.13 15.08 -14.81 15.45 -13.44 15.83 -12.04 16.2 -10.63 16.57 -9.24 16.94 -7.88 17.31 -6.56 17.69 -5.3 18.06 -4.09 18.43 -2.93 18.8 -1.82 19.18 -0.73 19.55 0.33 19.92 1.38 20.29 2.41 20.67 3.42 21.04 4.4 21.41 5.35 21.78 6.26 22.16 7.12 22.53 7.93 22.9 8.68 23.27 9.38 23.65 10.02 24.02 10.62 24.39 11.16 24.76 11.67 25.13 12.13 25.51 12.57 25.88 12.98 26.25 13.36 26.62 13.74 27 14.1 27.37 14.45 27.74 14.8 28.11 15.14 28.49 15.47 28.86 15.79 29.23 16.1 29.6 16.4 29.98 16.68 30.35 16.95 30.72 17.2 31.09 17.43 31.46 17.63 31.84 17.8 32.21 17.94 32.58 18.06 32.95 18.17 33.33 18.26 33.7 18.34 34.07 18.41 34.44 18.48 34.82 18.54 35.19 18.6 35.56 18.65 35.93 18.7 36.31 18.73 36.68 18.76 37.05 18.78 37.42 18.8 37.8 18.82 38.17 18.83 38.54 18.84 38.91 18.85 39.28 18.86 39.66 18.87 40.03 18.88 40.4 18.89 40.77 18.9 41.15 18.91 41.52 18.93 41.89 18.94 42.26 18.95 42.64 18.96 43.01 18.97 43.38 18.98 43.75 18.99 44.13 18.99 44.5 19 44.87 19 45.24 19 45.61 19 45.99 19 46.36 19 46.73 19 47.1 19 47.48 19" class="primitive"/>
            </g>
          </g>
        </g>
      </g>
    </g>
  </g>
  <g class="guide ylabels" font-size="2.82" font-family="'PT Sans Caption','Helvetica Neue','Helvetica',sans-serif" fill="#6C606B" id="img-45273c62-26">
    <g transform="translate(13.37,80.32)" id="img-45273c62-27">
      <g class="primitive">
        <text text-anchor="end" dy="0.35em">0.000</text>
      </g>
    </g>
    <g transform="translate(13.37,65.65)" id="img-45273c62-28">
      <g class="primitive">
        <text text-anchor="end" dy="0.35em">0.005</text>
      </g>
    </g>
    <g transform="translate(13.37,50.99)" id="img-45273c62-29">
      <g class="primitive">
        <text text-anchor="end" dy="0.35em">0.010</text>
      </g>
    </g>
    <g transform="translate(13.37,36.33)" id="img-45273c62-30">
      <g class="primitive">
        <text text-anchor="end" dy="0.35em">0.015</text>
      </g>
    </g>
    <g transform="translate(13.37,21.66)" id="img-45273c62-31">
      <g class="primitive">
        <text text-anchor="end" dy="0.35em">0.020</text>
      </g>
    </g>
    <g transform="translate(13.37,7)" id="img-45273c62-32">
      <g class="primitive">
        <text text-anchor="end" dy="0.35em">0.025</text>
      </g>
    </g>
  </g>
</g>
<defs>
  <clipPath id="img-45273c62-4">
    <path d="M14.37,5 L 172.8 5 172.8 82.32 14.37 82.32" />
  </clipPath>
</defs>
</svg>
