<?xml version="1.0" encoding="UTF-8"?>
<svg xmlns="http://www.w3.org/2000/svg"
     xmlns:xlink="http://www.w3.org/1999/xlink"
     xmlns:gadfly="http://www.gadflyjl.org/ns"
     version="1.2"
     width="203.2mm" height="101.6mm" viewBox="0 0 203.2 101.6"
     stroke="none"
     fill="#000000"
     stroke-width="0.3"
     font-size="3.88"
>
<g class="plotroot xscalable yscalable" id="img-eb1857a9-1">
  <g font-size="3.88" font-family="'PT Sans','Helvetica Neue','Helvetica',sans-serif" fill="#564A55" stroke="#000000" stroke-opacity="0.000" id="img-eb1857a9-2">
    <text x="104.61" y="89.99" text-anchor="middle" dy="0.6em">β₁</text>
  </g>
  <g class="guide xlabels" font-size="2.82" font-family="'PT Sans Caption','Helvetica Neue','Helvetica',sans-serif" fill="#6C606B" id="img-eb1857a9-3">
    <text x="13.02" y="83.32" text-anchor="middle" dy="0.6em">19</text>
    <text x="35.92" y="83.32" text-anchor="middle" dy="0.6em">20</text>
    <text x="58.82" y="83.32" text-anchor="middle" dy="0.6em">21</text>
    <text x="81.71" y="83.32" text-anchor="middle" dy="0.6em">22</text>
    <text x="104.61" y="83.32" text-anchor="middle" dy="0.6em">23</text>
    <text x="127.51" y="83.32" text-anchor="middle" dy="0.6em">24</text>
    <text x="150.41" y="83.32" text-anchor="middle" dy="0.6em">25</text>
    <text x="173.3" y="83.32" text-anchor="middle" dy="0.6em">26</text>
    <text x="196.2" y="83.32" text-anchor="middle" dy="0.6em">27</text>
  </g>
<g clip-path="url(#img-eb1857a9-4)">
  <g id="img-eb1857a9-5">
    <g pointer-events="visible" opacity="1" fill="#000000" fill-opacity="0.000" stroke="#000000" stroke-opacity="0.000" class="guide background" id="img-eb1857a9-6">
      <rect x="11.02" y="5" width="187.18" height="77.32"/>
    </g>
    <g class="guide ygridlines xfixed" stroke-dasharray="0.5,0.5" stroke-width="0.2" stroke="#D0D0E0" id="img-eb1857a9-7">
      <path fill="none" d="M11.02,80.32 L 198.2 80.32"/>
      <path fill="none" d="M11.02,68.1 L 198.2 68.1"/>
      <path fill="none" d="M11.02,55.88 L 198.2 55.88"/>
      <path fill="none" d="M11.02,43.66 L 198.2 43.66"/>
      <path fill="none" d="M11.02,31.44 L 198.2 31.44"/>
      <path fill="none" d="M11.02,19.22 L 198.2 19.22"/>
      <path fill="none" d="M11.02,7 L 198.2 7"/>
    </g>
    <g class="guide xgridlines yfixed" stroke-dasharray="0.5,0.5" stroke-width="0.2" stroke="#D0D0E0" id="img-eb1857a9-8">
      <path fill="none" d="M13.02,5 L 13.02 82.32"/>
      <path fill="none" d="M35.92,5 L 35.92 82.32"/>
      <path fill="none" d="M58.82,5 L 58.82 82.32"/>
      <path fill="none" d="M81.71,5 L 81.71 82.32"/>
      <path fill="none" d="M104.61,5 L 104.61 82.32"/>
      <path fill="none" d="M127.51,5 L 127.51 82.32"/>
      <path fill="none" d="M150.41,5 L 150.41 82.32"/>
      <path fill="none" d="M173.3,5 L 173.3 82.32"/>
      <path fill="none" d="M196.2,5 L 196.2 82.32"/>
    </g>
    <g class="plotpanel" id="img-eb1857a9-9">
      <g stroke-width="0.3" fill="#000000" fill-opacity="0.000" class="geometry" stroke-dasharray="none" stroke="#00BFFF" id="img-eb1857a9-10">
        <path fill="none" d="M33.67,80.31 L 34.22 80.31 34.78 80.31 35.33 80.31 35.89 80.31 36.45 80.31 37 80.31 37.56 80.31 38.11 80.31 38.67 80.3 39.22 80.3 39.78 80.29 40.33 80.27 40.89 80.25 41.45 80.23 42 80.21 42.56 80.18 43.11 80.15 43.67 80.12 44.22 80.09 44.78 80.07 45.33 80.04 45.89 80.01 46.45 79.98 47 79.94 47.56 79.9 48.11 79.85 48.67 79.79 49.22 79.73 49.78 79.66 50.33 79.59 50.89 79.51 51.45 79.44 52 79.36 52.56 79.29 53.11 79.22 53.67 79.13 54.22 79.04 54.78 78.94 55.33 78.82 55.89 78.69 56.44 78.54 57 78.39 57.56 78.23 58.11 78.08 58.67 77.93 59.22 77.8 59.78 77.67 60.33 77.55 60.89 77.43 61.44 77.31 62 77.18 62.56 77.03 63.11 76.86 63.67 76.65 64.22 76.39 64.78 76.08 65.33 75.71 65.89 75.27 66.44 74.78 67 74.24 67.56 73.67 68.11 73.09 68.67 72.5 69.22 71.93 69.78 71.39 70.33 70.87 70.89 70.36 71.44 69.87 72 69.35 72.56 68.8 73.11 68.19 73.67 67.51 74.22 66.74 74.78 65.88 75.33 64.92 75.89 63.88 76.44 62.77 77 61.61 77.56 60.42 78.11 59.23 78.67 58.03 79.22 56.83 79.78 55.63 80.33 54.39 80.89 53.12 81.44 51.78 82 50.39 82.56 48.94 83.11 47.45 83.67 45.93 84.22 44.41 84.78 42.9 85.33 41.43 85.89 39.99 86.44 38.62 87 37.32 87.55 36.11 88.11 35 88.67 33.99 89.22 33.1 89.78 32.32 90.33 31.65 90.89 31.07 91.44 30.58 92 30.14 92.55 29.72 93.11 29.28 93.67 28.78 94.22 28.2 94.78 27.52 95.33 26.72 95.89 25.82 96.44 24.84 97 23.79 97.55 22.69 98.11 21.57 98.67 20.45 99.22 19.36 99.78 18.32 100.33 17.37 100.89 16.55 101.44 15.89 102 15.41 102.55 15.13 103.11 15.02 103.67 15.09 104.22 15.29 104.78 15.61 105.33 16.02 105.89 16.5 106.44 17.01 107 17.56 107.55 18.11 108.11 18.67 108.67 19.22 109.22 19.76 109.78 20.29 110.33 20.82 110.89 21.37 111.44 21.95 112 22.59 112.55 23.28 113.11 24.04 113.66 24.87 114.22 25.75 114.78 26.67 115.33 27.62 115.89 28.6 116.44 29.6 117 30.64 117.55 31.73 118.11 32.87 118.66 34.09 119.22 35.36 119.78 36.69 120.33 38.05 120.89 39.43 121.44 40.8 122 42.16 122.55 43.51 123.11 44.83 123.66 46.15 124.22 47.46 124.78 48.76 125.33 50.05 125.89 51.33 126.44 52.58 127 53.79 127.55 54.95 128.11 56.05 128.66 57.1 129.22 58.1 129.78 59.07 130.33 60.02 130.89 60.94 131.44 61.86 132 62.77 132.55 63.68 133.11 64.6 133.66 65.51 134.22 66.43 134.78 67.35 135.33 68.26 135.89 69.15 136.44 70 137 70.81 137.55 71.55 138.11 72.22 138.66 72.82 139.22 73.35 139.78 73.8 140.33 74.2 140.89 74.54 141.44 74.84 142 75.12 142.55 75.37 143.11 75.62 143.66 75.85 144.22 76.07 144.77 76.3 145.33 76.51 145.89 76.73 146.44 76.94 147 77.16 147.55 77.37 148.11 77.59 148.66 77.8 149.22 78.01 149.77 78.2 150.33 78.39 150.89 78.55 151.44 78.71 152 78.84 152.55 78.96 153.11 79.07 153.66 79.17 154.22 79.26 154.77 79.34 155.33 79.4 155.89 79.47 156.44 79.52 157 79.57 157.55 79.62 158.11 79.68 158.66 79.73 159.22 79.78 159.77 79.84 160.33 79.89 160.89 79.93 161.44 79.97 162 80.01 162.55 80.03 163.11 80.05 163.66 80.07 164.22 80.09 164.77 80.11 165.33 80.13 165.89 80.15 166.44 80.18 167 80.21 167.55 80.23 168.11 80.25 168.66 80.27 169.22 80.28 169.77 80.29 170.33 80.3 170.88 80.31 171.44 80.31 172 80.31 172.55 80.31 173.11 80.31 173.66 80.31 174.22 80.31 174.77 80.31 175.33 80.31"/>
      </g>
    </g>
  </g>
</g>
  <g class="guide ylabels" font-size="2.82" font-family="'PT Sans Caption','Helvetica Neue','Helvetica',sans-serif" fill="#6C606B" id="img-eb1857a9-11">
    <text x="10.02" y="80.32" text-anchor="end" dy="0.35em">0.0</text>
    <text x="10.02" y="68.1" text-anchor="end" dy="0.35em">0.1</text>
    <text x="10.02" y="55.88" text-anchor="end" dy="0.35em">0.2</text>
    <text x="10.02" y="43.66" text-anchor="end" dy="0.35em">0.3</text>
    <text x="10.02" y="31.44" text-anchor="end" dy="0.35em">0.4</text>
    <text x="10.02" y="19.22" text-anchor="end" dy="0.35em">0.5</text>
    <text x="10.02" y="7" text-anchor="end" dy="0.35em">0.6</text>
  </g>
</g>
<defs>
  <clipPath id="img-eb1857a9-4">
  <path d="M11.02,5 L 198.2 5 198.2 82.32 11.02 82.32" />
</clipPath>
</defs>
</svg>
