<?xml version="1.0" encoding="UTF-8"?>
<svg xmlns="http://www.w3.org/2000/svg"
     xmlns:xlink="http://www.w3.org/1999/xlink"
     xmlns:gadfly="http://www.gadflyjl.org/ns"
     version="1.2"
     width="152.4mm" height="101.6mm" viewBox="0 0 152.4 101.6"
     stroke="none"
     fill="#000000"
     stroke-width="0.3"
     font-size="3.88"
>
<g class="plotroot xscalable yscalable" id="img-7e4510bd-1">
  <g font-size="3.88" font-family="'PT Sans','Helvetica Neue','Helvetica',sans-serif" fill="#564A55" stroke="#000000" stroke-opacity="0.000" id="img-7e4510bd-2">
    <text x="87.06" y="89.99" text-anchor="middle" dy="0.6em">Standard Normal Quantiles</text>
  </g>
  <g class="guide xlabels" font-size="2.82" font-family="'PT Sans Caption','Helvetica Neue','Helvetica',sans-serif" fill="#6C606B" id="img-7e4510bd-3">
    <text x="28.73" y="83.32" text-anchor="middle" dy="0.6em">-3</text>
    <text x="48.17" y="83.32" text-anchor="middle" dy="0.6em">-2</text>
    <text x="67.62" y="83.32" text-anchor="middle" dy="0.6em">-1</text>
    <text x="87.06" y="83.32" text-anchor="middle" dy="0.6em">0</text>
    <text x="106.51" y="83.32" text-anchor="middle" dy="0.6em">1</text>
    <text x="125.95" y="83.32" text-anchor="middle" dy="0.6em">2</text>
    <text x="145.4" y="83.32" text-anchor="middle" dy="0.6em">3</text>
  </g>
<g clip-path="url(#img-7e4510bd-4)">
  <g id="img-7e4510bd-5">
    <g pointer-events="visible" opacity="1" fill="#000000" fill-opacity="0.000" stroke="#000000" stroke-opacity="0.000" class="guide background" id="img-7e4510bd-6">
      <rect x="26.73" y="5" width="120.67" height="77.32"/>
    </g>
    <g class="guide ygridlines xfixed" stroke-dasharray="0.5,0.5" stroke-width="0.2" stroke="#D0D0E0" id="img-7e4510bd-7">
      <path fill="none" d="M26.73,80.31 L 147.4 80.31"/>
      <path fill="none" d="M26.73,68.1 L 147.4 68.1"/>
      <path fill="none" d="M26.73,55.88 L 147.4 55.88"/>
      <path fill="none" d="M26.73,43.66 L 147.4 43.66"/>
      <path fill="none" d="M26.73,31.44 L 147.4 31.44"/>
      <path fill="none" d="M26.73,19.22 L 147.4 19.22"/>
      <path fill="none" d="M26.73,7 L 147.4 7"/>
    </g>
    <g class="guide xgridlines yfixed" stroke-dasharray="0.5,0.5" stroke-width="0.2" stroke="#D0D0E0" id="img-7e4510bd-8">
      <path fill="none" d="M28.73,5 L 28.73 82.32"/>
      <path fill="none" d="M48.17,5 L 48.17 82.32"/>
      <path fill="none" d="M67.62,5 L 67.62 82.32"/>
      <path fill="none" d="M87.06,5 L 87.06 82.32"/>
      <path fill="none" d="M106.51,5 L 106.51 82.32"/>
      <path fill="none" d="M125.95,5 L 125.95 82.32"/>
      <path fill="none" d="M145.4,5 L 145.4 82.32"/>
    </g>
    <g class="plotpanel" id="img-7e4510bd-9">
      <g stroke-width="0.3" fill="#000000" fill-opacity="0.000" class="geometry" stroke-dasharray="none" stroke="#00BFFF" id="img-7e4510bd-10">
        <path fill="none" d="M31.09,80.31 L 38.21 80.31 41.82 80.31 44.33 80.31 46.29 80.31 47.9 80.31 49.28 80.31 50.49 80.31 51.57 80.31 52.56 80.31 53.46 80.31 54.3 80.31 55.08 80.31 55.81 80.31 56.5 80.31 57.15 80.31 57.77 80.31 58.36 80.31 58.93 80.31 59.48 80.31 60 80.31 60.5 80.31 60.99 80.31 61.46 80.31 61.92 80.18 62.36 80.04 62.79 79.92 63.21 79.78 63.62 79.66 64.02 79.57 64.41 79.44 64.79 79.29 65.16 79.18 65.52 79.06 65.88 78.96 66.23 78.84 66.57 78.74 66.91 78.63 67.24 78.52 67.56 78.39 67.88 78.27 68.2 78.18 68.51 78.04 68.81 77.93 69.11 77.85 69.41 77.74 69.7 77.63 69.99 77.51 70.28 77.4 70.56 77.3 70.83 77.21 71.11 77.14 71.38 77.03 71.65 76.92 71.91 76.8 72.18 76.72 72.44 76.61 72.7 76.51 72.95 76.41 73.2 76.3 73.45 76.19 73.7 76.07 73.95 75.99 74.19 75.9 74.43 75.81 74.67 75.71 74.91 75.63 75.15 75.55 75.38 75.46 75.61 75.36 75.84 75.27 76.07 75.17 76.3 75.09 76.53 74.97 76.75 74.86 76.98 74.75 77.2 74.64 77.42 74.53 77.64 74.43 77.86 74.33 78.08 74.23 78.29 74.12 78.51 74.05 78.72 73.95 78.94 73.86 79.15 73.79 79.36 73.67 79.57 73.56 79.78 73.43 79.99 73.34 80.2 73.24 80.4 73.12 80.61 73.03 80.81 72.93 81.02 72.83 81.22 72.72 81.43 72.62 81.63 72.51 81.83 72.41 82.04 72.3 82.24 72.18 82.44 72.07 82.64 71.95 82.84 71.84 83.04 71.75 83.24 71.66 83.43 71.56 83.63 71.48 83.83 71.33 84.03 71.23 84.23 71.11 84.42 71 84.62 70.89 84.82 70.8 85.01 70.68 85.21 70.56 85.4 70.43 85.6 70.32 85.79 70.21 85.99 70.08 86.18 69.96 86.38 69.83 86.58 69.71 86.77 69.63 86.97 69.5 87.16 69.4 87.35 69.31 87.55 69.21 87.75 69.07 87.94 68.93 88.14 68.82 88.33 68.71 88.53 68.59 88.72 68.49 88.92 68.38 89.11 68.25 89.31 68.13 89.51 67.98 89.7 67.86 89.9 67.73 90.1 67.57 90.29 67.46 90.49 67.33 90.69 67.22 90.89 67.12 91.09 67 91.29 66.84 91.49 66.73 91.69 66.59 91.89 66.45 92.09 66.35 92.29 66.22 92.49 66.09 92.7 65.97 92.9 65.82 93.11 65.7 93.31 65.56 93.52 65.4 93.72 65.28 93.93 65.15 94.14 65.01 94.35 64.87 94.56 64.72 94.77 64.58 94.98 64.41 95.19 64.29 95.4 64.18 95.62 64.05 95.83 63.93 96.05 63.8 96.27 63.71 96.48 63.53 96.7 63.37 96.93 63.2 97.15 63.01 97.37 62.86 97.6 62.68 97.82 62.51 98.05 62.34 98.28 62.14 98.51 61.97 98.74 61.78 98.98 61.61 99.22 61.41 99.45 61.26 99.69 61.08 99.93 60.86 100.18 60.71 100.42 60.5 100.67 60.34 100.92 60.16 101.18 59.95 101.43 59.77 101.69 59.62 101.95 59.39 102.21 59.21 102.48 58.95 102.74 58.7 103.02 58.45 103.29 58.29 103.57 58.04 103.85 57.86 104.13 57.63 104.42 57.37 104.71 57.16 105.01 56.91 105.31 56.58 105.62 56.3 105.93 56.04 106.24 55.89 106.56 55.67 106.89 55.37 107.22 55.07 107.55 54.7 107.9 54.43 108.25 54.08 108.6 53.71 108.97 53.39 109.34 53.1 109.72 52.69 110.11 52.26 110.5 51.87 110.91 51.39 111.33 51 111.76 50.62 112.21 50.18 112.66 49.87 113.13 49.47 113.62 48.96 114.13 48.48 114.65 47.85 115.19 47.37 115.76 46.72 116.35 46.13 116.97 45.52 117.63 45.01 118.32 44.39 119.05 43.75 119.83 43.1 120.66 42.2 121.57 41.52 122.55 40.12 123.64 38.98 124.85 37.57 126.23 35.91 127.84 34.02 129.79 31.32 132.3 28.11 135.91 23.87 143.03 13.13"/>
      </g>
    </g>
  </g>
</g>
  <g class="guide ylabels" font-size="2.82" font-family="'PT Sans Caption','Helvetica Neue','Helvetica',sans-serif" fill="#6C606B" id="img-7e4510bd-11">
    <text x="25.72" y="80.31" text-anchor="end" dy="0.35em">0</text>
    <text x="25.72" y="68.1" text-anchor="end" dy="0.35em">1.0×10³</text>
    <text x="25.72" y="55.88" text-anchor="end" dy="0.35em">2.0×10³</text>
    <text x="25.72" y="43.66" text-anchor="end" dy="0.35em">3.0×10³</text>
    <text x="25.72" y="31.44" text-anchor="end" dy="0.35em">4.0×10³</text>
    <text x="25.72" y="19.22" text-anchor="end" dy="0.35em">5.0×10³</text>
    <text x="25.72" y="7" text-anchor="end" dy="0.35em">6.0×10³</text>
  </g>
  <g font-size="3.88" font-family="'PT Sans','Helvetica Neue','Helvetica',sans-serif" fill="#564A55" stroke="#000000" stroke-opacity="0.000" id="img-7e4510bd-12">
    <text x="8.81" y="41.66" text-anchor="middle" dy="0.35em" transform="rotate(-90, 8.81, 43.66)">σ₁²</text>
  </g>
</g>
<defs>
  <clipPath id="img-7e4510bd-4">
  <path d="M26.73,5 L 147.4 5 147.4 82.32 26.73 82.32" />
</clipPath>
</defs>
</svg>
