<?xml version="1.0" encoding="UTF-8"?>
<svg xmlns="http://www.w3.org/2000/svg"
     xmlns:xlink="http://www.w3.org/1999/xlink"
     xmlns:gadfly="http://www.gadflyjl.org/ns"
     version="1.2"
     width="203.2mm" height="101.6mm" viewBox="0 0 203.2 101.6"
     stroke="none"
     fill="#000000"
     stroke-width="0.3"
     font-size="3.88"
>
<g class="plotroot xscalable yscalable" id="img-7f6532e7-1">
  <g font-size="3.88" font-family="'PT Sans','Helvetica Neue','Helvetica',sans-serif" fill="#564A55" stroke="#000000" stroke-opacity="0.000" id="img-7f6532e7-2">
    <text x="104.61" y="89.99" text-anchor="middle" dy="0.6em">Relative standard deviation of intercept, θ₁</text>
  </g>
  <g class="guide xlabels" font-size="2.82" font-family="'PT Sans Caption','Helvetica Neue','Helvetica',sans-serif" fill="#6C606B" id="img-7f6532e7-3">
    <text x="13.02" y="83.32" text-anchor="middle" dy="0.6em">-1</text>
    <text x="58.82" y="83.32" text-anchor="middle" dy="0.6em">0</text>
    <text x="104.61" y="83.32" text-anchor="middle" dy="0.6em">1</text>
    <text x="150.41" y="83.32" text-anchor="middle" dy="0.6em">2</text>
    <text x="196.2" y="83.32" text-anchor="middle" dy="0.6em">3</text>
  </g>
<g clip-path="url(#img-7f6532e7-4)">
  <g id="img-7f6532e7-5">
    <g pointer-events="visible" opacity="1" fill="#000000" fill-opacity="0.000" stroke="#000000" stroke-opacity="0.000" class="guide background" id="img-7f6532e7-6">
      <rect x="11.02" y="5" width="187.18" height="77.32"/>
    </g>
    <g class="guide ygridlines xfixed" stroke-dasharray="0.5,0.5" stroke-width="0.2" stroke="#D0D0E0" id="img-7f6532e7-7">
      <path fill="none" d="M11.02,80.31 L 198.2 80.31"/>
      <path fill="none" d="M11.02,61.99 L 198.2 61.99"/>
      <path fill="none" d="M11.02,43.66 L 198.2 43.66"/>
      <path fill="none" d="M11.02,25.33 L 198.2 25.33"/>
      <path fill="none" d="M11.02,7 L 198.2 7"/>
    </g>
    <g class="guide xgridlines yfixed" stroke-dasharray="0.5,0.5" stroke-width="0.2" stroke="#D0D0E0" id="img-7f6532e7-8">
      <path fill="none" d="M13.02,5 L 13.02 82.32"/>
      <path fill="none" d="M58.82,5 L 58.82 82.32"/>
      <path fill="none" d="M104.61,5 L 104.61 82.32"/>
      <path fill="none" d="M150.41,5 L 150.41 82.32"/>
      <path fill="none" d="M196.2,5 L 196.2 82.32"/>
    </g>
    <g class="plotpanel" id="img-7f6532e7-9">
      <g stroke-width="0.3" fill="#000000" fill-opacity="0.000" class="geometry" stroke-dasharray="none" stroke="#00BFFF" id="img-7f6532e7-10">
        <path fill="none" d="M52.67,80.31 L 53.05 80.31 53.44 80.31 53.82 80.31 54.21 80.31 54.59 80.31 54.98 80.3 55.36 80.28 55.74 80.26 56.13 80.23 56.51 80.19 56.9 80.13 57.28 80.06 57.66 79.99 58.05 79.92 58.43 79.85 58.82 79.81 59.2 79.78 59.59 79.77 59.97 79.78 60.35 79.79 60.74 79.81 61.12 79.82 61.51 79.83 61.89 79.83 62.27 79.83 62.66 79.82 63.04 79.81 63.43 79.79 63.81 79.75 64.19 79.71 64.58 79.65 64.96 79.58 65.35 79.51 65.73 79.43 66.12 79.35 66.5 79.28 66.88 79.2 67.27 79.11 67.65 79.01 68.04 78.9 68.42 78.77 68.8 78.62 69.19 78.46 69.57 78.28 69.96 78.09 70.34 77.89 70.73 77.69 71.11 77.48 71.49 77.25 71.88 77.02 72.26 76.77 72.65 76.5 73.03 76.21 73.41 75.89 73.8 75.54 74.18 75.17 74.57 74.78 74.95 74.37 75.34 73.95 75.72 73.52 76.1 73.09 76.49 72.64 76.87 72.16 77.26 71.64 77.64 71.07 78.02 70.44 78.41 69.78 78.79 69.08 79.18 68.37 79.56 67.65 79.95 66.93 80.33 66.21 80.71 65.47 81.1 64.67 81.48 63.81 81.87 62.87 82.25 61.83 82.63 60.72 83.02 59.56 83.4 58.37 83.79 57.19 84.17 56.04 84.56 54.92 84.94 53.84 85.32 52.78 85.71 51.72 86.09 50.64 86.48 49.5 86.86 48.29 87.24 46.98 87.63 45.58 88.01 44.09 88.4 42.53 88.78 40.91 89.17 39.28 89.55 37.66 89.93 36.09 90.32 34.6 90.7 33.21 91.09 31.94 91.47 30.8 91.85 29.8 92.24 28.89 92.62 28.07 93.01 27.29 93.39 26.5 93.78 25.69 94.16 24.85 94.54 23.97 94.93 23.09 95.31 22.22 95.7 21.39 96.08 20.63 96.46 19.95 96.85 19.35 97.23 18.84 97.62 18.42 98 18.08 98.39 17.8 98.77 17.59 99.15 17.43 99.54 17.33 99.92 17.32 100.31 17.42 100.69 17.67 101.07 18.11 101.46 18.74 101.84 19.57 102.23 20.57 102.61 21.68 103 22.86 103.38 24.05 103.76 25.21 104.15 26.32 104.53 27.36 104.92 28.35 105.3 29.3 105.68 30.25 106.07 31.22 106.45 32.25 106.84 33.36 107.22 34.56 107.61 35.85 107.99 37.22 108.37 38.63 108.76 40.05 109.14 41.47 109.53 42.86 109.91 44.24 110.29 45.59 110.68 46.93 111.06 48.23 111.45 49.51 111.83 50.73 112.22 51.91 112.6 53.03 112.98 54.11 113.37 55.17 113.75 56.23 114.14 57.3 114.52 58.39 114.9 59.5 115.29 60.6 115.67 61.71 116.06 62.79 116.44 63.86 116.83 64.91 117.21 65.93 117.59 66.91 117.98 67.85 118.36 68.72 118.75 69.51 119.13 70.2 119.51 70.8 119.9 71.32 120.28 71.77 120.67 72.17 121.05 72.57 121.44 72.99 121.82 73.44 122.2 73.94 122.59 74.47 122.97 75.03 123.36 75.59 123.74 76.13 124.12 76.63 124.51 77.07 124.89 77.44 125.28 77.74 125.66 77.97 126.05 78.15 126.43 78.29 126.81 78.4 127.2 78.49 127.58 78.58 127.97 78.67 128.35 78.75 128.73 78.83 129.12 78.9 129.5 78.96 129.89 79.03 130.27 79.09 130.66 79.17 131.04 79.25 131.42 79.34 131.81 79.43 132.19 79.53 132.58 79.63 132.96 79.72 133.34 79.8 133.73 79.88 134.11 79.94 134.5 80 134.88 80.05 135.27 80.1 135.65 80.14 136.03 80.17 136.42 80.19 136.8 80.21 137.19 80.22 137.57 80.22 137.95 80.22 138.34 80.22 138.72 80.22 139.11 80.22 139.49 80.22 139.88 80.22 140.26 80.23 140.64 80.23 141.03 80.24 141.41 80.24 141.8 80.24 142.18 80.25 142.56 80.25 142.95 80.25 143.33 80.25 143.72 80.26 144.1 80.26 144.49 80.26 144.87 80.27 145.25 80.27 145.64 80.28 146.02 80.29 146.41 80.29 146.79 80.3 147.17 80.31 147.56 80.31 147.94 80.31 148.33 80.31 148.71 80.31 149.1 80.31 149.48 80.31 149.86 80.31 150.25 80.31 150.63 80.31"/>
      </g>
    </g>
  </g>
</g>
  <g class="guide ylabels" font-size="2.82" font-family="'PT Sans Caption','Helvetica Neue','Helvetica',sans-serif" fill="#6C606B" id="img-7f6532e7-11">
    <text x="10.02" y="80.31" text-anchor="end" dy="0.35em">0.0</text>
    <text x="10.02" y="61.99" text-anchor="end" dy="0.35em">0.5</text>
    <text x="10.02" y="43.66" text-anchor="end" dy="0.35em">1.0</text>
    <text x="10.02" y="25.33" text-anchor="end" dy="0.35em">1.5</text>
    <text x="10.02" y="7" text-anchor="end" dy="0.35em">2.0</text>
  </g>
</g>
<defs>
  <clipPath id="img-7f6532e7-4">
  <path d="M11.02,5 L 198.2 5 198.2 82.32 11.02 82.32" />
</clipPath>
</defs>
</svg>
