<?xml version="1.0" encoding="UTF-8"?>
<svg xmlns="http://www.w3.org/2000/svg"
     xmlns:xlink="http://www.w3.org/1999/xlink"
     xmlns:gadfly="http://www.gadflyjl.org/ns"
     version="1.2"
     width="152.4mm" height="101.6mm" viewBox="0 0 152.4 101.6"
     stroke="none"
     fill="#000000"
     stroke-width="0.3"
     font-size="3.88"
>
<g class="plotroot xscalable yscalable" id="img-6cc5225b-1">
  <g font-size="3.88" font-family="'PT Sans','Helvetica Neue','Helvetica',sans-serif" fill="#564A55" stroke="#000000" stroke-opacity="0.000" id="img-6cc5225b-2">
    <text x="79.21" y="89.99" text-anchor="middle" dy="0.6em">σ₂</text>
  </g>
  <g class="guide xlabels" font-size="2.82" font-family="'PT Sans Caption','Helvetica Neue','Helvetica',sans-serif" fill="#6C606B" id="img-6cc5225b-3">
    <text x="13.02" y="83.32" text-anchor="middle" dy="0.6em">-1</text>
    <text x="39.5" y="83.32" text-anchor="middle" dy="0.6em">0</text>
    <text x="65.97" y="83.32" text-anchor="middle" dy="0.6em">1</text>
    <text x="92.45" y="83.32" text-anchor="middle" dy="0.6em">2</text>
    <text x="118.92" y="83.32" text-anchor="middle" dy="0.6em">3</text>
    <text x="145.4" y="83.32" text-anchor="middle" dy="0.6em">4</text>
  </g>
<g clip-path="url(#img-6cc5225b-4)">
  <g id="img-6cc5225b-5">
    <g pointer-events="visible" opacity="1" fill="#000000" fill-opacity="0.000" stroke="#000000" stroke-opacity="0.000" class="guide background" id="img-6cc5225b-6">
      <rect x="11.02" y="5" width="136.38" height="77.32"/>
    </g>
    <g class="guide ygridlines xfixed" stroke-dasharray="0.5,0.5" stroke-width="0.2" stroke="#D0D0E0" id="img-6cc5225b-7">
      <path fill="none" d="M11.02,80.32 L 147.4 80.32"/>
      <path fill="none" d="M11.02,55.88 L 147.4 55.88"/>
      <path fill="none" d="M11.02,31.44 L 147.4 31.44"/>
      <path fill="none" d="M11.02,7 L 147.4 7"/>
    </g>
    <g class="guide xgridlines yfixed" stroke-dasharray="0.5,0.5" stroke-width="0.2" stroke="#D0D0E0" id="img-6cc5225b-8">
      <path fill="none" d="M13.02,5 L 13.02 82.32"/>
      <path fill="none" d="M39.5,5 L 39.5 82.32"/>
      <path fill="none" d="M65.97,5 L 65.97 82.32"/>
      <path fill="none" d="M92.45,5 L 92.45 82.32"/>
      <path fill="none" d="M118.92,5 L 118.92 82.32"/>
      <path fill="none" d="M145.4,5 L 145.4 82.32"/>
    </g>
    <g class="plotpanel" id="img-6cc5225b-9">
      <g stroke-width="0.3" fill="#000000" fill-opacity="0.000" class="geometry" stroke-dasharray="none" stroke="#00BFFF" id="img-6cc5225b-10">
        <path fill="none" d="M28.17,80.29 L 28.62 80.27 29.07 80.24 29.52 80.18 29.98 80.07 30.43 79.91 30.88 79.64 31.33 79.24 31.78 78.63 32.23 77.75 32.69 76.5 33.14 74.78 33.59 72.5 34.04 69.56 34.49 65.87 34.95 61.41 35.4 56.2 35.85 50.31 36.3 43.92 36.75 37.28 37.2 30.69 37.66 24.53 38.11 19.16 38.56 14.94 39.01 12.16 39.46 11.01 39.92 11.58 40.37 13.8 40.82 17.5 41.27 22.39 41.72 28.14 42.17 34.36 42.63 40.7 43.08 46.81 43.53 52.46 43.98 57.44 44.43 61.68 44.89 65.13 45.34 67.83 45.79 69.84 46.24 71.27 46.69 72.21 47.14 72.77 47.6 73.03 48.05 73.09 48.5 72.99 48.95 72.78 49.4 72.51 49.86 72.18 50.31 71.83 50.76 71.45 51.21 71.05 51.66 70.64 52.12 70.22 52.57 69.79 53.02 69.35 53.47 68.91 53.92 68.46 54.37 68.02 54.83 67.57 55.28 67.14 55.73 66.72 56.18 66.31 56.63 65.93 57.09 65.58 57.54 65.24 57.99 64.94 58.44 64.66 58.89 64.4 59.34 64.16 59.8 63.93 60.25 63.71 60.7 63.49 61.15 63.27 61.6 63.04 62.06 62.81 62.51 62.58 62.96 62.33 63.41 62.09 63.86 61.86 64.31 61.62 64.77 61.41 65.22 61.2 65.67 61.02 66.12 60.86 66.57 60.72 67.03 60.59 67.48 60.49 67.93 60.4 68.38 60.32 68.83 60.24 69.28 60.18 69.74 60.11 70.19 60.05 70.64 59.99 71.09 59.93 71.54 59.89 72 59.86 72.45 59.85 72.9 59.86 73.35 59.89 73.8 59.95 74.25 60.03 74.71 60.14 75.16 60.28 75.61 60.43 76.06 60.61 76.51 60.8 76.97 61 77.42 61.22 77.87 61.45 78.32 61.69 78.77 61.93 79.23 62.19 79.68 62.45 80.13 62.71 80.58 62.97 81.03 63.24 81.48 63.51 81.94 63.79 82.39 64.06 82.84 64.34 83.29 64.63 83.74 64.91 84.2 65.2 84.65 65.5 85.1 65.8 85.55 66.1 86 66.41 86.45 66.72 86.91 67.04 87.36 67.36 87.81 67.69 88.26 68.02 88.71 68.36 89.17 68.71 89.62 69.06 90.07 69.41 90.52 69.77 90.97 70.13 91.42 70.48 91.88 70.83 92.33 71.18 92.78 71.51 93.23 71.83 93.68 72.14 94.14 72.45 94.59 72.74 95.04 73.02 95.49 73.29 95.94 73.56 96.39 73.83 96.85 74.1 97.3 74.36 97.75 74.62 98.2 74.87 98.65 75.12 99.11 75.37 99.56 75.6 100.01 75.83 100.46 76.05 100.91 76.26 101.37 76.46 101.82 76.65 102.27 76.84 102.72 77.02 103.17 77.2 103.62 77.37 104.08 77.53 104.53 77.69 104.98 77.85 105.43 78 105.88 78.15 106.34 78.29 106.79 78.42 107.24 78.55 107.69 78.67 108.14 78.78 108.59 78.89 109.05 78.99 109.5 79.08 109.95 79.17 110.4 79.25 110.85 79.32 111.31 79.39 111.76 79.46 112.21 79.52 112.66 79.57 113.11 79.62 113.56 79.67 114.02 79.72 114.47 79.76 114.92 79.8 115.37 79.84 115.82 79.88 116.28 79.91 116.73 79.94 117.18 79.97 117.63 80 118.08 80.03 118.53 80.05 118.99 80.08 119.44 80.1 119.89 80.12 120.34 80.14 120.79 80.16 121.25 80.17 121.7 80.18 122.15 80.19 122.6 80.2 123.05 80.21 123.5 80.22 123.96 80.22 124.41 80.23 124.86 80.23 125.31 80.23 125.76 80.24 126.22 80.24 126.67 80.24 127.12 80.24 127.57 80.24 128.02 80.25 128.48 80.25 128.93 80.25 129.38 80.26 129.83 80.26 130.28 80.26 130.73 80.27 131.19 80.27 131.64 80.28 132.09 80.28 132.54 80.29 132.99 80.29 133.45 80.29 133.9 80.3 134.35 80.3 134.8 80.3 135.25 80.3 135.7 80.31 136.16 80.31 136.61 80.31 137.06 80.31 137.51 80.31 137.96 80.31 138.42 80.31 138.87 80.31 139.32 80.31 139.77 80.31 140.22 80.31 140.67 80.31 141.13 80.31 141.58 80.31 142.03 80.31 142.48 80.31 142.93 80.31 143.39 80.3"/>
      </g>
    </g>
  </g>
</g>
  <g class="guide ylabels" font-size="2.82" font-family="'PT Sans Caption','Helvetica Neue','Helvetica',sans-serif" fill="#6C606B" id="img-6cc5225b-11">
    <text x="10.02" y="80.32" text-anchor="end" dy="0.35em">0.0</text>
    <text x="10.02" y="55.88" text-anchor="end" dy="0.35em">0.5</text>
    <text x="10.02" y="31.44" text-anchor="end" dy="0.35em">1.0</text>
    <text x="10.02" y="7" text-anchor="end" dy="0.35em">1.5</text>
  </g>
</g>
<defs>
  <clipPath id="img-6cc5225b-4">
  <path d="M11.02,5 L 147.4 5 147.4 82.32 11.02 82.32" />
</clipPath>
</defs>
</svg>
