<?xml version="1.0" encoding="UTF-8"?>
<svg xmlns="http://www.w3.org/2000/svg"
     xmlns:xlink="http://www.w3.org/1999/xlink"
     xmlns:gadfly="http://www.gadflyjl.org/ns"
     version="1.2"
     width="141.42mm" height="100mm" viewBox="0 0 141.42 100"
     stroke="none"
     fill="#000000"
     stroke-width="0.3"
     font-size="3.88"
>
<g class="plotroot xscalable yscalable" id="img-01964788-1">
  <g font-size="3.88" font-family="'PT Sans','Helvetica Neue','Helvetica',sans-serif" fill="#564A55" stroke="#000000" stroke-opacity="0.000" id="img-01964788-2">
    <g transform="translate(74.22,88.39)">
      <g class="primitive">
        <text text-anchor="middle" dy="0.6em">κ⁻¹</text>
      </g>
    </g>
  </g>
  <g class="guide xlabels" font-size="2.82" font-family="'PT Sans Caption','Helvetica Neue','Helvetica',sans-serif" fill="#6C606B" id="img-01964788-3">
    <g transform="translate(14.02,81.72)">
      <g class="primitive">
        <text text-anchor="middle" dy="0.6em">0.0</text>
      </g>
    </g>
    <g transform="translate(44.12,81.72)">
      <g class="primitive">
        <text text-anchor="middle" dy="0.6em">0.1</text>
      </g>
    </g>
    <g transform="translate(74.22,81.72)">
      <g class="primitive">
        <text text-anchor="middle" dy="0.6em">0.2</text>
      </g>
    </g>
    <g transform="translate(104.32,81.72)">
      <g class="primitive">
        <text text-anchor="middle" dy="0.6em">0.3</text>
      </g>
    </g>
    <g transform="translate(134.42,81.72)">
      <g class="primitive">
        <text text-anchor="middle" dy="0.6em">0.4</text>
      </g>
    </g>
  </g>
  <g clip-path="url(#img-01964788-4)">
    <g id="img-01964788-5">
      <g pointer-events="visible" opacity="0" fill="#000000" fill-opacity="0.000" stroke="#000000" stroke-opacity="0.000" class="guide background" id="img-01964788-6">
        <g transform="translate(74.22,42.86)">
          <path d="M-62.2,-37.86 L 62.2 -37.86 62.2 37.86 -62.2 37.86 z" class="primitive"/>
        </g>
      </g>
      <g class="guide ygridlines xfixed" stroke-dasharray="0.5,0.5" stroke-width="0.2" stroke="#D0D0E0" id="img-01964788-7">
        <g transform="translate(74.22,78.71)">
          <path fill="none" d="M-62.2,0 L 62.2 0" class="primitive"/>
        </g>
        <g transform="translate(74.22,54.81)">
          <path fill="none" d="M-62.2,0 L 62.2 0" class="primitive"/>
        </g>
        <g transform="translate(74.22,30.9)">
          <path fill="none" d="M-62.2,0 L 62.2 0" class="primitive"/>
        </g>
        <g transform="translate(74.22,7)">
          <path fill="none" d="M-62.2,0 L 62.2 0" class="primitive"/>
        </g>
      </g>
      <g class="guide xgridlines yfixed" stroke-dasharray="0.5,0.5" stroke-width="0.2" stroke="#D0D0E0" id="img-01964788-8">
        <g transform="translate(14.02,42.86)">
          <path fill="none" d="M0,-37.86 L 0 37.86" class="primitive"/>
        </g>
        <g transform="translate(44.12,42.86)">
          <path fill="none" d="M0,-37.86 L 0 37.86" class="primitive"/>
        </g>
        <g transform="translate(74.22,42.86)">
          <path fill="none" d="M0,-37.86 L 0 37.86" class="primitive"/>
        </g>
        <g transform="translate(104.32,42.86)">
          <path fill="none" d="M0,-37.86 L 0 37.86" class="primitive"/>
        </g>
        <g transform="translate(134.42,42.86)">
          <path fill="none" d="M0,-37.86 L 0 37.86" class="primitive"/>
        </g>
      </g>
      <g class="plotpanel" id="img-01964788-9">
        <metadata>
          <boundingbox value="12.02000000000001mm 5.0mm 124.4013562373095mm 75.715mm"/>
          <unitbox value="-0.006644443426560831 308.3664505333612 0.41328888685312165 -316.7329010667225"/>
        </metadata>
        <g shape-rendering="crispEdges" stroke-width="0.3" id="img-01964788-10">
          <g stroke="#000000" stroke-opacity="0.000" class="geometry" fill="#00BFFF" id="img-01964788-11">
            <g transform="translate(32.85,78.6)">
              <path d="M-0.33,-0.12 L 0.33 -0.12 0.33 0.12 -0.33 0.12 z" class="primitive"/>
            </g>
            <g transform="translate(33.46,78.6)">
              <path d="M-0.33,-0.12 L 0.33 -0.12 0.33 0.12 -0.33 0.12 z" class="primitive"/>
            </g>
            <g transform="translate(34.08,78.48)">
              <path d="M-0.33,-0.24 L 0.33 -0.24 0.33 0.24 -0.33 0.24 z" class="primitive"/>
            </g>
            <g transform="translate(34.7,78.6)">
              <path d="M-0.33,-0.12 L 0.33 -0.12 0.33 0.12 -0.33 0.12 z" class="primitive"/>
            </g>
            <g transform="translate(35.31,78.36)">
              <path d="M-0.33,-0.36 L 0.33 -0.36 0.33 0.36 -0.33 0.36 z" class="primitive"/>
            </g>
            <g transform="translate(35.93,78.48)">
              <path d="M-0.33,-0.24 L 0.33 -0.24 0.33 0.24 -0.33 0.24 z" class="primitive"/>
            </g>
            <g transform="translate(36.55,78.12)">
              <path d="M-0.33,-0.6 L 0.33 -0.6 0.33 0.6 -0.33 0.6 z" class="primitive"/>
            </g>
            <g transform="translate(37.16,78.24)">
              <path d="M-0.33,-0.48 L 0.33 -0.48 0.33 0.48 -0.33 0.48 z" class="primitive"/>
            </g>
            <g transform="translate(37.78,78)">
              <path d="M-0.33,-0.72 L 0.33 -0.72 0.33 0.72 -0.33 0.72 z" class="primitive"/>
            </g>
            <g transform="translate(38.39,77.64)">
              <path d="M-0.33,-1.08 L 0.33 -1.08 0.33 1.08 -0.33 1.08 z" class="primitive"/>
            </g>
            <g transform="translate(39.01,76.92)">
              <path d="M-0.33,-1.79 L 0.33 -1.79 0.33 1.79 -0.33 1.79 z" class="primitive"/>
            </g>
            <g transform="translate(39.63,76.09)">
              <path d="M-0.33,-2.63 L 0.33 -2.63 0.33 2.63 -0.33 2.63 z" class="primitive"/>
            </g>
            <g transform="translate(40.24,76.92)">
              <path d="M-0.33,-1.79 L 0.33 -1.79 0.33 1.79 -0.33 1.79 z" class="primitive"/>
            </g>
            <g transform="translate(40.86,75.49)">
              <path d="M-0.33,-3.23 L 0.33 -3.23 0.33 3.23 -0.33 3.23 z" class="primitive"/>
            </g>
            <g transform="translate(41.48,75.25)">
              <path d="M-0.33,-3.47 L 0.33 -3.47 0.33 3.47 -0.33 3.47 z" class="primitive"/>
            </g>
            <g transform="translate(42.09,74.77)">
              <path d="M-0.33,-3.94 L 0.33 -3.94 0.33 3.94 -0.33 3.94 z" class="primitive"/>
            </g>
            <g transform="translate(42.71,73.93)">
              <path d="M-0.33,-4.78 L 0.33 -4.78 0.33 4.78 -0.33 4.78 z" class="primitive"/>
            </g>
            <g transform="translate(43.33,74.17)">
              <path d="M-0.33,-4.54 L 0.33 -4.54 0.33 4.54 -0.33 4.54 z" class="primitive"/>
            </g>
            <g transform="translate(43.94,72.62)">
              <path d="M-0.33,-6.1 L 0.33 -6.1 0.33 6.1 -0.33 6.1 z" class="primitive"/>
            </g>
            <g transform="translate(44.56,69.63)">
              <path d="M-0.33,-9.08 L 0.33 -9.08 0.33 9.08 -0.33 9.08 z" class="primitive"/>
            </g>
            <g transform="translate(45.17,69.39)">
              <path d="M-0.33,-9.32 L 0.33 -9.32 0.33 9.32 -0.33 9.32 z" class="primitive"/>
            </g>
            <g transform="translate(45.79,69.99)">
              <path d="M-0.33,-8.73 L 0.33 -8.73 0.33 8.73 -0.33 8.73 z" class="primitive"/>
            </g>
            <g transform="translate(46.41,67.96)">
              <path d="M-0.33,-10.76 L 0.33 -10.76 0.33 10.76 -0.33 10.76 z" class="primitive"/>
            </g>
            <g transform="translate(47.02,64.97)">
              <path d="M-0.33,-13.75 L 0.33 -13.75 0.33 13.75 -0.33 13.75 z" class="primitive"/>
            </g>
            <g transform="translate(47.64,63.89)">
              <path d="M-0.33,-14.82 L 0.33 -14.82 0.33 14.82 -0.33 14.82 z" class="primitive"/>
            </g>
            <g transform="translate(48.26,64.73)">
              <path d="M-0.33,-13.98 L 0.33 -13.98 0.33 13.98 -0.33 13.98 z" class="primitive"/>
            </g>
            <g transform="translate(48.87,60.43)">
              <path d="M-0.33,-18.29 L 0.33 -18.29 0.33 18.29 -0.33 18.29 z" class="primitive"/>
            </g>
            <g transform="translate(49.49,61.14)">
              <path d="M-0.33,-17.57 L 0.33 -17.57 0.33 17.57 -0.33 17.57 z" class="primitive"/>
            </g>
            <g transform="translate(50.11,61.26)">
              <path d="M-0.33,-17.45 L 0.33 -17.45 0.33 17.45 -0.33 17.45 z" class="primitive"/>
            </g>
            <g transform="translate(50.72,56.96)">
              <path d="M-0.33,-21.75 L 0.33 -21.75 0.33 21.75 -0.33 21.75 z" class="primitive"/>
            </g>
            <g transform="translate(51.34,55.29)">
              <path d="M-0.33,-23.43 L 0.33 -23.43 0.33 23.43 -0.33 23.43 z" class="primitive"/>
            </g>
            <g transform="translate(51.95,54.33)">
              <path d="M-0.33,-24.38 L 0.33 -24.38 0.33 24.38 -0.33 24.38 z" class="primitive"/>
            </g>
            <g transform="translate(52.57,55.29)">
              <path d="M-0.33,-23.43 L 0.33 -23.43 0.33 23.43 -0.33 23.43 z" class="primitive"/>
            </g>
            <g transform="translate(53.19,54.93)">
              <path d="M-0.33,-23.79 L 0.33 -23.79 0.33 23.79 -0.33 23.79 z" class="primitive"/>
            </g>
            <g transform="translate(53.8,54.57)">
              <path d="M-0.33,-24.14 L 0.33 -24.14 0.33 24.14 -0.33 24.14 z" class="primitive"/>
            </g>
            <g transform="translate(54.42,52.42)">
              <path d="M-0.33,-26.3 L 0.33 -26.3 0.33 26.3 -0.33 26.3 z" class="primitive"/>
            </g>
            <g transform="translate(55.04,50.39)">
              <path d="M-0.33,-28.33 L 0.33 -28.33 0.33 28.33 -0.33 28.33 z" class="primitive"/>
            </g>
            <g transform="translate(55.65,47.4)">
              <path d="M-0.33,-31.32 L 0.33 -31.32 0.33 31.32 -0.33 31.32 z" class="primitive"/>
            </g>
            <g transform="translate(56.27,50.15)">
              <path d="M-0.33,-28.57 L 0.33 -28.57 0.33 28.57 -0.33 28.57 z" class="primitive"/>
            </g>
            <g transform="translate(56.89,49.19)">
              <path d="M-0.33,-29.52 L 0.33 -29.52 0.33 29.52 -0.33 29.52 z" class="primitive"/>
            </g>
            <g transform="translate(57.5,50.27)">
              <path d="M-0.33,-28.45 L 0.33 -28.45 0.33 28.45 -0.33 28.45 z" class="primitive"/>
            </g>
            <g transform="translate(58.12,49.43)">
              <path d="M-0.33,-29.28 L 0.33 -29.28 0.33 29.28 -0.33 29.28 z" class="primitive"/>
            </g>
            <g transform="translate(58.73,50.39)">
              <path d="M-0.33,-28.33 L 0.33 -28.33 0.33 28.33 -0.33 28.33 z" class="primitive"/>
            </g>
            <g transform="translate(59.35,45.85)">
              <path d="M-0.33,-32.87 L 0.33 -32.87 0.33 32.87 -0.33 32.87 z" class="primitive"/>
            </g>
            <g transform="translate(59.97,46.44)">
              <path d="M-0.33,-32.27 L 0.33 -32.27 0.33 32.27 -0.33 32.27 z" class="primitive"/>
            </g>
            <g transform="translate(60.58,46.68)">
              <path d="M-0.33,-32.03 L 0.33 -32.03 0.33 32.03 -0.33 32.03 z" class="primitive"/>
            </g>
            <g transform="translate(61.2,48.36)">
              <path d="M-0.33,-30.36 L 0.33 -30.36 0.33 30.36 -0.33 30.36 z" class="primitive"/>
            </g>
            <g transform="translate(61.82,52.18)">
              <path d="M-0.33,-26.53 L 0.33 -26.53 0.33 26.53 -0.33 26.53 z" class="primitive"/>
            </g>
            <g transform="translate(62.43,51.7)">
              <path d="M-0.33,-27.01 L 0.33 -27.01 0.33 27.01 -0.33 27.01 z" class="primitive"/>
            </g>
            <g transform="translate(63.05,53.02)">
              <path d="M-0.33,-25.7 L 0.33 -25.7 0.33 25.7 -0.33 25.7 z" class="primitive"/>
            </g>
            <g transform="translate(63.67,51.22)">
              <path d="M-0.33,-27.49 L 0.33 -27.49 0.33 27.49 -0.33 27.49 z" class="primitive"/>
            </g>
            <g transform="translate(64.28,55.05)">
              <path d="M-0.33,-23.67 L 0.33 -23.67 0.33 23.67 -0.33 23.67 z" class="primitive"/>
            </g>
            <g transform="translate(64.9,56.96)">
              <path d="M-0.33,-21.75 L 0.33 -21.75 0.33 21.75 -0.33 21.75 z" class="primitive"/>
            </g>
            <g transform="translate(65.51,53.02)">
              <path d="M-0.33,-25.7 L 0.33 -25.7 0.33 25.7 -0.33 25.7 z" class="primitive"/>
            </g>
            <g transform="translate(66.13,57.08)">
              <path d="M-0.33,-21.63 L 0.33 -21.63 0.33 21.63 -0.33 21.63 z" class="primitive"/>
            </g>
            <g transform="translate(66.75,57.08)">
              <path d="M-0.33,-21.63 L 0.33 -21.63 0.33 21.63 -0.33 21.63 z" class="primitive"/>
            </g>
            <g transform="translate(67.36,58.99)">
              <path d="M-0.33,-19.72 L 0.33 -19.72 0.33 19.72 -0.33 19.72 z" class="primitive"/>
            </g>
            <g transform="translate(67.98,57.32)">
              <path d="M-0.33,-21.39 L 0.33 -21.39 0.33 21.39 -0.33 21.39 z" class="primitive"/>
            </g>
            <g transform="translate(68.6,58.87)">
              <path d="M-0.33,-19.84 L 0.33 -19.84 0.33 19.84 -0.33 19.84 z" class="primitive"/>
            </g>
            <g transform="translate(69.21,62.58)">
              <path d="M-0.33,-16.14 L 0.33 -16.14 0.33 16.14 -0.33 16.14 z" class="primitive"/>
            </g>
            <g transform="translate(69.83,61.03)">
              <path d="M-0.33,-17.69 L 0.33 -17.69 0.33 17.69 -0.33 17.69 z" class="primitive"/>
            </g>
            <g transform="translate(70.45,64.97)">
              <path d="M-0.33,-13.75 L 0.33 -13.75 0.33 13.75 -0.33 13.75 z" class="primitive"/>
            </g>
            <g transform="translate(71.06,64.85)">
              <path d="M-0.33,-13.86 L 0.33 -13.86 0.33 13.86 -0.33 13.86 z" class="primitive"/>
            </g>
            <g transform="translate(71.68,65.21)">
              <path d="M-0.33,-13.51 L 0.33 -13.51 0.33 13.51 -0.33 13.51 z" class="primitive"/>
            </g>
            <g transform="translate(72.29,64.73)">
              <path d="M-0.33,-13.98 L 0.33 -13.98 0.33 13.98 -0.33 13.98 z" class="primitive"/>
            </g>
            <g transform="translate(72.91,68.91)">
              <path d="M-0.33,-9.8 L 0.33 -9.8 0.33 9.8 -0.33 9.8 z" class="primitive"/>
            </g>
            <g transform="translate(73.53,67.6)">
              <path d="M-0.33,-11.12 L 0.33 -11.12 0.33 11.12 -0.33 11.12 z" class="primitive"/>
            </g>
            <g transform="translate(74.14,66.76)">
              <path d="M-0.33,-11.95 L 0.33 -11.95 0.33 11.95 -0.33 11.95 z" class="primitive"/>
            </g>
            <g transform="translate(74.76,67.48)">
              <path d="M-0.33,-11.24 L 0.33 -11.24 0.33 11.24 -0.33 11.24 z" class="primitive"/>
            </g>
            <g transform="translate(75.38,70.59)">
              <path d="M-0.33,-8.13 L 0.33 -8.13 0.33 8.13 -0.33 8.13 z" class="primitive"/>
            </g>
            <g transform="translate(75.99,69.27)">
              <path d="M-0.33,-9.44 L 0.33 -9.44 0.33 9.44 -0.33 9.44 z" class="primitive"/>
            </g>
            <g transform="translate(76.61,70.71)">
              <path d="M-0.33,-8.01 L 0.33 -8.01 0.33 8.01 -0.33 8.01 z" class="primitive"/>
            </g>
            <g transform="translate(77.23,71.42)">
              <path d="M-0.33,-7.29 L 0.33 -7.29 0.33 7.29 -0.33 7.29 z" class="primitive"/>
            </g>
            <g transform="translate(77.84,72.26)">
              <path d="M-0.33,-6.45 L 0.33 -6.45 0.33 6.45 -0.33 6.45 z" class="primitive"/>
            </g>
            <g transform="translate(78.46,73.1)">
              <path d="M-0.33,-5.62 L 0.33 -5.62 0.33 5.62 -0.33 5.62 z" class="primitive"/>
            </g>
            <g transform="translate(79.07,72.26)">
              <path d="M-0.33,-6.45 L 0.33 -6.45 0.33 6.45 -0.33 6.45 z" class="primitive"/>
            </g>
            <g transform="translate(79.69,72.74)">
              <path d="M-0.33,-5.98 L 0.33 -5.98 0.33 5.98 -0.33 5.98 z" class="primitive"/>
            </g>
            <g transform="translate(80.31,73.22)">
              <path d="M-0.33,-5.5 L 0.33 -5.5 0.33 5.5 -0.33 5.5 z" class="primitive"/>
            </g>
            <g transform="translate(80.92,73.93)">
              <path d="M-0.33,-4.78 L 0.33 -4.78 0.33 4.78 -0.33 4.78 z" class="primitive"/>
            </g>
            <g transform="translate(81.54,74.77)">
              <path d="M-0.33,-3.94 L 0.33 -3.94 0.33 3.94 -0.33 3.94 z" class="primitive"/>
            </g>
            <g transform="translate(82.16,75.49)">
              <path d="M-0.33,-3.23 L 0.33 -3.23 0.33 3.23 -0.33 3.23 z" class="primitive"/>
            </g>
            <g transform="translate(82.77,74.77)">
              <path d="M-0.33,-3.94 L 0.33 -3.94 0.33 3.94 -0.33 3.94 z" class="primitive"/>
            </g>
            <g transform="translate(83.39,76.56)">
              <path d="M-0.33,-2.15 L 0.33 -2.15 0.33 2.15 -0.33 2.15 z" class="primitive"/>
            </g>
            <g transform="translate(84.01,76.44)">
              <path d="M-0.33,-2.27 L 0.33 -2.27 0.33 2.27 -0.33 2.27 z" class="primitive"/>
            </g>
            <g transform="translate(84.62,76.09)">
              <path d="M-0.33,-2.63 L 0.33 -2.63 0.33 2.63 -0.33 2.63 z" class="primitive"/>
            </g>
            <g transform="translate(85.24,75.97)">
              <path d="M-0.33,-2.75 L 0.33 -2.75 0.33 2.75 -0.33 2.75 z" class="primitive"/>
            </g>
            <g transform="translate(85.85,75.97)">
              <path d="M-0.33,-2.75 L 0.33 -2.75 0.33 2.75 -0.33 2.75 z" class="primitive"/>
            </g>
            <g transform="translate(86.47,76.92)">
              <path d="M-0.33,-1.79 L 0.33 -1.79 0.33 1.79 -0.33 1.79 z" class="primitive"/>
            </g>
            <g transform="translate(87.09,76.09)">
              <path d="M-0.33,-2.63 L 0.33 -2.63 0.33 2.63 -0.33 2.63 z" class="primitive"/>
            </g>
            <g transform="translate(87.7,77.28)">
              <path d="M-0.33,-1.43 L 0.33 -1.43 0.33 1.43 -0.33 1.43 z" class="primitive"/>
            </g>
            <g transform="translate(88.32,77.52)">
              <path d="M-0.33,-1.2 L 0.33 -1.2 0.33 1.2 -0.33 1.2 z" class="primitive"/>
            </g>
            <g transform="translate(88.94,76.8)">
              <path d="M-0.33,-1.91 L 0.33 -1.91 0.33 1.91 -0.33 1.91 z" class="primitive"/>
            </g>
            <g transform="translate(89.55,77.28)">
              <path d="M-0.33,-1.43 L 0.33 -1.43 0.33 1.43 -0.33 1.43 z" class="primitive"/>
            </g>
            <g transform="translate(90.17,77.88)">
              <path d="M-0.33,-0.84 L 0.33 -0.84 0.33 0.84 -0.33 0.84 z" class="primitive"/>
            </g>
            <g transform="translate(90.79,78)">
              <path d="M-0.33,-0.72 L 0.33 -0.72 0.33 0.72 -0.33 0.72 z" class="primitive"/>
            </g>
            <g transform="translate(91.4,77.76)">
              <path d="M-0.33,-0.96 L 0.33 -0.96 0.33 0.96 -0.33 0.96 z" class="primitive"/>
            </g>
            <g transform="translate(92.02,77.4)">
              <path d="M-0.33,-1.31 L 0.33 -1.31 0.33 1.31 -0.33 1.31 z" class="primitive"/>
            </g>
            <g transform="translate(92.63,78.36)">
              <path d="M-0.33,-0.36 L 0.33 -0.36 0.33 0.36 -0.33 0.36 z" class="primitive"/>
            </g>
            <g transform="translate(93.25,78.24)">
              <path d="M-0.33,-0.48 L 0.33 -0.48 0.33 0.48 -0.33 0.48 z" class="primitive"/>
            </g>
            <g transform="translate(93.87,77.64)">
              <path d="M-0.33,-1.08 L 0.33 -1.08 0.33 1.08 -0.33 1.08 z" class="primitive"/>
            </g>
            <g transform="translate(94.48,78.48)">
              <path d="M-0.33,-0.24 L 0.33 -0.24 0.33 0.24 -0.33 0.24 z" class="primitive"/>
            </g>
            <g transform="translate(95.1,78.12)">
              <path d="M-0.33,-0.6 L 0.33 -0.6 0.33 0.6 -0.33 0.6 z" class="primitive"/>
            </g>
            <g transform="translate(95.72,78.36)">
              <path d="M-0.33,-0.36 L 0.33 -0.36 0.33 0.36 -0.33 0.36 z" class="primitive"/>
            </g>
            <g transform="translate(96.33,78.6)">
              <path d="M-0.33,-0.12 L 0.33 -0.12 0.33 0.12 -0.33 0.12 z" class="primitive"/>
            </g>
            <g transform="translate(96.95,78.48)">
              <path d="M-0.33,-0.24 L 0.33 -0.24 0.33 0.24 -0.33 0.24 z" class="primitive"/>
            </g>
            <g transform="translate(97.57,78.6)">
              <path d="M-0.33,-0.12 L 0.33 -0.12 0.33 0.12 -0.33 0.12 z" class="primitive"/>
            </g>
            <g transform="translate(98.18,78.72)">
              <path d="M-0.33,-0 L 0.33 -0 0.33 0 -0.33 0 z" class="primitive"/>
            </g>
            <g transform="translate(98.8,78.48)">
              <path d="M-0.33,-0.24 L 0.33 -0.24 0.33 0.24 -0.33 0.24 z" class="primitive"/>
            </g>
            <g transform="translate(99.41,78.36)">
              <path d="M-0.33,-0.36 L 0.33 -0.36 0.33 0.36 -0.33 0.36 z" class="primitive"/>
            </g>
            <g transform="translate(100.03,78.72)">
              <path d="M-0.33,-0 L 0.33 -0 0.33 0 -0.33 0 z" class="primitive"/>
            </g>
            <g transform="translate(100.65,78.6)">
              <path d="M-0.33,-0.12 L 0.33 -0.12 0.33 0.12 -0.33 0.12 z" class="primitive"/>
            </g>
            <g transform="translate(101.26,78.6)">
              <path d="M-0.33,-0.12 L 0.33 -0.12 0.33 0.12 -0.33 0.12 z" class="primitive"/>
            </g>
            <g transform="translate(101.88,78.48)">
              <path d="M-0.33,-0.24 L 0.33 -0.24 0.33 0.24 -0.33 0.24 z" class="primitive"/>
            </g>
            <g transform="translate(102.5,78.6)">
              <path d="M-0.33,-0.12 L 0.33 -0.12 0.33 0.12 -0.33 0.12 z" class="primitive"/>
            </g>
            <g transform="translate(103.11,78.6)">
              <path d="M-0.33,-0.12 L 0.33 -0.12 0.33 0.12 -0.33 0.12 z" class="primitive"/>
            </g>
            <g transform="translate(103.73,78.72)">
              <path d="M-0.33,-0 L 0.33 -0 0.33 0 -0.33 0 z" class="primitive"/>
            </g>
            <g transform="translate(104.35,78.6)">
              <path d="M-0.33,-0.12 L 0.33 -0.12 0.33 0.12 -0.33 0.12 z" class="primitive"/>
            </g>
            <g transform="translate(104.96,78.6)">
              <path d="M-0.33,-0.12 L 0.33 -0.12 0.33 0.12 -0.33 0.12 z" class="primitive"/>
            </g>
            <g transform="translate(105.58,78.72)">
              <path d="M-0.33,-0 L 0.33 -0 0.33 0 -0.33 0 z" class="primitive"/>
            </g>
            <g transform="translate(106.19,78.72)">
              <path d="M-0.33,-0 L 0.33 -0 0.33 0 -0.33 0 z" class="primitive"/>
            </g>
            <g transform="translate(106.81,78.72)">
              <path d="M-0.33,-0 L 0.33 -0 0.33 0 -0.33 0 z" class="primitive"/>
            </g>
            <g transform="translate(107.43,78.72)">
              <path d="M-0.33,-0 L 0.33 -0 0.33 0 -0.33 0 z" class="primitive"/>
            </g>
            <g transform="translate(108.04,78.48)">
              <path d="M-0.33,-0.24 L 0.33 -0.24 0.33 0.24 -0.33 0.24 z" class="primitive"/>
            </g>
            <g transform="translate(108.66,78.6)">
              <path d="M-0.33,-0.12 L 0.33 -0.12 0.33 0.12 -0.33 0.12 z" class="primitive"/>
            </g>
            <g transform="translate(109.28,78.72)">
              <path d="M-0.33,-0 L 0.33 -0 0.33 0 -0.33 0 z" class="primitive"/>
            </g>
            <g transform="translate(109.89,78.72)">
              <path d="M-0.33,-0 L 0.33 -0 0.33 0 -0.33 0 z" class="primitive"/>
            </g>
            <g transform="translate(110.51,78.72)">
              <path d="M-0.33,-0 L 0.33 -0 0.33 0 -0.33 0 z" class="primitive"/>
            </g>
            <g transform="translate(111.13,78.72)">
              <path d="M-0.33,-0 L 0.33 -0 0.33 0 -0.33 0 z" class="primitive"/>
            </g>
            <g transform="translate(111.74,78.72)">
              <path d="M-0.33,-0 L 0.33 -0 0.33 0 -0.33 0 z" class="primitive"/>
            </g>
            <g transform="translate(112.36,78.72)">
              <path d="M-0.33,-0 L 0.33 -0 0.33 0 -0.33 0 z" class="primitive"/>
            </g>
            <g transform="translate(112.97,78.72)">
              <path d="M-0.33,-0 L 0.33 -0 0.33 0 -0.33 0 z" class="primitive"/>
            </g>
            <g transform="translate(113.59,78.72)">
              <path d="M-0.33,-0 L 0.33 -0 0.33 0 -0.33 0 z" class="primitive"/>
            </g>
            <g transform="translate(114.21,78.72)">
              <path d="M-0.33,-0 L 0.33 -0 0.33 0 -0.33 0 z" class="primitive"/>
            </g>
            <g transform="translate(114.82,78.72)">
              <path d="M-0.33,-0 L 0.33 -0 0.33 0 -0.33 0 z" class="primitive"/>
            </g>
            <g transform="translate(115.44,78.72)">
              <path d="M-0.33,-0 L 0.33 -0 0.33 0 -0.33 0 z" class="primitive"/>
            </g>
            <g transform="translate(116.06,78.72)">
              <path d="M-0.33,-0 L 0.33 -0 0.33 0 -0.33 0 z" class="primitive"/>
            </g>
            <g transform="translate(116.67,78.6)">
              <path d="M-0.33,-0.12 L 0.33 -0.12 0.33 0.12 -0.33 0.12 z" class="primitive"/>
            </g>
            <g transform="translate(117.29,78.6)">
              <path d="M-0.33,-0.12 L 0.33 -0.12 0.33 0.12 -0.33 0.12 z" class="primitive"/>
            </g>
            <g transform="translate(117.91,78.72)">
              <path d="M-0.33,-0 L 0.33 -0 0.33 0 -0.33 0 z" class="primitive"/>
            </g>
            <g transform="translate(118.52,78.72)">
              <path d="M-0.33,-0 L 0.33 -0 0.33 0 -0.33 0 z" class="primitive"/>
            </g>
            <g transform="translate(119.14,78.72)">
              <path d="M-0.33,-0 L 0.33 -0 0.33 0 -0.33 0 z" class="primitive"/>
            </g>
            <g transform="translate(119.75,78.72)">
              <path d="M-0.33,-0 L 0.33 -0 0.33 0 -0.33 0 z" class="primitive"/>
            </g>
            <g transform="translate(120.37,78.72)">
              <path d="M-0.33,-0 L 0.33 -0 0.33 0 -0.33 0 z" class="primitive"/>
            </g>
            <g transform="translate(120.99,78.72)">
              <path d="M-0.33,-0 L 0.33 -0 0.33 0 -0.33 0 z" class="primitive"/>
            </g>
            <g transform="translate(121.6,78.6)">
              <path d="M-0.33,-0.12 L 0.33 -0.12 0.33 0.12 -0.33 0.12 z" class="primitive"/>
            </g>
            <g transform="translate(122.22,78.72)">
              <path d="M-0.33,-0 L 0.33 -0 0.33 0 -0.33 0 z" class="primitive"/>
            </g>
            <g transform="translate(122.84,78.72)">
              <path d="M-0.33,-0 L 0.33 -0 0.33 0 -0.33 0 z" class="primitive"/>
            </g>
            <g transform="translate(123.45,78.72)">
              <path d="M-0.33,-0 L 0.33 -0 0.33 0 -0.33 0 z" class="primitive"/>
            </g>
            <g transform="translate(124.07,78.72)">
              <path d="M-0.33,-0 L 0.33 -0 0.33 0 -0.33 0 z" class="primitive"/>
            </g>
            <g transform="translate(124.68,78.6)">
              <path d="M-0.33,-0.12 L 0.33 -0.12 0.33 0.12 -0.33 0.12 z" class="primitive"/>
            </g>
          </g>
        </g>
      </g>
    </g>
  </g>
  <g class="guide ylabels" font-size="2.82" font-family="'PT Sans Caption','Helvetica Neue','Helvetica',sans-serif" fill="#6C606B" id="img-01964788-12">
    <g transform="translate(11.02,78.71)">
      <g class="primitive">
        <text text-anchor="end" dy="0.35em">0</text>
      </g>
    </g>
    <g transform="translate(11.02,54.81)">
      <g class="primitive">
        <text text-anchor="end" dy="0.35em">100</text>
      </g>
    </g>
    <g transform="translate(11.02,30.9)">
      <g class="primitive">
        <text text-anchor="end" dy="0.35em">200</text>
      </g>
    </g>
    <g transform="translate(11.02,7)">
      <g class="primitive">
        <text text-anchor="end" dy="0.35em">300</text>
      </g>
    </g>
  </g>
</g>
<defs>
  <clipPath id="img-01964788-4">
    <path d="M12.02,5 L 136.42 5 136.42 80.72 12.02 80.72" />
  </clipPath>
</defs>
</svg>
