<?xml version="1.0" encoding="UTF-8"?>
<svg xmlns="http://www.w3.org/2000/svg"
     xmlns:xlink="http://www.w3.org/1999/xlink"
     xmlns:gadfly="http://www.gadflyjl.org/ns"
     version="1.2"
     width="141.42mm" height="100mm" viewBox="0 0 141.42 100"
     stroke="none"
     fill="#000000"
     stroke-width="0.3"
     font-size="3.88"
>
<g class="plotroot xscalable yscalable" id="img-0b8beae6-1">
  <g font-size="3.88" font-family="'PT Sans','Helvetica Neue','Helvetica',sans-serif" fill="#564A55" stroke="#000000" stroke-opacity="0.000" id="img-0b8beae6-2">
    <g transform="translate(74.56,88.39)">
      <g class="primitive">
        <text text-anchor="middle" dy="0.6em">Parametric bootstrap estimates of σ₁</text>
      </g>
    </g>
  </g>
  <g class="guide xlabels" font-size="2.82" font-family="'PT Sans Caption','Helvetica Neue','Helvetica',sans-serif" fill="#6C606B" id="img-0b8beae6-3">
    <g transform="translate(14.69,81.72)">
      <g class="primitive">
        <text text-anchor="middle" dy="0.6em">-50</text>
      </g>
    </g>
    <g transform="translate(54.6,81.72)">
      <g class="primitive">
        <text text-anchor="middle" dy="0.6em">0</text>
      </g>
    </g>
    <g transform="translate(94.51,81.72)">
      <g class="primitive">
        <text text-anchor="middle" dy="0.6em">50</text>
      </g>
    </g>
    <g transform="translate(134.42,81.72)">
      <g class="primitive">
        <text text-anchor="middle" dy="0.6em">100</text>
      </g>
    </g>
  </g>
  <g clip-path="url(#img-0b8beae6-4)">
    <g id="img-0b8beae6-5">
      <g pointer-events="visible" opacity="1" fill="#000000" fill-opacity="0.000" stroke="#000000" stroke-opacity="0.000" class="guide background" id="img-0b8beae6-6">
        <g transform="translate(74.56,42.86)">
          <path d="M-61.86,-37.86 L 61.86 -37.86 61.86 37.86 -61.86 37.86 z" class="primitive"/>
        </g>
      </g>
      <g class="guide ygridlines xfixed" stroke-dasharray="0.5,0.5" stroke-width="0.2" stroke="#D0D0E0" id="img-0b8beae6-7">
        <g transform="translate(74.56,78.71)">
          <path fill="none" d="M-61.86,0 L 61.86 0" class="primitive"/>
        </g>
        <g transform="translate(74.56,54.81)">
          <path fill="none" d="M-61.86,0 L 61.86 0" class="primitive"/>
        </g>
        <g transform="translate(74.56,30.9)">
          <path fill="none" d="M-61.86,0 L 61.86 0" class="primitive"/>
        </g>
        <g transform="translate(74.56,7)">
          <path fill="none" d="M-61.86,0 L 61.86 0" class="primitive"/>
        </g>
      </g>
      <g class="guide xgridlines yfixed" stroke-dasharray="0.5,0.5" stroke-width="0.2" stroke="#D0D0E0" id="img-0b8beae6-8">
        <g transform="translate(14.69,42.86)">
          <path fill="none" d="M0,-37.86 L 0 37.86" class="primitive"/>
        </g>
        <g transform="translate(54.6,42.86)">
          <path fill="none" d="M0,-37.86 L 0 37.86" class="primitive"/>
        </g>
        <g transform="translate(94.51,42.86)">
          <path fill="none" d="M0,-37.86 L 0 37.86" class="primitive"/>
        </g>
        <g transform="translate(134.42,42.86)">
          <path fill="none" d="M0,-37.86 L 0 37.86" class="primitive"/>
        </g>
      </g>
      <g class="plotpanel" id="img-0b8beae6-9">
        <metadata>
          <boundingbox value="12.693333333333328mm 5.0mm 123.72802290397618mm 75.715mm"/>
          <unitbox value="-52.50567906095472 0.03083664505333612 155.01135812190944 -0.03167329010667225"/>
        </metadata>
        <g stroke-width="0.3" fill="#000000" fill-opacity="0.000" class="geometry" id="img-0b8beae6-10">
          <g class="color_LCHab{Float32}(70.0f0,60.0f0,240.0f0)" stroke-dasharray="none" stroke="#00BFFF" id="img-0b8beae6-11">
            <g transform="translate(92.05,56.1)">
              <path fill="none" d="M-42.03,22.59 L -41.7 22.54 -41.37 22.41 -41.04 22.11 -40.71 21.43 -40.38 20.05 -40.05 17.51 -39.72 13.25 -39.39 6.78 -39.06 -2.05 -38.73 -12.78 -38.4 -24.2 -38.07 -34.45 -37.74 -41.51 -37.41 -43.86 -37.08 -41.01 -36.75 -33.72 -36.42 -23.7 -36.09 -12.98 -35.76 -3.32 -35.43 4.25 -35.1 9.43 -34.77 12.47 -34.44 13.92 -34.11 14.32 -33.79 14.12 -33.46 13.6 -33.13 12.94 -32.8 12.22 -32.47 11.46 -32.14 10.67 -31.81 9.85 -31.48 8.98 -31.15 8.06 -30.82 7.09 -30.49 6.08 -30.16 5.05 -29.83 4.01 -29.5 2.96 -29.17 1.93 -28.84 0.91 -28.51 -0.11 -28.18 -1.15 -27.85 -2.21 -27.52 -3.31 -27.19 -4.43 -26.86 -5.57 -26.53 -6.71 -26.2 -7.83 -25.87 -8.92 -25.54 -9.99 -25.22 -11.06 -24.89 -12.14 -24.56 -13.26 -24.23 -14.42 -23.9 -15.63 -23.57 -16.86 -23.24 -18.09 -22.91 -19.3 -22.58 -20.48 -22.25 -21.62 -21.92 -22.72 -21.59 -23.78 -21.26 -24.8 -20.93 -25.79 -20.6 -26.74 -20.27 -27.67 -19.94 -28.57 -19.61 -29.43 -19.28 -30.25 -18.95 -31.03 -18.62 -31.77 -18.29 -32.47 -17.96 -33.13 -17.63 -33.78 -17.3 -34.39 -16.98 -34.98 -16.65 -35.53 -16.32 -36.03 -15.99 -36.48 -15.66 -36.87 -15.33 -37.21 -15 -37.49 -14.67 -37.72 -14.34 -37.91 -14.01 -38.04 -13.68 -38.14 -13.35 -38.2 -13.02 -38.22 -12.69 -38.21 -12.36 -38.15 -12.03 -38.04 -11.7 -37.89 -11.37 -37.69 -11.04 -37.44 -10.71 -37.17 -10.38 -36.86 -10.05 -36.53 -9.72 -36.16 -9.39 -35.74 -9.06 -35.26 -8.73 -34.71 -8.41 -34.07 -8.08 -33.37 -7.75 -32.61 -7.42 -31.81 -7.09 -30.99 -6.76 -30.18 -6.43 -29.36 -6.1 -28.55 -5.77 -27.73 -5.44 -26.92 -5.11 -26.09 -4.78 -25.26 -4.45 -24.42 -4.12 -23.55 -3.79 -22.65 -3.46 -21.71 -3.13 -20.73 -2.8 -19.71 -2.47 -18.66 -2.14 -17.59 -1.81 -16.5 -1.48 -15.38 -1.15 -14.25 -0.82 -13.1 -0.49 -11.94 -0.16 -10.78 0.16 -9.64 0.49 -8.53 0.82 -7.45 1.15 -6.4 1.48 -5.36 1.81 -4.35 2.14 -3.35 2.47 -2.38 2.8 -1.45 3.13 -0.59 3.46 0.2 3.79 0.93 4.12 1.6 4.45 2.23 4.78 2.85 5.11 3.47 5.44 4.1 5.77 4.74 6.1 5.4 6.43 6.08 6.76 6.77 7.09 7.47 7.42 8.18 7.75 8.89 8.08 9.59 8.41 10.28 8.73 10.95 9.06 11.6 9.39 12.21 9.72 12.78 10.05 13.31 10.38 13.8 10.71 14.24 11.04 14.66 11.37 15.06 11.7 15.45 12.03 15.83 12.36 16.2 12.69 16.57 13.02 16.93 13.35 17.28 13.68 17.62 14.01 17.95 14.34 18.27 14.67 18.57 15 18.84 15.33 19.09 15.66 19.31 15.99 19.49 16.32 19.66 16.65 19.8 16.98 19.94 17.3 20.07 17.63 20.21 17.96 20.36 18.29 20.5 18.62 20.65 18.95 20.8 19.28 20.93 19.61 21.06 19.94 21.19 20.27 21.29 20.6 21.39 20.93 21.48 21.26 21.56 21.59 21.62 21.92 21.68 22.25 21.72 22.58 21.77 22.91 21.8 23.24 21.84 23.57 21.88 23.9 21.92 24.23 21.97 24.56 22.02 24.89 22.07 25.22 22.12 25.54 22.17 25.87 22.21 26.2 22.25 26.53 22.28 26.86 22.31 27.19 22.34 27.52 22.36 27.85 22.38 28.18 22.4 28.51 22.42 28.84 22.44 29.17 22.46 29.5 22.47 29.83 22.48 30.16 22.48 30.49 22.49 30.82 22.49 31.15 22.49 31.48 22.49 31.81 22.49 32.14 22.49 32.47 22.5 32.8 22.5 33.13 22.51 33.46 22.52 33.79 22.53 34.11 22.55 34.44 22.56 34.77 22.57 35.1 22.58 35.43 22.58 35.76 22.59 36.09 22.59 36.42 22.59 36.75 22.59 37.08 22.59 37.41 22.6 37.74 22.6 38.07 22.6 38.4 22.6 38.73 22.61 39.06 22.61 39.39 22.61 39.72 22.61 40.05 22.61 40.38 22.61 40.71 22.61 41.04 22.61 41.37 22.61 41.7 22.61 42.03 22.61" class="primitive"/>
            </g>
          </g>
        </g>
      </g>
    </g>
  </g>
  <g class="guide ylabels" font-size="2.82" font-family="'PT Sans Caption','Helvetica Neue','Helvetica',sans-serif" fill="#6C606B" id="img-0b8beae6-12">
    <g transform="translate(11.69,78.71)">
      <g class="primitive">
        <text text-anchor="end" dy="0.35em">0.00</text>
      </g>
    </g>
    <g transform="translate(11.69,54.81)">
      <g class="primitive">
        <text text-anchor="end" dy="0.35em">0.01</text>
      </g>
    </g>
    <g transform="translate(11.69,30.9)">
      <g class="primitive">
        <text text-anchor="end" dy="0.35em">0.02</text>
      </g>
    </g>
    <g transform="translate(11.69,7)">
      <g class="primitive">
        <text text-anchor="end" dy="0.35em">0.03</text>
      </g>
    </g>
  </g>
</g>
<defs>
  <clipPath id="img-0b8beae6-4">
    <path d="M12.69,5 L 136.42 5 136.42 80.72 12.69 80.72" />
  </clipPath>
</defs>
</svg>
