<?xml version="1.0" encoding="UTF-8"?>
<svg xmlns="http://www.w3.org/2000/svg"
     xmlns:xlink="http://www.w3.org/1999/xlink"
     xmlns:gadfly="http://www.gadflyjl.org/ns"
     version="1.2"
     width="141.42mm" height="100mm" viewBox="0 0 141.42 100"
     stroke="none"
     fill="#000000"
     stroke-width="0.3"
     font-size="3.88"
>
<g class="plotroot xscalable yscalable" id="img-a9748c92-1">
  <g font-size="3.88" font-family="'PT Sans','Helvetica Neue','Helvetica',sans-serif" fill="#564A55" stroke="#000000" stroke-opacity="0.000" id="img-a9748c92-2">
    <g transform="translate(77.77,88.39)">
      <g class="primitive">
        <text text-anchor="middle" dy="0.6em">Parametric bootstrap estimates of σ₁</text>
      </g>
    </g>
  </g>
  <g class="guide xlabels" font-size="2.82" font-family="'PT Sans Caption','Helvetica Neue','Helvetica',sans-serif" fill="#6C606B" id="img-a9748c92-3">
    <g transform="translate(21.11,81.71)">
      <g class="primitive">
        <text text-anchor="middle" dy="0.6em">0</text>
      </g>
    </g>
    <g transform="translate(77.77,81.71)">
      <g class="primitive">
        <text text-anchor="middle" dy="0.6em">50</text>
      </g>
    </g>
    <g transform="translate(134.42,81.71)">
      <g class="primitive">
        <text text-anchor="middle" dy="0.6em">100</text>
      </g>
    </g>
  </g>
  <g clip-path="url(#img-a9748c92-4)">
    <g id="img-a9748c92-5">
      <g pointer-events="visible" opacity="1" fill="#000000" fill-opacity="0.000" stroke="#000000" stroke-opacity="0.000" class="guide background" id="img-a9748c92-6">
        <g transform="translate(77.77,42.86)">
          <path d="M-58.65,-37.86 L 58.65 -37.86 58.65 37.86 -58.65 37.86 z" class="primitive"/>
        </g>
      </g>
      <g class="guide ygridlines xfixed" stroke-dasharray="0.5,0.5" stroke-width="0.2" stroke="#D0D0E0" id="img-a9748c92-7">
        <g transform="translate(77.77,78.71)">
          <path fill="none" d="M-58.65,0 L 58.65 0" class="primitive"/>
        </g>
        <g transform="translate(77.77,42.86)">
          <path fill="none" d="M-58.65,0 L 58.65 0" class="primitive"/>
        </g>
        <g transform="translate(77.77,7)">
          <path fill="none" d="M-58.65,0 L 58.65 0" class="primitive"/>
        </g>
      </g>
      <g class="guide xgridlines yfixed" stroke-dasharray="0.5,0.5" stroke-width="0.2" stroke="#D0D0E0" id="img-a9748c92-8">
        <g transform="translate(21.11,42.86)">
          <path fill="none" d="M0,-37.86 L 0 37.86" class="primitive"/>
        </g>
        <g transform="translate(77.77,42.86)">
          <path fill="none" d="M0,-37.86 L 0 37.86" class="primitive"/>
        </g>
        <g transform="translate(134.42,42.86)">
          <path fill="none" d="M0,-37.86 L 0 37.86" class="primitive"/>
        </g>
      </g>
      <g class="plotpanel" id="img-a9748c92-9">
        <metadata>
          <boundingbox value="19.11333333333333mm 5.0mm 117.30802290397618mm 75.71499999999999mm"/>
          <unitbox value="-1.7651000774189807 10278.881684445374 103.53020015483796 -10557.76336889075"/>
        </metadata>
        <g shape-rendering="crispEdges" stroke-width="0.3" id="img-a9748c92-10">
          <g stroke="#000000" stroke-opacity="0.000" class="geometry" fill="#00BFFF" id="img-a9748c92-11">
            <g transform="translate(21.47,43.22)">
              <path d="M-0.38,-35.5 L 0.38 -35.5 0.38 35.5 -0.38 35.5 z" class="primitive"/>
            </g>
            <g transform="translate(22.18,78.58)">
              <path d="M-0.38,-0.14 L 0.38 -0.14 0.38 0.14 -0.38 0.14 z" class="primitive"/>
            </g>
            <g transform="translate(22.89,78.45)">
              <path d="M-0.38,-0.26 L 0.38 -0.26 0.38 0.26 -0.38 0.26 z" class="primitive"/>
            </g>
            <g transform="translate(23.59,78.36)">
              <path d="M-0.38,-0.36 L 0.38 -0.36 0.38 0.36 -0.38 0.36 z" class="primitive"/>
            </g>
            <g transform="translate(24.3,78.32)">
              <path d="M-0.38,-0.39 L 0.38 -0.39 0.38 0.39 -0.38 0.39 z" class="primitive"/>
            </g>
            <g transform="translate(25.01,78.14)">
              <path d="M-0.38,-0.57 L 0.38 -0.57 0.38 0.57 -0.38 0.57 z" class="primitive"/>
            </g>
            <g transform="translate(25.72,78.07)">
              <path d="M-0.38,-0.64 L 0.38 -0.64 0.38 0.64 -0.38 0.64 z" class="primitive"/>
            </g>
            <g transform="translate(26.43,77.88)">
              <path d="M-0.38,-0.84 L 0.38 -0.84 0.38 0.84 -0.38 0.84 z" class="primitive"/>
            </g>
            <g transform="translate(27.14,77.81)">
              <path d="M-0.38,-0.9 L 0.38 -0.9 0.38 0.9 -0.38 0.9 z" class="primitive"/>
            </g>
            <g transform="translate(27.85,77.76)">
              <path d="M-0.38,-0.95 L 0.38 -0.95 0.38 0.95 -0.38 0.95 z" class="primitive"/>
            </g>
            <g transform="translate(28.56,77.67)">
              <path d="M-0.38,-1.04 L 0.38 -1.04 0.38 1.04 -0.38 1.04 z" class="primitive"/>
            </g>
            <g transform="translate(29.27,77.47)">
              <path d="M-0.38,-1.24 L 0.38 -1.24 0.38 1.24 -0.38 1.24 z" class="primitive"/>
            </g>
            <g transform="translate(29.97,77.44)">
              <path d="M-0.38,-1.28 L 0.38 -1.28 0.38 1.28 -0.38 1.28 z" class="primitive"/>
            </g>
            <g transform="translate(30.68,77.26)">
              <path d="M-0.38,-1.45 L 0.38 -1.45 0.38 1.45 -0.38 1.45 z" class="primitive"/>
            </g>
            <g transform="translate(31.39,77.11)">
              <path d="M-0.38,-1.61 L 0.38 -1.61 0.38 1.61 -0.38 1.61 z" class="primitive"/>
            </g>
            <g transform="translate(32.1,76.88)">
              <path d="M-0.38,-1.83 L 0.38 -1.83 0.38 1.83 -0.38 1.83 z" class="primitive"/>
            </g>
            <g transform="translate(32.81,76.71)">
              <path d="M-0.38,-2 L 0.38 -2 0.38 2 -0.38 2 z" class="primitive"/>
            </g>
            <g transform="translate(33.52,76.64)">
              <path d="M-0.38,-2.08 L 0.38 -2.08 0.38 2.08 -0.38 2.08 z" class="primitive"/>
            </g>
            <g transform="translate(34.23,76.57)">
              <path d="M-0.38,-2.15 L 0.38 -2.15 0.38 2.15 -0.38 2.15 z" class="primitive"/>
            </g>
            <g transform="translate(34.94,76.36)">
              <path d="M-0.38,-2.36 L 0.38 -2.36 0.38 2.36 -0.38 2.36 z" class="primitive"/>
            </g>
            <g transform="translate(35.64,76.27)">
              <path d="M-0.38,-2.45 L 0.38 -2.45 0.38 2.45 -0.38 2.45 z" class="primitive"/>
            </g>
            <g transform="translate(36.35,76.08)">
              <path d="M-0.38,-2.64 L 0.38 -2.64 0.38 2.64 -0.38 2.64 z" class="primitive"/>
            </g>
            <g transform="translate(37.06,75.68)">
              <path d="M-0.38,-3.04 L 0.38 -3.04 0.38 3.04 -0.38 3.04 z" class="primitive"/>
            </g>
            <g transform="translate(37.77,75.74)">
              <path d="M-0.38,-2.98 L 0.38 -2.98 0.38 2.98 -0.38 2.98 z" class="primitive"/>
            </g>
            <g transform="translate(38.48,75.49)">
              <path d="M-0.38,-3.22 L 0.38 -3.22 0.38 3.22 -0.38 3.22 z" class="primitive"/>
            </g>
            <g transform="translate(39.19,75.6)">
              <path d="M-0.38,-3.11 L 0.38 -3.11 0.38 3.11 -0.38 3.11 z" class="primitive"/>
            </g>
            <g transform="translate(39.9,75.2)">
              <path d="M-0.38,-3.52 L 0.38 -3.52 0.38 3.52 -0.38 3.52 z" class="primitive"/>
            </g>
            <g transform="translate(40.61,75.1)">
              <path d="M-0.38,-3.61 L 0.38 -3.61 0.38 3.61 -0.38 3.61 z" class="primitive"/>
            </g>
            <g transform="translate(41.32,74.79)">
              <path d="M-0.38,-3.92 L 0.38 -3.92 0.38 3.92 -0.38 3.92 z" class="primitive"/>
            </g>
            <g transform="translate(42.02,74.63)">
              <path d="M-0.38,-4.09 L 0.38 -4.09 0.38 4.09 -0.38 4.09 z" class="primitive"/>
            </g>
            <g transform="translate(42.73,74.75)">
              <path d="M-0.38,-3.96 L 0.38 -3.96 0.38 3.96 -0.38 3.96 z" class="primitive"/>
            </g>
            <g transform="translate(43.44,74.21)">
              <path d="M-0.38,-4.51 L 0.38 -4.51 0.38 4.51 -0.38 4.51 z" class="primitive"/>
            </g>
            <g transform="translate(44.15,74.36)">
              <path d="M-0.38,-4.35 L 0.38 -4.35 0.38 4.35 -0.38 4.35 z" class="primitive"/>
            </g>
            <g transform="translate(44.86,73.91)">
              <path d="M-0.38,-4.81 L 0.38 -4.81 0.38 4.81 -0.38 4.81 z" class="primitive"/>
            </g>
            <g transform="translate(45.57,74)">
              <path d="M-0.38,-4.72 L 0.38 -4.72 0.38 4.72 -0.38 4.72 z" class="primitive"/>
            </g>
            <g transform="translate(46.28,73.95)">
              <path d="M-0.38,-4.76 L 0.38 -4.76 0.38 4.76 -0.38 4.76 z" class="primitive"/>
            </g>
            <g transform="translate(46.99,73.67)">
              <path d="M-0.38,-5.04 L 0.38 -5.04 0.38 5.04 -0.38 5.04 z" class="primitive"/>
            </g>
            <g transform="translate(47.7,73.67)">
              <path d="M-0.38,-5.05 L 0.38 -5.05 0.38 5.05 -0.38 5.05 z" class="primitive"/>
            </g>
            <g transform="translate(48.4,73.36)">
              <path d="M-0.38,-5.35 L 0.38 -5.35 0.38 5.35 -0.38 5.35 z" class="primitive"/>
            </g>
            <g transform="translate(49.11,73.59)">
              <path d="M-0.38,-5.12 L 0.38 -5.12 0.38 5.12 -0.38 5.12 z" class="primitive"/>
            </g>
            <g transform="translate(49.82,73.35)">
              <path d="M-0.38,-5.36 L 0.38 -5.36 0.38 5.36 -0.38 5.36 z" class="primitive"/>
            </g>
            <g transform="translate(50.53,73.11)">
              <path d="M-0.38,-5.6 L 0.38 -5.6 0.38 5.6 -0.38 5.6 z" class="primitive"/>
            </g>
            <g transform="translate(51.24,73.16)">
              <path d="M-0.38,-5.55 L 0.38 -5.55 0.38 5.55 -0.38 5.55 z" class="primitive"/>
            </g>
            <g transform="translate(51.95,73.19)">
              <path d="M-0.38,-5.52 L 0.38 -5.52 0.38 5.52 -0.38 5.52 z" class="primitive"/>
            </g>
            <g transform="translate(52.66,73.11)">
              <path d="M-0.38,-5.6 L 0.38 -5.6 0.38 5.6 -0.38 5.6 z" class="primitive"/>
            </g>
            <g transform="translate(53.37,72.9)">
              <path d="M-0.38,-5.82 L 0.38 -5.82 0.38 5.82 -0.38 5.82 z" class="primitive"/>
            </g>
            <g transform="translate(54.07,73.11)">
              <path d="M-0.38,-5.6 L 0.38 -5.6 0.38 5.6 -0.38 5.6 z" class="primitive"/>
            </g>
            <g transform="translate(54.78,72.92)">
              <path d="M-0.38,-5.8 L 0.38 -5.8 0.38 5.8 -0.38 5.8 z" class="primitive"/>
            </g>
            <g transform="translate(55.49,73.02)">
              <path d="M-0.38,-5.7 L 0.38 -5.7 0.38 5.7 -0.38 5.7 z" class="primitive"/>
            </g>
            <g transform="translate(56.2,72.99)">
              <path d="M-0.38,-5.72 L 0.38 -5.72 0.38 5.72 -0.38 5.72 z" class="primitive"/>
            </g>
            <g transform="translate(56.91,72.97)">
              <path d="M-0.38,-5.74 L 0.38 -5.74 0.38 5.74 -0.38 5.74 z" class="primitive"/>
            </g>
            <g transform="translate(57.62,73.05)">
              <path d="M-0.38,-5.66 L 0.38 -5.66 0.38 5.66 -0.38 5.66 z" class="primitive"/>
            </g>
            <g transform="translate(58.33,73.01)">
              <path d="M-0.38,-5.7 L 0.38 -5.7 0.38 5.7 -0.38 5.7 z" class="primitive"/>
            </g>
            <g transform="translate(59.04,73.04)">
              <path d="M-0.38,-5.68 L 0.38 -5.68 0.38 5.68 -0.38 5.68 z" class="primitive"/>
            </g>
            <g transform="translate(59.75,73.09)">
              <path d="M-0.38,-5.62 L 0.38 -5.62 0.38 5.62 -0.38 5.62 z" class="primitive"/>
            </g>
            <g transform="translate(60.45,73.39)">
              <path d="M-0.38,-5.32 L 0.38 -5.32 0.38 5.32 -0.38 5.32 z" class="primitive"/>
            </g>
            <g transform="translate(61.16,73.15)">
              <path d="M-0.38,-5.56 L 0.38 -5.56 0.38 5.56 -0.38 5.56 z" class="primitive"/>
            </g>
            <g transform="translate(61.87,73.11)">
              <path d="M-0.38,-5.6 L 0.38 -5.6 0.38 5.6 -0.38 5.6 z" class="primitive"/>
            </g>
            <g transform="translate(62.58,73.53)">
              <path d="M-0.38,-5.19 L 0.38 -5.19 0.38 5.19 -0.38 5.19 z" class="primitive"/>
            </g>
            <g transform="translate(63.29,73.49)">
              <path d="M-0.38,-5.23 L 0.38 -5.23 0.38 5.23 -0.38 5.23 z" class="primitive"/>
            </g>
            <g transform="translate(64,73.67)">
              <path d="M-0.38,-5.05 L 0.38 -5.05 0.38 5.05 -0.38 5.05 z" class="primitive"/>
            </g>
            <g transform="translate(64.71,73.78)">
              <path d="M-0.38,-4.93 L 0.38 -4.93 0.38 4.93 -0.38 4.93 z" class="primitive"/>
            </g>
            <g transform="translate(65.42,73.88)">
              <path d="M-0.38,-4.83 L 0.38 -4.83 0.38 4.83 -0.38 4.83 z" class="primitive"/>
            </g>
            <g transform="translate(66.13,73.93)">
              <path d="M-0.38,-4.78 L 0.38 -4.78 0.38 4.78 -0.38 4.78 z" class="primitive"/>
            </g>
            <g transform="translate(66.83,74.12)">
              <path d="M-0.38,-4.59 L 0.38 -4.59 0.38 4.59 -0.38 4.59 z" class="primitive"/>
            </g>
            <g transform="translate(67.54,74.3)">
              <path d="M-0.38,-4.41 L 0.38 -4.41 0.38 4.41 -0.38 4.41 z" class="primitive"/>
            </g>
            <g transform="translate(68.25,74.35)">
              <path d="M-0.38,-4.37 L 0.38 -4.37 0.38 4.37 -0.38 4.37 z" class="primitive"/>
            </g>
            <g transform="translate(68.96,74.36)">
              <path d="M-0.38,-4.36 L 0.38 -4.36 0.38 4.36 -0.38 4.36 z" class="primitive"/>
            </g>
            <g transform="translate(69.67,74.6)">
              <path d="M-0.38,-4.11 L 0.38 -4.11 0.38 4.11 -0.38 4.11 z" class="primitive"/>
            </g>
            <g transform="translate(70.38,74.73)">
              <path d="M-0.38,-3.99 L 0.38 -3.99 0.38 3.99 -0.38 3.99 z" class="primitive"/>
            </g>
            <g transform="translate(71.09,74.96)">
              <path d="M-0.38,-3.75 L 0.38 -3.75 0.38 3.75 -0.38 3.75 z" class="primitive"/>
            </g>
            <g transform="translate(71.8,75.09)">
              <path d="M-0.38,-3.63 L 0.38 -3.63 0.38 3.63 -0.38 3.63 z" class="primitive"/>
            </g>
            <g transform="translate(72.5,75.17)">
              <path d="M-0.38,-3.55 L 0.38 -3.55 0.38 3.55 -0.38 3.55 z" class="primitive"/>
            </g>
            <g transform="translate(73.21,75.35)">
              <path d="M-0.38,-3.36 L 0.38 -3.36 0.38 3.36 -0.38 3.36 z" class="primitive"/>
            </g>
            <g transform="translate(73.92,75.49)">
              <path d="M-0.38,-3.22 L 0.38 -3.22 0.38 3.22 -0.38 3.22 z" class="primitive"/>
            </g>
            <g transform="translate(74.63,75.86)">
              <path d="M-0.38,-2.85 L 0.38 -2.85 0.38 2.85 -0.38 2.85 z" class="primitive"/>
            </g>
            <g transform="translate(75.34,75.88)">
              <path d="M-0.38,-2.84 L 0.38 -2.84 0.38 2.84 -0.38 2.84 z" class="primitive"/>
            </g>
            <g transform="translate(76.05,75.99)">
              <path d="M-0.38,-2.73 L 0.38 -2.73 0.38 2.73 -0.38 2.73 z" class="primitive"/>
            </g>
            <g transform="translate(76.76,76.14)">
              <path d="M-0.38,-2.57 L 0.38 -2.57 0.38 2.57 -0.38 2.57 z" class="primitive"/>
            </g>
            <g transform="translate(77.47,76.32)">
              <path d="M-0.38,-2.4 L 0.38 -2.4 0.38 2.4 -0.38 2.4 z" class="primitive"/>
            </g>
            <g transform="translate(78.18,76.44)">
              <path d="M-0.38,-2.27 L 0.38 -2.27 0.38 2.27 -0.38 2.27 z" class="primitive"/>
            </g>
            <g transform="translate(78.88,76.72)">
              <path d="M-0.38,-1.99 L 0.38 -1.99 0.38 1.99 -0.38 1.99 z" class="primitive"/>
            </g>
            <g transform="translate(79.59,76.75)">
              <path d="M-0.38,-1.97 L 0.38 -1.97 0.38 1.97 -0.38 1.97 z" class="primitive"/>
            </g>
            <g transform="translate(80.3,76.7)">
              <path d="M-0.38,-2.02 L 0.38 -2.02 0.38 2.02 -0.38 2.02 z" class="primitive"/>
            </g>
            <g transform="translate(81.01,76.84)">
              <path d="M-0.38,-1.88 L 0.38 -1.88 0.38 1.88 -0.38 1.88 z" class="primitive"/>
            </g>
            <g transform="translate(81.72,76.96)">
              <path d="M-0.38,-1.75 L 0.38 -1.75 0.38 1.75 -0.38 1.75 z" class="primitive"/>
            </g>
            <g transform="translate(82.43,76.97)">
              <path d="M-0.38,-1.75 L 0.38 -1.75 0.38 1.75 -0.38 1.75 z" class="primitive"/>
            </g>
            <g transform="translate(83.14,77.22)">
              <path d="M-0.38,-1.49 L 0.38 -1.49 0.38 1.49 -0.38 1.49 z" class="primitive"/>
            </g>
            <g transform="translate(83.85,77.14)">
              <path d="M-0.38,-1.57 L 0.38 -1.57 0.38 1.57 -0.38 1.57 z" class="primitive"/>
            </g>
            <g transform="translate(84.56,77.26)">
              <path d="M-0.38,-1.46 L 0.38 -1.46 0.38 1.46 -0.38 1.46 z" class="primitive"/>
            </g>
            <g transform="translate(85.26,77.49)">
              <path d="M-0.38,-1.22 L 0.38 -1.22 0.38 1.22 -0.38 1.22 z" class="primitive"/>
            </g>
            <g transform="translate(85.97,77.58)">
              <path d="M-0.38,-1.14 L 0.38 -1.14 0.38 1.14 -0.38 1.14 z" class="primitive"/>
            </g>
            <g transform="translate(86.68,77.59)">
              <path d="M-0.38,-1.13 L 0.38 -1.13 0.38 1.13 -0.38 1.13 z" class="primitive"/>
            </g>
            <g transform="translate(87.39,77.76)">
              <path d="M-0.38,-0.96 L 0.38 -0.96 0.38 0.96 -0.38 0.96 z" class="primitive"/>
            </g>
            <g transform="translate(88.1,77.79)">
              <path d="M-0.38,-0.93 L 0.38 -0.93 0.38 0.93 -0.38 0.93 z" class="primitive"/>
            </g>
            <g transform="translate(88.81,77.97)">
              <path d="M-0.38,-0.75 L 0.38 -0.75 0.38 0.75 -0.38 0.75 z" class="primitive"/>
            </g>
            <g transform="translate(89.52,77.91)">
              <path d="M-0.38,-0.81 L 0.38 -0.81 0.38 0.81 -0.38 0.81 z" class="primitive"/>
            </g>
            <g transform="translate(90.23,77.99)">
              <path d="M-0.38,-0.73 L 0.38 -0.73 0.38 0.73 -0.38 0.73 z" class="primitive"/>
            </g>
            <g transform="translate(90.93,78.04)">
              <path d="M-0.38,-0.67 L 0.38 -0.67 0.38 0.67 -0.38 0.67 z" class="primitive"/>
            </g>
            <g transform="translate(91.64,78.11)">
              <path d="M-0.38,-0.61 L 0.38 -0.61 0.38 0.61 -0.38 0.61 z" class="primitive"/>
            </g>
            <g transform="translate(92.35,78.18)">
              <path d="M-0.38,-0.53 L 0.38 -0.53 0.38 0.53 -0.38 0.53 z" class="primitive"/>
            </g>
            <g transform="translate(93.06,78.19)">
              <path d="M-0.38,-0.52 L 0.38 -0.52 0.38 0.52 -0.38 0.52 z" class="primitive"/>
            </g>
            <g transform="translate(93.77,78.25)">
              <path d="M-0.38,-0.47 L 0.38 -0.47 0.38 0.47 -0.38 0.47 z" class="primitive"/>
            </g>
            <g transform="translate(94.48,78.3)">
              <path d="M-0.38,-0.42 L 0.38 -0.42 0.38 0.42 -0.38 0.42 z" class="primitive"/>
            </g>
            <g transform="translate(95.19,78.37)">
              <path d="M-0.38,-0.34 L 0.38 -0.34 0.38 0.34 -0.38 0.34 z" class="primitive"/>
            </g>
            <g transform="translate(95.9,78.38)">
              <path d="M-0.38,-0.33 L 0.38 -0.33 0.38 0.33 -0.38 0.33 z" class="primitive"/>
            </g>
            <g transform="translate(96.61,78.44)">
              <path d="M-0.38,-0.28 L 0.38 -0.28 0.38 0.28 -0.38 0.28 z" class="primitive"/>
            </g>
            <g transform="translate(97.31,78.45)">
              <path d="M-0.38,-0.27 L 0.38 -0.27 0.38 0.27 -0.38 0.27 z" class="primitive"/>
            </g>
            <g transform="translate(98.02,78.49)">
              <path d="M-0.38,-0.23 L 0.38 -0.23 0.38 0.23 -0.38 0.23 z" class="primitive"/>
            </g>
            <g transform="translate(98.73,78.43)">
              <path d="M-0.38,-0.29 L 0.38 -0.29 0.38 0.29 -0.38 0.29 z" class="primitive"/>
            </g>
            <g transform="translate(99.44,78.49)">
              <path d="M-0.38,-0.23 L 0.38 -0.23 0.38 0.23 -0.38 0.23 z" class="primitive"/>
            </g>
            <g transform="translate(100.15,78.54)">
              <path d="M-0.38,-0.17 L 0.38 -0.17 0.38 0.17 -0.38 0.17 z" class="primitive"/>
            </g>
            <g transform="translate(100.86,78.51)">
              <path d="M-0.38,-0.21 L 0.38 -0.21 0.38 0.21 -0.38 0.21 z" class="primitive"/>
            </g>
            <g transform="translate(101.57,78.56)">
              <path d="M-0.38,-0.15 L 0.38 -0.15 0.38 0.15 -0.38 0.15 z" class="primitive"/>
            </g>
            <g transform="translate(102.28,78.59)">
              <path d="M-0.38,-0.12 L 0.38 -0.12 0.38 0.12 -0.38 0.12 z" class="primitive"/>
            </g>
            <g transform="translate(102.99,78.61)">
              <path d="M-0.38,-0.1 L 0.38 -0.1 0.38 0.1 -0.38 0.1 z" class="primitive"/>
            </g>
            <g transform="translate(103.69,78.57)">
              <path d="M-0.38,-0.14 L 0.38 -0.14 0.38 0.14 -0.38 0.14 z" class="primitive"/>
            </g>
            <g transform="translate(104.4,78.64)">
              <path d="M-0.38,-0.08 L 0.38 -0.08 0.38 0.08 -0.38 0.08 z" class="primitive"/>
            </g>
            <g transform="translate(105.11,78.63)">
              <path d="M-0.38,-0.08 L 0.38 -0.08 0.38 0.08 -0.38 0.08 z" class="primitive"/>
            </g>
            <g transform="translate(105.82,78.65)">
              <path d="M-0.38,-0.06 L 0.38 -0.06 0.38 0.06 -0.38 0.06 z" class="primitive"/>
            </g>
            <g transform="translate(106.53,78.64)">
              <path d="M-0.38,-0.08 L 0.38 -0.08 0.38 0.08 -0.38 0.08 z" class="primitive"/>
            </g>
            <g transform="translate(107.24,78.62)">
              <path d="M-0.38,-0.09 L 0.38 -0.09 0.38 0.09 -0.38 0.09 z" class="primitive"/>
            </g>
            <g transform="translate(107.95,78.65)">
              <path d="M-0.38,-0.07 L 0.38 -0.07 0.38 0.07 -0.38 0.07 z" class="primitive"/>
            </g>
            <g transform="translate(108.66,78.65)">
              <path d="M-0.38,-0.07 L 0.38 -0.07 0.38 0.07 -0.38 0.07 z" class="primitive"/>
            </g>
            <g transform="translate(109.36,78.68)">
              <path d="M-0.38,-0.04 L 0.38 -0.04 0.38 0.04 -0.38 0.04 z" class="primitive"/>
            </g>
            <g transform="translate(110.07,78.66)">
              <path d="M-0.38,-0.05 L 0.38 -0.05 0.38 0.05 -0.38 0.05 z" class="primitive"/>
            </g>
            <g transform="translate(110.78,78.69)">
              <path d="M-0.38,-0.03 L 0.38 -0.03 0.38 0.03 -0.38 0.03 z" class="primitive"/>
            </g>
            <g transform="translate(111.49,78.69)">
              <path d="M-0.38,-0.03 L 0.38 -0.03 0.38 0.03 -0.38 0.03 z" class="primitive"/>
            </g>
            <g transform="translate(112.2,78.68)">
              <path d="M-0.38,-0.04 L 0.38 -0.04 0.38 0.04 -0.38 0.04 z" class="primitive"/>
            </g>
            <g transform="translate(112.91,78.69)">
              <path d="M-0.38,-0.03 L 0.38 -0.03 0.38 0.03 -0.38 0.03 z" class="primitive"/>
            </g>
            <g transform="translate(113.62,78.69)">
              <path d="M-0.38,-0.02 L 0.38 -0.02 0.38 0.02 -0.38 0.02 z" class="primitive"/>
            </g>
            <g transform="translate(114.33,78.7)">
              <path d="M-0.38,-0.02 L 0.38 -0.02 0.38 0.02 -0.38 0.02 z" class="primitive"/>
            </g>
            <g transform="translate(115.04,78.69)">
              <path d="M-0.38,-0.02 L 0.38 -0.02 0.38 0.02 -0.38 0.02 z" class="primitive"/>
            </g>
            <g transform="translate(115.74,78.71)">
              <path d="M-0.38,-0 L 0.38 -0 0.38 0 -0.38 0 z" class="primitive"/>
            </g>
            <g transform="translate(116.45,78.7)">
              <path d="M-0.38,-0.02 L 0.38 -0.02 0.38 0.02 -0.38 0.02 z" class="primitive"/>
            </g>
            <g transform="translate(117.16,78.71)">
              <path d="M-0.38,-0 L 0.38 -0 0.38 0 -0.38 0 z" class="primitive"/>
            </g>
            <g transform="translate(117.87,78.7)">
              <path d="M-0.38,-0.01 L 0.38 -0.01 0.38 0.01 -0.38 0.01 z" class="primitive"/>
            </g>
            <g transform="translate(118.58,78.7)">
              <path d="M-0.38,-0.01 L 0.38 -0.01 0.38 0.01 -0.38 0.01 z" class="primitive"/>
            </g>
            <g transform="translate(119.29,78.71)">
              <path d="M-0.38,-0.01 L 0.38 -0.01 0.38 0.01 -0.38 0.01 z" class="primitive"/>
            </g>
            <g transform="translate(120,78.7)">
              <path d="M-0.38,-0.01 L 0.38 -0.01 0.38 0.01 -0.38 0.01 z" class="primitive"/>
            </g>
            <g transform="translate(120.71,78.7)">
              <path d="M-0.38,-0.02 L 0.38 -0.02 0.38 0.02 -0.38 0.02 z" class="primitive"/>
            </g>
            <g transform="translate(121.42,78.71)">
              <path d="M-0.38,-0.01 L 0.38 -0.01 0.38 0.01 -0.38 0.01 z" class="primitive"/>
            </g>
            <g transform="translate(122.12,78.7)">
              <path d="M-0.38,-0.01 L 0.38 -0.01 0.38 0.01 -0.38 0.01 z" class="primitive"/>
            </g>
            <g transform="translate(122.83,78.71)">
              <path d="M-0.38,-0 L 0.38 -0 0.38 0 -0.38 0 z" class="primitive"/>
            </g>
            <g transform="translate(123.54,78.71)">
              <path d="M-0.38,-0 L 0.38 -0 0.38 0 -0.38 0 z" class="primitive"/>
            </g>
            <g transform="translate(124.25,78.72)">
              <path d="M-0.38,-0 L 0.38 -0 0.38 0 -0.38 0 z" class="primitive"/>
            </g>
            <g transform="translate(124.96,78.72)">
              <path d="M-0.38,-0 L 0.38 -0 0.38 0 -0.38 0 z" class="primitive"/>
            </g>
            <g transform="translate(125.67,78.72)">
              <path d="M-0.38,-0 L 0.38 -0 0.38 0 -0.38 0 z" class="primitive"/>
            </g>
            <g transform="translate(126.38,78.71)">
              <path d="M-0.38,-0.01 L 0.38 -0.01 0.38 0.01 -0.38 0.01 z" class="primitive"/>
            </g>
            <g transform="translate(127.09,78.71)">
              <path d="M-0.38,-0 L 0.38 -0 0.38 0 -0.38 0 z" class="primitive"/>
            </g>
          </g>
        </g>
      </g>
    </g>
  </g>
  <g class="guide ylabels" font-size="2.82" font-family="'PT Sans Caption','Helvetica Neue','Helvetica',sans-serif" fill="#6C606B" id="img-a9748c92-12">
    <g transform="translate(18.11,78.71)">
      <g class="primitive">
        <text text-anchor="end" dy="0.35em">0</text>
      </g>
    </g>
    <g transform="translate(18.11,42.86)">
      <g class="primitive">
        <text text-anchor="end" dy="0.35em">5.0×10³</text>
      </g>
    </g>
    <g transform="translate(18.11,7)">
      <g class="primitive">
        <text text-anchor="end" dy="0.35em">1.0×10⁴</text>
      </g>
    </g>
  </g>
</g>
<defs>
  <clipPath id="img-a9748c92-4">
    <path d="M19.11,5 L 136.42 5 136.42 80.71 19.11 80.71" />
  </clipPath>
</defs>
</svg>
