<?xml version="1.0" encoding="UTF-8"?>
<svg xmlns="http://www.w3.org/2000/svg"
     xmlns:xlink="http://www.w3.org/1999/xlink"
     xmlns:gadfly="http://www.gadflyjl.org/ns"
     version="1.2"
     width="141.42mm" height="100mm" viewBox="0 0 141.42 100"
     stroke="none"
     fill="#000000"
     stroke-width="0.3"
     font-size="3.88"
>
<g class="plotroot xscalable yscalable" id="img-12672be5-1">
  <g font-size="3.88" font-family="'PT Sans','Helvetica Neue','Helvetica',sans-serif" fill="#564A55" stroke="#000000" stroke-opacity="0.000" id="img-12672be5-2">
    <g transform="translate(77.19,88.39)">
      <g class="primitive">
        <text text-anchor="middle" dy="0.6em">Scaled and shifted u₁</text>
      </g>
    </g>
  </g>
  <g class="guide xlabels" font-size="2.82" font-family="'PT Sans Caption','Helvetica Neue','Helvetica',sans-serif" fill="#6C606B" id="img-12672be5-3">
    <g transform="translate(19.96,81.72)">
      <g class="primitive">
        <text text-anchor="middle" dy="0.6em">-5</text>
      </g>
    </g>
    <g transform="translate(77.19,81.72)">
      <g class="primitive">
        <text text-anchor="middle" dy="0.6em">0</text>
      </g>
    </g>
    <g transform="translate(134.42,81.72)">
      <g class="primitive">
        <text text-anchor="middle" dy="0.6em">5</text>
      </g>
    </g>
  </g>
  <g clip-path="url(#img-12672be5-4)">
    <g id="img-12672be5-5">
      <g pointer-events="visible" opacity="1" fill="#000000" fill-opacity="0.000" stroke="#000000" stroke-opacity="0.000" class="guide background" id="img-12672be5-6">
        <g transform="translate(77.19,42.86)">
          <path d="M-59.23,-37.86 L 59.23 -37.86 59.23 37.86 -59.23 37.86 z" class="primitive"/>
        </g>
      </g>
      <g class="guide ygridlines xfixed" stroke-dasharray="0.5,0.5" stroke-width="0.2" stroke="#D0D0E0" id="img-12672be5-7">
        <g transform="translate(77.19,78.72)">
          <path fill="none" d="M-59.23,0 L 59.23 0" class="primitive"/>
        </g>
        <g transform="translate(77.19,54.81)">
          <path fill="none" d="M-59.23,0 L 59.23 0" class="primitive"/>
        </g>
        <g transform="translate(77.19,30.91)">
          <path fill="none" d="M-59.23,0 L 59.23 0" class="primitive"/>
        </g>
        <g transform="translate(77.19,7)">
          <path fill="none" d="M-59.23,0 L 59.23 0" class="primitive"/>
        </g>
      </g>
      <g class="guide xgridlines yfixed" stroke-dasharray="0.5,0.5" stroke-width="0.2" stroke="#D0D0E0" id="img-12672be5-8">
        <g transform="translate(19.96,42.86)">
          <path fill="none" d="M0,-37.86 L 0 37.86" class="primitive"/>
        </g>
        <g transform="translate(77.19,42.86)">
          <path fill="none" d="M0,-37.86 L 0 37.86" class="primitive"/>
        </g>
        <g transform="translate(134.42,42.86)">
          <path fill="none" d="M0,-37.86 L 0 37.86" class="primitive"/>
        </g>
      </g>
      <g class="plotpanel" id="img-12672be5-9">
        <metadata>
          <boundingbox value="17.958333333333343mm 5.0mm 118.46302290397617mm 75.715mm"/>
          <unitbox value="-5.174728916750505 30.836645053336124 10.34945783350101 -31.673290106672248"/>
        </metadata>
        <g stroke-width="0.3" fill="#000000" fill-opacity="0.000" class="geometry" id="img-12672be5-10">
          <g class="color_LCHab{Float32}(70.0f0,60.0f0,240.0f0)" stroke-dasharray="none" stroke="#00BFFF" id="img-12672be5-11">
            <g transform="translate(77.19,58.72)">
              <path fill="none" d="M-57.23,-33.23 L -56.52 -31.99 -55.8 -30.76 -55.09 -29.55 -54.37 -28.35 -53.65 -27.16 -52.94 -25.98 -52.22 -24.82 -51.51 -23.67 -50.79 -22.53 -50.08 -21.41 -49.36 -20.3 -48.65 -19.2 -47.93 -18.11 -47.22 -17.04 -46.5 -15.98 -45.79 -14.94 -45.07 -13.91 -44.35 -12.89 -43.64 -11.89 -42.92 -10.9 -42.21 -9.92 -41.49 -8.96 -40.78 -8.02 -40.06 -7.08 -39.35 -6.16 -38.63 -5.26 -37.92 -4.37 -37.2 -3.5 -36.49 -2.63 -35.77 -1.79 -35.05 -0.96 -34.34 -0.14 -33.62 0.66 -32.91 1.45 -32.19 2.22 -31.48 2.97 -30.76 3.71 -30.05 4.44 -29.33 5.15 -28.62 5.84 -27.9 6.52 -27.18 7.19 -26.47 7.83 -25.75 8.47 -25.04 9.08 -24.32 9.68 -23.61 10.26 -22.89 10.83 -22.18 11.38 -21.46 11.92 -20.75 12.44 -20.03 12.94 -19.32 13.42 -18.6 13.89 -17.88 14.35 -17.17 14.78 -16.45 15.2 -15.74 15.6 -15.02 15.99 -14.31 16.35 -13.59 16.7 -12.88 17.04 -12.16 17.35 -11.45 17.65 -10.73 17.93 -10.02 18.19 -9.3 18.44 -8.58 18.67 -7.87 18.88 -7.15 19.07 -6.44 19.24 -5.72 19.4 -5.01 19.54 -4.29 19.66 -3.58 19.76 -2.86 19.84 -2.15 19.91 -1.43 19.95 -0.72 19.98 0 19.99 0.72 19.98 1.43 19.95 2.15 19.91 2.86 19.84 3.58 19.76 4.29 19.65 5.01 19.53 5.72 19.39 6.44 19.23 7.15 19.05 7.87 18.85 8.58 18.63 9.3 18.39 10.02 18.13 10.73 17.85 11.45 17.56 12.16 17.24 12.88 16.9 13.59 16.54 14.31 16.17 15.02 15.77 15.74 15.35 16.45 14.92 17.17 14.46 17.88 13.98 18.6 13.49 19.32 12.97 20.03 12.43 20.75 11.87 21.46 11.29 22.18 10.69 22.89 10.07 23.61 9.43 24.32 8.77 25.04 8.09 25.75 7.39 26.47 6.66 27.18 5.92 27.9 5.15 28.62 4.37 29.33 3.56 30.05 2.73 30.76 1.88 31.48 1.01 32.19 0.12 32.91 -0.79 33.62 -1.72 34.34 -2.68 35.05 -3.65 35.77 -4.65 36.49 -5.67 37.2 -6.71 37.92 -7.77 38.63 -8.85 39.35 -9.96 40.06 -11.08 40.78 -12.23 41.49 -13.4 42.21 -14.59 42.92 -15.8 43.64 -17.03 44.35 -18.29 45.07 -19.56 45.79 -20.86 46.5 -22.18 47.22 -23.52 47.93 -24.89 48.65 -26.27 49.36 -27.68 50.08 -29.1 50.79 -30.55 51.51 -32.03 52.22 -33.52 52.94 -35.03 53.65 -36.57 54.37 -38.13 55.09 -39.71 55.8 -41.31 56.52 -42.94 57.23 -44.58" class="primitive"/>
            </g>
          </g>
        </g>
      </g>
    </g>
  </g>
  <g class="guide ylabels" font-size="2.82" font-family="'PT Sans Caption','Helvetica Neue','Helvetica',sans-serif" fill="#6C606B" id="img-12672be5-12">
    <g transform="translate(16.96,78.72)">
      <g class="primitive">
        <text text-anchor="end" dy="0.35em">0</text>
      </g>
    </g>
    <g transform="translate(16.96,54.81)">
      <g class="primitive">
        <text text-anchor="end" dy="0.35em">10</text>
      </g>
    </g>
    <g transform="translate(16.96,30.91)">
      <g class="primitive">
        <text text-anchor="end" dy="0.35em">20</text>
      </g>
    </g>
    <g transform="translate(16.96,7)">
      <g class="primitive">
        <text text-anchor="end" dy="0.35em">30</text>
      </g>
    </g>
  </g>
  <g font-size="3.88" font-family="'PT Sans','Helvetica Neue','Helvetica',sans-serif" fill="#564A55" stroke="#000000" stroke-opacity="0.000" id="img-12672be5-13">
    <g transform="translate(8.81,40.86)">
      <g class="primitive">
        <text text-anchor="middle" dy="0.35em" transform="rotate(-90,0, 2)">Shifted deviance contribution</text>
      </g>
    </g>
  </g>
</g>
<defs>
  <clipPath id="img-12672be5-4">
    <path d="M17.96,5 L 136.42 5 136.42 80.72 17.96 80.72" />
  </clipPath>
</defs>
</svg>
