<?xml version="1.0" encoding="UTF-8"?>
<svg xmlns="http://www.w3.org/2000/svg"
     xmlns:xlink="http://www.w3.org/1999/xlink"
     xmlns:gadfly="http://www.gadflyjl.org/ns"
     version="1.2"
     width="141.42mm" height="100mm" viewBox="0 0 141.42 100"
     stroke="none"
     fill="#000000"
     stroke-width="0.3"
     font-size="3.88"
>
<g class="plotroot xscalable yscalable" id="img-a8089e62-1">
  <g font-size="3.88" font-family="'PT Sans','Helvetica Neue','Helvetica',sans-serif" fill="#564A55" stroke="#000000" stroke-opacity="0.000" id="img-a8089e62-2">
    <g transform="translate(73.72,88.39)">
      <g class="primitive">
        <text text-anchor="middle" dy="0.6em">σ₁</text>
      </g>
    </g>
  </g>
  <g class="guide xlabels" font-size="2.82" font-family="'PT Sans Caption','Helvetica Neue','Helvetica',sans-serif" fill="#6C606B" id="img-a8089e62-3">
    <g transform="translate(13.02,81.72)">
      <g class="primitive">
        <text text-anchor="middle" dy="0.6em">0</text>
      </g>
    </g>
    <g transform="translate(43.37,81.72)">
      <g class="primitive">
        <text text-anchor="middle" dy="0.6em">20</text>
      </g>
    </g>
    <g transform="translate(73.72,81.72)">
      <g class="primitive">
        <text text-anchor="middle" dy="0.6em">40</text>
      </g>
    </g>
    <g transform="translate(104.07,81.72)">
      <g class="primitive">
        <text text-anchor="middle" dy="0.6em">60</text>
      </g>
    </g>
    <g transform="translate(134.42,81.72)">
      <g class="primitive">
        <text text-anchor="middle" dy="0.6em">80</text>
      </g>
    </g>
  </g>
  <g clip-path="url(#img-a8089e62-4)">
    <g id="img-a8089e62-5">
      <g pointer-events="visible" opacity="1" fill="#000000" fill-opacity="0.000" stroke="#000000" stroke-opacity="0.000" class="guide background" id="img-a8089e62-6">
        <g transform="translate(73.72,42.86)">
          <path d="M-62.7,-37.86 L 62.7 -37.86 62.7 37.86 -62.7 37.86 z" class="primitive"/>
        </g>
      </g>
      <g class="guide xgridlines yfixed" stroke-dasharray="0.5,0.5" stroke-width="0.2" stroke="#D0D0E0" id="img-a8089e62-7">
        <g transform="translate(13.02,42.86)">
          <path fill="none" d="M0,-37.86 L 0 37.86" class="primitive"/>
        </g>
        <g transform="translate(43.37,42.86)">
          <path fill="none" d="M0,-37.86 L 0 37.86" class="primitive"/>
        </g>
        <g transform="translate(73.72,42.86)">
          <path fill="none" d="M0,-37.86 L 0 37.86" class="primitive"/>
        </g>
        <g transform="translate(104.07,42.86)">
          <path fill="none" d="M0,-37.86 L 0 37.86" class="primitive"/>
        </g>
        <g transform="translate(134.42,42.86)">
          <path fill="none" d="M0,-37.86 L 0 37.86" class="primitive"/>
        </g>
      </g>
      <g class="guide ygridlines xfixed" stroke-dasharray="0.5,0.5" stroke-width="0.2" stroke="#D0D0E0" id="img-a8089e62-8">
        <g transform="translate(73.72,78.71)">
          <path fill="none" d="M-62.7,0 L 62.7 0" class="primitive"/>
        </g>
        <g transform="translate(73.72,71.54)">
          <path fill="none" d="M-62.7,0 L 62.7 0" class="primitive"/>
        </g>
        <g transform="translate(73.72,14.17)">
          <path fill="none" d="M-62.7,0 L 62.7 0" class="primitive"/>
        </g>
        <g transform="translate(73.72,7)">
          <path fill="none" d="M-62.7,0 L 62.7 0" class="primitive"/>
        </g>
      </g>
      <g class="plotpanel" id="img-a8089e62-9">
        <metadata>
          <boundingbox value="11.019999999999996mm 5.0mm 125.40135623730951mm 75.715mm"/>
          <unitbox value="-1.3179424428112623 1.0278881684445373 82.63588488562252 -1.055776336889075"/>
        </metadata>
        <g class="yfixed" id="img-a8089e62-10">
          <g stroke-dasharray="none" stroke-width="0.3" stroke="#FF0000" id="img-a8089e62-11">
            <g transform="translate(77.43,42.86)">
              <path fill="none" d="M0,-37.86 L 0 37.86" class="primitive"/>
            </g>
          </g>
          <g stroke-dasharray="none" stroke-width="0.3" stroke="#FF0000" id="img-a8089e62-12">
            <g transform="translate(13.02,42.86)">
              <path fill="none" d="M0,-37.86 L 0 37.86" class="primitive"/>
            </g>
          </g>
        </g>
        <g class="yfixed" id="img-a8089e62-13">
          <g stroke-dasharray="none" stroke-width="0.3" stroke="#FFA500" id="img-a8089e62-14">
            <g transform="translate(87.6,42.86)">
              <path fill="none" d="M0,-37.86 L 0 37.86" class="primitive"/>
            </g>
          </g>
          <g stroke-dasharray="none" stroke-width="0.3" stroke="#FFA500" id="img-a8089e62-15">
            <g transform="translate(13.02,42.86)">
              <path fill="none" d="M0,-37.86 L 0 37.86" class="primitive"/>
            </g>
          </g>
        </g>
        <g stroke-width="0.3" fill="#000000" fill-opacity="0.000" class="geometry" id="img-a8089e62-16">
          <g class="color_LCHab{Float32}(70.0f0,60.0f0,240.0f0)" stroke-dasharray="none" stroke="#00BFFF" id="img-a8089e62-17">
            <g transform="translate(56.88,42.86)">
              <path fill="none" d="M-43.86,35.71 L -43.86 35.43 -43.86 35.14 -43.86 34.85 -43.86 34.57 -43.86 34.28 -43.86 33.99 -43.86 33.71 -43.86 33.42 -43.86 33.13 -43.86 32.85 -43.86 32.56 -43.86 32.27 -43.86 31.98 -43.86 31.7 -43.86 31.41 -43.86 31.12 -43.86 30.84 -43.86 30.55 -43.86 30.26 -43.86 29.98 -43.86 29.69 -43.86 29.4 -43.86 29.12 -43.86 28.83 -41.22 28.54 -38.23 28.26 -36.32 27.97 -34.85 27.68 -33.61 27.4 -32.5 27.11 -31.46 26.82 -30.55 26.53 -29.69 26.25 -28.95 25.96 -28.22 25.67 -27.53 25.39 -26.89 25.1 -26.22 24.81 -25.62 24.53 -25.03 24.24 -24.48 23.95 -23.92 23.67 -23.41 23.38 -22.96 23.09 -22.51 22.81 -22.03 22.52 -21.55 22.23 -21.1 21.94 -20.67 21.66 -20.24 21.37 -19.83 21.08 -19.43 20.8 -19.01 20.51 -18.61 20.22 -18.23 19.94 -17.85 19.65 -17.5 19.36 -17.13 19.08 -16.77 18.79 -16.41 18.5 -16.04 18.22 -15.69 17.93 -15.36 17.64 -15.02 17.36 -14.71 17.07 -14.39 16.78 -14.07 16.49 -13.71 16.21 -13.39 15.92 -13.11 15.63 -12.82 15.35 -12.51 15.06 -12.17 14.77 -11.85 14.49 -11.55 14.2 -11.25 13.91 -10.99 13.63 -10.69 13.34 -10.39 13.05 -10.13 12.77 -9.84 12.48 -9.56 12.19 -9.29 11.9 -8.99 11.62 -8.72 11.33 -8.44 11.04 -8.19 10.76 -7.92 10.47 -7.64 10.18 -7.38 9.9 -7.1 9.61 -6.84 9.32 -6.54 9.04 -6.29 8.75 -6.02 8.46 -5.75 8.18 -5.49 7.89 -5.26 7.6 -5 7.31 -4.73 7.03 -4.48 6.74 -4.22 6.45 -3.96 6.17 -3.72 5.88 -3.49 5.59 -3.25 5.31 -2.98 5.02 -2.72 4.73 -2.49 4.45 -2.24 4.16 -2 3.87 -1.76 3.59 -1.53 3.3 -1.3 3.01 -1.04 2.73 -0.8 2.44 -0.56 2.15 -0.33 1.86 -0.1 1.58 0.14 1.29 0.39 1 0.63 0.72 0.85 0.43 1.08 0.14 1.31 -0.14 1.54 -0.43 1.76 -0.72 2 -1 2.24 -1.29 2.47 -1.58 2.69 -1.86 2.92 -2.15 3.14 -2.44 3.37 -2.73 3.59 -3.01 3.84 -3.3 4.07 -3.59 4.29 -3.87 4.53 -4.16 4.76 -4.45 5.01 -4.73 5.24 -5.02 5.47 -5.31 5.69 -5.59 5.91 -5.88 6.13 -6.17 6.38 -6.45 6.6 -6.74 6.84 -7.03 7.1 -7.31 7.35 -7.6 7.61 -7.89 7.86 -8.18 8.09 -8.46 8.34 -8.75 8.6 -9.04 8.84 -9.32 9.08 -9.61 9.31 -9.9 9.56 -10.18 9.78 -10.47 10.02 -10.76 10.27 -11.04 10.52 -11.33 10.77 -11.62 11.02 -11.9 11.26 -12.19 11.5 -12.48 11.75 -12.77 12 -13.05 12.28 -13.34 12.53 -13.63 12.81 -13.91 13.07 -14.2 13.33 -14.49 13.61 -14.77 13.89 -15.06 14.16 -15.35 14.43 -15.63 14.74 -15.92 15.01 -16.21 15.27 -16.49 15.54 -16.78 15.84 -17.07 16.12 -17.36 16.4 -17.64 16.71 -17.93 16.99 -18.22 17.29 -18.5 17.59 -18.79 17.88 -19.08 18.19 -19.36 18.46 -19.65 18.76 -19.94 19.07 -20.22 19.38 -20.51 19.71 -20.8 20.05 -21.08 20.39 -21.37 20.72 -21.66 21.03 -21.94 21.37 -22.23 21.71 -22.52 22.05 -22.81 22.41 -23.09 22.78 -23.38 23.15 -23.67 23.51 -23.95 23.89 -24.24 24.23 -24.53 24.63 -24.81 25.02 -25.1 25.44 -25.39 25.83 -25.67 26.25 -25.96 26.7 -26.25 27.13 -26.53 27.57 -26.82 28.01 -27.11 28.45 -27.4 28.95 -27.68 29.44 -27.97 29.97 -28.26 30.46 -28.54 30.99 -28.83 31.54 -29.12 32.08 -29.4 32.66 -29.69 33.2 -29.98 33.9 -30.26 34.47 -30.55 35.13 -30.84 35.83 -31.12 36.53 -31.41 37.31 -31.7 38.07 -31.98 38.99 -32.27 39.84 -32.56 40.84 -32.85 41.89 -33.13 43.11 -33.42 44.35 -33.71 45.95 -33.99 47.73 -34.28 49.73 -34.57 52.11 -34.85 55.12 -35.14 59.54 -35.43 68.17 -35.71" class="primitive"/>
            </g>
          </g>
        </g>
      </g>
    </g>
  </g>
  <g class="guide ylabels" font-size="2.82" font-family="'PT Sans Caption','Helvetica Neue','Helvetica',sans-serif" fill="#6C606B" id="img-a8089e62-18">
    <g transform="translate(10.02,78.71)">
      <g class="primitive">
        <text text-anchor="end" dy="0.35em">0.0</text>
      </g>
    </g>
    <g transform="translate(10.02,71.54)">
      <g class="primitive">
        <text text-anchor="end" dy="0.35em">0.1</text>
      </g>
    </g>
    <g transform="translate(10.02,14.17)">
      <g class="primitive">
        <text text-anchor="end" dy="0.35em">0.9</text>
      </g>
    </g>
    <g transform="translate(10.02,7)">
      <g class="primitive">
        <text text-anchor="end" dy="0.35em">1.0</text>
      </g>
    </g>
  </g>
</g>
<defs>
  <clipPath id="img-a8089e62-4">
    <path d="M11.02,5 L 136.42 5 136.42 80.72 11.02 80.72" />
  </clipPath>
</defs>
</svg>
