<?xml version="1.0" encoding="UTF-8"?>
<svg xmlns="http://www.w3.org/2000/svg"
     xmlns:xlink="http://www.w3.org/1999/xlink"
     xmlns:gadfly="http://www.gadflyjl.org/ns"
     version="1.2"
     width="141.42mm" height="100mm" viewBox="0 0 141.42 100"
     stroke="none"
     fill="#000000"
     stroke-width="0.3"
     font-size="3.88"
>
<g class="plotroot xscalable yscalable" id="img-c3f5d71e-1">
  <g font-size="3.88" font-family="'PT Sans','Helvetica Neue','Helvetica',sans-serif" fill="#564A55" stroke="#000000" stroke-opacity="0.000" id="img-c3f5d71e-2">
    <g transform="translate(77.19,88.39)">
      <g class="primitive">
        <text text-anchor="middle" dy="0.6em">Standard Normal Quantiles</text>
      </g>
    </g>
  </g>
  <g class="guide xlabels" font-size="2.82" font-family="'PT Sans Caption','Helvetica Neue','Helvetica',sans-serif" fill="#6C606B" id="img-c3f5d71e-3">
    <g transform="translate(19.96,81.72)">
      <g class="primitive">
        <text text-anchor="middle" dy="0.6em">-3</text>
      </g>
    </g>
    <g transform="translate(39.04,81.72)">
      <g class="primitive">
        <text text-anchor="middle" dy="0.6em">-2</text>
      </g>
    </g>
    <g transform="translate(58.11,81.72)">
      <g class="primitive">
        <text text-anchor="middle" dy="0.6em">-1</text>
      </g>
    </g>
    <g transform="translate(77.19,81.72)">
      <g class="primitive">
        <text text-anchor="middle" dy="0.6em">0</text>
      </g>
    </g>
    <g transform="translate(96.27,81.72)">
      <g class="primitive">
        <text text-anchor="middle" dy="0.6em">1</text>
      </g>
    </g>
    <g transform="translate(115.34,81.72)">
      <g class="primitive">
        <text text-anchor="middle" dy="0.6em">2</text>
      </g>
    </g>
    <g transform="translate(134.42,81.72)">
      <g class="primitive">
        <text text-anchor="middle" dy="0.6em">3</text>
      </g>
    </g>
  </g>
  <g clip-path="url(#img-c3f5d71e-4)">
    <g id="img-c3f5d71e-5">
      <g pointer-events="visible" opacity="1" fill="#000000" fill-opacity="0.000" stroke="#000000" stroke-opacity="0.000" class="guide background" id="img-c3f5d71e-6">
        <g transform="translate(77.19,42.86)">
          <path d="M-59.23,-37.86 L 59.23 -37.86 59.23 37.86 -59.23 37.86 z" class="primitive"/>
        </g>
      </g>
      <g class="guide ygridlines xfixed" stroke-dasharray="0.5,0.5" stroke-width="0.2" stroke="#D0D0E0" id="img-c3f5d71e-7">
        <g transform="translate(77.19,78.72)">
          <path fill="none" d="M-59.23,0 L 59.23 0" class="primitive"/>
        </g>
        <g transform="translate(77.19,60.79)">
          <path fill="none" d="M-59.23,0 L 59.23 0" class="primitive"/>
        </g>
        <g transform="translate(77.19,42.86)">
          <path fill="none" d="M-59.23,0 L 59.23 0" class="primitive"/>
        </g>
        <g transform="translate(77.19,24.93)">
          <path fill="none" d="M-59.23,0 L 59.23 0" class="primitive"/>
        </g>
        <g transform="translate(77.19,7)">
          <path fill="none" d="M-59.23,0 L 59.23 0" class="primitive"/>
        </g>
      </g>
      <g class="guide xgridlines yfixed" stroke-dasharray="0.5,0.5" stroke-width="0.2" stroke="#D0D0E0" id="img-c3f5d71e-8">
        <g transform="translate(19.96,42.86)">
          <path fill="none" d="M0,-37.86 L 0 37.86" class="primitive"/>
        </g>
        <g transform="translate(39.04,42.86)">
          <path fill="none" d="M0,-37.86 L 0 37.86" class="primitive"/>
        </g>
        <g transform="translate(58.11,42.86)">
          <path fill="none" d="M0,-37.86 L 0 37.86" class="primitive"/>
        </g>
        <g transform="translate(77.19,42.86)">
          <path fill="none" d="M0,-37.86 L 0 37.86" class="primitive"/>
        </g>
        <g transform="translate(96.27,42.86)">
          <path fill="none" d="M0,-37.86 L 0 37.86" class="primitive"/>
        </g>
        <g transform="translate(115.34,42.86)">
          <path fill="none" d="M0,-37.86 L 0 37.86" class="primitive"/>
        </g>
        <g transform="translate(134.42,42.86)">
          <path fill="none" d="M0,-37.86 L 0 37.86" class="primitive"/>
        </g>
      </g>
      <g class="plotpanel" id="img-c3f5d71e-9">
        <metadata>
          <boundingbox value="17.95833333333333mm 5.0mm 118.46302290397618mm 75.715mm"/>
          <unitbox value="-3.104837350050303 82.23105347556299 6.2096747001006065 -84.46210695112599"/>
        </metadata>
        <g stroke-width="0.3" fill="#000000" fill-opacity="0.000" class="geometry" id="img-c3f5d71e-10">
          <g class="color_LCHab{Float32}(70.0f0,60.0f0,240.0f0)" stroke-dasharray="none" stroke="#00BFFF" id="img-c3f5d71e-11">
            <g transform="translate(77.19,52.81)">
              <path fill="none" d="M-54.91,25.91 L -47.92 25.91 -44.38 25.91 -41.92 25.91 -40 25.91 -38.42 25.91 -37.07 25.91 -35.88 25.91 -34.82 25.91 -33.85 25.91 -32.96 25.91 -32.14 25.91 -31.38 25.91 -30.66 25.91 -29.99 25.91 -29.34 25.91 -28.74 25.91 -28.15 25.91 -27.6 25.91 -27.06 25.91 -26.55 25.91 -26.06 25.91 -25.58 25.91 -25.12 25.91 -24.67 25.91 -24.23 24.35 -23.81 22.58 -23.4 21.46 -23 20.58 -22.61 19.85 -22.23 19.2 -21.85 18.58 -21.49 18.05 -21.13 17.54 -20.78 17.1 -20.44 16.67 -20.1 16.26 -19.77 15.89 -19.45 15.49 -19.13 15.13 -18.82 14.79 -18.51 14.46 -18.2 14.13 -17.9 13.83 -17.61 13.57 -17.32 13.3 -17.03 13.01 -16.75 12.73 -16.47 12.46 -16.19 12.21 -15.92 11.96 -15.65 11.71 -15.38 11.47 -15.12 11.23 -14.86 10.99 -14.6 10.77 -14.35 10.54 -14.1 10.34 -13.85 10.12 -13.6 9.91 -13.35 9.69 -13.11 9.48 -12.87 9.27 -12.63 9.07 -12.39 8.87 -12.16 8.69 -11.92 8.5 -11.69 8.31 -11.46 8.1 -11.23 7.91 -11.01 7.75 -10.78 7.57 -10.56 7.39 -10.33 7.19 -10.11 7 -9.89 6.82 -9.68 6.65 -9.46 6.49 -9.24 6.31 -9.03 6.14 -8.82 5.98 -8.6 5.82 -8.39 5.65 -8.18 5.49 -7.97 5.31 -7.76 5.15 -7.56 4.99 -7.35 4.84 -7.15 4.68 -6.94 4.51 -6.74 4.36 -6.53 4.19 -6.33 4.04 -6.13 3.86 -5.93 3.72 -5.73 3.55 -5.53 3.4 -5.33 3.24 -5.13 3.11 -4.93 2.96 -4.73 2.79 -4.54 2.65 -4.34 2.49 -4.14 2.34 -3.95 2.2 -3.75 2.06 -3.56 1.92 -3.36 1.76 -3.17 1.61 -2.98 1.47 -2.78 1.33 -2.59 1.18 -2.4 1.04 -2.2 0.9 -2.01 0.77 -1.82 0.62 -1.63 0.47 -1.44 0.33 -1.24 0.19 -1.05 0.06 -0.86 -0.08 -0.67 -0.23 -0.48 -0.37 -0.29 -0.5 -0.1 -0.64 0.1 -0.78 0.29 -0.91 0.48 -1.04 0.67 -1.18 0.86 -1.32 1.05 -1.46 1.24 -1.59 1.44 -1.73 1.63 -1.86 1.82 -1.99 2.01 -2.12 2.2 -2.27 2.4 -2.41 2.59 -2.53 2.78 -2.68 2.98 -2.81 3.17 -2.96 3.36 -3.09 3.56 -3.23 3.75 -3.36 3.95 -3.49 4.14 -3.62 4.34 -3.77 4.54 -3.9 4.73 -4.04 4.93 -4.19 5.13 -4.34 5.33 -4.49 5.53 -4.64 5.73 -4.78 5.93 -4.93 6.13 -5.08 6.33 -5.22 6.53 -5.36 6.74 -5.5 6.94 -5.65 7.15 -5.78 7.35 -5.92 7.56 -6.07 7.76 -6.22 7.97 -6.36 8.18 -6.51 8.39 -6.65 8.6 -6.8 8.82 -6.94 9.03 -7.09 9.24 -7.26 9.46 -7.4 9.68 -7.57 9.89 -7.72 10.11 -7.88 10.33 -8.04 10.56 -8.21 10.78 -8.36 11.01 -8.52 11.23 -8.71 11.46 -8.87 11.69 -9.02 11.92 -9.18 12.16 -9.36 12.39 -9.52 12.63 -9.69 12.87 -9.87 13.11 -10.04 13.35 -10.22 13.6 -10.39 13.85 -10.56 14.1 -10.74 14.35 -10.91 14.6 -11.08 14.86 -11.27 15.12 -11.45 15.38 -11.64 15.65 -11.84 15.92 -12.04 16.19 -12.24 16.47 -12.42 16.75 -12.62 17.03 -12.82 17.32 -13.03 17.61 -13.24 17.9 -13.46 18.2 -13.68 18.51 -13.89 18.82 -14.11 19.13 -14.31 19.45 -14.55 19.77 -14.78 20.1 -15.03 20.44 -15.26 20.78 -15.51 21.13 -15.77 21.49 -16.03 21.85 -16.29 22.23 -16.55 22.61 -16.81 23 -17.1 23.4 -17.39 23.81 -17.7 24.23 -17.99 24.67 -18.31 25.12 -18.63 25.58 -18.95 26.06 -19.29 26.55 -19.61 27.06 -20.02 27.6 -20.36 28.15 -20.75 28.74 -21.16 29.34 -21.58 29.99 -22.04 30.66 -22.49 31.38 -23.03 32.14 -23.53 32.96 -24.13 33.85 -24.75 34.82 -25.47 35.88 -26.2 37.07 -27.15 38.42 -28.2 40 -29.38 41.92 -30.78 44.38 -32.56 47.92 -35.17 54.91 -40.27" class="primitive"/>
            </g>
          </g>
        </g>
      </g>
    </g>
  </g>
  <g class="guide ylabels" font-size="2.82" font-family="'PT Sans Caption','Helvetica Neue','Helvetica',sans-serif" fill="#6C606B" id="img-c3f5d71e-12">
    <g transform="translate(16.96,78.72)">
      <g class="primitive">
        <text text-anchor="end" dy="0.35em">0</text>
      </g>
    </g>
    <g transform="translate(16.96,60.79)">
      <g class="primitive">
        <text text-anchor="end" dy="0.35em">20</text>
      </g>
    </g>
    <g transform="translate(16.96,42.86)">
      <g class="primitive">
        <text text-anchor="end" dy="0.35em">40</text>
      </g>
    </g>
    <g transform="translate(16.96,24.93)">
      <g class="primitive">
        <text text-anchor="end" dy="0.35em">60</text>
      </g>
    </g>
    <g transform="translate(16.96,7)">
      <g class="primitive">
        <text text-anchor="end" dy="0.35em">80</text>
      </g>
    </g>
  </g>
  <g font-size="3.88" font-family="'PT Sans','Helvetica Neue','Helvetica',sans-serif" fill="#564A55" stroke="#000000" stroke-opacity="0.000" id="img-c3f5d71e-13">
    <g transform="translate(8.81,40.86)">
      <g class="primitive">
        <text text-anchor="middle" dy="0.35em" transform="rotate(-90,0, 2)">σ₁</text>
      </g>
    </g>
  </g>
</g>
<defs>
  <clipPath id="img-c3f5d71e-4">
    <path d="M17.96,5 L 136.42 5 136.42 80.72 17.96 80.72" />
  </clipPath>
</defs>
</svg>
