<?xml version="1.0" encoding="UTF-8"?>
<svg xmlns="http://www.w3.org/2000/svg"
     xmlns:xlink="http://www.w3.org/1999/xlink"
     xmlns:gadfly="http://www.gadflyjl.org/ns"
     version="1.2"
     width="141.42mm" height="100mm" viewBox="0 0 141.42 100"
     stroke="none"
     fill="#000000"
     stroke-width="0.3"
     font-size="3.88"
>
<defs>
  <marker id="arrow" markerWidth="15" markerHeight="7" refX="5" refY="3.5" orient="auto" markerUnits="strokeWidth">
    <path d="M0,0 L15,3.5 L0,7 z" stroke="context-stroke" fill="context-stroke"/>
  </marker>
</defs>
<g class="plotroot xscalable yscalable" id="img-d273d53d-1">
  <g font-size="3.88" font-family="'PT Sans','Helvetica Neue','Helvetica',sans-serif" fill="#564A55" stroke="#000000" stroke-opacity="0.000" id="img-d273d53d-2">
    <g transform="translate(74.56,88.39)">
      <g class="primitive">
        <text text-anchor="middle" dy="0.6em">Parametric bootstrap estimates of σ</text>
      </g>
    </g>
  </g>
  <g class="guide xlabels" font-size="2.82" font-family="'PT Sans Caption','Helvetica Neue','Helvetica',sans-serif" fill="#6C606B" id="img-d273d53d-3">
    <g transform="translate(14.69,81.72)">
      <g class="primitive">
        <text text-anchor="middle" dy="0.6em">0</text>
      </g>
    </g>
    <g transform="translate(38.64,81.72)">
      <g class="primitive">
        <text text-anchor="middle" dy="0.6em">20</text>
      </g>
    </g>
    <g transform="translate(62.58,81.72)">
      <g class="primitive">
        <text text-anchor="middle" dy="0.6em">40</text>
      </g>
    </g>
    <g transform="translate(86.53,81.72)">
      <g class="primitive">
        <text text-anchor="middle" dy="0.6em">60</text>
      </g>
    </g>
    <g transform="translate(110.48,81.72)">
      <g class="primitive">
        <text text-anchor="middle" dy="0.6em">80</text>
      </g>
    </g>
    <g transform="translate(134.42,81.72)">
      <g class="primitive">
        <text text-anchor="middle" dy="0.6em">100</text>
      </g>
    </g>
  </g>
  <g clip-path="url(#img-d273d53d-4)">
    <g id="img-d273d53d-5">
      <g pointer-events="visible" stroke-width="0.3" fill="#000000" fill-opacity="0.000" stroke="#000000" stroke-opacity="0.000" class="guide background" id="img-d273d53d-6">
        <g transform="translate(74.56,42.86)" id="img-d273d53d-7">
          <path d="M-61.86,-37.86 L61.86,-37.86 61.86,37.86 -61.86,37.86  z" class="primitive"/>
        </g>
      </g>
      <g class="guide ygridlines xfixed" stroke-dasharray="0.5,0.5" stroke-width="0.2" stroke="#D0D0E0" id="img-d273d53d-8">
        <g transform="translate(74.56,78.71)" id="img-d273d53d-9">
          <path fill="none" d="M-61.86,0 L61.86,0 " class="primitive"/>
        </g>
        <g transform="translate(74.56,66.76)" id="img-d273d53d-10">
          <path fill="none" d="M-61.86,0 L61.86,0 " class="primitive"/>
        </g>
        <g transform="translate(74.56,54.81)" id="img-d273d53d-11">
          <path fill="none" d="M-61.86,0 L61.86,0 " class="primitive"/>
        </g>
        <g transform="translate(74.56,42.86)" id="img-d273d53d-12">
          <path fill="none" d="M-61.86,0 L61.86,0 " class="primitive"/>
        </g>
        <g transform="translate(74.56,30.9)" id="img-d273d53d-13">
          <path fill="none" d="M-61.86,0 L61.86,0 " class="primitive"/>
        </g>
        <g transform="translate(74.56,18.95)" id="img-d273d53d-14">
          <path fill="none" d="M-61.86,0 L61.86,0 " class="primitive"/>
        </g>
        <g transform="translate(74.56,7)" id="img-d273d53d-15">
          <path fill="none" d="M-61.86,0 L61.86,0 " class="primitive"/>
        </g>
      </g>
      <g class="guide xgridlines yfixed" stroke-dasharray="0.5,0.5" stroke-width="0.2" stroke="#D0D0E0" id="img-d273d53d-16">
        <g transform="translate(14.69,42.86)" id="img-d273d53d-17">
          <path fill="none" d="M0,-37.86 L0,37.86 " class="primitive"/>
        </g>
        <g transform="translate(38.64,42.86)" id="img-d273d53d-18">
          <path fill="none" d="M0,-37.86 L0,37.86 " class="primitive"/>
        </g>
        <g transform="translate(62.58,42.86)" id="img-d273d53d-19">
          <path fill="none" d="M0,-37.86 L0,37.86 " class="primitive"/>
        </g>
        <g transform="translate(86.53,42.86)" id="img-d273d53d-20">
          <path fill="none" d="M0,-37.86 L0,37.86 " class="primitive"/>
        </g>
        <g transform="translate(110.48,42.86)" id="img-d273d53d-21">
          <path fill="none" d="M0,-37.86 L0,37.86 " class="primitive"/>
        </g>
        <g transform="translate(134.42,42.86)" id="img-d273d53d-22">
          <path fill="none" d="M0,-37.86 L0,37.86 " class="primitive"/>
        </g>
      </g>
      <g class="plotpanel" id="img-d273d53d-23">
        <metadata>
          <boundingbox value="12.693333333333328mm 5.0mm 123.72802290397618mm 75.715mm"/>
          <unitbox value="-1.6704527073031452 0.06167329010667225 103.3409054146063 -0.06334658021334451"/>
        </metadata>
        <g stroke-width="0.3" fill="#000000" fill-opacity="0.000" class="geometry" id="img-d273d53d-24">
          <g class="color_LCHab{Float32}(70.0,_60.0,_240.0)" stroke-dasharray="none" stroke-opacity="1" stroke="#00BFFF" id="img-d273d53d-25">
            <g transform="translate(74.33,59.35)" id="img-d273d53d-26">
              <path fill="none" d="M-36.81,19.36 L-36.52,19.36 -36.23,19.36 -35.94,19.36 -35.66,19.36 -35.37,19.36 -35.08,19.36 -34.79,19.36 -34.5,19.36 -34.21,19.35 -33.92,19.35 -33.63,19.34 -33.35,19.33 -33.06,19.31 -32.77,19.3 -32.48,19.28 -32.19,19.27 -31.9,19.25 -31.61,19.24 -31.33,19.22 -31.04,19.21 -30.75,19.2 -30.46,19.18 -30.17,19.17 -29.88,19.16 -29.59,19.14 -29.3,19.13 -29.02,19.11 -28.73,19.09 -28.44,19.08 -28.15,19.06 -27.86,19.05 -27.57,19.03 -27.28,19.02 -26.99,19 -26.71,18.98 -26.42,18.95 -26.13,18.92 -25.84,18.87 -25.55,18.81 -25.26,18.74 -24.97,18.66 -24.68,18.56 -24.4,18.45 -24.11,18.31 -23.82,18.16 -23.53,17.98 -23.24,17.78 -22.95,17.54 -22.66,17.27 -22.38,16.96 -22.09,16.61 -21.8,16.22 -21.51,15.8 -21.22,15.35 -20.93,14.88 -20.64,14.41 -20.35,13.95 -20.07,13.49 -19.78,13.04 -19.49,12.59 -19.2,12.14 -18.91,11.68 -18.62,11.19 -18.33,10.67 -18.04,10.12 -17.76,9.52 -17.47,8.87 -17.18,8.17 -16.89,7.43 -16.6,6.64 -16.31,5.82 -16.02,4.97 -15.73,4.1 -15.45,3.22 -15.16,2.32 -14.87,1.41 -14.58,0.47 -14.29,-0.51 -14,-1.56 -13.71,-2.69 -13.43,-3.92 -13.14,-5.25 -12.85,-6.68 -12.56,-8.18 -12.27,-9.74 -11.98,-11.31 -11.69,-12.88 -11.4,-14.43 -11.12,-15.95 -10.83,-17.45 -10.54,-18.94 -10.25,-20.43 -9.96,-21.95 -9.67,-23.5 -9.38,-25.08 -9.09,-26.67 -8.81,-28.25 -8.52,-29.81 -8.23,-31.3 -7.94,-32.71 -7.65,-34.03 -7.36,-35.26 -7.07,-36.42 -6.78,-37.51 -6.5,-38.55 -6.21,-39.54 -5.92,-40.47 -5.63,-41.35 -5.34,-42.18 -5.05,-42.96 -4.76,-43.7 -4.48,-44.41 -4.19,-45.11 -3.9,-45.77 -3.61,-46.38 -3.32,-46.91 -3.03,-47.32 -2.74,-47.62 -2.45,-47.79 -2.17,-47.86 -1.88,-47.87 -1.59,-47.84 -1.3,-47.8 -1.01,-47.77 -0.72,-47.73 -0.43,-47.66 -0.14,-47.52 0.14,-47.28 0.43,-46.89 0.72,-46.34 1.01,-45.62 1.3,-44.74 1.59,-43.74 1.88,-42.65 2.17,-41.5 2.45,-40.35 2.74,-39.2 3.03,-38.07 3.32,-36.95 3.61,-35.82 3.9,-34.65 4.19,-33.42 4.48,-32.12 4.76,-30.75 5.05,-29.31 5.34,-27.85 5.63,-26.39 5.92,-24.98 6.21,-23.64 6.5,-22.38 6.78,-21.21 7.07,-20.12 7.36,-19.09 7.65,-18.09 7.94,-17.09 8.23,-16.08 8.52,-15.03 8.81,-13.93 9.09,-12.75 9.38,-11.5 9.67,-10.17 9.96,-8.79 10.25,-7.36 10.54,-5.91 10.83,-4.47 11.12,-3.08 11.4,-1.75 11.69,-0.51 11.98,0.63 12.27,1.67 12.56,2.6 12.85,3.45 13.14,4.21 13.43,4.9 13.71,5.55 14,6.16 14.29,6.76 14.58,7.35 14.87,7.94 15.16,8.55 15.45,9.14 15.73,9.73 16.02,10.28 16.31,10.8 16.6,11.27 16.89,11.71 17.18,12.12 17.47,12.52 17.76,12.92 18.04,13.33 18.33,13.75 18.62,14.17 18.91,14.59 19.2,15 19.49,15.38 19.78,15.72 20.07,16.04 20.35,16.32 20.64,16.56 20.93,16.79 21.22,16.99 21.51,17.18 21.8,17.35 22.09,17.52 22.38,17.68 22.66,17.83 22.95,17.98 23.24,18.11 23.53,18.24 23.82,18.35 24.11,18.45 24.4,18.54 24.68,18.62 24.97,18.69 25.26,18.75 25.55,18.8 25.84,18.84 26.13,18.88 26.42,18.9 26.71,18.92 26.99,18.93 27.28,18.94 27.57,18.95 27.86,18.95 28.15,18.96 28.44,18.98 28.73,19.01 29.02,19.04 29.3,19.08 29.59,19.12 29.88,19.16 30.17,19.19 30.46,19.21 30.75,19.23 31.04,19.24 31.33,19.25 31.61,19.25 31.9,19.26 32.19,19.27 32.48,19.28 32.77,19.3 33.06,19.31 33.35,19.32 33.63,19.33 33.92,19.34 34.21,19.35 34.5,19.35 34.79,19.36 35.08,19.36 35.37,19.36 35.66,19.36 35.94,19.36 36.23,19.36 36.52,19.36 36.81,19.36 " class="primitive"/>
            </g>
          </g>
        </g>
      </g>
    </g>
  </g>
  <g class="guide ylabels" font-size="2.82" font-family="'PT Sans Caption','Helvetica Neue','Helvetica',sans-serif" fill="#6C606B" id="img-d273d53d-27">
    <g transform="translate(11.69,78.71)" id="img-d273d53d-28">
      <g class="primitive">
        <text text-anchor="end" dy="0.35em">0.00</text>
      </g>
    </g>
    <g transform="translate(11.69,66.76)" id="img-d273d53d-29">
      <g class="primitive">
        <text text-anchor="end" dy="0.35em">0.01</text>
      </g>
    </g>
    <g transform="translate(11.69,54.81)" id="img-d273d53d-30">
      <g class="primitive">
        <text text-anchor="end" dy="0.35em">0.02</text>
      </g>
    </g>
    <g transform="translate(11.69,42.86)" id="img-d273d53d-31">
      <g class="primitive">
        <text text-anchor="end" dy="0.35em">0.03</text>
      </g>
    </g>
    <g transform="translate(11.69,30.9)" id="img-d273d53d-32">
      <g class="primitive">
        <text text-anchor="end" dy="0.35em">0.04</text>
      </g>
    </g>
    <g transform="translate(11.69,18.95)" id="img-d273d53d-33">
      <g class="primitive">
        <text text-anchor="end" dy="0.35em">0.05</text>
      </g>
    </g>
    <g transform="translate(11.69,7)" id="img-d273d53d-34">
      <g class="primitive">
        <text text-anchor="end" dy="0.35em">0.06</text>
      </g>
    </g>
  </g>
</g>
<defs>
  <clipPath id="img-d273d53d-4">
    <path d="M12.69,5 L136.42,5 136.42,80.72 12.69,80.72 " />
  </clipPath>
</defs>
</svg>
