<?xml version="1.0" encoding="UTF-8"?>
<svg xmlns="http://www.w3.org/2000/svg" xmlns:xlink="http://www.w3.org/1999/xlink" width="600" height="450" viewBox="0 0 600 450">
<defs>
<g>
<g id="glyph-0-0-b44e19e9">
<path d="M 8.640625 -7.203125 C 8.640625 -5.515625 7.46875 -4.328125 5.78125 -4.328125 C 5.78125 -4.328125 2.578125 -4.328125 2.578125 -4.328125 C 2.578125 -4.328125 2.578125 0 2.578125 0 C 2.578125 0 1.28125 0 1.28125 0 C 1.28125 0 1.28125 -10.203125 1.28125 -10.203125 C 1.28125 -10.203125 5.484375 -10.203125 5.484375 -10.203125 C 7.5 -10.203125 8.640625 -9.125 8.640625 -7.203125 Z M 7.28125 -7.265625 C 7.28125 -8.390625 6.53125 -9.0625 5.296875 -9.0625 C 5.296875 -9.0625 2.578125 -9.0625 2.578125 -9.0625 C 2.578125 -9.0625 2.578125 -5.46875 2.578125 -5.46875 C 2.578125 -5.46875 5.296875 -5.46875 5.296875 -5.46875 C 6.53125 -5.46875 7.28125 -6.140625 7.28125 -7.265625 Z M 7.28125 -7.265625 "/>
</g>
<g id="glyph-0-1-b44e19e9">
<path d="M 7.484375 -0.03125 C 7.109375 0.0625 6.9375 0.09375 6.6875 0.09375 C 6.125 0.09375 5.609375 -0.3125 5.484375 -0.875 C 4.84375 -0.1875 3.9375 0.203125 3 0.203125 C 1.515625 0.203125 0.59375 -0.578125 0.59375 -1.90625 C 0.59375 -2.796875 1.015625 -3.453125 1.875 -3.8125 C 2.328125 -3.984375 2.578125 -4.046875 4.234375 -4.25 C 5.15625 -4.375 5.453125 -4.578125 5.453125 -5.0625 C 5.453125 -5.0625 5.453125 -5.375 5.453125 -5.375 C 5.453125 -6.078125 4.859375 -6.46875 3.8125 -6.46875 C 2.71875 -6.46875 2.1875 -6.0625 2.09375 -5.171875 C 2.09375 -5.171875 0.90625 -5.171875 0.90625 -5.171875 C 0.984375 -6.859375 2.078125 -7.546875 3.84375 -7.546875 C 5.65625 -7.546875 6.609375 -6.84375 6.609375 -5.546875 C 6.609375 -5.546875 6.609375 -1.453125 6.609375 -1.453125 C 6.609375 -1.09375 6.828125 -0.875 7.234375 -0.875 C 7.3125 -0.875 7.359375 -0.875 7.484375 -0.90625 C 7.484375 -0.90625 7.484375 -0.03125 7.484375 -0.03125 Z M 5.453125 -2.53125 C 5.453125 -2.53125 5.453125 -3.625 5.453125 -3.625 C 5.046875 -3.4375 4.796875 -3.390625 3.5625 -3.21875 C 2.328125 -3.03125 1.8125 -2.703125 1.8125 -1.9375 C 1.8125 -1.140625 2.34375 -0.8125 3.25 -0.8125 C 4.375 -0.8125 5.453125 -1.484375 5.453125 -2.53125 Z M 5.453125 -2.53125 "/>
</g>
<g id="glyph-0-2-b44e19e9">
<path d="M 4.5 -6.3125 C 2.6875 -6.28125 2.140625 -5.453125 2.140625 -3.8125 C 2.140625 -3.8125 2.140625 0 2.140625 0 C 2.140625 0 0.984375 0 0.984375 0 C 0.984375 0 0.984375 -7.34375 0.984375 -7.34375 C 0.984375 -7.34375 2.046875 -7.34375 2.046875 -7.34375 C 2.046875 -7.34375 2.046875 -6 2.046875 -6 C 2.71875 -7.09375 3.296875 -7.546875 4.046875 -7.546875 C 4.203125 -7.546875 4.296875 -7.53125 4.5 -7.5 C 4.5 -7.5 4.5 -6.3125 4.5 -6.3125 Z M 4.5 -6.3125 "/>
</g>
<g id="glyph-0-3-b44e19e9">
<path d="M 10.640625 0 C 10.640625 0 9.484375 0 9.484375 0 C 9.484375 0 9.484375 -5.046875 9.484375 -5.046875 C 9.484375 -5.984375 8.984375 -6.53125 8.140625 -6.53125 C 7.1875 -6.53125 6.390625 -5.671875 6.390625 -4.609375 C 6.390625 -4.609375 6.390625 0 6.390625 0 C 6.390625 0 5.234375 0 5.234375 0 C 5.234375 0 5.234375 -5.046875 5.234375 -5.046875 C 5.234375 -5.984375 4.75 -6.53125 3.875 -6.53125 C 2.921875 -6.53125 2.15625 -5.671875 2.15625 -4.609375 C 2.15625 -4.609375 2.15625 0 2.15625 0 C 2.15625 0 1 0 1 0 C 1 0 1 -7.34375 1 -7.34375 C 1 -7.34375 2.0625 -7.34375 2.0625 -7.34375 C 2.0625 -7.34375 2.0625 -6.296875 2.0625 -6.296875 C 2.6875 -7.1875 3.328125 -7.546875 4.3125 -7.546875 C 5.265625 -7.546875 5.859375 -7.203125 6.28125 -6.421875 C 6.96875 -7.25 7.5625 -7.546875 8.546875 -7.546875 C 9.90625 -7.546875 10.640625 -6.8125 10.640625 -5.5 C 10.640625 -5.5 10.640625 0 10.640625 0 Z M 10.640625 0 "/>
</g>
<g id="glyph-0-4-b44e19e9">
<path d="M 7.1875 -3.328125 C 7.1875 -3.328125 1.78125 -3.328125 1.78125 -3.328125 C 1.8125 -1.65625 2.71875 -0.875 3.9375 -0.875 C 4.875 -0.875 5.53125 -1.265625 5.859375 -2.21875 C 5.859375 -2.21875 7.03125 -2.21875 7.03125 -2.21875 C 6.734375 -0.734375 5.578125 0.203125 3.890625 0.203125 C 1.828125 0.203125 0.5625 -1.21875 0.5625 -3.625 C 0.5625 -6.03125 1.875 -7.546875 3.921875 -7.546875 C 5.296875 -7.546875 6.40625 -6.8125 6.890625 -5.609375 C 7.09375 -5.0625 7.1875 -4.390625 7.1875 -3.328125 Z M 5.9375 -4.375 C 5.9375 -5.515625 5.046875 -6.46875 3.90625 -6.46875 C 2.734375 -6.46875 1.90625 -5.59375 1.8125 -4.28125 C 1.8125 -4.28125 5.921875 -4.28125 5.921875 -4.28125 C 5.9375 -4.3125 5.9375 -4.375 5.9375 -4.375 Z M 5.9375 -4.375 "/>
</g>
<g id="glyph-0-5-b44e19e9">
<path d="M 3.5625 0 C 3.15625 0.0625 2.890625 0.09375 2.609375 0.09375 C 1.6875 0.09375 1.1875 -0.328125 1.1875 -1.0625 C 1.1875 -1.0625 1.1875 -6.390625 1.1875 -6.390625 C 1.1875 -6.390625 0.203125 -6.390625 0.203125 -6.390625 C 0.203125 -6.390625 0.203125 -7.34375 0.203125 -7.34375 C 0.203125 -7.34375 1.1875 -7.34375 1.1875 -7.34375 C 1.1875 -7.34375 1.1875 -9.359375 1.1875 -9.359375 C 1.1875 -9.359375 2.359375 -9.359375 2.359375 -9.359375 C 2.359375 -9.359375 2.359375 -7.34375 2.359375 -7.34375 C 2.359375 -7.34375 3.5625 -7.34375 3.5625 -7.34375 C 3.5625 -7.34375 3.5625 -6.390625 3.5625 -6.390625 C 3.5625 -6.390625 2.359375 -6.390625 2.359375 -6.390625 C 2.359375 -6.390625 2.359375 -1.578125 2.359375 -1.578125 C 2.359375 -1.0625 2.484375 -0.921875 3 -0.921875 C 3.21875 -0.921875 3.40625 -0.9375 3.5625 -0.984375 C 3.5625 -0.984375 3.5625 0 3.5625 0 Z M 3.5625 0 "/>
</g>
<g id="glyph-0-6-b44e19e9">
<path d="M 2.140625 0 C 2.140625 0 0.984375 0 0.984375 0 C 0.984375 0 0.984375 -7.34375 0.984375 -7.34375 C 0.984375 -7.34375 2.140625 -7.34375 2.140625 -7.34375 C 2.140625 -7.34375 2.140625 0 2.140625 0 Z M 2.296875 -8.4375 C 2.296875 -8.4375 0.84375 -8.4375 0.84375 -8.4375 C 0.84375 -8.4375 0.84375 -9.890625 0.84375 -9.890625 C 0.84375 -9.890625 2.296875 -9.890625 2.296875 -9.890625 C 2.296875 -9.890625 2.296875 -8.4375 2.296875 -8.4375 Z M 2.296875 -8.4375 "/>
</g>
<g id="glyph-0-7-b44e19e9">
<path d="M 6.671875 -2.515625 C 6.53125 -0.84375 5.4375 0.203125 3.6875 0.203125 C 1.6875 0.203125 0.4375 -1.234375 0.4375 -3.59375 C 0.4375 -6.03125 1.71875 -7.546875 3.703125 -7.546875 C 5.328125 -7.546875 6.453125 -6.65625 6.59375 -4.875 C 6.59375 -4.875 5.421875 -4.875 5.421875 -4.875 C 5.28125 -5.890625 4.65625 -6.46875 3.6875 -6.46875 C 2.40625 -6.46875 1.65625 -5.4375 1.65625 -3.59375 C 1.65625 -1.859375 2.421875 -0.875 3.703125 -0.875 C 4.703125 -0.875 5.3125 -1.34375 5.5 -2.515625 C 5.5 -2.515625 6.671875 -2.515625 6.671875 -2.515625 Z M 6.671875 -2.515625 "/>
</g>
<g id="glyph-0-8-b44e19e9">
</g>
<g id="glyph-0-9-b44e19e9">
<path d="M 7.328125 -3.75 C 7.328125 -1.375 6.0625 0.203125 4.125 0.203125 C 3.109375 0.203125 2.359375 -0.203125 1.8125 -1.046875 C 1.8125 -1.046875 1.8125 0 1.8125 0 C 1.8125 0 0.75 0 0.75 0 C 0.75 0 0.75 -10.203125 0.75 -10.203125 C 0.75 -10.203125 1.921875 -10.203125 1.921875 -10.203125 C 1.921875 -10.203125 1.921875 -6.34375 1.921875 -6.34375 C 2.46875 -7.171875 3.171875 -7.546875 4.1875 -7.546875 C 6.125 -7.546875 7.328125 -6.125 7.328125 -3.75 Z M 6.109375 -3.6875 C 6.109375 -5.3125 5.265625 -6.453125 3.96875 -6.453125 C 2.734375 -6.515625 1.921875 -5.390625 1.921875 -3.671875 C 1.921875 -2 2.734375 -0.875 3.96875 -0.875 C 5.234375 -0.875 6.109375 -2.015625 6.109375 -3.6875 Z M 6.109375 -3.6875 "/>
</g>
<g id="glyph-0-10-b44e19e9">
<path d="M 7.140625 -3.609375 C 7.140625 -1.203125 5.875 0.203125 3.828125 0.203125 C 1.734375 0.203125 0.5 -1.203125 0.5 -3.671875 C 0.5 -6.125 1.75 -7.546875 3.8125 -7.546875 C 5.921875 -7.546875 7.140625 -6.140625 7.140625 -3.609375 Z M 5.921875 -3.625 C 5.921875 -5.453125 5.140625 -6.46875 3.828125 -6.46875 C 2.515625 -6.46875 1.71875 -5.4375 1.71875 -3.671875 C 1.71875 -1.890625 2.515625 -0.875 3.828125 -0.875 C 5.109375 -0.875 5.921875 -1.90625 5.921875 -3.625 Z M 5.921875 -3.625 "/>
</g>
<g id="glyph-0-11-b44e19e9">
<path d="M 6.421875 -2.0625 C 6.421875 -0.640625 5.25 0.203125 3.40625 0.203125 C 1.484375 0.203125 0.53125 -0.546875 0.46875 -2.234375 C 0.46875 -2.234375 1.703125 -2.234375 1.703125 -2.234375 C 1.859375 -1.125 2.453125 -0.875 3.5 -0.875 C 4.515625 -0.875 5.203125 -1.28125 5.203125 -1.953125 C 5.203125 -2.484375 4.890625 -2.734375 4.078125 -2.921875 C 4.078125 -2.921875 2.984375 -3.1875 2.984375 -3.1875 C 1.25 -3.609375 0.65625 -4.15625 0.65625 -5.3125 C 0.65625 -6.65625 1.765625 -7.546875 3.46875 -7.546875 C 5.171875 -7.546875 6.125 -6.734375 6.125 -5.296875 C 6.125 -5.296875 4.90625 -5.296875 4.90625 -5.296875 C 4.875 -6.0625 4.375 -6.46875 3.4375 -6.46875 C 2.484375 -6.46875 1.875 -6.03125 1.875 -5.359375 C 1.875 -4.84375 2.28125 -4.53125 3.234375 -4.3125 C 3.234375 -4.3125 4.359375 -4.046875 4.359375 -4.046875 C 5.8125 -3.703125 6.421875 -3.15625 6.421875 -2.0625 Z M 6.421875 -2.0625 "/>
</g>
<g id="glyph-0-12-b44e19e9">
<path d="M 7.328125 -3.59375 C 7.328125 -1.265625 6.078125 0.203125 4.1875 0.203125 C 3.234375 0.203125 2.546875 -0.125 1.9375 -0.875 C 1.9375 -0.875 1.9375 3.046875 1.9375 3.046875 C 1.9375 3.046875 0.765625 3.046875 0.765625 3.046875 C 0.765625 3.046875 0.765625 -7.34375 0.765625 -7.34375 C 0.765625 -7.34375 1.828125 -7.34375 1.828125 -7.34375 C 1.828125 -7.34375 1.828125 -6.234375 1.828125 -6.234375 C 2.375 -7.09375 3.171875 -7.546875 4.171875 -7.546875 C 6.125 -7.546875 7.328125 -6.0625 7.328125 -3.59375 Z M 6.109375 -3.625 C 6.109375 -5.375 5.265625 -6.453125 3.96875 -6.453125 C 2.75 -6.453125 1.9375 -5.328125 1.9375 -3.609375 C 1.9375 -1.890625 2.75 -0.875 3.96875 -0.875 C 5.25 -0.875 6.109375 -1.953125 6.109375 -3.625 Z M 6.109375 -3.625 "/>
</g>
<g id="glyph-0-13-b44e19e9">
<path d="M 3.609375 -6.390625 C 3.609375 -6.390625 2.390625 -6.390625 2.390625 -6.390625 C 2.390625 -6.390625 2.390625 0 2.390625 0 C 2.390625 0 1.234375 0 1.234375 0 C 1.234375 0 1.234375 -6.390625 1.234375 -6.390625 C 1.234375 -6.390625 0.25 -6.390625 0.25 -6.390625 C 0.25 -6.390625 0.25 -7.34375 0.25 -7.34375 C 0.25 -7.34375 1.234375 -7.34375 1.234375 -7.34375 C 1.234375 -7.34375 1.234375 -8.578125 1.234375 -8.578125 C 1.234375 -9.625 1.875 -10.25 2.953125 -10.25 C 3.1875 -10.25 3.34375 -10.234375 3.609375 -10.171875 C 3.609375 -10.171875 3.609375 -9.21875 3.609375 -9.21875 C 3.34375 -9.21875 3.296875 -9.21875 3.203125 -9.21875 C 2.671875 -9.21875 2.390625 -8.96875 2.390625 -8.484375 C 2.390625 -8.484375 2.390625 -7.34375 2.390625 -7.34375 C 2.390625 -7.34375 3.609375 -7.34375 3.609375 -7.34375 C 3.609375 -7.34375 3.609375 -6.390625 3.609375 -6.390625 Z M 3.609375 -6.390625 "/>
</g>
<g id="glyph-0-14-b44e19e9">
<path d="M 7.1875 -3.0625 C 7.1875 -1.015625 5.96875 0.203125 4.046875 0.203125 C 3.375 0.203125 2.734375 0 2.1875 -0.390625 C 2.1875 -0.390625 2.1875 3.21875 2.1875 3.21875 C 2.1875 3.21875 1.015625 3.21875 1.015625 3.21875 C 1.015625 3.21875 1.015625 -7.53125 1.015625 -7.53125 C 1.015625 -9.390625 2.390625 -10.203125 3.96875 -10.203125 C 5.625 -10.203125 6.75 -9.171875 6.75 -7.625 C 6.75 -6.640625 6.265625 -5.984375 5.21875 -5.609375 C 6.578125 -5.15625 7.1875 -4.375 7.1875 -3.0625 Z M 5.96875 -2.984375 C 5.96875 -4.4375 5.15625 -4.890625 3.484375 -4.890625 C 3.484375 -4.890625 3.484375 -6.03125 3.484375 -6.03125 C 3.484375 -6.03125 3.609375 -6.03125 3.609375 -6.03125 C 4.734375 -6.03125 5.53125 -6.671875 5.53125 -7.59375 C 5.53125 -8.484375 4.84375 -9.109375 3.875 -9.109375 C 2.859375 -9.109375 2.1875 -8.5 2.1875 -7.53125 C 2.1875 -7.53125 2.1875 -1.546875 2.1875 -1.546875 C 2.671875 -1.15625 3.296875 -0.9375 3.9375 -0.9375 C 5.140625 -0.9375 5.96875 -1.734375 5.96875 -2.984375 Z M 5.96875 -2.984375 "/>
</g>
<g id="glyph-0-15-b44e19e9">
<path d="M 4.859375 0 C 4.859375 0 3.625 0 3.625 0 C 3.625 0 3.625 -7.0625 3.625 -7.0625 C 3.625 -7.0625 1.421875 -7.0625 1.421875 -7.0625 C 1.421875 -7.0625 1.421875 -7.953125 1.421875 -7.953125 C 3.328125 -8.1875 3.609375 -8.40625 4.046875 -9.921875 C 4.046875 -9.921875 4.859375 -9.921875 4.859375 -9.921875 C 4.859375 -9.921875 4.859375 0 4.859375 0 Z M 4.859375 0 "/>
</g>
<g id="glyph-0-16-b44e19e9">
<path d="M 7.28125 -2.375 C 7.28125 -2.375 5.8125 -2.375 5.8125 -2.375 C 5.8125 -2.375 5.8125 0 5.8125 0 C 5.8125 0 4.578125 0 4.578125 0 C 4.578125 0 4.578125 -2.375 4.578125 -2.375 C 4.578125 -2.375 0.390625 -2.375 0.390625 -2.375 C 0.390625 -2.375 0.390625 -3.6875 0.390625 -3.6875 C 0.390625 -3.6875 4.90625 -9.921875 4.90625 -9.921875 C 4.90625 -9.921875 5.8125 -9.921875 5.8125 -9.921875 C 5.8125 -9.921875 5.8125 -3.484375 5.8125 -3.484375 C 5.8125 -3.484375 7.28125 -3.484375 7.28125 -3.484375 C 7.28125 -3.484375 7.28125 -2.375 7.28125 -2.375 Z M 4.578125 -3.484375 C 4.578125 -3.484375 4.578125 -7.828125 4.578125 -7.828125 C 4.578125 -7.828125 1.46875 -3.484375 1.46875 -3.484375 C 1.46875 -3.484375 4.578125 -3.484375 4.578125 -3.484375 Z M 4.578125 -3.484375 "/>
</g>
<g id="glyph-0-17-b44e19e9">
<path d="M 7.1875 -3.296875 C 7.1875 -1.1875 5.78125 0.203125 3.78125 0.203125 C 2.015625 0.203125 0.890625 -0.578125 0.484375 -2.546875 C 0.484375 -2.546875 1.71875 -2.546875 1.71875 -2.546875 C 2.015625 -1.421875 2.671875 -0.875 3.75 -0.875 C 5.09375 -0.875 5.921875 -1.6875 5.921875 -3.125 C 5.921875 -4.59375 5.078125 -5.453125 3.75 -5.453125 C 2.984375 -5.453125 2.5 -5.203125 1.9375 -4.515625 C 1.9375 -4.515625 0.796875 -4.515625 0.796875 -4.515625 C 0.796875 -4.515625 1.546875 -9.71875 1.546875 -9.71875 C 1.546875 -9.71875 6.65625 -9.71875 6.65625 -9.71875 C 6.65625 -9.71875 6.65625 -8.5 6.65625 -8.5 C 6.65625 -8.5 2.53125 -8.5 2.53125 -8.5 C 2.53125 -8.5 2.140625 -5.9375 2.140625 -5.9375 C 2.71875 -6.359375 3.28125 -6.53125 3.96875 -6.53125 C 5.875 -6.53125 7.1875 -5.25 7.1875 -3.296875 Z M 7.1875 -3.296875 "/>
</g>
<g id="glyph-0-18-b44e19e9">
<path d="M 7.09375 -4.78125 C 7.09375 -1.515625 5.953125 0.203125 3.84375 0.203125 C 1.71875 0.203125 0.609375 -1.515625 0.609375 -4.859375 C 0.609375 -8.1875 1.703125 -9.921875 3.84375 -9.921875 C 6 -9.921875 7.09375 -8.21875 7.09375 -4.78125 Z M 5.84375 -4.890625 C 5.84375 -7.546875 5.1875 -8.828125 3.84375 -8.828125 C 2.515625 -8.828125 1.859375 -7.5625 1.859375 -4.84375 C 1.859375 -2.125 2.515625 -0.8125 3.828125 -0.8125 C 5.1875 -0.8125 5.84375 -2.078125 5.84375 -4.890625 Z M 5.84375 -4.890625 "/>
</g>
<g id="glyph-0-19-b44e19e9">
<path d="M 7.1875 -3.078125 C 7.1875 -1.140625 5.828125 0.203125 3.9375 0.203125 C 1.671875 0.203125 0.609375 -1.421875 0.609375 -4.515625 C 0.609375 -7.984375 1.84375 -9.921875 4.15625 -9.921875 C 5.671875 -9.921875 6.734375 -8.953125 6.96875 -7.34375 C 6.96875 -7.34375 5.734375 -7.34375 5.734375 -7.34375 C 5.546875 -8.28125 4.9375 -8.828125 4.078125 -8.828125 C 2.65625 -8.828125 1.875 -7.484375 1.859375 -5.0625 C 2.390625 -5.796875 3.15625 -6.171875 4.140625 -6.171875 C 5.921875 -6.171875 7.1875 -4.921875 7.1875 -3.078125 Z M 5.921875 -2.984375 C 5.921875 -4.3125 5.1875 -5.078125 3.984375 -5.078125 C 2.765625 -5.078125 1.9375 -4.28125 1.9375 -3.046875 C 1.9375 -1.78125 2.796875 -0.875 3.953125 -0.875 C 5.078125 -0.875 5.921875 -1.734375 5.921875 -2.984375 Z M 5.921875 -2.984375 "/>
</g>
<g id="glyph-0-20-b44e19e9">
<path d="M 2.671875 0 C 2.671875 0 1.21875 0 1.21875 0 C 1.21875 0 1.21875 -1.453125 1.21875 -1.453125 C 1.21875 -1.453125 2.671875 -1.453125 2.671875 -1.453125 C 2.671875 -1.453125 2.671875 0 2.671875 0 Z M 2.671875 0 "/>
</g>
<g id="glyph-0-21-b44e19e9">
<path d="M 7.15625 -7.015625 C 7.15625 -5.796875 6.4375 -4.765625 5.046875 -4.015625 C 5.046875 -4.015625 3.65625 -3.265625 3.65625 -3.265625 C 2.4375 -2.546875 1.984375 -2.03125 1.859375 -1.21875 C 1.859375 -1.21875 7.078125 -1.21875 7.078125 -1.21875 C 7.078125 -1.21875 7.078125 0 7.078125 0 C 7.078125 0 0.46875 0 0.46875 0 C 0.59375 -2.1875 1.1875 -3.125 3.265625 -4.296875 C 3.265625 -4.296875 4.546875 -5.03125 4.546875 -5.03125 C 5.4375 -5.53125 5.890625 -6.203125 5.890625 -6.984375 C 5.890625 -8.046875 5.046875 -8.84375 3.9375 -8.84375 C 2.71875 -8.84375 2.03125 -8.140625 1.9375 -6.484375 C 1.9375 -6.484375 0.703125 -6.484375 0.703125 -6.484375 C 0.765625 -8.890625 1.953125 -9.921875 3.96875 -9.921875 C 5.859375 -9.921875 7.15625 -8.6875 7.15625 -7.015625 Z M 7.15625 -7.015625 "/>
</g>
<g id="glyph-1-0-b44e19e9">
<path d="M 1.0625 -0.75 L 2.46875 -0.75 L 2.46875 -4.9375 L 0.9375 -4.65625 L 0.9375 -5.453125 L 2.515625 -5.71875 L 3.453125 -5.71875 L 3.453125 -0.75 L 4.84375 -0.75 L 4.84375 0 L 1.0625 0 Z M 1.0625 -0.75 "/>
</g>
</g>
</defs>
<rect x="-60" y="-45" width="720" height="540" fill="rgb(100%, 100%, 100%)" fill-opacity="1"/>
<path fill-rule="nonzero" fill="rgb(100%, 100%, 100%)" fill-opacity="1" d="M 60 391 L 584 391 L 584 16 L 60 16 Z M 60 391 "/>
<path fill="none" stroke-width="1" stroke-linecap="butt" stroke-linejoin="miter" stroke="rgb(0%, 0%, 0%)" stroke-opacity="0.12" stroke-miterlimit="1.154701" d="M 91.769531 391 L 91.769531 16 "/>
<path fill="none" stroke-width="1" stroke-linecap="butt" stroke-linejoin="miter" stroke="rgb(0%, 0%, 0%)" stroke-opacity="0.12" stroke-miterlimit="1.154701" d="M 246.722656 391 L 246.722656 16 "/>
<path fill="none" stroke-width="1" stroke-linecap="butt" stroke-linejoin="miter" stroke="rgb(0%, 0%, 0%)" stroke-opacity="0.12" stroke-miterlimit="1.154701" d="M 401.675781 391 L 401.675781 16 "/>
<path fill="none" stroke-width="1" stroke-linecap="butt" stroke-linejoin="miter" stroke="rgb(0%, 0%, 0%)" stroke-opacity="0.12" stroke-miterlimit="1.154701" d="M 556.628906 391 L 556.628906 16 "/>
<path fill="none" stroke-width="1" stroke-linecap="butt" stroke-linejoin="miter" stroke="rgb(0%, 0%, 0%)" stroke-opacity="0.12" stroke-miterlimit="1.154701" d="M 60 373.953125 L 584 373.953125 "/>
<path fill="none" stroke-width="1" stroke-linecap="butt" stroke-linejoin="miter" stroke="rgb(0%, 0%, 0%)" stroke-opacity="0.12" stroke-miterlimit="1.154701" d="M 60 296.1875 L 584 296.1875 "/>
<path fill="none" stroke-width="1" stroke-linecap="butt" stroke-linejoin="miter" stroke="rgb(0%, 0%, 0%)" stroke-opacity="0.12" stroke-miterlimit="1.154701" d="M 60 218.421875 L 584 218.421875 "/>
<path fill="none" stroke-width="1" stroke-linecap="butt" stroke-linejoin="miter" stroke="rgb(0%, 0%, 0%)" stroke-opacity="0.12" stroke-miterlimit="1.154701" d="M 60 140.652344 L 584 140.652344 "/>
<path fill="none" stroke-width="1" stroke-linecap="butt" stroke-linejoin="miter" stroke="rgb(0%, 0%, 0%)" stroke-opacity="0.12" stroke-miterlimit="1.154701" d="M 60 62.886719 L 584 62.886719 "/>
<g fill="rgb(0%, 0%, 0%)" fill-opacity="1">
<use xlink:href="#glyph-0-0-b44e19e9" x="208.754873" y="431.567999"/>
<use xlink:href="#glyph-0-1-b44e19e9" x="218.09287" y="431.567999"/>
<use xlink:href="#glyph-0-2-b44e19e9" x="225.876875" y="431.567999"/>
<use xlink:href="#glyph-0-1-b44e19e9" x="230.53887" y="431.567999"/>
<use xlink:href="#glyph-0-3-b44e19e9" x="238.322874" y="431.567999"/>
<use xlink:href="#glyph-0-4-b44e19e9" x="249.984869" y="431.567999"/>
<use xlink:href="#glyph-0-5-b44e19e9" x="257.768874" y="431.567999"/>
<use xlink:href="#glyph-0-2-b44e19e9" x="261.660872" y="431.567999"/>
<use xlink:href="#glyph-0-6-b44e19e9" x="266.322871" y="431.567999"/>
<use xlink:href="#glyph-0-7-b44e19e9" x="269.430873" y="431.567999"/>
<use xlink:href="#glyph-0-8-b44e19e9" x="276.430869" y="431.567999"/>
<use xlink:href="#glyph-0-9-b44e19e9" x="280.322868" y="431.567999"/>
<use xlink:href="#glyph-0-10-b44e19e9" x="288.106864" y="431.567999"/>
<use xlink:href="#glyph-0-10-b44e19e9" x="295.890861" y="431.567999"/>
<use xlink:href="#glyph-0-5-b44e19e9" x="303.674858" y="431.567999"/>
<use xlink:href="#glyph-0-11-b44e19e9" x="307.566856" y="431.567999"/>
<use xlink:href="#glyph-0-5-b44e19e9" x="314.566856" y="431.567999"/>
<use xlink:href="#glyph-0-2-b44e19e9" x="318.458855" y="431.567999"/>
<use xlink:href="#glyph-0-1-b44e19e9" x="323.120857" y="431.567999"/>
<use xlink:href="#glyph-0-12-b44e19e9" x="330.904854" y="431.567999"/>
<use xlink:href="#glyph-0-8-b44e19e9" x="338.688851" y="431.567999"/>
<use xlink:href="#glyph-0-4-b44e19e9" x="342.580849" y="431.567999"/>
<use xlink:href="#glyph-0-11-b44e19e9" x="350.364846" y="431.567999"/>
<use xlink:href="#glyph-0-5-b44e19e9" x="357.364846" y="431.567999"/>
<use xlink:href="#glyph-0-6-b44e19e9" x="361.256845" y="431.567999"/>
<use xlink:href="#glyph-0-3-b44e19e9" x="364.364846" y="431.567999"/>
<use xlink:href="#glyph-0-1-b44e19e9" x="376.026849" y="431.567999"/>
<use xlink:href="#glyph-0-5-b44e19e9" x="383.810846" y="431.567999"/>
<use xlink:href="#glyph-0-4-b44e19e9" x="387.702844" y="431.567999"/>
<use xlink:href="#glyph-0-11-b44e19e9" x="395.486841" y="431.567999"/>
<use xlink:href="#glyph-0-8-b44e19e9" x="402.486841" y="431.567999"/>
<use xlink:href="#glyph-0-10-b44e19e9" x="406.37884" y="431.567999"/>
<use xlink:href="#glyph-0-13-b44e19e9" x="414.162837" y="431.567999"/>
<use xlink:href="#glyph-0-8-b44e19e9" x="418.054835" y="431.567999"/>
<use xlink:href="#glyph-0-14-b44e19e9" x="421.946833" y="431.567999"/>
</g>
<g fill="rgb(0%, 0%, 0%)" fill-opacity="1">
<use xlink:href="#glyph-1-0-b44e19e9" x="429.632838" y="431.567999"/>
</g>
<g fill="rgb(0%, 0%, 0%)" fill-opacity="1">
<use xlink:href="#glyph-0-15-b44e19e9" x="76.201365" y="412.257999"/>
<use xlink:href="#glyph-0-16-b44e19e9" x="83.985366" y="412.257999"/>
<use xlink:href="#glyph-0-17-b44e19e9" x="91.769366" y="412.257999"/>
<use xlink:href="#glyph-0-18-b44e19e9" x="99.553365" y="412.257999"/>
</g>
<g fill="rgb(0%, 0%, 0%)" fill-opacity="1">
<use xlink:href="#glyph-0-15-b44e19e9" x="231.154509" y="412.257999"/>
<use xlink:href="#glyph-0-17-b44e19e9" x="238.93851" y="412.257999"/>
<use xlink:href="#glyph-0-18-b44e19e9" x="246.72251" y="412.257999"/>
<use xlink:href="#glyph-0-18-b44e19e9" x="254.506509" y="412.257999"/>
</g>
<g fill="rgb(0%, 0%, 0%)" fill-opacity="1">
<use xlink:href="#glyph-0-15-b44e19e9" x="386.107669" y="412.257999"/>
<use xlink:href="#glyph-0-17-b44e19e9" x="393.891669" y="412.257999"/>
<use xlink:href="#glyph-0-17-b44e19e9" x="401.675669" y="412.257999"/>
<use xlink:href="#glyph-0-18-b44e19e9" x="409.459669" y="412.257999"/>
</g>
<g fill="rgb(0%, 0%, 0%)" fill-opacity="1">
<use xlink:href="#glyph-0-15-b44e19e9" x="541.060797" y="412.257999"/>
<use xlink:href="#glyph-0-19-b44e19e9" x="548.844798" y="412.257999"/>
<use xlink:href="#glyph-0-18-b44e19e9" x="556.628798" y="412.257999"/>
<use xlink:href="#glyph-0-18-b44e19e9" x="564.412797" y="412.257999"/>
</g>
<g fill="rgb(0%, 0%, 0%)" fill-opacity="1">
<use xlink:href="#glyph-0-18-b44e19e9" x="14.972" y="379.057543"/>
<use xlink:href="#glyph-0-20-b44e19e9" x="22.756001" y="379.057543"/>
<use xlink:href="#glyph-0-18-b44e19e9" x="26.647999" y="379.057543"/>
<use xlink:href="#glyph-0-18-b44e19e9" x="34.432" y="379.057543"/>
<use xlink:href="#glyph-0-18-b44e19e9" x="42.216001" y="379.057543"/>
</g>
<g fill="rgb(0%, 0%, 0%)" fill-opacity="1">
<use xlink:href="#glyph-0-18-b44e19e9" x="14.972" y="301.290756"/>
<use xlink:href="#glyph-0-20-b44e19e9" x="22.756001" y="301.290756"/>
<use xlink:href="#glyph-0-18-b44e19e9" x="26.647999" y="301.290756"/>
<use xlink:href="#glyph-0-18-b44e19e9" x="34.432" y="301.290756"/>
<use xlink:href="#glyph-0-17-b44e19e9" x="42.216001" y="301.290756"/>
</g>
<g fill="rgb(0%, 0%, 0%)" fill-opacity="1">
<use xlink:href="#glyph-0-18-b44e19e9" x="14.972" y="223.523969"/>
<use xlink:href="#glyph-0-20-b44e19e9" x="22.756001" y="223.523969"/>
<use xlink:href="#glyph-0-18-b44e19e9" x="26.647999" y="223.523969"/>
<use xlink:href="#glyph-0-15-b44e19e9" x="34.432" y="223.523969"/>
<use xlink:href="#glyph-0-18-b44e19e9" x="42.216001" y="223.523969"/>
</g>
<g fill="rgb(0%, 0%, 0%)" fill-opacity="1">
<use xlink:href="#glyph-0-18-b44e19e9" x="14.972" y="145.757198"/>
<use xlink:href="#glyph-0-20-b44e19e9" x="22.756001" y="145.757198"/>
<use xlink:href="#glyph-0-18-b44e19e9" x="26.647999" y="145.757198"/>
<use xlink:href="#glyph-0-15-b44e19e9" x="34.432" y="145.757198"/>
<use xlink:href="#glyph-0-17-b44e19e9" x="42.216001" y="145.757198"/>
</g>
<g fill="rgb(0%, 0%, 0%)" fill-opacity="1">
<use xlink:href="#glyph-0-18-b44e19e9" x="14.972" y="67.990412"/>
<use xlink:href="#glyph-0-20-b44e19e9" x="22.756001" y="67.990412"/>
<use xlink:href="#glyph-0-18-b44e19e9" x="26.647999" y="67.990412"/>
<use xlink:href="#glyph-0-21-b44e19e9" x="34.432" y="67.990412"/>
<use xlink:href="#glyph-0-18-b44e19e9" x="42.216001" y="67.990412"/>
</g>
<path fill-rule="nonzero" fill="rgb(19.999999%, 55.764699%, 75.843138%)" fill-opacity="1" d="M 83.820312 373.953125 L 91 373.953125 L 93.394531 373.949219 L 95.789062 373.941406 L 98.179688 373.929688 L 100.574219 373.910156 L 102.96875 373.878906 L 105.363281 373.835938 L 107.757812 373.785156 L 110.148438 373.734375 L 114.9375 373.640625 L 117.332031 373.601562 L 119.726562 373.558594 L 122.121094 373.5 L 124.511719 373.417969 L 126.90625 373.316406 L 131.695312 373.082031 L 134.089844 372.972656 L 136.480469 372.882812 L 138.875 372.8125 L 141.269531 372.753906 L 143.664062 372.6875 L 146.058594 372.574219 L 148.449219 372.378906 L 150.84375 372.089844 L 153.238281 371.707031 L 155.632812 371.253906 L 158.027344 370.769531 L 160.417969 370.273438 L 162.8125 369.761719 L 165.207031 369.207031 L 167.601562 368.589844 L 169.996094 367.898438 L 172.386719 367.160156 L 174.78125 366.417969 L 177.175781 365.71875 L 179.570312 365.066406 L 181.964844 364.421875 L 184.359375 363.699219 L 186.75 362.785156 L 189.144531 361.582031 L 191.539062 360.039062 L 193.933594 358.152344 L 196.328125 355.964844 L 198.71875 353.558594 L 201.113281 351.015625 L 203.507812 348.40625 L 208.296875 343.132812 L 210.6875 340.496094 L 213.082031 337.851562 L 215.476562 335.167969 L 217.871094 332.378906 L 220.265625 329.382812 L 222.660156 326.0625 L 225.050781 322.320312 L 227.445312 318.09375 L 229.839844 313.394531 L 232.234375 308.257812 L 234.628906 302.722656 L 237.019531 296.808594 L 239.414062 290.496094 L 241.808594 283.800781 L 244.203125 276.785156 L 246.597656 269.582031 L 248.988281 262.324219 L 251.382812 255.085938 L 253.777344 247.804688 L 256.171875 240.300781 L 258.566406 232.363281 L 260.960938 223.851562 L 263.351562 214.761719 L 265.746094 205.210938 L 268.140625 195.382812 L 270.535156 185.425781 L 272.929688 175.4375 L 275.320312 165.464844 L 277.714844 155.542969 L 280.109375 145.691406 L 282.503906 135.925781 L 284.898438 126.246094 L 287.289062 116.648438 L 289.683594 107.148438 L 292.078125 97.820312 L 294.472656 88.804688 L 296.867188 80.292969 L 299.257812 72.476562 L 301.652344 65.515625 L 304.046875 59.539062 L 306.441406 54.613281 L 308.835938 50.746094 L 311.226562 47.835938 L 313.621094 45.675781 L 316.015625 43.96875 L 318.410156 42.433594 L 320.804688 40.886719 L 323.199219 39.316406 L 325.589844 37.832031 L 327.984375 36.558594 L 330.378906 35.546875 L 332.773438 34.726562 L 335.167969 33.988281 L 337.558594 33.355469 L 339.953125 33.046875 L 342.347656 33.476562 L 344.742188 35.089844 L 347.136719 38.164062 L 349.527344 42.683594 L 351.921875 48.359375 L 354.316406 54.761719 L 356.710938 61.492188 L 359.105469 68.3125 L 361.5 75.1875 L 363.890625 82.226562 L 366.285156 89.605469 L 368.679688 97.445312 L 371.074219 105.75 L 373.46875 114.351562 L 375.859375 122.976562 L 378.253906 131.328125 L 380.648438 139.234375 L 383.042969 146.6875 L 385.4375 153.867188 L 387.828125 161.046875 L 390.222656 168.488281 L 392.617188 176.378906 L 395.011719 184.800781 L 397.40625 193.71875 L 399.796875 203.019531 L 402.191406 212.523438 L 404.585938 222.019531 L 406.980469 231.296875 L 409.375 240.191406 L 411.765625 248.621094 L 414.160156 256.59375 L 416.554688 264.199219 L 418.949219 271.542969 L 421.34375 278.710938 L 423.738281 285.730469 L 426.128906 292.570312 L 428.523438 299.160156 L 430.917969 305.421875 L 433.3125 311.28125 L 435.707031 316.6875 L 438.097656 321.617188 L 440.492188 326.074219 L 442.886719 330.085938 L 445.28125 333.695312 L 447.675781 336.957031 L 450.066406 339.929688 L 452.460938 342.679688 L 454.855469 345.269531 L 457.25 347.75 L 459.644531 350.152344 L 462.039062 352.484375 L 464.429688 354.75 L 466.824219 356.9375 L 469.21875 359.039062 L 471.613281 361.035156 L 474.007812 362.902344 L 476.398438 364.589844 L 478.792969 366.0625 L 481.1875 367.296875 L 483.582031 368.304688 L 485.976562 369.117188 L 488.367188 369.785156 L 490.761719 370.355469 L 493.15625 370.863281 L 495.550781 371.320312 L 497.945312 371.726562 L 500.335938 372.078125 L 502.730469 372.367188 L 505.125 372.59375 L 507.519531 372.761719 L 509.914062 372.886719 L 512.304688 372.984375 L 514.699219 373.066406 L 517.09375 373.140625 L 519.488281 373.210938 L 521.882812 373.277344 L 524.277344 373.347656 L 526.667969 373.417969 L 529.0625 373.496094 L 533.851562 373.667969 L 536.246094 373.746094 L 538.636719 373.816406 L 541.03125 373.867188 L 543.425781 373.90625 L 545.820312 373.929688 L 548.214844 373.941406 L 550.605469 373.949219 L 553 373.953125 L 560.183594 373.953125 Z M 83.820312 373.953125 "/>
<path fill="none" stroke-width="1" stroke-linecap="butt" stroke-linejoin="miter" stroke="rgb(0%, 0%, 0%)" stroke-opacity="1" stroke-miterlimit="1.154701" d="M 91.769531 391.5 L 91.769531 396.5 "/>
<path fill="none" stroke-width="1" stroke-linecap="butt" stroke-linejoin="miter" stroke="rgb(0%, 0%, 0%)" stroke-opacity="1" stroke-miterlimit="1.154701" d="M 246.722656 391.5 L 246.722656 396.5 "/>
<path fill="none" stroke-width="1" stroke-linecap="butt" stroke-linejoin="miter" stroke="rgb(0%, 0%, 0%)" stroke-opacity="1" stroke-miterlimit="1.154701" d="M 401.675781 391.5 L 401.675781 396.5 "/>
<path fill="none" stroke-width="1" stroke-linecap="butt" stroke-linejoin="miter" stroke="rgb(0%, 0%, 0%)" stroke-opacity="1" stroke-miterlimit="1.154701" d="M 556.628906 391.5 L 556.628906 396.5 "/>
<path fill="none" stroke-width="1" stroke-linecap="butt" stroke-linejoin="miter" stroke="rgb(0%, 0%, 0%)" stroke-opacity="1" stroke-miterlimit="1.154701" d="M 59.5 373.953125 L 54.5 373.953125 "/>
<path fill="none" stroke-width="1" stroke-linecap="butt" stroke-linejoin="miter" stroke="rgb(0%, 0%, 0%)" stroke-opacity="1" stroke-miterlimit="1.154701" d="M 59.5 296.1875 L 54.5 296.1875 "/>
<path fill="none" stroke-width="1" stroke-linecap="butt" stroke-linejoin="miter" stroke="rgb(0%, 0%, 0%)" stroke-opacity="1" stroke-miterlimit="1.154701" d="M 59.5 218.421875 L 54.5 218.421875 "/>
<path fill="none" stroke-width="1" stroke-linecap="butt" stroke-linejoin="miter" stroke="rgb(0%, 0%, 0%)" stroke-opacity="1" stroke-miterlimit="1.154701" d="M 59.5 140.652344 L 54.5 140.652344 "/>
<path fill="none" stroke-width="1" stroke-linecap="butt" stroke-linejoin="miter" stroke="rgb(0%, 0%, 0%)" stroke-opacity="1" stroke-miterlimit="1.154701" d="M 59.5 62.886719 L 54.5 62.886719 "/>
<path fill="none" stroke-width="1" stroke-linecap="butt" stroke-linejoin="miter" stroke="rgb(0%, 0%, 0%)" stroke-opacity="1" stroke-miterlimit="1.154701" d="M 59.5 391 L 584.5 391 "/>
<path fill="none" stroke-width="1" stroke-linecap="butt" stroke-linejoin="miter" stroke="rgb(0%, 0%, 0%)" stroke-opacity="1" stroke-miterlimit="1.154701" d="M 60 391.5 L 60 15.5 "/>
<path fill="none" stroke-width="1" stroke-linecap="butt" stroke-linejoin="miter" stroke="rgb(0%, 0%, 0%)" stroke-opacity="1" stroke-miterlimit="1.154701" d="M 59.5 16 L 584.5 16 "/>
<path fill="none" stroke-width="1" stroke-linecap="butt" stroke-linejoin="miter" stroke="rgb(0%, 0%, 0%)" stroke-opacity="1" stroke-miterlimit="1.154701" d="M 584 391.5 L 584 15.5 "/>
</svg>
