<?xml version="1.0" encoding="UTF-8"?>
<svg xmlns="http://www.w3.org/2000/svg"
     xmlns:xlink="http://www.w3.org/1999/xlink"
     xmlns:gadfly="http://www.gadflyjl.org/ns"
     version="1.2"
     width="203.2mm" height="101.6mm" viewBox="0 0 203.2 101.6"
     stroke="none"
     fill="#000000"
     stroke-width="0.3"
     font-size="3.88"
>
<g class="plotroot xscalable yscalable" id="img-a5a3f5c1-1">
  <g font-size="3.88" font-family="'PT Sans','Helvetica Neue','Helvetica',sans-serif" fill="#564A55" stroke="#000000" stroke-opacity="0.000" id="img-a5a3f5c1-2">
    <text x="107.12" y="89.99" text-anchor="middle" dy="0.6em">Parametric bootstrap estimates of σ₁²</text>
  </g>
  <g class="guide xlabels" font-size="2.82" font-family="'PT Sans Caption','Helvetica Neue','Helvetica',sans-serif" fill="#6C606B" id="img-a5a3f5c1-3">
    <text x="18.04" y="83.32" text-anchor="middle" dy="0.6em">-5.0×10³</text>
    <text x="77.43" y="83.32" text-anchor="middle" dy="0.6em">0</text>
    <text x="136.81" y="83.32" text-anchor="middle" dy="0.6em">5.0×10³</text>
    <text x="196.2" y="83.32" text-anchor="middle" dy="0.6em">1.0×10⁴</text>
  </g>
<g clip-path="url(#img-a5a3f5c1-4)">
  <g id="img-a5a3f5c1-5">
    <g pointer-events="visible" opacity="1" fill="#000000" fill-opacity="0.000" stroke="#000000" stroke-opacity="0.000" class="guide background" id="img-a5a3f5c1-6">
      <rect x="16.04" y="5" width="182.16" height="77.32"/>
    </g>
    <g class="guide ygridlines xfixed" stroke-dasharray="0.5,0.5" stroke-width="0.2" stroke="#D0D0E0" id="img-a5a3f5c1-7">
      <path fill="none" d="M16.04,80.32 L 198.2 80.32"/>
      <path fill="none" d="M16.04,61.99 L 198.2 61.99"/>
      <path fill="none" d="M16.04,43.66 L 198.2 43.66"/>
      <path fill="none" d="M16.04,25.33 L 198.2 25.33"/>
      <path fill="none" d="M16.04,7 L 198.2 7"/>
    </g>
    <g class="guide xgridlines yfixed" stroke-dasharray="0.5,0.5" stroke-width="0.2" stroke="#D0D0E0" id="img-a5a3f5c1-8">
      <path fill="none" d="M18.04,5 L 18.04 82.32"/>
      <path fill="none" d="M77.43,5 L 77.43 82.32"/>
      <path fill="none" d="M136.81,5 L 136.81 82.32"/>
      <path fill="none" d="M196.2,5 L 196.2 82.32"/>
    </g>
    <g class="plotpanel" id="img-a5a3f5c1-9">
      <g stroke-width="0.3" fill="#000000" fill-opacity="0.000" class="geometry" stroke-dasharray="none" stroke="#00BFFF" id="img-a5a3f5c1-10">
        <path fill="none" d="M73.44,80.3 L 73.89 80.23 74.33 79.93 74.77 78.9 75.21 76.08 75.66 69.84 76.1 58.88 76.54 43.91 76.99 28.65 77.43 18.28 77.87 15.93 78.31 20.39 78.76 27.48 79.2 33.4 79.64 36.67 80.09 37.78 80.53 37.76 80.97 37.39 81.41 37.02 81.86 36.76 82.3 36.62 82.74 36.6 83.18 36.69 83.63 36.89 84.07 37.16 84.51 37.46 84.96 37.77 85.4 38.06 85.84 38.36 86.28 38.68 86.73 39.03 87.17 39.42 87.61 39.85 88.06 40.36 88.5 40.97 88.94 41.68 89.38 42.51 89.83 43.44 90.27 44.43 90.71 45.41 91.16 46.3 91.6 47.11 92.04 47.86 92.48 48.66 92.93 49.55 93.37 50.54 93.81 51.57 94.26 52.56 94.7 53.47 95.14 54.29 95.58 55.04 96.03 55.76 96.47 56.46 96.91 57.17 97.35 57.9 97.8 58.67 98.24 59.43 98.68 60.18 99.13 60.89 99.57 61.57 100.01 62.22 100.45 62.84 100.9 63.45 101.34 64.04 101.78 64.65 102.23 65.24 102.67 65.81 103.11 66.35 103.55 66.86 104 67.36 104.44 67.86 104.88 68.35 105.33 68.81 105.77 69.22 106.21 69.6 106.65 69.97 107.1 70.34 107.54 70.72 107.98 71.09 108.43 71.45 108.87 71.79 109.31 72.12 109.75 72.44 110.2 72.75 110.64 73.05 111.08 73.35 111.53 73.66 111.97 73.96 112.41 74.26 112.85 74.54 113.3 74.8 113.74 75.05 114.18 75.3 114.62 75.55 115.07 75.79 115.51 76 115.95 76.19 116.4 76.36 116.84 76.52 117.28 76.7 117.72 76.89 118.17 77.1 118.61 77.3 119.05 77.47 119.5 77.61 119.94 77.73 120.38 77.83 120.82 77.91 121.27 77.99 121.71 78.06 122.15 78.13 122.6 78.21 123.04 78.28 123.48 78.37 123.92 78.45 124.37 78.54 124.81 78.62 125.25 78.71 125.7 78.78 126.14 78.85 126.58 78.92 127.02 78.97 127.47 79.03 127.91 79.08 128.35 79.13 128.79 79.18 129.24 79.22 129.68 79.27 130.12 79.33 130.57 79.4 131.01 79.47 131.45 79.52 131.89 79.57 132.34 79.6 132.78 79.64 133.22 79.67 133.67 79.7 134.11 79.73 134.55 79.75 134.99 79.75 135.44 79.76 135.88 79.78 136.32 79.81 136.77 79.84 137.21 79.87 137.65 79.89 138.09 79.9 138.54 79.92 138.98 79.94 139.42 79.96 139.87 79.99 140.31 80 140.75 80.02 141.19 80.04 141.64 80.05 142.08 80.07 142.52 80.08 142.96 80.09 143.41 80.09 143.85 80.1 144.29 80.11 144.74 80.12 145.18 80.13 145.62 80.14 146.06 80.14 146.51 80.15 146.95 80.15 147.39 80.15 147.84 80.15 148.28 80.15 148.72 80.16 149.16 80.17 149.61 80.18 150.05 80.19 150.49 80.2 150.94 80.22 151.38 80.24 151.82 80.25 152.26 80.27 152.71 80.27 153.15 80.27 153.59 80.26 154.04 80.25 154.48 80.25 154.92 80.25 155.36 80.25 155.81 80.26 156.25 80.27 156.69 80.28 157.14 80.28 157.58 80.29 158.02 80.29 158.46 80.29 158.91 80.29 159.35 80.29 159.79 80.29 160.23 80.29 160.68 80.29 161.12 80.29 161.56 80.3 162.01 80.3 162.45 80.3 162.89 80.29 163.33 80.29 163.78 80.29 164.22 80.29 164.66 80.29 165.11 80.29 165.55 80.29 165.99 80.29 166.43 80.29 166.88 80.3 167.32 80.3 167.76 80.3 168.21 80.29 168.65 80.29 169.09 80.3 169.53 80.3 169.98 80.3 170.42 80.31 170.86 80.31 171.31 80.31 171.75 80.31 172.19 80.31 172.63 80.31 173.08 80.31 173.52 80.31 173.96 80.31 174.4 80.31 174.85 80.31 175.29 80.31 175.73 80.31 176.18 80.31 176.62 80.31 177.06 80.31 177.5 80.31 177.95 80.31 178.39 80.31 178.83 80.31 179.28 80.31 179.72 80.31 180.16 80.31 180.6 80.31 181.05 80.31 181.49 80.31 181.93 80.31 182.38 80.31 182.82 80.31 183.26 80.31 183.7 80.31 184.15 80.31 184.59 80.31 185.03 80.31 185.48 80.31 185.92 80.31 186.36 80.31"/>
      </g>
    </g>
  </g>
</g>
  <g class="guide ylabels" font-size="2.82" font-family="'PT Sans Caption','Helvetica Neue','Helvetica',sans-serif" fill="#6C606B" id="img-a5a3f5c1-11">
    <text x="15.04" y="80.32" text-anchor="end" dy="0.35em">0.0000</text>
    <text x="15.04" y="61.99" text-anchor="end" dy="0.35em">0.0002</text>
    <text x="15.04" y="43.66" text-anchor="end" dy="0.35em">0.0004</text>
    <text x="15.04" y="25.33" text-anchor="end" dy="0.35em">0.0006</text>
    <text x="15.04" y="7" text-anchor="end" dy="0.35em">0.0008</text>
  </g>
</g>
<defs>
  <clipPath id="img-a5a3f5c1-4">
  <path d="M16.04,5 L 198.2 5 198.2 82.32 16.04 82.32" />
</clipPath>
</defs>
</svg>
