<?xml version="1.0" encoding="UTF-8"?>
<svg xmlns="http://www.w3.org/2000/svg"
     xmlns:xlink="http://www.w3.org/1999/xlink"
     xmlns:gadfly="http://www.gadflyjl.org/ns"
     version="1.2"
     width="141.42mm" height="100mm" viewBox="0 0 141.42 100"
     stroke="none"
     fill="#000000"
     stroke-width="0.3"
     font-size="3.88"
>
<g class="plotroot xscalable yscalable" id="img-17e2c6ba-1">
  <g font-size="3.88" font-family="'PT Sans','Helvetica Neue','Helvetica',sans-serif" fill="#564A55" stroke="#000000" stroke-opacity="0.000" id="img-17e2c6ba-2">
    <g transform="translate(76.35,88.39)">
      <g class="primitive">
        <text text-anchor="middle" dy="0.6em">Scaled and shifted u₃</text>
      </g>
    </g>
  </g>
  <g class="guide xlabels" font-size="2.82" font-family="'PT Sans Caption','Helvetica Neue','Helvetica',sans-serif" fill="#6C606B" id="img-17e2c6ba-3">
    <g transform="translate(18.28,81.72)">
      <g class="primitive">
        <text text-anchor="middle" dy="0.6em">-5</text>
      </g>
    </g>
    <g transform="translate(76.35,81.72)">
      <g class="primitive">
        <text text-anchor="middle" dy="0.6em">0</text>
      </g>
    </g>
    <g transform="translate(134.42,81.72)">
      <g class="primitive">
        <text text-anchor="middle" dy="0.6em">5</text>
      </g>
    </g>
  </g>
  <g clip-path="url(#img-17e2c6ba-4)">
    <g id="img-17e2c6ba-5">
      <g pointer-events="visible" opacity="0" fill="#000000" fill-opacity="0.000" stroke="#000000" stroke-opacity="0.000" class="guide background" id="img-17e2c6ba-6">
        <g transform="translate(76.35,42.86)">
          <path d="M-60.07,-37.86 L 60.07 -37.86 60.07 37.86 -60.07 37.86 z" class="primitive"/>
        </g>
      </g>
      <g class="guide ygridlines xfixed" stroke-dasharray="0.5,0.5" stroke-width="0.2" stroke="#D0D0E0" id="img-17e2c6ba-7">
        <g transform="translate(76.35,78.71)">
          <path fill="none" d="M-60.07,0 L 60.07 0" class="primitive"/>
        </g>
        <g transform="translate(76.35,60.79)">
          <path fill="none" d="M-60.07,0 L 60.07 0" class="primitive"/>
        </g>
        <g transform="translate(76.35,42.86)">
          <path fill="none" d="M-60.07,0 L 60.07 0" class="primitive"/>
        </g>
        <g transform="translate(76.35,24.93)">
          <path fill="none" d="M-60.07,0 L 60.07 0" class="primitive"/>
        </g>
        <g transform="translate(76.35,7)">
          <path fill="none" d="M-60.07,0 L 60.07 0" class="primitive"/>
        </g>
      </g>
      <g class="guide xgridlines yfixed" stroke-dasharray="0.5,0.5" stroke-width="0.2" stroke="#D0D0E0" id="img-17e2c6ba-8">
        <g transform="translate(18.28,42.86)">
          <path fill="none" d="M0,-37.86 L 0 37.86" class="primitive"/>
        </g>
        <g transform="translate(76.35,42.86)">
          <path fill="none" d="M0,-37.86 L 0 37.86" class="primitive"/>
        </g>
        <g transform="translate(134.42,42.86)">
          <path fill="none" d="M0,-37.86 L 0 37.86" class="primitive"/>
        </g>
      </g>
      <g class="plotpanel" id="img-17e2c6ba-9">
        <metadata>
          <boundingbox value="16.284999999999997mm 5.0mm 120.13635623730951mm 75.715mm"/>
          <unitbox value="-5.172211361265138 4.111552673778149 10.344422722530275 -4.2231053475563"/>
        </metadata>
        <g stroke-width="0.3" fill="#000000" fill-opacity="0.000" class="geometry" id="img-17e2c6ba-10">
          <g class="color_LCHab{Float32}(70.0f0,60.0f0,240.0f0)" stroke-dasharray="none" stroke="#00BFFF" id="img-17e2c6ba-11">
            <g transform="translate(76.35,57.78)">
              <path fill="none" d="M-58.07,-49.46 L -57.34 -45.94 -56.62 -42.68 -55.89 -39.66 -55.16 -36.85 -54.44 -34.24 -53.71 -31.81 -52.99 -29.56 -52.26 -27.45 -51.54 -25.49 -50.81 -23.66 -50.08 -21.96 -49.36 -20.36 -48.63 -18.87 -47.91 -17.47 -47.18 -16.17 -46.45 -14.94 -45.73 -13.8 -45 -12.72 -44.28 -11.71 -43.55 -10.77 -42.83 -9.88 -42.1 -9.04 -41.37 -8.26 -40.65 -7.52 -39.92 -6.83 -39.2 -6.17 -38.47 -5.56 -37.74 -4.98 -37.02 -4.44 -36.29 -3.93 -35.57 -3.45 -34.84 -3 -34.12 -2.57 -33.39 -2.17 -32.66 -1.79 -31.94 -1.44 -31.21 -1.11 -30.49 -0.79 -29.76 -0.5 -29.03 -0.23 -28.31 0.03 -27.58 0.28 -26.86 0.5 -26.13 0.72 -25.4 0.91 -24.68 1.1 -23.95 1.27 -23.23 1.44 -22.5 1.59 -21.78 1.73 -21.05 1.85 -20.32 1.97 -19.6 2.09 -18.87 2.19 -18.15 2.28 -17.42 2.37 -16.69 2.45 -15.97 2.52 -15.24 2.58 -14.52 2.64 -13.79 2.7 -13.07 2.74 -12.34 2.79 -11.61 2.82 -10.89 2.86 -10.16 2.89 -9.44 2.91 -8.71 2.93 -7.98 2.95 -7.26 2.96 -6.53 2.98 -5.81 2.99 -5.08 2.99 -4.36 3 -3.63 3 -2.9 3.01 -2.18 3.01 -1.45 3.01 -0.73 3.01 0 3.01 0.73 3.01 1.45 3.01 2.18 3.01 2.9 3.01 3.63 3.01 4.36 3.02 5.08 3.02 5.81 3.03 6.53 3.04 7.26 3.05 7.98 3.07 8.71 3.08 9.44 3.1 10.16 3.13 10.89 3.15 11.61 3.18 12.34 3.22 13.07 3.25 13.79 3.3 14.52 3.34 15.24 3.39 15.97 3.45 16.69 3.51 17.42 3.58 18.15 3.65 18.87 3.72 19.6 3.81 20.32 3.89 21.05 3.99 21.78 4.09 22.5 4.19 23.23 4.3 23.95 4.42 24.68 4.54 25.4 4.67 26.13 4.8 26.86 4.94 27.58 5.09 28.31 5.24 29.03 5.4 29.76 5.56 30.49 5.73 31.21 5.91 31.94 6.09 32.66 6.27 33.39 6.46 34.12 6.66 34.84 6.86 35.57 7.06 36.29 7.27 37.02 7.49 37.74 7.7 38.47 7.93 39.2 8.15 39.92 8.38 40.65 8.61 41.37 8.84 42.1 9.08 42.83 9.32 43.55 9.56 44.28 9.81 45 10.05 45.73 10.3 46.45 10.54 47.18 10.79 47.91 11.04 48.63 11.28 49.36 11.53 50.08 11.78 50.81 12.02 51.54 12.27 52.26 12.51 52.99 12.75 53.71 12.99 54.44 13.23 55.16 13.47 55.89 13.7 56.62 13.93 57.34 14.16 58.07 14.38" class="primitive"/>
            </g>
          </g>
        </g>
      </g>
    </g>
  </g>
  <g class="guide ylabels" font-size="2.82" font-family="'PT Sans Caption','Helvetica Neue','Helvetica',sans-serif" fill="#6C606B" id="img-17e2c6ba-12">
    <g transform="translate(15.28,78.71)">
      <g class="primitive">
        <text text-anchor="end" dy="0.35em">0</text>
      </g>
    </g>
    <g transform="translate(15.28,60.79)">
      <g class="primitive">
        <text text-anchor="end" dy="0.35em">1</text>
      </g>
    </g>
    <g transform="translate(15.28,42.86)">
      <g class="primitive">
        <text text-anchor="end" dy="0.35em">2</text>
      </g>
    </g>
    <g transform="translate(15.28,24.93)">
      <g class="primitive">
        <text text-anchor="end" dy="0.35em">3</text>
      </g>
    </g>
    <g transform="translate(15.28,7)">
      <g class="primitive">
        <text text-anchor="end" dy="0.35em">4</text>
      </g>
    </g>
  </g>
  <g font-size="3.88" font-family="'PT Sans','Helvetica Neue','Helvetica',sans-serif" fill="#564A55" stroke="#000000" stroke-opacity="0.000" id="img-17e2c6ba-13">
    <g transform="translate(8.81,40.86)">
      <g class="primitive">
        <text text-anchor="middle" dy="0.35em" transform="rotate(-90,0, 2)">Kernel ratio</text>
      </g>
    </g>
  </g>
</g>
<defs>
  <clipPath id="img-17e2c6ba-4">
    <path d="M16.28,5 L 136.42 5 136.42 80.72 16.28 80.72" />
  </clipPath>
</defs>
</svg>
