<?xml version="1.0" encoding="UTF-8"?>
<svg xmlns="http://www.w3.org/2000/svg"
     xmlns:xlink="http://www.w3.org/1999/xlink"
     xmlns:gadfly="http://www.gadflyjl.org/ns"
     version="1.2"
     width="141.42mm" height="100mm" viewBox="0 0 141.42 100"
     stroke="none"
     fill="#000000"
     stroke-width="0.3"
     font-size="3.88"
>
<g class="plotroot xscalable yscalable" id="img-e4b6cd5c-1">
  <g font-size="3.88" font-family="'PT Sans','Helvetica Neue','Helvetica',sans-serif" fill="#564A55" stroke="#000000" stroke-opacity="0.000" id="img-e4b6cd5c-2">
    <g transform="translate(73.38,88.39)">
      <g class="primitive">
        <text text-anchor="middle" dy="0.6em">σ</text>
      </g>
    </g>
  </g>
  <g class="guide xlabels" font-size="2.82" font-family="'PT Sans Caption','Helvetica Neue','Helvetica',sans-serif" fill="#6C606B" id="img-e4b6cd5c-3">
    <g transform="translate(12.35,81.72)">
      <g class="primitive">
        <text text-anchor="middle" dy="0.6em">0.3</text>
      </g>
    </g>
    <g transform="translate(36.76,81.72)">
      <g class="primitive">
        <text text-anchor="middle" dy="0.6em">0.4</text>
      </g>
    </g>
    <g transform="translate(61.18,81.72)">
      <g class="primitive">
        <text text-anchor="middle" dy="0.6em">0.5</text>
      </g>
    </g>
    <g transform="translate(85.59,81.72)">
      <g class="primitive">
        <text text-anchor="middle" dy="0.6em">0.6</text>
      </g>
    </g>
    <g transform="translate(110.01,81.72)">
      <g class="primitive">
        <text text-anchor="middle" dy="0.6em">0.7</text>
      </g>
    </g>
    <g transform="translate(134.42,81.72)">
      <g class="primitive">
        <text text-anchor="middle" dy="0.6em">0.8</text>
      </g>
    </g>
  </g>
  <g clip-path="url(#img-e4b6cd5c-4)">
    <g id="img-e4b6cd5c-5">
      <g pointer-events="visible" opacity="0" fill="#000000" fill-opacity="0.000" stroke="#000000" stroke-opacity="0.000" class="guide background" id="img-e4b6cd5c-6">
        <g transform="translate(73.38,42.86)">
          <path d="M-63.04,-37.86 L 63.04 -37.86 63.04 37.86 -63.04 37.86 z" class="primitive"/>
        </g>
      </g>
      <g class="guide ygridlines xfixed" stroke-dasharray="0.5,0.5" stroke-width="0.2" stroke="#D0D0E0" id="img-e4b6cd5c-7">
        <g transform="translate(73.38,78.72)">
          <path fill="none" d="M-63.04,0 L 63.04 0" class="primitive"/>
        </g>
        <g transform="translate(73.38,54.81)">
          <path fill="none" d="M-63.04,0 L 63.04 0" class="primitive"/>
        </g>
        <g transform="translate(73.38,30.91)">
          <path fill="none" d="M-63.04,0 L 63.04 0" class="primitive"/>
        </g>
        <g transform="translate(73.38,7)">
          <path fill="none" d="M-63.04,0 L 63.04 0" class="primitive"/>
        </g>
      </g>
      <g class="guide xgridlines yfixed" stroke-dasharray="0.5,0.5" stroke-width="0.2" stroke="#D0D0E0" id="img-e4b6cd5c-8">
        <g transform="translate(12.35,42.86)">
          <path fill="none" d="M0,-37.86 L 0 37.86" class="primitive"/>
        </g>
        <g transform="translate(36.76,42.86)">
          <path fill="none" d="M0,-37.86 L 0 37.86" class="primitive"/>
        </g>
        <g transform="translate(61.18,42.86)">
          <path fill="none" d="M0,-37.86 L 0 37.86" class="primitive"/>
        </g>
        <g transform="translate(85.59,42.86)">
          <path fill="none" d="M0,-37.86 L 0 37.86" class="primitive"/>
        </g>
        <g transform="translate(110.01,42.86)">
          <path fill="none" d="M0,-37.86 L 0 37.86" class="primitive"/>
        </g>
        <g transform="translate(134.42,42.86)">
          <path fill="none" d="M0,-37.86 L 0 37.86" class="primitive"/>
        </g>
      </g>
      <g class="plotpanel" id="img-e4b6cd5c-9">
        <metadata>
          <boundingbox value="10.346666666666664mm 5.0mm 126.07468957064285mm 75.715mm"/>
          <unitbox value="0.2918082937297063 15.418322526668062 0.5163834125405875 -15.836645053336124"/>
        </metadata>
        <g stroke-width="0.3" fill="#000000" fill-opacity="0.000" class="geometry" id="img-e4b6cd5c-10">
          <g class="color_LCHab{Float32}(70.0f0,60.0f0,240.0f0)" stroke-dasharray="none" stroke="#00BFFF" id="img-e4b6cd5c-11">
            <g transform="translate(73.45,63.27)">
              <path fill="none" d="M-37.64,15.45 L -37.34 15.45 -37.05 15.45 -36.75 15.45 -36.46 15.45 -36.16 15.45 -35.87 15.44 -35.57 15.44 -35.28 15.44 -34.98 15.44 -34.69 15.44 -34.39 15.43 -34.1 15.43 -33.8 15.42 -33.51 15.42 -33.21 15.41 -32.92 15.41 -32.62 15.41 -32.32 15.41 -32.03 15.41 -31.73 15.41 -31.44 15.41 -31.14 15.41 -30.85 15.4 -30.55 15.38 -30.26 15.36 -29.96 15.33 -29.67 15.29 -29.37 15.24 -29.08 15.18 -28.78 15.12 -28.49 15.06 -28.19 15 -27.9 14.95 -27.6 14.9 -27.31 14.85 -27.01 14.82 -26.72 14.79 -26.42 14.76 -26.13 14.73 -25.83 14.7 -25.54 14.66 -25.24 14.59 -24.94 14.5 -24.65 14.39 -24.35 14.25 -24.06 14.09 -23.76 13.92 -23.47 13.75 -23.17 13.58 -22.88 13.42 -22.58 13.27 -22.29 13.13 -21.99 12.98 -21.7 12.83 -21.4 12.66 -21.11 12.48 -20.81 12.27 -20.52 12.04 -20.22 11.78 -19.93 11.48 -19.63 11.15 -19.34 10.78 -19.04 10.38 -18.75 9.93 -18.45 9.43 -18.15 8.89 -17.86 8.29 -17.56 7.65 -17.27 6.99 -16.97 6.3 -16.68 5.61 -16.38 4.93 -16.09 4.27 -15.79 3.63 -15.5 3.01 -15.2 2.39 -14.91 1.77 -14.61 1.14 -14.32 0.47 -14.02 -0.23 -13.73 -0.97 -13.43 -1.75 -13.14 -2.57 -12.84 -3.43 -12.55 -4.34 -12.25 -5.31 -11.96 -6.34 -11.66 -7.45 -11.37 -8.62 -11.07 -9.83 -10.77 -11.06 -10.48 -12.27 -10.18 -13.44 -9.89 -14.56 -9.59 -15.62 -9.3 -16.64 -9 -17.66 -8.71 -18.69 -8.41 -19.77 -8.12 -20.9 -7.82 -22.07 -7.53 -23.25 -7.23 -24.43 -6.94 -25.59 -6.64 -26.7 -6.35 -27.76 -6.05 -28.77 -5.76 -29.71 -5.46 -30.58 -5.17 -31.38 -4.87 -32.09 -4.58 -32.72 -4.28 -33.26 -3.99 -33.73 -3.69 -34.14 -3.39 -34.5 -3.1 -34.83 -2.8 -35.15 -2.51 -35.49 -2.21 -35.85 -1.92 -36.25 -1.62 -36.69 -1.33 -37.15 -1.03 -37.62 -0.74 -38.06 -0.44 -38.42 -0.15 -38.66 0.15 -38.74 0.44 -38.65 0.74 -38.37 1.03 -37.92 1.33 -37.32 1.62 -36.61 1.92 -35.83 2.21 -35.01 2.51 -34.19 2.8 -33.37 3.1 -32.57 3.39 -31.77 3.69 -30.98 3.99 -30.19 4.28 -29.4 4.58 -28.59 4.87 -27.77 5.17 -26.95 5.46 -26.1 5.76 -25.25 6.05 -24.38 6.35 -23.49 6.64 -22.57 6.94 -21.61 7.23 -20.61 7.53 -19.55 7.82 -18.45 8.12 -17.3 8.41 -16.12 8.71 -14.93 9 -13.75 9.3 -12.6 9.59 -11.51 9.89 -10.47 10.18 -9.49 10.48 -8.58 10.77 -7.71 11.07 -6.89 11.37 -6.11 11.66 -5.35 11.96 -4.61 12.25 -3.88 12.55 -3.16 12.84 -2.44 13.14 -1.7 13.43 -0.95 13.73 -0.17 14.02 0.64 14.32 1.47 14.61 2.31 14.91 3.16 15.2 3.99 15.5 4.81 15.79 5.59 16.09 6.33 16.38 7.01 16.68 7.64 16.97 8.21 17.27 8.72 17.56 9.18 17.86 9.6 18.15 10 18.45 10.37 18.75 10.74 19.04 11.09 19.34 11.43 19.63 11.73 19.93 12 20.22 12.23 20.52 12.42 20.81 12.59 21.11 12.74 21.4 12.89 21.7 13.05 21.99 13.22 22.29 13.39 22.58 13.58 22.88 13.76 23.17 13.93 23.47 14.08 23.76 14.22 24.06 14.34 24.35 14.44 24.65 14.52 24.94 14.59 25.24 14.65 25.54 14.71 25.83 14.76 26.13 14.8 26.42 14.85 26.72 14.89 27.01 14.93 27.31 14.97 27.6 15 27.9 15.03 28.19 15.06 28.49 15.09 28.78 15.12 29.08 15.16 29.37 15.19 29.67 15.23 29.96 15.26 30.26 15.3 30.55 15.33 30.85 15.36 31.14 15.37 31.44 15.39 31.73 15.4 32.03 15.4 32.32 15.4 32.62 15.4 32.92 15.41 33.21 15.41 33.51 15.42 33.8 15.42 34.1 15.43 34.39 15.43 34.69 15.44 34.98 15.44 35.28 15.44 35.57 15.44 35.87 15.44 36.16 15.45 36.46 15.45 36.75 15.45 37.05 15.45 37.34 15.45 37.64 15.45" class="primitive"/>
            </g>
          </g>
        </g>
      </g>
    </g>
  </g>
  <g class="guide ylabels" font-size="2.82" font-family="'PT Sans Caption','Helvetica Neue','Helvetica',sans-serif" fill="#6C606B" id="img-e4b6cd5c-12">
    <g transform="translate(9.35,78.72)">
      <g class="primitive">
        <text text-anchor="end" dy="0.35em">0</text>
      </g>
    </g>
    <g transform="translate(9.35,54.81)">
      <g class="primitive">
        <text text-anchor="end" dy="0.35em">5</text>
      </g>
    </g>
    <g transform="translate(9.35,30.91)">
      <g class="primitive">
        <text text-anchor="end" dy="0.35em">10</text>
      </g>
    </g>
    <g transform="translate(9.35,7)">
      <g class="primitive">
        <text text-anchor="end" dy="0.35em">15</text>
      </g>
    </g>
  </g>
</g>
<defs>
  <clipPath id="img-e4b6cd5c-4">
    <path d="M10.35,5 L 136.42 5 136.42 80.72 10.35 80.72" />
  </clipPath>
</defs>
</svg>
