<?xml version="1.0" encoding="UTF-8"?>
<svg xmlns="http://www.w3.org/2000/svg"
     xmlns:xlink="http://www.w3.org/1999/xlink"
     xmlns:gadfly="http://www.gadflyjl.org/ns"
     version="1.2"
     width="203.2mm" height="101.6mm" viewBox="0 0 203.2 101.6"
     stroke="none"
     fill="#000000"
     stroke-width="0.3"
     font-size="3.88"
>
<g class="plotroot xscalable yscalable" id="img-f2b48a63-1">
  <g font-size="3.88" font-family="'PT Sans','Helvetica Neue','Helvetica',sans-serif" fill="#564A55" stroke="#000000" stroke-opacity="0.000" id="img-f2b48a63-2">
    <g transform="translate(108.85,89.99)">
      <g class="primitive">
        <text text-anchor="middle" dy="0.6em">x</text>
      </g>
    </g>
  </g>
  <g class="guide xlabels" font-size="2.82" font-family="'PT Sans Caption','Helvetica Neue','Helvetica',sans-serif" fill="#6C606B" id="img-f2b48a63-3">
    <g transform="translate(21.5,83.32)">
      <g class="primitive">
        <text text-anchor="middle" dy="0.6em">-3</text>
      </g>
    </g>
    <g transform="translate(50.62,83.32)">
      <g class="primitive">
        <text text-anchor="middle" dy="0.6em">-2</text>
      </g>
    </g>
    <g transform="translate(79.73,83.32)">
      <g class="primitive">
        <text text-anchor="middle" dy="0.6em">-1</text>
      </g>
    </g>
    <g transform="translate(108.85,83.32)">
      <g class="primitive">
        <text text-anchor="middle" dy="0.6em">0</text>
      </g>
    </g>
    <g transform="translate(137.97,83.32)">
      <g class="primitive">
        <text text-anchor="middle" dy="0.6em">1</text>
      </g>
    </g>
    <g transform="translate(167.08,83.32)">
      <g class="primitive">
        <text text-anchor="middle" dy="0.6em">2</text>
      </g>
    </g>
    <g transform="translate(196.2,83.32)">
      <g class="primitive">
        <text text-anchor="middle" dy="0.6em">3</text>
      </g>
    </g>
  </g>
  <g clip-path="url(#img-f2b48a63-4)">
    <g id="img-f2b48a63-5">
      <g pointer-events="visible" opacity="1" fill="#000000" fill-opacity="0.000" stroke="#000000" stroke-opacity="0.000" class="guide background" id="img-f2b48a63-6">
        <g transform="translate(108.85,43.66)">
          <path d="M-89.35,-38.66 L 89.35 -38.66 89.35 38.66 -89.35 38.66 z" class="primitive"/>
        </g>
      </g>
      <g class="guide ygridlines xfixed" stroke-dasharray="0.5,0.5" stroke-width="0.2" stroke="#D0D0E0" id="img-f2b48a63-7">
        <g transform="translate(108.85,80.32)">
          <path fill="none" d="M-89.35,0 L 89.35 0" class="primitive"/>
        </g>
        <g transform="translate(108.85,55.88)">
          <path fill="none" d="M-89.35,0 L 89.35 0" class="primitive"/>
        </g>
        <g transform="translate(108.85,31.44)">
          <path fill="none" d="M-89.35,0 L 89.35 0" class="primitive"/>
        </g>
        <g transform="translate(108.85,7)">
          <path fill="none" d="M-89.35,0 L 89.35 0" class="primitive"/>
        </g>
      </g>
      <g class="guide xgridlines yfixed" stroke-dasharray="0.5,0.5" stroke-width="0.2" stroke="#D0D0E0" id="img-f2b48a63-8">
        <g transform="translate(21.5,43.66)">
          <path fill="none" d="M0,-38.66 L 0 38.66" class="primitive"/>
        </g>
        <g transform="translate(50.62,43.66)">
          <path fill="none" d="M0,-38.66 L 0 38.66" class="primitive"/>
        </g>
        <g transform="translate(79.73,43.66)">
          <path fill="none" d="M0,-38.66 L 0 38.66" class="primitive"/>
        </g>
        <g transform="translate(108.85,43.66)">
          <path fill="none" d="M0,-38.66 L 0 38.66" class="primitive"/>
        </g>
        <g transform="translate(137.97,43.66)">
          <path fill="none" d="M0,-38.66 L 0 38.66" class="primitive"/>
        </g>
        <g transform="translate(167.08,43.66)">
          <path fill="none" d="M0,-38.66 L 0 38.66" class="primitive"/>
        </g>
        <g transform="translate(196.2,43.66)">
          <path fill="none" d="M0,-38.66 L 0 38.66" class="primitive"/>
        </g>
      </g>
      <g class="plotpanel" id="img-f2b48a63-9">
        <metadata>
          <boundingbox value="19.499166666666667mm 5.0mm 178.70083333333332mm 77.315mm"/>
          <unitbox value="-3.0686888538024526 1604.0919320739276 6.137377707604905 -158.18386414785516"/>
        </metadata>
        <g stroke-width="0.3" fill="#000000" fill-opacity="0.000" class="geometry" id="img-f2b48a63-10">
          <g stroke-dasharray="none" stroke="#00BFFF" id="img-f2b48a63-11">
            <g transform="translate(108.85,42.48)">
              <path fill="none" d="M-83.8,24.99 L -73.15 21.57 -67.74 20.13 -63.98 19.03 -61.06 18.1 -58.64 17.37 -56.58 16.76 -54.76 16.2 -53.14 15.72 -51.66 15.26 -50.31 14.88 -49.06 14.55 -47.89 14.2 -46.8 13.88 -45.77 13.59 -44.79 13.3 -43.86 13.03 -42.97 12.77 -42.12 12.51 -41.31 12.28 -40.52 12.05 -39.77 11.82 -39.04 11.61 -38.33 11.38 -37.65 11.19 -36.99 11 -36.34 10.81 -35.71 10.63 -35.1 10.46 -34.5 10.26 -33.92 10.09 -33.35 9.92 -32.8 9.76 -32.25 9.6 -31.72 9.44 -31.2 9.27 -30.68 9.12 -30.18 8.96 -29.68 8.8 -29.2 8.66 -28.72 8.52 -28.25 8.38 -27.78 8.24 -27.33 8.11 -26.88 7.98 -26.43 7.84 -25.99 7.7 -25.56 7.57 -25.14 7.44 -24.71 7.32 -24.3 7.19 -23.89 7.06 -23.48 6.94 -23.08 6.82 -22.68 6.7 -22.29 6.58 -21.9 6.46 -21.51 6.34 -21.13 6.22 -20.75 6.11 -20.38 6 -20.01 5.89 -19.64 5.78 -19.27 5.69 -18.91 5.59 -18.55 5.48 -18.2 5.38 -17.84 5.28 -17.49 5.17 -17.14 5.07 -16.8 4.96 -16.45 4.87 -16.11 4.76 -15.77 4.66 -15.44 4.57 -15.1 4.48 -14.77 4.38 -14.44 4.28 -14.11 4.19 -13.78 4.09 -13.46 3.99 -13.13 3.89 -12.81 3.8 -12.49 3.69 -12.17 3.6 -11.85 3.51 -11.53 3.42 -11.22 3.32 -10.91 3.23 -10.59 3.13 -10.28 3.04 -9.97 2.95 -9.66 2.85 -9.35 2.76 -9.05 2.67 -8.74 2.58 -8.44 2.49 -8.13 2.4 -7.83 2.3 -7.53 2.21 -7.23 2.12 -6.93 2.03 -6.63 1.94 -6.33 1.85 -6.03 1.77 -5.73 1.67 -5.43 1.58 -5.14 1.5 -4.84 1.41 -4.54 1.32 -4.25 1.23 -3.95 1.14 -3.66 1.04 -3.36 0.96 -3.07 0.87 -2.78 0.78 -2.48 0.7 -2.19 0.62 -1.9 0.53 -1.61 0.45 -1.31 0.36 -1.02 0.27 -0.73 0.17 -0.44 0.09 -0.15 0.01 0.15 -0.08 0.44 -0.16 0.73 -0.24 1.02 -0.34 1.31 -0.43 1.61 -0.51 1.9 -0.59 2.19 -0.68 2.48 -0.77 2.78 -0.85 3.07 -0.93 3.36 -1.02 3.66 -1.11 3.95 -1.2 4.25 -1.28 4.54 -1.38 4.84 -1.46 5.14 -1.55 5.43 -1.64 5.73 -1.73 6.03 -1.83 6.33 -1.91 6.63 -2 6.93 -2.09 7.23 -2.17 7.53 -2.26 7.83 -2.34 8.13 -2.43 8.44 -2.52 8.74 -2.61 9.05 -2.7 9.35 -2.78 9.66 -2.88 9.97 -2.97 10.28 -3.05 10.59 -3.15 10.91 -3.23 11.22 -3.33 11.53 -3.41 11.85 -3.5 12.17 -3.6 12.49 -3.69 12.81 -3.79 13.13 -3.89 13.46 -3.98 13.78 -4.08 14.11 -4.18 14.44 -4.28 14.77 -4.38 15.1 -4.48 15.44 -4.58 15.77 -4.68 16.11 -4.78 16.45 -4.88 16.8 -4.98 17.14 -5.08 17.49 -5.19 17.84 -5.29 18.2 -5.4 18.55 -5.5 18.91 -5.6 19.27 -5.71 19.64 -5.82 20.01 -5.93 20.38 -6.03 20.75 -6.14 21.13 -6.24 21.51 -6.36 21.9 -6.47 22.29 -6.6 22.68 -6.71 23.08 -6.83 23.48 -6.95 23.89 -7.07 24.3 -7.21 24.71 -7.33 25.14 -7.45 25.56 -7.58 25.99 -7.7 26.43 -7.83 26.88 -7.96 27.33 -8.09 27.78 -8.22 28.25 -8.36 28.72 -8.49 29.2 -8.62 29.68 -8.77 30.18 -8.92 30.68 -9.07 31.2 -9.23 31.72 -9.37 32.25 -9.53 32.8 -9.71 33.35 -9.88 33.92 -10.06 34.5 -10.22 35.1 -10.39 35.71 -10.56 36.34 -10.75 36.99 -10.94 37.65 -11.14 38.33 -11.34 39.04 -11.56 39.77 -11.76 40.52 -11.99 41.31 -12.23 42.12 -12.46 42.97 -12.74 43.86 -12.99 44.79 -13.26 45.77 -13.55 46.8 -13.83 47.89 -14.14 49.06 -14.53 50.31 -14.91 51.66 -15.27 53.14 -15.72 54.76 -16.18 56.58 -16.75 58.64 -17.32 61.06 -18.01 63.98 -18.87 67.74 -20.03 73.15 -21.56 83.8 -24.58" class="primitive"/>
            </g>
          </g>
        </g>
      </g>
    </g>
  </g>
  <g class="guide ylabels" font-size="2.82" font-family="'PT Sans Caption','Helvetica Neue','Helvetica',sans-serif" fill="#6C606B" id="img-f2b48a63-12">
    <g transform="translate(18.5,80.32)">
      <g class="primitive">
        <text text-anchor="end" dy="0.35em">1450</text>
      </g>
    </g>
    <g transform="translate(18.5,55.88)">
      <g class="primitive">
        <text text-anchor="end" dy="0.35em">1500</text>
      </g>
    </g>
    <g transform="translate(18.5,31.44)">
      <g class="primitive">
        <text text-anchor="end" dy="0.35em">1550</text>
      </g>
    </g>
    <g transform="translate(18.5,7)">
      <g class="primitive">
        <text text-anchor="end" dy="0.35em">1600</text>
      </g>
    </g>
  </g>
  <g font-size="3.88" font-family="'PT Sans','Helvetica Neue','Helvetica',sans-serif" fill="#564A55" stroke="#000000" stroke-opacity="0.000" id="img-f2b48a63-13">
    <g transform="translate(8.81,43.66)">
      <g class="primitive">
        <text text-anchor="end" dy="0.35em">y</text>
      </g>
    </g>
  </g>
</g>
<defs>
  <clipPath id="img-f2b48a63-4">
    <path d="M19.5,5 L 198.2 5 198.2 82.32 19.5 82.32" />
  </clipPath>
</defs>
</svg>
