<?xml version="1.0" encoding="UTF-8"?>
<svg xmlns="http://www.w3.org/2000/svg"
     xmlns:xlink="http://www.w3.org/1999/xlink"
     xmlns:gadfly="http://www.gadflyjl.org/ns"
     version="1.2"
     width="141.42mm" height="100mm" viewBox="0 0 141.42 100"
     stroke="none"
     fill="#000000"
     stroke-width="0.3"
     font-size="3.88"
>
<defs>
  <marker id="arrow" markerWidth="15" markerHeight="7" refX="5" refY="3.5" orient="auto" markerUnits="strokeWidth">
    <path d="M0,0 L15,3.5 L0,7 z" stroke="context-stroke" fill="context-stroke"/>
  </marker>
</defs>
<g class="plotroot xscalable yscalable" id="img-a1518edf-1">
  <g font-size="3.88" font-family="'PT Sans','Helvetica Neue','Helvetica',sans-serif" fill="#564A55" stroke="#000000" stroke-opacity="0.000" id="img-a1518edf-2">
    <g transform="translate(74.56,88.39)">
      <g class="primitive">
        <text text-anchor="middle" dy="0.6em">Parametric bootstrap estimates of σ₁</text>
      </g>
    </g>
  </g>
  <g class="guide xlabels" font-size="2.82" font-family="'PT Sans Caption','Helvetica Neue','Helvetica',sans-serif" fill="#6C606B" id="img-a1518edf-3">
    <g transform="translate(14.69,81.72)">
      <g class="primitive">
        <text text-anchor="middle" dy="0.6em">-50</text>
      </g>
    </g>
    <g transform="translate(44.63,81.72)">
      <g class="primitive">
        <text text-anchor="middle" dy="0.6em">0</text>
      </g>
    </g>
    <g transform="translate(74.56,81.72)">
      <g class="primitive">
        <text text-anchor="middle" dy="0.6em">50</text>
      </g>
    </g>
    <g transform="translate(104.49,81.72)">
      <g class="primitive">
        <text text-anchor="middle" dy="0.6em">100</text>
      </g>
    </g>
    <g transform="translate(134.42,81.72)">
      <g class="primitive">
        <text text-anchor="middle" dy="0.6em">150</text>
      </g>
    </g>
  </g>
  <g clip-path="url(#img-a1518edf-4)">
    <g id="img-a1518edf-5">
      <g pointer-events="visible" stroke-width="0.3" fill="#000000" fill-opacity="0.000" stroke="#000000" stroke-opacity="0.000" class="guide background" id="img-a1518edf-6">
        <g transform="translate(74.56,42.86)" id="img-a1518edf-7">
          <path d="M-61.86,-37.86 L61.86,-37.86 61.86,37.86 -61.86,37.86  z" class="primitive"/>
        </g>
      </g>
      <g class="guide ygridlines xfixed" stroke-dasharray="0.5,0.5" stroke-width="0.2" stroke="#D0D0E0" id="img-a1518edf-8">
        <g transform="translate(74.56,78.71)" id="img-a1518edf-9">
          <path fill="none" d="M-61.86,0 L61.86,0 " class="primitive"/>
        </g>
        <g transform="translate(74.56,54.81)" id="img-a1518edf-10">
          <path fill="none" d="M-61.86,0 L61.86,0 " class="primitive"/>
        </g>
        <g transform="translate(74.56,30.9)" id="img-a1518edf-11">
          <path fill="none" d="M-61.86,0 L61.86,0 " class="primitive"/>
        </g>
        <g transform="translate(74.56,7)" id="img-a1518edf-12">
          <path fill="none" d="M-61.86,0 L61.86,0 " class="primitive"/>
        </g>
      </g>
      <g class="guide xgridlines yfixed" stroke-dasharray="0.5,0.5" stroke-width="0.2" stroke="#D0D0E0" id="img-a1518edf-13">
        <g transform="translate(14.69,42.86)" id="img-a1518edf-14">
          <path fill="none" d="M0,-37.86 L0,37.86 " class="primitive"/>
        </g>
        <g transform="translate(44.63,42.86)" id="img-a1518edf-15">
          <path fill="none" d="M0,-37.86 L0,37.86 " class="primitive"/>
        </g>
        <g transform="translate(74.56,42.86)" id="img-a1518edf-16">
          <path fill="none" d="M0,-37.86 L0,37.86 " class="primitive"/>
        </g>
        <g transform="translate(104.49,42.86)" id="img-a1518edf-17">
          <path fill="none" d="M0,-37.86 L0,37.86 " class="primitive"/>
        </g>
        <g transform="translate(134.42,42.86)" id="img-a1518edf-18">
          <path fill="none" d="M0,-37.86 L0,37.86 " class="primitive"/>
        </g>
      </g>
      <g class="plotpanel" id="img-a1518edf-19">
        <metadata>
          <boundingbox value="12.693333333333328mm 5.0mm 123.72802290397618mm 75.715mm"/>
          <unitbox value="-53.34090541460629 0.030836645053336127 206.6818108292126 -0.031673290106672254"/>
        </metadata>
        <g stroke-width="0.3" fill="#000000" fill-opacity="0.000" class="geometry" id="img-a1518edf-20">
          <g class="color_LCHab{Float32}(70.0f0,60.0f0,240.0f0)" stroke-dasharray="none" stroke-opacity="1" stroke="#00BFFF" id="img-a1518edf-21">
            <g transform="translate(72.28,57.16)" id="img-a1518edf-22">
              <path fill="none" d="M-33.07,21.54 L-32.81,21.52 -32.55,21.49 -32.29,21.44 -32.03,21.33 -31.77,21.15 -31.51,20.85 -31.25,20.37 -31,19.62 -30.74,18.52 -30.48,16.95 -30.22,14.83 -29.96,12.07 -29.7,8.65 -29.44,4.63 -29.18,0.15 -28.92,-4.55 -28.66,-9.17 -28.4,-13.34 -28.14,-16.68 -27.88,-18.91 -27.62,-19.8 -27.36,-19.31 -27.1,-17.54 -26.85,-14.71 -26.59,-11.16 -26.33,-7.25 -26.07,-3.34 -25.81,0.25 -25.55,3.33 -25.29,5.76 -25.03,7.52 -24.77,8.65 -24.51,9.22 -24.25,9.35 -23.99,9.12 -23.73,8.63 -23.47,7.96 -23.21,7.16 -22.95,6.27 -22.7,5.32 -22.44,4.33 -22.18,3.32 -21.92,2.28 -21.66,1.22 -21.4,0.16 -21.14,-0.92 -20.88,-2 -20.62,-3.09 -20.36,-4.2 -20.1,-5.33 -19.84,-6.48 -19.58,-7.66 -19.32,-8.86 -19.06,-10.08 -18.8,-11.33 -18.55,-12.59 -18.29,-13.86 -18.03,-15.14 -17.77,-16.42 -17.51,-17.68 -17.25,-18.93 -16.99,-20.16 -16.73,-21.35 -16.47,-22.5 -16.21,-23.6 -15.95,-24.64 -15.69,-25.62 -15.43,-26.55 -15.17,-27.42 -14.91,-28.25 -14.65,-29.03 -14.4,-29.77 -14.14,-30.47 -13.88,-31.14 -13.62,-31.78 -13.36,-32.38 -13.1,-32.95 -12.84,-33.49 -12.58,-34 -12.32,-34.48 -12.06,-34.94 -11.8,-35.38 -11.54,-35.8 -11.28,-36.21 -11.02,-36.59 -10.76,-36.95 -10.5,-37.28 -10.25,-37.59 -9.99,-37.87 -9.73,-38.12 -9.47,-38.33 -9.21,-38.5 -8.95,-38.64 -8.69,-38.74 -8.43,-38.8 -8.17,-38.83 -7.91,-38.82 -7.65,-38.75 -7.39,-38.62 -7.13,-38.41 -6.87,-38.12 -6.61,-37.73 -6.35,-37.23 -6.1,-36.62 -5.84,-35.92 -5.58,-35.12 -5.32,-34.26 -5.06,-33.34 -4.8,-32.4 -4.54,-31.44 -4.28,-30.47 -4.02,-29.51 -3.76,-28.55 -3.5,-27.6 -3.24,-26.63 -2.98,-25.66 -2.72,-24.67 -2.46,-23.65 -2.2,-22.61 -1.95,-21.53 -1.69,-20.42 -1.43,-19.27 -1.17,-18.1 -0.91,-16.91 -0.65,-15.7 -0.39,-14.49 -0.13,-13.3 0.13,-12.14 0.39,-11.02 0.65,-9.95 0.91,-8.94 1.17,-7.99 1.43,-7.09 1.69,-6.24 1.95,-5.42 2.2,-4.63 2.46,-3.85 2.72,-3.1 2.98,-2.35 3.24,-1.61 3.5,-0.88 3.76,-0.15 4.02,0.59 4.28,1.33 4.54,2.1 4.8,2.89 5.06,3.71 5.32,4.54 5.58,5.4 5.84,6.26 6.1,7.11 6.35,7.95 6.61,8.77 6.87,9.55 7.13,10.29 7.39,10.99 7.65,11.64 7.91,12.26 8.17,12.83 8.43,13.36 8.69,13.86 8.95,14.31 9.21,14.74 9.47,15.12 9.73,15.48 9.99,15.8 10.25,16.1 10.5,16.37 10.76,16.62 11.02,16.86 11.28,17.09 11.54,17.32 11.8,17.56 12.06,17.8 12.32,18.05 12.58,18.3 12.84,18.55 13.1,18.79 13.36,19.02 13.62,19.23 13.88,19.42 14.14,19.59 14.4,19.74 14.65,19.86 14.91,19.97 15.17,20.07 15.43,20.16 15.69,20.24 15.95,20.31 16.21,20.39 16.47,20.47 16.73,20.54 16.99,20.62 17.25,20.69 17.51,20.77 17.77,20.84 18.03,20.9 18.29,20.96 18.55,21.02 18.8,21.07 19.06,21.11 19.32,21.15 19.58,21.19 19.84,21.22 20.1,21.25 20.36,21.27 20.62,21.29 20.88,21.31 21.14,21.32 21.4,21.33 21.66,21.35 21.92,21.36 22.18,21.37 22.44,21.37 22.7,21.37 22.95,21.38 23.21,21.38 23.47,21.38 23.73,21.37 23.99,21.37 24.25,21.38 24.51,21.38 24.77,21.39 25.03,21.4 25.29,21.41 25.55,21.42 25.81,21.44 26.07,21.45 26.33,21.46 26.59,21.47 26.85,21.48 27.1,21.49 27.36,21.49 27.62,21.5 27.88,21.5 28.14,21.51 28.4,21.51 28.66,21.52 28.92,21.52 29.18,21.53 29.44,21.53 29.7,21.54 29.96,21.54 30.22,21.54 30.48,21.55 30.74,21.55 31,21.55 31.25,21.55 31.51,21.55 31.77,21.55 32.03,21.55 32.29,21.55 32.55,21.55 32.81,21.55 33.07,21.55 " class="primitive"/>
            </g>
          </g>
        </g>
      </g>
    </g>
  </g>
  <g class="guide ylabels" font-size="2.82" font-family="'PT Sans Caption','Helvetica Neue','Helvetica',sans-serif" fill="#6C606B" id="img-a1518edf-23">
    <g transform="translate(11.69,78.71)" id="img-a1518edf-24">
      <g class="primitive">
        <text text-anchor="end" dy="0.35em">0.00</text>
      </g>
    </g>
    <g transform="translate(11.69,54.81)" id="img-a1518edf-25">
      <g class="primitive">
        <text text-anchor="end" dy="0.35em">0.01</text>
      </g>
    </g>
    <g transform="translate(11.69,30.9)" id="img-a1518edf-26">
      <g class="primitive">
        <text text-anchor="end" dy="0.35em">0.02</text>
      </g>
    </g>
    <g transform="translate(11.69,7)" id="img-a1518edf-27">
      <g class="primitive">
        <text text-anchor="end" dy="0.35em">0.03</text>
      </g>
    </g>
  </g>
</g>
<defs>
  <clipPath id="img-a1518edf-4">
    <path d="M12.69,5 L136.42,5 136.42,80.72 12.69,80.72 " />
  </clipPath>
</defs>
</svg>
