<?xml version="1.0" encoding="UTF-8"?>
<svg xmlns="http://www.w3.org/2000/svg"
     xmlns:xlink="http://www.w3.org/1999/xlink"
     xmlns:gadfly="http://www.gadflyjl.org/ns"
     version="1.2"
     width="141.42mm" height="100mm" viewBox="0 0 141.42 100"
     stroke="none"
     fill="#000000"
     stroke-width="0.3"
     font-size="3.88"
>
<defs>
  <marker id="arrow" markerWidth="15" markerHeight="7" refX="5" refY="3.5" orient="auto" markerUnits="strokeWidth">
    <path d="M0,0 L15,3.5 L0,7 z" stroke="context-stroke" fill="context-stroke"/>
  </marker>
</defs>
<g class="plotroot xscalable yscalable" id="img-5c1d34f0-1">
  <g font-size="3.88" font-family="'PT Sans','Helvetica Neue','Helvetica',sans-serif" fill="#564A55" stroke="#000000" stroke-opacity="0.000" id="img-5c1d34f0-2">
    <g transform="translate(77.77,88.39)">
      <g class="primitive">
        <text text-anchor="middle" dy="0.6em">Parametric bootstrap estimates of σ₁</text>
      </g>
    </g>
  </g>
  <g class="guide xlabels" font-size="2.82" font-family="'PT Sans Caption','Helvetica Neue','Helvetica',sans-serif" fill="#6C606B" id="img-5c1d34f0-3">
    <g transform="translate(21.11,81.72)">
      <g class="primitive">
        <text text-anchor="middle" dy="0.6em">0</text>
      </g>
    </g>
    <g transform="translate(58.88,81.72)">
      <g class="primitive">
        <text text-anchor="middle" dy="0.6em">50</text>
      </g>
    </g>
    <g transform="translate(96.65,81.72)">
      <g class="primitive">
        <text text-anchor="middle" dy="0.6em">100</text>
      </g>
    </g>
    <g transform="translate(134.42,81.72)">
      <g class="primitive">
        <text text-anchor="middle" dy="0.6em">150</text>
      </g>
    </g>
  </g>
  <g clip-path="url(#img-5c1d34f0-4)">
    <g id="img-5c1d34f0-5">
      <g pointer-events="visible" fill="#000000" fill-opacity="0.000" stroke="#000000" stroke-opacity="0.000" class="guide background" id="img-5c1d34f0-6">
        <g transform="translate(77.77,42.86)" id="img-5c1d34f0-7">
          <path d="M-58.65,-37.86 L 58.65 -37.86 58.65 37.86 -58.65 37.86 z" class="primitive"/>
        </g>
      </g>
      <g class="guide ygridlines xfixed" stroke-dasharray="0.5,0.5" stroke-width="0.2" stroke="#D0D0E0" id="img-5c1d34f0-8">
        <g transform="translate(77.77,78.71)" id="img-5c1d34f0-9">
          <path fill="none" d="M-58.65,0 L 58.65 0" class="primitive"/>
        </g>
        <g transform="translate(77.77,54.81)" id="img-5c1d34f0-10">
          <path fill="none" d="M-58.65,0 L 58.65 0" class="primitive"/>
        </g>
        <g transform="translate(77.77,30.9)" id="img-5c1d34f0-11">
          <path fill="none" d="M-58.65,0 L 58.65 0" class="primitive"/>
        </g>
        <g transform="translate(77.77,7)" id="img-5c1d34f0-12">
          <path fill="none" d="M-58.65,0 L 58.65 0" class="primitive"/>
        </g>
      </g>
      <g class="guide xgridlines yfixed" stroke-dasharray="0.5,0.5" stroke-width="0.2" stroke="#D0D0E0" id="img-5c1d34f0-13">
        <g transform="translate(21.11,42.86)" id="img-5c1d34f0-14">
          <path fill="none" d="M0,-37.86 L 0 37.86" class="primitive"/>
        </g>
        <g transform="translate(58.88,42.86)" id="img-5c1d34f0-15">
          <path fill="none" d="M0,-37.86 L 0 37.86" class="primitive"/>
        </g>
        <g transform="translate(96.65,42.86)" id="img-5c1d34f0-16">
          <path fill="none" d="M0,-37.86 L 0 37.86" class="primitive"/>
        </g>
        <g transform="translate(134.42,42.86)" id="img-5c1d34f0-17">
          <path fill="none" d="M0,-37.86 L 0 37.86" class="primitive"/>
        </g>
      </g>
      <g class="plotpanel" id="img-5c1d34f0-18">
        <metadata>
          <boundingbox value="19.11333333333333mm 5.0mm 117.30802290397618mm 75.715mm"/>
          <unitbox value="-2.6476501161284713 15418.32252666806 155.29530023225695 -15836.645053336124"/>
        </metadata>
        <g shape-rendering="crispEdges" stroke-width="0.3" id="img-5c1d34f0-19">
          <g stroke="#000000" stroke-opacity="0.000" class="geometry" fill="#00BFFF" id="img-5c1d34f0-20">
            <g transform="translate(21.37,54.61)" id="img-5c1d34f0-21">
              <path d="M-0.28,-24.11 L 0.28 -24.11 0.28 24.11 -0.28 24.11 z" class="primitive"/>
            </g>
            <g transform="translate(21.87,78.62)" id="img-5c1d34f0-22">
              <path d="M-0.28,-0.1 L 0.28 -0.1 0.28 0.1 -0.28 0.1 z" class="primitive"/>
            </g>
            <g transform="translate(22.37,78.54)" id="img-5c1d34f0-23">
              <path d="M-0.28,-0.17 L 0.28 -0.17 0.28 0.17 -0.28 0.17 z" class="primitive"/>
            </g>
            <g transform="translate(22.88,78.41)" id="img-5c1d34f0-24">
              <path d="M-0.28,-0.3 L 0.28 -0.3 0.28 0.3 -0.28 0.3 z" class="primitive"/>
            </g>
            <g transform="translate(23.38,78.35)" id="img-5c1d34f0-25">
              <path d="M-0.28,-0.37 L 0.28 -0.37 0.28 0.37 -0.28 0.37 z" class="primitive"/>
            </g>
            <g transform="translate(23.89,78.2)" id="img-5c1d34f0-26">
              <path d="M-0.28,-0.51 L 0.28 -0.51 0.28 0.51 -0.28 0.51 z" class="primitive"/>
            </g>
            <g transform="translate(24.39,78.17)" id="img-5c1d34f0-27">
              <path d="M-0.28,-0.55 L 0.28 -0.55 0.28 0.55 -0.28 0.55 z" class="primitive"/>
            </g>
            <g transform="translate(24.9,78.17)" id="img-5c1d34f0-28">
              <path d="M-0.28,-0.55 L 0.28 -0.55 0.28 0.55 -0.28 0.55 z" class="primitive"/>
            </g>
            <g transform="translate(25.4,78.03)" id="img-5c1d34f0-29">
              <path d="M-0.28,-0.68 L 0.28 -0.68 0.28 0.68 -0.28 0.68 z" class="primitive"/>
            </g>
            <g transform="translate(25.9,77.92)" id="img-5c1d34f0-30">
              <path d="M-0.28,-0.8 L 0.28 -0.8 0.28 0.8 -0.28 0.8 z" class="primitive"/>
            </g>
            <g transform="translate(26.41,77.85)" id="img-5c1d34f0-31">
              <path d="M-0.28,-0.86 L 0.28 -0.86 0.28 0.86 -0.28 0.86 z" class="primitive"/>
            </g>
            <g transform="translate(26.91,77.76)" id="img-5c1d34f0-32">
              <path d="M-0.28,-0.96 L 0.28 -0.96 0.28 0.96 -0.28 0.96 z" class="primitive"/>
            </g>
            <g transform="translate(27.42,77.57)" id="img-5c1d34f0-33">
              <path d="M-0.28,-1.14 L 0.28 -1.14 0.28 1.14 -0.28 1.14 z" class="primitive"/>
            </g>
            <g transform="translate(27.92,77.58)" id="img-5c1d34f0-34">
              <path d="M-0.28,-1.13 L 0.28 -1.13 0.28 1.13 -0.28 1.13 z" class="primitive"/>
            </g>
            <g transform="translate(28.43,77.42)" id="img-5c1d34f0-35">
              <path d="M-0.28,-1.29 L 0.28 -1.29 0.28 1.29 -0.28 1.29 z" class="primitive"/>
            </g>
            <g transform="translate(28.93,77.38)" id="img-5c1d34f0-36">
              <path d="M-0.28,-1.34 L 0.28 -1.34 0.28 1.34 -0.28 1.34 z" class="primitive"/>
            </g>
            <g transform="translate(29.43,77.22)" id="img-5c1d34f0-37">
              <path d="M-0.28,-1.5 L 0.28 -1.5 0.28 1.5 -0.28 1.5 z" class="primitive"/>
            </g>
            <g transform="translate(29.94,77.14)" id="img-5c1d34f0-38">
              <path d="M-0.28,-1.57 L 0.28 -1.57 0.28 1.57 -0.28 1.57 z" class="primitive"/>
            </g>
            <g transform="translate(30.44,76.93)" id="img-5c1d34f0-39">
              <path d="M-0.28,-1.79 L 0.28 -1.79 0.28 1.79 -0.28 1.79 z" class="primitive"/>
            </g>
            <g transform="translate(30.95,76.93)" id="img-5c1d34f0-40">
              <path d="M-0.28,-1.79 L 0.28 -1.79 0.28 1.79 -0.28 1.79 z" class="primitive"/>
            </g>
            <g transform="translate(31.45,76.67)" id="img-5c1d34f0-41">
              <path d="M-0.28,-2.05 L 0.28 -2.05 0.28 2.05 -0.28 2.05 z" class="primitive"/>
            </g>
            <g transform="translate(31.96,76.55)" id="img-5c1d34f0-42">
              <path d="M-0.28,-2.16 L 0.28 -2.16 0.28 2.16 -0.28 2.16 z" class="primitive"/>
            </g>
            <g transform="translate(32.46,76.39)" id="img-5c1d34f0-43">
              <path d="M-0.28,-2.32 L 0.28 -2.32 0.28 2.32 -0.28 2.32 z" class="primitive"/>
            </g>
            <g transform="translate(32.96,76.37)" id="img-5c1d34f0-44">
              <path d="M-0.28,-2.35 L 0.28 -2.35 0.28 2.35 -0.28 2.35 z" class="primitive"/>
            </g>
            <g transform="translate(33.47,76.38)" id="img-5c1d34f0-45">
              <path d="M-0.28,-2.34 L 0.28 -2.34 0.28 2.34 -0.28 2.34 z" class="primitive"/>
            </g>
            <g transform="translate(33.97,76.26)" id="img-5c1d34f0-46">
              <path d="M-0.28,-2.46 L 0.28 -2.46 0.28 2.46 -0.28 2.46 z" class="primitive"/>
            </g>
            <g transform="translate(34.48,75.99)" id="img-5c1d34f0-47">
              <path d="M-0.28,-2.73 L 0.28 -2.73 0.28 2.73 -0.28 2.73 z" class="primitive"/>
            </g>
            <g transform="translate(34.98,75.99)" id="img-5c1d34f0-48">
              <path d="M-0.28,-2.72 L 0.28 -2.72 0.28 2.72 -0.28 2.72 z" class="primitive"/>
            </g>
            <g transform="translate(35.49,75.77)" id="img-5c1d34f0-49">
              <path d="M-0.28,-2.95 L 0.28 -2.95 0.28 2.95 -0.28 2.95 z" class="primitive"/>
            </g>
            <g transform="translate(35.99,75.64)" id="img-5c1d34f0-50">
              <path d="M-0.28,-3.07 L 0.28 -3.07 0.28 3.07 -0.28 3.07 z" class="primitive"/>
            </g>
            <g transform="translate(36.49,75.55)" id="img-5c1d34f0-51">
              <path d="M-0.28,-3.16 L 0.28 -3.16 0.28 3.16 -0.28 3.16 z" class="primitive"/>
            </g>
            <g transform="translate(37,75.44)" id="img-5c1d34f0-52">
              <path d="M-0.28,-3.27 L 0.28 -3.27 0.28 3.27 -0.28 3.27 z" class="primitive"/>
            </g>
            <g transform="translate(37.5,75.28)" id="img-5c1d34f0-53">
              <path d="M-0.28,-3.43 L 0.28 -3.43 0.28 3.43 -0.28 3.43 z" class="primitive"/>
            </g>
            <g transform="translate(38.01,75.25)" id="img-5c1d34f0-54">
              <path d="M-0.28,-3.47 L 0.28 -3.47 0.28 3.47 -0.28 3.47 z" class="primitive"/>
            </g>
            <g transform="translate(38.51,75.28)" id="img-5c1d34f0-55">
              <path d="M-0.28,-3.44 L 0.28 -3.44 0.28 3.44 -0.28 3.44 z" class="primitive"/>
            </g>
            <g transform="translate(39.02,75.17)" id="img-5c1d34f0-56">
              <path d="M-0.28,-3.54 L 0.28 -3.54 0.28 3.54 -0.28 3.54 z" class="primitive"/>
            </g>
            <g transform="translate(39.52,75.05)" id="img-5c1d34f0-57">
              <path d="M-0.28,-3.66 L 0.28 -3.66 0.28 3.66 -0.28 3.66 z" class="primitive"/>
            </g>
            <g transform="translate(40.02,74.92)" id="img-5c1d34f0-58">
              <path d="M-0.28,-3.8 L 0.28 -3.8 0.28 3.8 -0.28 3.8 z" class="primitive"/>
            </g>
            <g transform="translate(40.53,75)" id="img-5c1d34f0-59">
              <path d="M-0.28,-3.71 L 0.28 -3.71 0.28 3.71 -0.28 3.71 z" class="primitive"/>
            </g>
            <g transform="translate(41.03,74.86)" id="img-5c1d34f0-60">
              <path d="M-0.28,-3.86 L 0.28 -3.86 0.28 3.86 -0.28 3.86 z" class="primitive"/>
            </g>
            <g transform="translate(41.54,74.69)" id="img-5c1d34f0-61">
              <path d="M-0.28,-4.02 L 0.28 -4.02 0.28 4.02 -0.28 4.02 z" class="primitive"/>
            </g>
            <g transform="translate(42.04,74.82)" id="img-5c1d34f0-62">
              <path d="M-0.28,-3.89 L 0.28 -3.89 0.28 3.89 -0.28 3.89 z" class="primitive"/>
            </g>
            <g transform="translate(42.55,74.71)" id="img-5c1d34f0-63">
              <path d="M-0.28,-4.01 L 0.28 -4.01 0.28 4.01 -0.28 4.01 z" class="primitive"/>
            </g>
            <g transform="translate(43.05,74.76)" id="img-5c1d34f0-64">
              <path d="M-0.28,-3.95 L 0.28 -3.95 0.28 3.95 -0.28 3.95 z" class="primitive"/>
            </g>
            <g transform="translate(43.55,74.61)" id="img-5c1d34f0-65">
              <path d="M-0.28,-4.1 L 0.28 -4.1 0.28 4.1 -0.28 4.1 z" class="primitive"/>
            </g>
            <g transform="translate(44.06,74.68)" id="img-5c1d34f0-66">
              <path d="M-0.28,-4.04 L 0.28 -4.04 0.28 4.04 -0.28 4.04 z" class="primitive"/>
            </g>
            <g transform="translate(44.56,74.44)" id="img-5c1d34f0-67">
              <path d="M-0.28,-4.27 L 0.28 -4.27 0.28 4.27 -0.28 4.27 z" class="primitive"/>
            </g>
            <g transform="translate(45.07,74.68)" id="img-5c1d34f0-68">
              <path d="M-0.28,-4.04 L 0.28 -4.04 0.28 4.04 -0.28 4.04 z" class="primitive"/>
            </g>
            <g transform="translate(45.57,74.7)" id="img-5c1d34f0-69">
              <path d="M-0.28,-4.02 L 0.28 -4.02 0.28 4.02 -0.28 4.02 z" class="primitive"/>
            </g>
            <g transform="translate(46.08,74.55)" id="img-5c1d34f0-70">
              <path d="M-0.28,-4.16 L 0.28 -4.16 0.28 4.16 -0.28 4.16 z" class="primitive"/>
            </g>
            <g transform="translate(46.58,74.62)" id="img-5c1d34f0-71">
              <path d="M-0.28,-4.09 L 0.28 -4.09 0.28 4.09 -0.28 4.09 z" class="primitive"/>
            </g>
            <g transform="translate(47.09,74.46)" id="img-5c1d34f0-72">
              <path d="M-0.28,-4.26 L 0.28 -4.26 0.28 4.26 -0.28 4.26 z" class="primitive"/>
            </g>
            <g transform="translate(47.59,74.83)" id="img-5c1d34f0-73">
              <path d="M-0.28,-3.88 L 0.28 -3.88 0.28 3.88 -0.28 3.88 z" class="primitive"/>
            </g>
            <g transform="translate(48.09,74.84)" id="img-5c1d34f0-74">
              <path d="M-0.28,-3.88 L 0.28 -3.88 0.28 3.88 -0.28 3.88 z" class="primitive"/>
            </g>
            <g transform="translate(48.6,74.67)" id="img-5c1d34f0-75">
              <path d="M-0.28,-4.05 L 0.28 -4.05 0.28 4.05 -0.28 4.05 z" class="primitive"/>
            </g>
            <g transform="translate(49.1,74.95)" id="img-5c1d34f0-76">
              <path d="M-0.28,-3.76 L 0.28 -3.76 0.28 3.76 -0.28 3.76 z" class="primitive"/>
            </g>
            <g transform="translate(49.61,74.97)" id="img-5c1d34f0-77">
              <path d="M-0.28,-3.74 L 0.28 -3.74 0.28 3.74 -0.28 3.74 z" class="primitive"/>
            </g>
            <g transform="translate(50.11,75.2)" id="img-5c1d34f0-78">
              <path d="M-0.28,-3.51 L 0.28 -3.51 0.28 3.51 -0.28 3.51 z" class="primitive"/>
            </g>
            <g transform="translate(50.62,75.27)" id="img-5c1d34f0-79">
              <path d="M-0.28,-3.44 L 0.28 -3.44 0.28 3.44 -0.28 3.44 z" class="primitive"/>
            </g>
            <g transform="translate(51.12,75.23)" id="img-5c1d34f0-80">
              <path d="M-0.28,-3.48 L 0.28 -3.48 0.28 3.48 -0.28 3.48 z" class="primitive"/>
            </g>
            <g transform="translate(51.62,75.35)" id="img-5c1d34f0-81">
              <path d="M-0.28,-3.36 L 0.28 -3.36 0.28 3.36 -0.28 3.36 z" class="primitive"/>
            </g>
            <g transform="translate(52.13,75.63)" id="img-5c1d34f0-82">
              <path d="M-0.28,-3.08 L 0.28 -3.08 0.28 3.08 -0.28 3.08 z" class="primitive"/>
            </g>
            <g transform="translate(52.63,75.72)" id="img-5c1d34f0-83">
              <path d="M-0.28,-2.99 L 0.28 -2.99 0.28 2.99 -0.28 2.99 z" class="primitive"/>
            </g>
            <g transform="translate(53.14,75.74)" id="img-5c1d34f0-84">
              <path d="M-0.28,-2.97 L 0.28 -2.97 0.28 2.97 -0.28 2.97 z" class="primitive"/>
            </g>
            <g transform="translate(53.64,75.87)" id="img-5c1d34f0-85">
              <path d="M-0.28,-2.85 L 0.28 -2.85 0.28 2.85 -0.28 2.85 z" class="primitive"/>
            </g>
            <g transform="translate(54.15,76.05)" id="img-5c1d34f0-86">
              <path d="M-0.28,-2.66 L 0.28 -2.66 0.28 2.66 -0.28 2.66 z" class="primitive"/>
            </g>
            <g transform="translate(54.65,76.04)" id="img-5c1d34f0-87">
              <path d="M-0.28,-2.67 L 0.28 -2.67 0.28 2.67 -0.28 2.67 z" class="primitive"/>
            </g>
            <g transform="translate(55.15,76.24)" id="img-5c1d34f0-88">
              <path d="M-0.28,-2.47 L 0.28 -2.47 0.28 2.47 -0.28 2.47 z" class="primitive"/>
            </g>
            <g transform="translate(55.66,76.37)" id="img-5c1d34f0-89">
              <path d="M-0.28,-2.34 L 0.28 -2.34 0.28 2.34 -0.28 2.34 z" class="primitive"/>
            </g>
            <g transform="translate(56.16,76.5)" id="img-5c1d34f0-90">
              <path d="M-0.28,-2.21 L 0.28 -2.21 0.28 2.21 -0.28 2.21 z" class="primitive"/>
            </g>
            <g transform="translate(56.67,76.54)" id="img-5c1d34f0-91">
              <path d="M-0.28,-2.17 L 0.28 -2.17 0.28 2.17 -0.28 2.17 z" class="primitive"/>
            </g>
            <g transform="translate(57.17,76.66)" id="img-5c1d34f0-92">
              <path d="M-0.28,-2.05 L 0.28 -2.05 0.28 2.05 -0.28 2.05 z" class="primitive"/>
            </g>
            <g transform="translate(57.68,76.84)" id="img-5c1d34f0-93">
              <path d="M-0.28,-1.88 L 0.28 -1.88 0.28 1.88 -0.28 1.88 z" class="primitive"/>
            </g>
            <g transform="translate(58.18,77.05)" id="img-5c1d34f0-94">
              <path d="M-0.28,-1.67 L 0.28 -1.67 0.28 1.67 -0.28 1.67 z" class="primitive"/>
            </g>
            <g transform="translate(58.68,76.98)" id="img-5c1d34f0-95">
              <path d="M-0.28,-1.74 L 0.28 -1.74 0.28 1.74 -0.28 1.74 z" class="primitive"/>
            </g>
            <g transform="translate(59.19,77.06)" id="img-5c1d34f0-96">
              <path d="M-0.28,-1.65 L 0.28 -1.65 0.28 1.65 -0.28 1.65 z" class="primitive"/>
            </g>
            <g transform="translate(59.69,77.22)" id="img-5c1d34f0-97">
              <path d="M-0.28,-1.5 L 0.28 -1.5 0.28 1.5 -0.28 1.5 z" class="primitive"/>
            </g>
            <g transform="translate(60.2,77.3)" id="img-5c1d34f0-98">
              <path d="M-0.28,-1.41 L 0.28 -1.41 0.28 1.41 -0.28 1.41 z" class="primitive"/>
            </g>
            <g transform="translate(60.7,77.41)" id="img-5c1d34f0-99">
              <path d="M-0.28,-1.31 L 0.28 -1.31 0.28 1.31 -0.28 1.31 z" class="primitive"/>
            </g>
            <g transform="translate(61.21,77.37)" id="img-5c1d34f0-100">
              <path d="M-0.28,-1.35 L 0.28 -1.35 0.28 1.35 -0.28 1.35 z" class="primitive"/>
            </g>
            <g transform="translate(61.71,77.57)" id="img-5c1d34f0-101">
              <path d="M-0.28,-1.14 L 0.28 -1.14 0.28 1.14 -0.28 1.14 z" class="primitive"/>
            </g>
            <g transform="translate(62.21,77.57)" id="img-5c1d34f0-102">
              <path d="M-0.28,-1.15 L 0.28 -1.15 0.28 1.15 -0.28 1.15 z" class="primitive"/>
            </g>
            <g transform="translate(62.72,77.6)" id="img-5c1d34f0-103">
              <path d="M-0.28,-1.12 L 0.28 -1.12 0.28 1.12 -0.28 1.12 z" class="primitive"/>
            </g>
            <g transform="translate(63.22,77.71)" id="img-5c1d34f0-104">
              <path d="M-0.28,-1.01 L 0.28 -1.01 0.28 1.01 -0.28 1.01 z" class="primitive"/>
            </g>
            <g transform="translate(63.73,77.81)" id="img-5c1d34f0-105">
              <path d="M-0.28,-0.9 L 0.28 -0.9 0.28 0.9 -0.28 0.9 z" class="primitive"/>
            </g>
            <g transform="translate(64.23,77.95)" id="img-5c1d34f0-106">
              <path d="M-0.28,-0.76 L 0.28 -0.76 0.28 0.76 -0.28 0.76 z" class="primitive"/>
            </g>
            <g transform="translate(64.74,77.97)" id="img-5c1d34f0-107">
              <path d="M-0.28,-0.74 L 0.28 -0.74 0.28 0.74 -0.28 0.74 z" class="primitive"/>
            </g>
            <g transform="translate(65.24,78.08)" id="img-5c1d34f0-108">
              <path d="M-0.28,-0.63 L 0.28 -0.63 0.28 0.63 -0.28 0.63 z" class="primitive"/>
            </g>
            <g transform="translate(65.74,78.11)" id="img-5c1d34f0-109">
              <path d="M-0.28,-0.6 L 0.28 -0.6 0.28 0.6 -0.28 0.6 z" class="primitive"/>
            </g>
            <g transform="translate(66.25,78.14)" id="img-5c1d34f0-110">
              <path d="M-0.28,-0.58 L 0.28 -0.58 0.28 0.58 -0.28 0.58 z" class="primitive"/>
            </g>
            <g transform="translate(66.75,78.17)" id="img-5c1d34f0-111">
              <path d="M-0.28,-0.54 L 0.28 -0.54 0.28 0.54 -0.28 0.54 z" class="primitive"/>
            </g>
            <g transform="translate(67.26,78.26)" id="img-5c1d34f0-112">
              <path d="M-0.28,-0.46 L 0.28 -0.46 0.28 0.46 -0.28 0.46 z" class="primitive"/>
            </g>
            <g transform="translate(67.76,78.26)" id="img-5c1d34f0-113">
              <path d="M-0.28,-0.46 L 0.28 -0.46 0.28 0.46 -0.28 0.46 z" class="primitive"/>
            </g>
            <g transform="translate(68.27,78.35)" id="img-5c1d34f0-114">
              <path d="M-0.28,-0.37 L 0.28 -0.37 0.28 0.37 -0.28 0.37 z" class="primitive"/>
            </g>
            <g transform="translate(68.77,78.32)" id="img-5c1d34f0-115">
              <path d="M-0.28,-0.39 L 0.28 -0.39 0.28 0.39 -0.28 0.39 z" class="primitive"/>
            </g>
            <g transform="translate(69.27,78.34)" id="img-5c1d34f0-116">
              <path d="M-0.28,-0.37 L 0.28 -0.37 0.28 0.37 -0.28 0.37 z" class="primitive"/>
            </g>
            <g transform="translate(69.78,78.44)" id="img-5c1d34f0-117">
              <path d="M-0.28,-0.27 L 0.28 -0.27 0.28 0.27 -0.28 0.27 z" class="primitive"/>
            </g>
            <g transform="translate(70.28,78.4)" id="img-5c1d34f0-118">
              <path d="M-0.28,-0.31 L 0.28 -0.31 0.28 0.31 -0.28 0.31 z" class="primitive"/>
            </g>
            <g transform="translate(70.79,78.43)" id="img-5c1d34f0-119">
              <path d="M-0.28,-0.28 L 0.28 -0.28 0.28 0.28 -0.28 0.28 z" class="primitive"/>
            </g>
            <g transform="translate(71.29,78.48)" id="img-5c1d34f0-120">
              <path d="M-0.28,-0.24 L 0.28 -0.24 0.28 0.24 -0.28 0.24 z" class="primitive"/>
            </g>
            <g transform="translate(71.8,78.52)" id="img-5c1d34f0-121">
              <path d="M-0.28,-0.2 L 0.28 -0.2 0.28 0.2 -0.28 0.2 z" class="primitive"/>
            </g>
            <g transform="translate(72.3,78.54)" id="img-5c1d34f0-122">
              <path d="M-0.28,-0.17 L 0.28 -0.17 0.28 0.17 -0.28 0.17 z" class="primitive"/>
            </g>
            <g transform="translate(72.8,78.53)" id="img-5c1d34f0-123">
              <path d="M-0.28,-0.18 L 0.28 -0.18 0.28 0.18 -0.28 0.18 z" class="primitive"/>
            </g>
            <g transform="translate(73.31,78.57)" id="img-5c1d34f0-124">
              <path d="M-0.28,-0.14 L 0.28 -0.14 0.28 0.14 -0.28 0.14 z" class="primitive"/>
            </g>
            <g transform="translate(73.81,78.62)" id="img-5c1d34f0-125">
              <path d="M-0.28,-0.1 L 0.28 -0.1 0.28 0.1 -0.28 0.1 z" class="primitive"/>
            </g>
            <g transform="translate(74.32,78.59)" id="img-5c1d34f0-126">
              <path d="M-0.28,-0.13 L 0.28 -0.13 0.28 0.13 -0.28 0.13 z" class="primitive"/>
            </g>
            <g transform="translate(74.82,78.62)" id="img-5c1d34f0-127">
              <path d="M-0.28,-0.1 L 0.28 -0.1 0.28 0.1 -0.28 0.1 z" class="primitive"/>
            </g>
            <g transform="translate(75.33,78.63)" id="img-5c1d34f0-128">
              <path d="M-0.28,-0.09 L 0.28 -0.09 0.28 0.09 -0.28 0.09 z" class="primitive"/>
            </g>
            <g transform="translate(75.83,78.61)" id="img-5c1d34f0-129">
              <path d="M-0.28,-0.1 L 0.28 -0.1 0.28 0.1 -0.28 0.1 z" class="primitive"/>
            </g>
            <g transform="translate(76.33,78.64)" id="img-5c1d34f0-130">
              <path d="M-0.28,-0.07 L 0.28 -0.07 0.28 0.07 -0.28 0.07 z" class="primitive"/>
            </g>
            <g transform="translate(76.84,78.65)" id="img-5c1d34f0-131">
              <path d="M-0.28,-0.07 L 0.28 -0.07 0.28 0.07 -0.28 0.07 z" class="primitive"/>
            </g>
            <g transform="translate(77.34,78.65)" id="img-5c1d34f0-132">
              <path d="M-0.28,-0.06 L 0.28 -0.06 0.28 0.06 -0.28 0.06 z" class="primitive"/>
            </g>
            <g transform="translate(77.85,78.67)" id="img-5c1d34f0-133">
              <path d="M-0.28,-0.04 L 0.28 -0.04 0.28 0.04 -0.28 0.04 z" class="primitive"/>
            </g>
            <g transform="translate(78.35,78.65)" id="img-5c1d34f0-134">
              <path d="M-0.28,-0.07 L 0.28 -0.07 0.28 0.07 -0.28 0.07 z" class="primitive"/>
            </g>
            <g transform="translate(78.86,78.68)" id="img-5c1d34f0-135">
              <path d="M-0.28,-0.03 L 0.28 -0.03 0.28 0.03 -0.28 0.03 z" class="primitive"/>
            </g>
            <g transform="translate(79.36,78.69)" id="img-5c1d34f0-136">
              <path d="M-0.28,-0.03 L 0.28 -0.03 0.28 0.03 -0.28 0.03 z" class="primitive"/>
            </g>
            <g transform="translate(79.87,78.69)" id="img-5c1d34f0-137">
              <path d="M-0.28,-0.03 L 0.28 -0.03 0.28 0.03 -0.28 0.03 z" class="primitive"/>
            </g>
            <g transform="translate(80.37,78.69)" id="img-5c1d34f0-138">
              <path d="M-0.28,-0.03 L 0.28 -0.03 0.28 0.03 -0.28 0.03 z" class="primitive"/>
            </g>
            <g transform="translate(80.87,78.69)" id="img-5c1d34f0-139">
              <path d="M-0.28,-0.03 L 0.28 -0.03 0.28 0.03 -0.28 0.03 z" class="primitive"/>
            </g>
            <g transform="translate(81.38,78.7)" id="img-5c1d34f0-140">
              <path d="M-0.28,-0.01 L 0.28 -0.01 0.28 0.01 -0.28 0.01 z" class="primitive"/>
            </g>
            <g transform="translate(81.88,78.69)" id="img-5c1d34f0-141">
              <path d="M-0.28,-0.02 L 0.28 -0.02 0.28 0.02 -0.28 0.02 z" class="primitive"/>
            </g>
            <g transform="translate(82.39,78.7)" id="img-5c1d34f0-142">
              <path d="M-0.28,-0.01 L 0.28 -0.01 0.28 0.01 -0.28 0.01 z" class="primitive"/>
            </g>
            <g transform="translate(82.89,78.71)" id="img-5c1d34f0-143">
              <path d="M-0.28,-0.01 L 0.28 -0.01 0.28 0.01 -0.28 0.01 z" class="primitive"/>
            </g>
            <g transform="translate(83.4,78.7)" id="img-5c1d34f0-144">
              <path d="M-0.28,-0.01 L 0.28 -0.01 0.28 0.01 -0.28 0.01 z" class="primitive"/>
            </g>
            <g transform="translate(83.9,78.71)" id="img-5c1d34f0-145">
              <path d="M-0.28,-0.01 L 0.28 -0.01 0.28 0.01 -0.28 0.01 z" class="primitive"/>
            </g>
            <g transform="translate(84.4,78.72)" id="img-5c1d34f0-146">
              <path d="M-0.28,-0 L 0.28 -0 0.28 0 -0.28 0 z" class="primitive"/>
            </g>
            <g transform="translate(84.91,78.71)" id="img-5c1d34f0-147">
              <path d="M-0.28,-0 L 0.28 -0 0.28 0 -0.28 0 z" class="primitive"/>
            </g>
            <g transform="translate(85.41,78.7)" id="img-5c1d34f0-148">
              <path d="M-0.28,-0.02 L 0.28 -0.02 0.28 0.02 -0.28 0.02 z" class="primitive"/>
            </g>
            <g transform="translate(85.92,78.71)" id="img-5c1d34f0-149">
              <path d="M-0.28,-0 L 0.28 -0 0.28 0 -0.28 0 z" class="primitive"/>
            </g>
            <g transform="translate(86.42,78.71)" id="img-5c1d34f0-150">
              <path d="M-0.28,-0.01 L 0.28 -0.01 0.28 0.01 -0.28 0.01 z" class="primitive"/>
            </g>
            <g transform="translate(86.93,78.71)" id="img-5c1d34f0-151">
              <path d="M-0.28,-0.01 L 0.28 -0.01 0.28 0.01 -0.28 0.01 z" class="primitive"/>
            </g>
            <g transform="translate(87.43,78.72)" id="img-5c1d34f0-152">
              <path d="M-0.28,-0 L 0.28 -0 0.28 0 -0.28 0 z" class="primitive"/>
            </g>
            <g transform="translate(87.93,78.71)" id="img-5c1d34f0-153">
              <path d="M-0.28,-0.01 L 0.28 -0.01 0.28 0.01 -0.28 0.01 z" class="primitive"/>
            </g>
            <g transform="translate(88.44,78.71)" id="img-5c1d34f0-154">
              <path d="M-0.28,-0 L 0.28 -0 0.28 0 -0.28 0 z" class="primitive"/>
            </g>
            <g transform="translate(88.94,78.72)" id="img-5c1d34f0-155">
              <path d="M-0.28,-0 L 0.28 -0 0.28 0 -0.28 0 z" class="primitive"/>
            </g>
            <g transform="translate(89.45,78.72)" id="img-5c1d34f0-156">
              <path d="M-0.28,-0 L 0.28 -0 0.28 0 -0.28 0 z" class="primitive"/>
            </g>
            <g transform="translate(89.95,78.72)" id="img-5c1d34f0-157">
              <path d="M-0.28,-0 L 0.28 -0 0.28 0 -0.28 0 z" class="primitive"/>
            </g>
            <g transform="translate(90.46,78.72)" id="img-5c1d34f0-158">
              <path d="M-0.28,-0 L 0.28 -0 0.28 0 -0.28 0 z" class="primitive"/>
            </g>
            <g transform="translate(90.96,78.72)" id="img-5c1d34f0-159">
              <path d="M-0.28,-0 L 0.28 -0 0.28 0 -0.28 0 z" class="primitive"/>
            </g>
            <g transform="translate(91.46,78.72)" id="img-5c1d34f0-160">
              <path d="M-0.28,-0 L 0.28 -0 0.28 0 -0.28 0 z" class="primitive"/>
            </g>
            <g transform="translate(91.97,78.72)" id="img-5c1d34f0-161">
              <path d="M-0.28,-0 L 0.28 -0 0.28 0 -0.28 0 z" class="primitive"/>
            </g>
            <g transform="translate(92.47,78.72)" id="img-5c1d34f0-162">
              <path d="M-0.28,-0 L 0.28 -0 0.28 0 -0.28 0 z" class="primitive"/>
            </g>
            <g transform="translate(92.98,78.72)" id="img-5c1d34f0-163">
              <path d="M-0.28,-0 L 0.28 -0 0.28 0 -0.28 0 z" class="primitive"/>
            </g>
            <g transform="translate(93.48,78.72)" id="img-5c1d34f0-164">
              <path d="M-0.28,-0 L 0.28 -0 0.28 0 -0.28 0 z" class="primitive"/>
            </g>
            <g transform="translate(93.99,78.72)" id="img-5c1d34f0-165">
              <path d="M-0.28,-0 L 0.28 -0 0.28 0 -0.28 0 z" class="primitive"/>
            </g>
            <g transform="translate(94.49,78.72)" id="img-5c1d34f0-166">
              <path d="M-0.28,-0 L 0.28 -0 0.28 0 -0.28 0 z" class="primitive"/>
            </g>
            <g transform="translate(94.99,78.72)" id="img-5c1d34f0-167">
              <path d="M-0.28,-0 L 0.28 -0 0.28 0 -0.28 0 z" class="primitive"/>
            </g>
            <g transform="translate(95.5,78.72)" id="img-5c1d34f0-168">
              <path d="M-0.28,-0 L 0.28 -0 0.28 0 -0.28 0 z" class="primitive"/>
            </g>
            <g transform="translate(96,78.72)" id="img-5c1d34f0-169">
              <path d="M-0.28,-0 L 0.28 -0 0.28 0 -0.28 0 z" class="primitive"/>
            </g>
            <g transform="translate(96.51,78.72)" id="img-5c1d34f0-170">
              <path d="M-0.28,-0 L 0.28 -0 0.28 0 -0.28 0 z" class="primitive"/>
            </g>
          </g>
        </g>
      </g>
    </g>
  </g>
  <g class="guide ylabels" font-size="2.82" font-family="'PT Sans Caption','Helvetica Neue','Helvetica',sans-serif" fill="#6C606B" id="img-5c1d34f0-171">
    <g transform="translate(18.11,78.71)" id="img-5c1d34f0-172">
      <g class="primitive">
        <text text-anchor="end" dy="0.35em">0</text>
      </g>
    </g>
    <g transform="translate(18.11,54.81)" id="img-5c1d34f0-173">
      <g class="primitive">
        <text text-anchor="end" dy="0.35em">5.0×10³</text>
      </g>
    </g>
    <g transform="translate(18.11,30.9)" id="img-5c1d34f0-174">
      <g class="primitive">
        <text text-anchor="end" dy="0.35em">1.0×10⁴</text>
      </g>
    </g>
    <g transform="translate(18.11,7)" id="img-5c1d34f0-175">
      <g class="primitive">
        <text text-anchor="end" dy="0.35em">1.5×10⁴</text>
      </g>
    </g>
  </g>
</g>
<defs>
  <clipPath id="img-5c1d34f0-4">
    <path d="M19.11,5 L 136.42 5 136.42 80.72 19.11 80.72" />
  </clipPath>
</defs>
</svg>
