<?xml version="1.0" encoding="UTF-8"?>
<svg xmlns="http://www.w3.org/2000/svg"
     xmlns:xlink="http://www.w3.org/1999/xlink"
     xmlns:gadfly="http://www.gadflyjl.org/ns"
     version="1.2"
     width="141.42mm" height="100mm" viewBox="0 0 141.42 100"
     stroke="none"
     fill="#000000"
     stroke-width="0.3"
     font-size="3.88"
>
<defs>
  <marker id="arrow" markerWidth="15" markerHeight="7" refX="5" refY="3.5" orient="auto" markerUnits="strokeWidth">
    <path d="M0,0 L15,3.5 L0,7 z" stroke="context-stroke" fill="context-stroke"/>
  </marker>
</defs>
<g class="plotroot xscalable yscalable" id="img-5049d7fc-1">
  <g font-size="3.88" font-family="'PT Sans','Helvetica Neue','Helvetica',sans-serif" fill="#564A55" stroke="#000000" stroke-opacity="0.000" id="img-5049d7fc-2">
    <g transform="translate(73.72,88.39)">
      <g class="primitive">
        <text text-anchor="middle" dy="0.6em">β₁</text>
      </g>
    </g>
  </g>
  <g class="guide xlabels" font-size="2.82" font-family="'PT Sans Caption','Helvetica Neue','Helvetica',sans-serif" fill="#6C606B" id="img-5049d7fc-3">
    <g transform="translate(13.02,81.72)">
      <g class="primitive">
        <text text-anchor="middle" dy="0.6em">57</text>
      </g>
    </g>
    <g transform="translate(33.25,81.72)">
      <g class="primitive">
        <text text-anchor="middle" dy="0.6em">58</text>
      </g>
    </g>
    <g transform="translate(53.49,81.72)">
      <g class="primitive">
        <text text-anchor="middle" dy="0.6em">59</text>
      </g>
    </g>
    <g transform="translate(73.72,81.72)">
      <g class="primitive">
        <text text-anchor="middle" dy="0.6em">60</text>
      </g>
    </g>
    <g transform="translate(93.95,81.72)">
      <g class="primitive">
        <text text-anchor="middle" dy="0.6em">61</text>
      </g>
    </g>
    <g transform="translate(114.19,81.72)">
      <g class="primitive">
        <text text-anchor="middle" dy="0.6em">62</text>
      </g>
    </g>
    <g transform="translate(134.42,81.72)">
      <g class="primitive">
        <text text-anchor="middle" dy="0.6em">63</text>
      </g>
    </g>
  </g>
  <g clip-path="url(#img-5049d7fc-4)">
    <g id="img-5049d7fc-5">
      <g pointer-events="visible" fill="#000000" fill-opacity="0.000" stroke="#000000" stroke-opacity="0.000" class="guide background" id="img-5049d7fc-6">
        <g transform="translate(73.72,42.86)" id="img-5049d7fc-7">
          <path d="M-62.7,-37.86 L 62.7 -37.86 62.7 37.86 -62.7 37.86 z" class="primitive"/>
        </g>
      </g>
      <g class="guide ygridlines xfixed" stroke-dasharray="0.5,0.5" stroke-width="0.2" stroke="#D0D0E0" id="img-5049d7fc-8">
        <g transform="translate(73.72,78.72)" id="img-5049d7fc-9">
          <path fill="none" d="M-62.7,0 L 62.7 0" class="primitive"/>
        </g>
        <g transform="translate(73.72,60.79)" id="img-5049d7fc-10">
          <path fill="none" d="M-62.7,0 L 62.7 0" class="primitive"/>
        </g>
        <g transform="translate(73.72,42.86)" id="img-5049d7fc-11">
          <path fill="none" d="M-62.7,0 L 62.7 0" class="primitive"/>
        </g>
        <g transform="translate(73.72,24.93)" id="img-5049d7fc-12">
          <path fill="none" d="M-62.7,0 L 62.7 0" class="primitive"/>
        </g>
        <g transform="translate(73.72,7)" id="img-5049d7fc-13">
          <path fill="none" d="M-62.7,0 L 62.7 0" class="primitive"/>
        </g>
      </g>
      <g class="guide xgridlines yfixed" stroke-dasharray="0.5,0.5" stroke-width="0.2" stroke="#D0D0E0" id="img-5049d7fc-14">
        <g transform="translate(13.02,42.86)" id="img-5049d7fc-15">
          <path fill="none" d="M0,-37.86 L 0 37.86" class="primitive"/>
        </g>
        <g transform="translate(33.25,42.86)" id="img-5049d7fc-16">
          <path fill="none" d="M0,-37.86 L 0 37.86" class="primitive"/>
        </g>
        <g transform="translate(53.49,42.86)" id="img-5049d7fc-17">
          <path fill="none" d="M0,-37.86 L 0 37.86" class="primitive"/>
        </g>
        <g transform="translate(73.72,42.86)" id="img-5049d7fc-18">
          <path fill="none" d="M0,-37.86 L 0 37.86" class="primitive"/>
        </g>
        <g transform="translate(93.95,42.86)" id="img-5049d7fc-19">
          <path fill="none" d="M0,-37.86 L 0 37.86" class="primitive"/>
        </g>
        <g transform="translate(114.19,42.86)" id="img-5049d7fc-20">
          <path fill="none" d="M0,-37.86 L 0 37.86" class="primitive"/>
        </g>
        <g transform="translate(134.42,42.86)" id="img-5049d7fc-21">
          <path fill="none" d="M0,-37.86 L 0 37.86" class="primitive"/>
        </g>
      </g>
      <g class="plotpanel" id="img-5049d7fc-22">
        <metadata>
          <boundingbox value="11.02000000000001mm 5.0mm 125.4013562373095mm 75.715mm"/>
          <unitbox value="56.90115431678915 0.82231053475563 6.197691366421689 -0.8446210695112599"/>
        </metadata>
        <g stroke-width="0.3" fill="#000000" fill-opacity="0.000" class="geometry" id="img-5049d7fc-23">
          <g class="color_LCHab{Float32}(70.0f0,60.0f0,240.0f0)" stroke-dasharray="none" stroke="#00BFFF" id="img-5049d7fc-24">
            <g transform="translate(75.15,62.3)" id="img-5049d7fc-25">
              <path fill="none" d="M-55.05,16.41 L -54.61 16.41 -54.18 16.41 -53.75 16.41 -53.32 16.41 -52.89 16.41 -52.46 16.41 -52.02 16.41 -51.59 16.41 -51.16 16.4 -50.73 16.4 -50.3 16.4 -49.87 16.39 -49.43 16.38 -49 16.37 -48.57 16.36 -48.14 16.34 -47.71 16.33 -47.28 16.31 -46.84 16.29 -46.41 16.26 -45.98 16.24 -45.55 16.21 -45.12 16.19 -44.68 16.16 -44.25 16.14 -43.82 16.11 -43.39 16.09 -42.96 16.08 -42.53 16.06 -42.09 16.05 -41.66 16.04 -41.23 16.02 -40.8 16.01 -40.37 15.98 -39.94 15.95 -39.5 15.9 -39.07 15.84 -38.64 15.77 -38.21 15.68 -37.78 15.57 -37.35 15.45 -36.91 15.31 -36.48 15.18 -36.05 15.03 -35.62 14.89 -35.19 14.75 -34.75 14.59 -34.32 14.43 -33.89 14.25 -33.46 14.05 -33.03 13.81 -32.6 13.56 -32.16 13.28 -31.73 12.98 -31.3 12.67 -30.87 12.36 -30.44 12.04 -30.01 11.72 -29.57 11.4 -29.14 11.07 -28.71 10.72 -28.28 10.36 -27.85 9.98 -27.42 9.59 -26.98 9.17 -26.55 8.73 -26.12 8.26 -25.69 7.76 -25.26 7.23 -24.82 6.66 -24.39 6.06 -23.96 5.45 -23.53 4.83 -23.1 4.22 -22.67 3.6 -22.23 2.98 -21.8 2.33 -21.37 1.62 -20.94 0.85 -20.51 -0.01 -20.08 -0.98 -19.64 -2.03 -19.21 -3.17 -18.78 -4.35 -18.35 -5.55 -17.92 -6.73 -17.49 -7.87 -17.05 -8.95 -16.62 -9.96 -16.19 -10.92 -15.76 -11.86 -15.33 -12.78 -14.89 -13.72 -14.46 -14.67 -14.03 -15.63 -13.6 -16.62 -13.17 -17.61 -12.74 -18.62 -12.3 -19.64 -11.87 -20.67 -11.44 -21.71 -11.01 -22.79 -10.58 -23.88 -10.15 -25.01 -9.71 -26.17 -9.28 -27.35 -8.85 -28.55 -8.42 -29.75 -7.99 -30.94 -7.56 -32.08 -7.12 -33.16 -6.69 -34.14 -6.26 -35.02 -5.83 -35.79 -5.4 -36.44 -4.96 -36.98 -4.53 -37.4 -4.1 -37.7 -3.67 -37.88 -3.24 -37.95 -2.81 -37.93 -2.37 -37.82 -1.94 -37.66 -1.51 -37.48 -1.08 -37.31 -0.65 -37.18 -0.22 -37.11 0.22 -37.11 0.65 -37.16 1.08 -37.22 1.51 -37.28 1.94 -37.27 2.37 -37.15 2.81 -36.89 3.24 -36.45 3.67 -35.85 4.1 -35.1 4.53 -34.26 4.96 -33.37 5.4 -32.5 5.83 -31.67 6.26 -30.89 6.69 -30.17 7.12 -29.46 7.56 -28.74 7.99 -27.97 8.42 -27.14 8.85 -26.26 9.28 -25.33 9.71 -24.36 10.15 -23.36 10.58 -22.35 11.01 -21.33 11.44 -20.28 11.87 -19.21 12.3 -18.11 12.74 -16.99 13.17 -15.85 13.6 -14.7 14.03 -13.55 14.46 -12.41 14.89 -11.28 15.33 -10.17 15.76 -9.07 16.19 -7.99 16.62 -6.93 17.05 -5.9 17.49 -4.9 17.92 -3.93 18.35 -3.01 18.78 -2.14 19.21 -1.32 19.64 -0.53 20.08 0.22 20.51 0.96 20.94 1.68 21.37 2.4 21.8 3.1 22.23 3.79 22.67 4.45 23.1 5.07 23.53 5.65 23.96 6.2 24.39 6.71 24.82 7.2 25.26 7.68 25.69 8.16 26.12 8.63 26.55 9.11 26.98 9.58 27.42 10.03 27.85 10.46 28.28 10.86 28.71 11.22 29.14 11.55 29.57 11.85 30.01 12.12 30.44 12.37 30.87 12.62 31.3 12.86 31.73 13.11 32.16 13.36 32.6 13.61 33.03 13.87 33.46 14.12 33.89 14.35 34.32 14.57 34.75 14.77 35.19 14.94 35.62 15.09 36.05 15.21 36.48 15.32 36.91 15.41 37.35 15.48 37.78 15.55 38.21 15.62 38.64 15.69 39.07 15.75 39.5 15.81 39.94 15.86 40.37 15.91 40.8 15.95 41.23 15.98 41.66 16 42.09 16.02 42.53 16.04 42.96 16.06 43.39 16.09 43.82 16.12 44.25 16.15 44.68 16.18 45.12 16.21 45.55 16.24 45.98 16.27 46.41 16.29 46.84 16.31 47.28 16.32 47.71 16.34 48.14 16.35 48.57 16.36 49 16.37 49.43 16.38 49.87 16.39 50.3 16.4 50.73 16.4 51.16 16.4 51.59 16.41 52.02 16.41 52.46 16.41 52.89 16.41 53.32 16.41 53.75 16.41 54.18 16.41 54.61 16.41 55.05 16.41" class="primitive"/>
            </g>
          </g>
        </g>
      </g>
    </g>
  </g>
  <g class="guide ylabels" font-size="2.82" font-family="'PT Sans Caption','Helvetica Neue','Helvetica',sans-serif" fill="#6C606B" id="img-5049d7fc-26">
    <g transform="translate(10.02,78.72)" id="img-5049d7fc-27">
      <g class="primitive">
        <text text-anchor="end" dy="0.35em">0.0</text>
      </g>
    </g>
    <g transform="translate(10.02,60.79)" id="img-5049d7fc-28">
      <g class="primitive">
        <text text-anchor="end" dy="0.35em">0.2</text>
      </g>
    </g>
    <g transform="translate(10.02,42.86)" id="img-5049d7fc-29">
      <g class="primitive">
        <text text-anchor="end" dy="0.35em">0.4</text>
      </g>
    </g>
    <g transform="translate(10.02,24.93)" id="img-5049d7fc-30">
      <g class="primitive">
        <text text-anchor="end" dy="0.35em">0.6</text>
      </g>
    </g>
    <g transform="translate(10.02,7)" id="img-5049d7fc-31">
      <g class="primitive">
        <text text-anchor="end" dy="0.35em">0.8</text>
      </g>
    </g>
  </g>
</g>
<defs>
  <clipPath id="img-5049d7fc-4">
    <path d="M11.02,5 L 136.42 5 136.42 80.72 11.02 80.72" />
  </clipPath>
</defs>
</svg>
