<?xml version="1.0" encoding="UTF-8"?>
<svg xmlns="http://www.w3.org/2000/svg"
     xmlns:xlink="http://www.w3.org/1999/xlink"
     xmlns:gadfly="http://www.gadflyjl.org/ns"
     version="1.2"
     width="177.8mm" height="101.6mm" viewBox="0 0 177.8 101.6"
     stroke="none"
     fill="#000000"
     stroke-width="0.3"
     font-size="3.88"
>
<defs>
  <marker id="arrow" markerWidth="15" markerHeight="7" refX="5" refY="3.5" orient="auto" markerUnits="strokeWidth">
    <path d="M0,0 L15,3.5 L0,7 z" stroke="context-stroke" fill="context-stroke"/>
  </marker>
</defs>
<g class="plotroot xscalable yscalable" id="img-99ef1e15-1">
  <g font-size="3.88" font-family="'PT Sans','Helvetica Neue','Helvetica',sans-serif" fill="#564A55" stroke="#000000" stroke-opacity="0.000" id="img-99ef1e15-2">
    <g transform="translate(93.25,89.99)">
      <g class="primitive">
        <text text-anchor="middle" dy="0.6em">Parametric bootstrap estimates of σ₁</text>
      </g>
    </g>
  </g>
  <g class="guide xlabels" font-size="2.82" font-family="'PT Sans Caption','Helvetica Neue','Helvetica',sans-serif" fill="#6C606B" id="img-99ef1e15-3">
    <g transform="translate(15.69,83.31)">
      <g class="primitive">
        <text text-anchor="middle" dy="0.6em">0</text>
      </g>
    </g>
    <g transform="translate(93.25,83.31)">
      <g class="primitive">
        <text text-anchor="middle" dy="0.6em">50</text>
      </g>
    </g>
    <g transform="translate(170.8,83.31)">
      <g class="primitive">
        <text text-anchor="middle" dy="0.6em">100</text>
      </g>
    </g>
  </g>
  <g clip-path="url(#img-99ef1e15-4)">
    <g id="img-99ef1e15-5">
      <g pointer-events="visible" fill="#000000" fill-opacity="0.000" stroke="#000000" stroke-opacity="0.000" class="guide background" id="img-99ef1e15-6">
        <g transform="translate(93.25,43.66)" id="img-99ef1e15-7">
          <path d="M-79.55,-38.66 L 79.55 -38.66 79.55 38.66 -79.55 38.66 z" class="primitive"/>
        </g>
      </g>
      <g class="guide ygridlines xfixed" stroke-dasharray="0.5,0.5" stroke-width="0.2" stroke="#D0D0E0" id="img-99ef1e15-8">
        <g transform="translate(93.25,80.31)" id="img-99ef1e15-9">
          <path fill="none" d="M-79.55,0 L 79.55 0" class="primitive"/>
        </g>
        <g transform="translate(93.25,43.66)" id="img-99ef1e15-10">
          <path fill="none" d="M-79.55,0 L 79.55 0" class="primitive"/>
        </g>
        <g transform="translate(93.25,7)" id="img-99ef1e15-11">
          <path fill="none" d="M-79.55,0 L 79.55 0" class="primitive"/>
        </g>
      </g>
      <g class="guide xgridlines yfixed" stroke-dasharray="0.5,0.5" stroke-width="0.2" stroke="#D0D0E0" id="img-99ef1e15-12">
        <g transform="translate(15.69,43.66)" id="img-99ef1e15-13">
          <path fill="none" d="M0,-38.66 L 0 38.66" class="primitive"/>
        </g>
        <g transform="translate(93.25,43.66)" id="img-99ef1e15-14">
          <path fill="none" d="M0,-38.66 L 0 38.66" class="primitive"/>
        </g>
        <g transform="translate(170.8,43.66)" id="img-99ef1e15-15">
          <path fill="none" d="M0,-38.66 L 0 38.66" class="primitive"/>
        </g>
      </g>
      <g class="plotpanel" id="img-99ef1e15-16">
        <metadata>
          <boundingbox value="13.693333333333328mm 5.0mm 159.10666666666665mm 77.31499999999998mm"/>
          <unitbox value="-1.2894352273704122 1027.279547159517 102.57887045474084 -1054.5590943190343"/>
        </metadata>
        <g shape-rendering="crispEdges" stroke-width="0.3" id="img-99ef1e15-17">
          <g stroke="#000000" stroke-opacity="0.000" class="geometry" fill="#00BFFF" id="img-99ef1e15-18">
            <g transform="translate(16.17,45.67)" id="img-99ef1e15-19">
              <path d="M-0.5,-34.64 L 0.5 -34.64 0.5 34.64 -0.5 34.64 z" class="primitive"/>
            </g>
            <g transform="translate(17.13,79.95)" id="img-99ef1e15-20">
              <path d="M-0.5,-0.37 L 0.5 -0.37 0.5 0.37 -0.5 0.37 z" class="primitive"/>
            </g>
            <g transform="translate(18.08,80.21)" id="img-99ef1e15-21">
              <path d="M-0.5,-0.11 L 0.5 -0.11 0.5 0.11 -0.5 0.11 z" class="primitive"/>
            </g>
            <g transform="translate(19.04,80.02)" id="img-99ef1e15-22">
              <path d="M-0.5,-0.29 L 0.5 -0.29 0.5 0.29 -0.5 0.29 z" class="primitive"/>
            </g>
            <g transform="translate(19.99,80.06)" id="img-99ef1e15-23">
              <path d="M-0.5,-0.26 L 0.5 -0.26 0.5 0.26 -0.5 0.26 z" class="primitive"/>
            </g>
            <g transform="translate(20.95,79.44)" id="img-99ef1e15-24">
              <path d="M-0.5,-0.88 L 0.5 -0.88 0.5 0.88 -0.5 0.88 z" class="primitive"/>
            </g>
            <g transform="translate(21.9,79.73)" id="img-99ef1e15-25">
              <path d="M-0.5,-0.59 L 0.5 -0.59 0.5 0.59 -0.5 0.59 z" class="primitive"/>
            </g>
            <g transform="translate(22.86,79.66)" id="img-99ef1e15-26">
              <path d="M-0.5,-0.66 L 0.5 -0.66 0.5 0.66 -0.5 0.66 z" class="primitive"/>
            </g>
            <g transform="translate(23.81,79.47)" id="img-99ef1e15-27">
              <path d="M-0.5,-0.84 L 0.5 -0.84 0.5 0.84 -0.5 0.84 z" class="primitive"/>
            </g>
            <g transform="translate(24.77,79.18)" id="img-99ef1e15-28">
              <path d="M-0.5,-1.14 L 0.5 -1.14 0.5 1.14 -0.5 1.14 z" class="primitive"/>
            </g>
            <g transform="translate(25.73,79.33)" id="img-99ef1e15-29">
              <path d="M-0.5,-0.99 L 0.5 -0.99 0.5 0.99 -0.5 0.99 z" class="primitive"/>
            </g>
            <g transform="translate(26.68,79.03)" id="img-99ef1e15-30">
              <path d="M-0.5,-1.28 L 0.5 -1.28 0.5 1.28 -0.5 1.28 z" class="primitive"/>
            </g>
            <g transform="translate(27.64,78.85)" id="img-99ef1e15-31">
              <path d="M-0.5,-1.47 L 0.5 -1.47 0.5 1.47 -0.5 1.47 z" class="primitive"/>
            </g>
            <g transform="translate(28.59,78.81)" id="img-99ef1e15-32">
              <path d="M-0.5,-1.5 L 0.5 -1.5 0.5 1.5 -0.5 1.5 z" class="primitive"/>
            </g>
            <g transform="translate(29.55,78.92)" id="img-99ef1e15-33">
              <path d="M-0.5,-1.39 L 0.5 -1.39 0.5 1.39 -0.5 1.39 z" class="primitive"/>
            </g>
            <g transform="translate(30.5,78.67)" id="img-99ef1e15-34">
              <path d="M-0.5,-1.65 L 0.5 -1.65 0.5 1.65 -0.5 1.65 z" class="primitive"/>
            </g>
            <g transform="translate(31.46,77.97)" id="img-99ef1e15-35">
              <path d="M-0.5,-2.35 L 0.5 -2.35 0.5 2.35 -0.5 2.35 z" class="primitive"/>
            </g>
            <g transform="translate(32.41,78.12)" id="img-99ef1e15-36">
              <path d="M-0.5,-2.2 L 0.5 -2.2 0.5 2.2 -0.5 2.2 z" class="primitive"/>
            </g>
            <g transform="translate(33.37,78.04)" id="img-99ef1e15-37">
              <path d="M-0.5,-2.27 L 0.5 -2.27 0.5 2.27 -0.5 2.27 z" class="primitive"/>
            </g>
            <g transform="translate(34.32,77.97)" id="img-99ef1e15-38">
              <path d="M-0.5,-2.35 L 0.5 -2.35 0.5 2.35 -0.5 2.35 z" class="primitive"/>
            </g>
            <g transform="translate(35.28,78.15)" id="img-99ef1e15-39">
              <path d="M-0.5,-2.16 L 0.5 -2.16 0.5 2.16 -0.5 2.16 z" class="primitive"/>
            </g>
            <g transform="translate(36.23,77.68)" id="img-99ef1e15-40">
              <path d="M-0.5,-2.64 L 0.5 -2.64 0.5 2.64 -0.5 2.64 z" class="primitive"/>
            </g>
            <g transform="translate(37.19,77.27)" id="img-99ef1e15-41">
              <path d="M-0.5,-3.04 L 0.5 -3.04 0.5 3.04 -0.5 3.04 z" class="primitive"/>
            </g>
            <g transform="translate(38.15,77.42)" id="img-99ef1e15-42">
              <path d="M-0.5,-2.9 L 0.5 -2.9 0.5 2.9 -0.5 2.9 z" class="primitive"/>
            </g>
            <g transform="translate(39.1,77.27)" id="img-99ef1e15-43">
              <path d="M-0.5,-3.04 L 0.5 -3.04 0.5 3.04 -0.5 3.04 z" class="primitive"/>
            </g>
            <g transform="translate(40.06,76.5)" id="img-99ef1e15-44">
              <path d="M-0.5,-3.81 L 0.5 -3.81 0.5 3.81 -0.5 3.81 z" class="primitive"/>
            </g>
            <g transform="translate(41.01,76.91)" id="img-99ef1e15-45">
              <path d="M-0.5,-3.41 L 0.5 -3.41 0.5 3.41 -0.5 3.41 z" class="primitive"/>
            </g>
            <g transform="translate(41.97,76.54)" id="img-99ef1e15-46">
              <path d="M-0.5,-3.78 L 0.5 -3.78 0.5 3.78 -0.5 3.78 z" class="primitive"/>
            </g>
            <g transform="translate(42.92,76.61)" id="img-99ef1e15-47">
              <path d="M-0.5,-3.7 L 0.5 -3.7 0.5 3.7 -0.5 3.7 z" class="primitive"/>
            </g>
            <g transform="translate(43.88,76.61)" id="img-99ef1e15-48">
              <path d="M-0.5,-3.7 L 0.5 -3.7 0.5 3.7 -0.5 3.7 z" class="primitive"/>
            </g>
            <g transform="translate(44.83,75.77)" id="img-99ef1e15-49">
              <path d="M-0.5,-4.55 L 0.5 -4.55 0.5 4.55 -0.5 4.55 z" class="primitive"/>
            </g>
            <g transform="translate(45.79,75.59)" id="img-99ef1e15-50">
              <path d="M-0.5,-4.73 L 0.5 -4.73 0.5 4.73 -0.5 4.73 z" class="primitive"/>
            </g>
            <g transform="translate(46.74,75.59)" id="img-99ef1e15-51">
              <path d="M-0.5,-4.73 L 0.5 -4.73 0.5 4.73 -0.5 4.73 z" class="primitive"/>
            </g>
            <g transform="translate(47.7,75.88)" id="img-99ef1e15-52">
              <path d="M-0.5,-4.44 L 0.5 -4.44 0.5 4.44 -0.5 4.44 z" class="primitive"/>
            </g>
            <g transform="translate(48.65,75.95)" id="img-99ef1e15-53">
              <path d="M-0.5,-4.36 L 0.5 -4.36 0.5 4.36 -0.5 4.36 z" class="primitive"/>
            </g>
            <g transform="translate(49.61,75.51)" id="img-99ef1e15-54">
              <path d="M-0.5,-4.8 L 0.5 -4.8 0.5 4.8 -0.5 4.8 z" class="primitive"/>
            </g>
            <g transform="translate(50.57,75)" id="img-99ef1e15-55">
              <path d="M-0.5,-5.32 L 0.5 -5.32 0.5 5.32 -0.5 5.32 z" class="primitive"/>
            </g>
            <g transform="translate(51.52,75.15)" id="img-99ef1e15-56">
              <path d="M-0.5,-5.17 L 0.5 -5.17 0.5 5.17 -0.5 5.17 z" class="primitive"/>
            </g>
            <g transform="translate(52.48,75.33)" id="img-99ef1e15-57">
              <path d="M-0.5,-4.99 L 0.5 -4.99 0.5 4.99 -0.5 4.99 z" class="primitive"/>
            </g>
            <g transform="translate(53.43,74.89)" id="img-99ef1e15-58">
              <path d="M-0.5,-5.43 L 0.5 -5.43 0.5 5.43 -0.5 5.43 z" class="primitive"/>
            </g>
            <g transform="translate(54.39,75.51)" id="img-99ef1e15-59">
              <path d="M-0.5,-4.8 L 0.5 -4.8 0.5 4.8 -0.5 4.8 z" class="primitive"/>
            </g>
            <g transform="translate(55.34,74.96)" id="img-99ef1e15-60">
              <path d="M-0.5,-5.35 L 0.5 -5.35 0.5 5.35 -0.5 5.35 z" class="primitive"/>
            </g>
            <g transform="translate(56.3,75.11)" id="img-99ef1e15-61">
              <path d="M-0.5,-5.21 L 0.5 -5.21 0.5 5.21 -0.5 5.21 z" class="primitive"/>
            </g>
            <g transform="translate(57.25,74.74)" id="img-99ef1e15-62">
              <path d="M-0.5,-5.57 L 0.5 -5.57 0.5 5.57 -0.5 5.57 z" class="primitive"/>
            </g>
            <g transform="translate(58.21,74.78)" id="img-99ef1e15-63">
              <path d="M-0.5,-5.54 L 0.5 -5.54 0.5 5.54 -0.5 5.54 z" class="primitive"/>
            </g>
            <g transform="translate(59.16,74.74)" id="img-99ef1e15-64">
              <path d="M-0.5,-5.57 L 0.5 -5.57 0.5 5.57 -0.5 5.57 z" class="primitive"/>
            </g>
            <g transform="translate(60.12,74.82)" id="img-99ef1e15-65">
              <path d="M-0.5,-5.5 L 0.5 -5.5 0.5 5.5 -0.5 5.5 z" class="primitive"/>
            </g>
            <g transform="translate(61.07,74.74)" id="img-99ef1e15-66">
              <path d="M-0.5,-5.57 L 0.5 -5.57 0.5 5.57 -0.5 5.57 z" class="primitive"/>
            </g>
            <g transform="translate(62.03,74.12)" id="img-99ef1e15-67">
              <path d="M-0.5,-6.2 L 0.5 -6.2 0.5 6.2 -0.5 6.2 z" class="primitive"/>
            </g>
            <g transform="translate(62.99,74.82)" id="img-99ef1e15-68">
              <path d="M-0.5,-5.5 L 0.5 -5.5 0.5 5.5 -0.5 5.5 z" class="primitive"/>
            </g>
            <g transform="translate(63.94,74.34)" id="img-99ef1e15-69">
              <path d="M-0.5,-5.98 L 0.5 -5.98 0.5 5.98 -0.5 5.98 z" class="primitive"/>
            </g>
            <g transform="translate(64.9,75.07)" id="img-99ef1e15-70">
              <path d="M-0.5,-5.24 L 0.5 -5.24 0.5 5.24 -0.5 5.24 z" class="primitive"/>
            </g>
            <g transform="translate(65.85,74.67)" id="img-99ef1e15-71">
              <path d="M-0.5,-5.65 L 0.5 -5.65 0.5 5.65 -0.5 5.65 z" class="primitive"/>
            </g>
            <g transform="translate(66.81,74.3)" id="img-99ef1e15-72">
              <path d="M-0.5,-6.01 L 0.5 -6.01 0.5 6.01 -0.5 6.01 z" class="primitive"/>
            </g>
            <g transform="translate(67.76,74.63)" id="img-99ef1e15-73">
              <path d="M-0.5,-5.68 L 0.5 -5.68 0.5 5.68 -0.5 5.68 z" class="primitive"/>
            </g>
            <g transform="translate(68.72,74.52)" id="img-99ef1e15-74">
              <path d="M-0.5,-5.79 L 0.5 -5.79 0.5 5.79 -0.5 5.79 z" class="primitive"/>
            </g>
            <g transform="translate(69.67,74.71)" id="img-99ef1e15-75">
              <path d="M-0.5,-5.61 L 0.5 -5.61 0.5 5.61 -0.5 5.61 z" class="primitive"/>
            </g>
            <g transform="translate(70.63,74.71)" id="img-99ef1e15-76">
              <path d="M-0.5,-5.61 L 0.5 -5.61 0.5 5.61 -0.5 5.61 z" class="primitive"/>
            </g>
            <g transform="translate(71.58,74.41)" id="img-99ef1e15-77">
              <path d="M-0.5,-5.9 L 0.5 -5.9 0.5 5.9 -0.5 5.9 z" class="primitive"/>
            </g>
            <g transform="translate(72.54,73.9)" id="img-99ef1e15-78">
              <path d="M-0.5,-6.42 L 0.5 -6.42 0.5 6.42 -0.5 6.42 z" class="primitive"/>
            </g>
            <g transform="translate(73.49,75.59)" id="img-99ef1e15-79">
              <path d="M-0.5,-4.73 L 0.5 -4.73 0.5 4.73 -0.5 4.73 z" class="primitive"/>
            </g>
            <g transform="translate(74.45,75.29)" id="img-99ef1e15-80">
              <path d="M-0.5,-5.02 L 0.5 -5.02 0.5 5.02 -0.5 5.02 z" class="primitive"/>
            </g>
            <g transform="translate(75.41,75.33)" id="img-99ef1e15-81">
              <path d="M-0.5,-4.99 L 0.5 -4.99 0.5 4.99 -0.5 4.99 z" class="primitive"/>
            </g>
            <g transform="translate(76.36,75.88)" id="img-99ef1e15-82">
              <path d="M-0.5,-4.44 L 0.5 -4.44 0.5 4.44 -0.5 4.44 z" class="primitive"/>
            </g>
            <g transform="translate(77.32,75.29)" id="img-99ef1e15-83">
              <path d="M-0.5,-5.02 L 0.5 -5.02 0.5 5.02 -0.5 5.02 z" class="primitive"/>
            </g>
            <g transform="translate(78.27,75.51)" id="img-99ef1e15-84">
              <path d="M-0.5,-4.8 L 0.5 -4.8 0.5 4.8 -0.5 4.8 z" class="primitive"/>
            </g>
            <g transform="translate(79.23,75.55)" id="img-99ef1e15-85">
              <path d="M-0.5,-4.77 L 0.5 -4.77 0.5 4.77 -0.5 4.77 z" class="primitive"/>
            </g>
            <g transform="translate(80.18,76.06)" id="img-99ef1e15-86">
              <path d="M-0.5,-4.25 L 0.5 -4.25 0.5 4.25 -0.5 4.25 z" class="primitive"/>
            </g>
            <g transform="translate(81.14,76.1)" id="img-99ef1e15-87">
              <path d="M-0.5,-4.22 L 0.5 -4.22 0.5 4.22 -0.5 4.22 z" class="primitive"/>
            </g>
            <g transform="translate(82.09,76.17)" id="img-99ef1e15-88">
              <path d="M-0.5,-4.14 L 0.5 -4.14 0.5 4.14 -0.5 4.14 z" class="primitive"/>
            </g>
            <g transform="translate(83.05,76.06)" id="img-99ef1e15-89">
              <path d="M-0.5,-4.25 L 0.5 -4.25 0.5 4.25 -0.5 4.25 z" class="primitive"/>
            </g>
            <g transform="translate(84,77.16)" id="img-99ef1e15-90">
              <path d="M-0.5,-3.15 L 0.5 -3.15 0.5 3.15 -0.5 3.15 z" class="primitive"/>
            </g>
            <g transform="translate(84.96,75.66)" id="img-99ef1e15-91">
              <path d="M-0.5,-4.66 L 0.5 -4.66 0.5 4.66 -0.5 4.66 z" class="primitive"/>
            </g>
            <g transform="translate(85.92,77.05)" id="img-99ef1e15-92">
              <path d="M-0.5,-3.26 L 0.5 -3.26 0.5 3.26 -0.5 3.26 z" class="primitive"/>
            </g>
            <g transform="translate(86.87,77.2)" id="img-99ef1e15-93">
              <path d="M-0.5,-3.12 L 0.5 -3.12 0.5 3.12 -0.5 3.12 z" class="primitive"/>
            </g>
            <g transform="translate(87.83,77.35)" id="img-99ef1e15-94">
              <path d="M-0.5,-2.97 L 0.5 -2.97 0.5 2.97 -0.5 2.97 z" class="primitive"/>
            </g>
            <g transform="translate(88.78,77.35)" id="img-99ef1e15-95">
              <path d="M-0.5,-2.97 L 0.5 -2.97 0.5 2.97 -0.5 2.97 z" class="primitive"/>
            </g>
            <g transform="translate(89.74,77.68)" id="img-99ef1e15-96">
              <path d="M-0.5,-2.64 L 0.5 -2.64 0.5 2.64 -0.5 2.64 z" class="primitive"/>
            </g>
            <g transform="translate(90.69,78.01)" id="img-99ef1e15-97">
              <path d="M-0.5,-2.31 L 0.5 -2.31 0.5 2.31 -0.5 2.31 z" class="primitive"/>
            </g>
            <g transform="translate(91.65,77.6)" id="img-99ef1e15-98">
              <path d="M-0.5,-2.71 L 0.5 -2.71 0.5 2.71 -0.5 2.71 z" class="primitive"/>
            </g>
            <g transform="translate(92.6,77.35)" id="img-99ef1e15-99">
              <path d="M-0.5,-2.97 L 0.5 -2.97 0.5 2.97 -0.5 2.97 z" class="primitive"/>
            </g>
            <g transform="translate(93.56,77.9)" id="img-99ef1e15-100">
              <path d="M-0.5,-2.42 L 0.5 -2.42 0.5 2.42 -0.5 2.42 z" class="primitive"/>
            </g>
            <g transform="translate(94.51,78.01)" id="img-99ef1e15-101">
              <path d="M-0.5,-2.31 L 0.5 -2.31 0.5 2.31 -0.5 2.31 z" class="primitive"/>
            </g>
            <g transform="translate(95.47,78.23)" id="img-99ef1e15-102">
              <path d="M-0.5,-2.09 L 0.5 -2.09 0.5 2.09 -0.5 2.09 z" class="primitive"/>
            </g>
            <g transform="translate(96.42,78.41)" id="img-99ef1e15-103">
              <path d="M-0.5,-1.91 L 0.5 -1.91 0.5 1.91 -0.5 1.91 z" class="primitive"/>
            </g>
            <g transform="translate(97.38,78.45)" id="img-99ef1e15-104">
              <path d="M-0.5,-1.87 L 0.5 -1.87 0.5 1.87 -0.5 1.87 z" class="primitive"/>
            </g>
            <g transform="translate(98.34,78.41)" id="img-99ef1e15-105">
              <path d="M-0.5,-1.91 L 0.5 -1.91 0.5 1.91 -0.5 1.91 z" class="primitive"/>
            </g>
            <g transform="translate(99.29,78.08)" id="img-99ef1e15-106">
              <path d="M-0.5,-2.24 L 0.5 -2.24 0.5 2.24 -0.5 2.24 z" class="primitive"/>
            </g>
            <g transform="translate(100.25,78.34)" id="img-99ef1e15-107">
              <path d="M-0.5,-1.98 L 0.5 -1.98 0.5 1.98 -0.5 1.98 z" class="primitive"/>
            </g>
            <g transform="translate(101.2,78.81)" id="img-99ef1e15-108">
              <path d="M-0.5,-1.5 L 0.5 -1.5 0.5 1.5 -0.5 1.5 z" class="primitive"/>
            </g>
            <g transform="translate(102.16,78.92)" id="img-99ef1e15-109">
              <path d="M-0.5,-1.39 L 0.5 -1.39 0.5 1.39 -0.5 1.39 z" class="primitive"/>
            </g>
            <g transform="translate(103.11,79.07)" id="img-99ef1e15-110">
              <path d="M-0.5,-1.25 L 0.5 -1.25 0.5 1.25 -0.5 1.25 z" class="primitive"/>
            </g>
            <g transform="translate(104.07,79.22)" id="img-99ef1e15-111">
              <path d="M-0.5,-1.1 L 0.5 -1.1 0.5 1.1 -0.5 1.1 z" class="primitive"/>
            </g>
            <g transform="translate(105.02,79.11)" id="img-99ef1e15-112">
              <path d="M-0.5,-1.21 L 0.5 -1.21 0.5 1.21 -0.5 1.21 z" class="primitive"/>
            </g>
            <g transform="translate(105.98,79.36)" id="img-99ef1e15-113">
              <path d="M-0.5,-0.95 L 0.5 -0.95 0.5 0.95 -0.5 0.95 z" class="primitive"/>
            </g>
            <g transform="translate(106.93,79.4)" id="img-99ef1e15-114">
              <path d="M-0.5,-0.92 L 0.5 -0.92 0.5 0.92 -0.5 0.92 z" class="primitive"/>
            </g>
            <g transform="translate(107.89,79.4)" id="img-99ef1e15-115">
              <path d="M-0.5,-0.92 L 0.5 -0.92 0.5 0.92 -0.5 0.92 z" class="primitive"/>
            </g>
            <g transform="translate(108.84,79.69)" id="img-99ef1e15-116">
              <path d="M-0.5,-0.62 L 0.5 -0.62 0.5 0.62 -0.5 0.62 z" class="primitive"/>
            </g>
            <g transform="translate(109.8,79.62)" id="img-99ef1e15-117">
              <path d="M-0.5,-0.7 L 0.5 -0.7 0.5 0.7 -0.5 0.7 z" class="primitive"/>
            </g>
            <g transform="translate(110.76,79.58)" id="img-99ef1e15-118">
              <path d="M-0.5,-0.73 L 0.5 -0.73 0.5 0.73 -0.5 0.73 z" class="primitive"/>
            </g>
            <g transform="translate(111.71,79.77)" id="img-99ef1e15-119">
              <path d="M-0.5,-0.55 L 0.5 -0.55 0.5 0.55 -0.5 0.55 z" class="primitive"/>
            </g>
            <g transform="translate(112.67,79.73)" id="img-99ef1e15-120">
              <path d="M-0.5,-0.59 L 0.5 -0.59 0.5 0.59 -0.5 0.59 z" class="primitive"/>
            </g>
            <g transform="translate(113.62,79.88)" id="img-99ef1e15-121">
              <path d="M-0.5,-0.44 L 0.5 -0.44 0.5 0.44 -0.5 0.44 z" class="primitive"/>
            </g>
            <g transform="translate(114.58,80.02)" id="img-99ef1e15-122">
              <path d="M-0.5,-0.29 L 0.5 -0.29 0.5 0.29 -0.5 0.29 z" class="primitive"/>
            </g>
            <g transform="translate(115.53,79.99)" id="img-99ef1e15-123">
              <path d="M-0.5,-0.33 L 0.5 -0.33 0.5 0.33 -0.5 0.33 z" class="primitive"/>
            </g>
            <g transform="translate(116.49,79.69)" id="img-99ef1e15-124">
              <path d="M-0.5,-0.62 L 0.5 -0.62 0.5 0.62 -0.5 0.62 z" class="primitive"/>
            </g>
            <g transform="translate(117.44,79.84)" id="img-99ef1e15-125">
              <path d="M-0.5,-0.48 L 0.5 -0.48 0.5 0.48 -0.5 0.48 z" class="primitive"/>
            </g>
            <g transform="translate(118.4,79.91)" id="img-99ef1e15-126">
              <path d="M-0.5,-0.4 L 0.5 -0.4 0.5 0.4 -0.5 0.4 z" class="primitive"/>
            </g>
            <g transform="translate(119.35,79.95)" id="img-99ef1e15-127">
              <path d="M-0.5,-0.37 L 0.5 -0.37 0.5 0.37 -0.5 0.37 z" class="primitive"/>
            </g>
            <g transform="translate(120.31,80.13)" id="img-99ef1e15-128">
              <path d="M-0.5,-0.18 L 0.5 -0.18 0.5 0.18 -0.5 0.18 z" class="primitive"/>
            </g>
            <g transform="translate(121.26,79.95)" id="img-99ef1e15-129">
              <path d="M-0.5,-0.37 L 0.5 -0.37 0.5 0.37 -0.5 0.37 z" class="primitive"/>
            </g>
            <g transform="translate(122.22,80.17)" id="img-99ef1e15-130">
              <path d="M-0.5,-0.15 L 0.5 -0.15 0.5 0.15 -0.5 0.15 z" class="primitive"/>
            </g>
            <g transform="translate(123.18,80.28)" id="img-99ef1e15-131">
              <path d="M-0.5,-0.04 L 0.5 -0.04 0.5 0.04 -0.5 0.04 z" class="primitive"/>
            </g>
            <g transform="translate(124.13,80.17)" id="img-99ef1e15-132">
              <path d="M-0.5,-0.15 L 0.5 -0.15 0.5 0.15 -0.5 0.15 z" class="primitive"/>
            </g>
            <g transform="translate(125.09,80.21)" id="img-99ef1e15-133">
              <path d="M-0.5,-0.11 L 0.5 -0.11 0.5 0.11 -0.5 0.11 z" class="primitive"/>
            </g>
            <g transform="translate(126.04,80.1)" id="img-99ef1e15-134">
              <path d="M-0.5,-0.22 L 0.5 -0.22 0.5 0.22 -0.5 0.22 z" class="primitive"/>
            </g>
            <g transform="translate(127,80.1)" id="img-99ef1e15-135">
              <path d="M-0.5,-0.22 L 0.5 -0.22 0.5 0.22 -0.5 0.22 z" class="primitive"/>
            </g>
            <g transform="translate(127.95,80.21)" id="img-99ef1e15-136">
              <path d="M-0.5,-0.11 L 0.5 -0.11 0.5 0.11 -0.5 0.11 z" class="primitive"/>
            </g>
            <g transform="translate(128.91,80.28)" id="img-99ef1e15-137">
              <path d="M-0.5,-0.04 L 0.5 -0.04 0.5 0.04 -0.5 0.04 z" class="primitive"/>
            </g>
            <g transform="translate(129.86,80.21)" id="img-99ef1e15-138">
              <path d="M-0.5,-0.11 L 0.5 -0.11 0.5 0.11 -0.5 0.11 z" class="primitive"/>
            </g>
            <g transform="translate(130.82,80.17)" id="img-99ef1e15-139">
              <path d="M-0.5,-0.15 L 0.5 -0.15 0.5 0.15 -0.5 0.15 z" class="primitive"/>
            </g>
            <g transform="translate(131.77,80.21)" id="img-99ef1e15-140">
              <path d="M-0.5,-0.11 L 0.5 -0.11 0.5 0.11 -0.5 0.11 z" class="primitive"/>
            </g>
            <g transform="translate(132.73,80.24)" id="img-99ef1e15-141">
              <path d="M-0.5,-0.07 L 0.5 -0.07 0.5 0.07 -0.5 0.07 z" class="primitive"/>
            </g>
            <g transform="translate(133.69,80.32)" id="img-99ef1e15-142">
              <path d="M-0.5,-0 L 0.5 -0 0.5 0 -0.5 0 z" class="primitive"/>
            </g>
            <g transform="translate(134.64,80.32)" id="img-99ef1e15-143">
              <path d="M-0.5,-0 L 0.5 -0 0.5 0 -0.5 0 z" class="primitive"/>
            </g>
            <g transform="translate(135.6,80.28)" id="img-99ef1e15-144">
              <path d="M-0.5,-0.04 L 0.5 -0.04 0.5 0.04 -0.5 0.04 z" class="primitive"/>
            </g>
            <g transform="translate(136.55,80.21)" id="img-99ef1e15-145">
              <path d="M-0.5,-0.11 L 0.5 -0.11 0.5 0.11 -0.5 0.11 z" class="primitive"/>
            </g>
            <g transform="translate(137.51,80.28)" id="img-99ef1e15-146">
              <path d="M-0.5,-0.04 L 0.5 -0.04 0.5 0.04 -0.5 0.04 z" class="primitive"/>
            </g>
            <g transform="translate(138.46,80.32)" id="img-99ef1e15-147">
              <path d="M-0.5,-0 L 0.5 -0 0.5 0 -0.5 0 z" class="primitive"/>
            </g>
            <g transform="translate(139.42,80.32)" id="img-99ef1e15-148">
              <path d="M-0.5,-0 L 0.5 -0 0.5 0 -0.5 0 z" class="primitive"/>
            </g>
            <g transform="translate(140.37,80.28)" id="img-99ef1e15-149">
              <path d="M-0.5,-0.04 L 0.5 -0.04 0.5 0.04 -0.5 0.04 z" class="primitive"/>
            </g>
            <g transform="translate(141.33,80.28)" id="img-99ef1e15-150">
              <path d="M-0.5,-0.04 L 0.5 -0.04 0.5 0.04 -0.5 0.04 z" class="primitive"/>
            </g>
            <g transform="translate(142.28,80.28)" id="img-99ef1e15-151">
              <path d="M-0.5,-0.04 L 0.5 -0.04 0.5 0.04 -0.5 0.04 z" class="primitive"/>
            </g>
            <g transform="translate(143.24,80.32)" id="img-99ef1e15-152">
              <path d="M-0.5,-0 L 0.5 -0 0.5 0 -0.5 0 z" class="primitive"/>
            </g>
            <g transform="translate(144.19,80.32)" id="img-99ef1e15-153">
              <path d="M-0.5,-0 L 0.5 -0 0.5 0 -0.5 0 z" class="primitive"/>
            </g>
            <g transform="translate(145.15,80.28)" id="img-99ef1e15-154">
              <path d="M-0.5,-0.04 L 0.5 -0.04 0.5 0.04 -0.5 0.04 z" class="primitive"/>
            </g>
            <g transform="translate(146.11,80.32)" id="img-99ef1e15-155">
              <path d="M-0.5,-0 L 0.5 -0 0.5 0 -0.5 0 z" class="primitive"/>
            </g>
            <g transform="translate(147.06,80.32)" id="img-99ef1e15-156">
              <path d="M-0.5,-0 L 0.5 -0 0.5 0 -0.5 0 z" class="primitive"/>
            </g>
            <g transform="translate(148.02,80.32)" id="img-99ef1e15-157">
              <path d="M-0.5,-0 L 0.5 -0 0.5 0 -0.5 0 z" class="primitive"/>
            </g>
            <g transform="translate(148.97,80.28)" id="img-99ef1e15-158">
              <path d="M-0.5,-0.04 L 0.5 -0.04 0.5 0.04 -0.5 0.04 z" class="primitive"/>
            </g>
            <g transform="translate(149.93,80.28)" id="img-99ef1e15-159">
              <path d="M-0.5,-0.04 L 0.5 -0.04 0.5 0.04 -0.5 0.04 z" class="primitive"/>
            </g>
            <g transform="translate(150.88,80.32)" id="img-99ef1e15-160">
              <path d="M-0.5,-0 L 0.5 -0 0.5 0 -0.5 0 z" class="primitive"/>
            </g>
            <g transform="translate(151.84,80.24)" id="img-99ef1e15-161">
              <path d="M-0.5,-0.07 L 0.5 -0.07 0.5 0.07 -0.5 0.07 z" class="primitive"/>
            </g>
            <g transform="translate(152.79,80.32)" id="img-99ef1e15-162">
              <path d="M-0.5,-0 L 0.5 -0 0.5 0 -0.5 0 z" class="primitive"/>
            </g>
            <g transform="translate(153.75,80.32)" id="img-99ef1e15-163">
              <path d="M-0.5,-0 L 0.5 -0 0.5 0 -0.5 0 z" class="primitive"/>
            </g>
            <g transform="translate(154.7,80.32)" id="img-99ef1e15-164">
              <path d="M-0.5,-0 L 0.5 -0 0.5 0 -0.5 0 z" class="primitive"/>
            </g>
            <g transform="translate(155.66,80.32)" id="img-99ef1e15-165">
              <path d="M-0.5,-0 L 0.5 -0 0.5 0 -0.5 0 z" class="primitive"/>
            </g>
            <g transform="translate(156.61,80.32)" id="img-99ef1e15-166">
              <path d="M-0.5,-0 L 0.5 -0 0.5 0 -0.5 0 z" class="primitive"/>
            </g>
            <g transform="translate(157.57,80.32)" id="img-99ef1e15-167">
              <path d="M-0.5,-0 L 0.5 -0 0.5 0 -0.5 0 z" class="primitive"/>
            </g>
            <g transform="translate(158.53,80.28)" id="img-99ef1e15-168">
              <path d="M-0.5,-0.04 L 0.5 -0.04 0.5 0.04 -0.5 0.04 z" class="primitive"/>
            </g>
          </g>
        </g>
      </g>
    </g>
  </g>
  <g class="guide ylabels" font-size="2.82" font-family="'PT Sans Caption','Helvetica Neue','Helvetica',sans-serif" fill="#6C606B" id="img-99ef1e15-169">
    <g transform="translate(12.69,80.31)" id="img-99ef1e15-170">
      <g class="primitive">
        <text text-anchor="end" dy="0.35em">0</text>
      </g>
    </g>
    <g transform="translate(12.69,43.66)" id="img-99ef1e15-171">
      <g class="primitive">
        <text text-anchor="end" dy="0.35em">500</text>
      </g>
    </g>
    <g transform="translate(12.69,7)" id="img-99ef1e15-172">
      <g class="primitive">
        <text text-anchor="end" dy="0.35em">1000</text>
      </g>
    </g>
  </g>
</g>
<defs>
  <clipPath id="img-99ef1e15-4">
    <path d="M13.69,5 L 172.8 5 172.8 82.31 13.69 82.31" />
  </clipPath>
</defs>
</svg>
