<?xml version="1.0" encoding="UTF-8"?>
<svg xmlns="http://www.w3.org/2000/svg"
     xmlns:xlink="http://www.w3.org/1999/xlink"
     xmlns:gadfly="http://www.gadflyjl.org/ns"
     version="1.2"
     width="177.8mm" height="101.6mm" viewBox="0 0 177.8 101.6"
     stroke="none"
     fill="#000000"
     stroke-width="0.3"
     font-size="3.88"
>
<defs>
  <marker id="arrow" markerWidth="15" markerHeight="7" refX="5" refY="3.5" orient="auto" markerUnits="strokeWidth">
    <path d="M0,0 L15,3.5 L0,7 z" stroke="context-stroke" fill="context-stroke"/>
  </marker>
</defs>
<g class="plotroot xscalable yscalable" id="img-e0d6accd-1">
  <g font-size="3.88" font-family="'PT Sans','Helvetica Neue','Helvetica',sans-serif" fill="#564A55" stroke="#000000" stroke-opacity="0.000" id="img-e0d6accd-2">
    <g transform="translate(92.41,89.99)">
      <g class="primitive">
        <text text-anchor="middle" dy="0.6em">Parametric bootstrap samples of correlation of random effects</text>
      </g>
    </g>
  </g>
  <g class="guide xlabels" font-size="2.82" font-family="'PT Sans Caption','Helvetica Neue','Helvetica',sans-serif" fill="#6C606B" id="img-e0d6accd-3">
    <g transform="translate(14.02,83.32)">
      <g class="primitive">
        <text text-anchor="middle" dy="0.6em">-2</text>
      </g>
    </g>
    <g transform="translate(53.22,83.32)">
      <g class="primitive">
        <text text-anchor="middle" dy="0.6em">-1</text>
      </g>
    </g>
    <g transform="translate(92.41,83.32)">
      <g class="primitive">
        <text text-anchor="middle" dy="0.6em">0</text>
      </g>
    </g>
    <g transform="translate(131.6,83.32)">
      <g class="primitive">
        <text text-anchor="middle" dy="0.6em">1</text>
      </g>
    </g>
    <g transform="translate(170.8,83.32)">
      <g class="primitive">
        <text text-anchor="middle" dy="0.6em">2</text>
      </g>
    </g>
  </g>
  <g clip-path="url(#img-e0d6accd-4)">
    <g id="img-e0d6accd-5">
      <g pointer-events="visible" fill="#000000" fill-opacity="0.000" stroke="#000000" stroke-opacity="0.000" class="guide background" id="img-e0d6accd-6">
        <g transform="translate(92.41,43.66)" id="img-e0d6accd-7">
          <path d="M-80.39,-38.66 L 80.39 -38.66 80.39 38.66 -80.39 38.66 z" class="primitive"/>
        </g>
      </g>
      <g class="guide ygridlines xfixed" stroke-dasharray="0.5,0.5" stroke-width="0.2" stroke="#D0D0E0" id="img-e0d6accd-8">
        <g transform="translate(92.41,80.32)" id="img-e0d6accd-9">
          <path fill="none" d="M-80.39,0 L 80.39 0" class="primitive"/>
        </g>
        <g transform="translate(92.41,61.99)" id="img-e0d6accd-10">
          <path fill="none" d="M-80.39,0 L 80.39 0" class="primitive"/>
        </g>
        <g transform="translate(92.41,43.66)" id="img-e0d6accd-11">
          <path fill="none" d="M-80.39,0 L 80.39 0" class="primitive"/>
        </g>
        <g transform="translate(92.41,25.33)" id="img-e0d6accd-12">
          <path fill="none" d="M-80.39,0 L 80.39 0" class="primitive"/>
        </g>
        <g transform="translate(92.41,7)" id="img-e0d6accd-13">
          <path fill="none" d="M-80.39,0 L 80.39 0" class="primitive"/>
        </g>
      </g>
      <g class="guide xgridlines yfixed" stroke-dasharray="0.5,0.5" stroke-width="0.2" stroke="#D0D0E0" id="img-e0d6accd-14">
        <g transform="translate(14.02,43.66)" id="img-e0d6accd-15">
          <path fill="none" d="M0,-38.66 L 0 38.66" class="primitive"/>
        </g>
        <g transform="translate(53.22,43.66)" id="img-e0d6accd-16">
          <path fill="none" d="M0,-38.66 L 0 38.66" class="primitive"/>
        </g>
        <g transform="translate(92.41,43.66)" id="img-e0d6accd-17">
          <path fill="none" d="M0,-38.66 L 0 38.66" class="primitive"/>
        </g>
        <g transform="translate(131.6,43.66)" id="img-e0d6accd-18">
          <path fill="none" d="M0,-38.66 L 0 38.66" class="primitive"/>
        </g>
        <g transform="translate(170.8,43.66)" id="img-e0d6accd-19">
          <path fill="none" d="M0,-38.66 L 0 38.66" class="primitive"/>
        </g>
      </g>
      <g class="plotpanel" id="img-e0d6accd-20">
        <metadata>
          <boundingbox value="12.02000000000001mm 5.0mm 160.77999999999997mm 77.315mm"/>
          <unitbox value="-2.0510269166985586 410.91181886380684 4.102053833397117 -421.82363772761374"/>
        </metadata>
        <g shape-rendering="crispEdges" stroke-width="0.3" id="img-e0d6accd-21">
          <g stroke="#000000" stroke-opacity="0.000" class="geometry" fill="#00BFFF" id="img-e0d6accd-22">
            <g transform="translate(53.48,79.49)" id="img-e0d6accd-23">
              <path d="M-0.29,-0.82 L 0.29 -0.82 0.29 0.82 -0.29 0.82 z" class="primitive"/>
            </g>
            <g transform="translate(54,80.32)" id="img-e0d6accd-24">
              <path d="M-0.29,-0 L 0.29 -0 0.29 0 -0.29 0 z" class="primitive"/>
            </g>
            <g transform="translate(54.52,80.32)" id="img-e0d6accd-25">
              <path d="M-0.29,-0 L 0.29 -0 0.29 0 -0.29 0 z" class="primitive"/>
            </g>
            <g transform="translate(55.04,80.32)" id="img-e0d6accd-26">
              <path d="M-0.29,-0 L 0.29 -0 0.29 0 -0.29 0 z" class="primitive"/>
            </g>
            <g transform="translate(55.57,80.32)" id="img-e0d6accd-27">
              <path d="M-0.29,-0 L 0.29 -0 0.29 0 -0.29 0 z" class="primitive"/>
            </g>
            <g transform="translate(56.09,80.22)" id="img-e0d6accd-28">
              <path d="M-0.29,-0.09 L 0.29 -0.09 0.29 0.09 -0.29 0.09 z" class="primitive"/>
            </g>
            <g transform="translate(56.61,80.32)" id="img-e0d6accd-29">
              <path d="M-0.29,-0 L 0.29 -0 0.29 0 -0.29 0 z" class="primitive"/>
            </g>
            <g transform="translate(57.13,80.32)" id="img-e0d6accd-30">
              <path d="M-0.29,-0 L 0.29 -0 0.29 0 -0.29 0 z" class="primitive"/>
            </g>
            <g transform="translate(57.66,80.32)" id="img-e0d6accd-31">
              <path d="M-0.29,-0 L 0.29 -0 0.29 0 -0.29 0 z" class="primitive"/>
            </g>
            <g transform="translate(58.18,80.22)" id="img-e0d6accd-32">
              <path d="M-0.29,-0.09 L 0.29 -0.09 0.29 0.09 -0.29 0.09 z" class="primitive"/>
            </g>
            <g transform="translate(58.7,80.22)" id="img-e0d6accd-33">
              <path d="M-0.29,-0.09 L 0.29 -0.09 0.29 0.09 -0.29 0.09 z" class="primitive"/>
            </g>
            <g transform="translate(59.22,80.32)" id="img-e0d6accd-34">
              <path d="M-0.29,-0 L 0.29 -0 0.29 0 -0.29 0 z" class="primitive"/>
            </g>
            <g transform="translate(59.75,80.32)" id="img-e0d6accd-35">
              <path d="M-0.29,-0 L 0.29 -0 0.29 0 -0.29 0 z" class="primitive"/>
            </g>
            <g transform="translate(60.27,80.32)" id="img-e0d6accd-36">
              <path d="M-0.29,-0 L 0.29 -0 0.29 0 -0.29 0 z" class="primitive"/>
            </g>
            <g transform="translate(60.79,80.22)" id="img-e0d6accd-37">
              <path d="M-0.29,-0.09 L 0.29 -0.09 0.29 0.09 -0.29 0.09 z" class="primitive"/>
            </g>
            <g transform="translate(61.32,80.32)" id="img-e0d6accd-38">
              <path d="M-0.29,-0 L 0.29 -0 0.29 0 -0.29 0 z" class="primitive"/>
            </g>
            <g transform="translate(61.84,79.95)" id="img-e0d6accd-39">
              <path d="M-0.29,-0.37 L 0.29 -0.37 0.29 0.37 -0.29 0.37 z" class="primitive"/>
            </g>
            <g transform="translate(62.36,80.04)" id="img-e0d6accd-40">
              <path d="M-0.29,-0.27 L 0.29 -0.27 0.29 0.27 -0.29 0.27 z" class="primitive"/>
            </g>
            <g transform="translate(62.88,79.77)" id="img-e0d6accd-41">
              <path d="M-0.29,-0.55 L 0.29 -0.55 0.29 0.55 -0.29 0.55 z" class="primitive"/>
            </g>
            <g transform="translate(63.41,80.22)" id="img-e0d6accd-42">
              <path d="M-0.29,-0.09 L 0.29 -0.09 0.29 0.09 -0.29 0.09 z" class="primitive"/>
            </g>
            <g transform="translate(63.93,80.04)" id="img-e0d6accd-43">
              <path d="M-0.29,-0.27 L 0.29 -0.27 0.29 0.27 -0.29 0.27 z" class="primitive"/>
            </g>
            <g transform="translate(64.45,79.86)" id="img-e0d6accd-44">
              <path d="M-0.29,-0.46 L 0.29 -0.46 0.29 0.46 -0.29 0.46 z" class="primitive"/>
            </g>
            <g transform="translate(64.97,80.04)" id="img-e0d6accd-45">
              <path d="M-0.29,-0.27 L 0.29 -0.27 0.29 0.27 -0.29 0.27 z" class="primitive"/>
            </g>
            <g transform="translate(65.5,80.04)" id="img-e0d6accd-46">
              <path d="M-0.29,-0.27 L 0.29 -0.27 0.29 0.27 -0.29 0.27 z" class="primitive"/>
            </g>
            <g transform="translate(66.02,79.49)" id="img-e0d6accd-47">
              <path d="M-0.29,-0.82 L 0.29 -0.82 0.29 0.82 -0.29 0.82 z" class="primitive"/>
            </g>
            <g transform="translate(66.54,79.86)" id="img-e0d6accd-48">
              <path d="M-0.29,-0.46 L 0.29 -0.46 0.29 0.46 -0.29 0.46 z" class="primitive"/>
            </g>
            <g transform="translate(67.06,79.58)" id="img-e0d6accd-49">
              <path d="M-0.29,-0.73 L 0.29 -0.73 0.29 0.73 -0.29 0.73 z" class="primitive"/>
            </g>
            <g transform="translate(67.59,78.67)" id="img-e0d6accd-50">
              <path d="M-0.29,-1.65 L 0.29 -1.65 0.29 1.65 -0.29 1.65 z" class="primitive"/>
            </g>
            <g transform="translate(68.11,79.49)" id="img-e0d6accd-51">
              <path d="M-0.29,-0.82 L 0.29 -0.82 0.29 0.82 -0.29 0.82 z" class="primitive"/>
            </g>
            <g transform="translate(68.63,79.4)" id="img-e0d6accd-52">
              <path d="M-0.29,-0.92 L 0.29 -0.92 0.29 0.92 -0.29 0.92 z" class="primitive"/>
            </g>
            <g transform="translate(69.15,79.22)" id="img-e0d6accd-53">
              <path d="M-0.29,-1.1 L 0.29 -1.1 0.29 1.1 -0.29 1.1 z" class="primitive"/>
            </g>
            <g transform="translate(69.68,78.57)" id="img-e0d6accd-54">
              <path d="M-0.29,-1.74 L 0.29 -1.74 0.29 1.74 -0.29 1.74 z" class="primitive"/>
            </g>
            <g transform="translate(70.2,78.85)" id="img-e0d6accd-55">
              <path d="M-0.29,-1.47 L 0.29 -1.47 0.29 1.47 -0.29 1.47 z" class="primitive"/>
            </g>
            <g transform="translate(70.72,78.21)" id="img-e0d6accd-56">
              <path d="M-0.29,-2.11 L 0.29 -2.11 0.29 2.11 -0.29 2.11 z" class="primitive"/>
            </g>
            <g transform="translate(71.24,78.12)" id="img-e0d6accd-57">
              <path d="M-0.29,-2.2 L 0.29 -2.2 0.29 2.2 -0.29 2.2 z" class="primitive"/>
            </g>
            <g transform="translate(71.77,77.84)" id="img-e0d6accd-58">
              <path d="M-0.29,-2.47 L 0.29 -2.47 0.29 2.47 -0.29 2.47 z" class="primitive"/>
            </g>
            <g transform="translate(72.29,77.57)" id="img-e0d6accd-59">
              <path d="M-0.29,-2.75 L 0.29 -2.75 0.29 2.75 -0.29 2.75 z" class="primitive"/>
            </g>
            <g transform="translate(72.81,77.11)" id="img-e0d6accd-60">
              <path d="M-0.29,-3.21 L 0.29 -3.21 0.29 3.21 -0.29 3.21 z" class="primitive"/>
            </g>
            <g transform="translate(73.34,77.47)" id="img-e0d6accd-61">
              <path d="M-0.29,-2.84 L 0.29 -2.84 0.29 2.84 -0.29 2.84 z" class="primitive"/>
            </g>
            <g transform="translate(73.86,75.27)" id="img-e0d6accd-62">
              <path d="M-0.29,-5.04 L 0.29 -5.04 0.29 5.04 -0.29 5.04 z" class="primitive"/>
            </g>
            <g transform="translate(74.38,76.19)" id="img-e0d6accd-63">
              <path d="M-0.29,-4.12 L 0.29 -4.12 0.29 4.12 -0.29 4.12 z" class="primitive"/>
            </g>
            <g transform="translate(74.9,76.28)" id="img-e0d6accd-64">
              <path d="M-0.29,-4.03 L 0.29 -4.03 0.29 4.03 -0.29 4.03 z" class="primitive"/>
            </g>
            <g transform="translate(75.43,76.74)" id="img-e0d6accd-65">
              <path d="M-0.29,-3.57 L 0.29 -3.57 0.29 3.57 -0.29 3.57 z" class="primitive"/>
            </g>
            <g transform="translate(75.95,74.54)" id="img-e0d6accd-66">
              <path d="M-0.29,-5.77 L 0.29 -5.77 0.29 5.77 -0.29 5.77 z" class="primitive"/>
            </g>
            <g transform="translate(76.47,74.82)" id="img-e0d6accd-67">
              <path d="M-0.29,-5.5 L 0.29 -5.5 0.29 5.5 -0.29 5.5 z" class="primitive"/>
            </g>
            <g transform="translate(76.99,74.91)" id="img-e0d6accd-68">
              <path d="M-0.29,-5.41 L 0.29 -5.41 0.29 5.41 -0.29 5.41 z" class="primitive"/>
            </g>
            <g transform="translate(77.52,74.36)" id="img-e0d6accd-69">
              <path d="M-0.29,-5.96 L 0.29 -5.96 0.29 5.96 -0.29 5.96 z" class="primitive"/>
            </g>
            <g transform="translate(78.04,74.63)" id="img-e0d6accd-70">
              <path d="M-0.29,-5.68 L 0.29 -5.68 0.29 5.68 -0.29 5.68 z" class="primitive"/>
            </g>
            <g transform="translate(78.56,74.54)" id="img-e0d6accd-71">
              <path d="M-0.29,-5.77 L 0.29 -5.77 0.29 5.77 -0.29 5.77 z" class="primitive"/>
            </g>
            <g transform="translate(79.08,73.17)" id="img-e0d6accd-72">
              <path d="M-0.29,-7.15 L 0.29 -7.15 0.29 7.15 -0.29 7.15 z" class="primitive"/>
            </g>
            <g transform="translate(79.61,72.62)" id="img-e0d6accd-73">
              <path d="M-0.29,-7.7 L 0.29 -7.7 0.29 7.7 -0.29 7.7 z" class="primitive"/>
            </g>
            <g transform="translate(80.13,72.16)" id="img-e0d6accd-74">
              <path d="M-0.29,-8.16 L 0.29 -8.16 0.29 8.16 -0.29 8.16 z" class="primitive"/>
            </g>
            <g transform="translate(80.65,72.71)" id="img-e0d6accd-75">
              <path d="M-0.29,-7.61 L 0.29 -7.61 0.29 7.61 -0.29 7.61 z" class="primitive"/>
            </g>
            <g transform="translate(81.17,72.53)" id="img-e0d6accd-76">
              <path d="M-0.29,-7.79 L 0.29 -7.79 0.29 7.79 -0.29 7.79 z" class="primitive"/>
            </g>
            <g transform="translate(81.7,71.24)" id="img-e0d6accd-77">
              <path d="M-0.29,-9.07 L 0.29 -9.07 0.29 9.07 -0.29 9.07 z" class="primitive"/>
            </g>
            <g transform="translate(82.22,71.61)" id="img-e0d6accd-78">
              <path d="M-0.29,-8.71 L 0.29 -8.71 0.29 8.71 -0.29 8.71 z" class="primitive"/>
            </g>
            <g transform="translate(82.74,71.24)" id="img-e0d6accd-79">
              <path d="M-0.29,-9.07 L 0.29 -9.07 0.29 9.07 -0.29 9.07 z" class="primitive"/>
            </g>
            <g transform="translate(83.26,71.43)" id="img-e0d6accd-80">
              <path d="M-0.29,-8.89 L 0.29 -8.89 0.29 8.89 -0.29 8.89 z" class="primitive"/>
            </g>
            <g transform="translate(83.79,71.43)" id="img-e0d6accd-81">
              <path d="M-0.29,-8.89 L 0.29 -8.89 0.29 8.89 -0.29 8.89 z" class="primitive"/>
            </g>
            <g transform="translate(84.31,70.05)" id="img-e0d6accd-82">
              <path d="M-0.29,-10.26 L 0.29 -10.26 0.29 10.26 -0.29 10.26 z" class="primitive"/>
            </g>
            <g transform="translate(84.83,70.97)" id="img-e0d6accd-83">
              <path d="M-0.29,-9.35 L 0.29 -9.35 0.29 9.35 -0.29 9.35 z" class="primitive"/>
            </g>
            <g transform="translate(85.35,70.33)" id="img-e0d6accd-84">
              <path d="M-0.29,-9.99 L 0.29 -9.99 0.29 9.99 -0.29 9.99 z" class="primitive"/>
            </g>
            <g transform="translate(85.88,68.22)" id="img-e0d6accd-85">
              <path d="M-0.29,-12.1 L 0.29 -12.1 0.29 12.1 -0.29 12.1 z" class="primitive"/>
            </g>
            <g transform="translate(86.4,70.42)" id="img-e0d6accd-86">
              <path d="M-0.29,-9.9 L 0.29 -9.9 0.29 9.9 -0.29 9.9 z" class="primitive"/>
            </g>
            <g transform="translate(86.92,69.23)" id="img-e0d6accd-87">
              <path d="M-0.29,-11.09 L 0.29 -11.09 0.29 11.09 -0.29 11.09 z" class="primitive"/>
            </g>
            <g transform="translate(87.45,69.68)" id="img-e0d6accd-88">
              <path d="M-0.29,-10.63 L 0.29 -10.63 0.29 10.63 -0.29 10.63 z" class="primitive"/>
            </g>
            <g transform="translate(87.97,68.49)" id="img-e0d6accd-89">
              <path d="M-0.29,-11.82 L 0.29 -11.82 0.29 11.82 -0.29 11.82 z" class="primitive"/>
            </g>
            <g transform="translate(88.49,69.87)" id="img-e0d6accd-90">
              <path d="M-0.29,-10.45 L 0.29 -10.45 0.29 10.45 -0.29 10.45 z" class="primitive"/>
            </g>
            <g transform="translate(89.01,67.48)" id="img-e0d6accd-91">
              <path d="M-0.29,-12.83 L 0.29 -12.83 0.29 12.83 -0.29 12.83 z" class="primitive"/>
            </g>
            <g transform="translate(89.54,66.84)" id="img-e0d6accd-92">
              <path d="M-0.29,-13.47 L 0.29 -13.47 0.29 13.47 -0.29 13.47 z" class="primitive"/>
            </g>
            <g transform="translate(90.06,67.76)" id="img-e0d6accd-93">
              <path d="M-0.29,-12.56 L 0.29 -12.56 0.29 12.56 -0.29 12.56 z" class="primitive"/>
            </g>
            <g transform="translate(90.58,68.49)" id="img-e0d6accd-94">
              <path d="M-0.29,-11.82 L 0.29 -11.82 0.29 11.82 -0.29 11.82 z" class="primitive"/>
            </g>
            <g transform="translate(91.1,68.22)" id="img-e0d6accd-95">
              <path d="M-0.29,-12.1 L 0.29 -12.1 0.29 12.1 -0.29 12.1 z" class="primitive"/>
            </g>
            <g transform="translate(91.63,67.21)" id="img-e0d6accd-96">
              <path d="M-0.29,-13.11 L 0.29 -13.11 0.29 13.11 -0.29 13.11 z" class="primitive"/>
            </g>
            <g transform="translate(92.15,68.58)" id="img-e0d6accd-97">
              <path d="M-0.29,-11.73 L 0.29 -11.73 0.29 11.73 -0.29 11.73 z" class="primitive"/>
            </g>
            <g transform="translate(92.67,68.77)" id="img-e0d6accd-98">
              <path d="M-0.29,-11.55 L 0.29 -11.55 0.29 11.55 -0.29 11.55 z" class="primitive"/>
            </g>
            <g transform="translate(93.19,67.58)" id="img-e0d6accd-99">
              <path d="M-0.29,-12.74 L 0.29 -12.74 0.29 12.74 -0.29 12.74 z" class="primitive"/>
            </g>
            <g transform="translate(93.72,68.68)" id="img-e0d6accd-100">
              <path d="M-0.29,-11.64 L 0.29 -11.64 0.29 11.64 -0.29 11.64 z" class="primitive"/>
            </g>
            <g transform="translate(94.24,66.39)" id="img-e0d6accd-101">
              <path d="M-0.29,-13.93 L 0.29 -13.93 0.29 13.93 -0.29 13.93 z" class="primitive"/>
            </g>
            <g transform="translate(94.76,67.03)" id="img-e0d6accd-102">
              <path d="M-0.29,-13.29 L 0.29 -13.29 0.29 13.29 -0.29 13.29 z" class="primitive"/>
            </g>
            <g transform="translate(95.28,67.67)" id="img-e0d6accd-103">
              <path d="M-0.29,-12.65 L 0.29 -12.65 0.29 12.65 -0.29 12.65 z" class="primitive"/>
            </g>
            <g transform="translate(95.81,67.67)" id="img-e0d6accd-104">
              <path d="M-0.29,-12.65 L 0.29 -12.65 0.29 12.65 -0.29 12.65 z" class="primitive"/>
            </g>
            <g transform="translate(96.33,67.39)" id="img-e0d6accd-105">
              <path d="M-0.29,-12.92 L 0.29 -12.92 0.29 12.92 -0.29 12.92 z" class="primitive"/>
            </g>
            <g transform="translate(96.85,68.31)" id="img-e0d6accd-106">
              <path d="M-0.29,-12.01 L 0.29 -12.01 0.29 12.01 -0.29 12.01 z" class="primitive"/>
            </g>
            <g transform="translate(97.37,67.3)" id="img-e0d6accd-107">
              <path d="M-0.29,-13.01 L 0.29 -13.01 0.29 13.01 -0.29 13.01 z" class="primitive"/>
            </g>
            <g transform="translate(97.9,68.49)" id="img-e0d6accd-108">
              <path d="M-0.29,-11.82 L 0.29 -11.82 0.29 11.82 -0.29 11.82 z" class="primitive"/>
            </g>
            <g transform="translate(98.42,68.03)" id="img-e0d6accd-109">
              <path d="M-0.29,-12.28 L 0.29 -12.28 0.29 12.28 -0.29 12.28 z" class="primitive"/>
            </g>
            <g transform="translate(98.94,67.76)" id="img-e0d6accd-110">
              <path d="M-0.29,-12.56 L 0.29 -12.56 0.29 12.56 -0.29 12.56 z" class="primitive"/>
            </g>
            <g transform="translate(99.47,68.49)" id="img-e0d6accd-111">
              <path d="M-0.29,-11.82 L 0.29 -11.82 0.29 11.82 -0.29 11.82 z" class="primitive"/>
            </g>
            <g transform="translate(99.99,67.67)" id="img-e0d6accd-112">
              <path d="M-0.29,-12.65 L 0.29 -12.65 0.29 12.65 -0.29 12.65 z" class="primitive"/>
            </g>
            <g transform="translate(100.51,68.68)" id="img-e0d6accd-113">
              <path d="M-0.29,-11.64 L 0.29 -11.64 0.29 11.64 -0.29 11.64 z" class="primitive"/>
            </g>
            <g transform="translate(101.03,67.85)" id="img-e0d6accd-114">
              <path d="M-0.29,-12.46 L 0.29 -12.46 0.29 12.46 -0.29 12.46 z" class="primitive"/>
            </g>
            <g transform="translate(101.56,67.85)" id="img-e0d6accd-115">
              <path d="M-0.29,-12.46 L 0.29 -12.46 0.29 12.46 -0.29 12.46 z" class="primitive"/>
            </g>
            <g transform="translate(102.08,70.05)" id="img-e0d6accd-116">
              <path d="M-0.29,-10.26 L 0.29 -10.26 0.29 10.26 -0.29 10.26 z" class="primitive"/>
            </g>
            <g transform="translate(102.6,70.23)" id="img-e0d6accd-117">
              <path d="M-0.29,-10.08 L 0.29 -10.08 0.29 10.08 -0.29 10.08 z" class="primitive"/>
            </g>
            <g transform="translate(103.12,70.23)" id="img-e0d6accd-118">
              <path d="M-0.29,-10.08 L 0.29 -10.08 0.29 10.08 -0.29 10.08 z" class="primitive"/>
            </g>
            <g transform="translate(103.65,70.42)" id="img-e0d6accd-119">
              <path d="M-0.29,-9.9 L 0.29 -9.9 0.29 9.9 -0.29 9.9 z" class="primitive"/>
            </g>
            <g transform="translate(104.17,68.77)" id="img-e0d6accd-120">
              <path d="M-0.29,-11.55 L 0.29 -11.55 0.29 11.55 -0.29 11.55 z" class="primitive"/>
            </g>
            <g transform="translate(104.69,70.33)" id="img-e0d6accd-121">
              <path d="M-0.29,-9.99 L 0.29 -9.99 0.29 9.99 -0.29 9.99 z" class="primitive"/>
            </g>
            <g transform="translate(105.21,69.04)" id="img-e0d6accd-122">
              <path d="M-0.29,-11.27 L 0.29 -11.27 0.29 11.27 -0.29 11.27 z" class="primitive"/>
            </g>
            <g transform="translate(105.74,70.42)" id="img-e0d6accd-123">
              <path d="M-0.29,-9.9 L 0.29 -9.9 0.29 9.9 -0.29 9.9 z" class="primitive"/>
            </g>
            <g transform="translate(106.26,70.05)" id="img-e0d6accd-124">
              <path d="M-0.29,-10.26 L 0.29 -10.26 0.29 10.26 -0.29 10.26 z" class="primitive"/>
            </g>
            <g transform="translate(106.78,70.51)" id="img-e0d6accd-125">
              <path d="M-0.29,-9.81 L 0.29 -9.81 0.29 9.81 -0.29 9.81 z" class="primitive"/>
            </g>
            <g transform="translate(107.3,71.98)" id="img-e0d6accd-126">
              <path d="M-0.29,-8.34 L 0.29 -8.34 0.29 8.34 -0.29 8.34 z" class="primitive"/>
            </g>
            <g transform="translate(107.83,71.52)" id="img-e0d6accd-127">
              <path d="M-0.29,-8.8 L 0.29 -8.8 0.29 8.8 -0.29 8.8 z" class="primitive"/>
            </g>
            <g transform="translate(108.35,71.52)" id="img-e0d6accd-128">
              <path d="M-0.29,-8.8 L 0.29 -8.8 0.29 8.8 -0.29 8.8 z" class="primitive"/>
            </g>
            <g transform="translate(108.87,70.33)" id="img-e0d6accd-129">
              <path d="M-0.29,-9.99 L 0.29 -9.99 0.29 9.99 -0.29 9.99 z" class="primitive"/>
            </g>
            <g transform="translate(109.39,71.43)" id="img-e0d6accd-130">
              <path d="M-0.29,-8.89 L 0.29 -8.89 0.29 8.89 -0.29 8.89 z" class="primitive"/>
            </g>
            <g transform="translate(109.92,71.79)" id="img-e0d6accd-131">
              <path d="M-0.29,-8.52 L 0.29 -8.52 0.29 8.52 -0.29 8.52 z" class="primitive"/>
            </g>
            <g transform="translate(110.44,72.25)" id="img-e0d6accd-132">
              <path d="M-0.29,-8.06 L 0.29 -8.06 0.29 8.06 -0.29 8.06 z" class="primitive"/>
            </g>
            <g transform="translate(110.96,72.89)" id="img-e0d6accd-133">
              <path d="M-0.29,-7.42 L 0.29 -7.42 0.29 7.42 -0.29 7.42 z" class="primitive"/>
            </g>
            <g transform="translate(111.48,72.62)" id="img-e0d6accd-134">
              <path d="M-0.29,-7.7 L 0.29 -7.7 0.29 7.7 -0.29 7.7 z" class="primitive"/>
            </g>
            <g transform="translate(112.01,74.36)" id="img-e0d6accd-135">
              <path d="M-0.29,-5.96 L 0.29 -5.96 0.29 5.96 -0.29 5.96 z" class="primitive"/>
            </g>
            <g transform="translate(112.53,72.8)" id="img-e0d6accd-136">
              <path d="M-0.29,-7.51 L 0.29 -7.51 0.29 7.51 -0.29 7.51 z" class="primitive"/>
            </g>
            <g transform="translate(113.05,73.26)" id="img-e0d6accd-137">
              <path d="M-0.29,-7.06 L 0.29 -7.06 0.29 7.06 -0.29 7.06 z" class="primitive"/>
            </g>
            <g transform="translate(113.58,72.53)" id="img-e0d6accd-138">
              <path d="M-0.29,-7.79 L 0.29 -7.79 0.29 7.79 -0.29 7.79 z" class="primitive"/>
            </g>
            <g transform="translate(114.1,73.72)" id="img-e0d6accd-139">
              <path d="M-0.29,-6.6 L 0.29 -6.6 0.29 6.6 -0.29 6.6 z" class="primitive"/>
            </g>
            <g transform="translate(114.62,75.64)" id="img-e0d6accd-140">
              <path d="M-0.29,-4.67 L 0.29 -4.67 0.29 4.67 -0.29 4.67 z" class="primitive"/>
            </g>
            <g transform="translate(115.14,74.82)" id="img-e0d6accd-141">
              <path d="M-0.29,-5.5 L 0.29 -5.5 0.29 5.5 -0.29 5.5 z" class="primitive"/>
            </g>
            <g transform="translate(115.67,74.54)" id="img-e0d6accd-142">
              <path d="M-0.29,-5.77 L 0.29 -5.77 0.29 5.77 -0.29 5.77 z" class="primitive"/>
            </g>
            <g transform="translate(116.19,76.83)" id="img-e0d6accd-143">
              <path d="M-0.29,-3.48 L 0.29 -3.48 0.29 3.48 -0.29 3.48 z" class="primitive"/>
            </g>
            <g transform="translate(116.71,74.72)" id="img-e0d6accd-144">
              <path d="M-0.29,-5.59 L 0.29 -5.59 0.29 5.59 -0.29 5.59 z" class="primitive"/>
            </g>
            <g transform="translate(117.23,74.72)" id="img-e0d6accd-145">
              <path d="M-0.29,-5.59 L 0.29 -5.59 0.29 5.59 -0.29 5.59 z" class="primitive"/>
            </g>
            <g transform="translate(117.76,75.73)" id="img-e0d6accd-146">
              <path d="M-0.29,-4.58 L 0.29 -4.58 0.29 4.58 -0.29 4.58 z" class="primitive"/>
            </g>
            <g transform="translate(118.28,75)" id="img-e0d6accd-147">
              <path d="M-0.29,-5.32 L 0.29 -5.32 0.29 5.32 -0.29 5.32 z" class="primitive"/>
            </g>
            <g transform="translate(118.8,77.29)" id="img-e0d6accd-148">
              <path d="M-0.29,-3.02 L 0.29 -3.02 0.29 3.02 -0.29 3.02 z" class="primitive"/>
            </g>
            <g transform="translate(119.32,75.73)" id="img-e0d6accd-149">
              <path d="M-0.29,-4.58 L 0.29 -4.58 0.29 4.58 -0.29 4.58 z" class="primitive"/>
            </g>
            <g transform="translate(119.85,76.47)" id="img-e0d6accd-150">
              <path d="M-0.29,-3.85 L 0.29 -3.85 0.29 3.85 -0.29 3.85 z" class="primitive"/>
            </g>
            <g transform="translate(120.37,76.47)" id="img-e0d6accd-151">
              <path d="M-0.29,-3.85 L 0.29 -3.85 0.29 3.85 -0.29 3.85 z" class="primitive"/>
            </g>
            <g transform="translate(120.89,77.47)" id="img-e0d6accd-152">
              <path d="M-0.29,-2.84 L 0.29 -2.84 0.29 2.84 -0.29 2.84 z" class="primitive"/>
            </g>
            <g transform="translate(121.41,76.1)" id="img-e0d6accd-153">
              <path d="M-0.29,-4.22 L 0.29 -4.22 0.29 4.22 -0.29 4.22 z" class="primitive"/>
            </g>
            <g transform="translate(121.94,77.38)" id="img-e0d6accd-154">
              <path d="M-0.29,-2.93 L 0.29 -2.93 0.29 2.93 -0.29 2.93 z" class="primitive"/>
            </g>
            <g transform="translate(122.46,77.02)" id="img-e0d6accd-155">
              <path d="M-0.29,-3.3 L 0.29 -3.3 0.29 3.3 -0.29 3.3 z" class="primitive"/>
            </g>
            <g transform="translate(122.98,76.37)" id="img-e0d6accd-156">
              <path d="M-0.29,-3.94 L 0.29 -3.94 0.29 3.94 -0.29 3.94 z" class="primitive"/>
            </g>
            <g transform="translate(123.5,77.02)" id="img-e0d6accd-157">
              <path d="M-0.29,-3.3 L 0.29 -3.3 0.29 3.3 -0.29 3.3 z" class="primitive"/>
            </g>
            <g transform="translate(124.03,77.57)" id="img-e0d6accd-158">
              <path d="M-0.29,-2.75 L 0.29 -2.75 0.29 2.75 -0.29 2.75 z" class="primitive"/>
            </g>
            <g transform="translate(124.55,78.21)" id="img-e0d6accd-159">
              <path d="M-0.29,-2.11 L 0.29 -2.11 0.29 2.11 -0.29 2.11 z" class="primitive"/>
            </g>
            <g transform="translate(125.07,78.12)" id="img-e0d6accd-160">
              <path d="M-0.29,-2.2 L 0.29 -2.2 0.29 2.2 -0.29 2.2 z" class="primitive"/>
            </g>
            <g transform="translate(125.6,78.3)" id="img-e0d6accd-161">
              <path d="M-0.29,-2.02 L 0.29 -2.02 0.29 2.02 -0.29 2.02 z" class="primitive"/>
            </g>
            <g transform="translate(126.12,78.94)" id="img-e0d6accd-162">
              <path d="M-0.29,-1.37 L 0.29 -1.37 0.29 1.37 -0.29 1.37 z" class="primitive"/>
            </g>
            <g transform="translate(126.64,79.31)" id="img-e0d6accd-163">
              <path d="M-0.29,-1.01 L 0.29 -1.01 0.29 1.01 -0.29 1.01 z" class="primitive"/>
            </g>
            <g transform="translate(127.16,78.67)" id="img-e0d6accd-164">
              <path d="M-0.29,-1.65 L 0.29 -1.65 0.29 1.65 -0.29 1.65 z" class="primitive"/>
            </g>
            <g transform="translate(127.69,78.12)" id="img-e0d6accd-165">
              <path d="M-0.29,-2.2 L 0.29 -2.2 0.29 2.2 -0.29 2.2 z" class="primitive"/>
            </g>
            <g transform="translate(128.21,78.12)" id="img-e0d6accd-166">
              <path d="M-0.29,-2.2 L 0.29 -2.2 0.29 2.2 -0.29 2.2 z" class="primitive"/>
            </g>
            <g transform="translate(128.73,79.12)" id="img-e0d6accd-167">
              <path d="M-0.29,-1.19 L 0.29 -1.19 0.29 1.19 -0.29 1.19 z" class="primitive"/>
            </g>
            <g transform="translate(129.25,78.39)" id="img-e0d6accd-168">
              <path d="M-0.29,-1.92 L 0.29 -1.92 0.29 1.92 -0.29 1.92 z" class="primitive"/>
            </g>
            <g transform="translate(129.78,79.77)" id="img-e0d6accd-169">
              <path d="M-0.29,-0.55 L 0.29 -0.55 0.29 0.55 -0.29 0.55 z" class="primitive"/>
            </g>
            <g transform="translate(130.3,79.31)" id="img-e0d6accd-170">
              <path d="M-0.29,-1.01 L 0.29 -1.01 0.29 1.01 -0.29 1.01 z" class="primitive"/>
            </g>
            <g transform="translate(130.82,79.4)" id="img-e0d6accd-171">
              <path d="M-0.29,-0.92 L 0.29 -0.92 0.29 0.92 -0.29 0.92 z" class="primitive"/>
            </g>
            <g transform="translate(131.34,48.51)" id="img-e0d6accd-172">
              <path d="M-0.29,-31.8 L 0.29 -31.8 0.29 31.8 -0.29 31.8 z" class="primitive"/>
            </g>
          </g>
        </g>
      </g>
    </g>
  </g>
  <g class="guide ylabels" font-size="2.82" font-family="'PT Sans Caption','Helvetica Neue','Helvetica',sans-serif" fill="#6C606B" id="img-e0d6accd-173">
    <g transform="translate(11.02,80.32)" id="img-e0d6accd-174">
      <g class="primitive">
        <text text-anchor="end" dy="0.35em">0</text>
      </g>
    </g>
    <g transform="translate(11.02,61.99)" id="img-e0d6accd-175">
      <g class="primitive">
        <text text-anchor="end" dy="0.35em">100</text>
      </g>
    </g>
    <g transform="translate(11.02,43.66)" id="img-e0d6accd-176">
      <g class="primitive">
        <text text-anchor="end" dy="0.35em">200</text>
      </g>
    </g>
    <g transform="translate(11.02,25.33)" id="img-e0d6accd-177">
      <g class="primitive">
        <text text-anchor="end" dy="0.35em">300</text>
      </g>
    </g>
    <g transform="translate(11.02,7)" id="img-e0d6accd-178">
      <g class="primitive">
        <text text-anchor="end" dy="0.35em">400</text>
      </g>
    </g>
  </g>
</g>
<defs>
  <clipPath id="img-e0d6accd-4">
    <path d="M12.02,5 L 172.8 5 172.8 82.32 12.02 82.32" />
  </clipPath>
</defs>
</svg>
