<?xml version="1.0" encoding="UTF-8"?>
<svg xmlns="http://www.w3.org/2000/svg"
     xmlns:xlink="http://www.w3.org/1999/xlink"
     xmlns:gadfly="http://www.gadflyjl.org/ns"
     version="1.2"
     width="141.42mm" height="100mm" viewBox="0 0 141.42 100"
     stroke="none"
     fill="#000000"
     stroke-width="0.3"
     font-size="3.88"
>
<defs>
  <marker id="arrow" markerWidth="15" markerHeight="7" refX="5" refY="3.5" orient="auto" markerUnits="strokeWidth">
    <path d="M0,0 L15,3.5 L0,7 z" stroke="context-stroke" fill="context-stroke"/>
  </marker>
</defs>
<g class="plotroot xscalable yscalable" id="img-1473f80c-1">
  <g font-size="3.88" font-family="'PT Sans','Helvetica Neue','Helvetica',sans-serif" fill="#564A55" stroke="#000000" stroke-opacity="0.000" id="img-1473f80c-2">
    <g transform="translate(70.78,88.39)">
      <g class="primitive">
        <text text-anchor="middle" dy="0.6em">step</text>
      </g>
    </g>
  </g>
  <g class="guide xlabels" font-size="2.82" font-family="'PT Sans Caption','Helvetica Neue','Helvetica',sans-serif" fill="#6C606B" id="img-1473f80c-3">
    <g transform="translate(23.3,81.72)">
      <g class="primitive">
        <text text-anchor="middle" dy="0.6em">0</text>
      </g>
    </g>
    <g transform="translate(47.04,81.72)">
      <g class="primitive">
        <text text-anchor="middle" dy="0.6em">20</text>
      </g>
    </g>
    <g transform="translate(70.78,81.72)">
      <g class="primitive">
        <text text-anchor="middle" dy="0.6em">40</text>
      </g>
    </g>
    <g transform="translate(94.51,81.72)">
      <g class="primitive">
        <text text-anchor="middle" dy="0.6em">60</text>
      </g>
    </g>
    <g transform="translate(118.25,81.72)">
      <g class="primitive">
        <text text-anchor="middle" dy="0.6em">80</text>
      </g>
    </g>
  </g>
  <g class="guide colorkey" id="img-1473f80c-4">
    <g class="color_BOBYQA" id="img-1473f80c-5">
      <g fill="#4C404B" font-size="2.82" font-family="'PT Sans','Helvetica Neue','Helvetica',sans-serif" id="img-1473f80c-6">
        <g transform="translate(124.06,44.67)" id="img-1473f80c-7">
          <g class="primitive">
            <text dy="0.35em">BOBYQA</text>
          </g>
        </g>
      </g>
      <g fill-opacity="1" fill="#00BFFF" stroke="#FFFFFF" id="img-1473f80c-8">
        <g transform="translate(122.16,44.67)" id="img-1473f80c-9">
          <path d="M-0.91,-0.91 L0.91,-0.91 0.91,0.91 -0.91,0.91  z" class="primitive"/>
        </g>
      </g>
    </g>
    <g fill="#362A35" font-size="3.88" font-family="'PT Sans','Helvetica Neue','Helvetica',sans-serif" stroke="#000000" stroke-opacity="0.000" id="img-1473f80c-10">
      <g transform="translate(121.25,40.85)" id="img-1473f80c-11">
        <g class="primitive">
          <text dy="-0em">algorithm</text>
        </g>
      </g>
    </g>
  </g>
  <g clip-path="url(#img-1473f80c-12)">
    <g id="img-1473f80c-13">
      <g pointer-events="visible" stroke-width="0.3" fill="#000000" fill-opacity="0.000" stroke="#000000" stroke-opacity="0.000" class="guide background" id="img-1473f80c-14">
        <g transform="translate(70.78,42.86)" id="img-1473f80c-15">
          <path d="M-49.47,-37.86 L49.47,-37.86 49.47,37.86 -49.47,37.86  z" class="primitive"/>
        </g>
      </g>
      <g class="guide ygridlines xfixed" stroke-dasharray="0.5,0.5" stroke-width="0.2" stroke="#D0D0E0" id="img-1473f80c-16">
        <g transform="translate(70.78,78.72)" id="img-1473f80c-17">
          <path fill="none" d="M-49.47,0 L49.47,0 " class="primitive"/>
        </g>
        <g transform="translate(70.78,66.76)" id="img-1473f80c-18">
          <path fill="none" d="M-49.47,0 L49.47,0 " class="primitive"/>
        </g>
        <g transform="translate(70.78,54.81)" id="img-1473f80c-19">
          <path fill="none" d="M-49.47,0 L49.47,0 " class="primitive"/>
        </g>
        <g transform="translate(70.78,42.86)" id="img-1473f80c-20">
          <path fill="none" d="M-49.47,0 L49.47,0 " class="primitive"/>
        </g>
        <g transform="translate(70.78,30.91)" id="img-1473f80c-21">
          <path fill="none" d="M-49.47,0 L49.47,0 " class="primitive"/>
        </g>
        <g transform="translate(70.78,18.95)" id="img-1473f80c-22">
          <path fill="none" d="M-49.47,0 L49.47,0 " class="primitive"/>
        </g>
        <g transform="translate(70.78,7)" id="img-1473f80c-23">
          <path fill="none" d="M-49.47,0 L49.47,0 " class="primitive"/>
        </g>
      </g>
      <g class="guide xgridlines yfixed" stroke-dasharray="0.5,0.5" stroke-width="0.2" stroke="#D0D0E0" id="img-1473f80c-24">
        <g transform="translate(23.3,42.86)" id="img-1473f80c-25">
          <path fill="none" d="M0,-37.86 L0,37.86 " class="primitive"/>
        </g>
        <g transform="translate(47.04,42.86)" id="img-1473f80c-26">
          <path fill="none" d="M0,-37.86 L0,37.86 " class="primitive"/>
        </g>
        <g transform="translate(70.78,42.86)" id="img-1473f80c-27">
          <path fill="none" d="M0,-37.86 L0,37.86 " class="primitive"/>
        </g>
        <g transform="translate(94.51,42.86)" id="img-1473f80c-28">
          <path fill="none" d="M0,-37.86 L0,37.86 " class="primitive"/>
        </g>
        <g transform="translate(118.25,42.86)" id="img-1473f80c-29">
          <path fill="none" d="M0,-37.86 L0,37.86 " class="primitive"/>
        </g>
      </g>
      <g class="plotpanel" id="img-1473f80c-30">
        <metadata>
          <boundingbox value="21.304999999999993mm 5.0mm 98.94635623730952mm 75.715mm"/>
          <unitbox value="-1.6851620887914331 1811.6732901066723 83.37032417758287 -63.346580213344495"/>
        </metadata>
        <g stroke-width="0.3" fill="#000000" fill-opacity="0.000" class="geometry" id="img-1473f80c-31">
          <g class="color_BOBYQA" stroke-dasharray="none" stroke-opacity="1" stroke="#00BFFF" id="img-1473f80c-32">
            <g transform="translate(66.03,65.95)" id="img-1473f80c-33">
              <path fill="none" d="M-41.54,-28.64 L-40.35,-38.46 -39.17,-45.8 -37.98,-57.22 -36.79,-54.45 -35.6,-45.33 -34.42,-40.75 -33.23,-20.73 -32.04,-22.41 -30.86,-25.3 -29.67,-15.84 -28.48,-8.9 -27.3,-3.47 -26.11,-6.37 -24.92,-2.32 -23.74,-9.24 -22.55,0.07 -21.36,-3.17 -20.18,-1.52 -18.99,0.42 -17.8,0.95 -16.62,1.81 -15.43,2.67 -14.24,1.53 -13.06,1.98 -11.87,2.23 -10.68,1.13 -9.49,3.79 -8.31,4.75 -7.12,3.99 -5.93,5.12 -4.75,6.05 -3.56,7.78 -2.37,9.99 -1.19,5.63 -0,8.52 1.19,9.5 2.37,7.75 3.56,10.24 4.75,10.35 5.93,10.39 7.12,10.39 8.31,10.38 9.49,10.41 10.68,10.45 11.87,10.44 13.06,10.41 14.24,10.44 15.43,10.45 16.62,10.45 17.8,10.45 18.99,10.45 20.18,10.45 21.36,10.45 22.55,10.45 23.74,10.45 24.92,10.45 26.11,10.45 27.3,10.45 28.48,10.45 29.67,10.45 30.86,10.45 32.04,10.45 33.23,10.45 34.42,10.45 35.6,10.45 36.79,10.45 37.98,10.45 39.17,10.45 40.35,10.45 41.54,10.45 " class="primitive"/>
            </g>
          </g>
        </g>
      </g>
    </g>
  </g>
  <g class="guide ylabels" font-size="2.82" font-family="'PT Sans Caption','Helvetica Neue','Helvetica',sans-serif" fill="#6C606B" id="img-1473f80c-34">
    <g transform="translate(20.3,78.72)" id="img-1473f80c-35">
      <g class="primitive">
        <text text-anchor="end" dy="0.35em">1750</text>
      </g>
    </g>
    <g transform="translate(20.3,66.76)" id="img-1473f80c-36">
      <g class="primitive">
        <text text-anchor="end" dy="0.35em">1760</text>
      </g>
    </g>
    <g transform="translate(20.3,54.81)" id="img-1473f80c-37">
      <g class="primitive">
        <text text-anchor="end" dy="0.35em">1770</text>
      </g>
    </g>
    <g transform="translate(20.3,42.86)" id="img-1473f80c-38">
      <g class="primitive">
        <text text-anchor="end" dy="0.35em">1780</text>
      </g>
    </g>
    <g transform="translate(20.3,30.91)" id="img-1473f80c-39">
      <g class="primitive">
        <text text-anchor="end" dy="0.35em">1790</text>
      </g>
    </g>
    <g transform="translate(20.3,18.95)" id="img-1473f80c-40">
      <g class="primitive">
        <text text-anchor="end" dy="0.35em">1800</text>
      </g>
    </g>
    <g transform="translate(20.3,7)" id="img-1473f80c-41">
      <g class="primitive">
        <text text-anchor="end" dy="0.35em">1810</text>
      </g>
    </g>
  </g>
  <g font-size="3.88" font-family="'PT Sans','Helvetica Neue','Helvetica',sans-serif" fill="#564A55" stroke="#000000" stroke-opacity="0.000" id="img-1473f80c-42">
    <g transform="translate(8.81,40.86)" id="img-1473f80c-43">
      <g class="primitive">
        <text text-anchor="middle" dy="0.35em" transform="rotate(-90,0, 2)">objective</text>
      </g>
    </g>
  </g>
</g>
<defs>
  <clipPath id="img-1473f80c-12">
    <path d="M21.3,5 L120.25,5 120.25,80.72 21.3,80.72 " />
  </clipPath>
</defs>
</svg>
