<?xml version="1.0" encoding="UTF-8"?>
<svg xmlns="http://www.w3.org/2000/svg"
     xmlns:xlink="http://www.w3.org/1999/xlink"
     xmlns:gadfly="http://www.gadflyjl.org/ns"
     version="1.2"
     width="141.42mm" height="100mm" viewBox="0 0 141.42 100"
     stroke="none"
     fill="#000000"
     stroke-width="0.3"
     font-size="3.88"
>
<defs>
  <marker id="arrow" markerWidth="15" markerHeight="7" refX="5" refY="3.5" orient="auto" markerUnits="strokeWidth">
    <path d="M0,0 L15,3.5 L0,7 z" stroke="context-stroke" fill="context-stroke"/>
  </marker>
</defs>
<g class="plotroot xscalable yscalable" id="img-899976aa-1">
  <g font-size="3.88" font-family="'PT Sans','Helvetica Neue','Helvetica',sans-serif" fill="#564A55" stroke="#000000" stroke-opacity="0.000" id="img-899976aa-2">
    <g transform="translate(70.78,88.39)">
      <g class="primitive">
        <text text-anchor="middle" dy="0.6em">step</text>
      </g>
    </g>
  </g>
  <g class="guide xlabels" font-size="2.82" font-family="'PT Sans Caption','Helvetica Neue','Helvetica',sans-serif" fill="#6C606B" id="img-899976aa-3">
    <g transform="translate(23.3,81.72)">
      <g class="primitive">
        <text text-anchor="middle" dy="0.6em">0</text>
      </g>
    </g>
    <g transform="translate(47.04,81.72)">
      <g class="primitive">
        <text text-anchor="middle" dy="0.6em">20</text>
      </g>
    </g>
    <g transform="translate(70.78,81.72)">
      <g class="primitive">
        <text text-anchor="middle" dy="0.6em">40</text>
      </g>
    </g>
    <g transform="translate(94.51,81.72)">
      <g class="primitive">
        <text text-anchor="middle" dy="0.6em">60</text>
      </g>
    </g>
    <g transform="translate(118.25,81.72)">
      <g class="primitive">
        <text text-anchor="middle" dy="0.6em">80</text>
      </g>
    </g>
  </g>
  <g class="guide colorkey" id="img-899976aa-4">
    <g class="color_BOBYQA" id="img-899976aa-5">
      <g fill="#4C404B" font-size="2.82" font-family="'PT Sans','Helvetica Neue','Helvetica',sans-serif" id="img-899976aa-6">
        <g transform="translate(124.06,44.67)" id="img-899976aa-7">
          <g class="primitive">
            <text dy="0.35em">BOBYQA</text>
          </g>
        </g>
      </g>
      <g fill-opacity="1" fill="#00BFFF" stroke="#FFFFFF" id="img-899976aa-8">
        <g transform="translate(122.16,44.67)" id="img-899976aa-9">
          <path d="M-0.91,-0.91 L0.91,-0.91 0.91,0.91 -0.91,0.91  z" class="primitive"/>
        </g>
      </g>
    </g>
    <g fill="#362A35" font-size="3.88" font-family="'PT Sans','Helvetica Neue','Helvetica',sans-serif" stroke="#000000" stroke-opacity="0.000" id="img-899976aa-10">
      <g transform="translate(121.25,40.85)" id="img-899976aa-11">
        <g class="primitive">
          <text dy="-0em">algorithm</text>
        </g>
      </g>
    </g>
  </g>
  <g clip-path="url(#img-899976aa-12)">
    <g id="img-899976aa-13">
      <g pointer-events="visible" stroke-width="0.3" fill="#000000" fill-opacity="0.000" stroke="#000000" stroke-opacity="0.000" class="guide background" id="img-899976aa-14">
        <g transform="translate(70.78,42.86)" id="img-899976aa-15">
          <path d="M-49.47,-37.86 L49.47,-37.86 49.47,37.86 -49.47,37.86  z" class="primitive"/>
        </g>
      </g>
      <g class="guide ygridlines xfixed" stroke-dasharray="0.5,0.5" stroke-width="0.2" stroke="#D0D0E0" id="img-899976aa-16">
        <g transform="translate(70.78,78.72)" id="img-899976aa-17">
          <path fill="none" d="M-49.47,0 L49.47,0 " class="primitive"/>
        </g>
        <g transform="translate(70.78,66.76)" id="img-899976aa-18">
          <path fill="none" d="M-49.47,0 L49.47,0 " class="primitive"/>
        </g>
        <g transform="translate(70.78,54.81)" id="img-899976aa-19">
          <path fill="none" d="M-49.47,0 L49.47,0 " class="primitive"/>
        </g>
        <g transform="translate(70.78,42.86)" id="img-899976aa-20">
          <path fill="none" d="M-49.47,0 L49.47,0 " class="primitive"/>
        </g>
        <g transform="translate(70.78,30.91)" id="img-899976aa-21">
          <path fill="none" d="M-49.47,0 L49.47,0 " class="primitive"/>
        </g>
        <g transform="translate(70.78,18.95)" id="img-899976aa-22">
          <path fill="none" d="M-49.47,0 L49.47,0 " class="primitive"/>
        </g>
        <g transform="translate(70.78,7)" id="img-899976aa-23">
          <path fill="none" d="M-49.47,0 L49.47,0 " class="primitive"/>
        </g>
      </g>
      <g class="guide xgridlines yfixed" stroke-dasharray="0.5,0.5" stroke-width="0.2" stroke="#D0D0E0" id="img-899976aa-24">
        <g transform="translate(23.3,42.86)" id="img-899976aa-25">
          <path fill="none" d="M0,-37.86 L0,37.86 " class="primitive"/>
        </g>
        <g transform="translate(47.04,42.86)" id="img-899976aa-26">
          <path fill="none" d="M0,-37.86 L0,37.86 " class="primitive"/>
        </g>
        <g transform="translate(70.78,42.86)" id="img-899976aa-27">
          <path fill="none" d="M0,-37.86 L0,37.86 " class="primitive"/>
        </g>
        <g transform="translate(94.51,42.86)" id="img-899976aa-28">
          <path fill="none" d="M0,-37.86 L0,37.86 " class="primitive"/>
        </g>
        <g transform="translate(118.25,42.86)" id="img-899976aa-29">
          <path fill="none" d="M0,-37.86 L0,37.86 " class="primitive"/>
        </g>
      </g>
      <g class="plotpanel" id="img-899976aa-30">
        <metadata>
          <boundingbox value="21.304999999999993mm 5.0mm 98.94635623730952mm 75.715mm"/>
          <unitbox value="-1.6851620887914331 1811.6732901066723 83.37032417758287 -63.346580213344495"/>
        </metadata>
        <g stroke-width="0.3" fill="#000000" fill-opacity="0.000" class="geometry" id="img-899976aa-31">
          <g class="color_BOBYQA" stroke-dasharray="none" stroke-opacity="1" stroke="#00BFFF" id="img-899976aa-32">
            <g transform="translate(66.62,67.41)" id="img-899976aa-33">
              <path fill="none" d="M-42.13,-30.1 L-40.95,-39.92 -39.76,-47.26 -38.57,-58.68 -37.39,-55.92 -36.2,-46.79 -35.01,-42.21 -33.82,-22.2 -32.64,-14.82 -31.45,-18.21 -30.26,-15.41 -29.08,-5.32 -27.89,-28.5 -26.7,-9.51 -25.52,1.82 -24.33,-4.92 -23.14,3.51 -21.96,2.03 -20.77,0.99 -19.58,4.88 -18.4,4.95 -17.21,-0.54 -16.02,5.35 -14.84,2.37 -13.65,6.25 -12.46,6 -11.27,7.16 -10.09,8.32 -8.9,7.46 -7.71,7.78 -6.53,7.87 -5.34,8.21 -4.15,8.45 -2.97,8.53 -1.78,8.61 -0.59,8.59 0.59,8.48 1.78,8.66 2.97,8.65 4.15,8.71 5.34,8.74 6.53,8.8 7.71,8.87 8.9,8.87 10.09,8.97 11.27,8.96 12.46,8.98 13.65,8.94 14.84,8.96 16.02,8.98 17.21,8.99 18.4,8.97 19.58,8.93 20.77,8.97 21.96,8.99 23.14,8.99 24.33,8.99 25.52,8.99 26.7,8.99 27.89,8.99 29.08,8.99 30.26,8.99 31.45,8.99 32.64,8.99 33.82,8.99 35.01,8.99 36.2,8.99 37.39,8.99 38.57,8.99 39.76,8.99 40.95,8.99 42.13,8.99 " class="primitive"/>
            </g>
          </g>
        </g>
      </g>
    </g>
  </g>
  <g class="guide ylabels" font-size="2.82" font-family="'PT Sans Caption','Helvetica Neue','Helvetica',sans-serif" fill="#6C606B" id="img-899976aa-34">
    <g transform="translate(20.3,78.72)" id="img-899976aa-35">
      <g class="primitive">
        <text text-anchor="end" dy="0.35em">1750</text>
      </g>
    </g>
    <g transform="translate(20.3,66.76)" id="img-899976aa-36">
      <g class="primitive">
        <text text-anchor="end" dy="0.35em">1760</text>
      </g>
    </g>
    <g transform="translate(20.3,54.81)" id="img-899976aa-37">
      <g class="primitive">
        <text text-anchor="end" dy="0.35em">1770</text>
      </g>
    </g>
    <g transform="translate(20.3,42.86)" id="img-899976aa-38">
      <g class="primitive">
        <text text-anchor="end" dy="0.35em">1780</text>
      </g>
    </g>
    <g transform="translate(20.3,30.91)" id="img-899976aa-39">
      <g class="primitive">
        <text text-anchor="end" dy="0.35em">1790</text>
      </g>
    </g>
    <g transform="translate(20.3,18.95)" id="img-899976aa-40">
      <g class="primitive">
        <text text-anchor="end" dy="0.35em">1800</text>
      </g>
    </g>
    <g transform="translate(20.3,7)" id="img-899976aa-41">
      <g class="primitive">
        <text text-anchor="end" dy="0.35em">1810</text>
      </g>
    </g>
  </g>
  <g font-size="3.88" font-family="'PT Sans','Helvetica Neue','Helvetica',sans-serif" fill="#564A55" stroke="#000000" stroke-opacity="0.000" id="img-899976aa-42">
    <g transform="translate(8.81,40.86)" id="img-899976aa-43">
      <g class="primitive">
        <text text-anchor="middle" dy="0.35em" transform="rotate(-90,0, 2)">objective</text>
      </g>
    </g>
  </g>
</g>
<defs>
  <clipPath id="img-899976aa-12">
    <path d="M21.3,5 L120.25,5 120.25,80.72 21.3,80.72 " />
  </clipPath>
</defs>
</svg>
