<?xml version="1.0" encoding="UTF-8"?>
<svg xmlns="http://www.w3.org/2000/svg"
     xmlns:xlink="http://www.w3.org/1999/xlink"
     xmlns:gadfly="http://www.gadflyjl.org/ns"
     version="1.2"
     width="152.4mm" height="101.6mm" viewBox="0 0 152.4 101.6"
     stroke="none"
     fill="#000000"
     stroke-width="0.3"
     font-size="3.88"
>
<g class="plotroot xscalable yscalable" id="img-dc4423af-1">
  <g font-size="3.88" font-family="'PT Sans','Helvetica Neue','Helvetica',sans-serif" fill="#564A55" stroke="#000000" stroke-opacity="0.000" id="img-dc4423af-2">
    <text x="80.88" y="89.99" text-anchor="middle" dy="0.6em">β₁</text>
  </g>
  <g class="guide xlabels" font-size="2.82" font-family="'PT Sans Caption','Helvetica Neue','Helvetica',sans-serif" fill="#6C606B" id="img-dc4423af-3">
    <text x="16.37" y="83.32" text-anchor="middle" dy="0.6em">1400</text>
    <text x="42.17" y="83.32" text-anchor="middle" dy="0.6em">1450</text>
    <text x="67.98" y="83.32" text-anchor="middle" dy="0.6em">1500</text>
    <text x="93.79" y="83.32" text-anchor="middle" dy="0.6em">1550</text>
    <text x="119.59" y="83.32" text-anchor="middle" dy="0.6em">1600</text>
    <text x="145.4" y="83.32" text-anchor="middle" dy="0.6em">1650</text>
  </g>
<g clip-path="url(#img-dc4423af-4)">
  <g id="img-dc4423af-5">
    <g pointer-events="visible" opacity="1" fill="#000000" fill-opacity="0.000" stroke="#000000" stroke-opacity="0.000" class="guide background" id="img-dc4423af-6">
      <rect x="14.37" y="5" width="133.03" height="77.32"/>
    </g>
    <g class="guide ygridlines xfixed" stroke-dasharray="0.5,0.5" stroke-width="0.2" stroke="#D0D0E0" id="img-dc4423af-7">
      <path fill="none" d="M14.37,80.32 L 147.4 80.32"/>
      <path fill="none" d="M14.37,65.65 L 147.4 65.65"/>
      <path fill="none" d="M14.37,50.99 L 147.4 50.99"/>
      <path fill="none" d="M14.37,36.33 L 147.4 36.33"/>
      <path fill="none" d="M14.37,21.66 L 147.4 21.66"/>
      <path fill="none" d="M14.37,7 L 147.4 7"/>
    </g>
    <g class="guide xgridlines yfixed" stroke-dasharray="0.5,0.5" stroke-width="0.2" stroke="#D0D0E0" id="img-dc4423af-8">
      <path fill="none" d="M16.37,5 L 16.37 82.32"/>
      <path fill="none" d="M42.17,5 L 42.17 82.32"/>
      <path fill="none" d="M67.98,5 L 67.98 82.32"/>
      <path fill="none" d="M93.79,5 L 93.79 82.32"/>
      <path fill="none" d="M119.59,5 L 119.59 82.32"/>
      <path fill="none" d="M145.4,5 L 145.4 82.32"/>
    </g>
    <g class="plotpanel" id="img-dc4423af-9">
      <g stroke-width="0.3" fill="#000000" fill-opacity="0.000" class="geometry" stroke-dasharray="none" stroke="#00BFFF" id="img-dc4423af-10">
        <path fill="none" d="M40.85,80.31 L 41.16 80.31 41.47 80.31 41.78 80.31 42.09 80.31 42.4 80.31 42.72 80.31 43.03 80.31 43.34 80.31 43.65 80.31 43.96 80.3 44.27 80.3 44.58 80.29 44.89 80.28 45.2 80.27 45.52 80.27 45.83 80.26 46.14 80.25 46.45 80.25 46.76 80.24 47.07 80.23 47.38 80.22 47.69 80.21 48 80.2 48.32 80.18 48.63 80.16 48.94 80.14 49.25 80.13 49.56 80.11 49.87 80.1 50.18 80.1 50.49 80.09 50.8 80.08 51.12 80.06 51.43 80.04 51.74 80 52.05 79.96 52.36 79.9 52.67 79.84 52.98 79.77 53.29 79.69 53.61 79.62 53.92 79.55 54.23 79.47 54.54 79.38 54.85 79.29 55.16 79.19 55.47 79.08 55.78 78.97 56.09 78.86 56.41 78.76 56.72 78.66 57.03 78.57 57.34 78.47 57.65 78.36 57.96 78.22 58.27 78.06 58.58 77.85 58.89 77.6 59.21 77.32 59.52 77 59.83 76.65 60.14 76.29 60.45 75.91 60.76 75.53 61.07 75.14 61.38 74.75 61.69 74.36 62.01 73.98 62.32 73.59 62.63 73.19 62.94 72.79 63.25 72.37 63.56 71.93 63.87 71.45 64.18 70.92 64.49 70.34 64.81 69.71 65.12 69.02 65.43 68.28 65.74 67.49 66.05 66.66 66.36 65.78 66.67 64.86 66.98 63.89 67.29 62.89 67.61 61.84 67.92 60.78 68.23 59.71 68.54 58.64 68.85 57.58 69.16 56.5 69.47 55.41 69.78 54.26 70.09 53.06 70.41 51.79 70.72 50.45 71.03 49.05 71.34 47.62 71.65 46.17 71.96 44.7 72.27 43.23 72.58 41.76 72.89 40.3 73.21 38.84 73.52 37.39 73.83 35.94 74.14 34.51 74.45 33.09 74.76 31.68 75.07 30.29 75.38 28.9 75.69 27.55 76.01 26.24 76.32 25 76.63 23.83 76.94 22.75 77.25 21.79 77.56 20.94 77.87 20.21 78.18 19.6 78.49 19.11 78.81 18.73 79.12 18.42 79.43 18.16 79.74 17.93 80.05 17.71 80.36 17.47 80.67 17.24 80.98 17.02 81.29 16.82 81.61 16.65 81.92 16.51 82.23 16.39 82.54 16.29 82.85 16.18 83.16 16.09 83.47 16.04 83.78 16.07 84.09 16.22 84.41 16.53 84.72 17.01 85.03 17.66 85.34 18.46 85.65 19.35 85.96 20.32 86.27 21.31 86.58 22.32 86.9 23.33 87.21 24.34 87.52 25.39 87.83 26.47 88.14 27.6 88.45 28.79 88.76 30.03 89.07 31.3 89.38 32.58 89.7 33.83 90.01 35.03 90.32 36.19 90.63 37.29 90.94 38.35 91.25 39.4 91.56 40.46 91.87 41.55 92.18 42.7 92.5 43.91 92.81 45.18 93.12 46.51 93.43 47.88 93.74 49.27 94.05 50.68 94.36 52.07 94.67 53.43 94.98 54.75 95.3 56.01 95.61 57.22 95.92 58.38 96.23 59.49 96.54 60.58 96.85 61.64 97.16 62.69 97.47 63.72 97.78 64.73 98.1 65.71 98.41 66.66 98.72 67.57 99.03 68.43 99.34 69.24 99.65 69.99 99.96 70.69 100.27 71.34 100.58 71.93 100.9 72.48 101.21 72.98 101.52 73.45 101.83 73.88 102.14 74.29 102.45 74.68 102.76 75.05 103.07 75.41 103.38 75.76 103.7 76.11 104.01 76.45 104.32 76.78 104.63 77.1 104.94 77.41 105.25 77.71 105.56 78 105.87 78.27 106.18 78.51 106.5 78.74 106.81 78.94 107.12 79.11 107.43 79.25 107.74 79.37 108.05 79.48 108.36 79.57 108.67 79.65 108.98 79.72 109.3 79.79 109.61 79.86 109.92 79.91 110.23 79.96 110.54 80.01 110.85 80.04 111.16 80.07 111.47 80.09 111.78 80.11 112.1 80.13 112.41 80.14 112.72 80.15 113.03 80.16 113.34 80.17 113.65 80.18 113.96 80.19 114.27 80.2 114.58 80.21 114.9 80.23 115.21 80.24 115.52 80.25 115.83 80.26 116.14 80.27 116.45 80.28 116.76 80.29 117.07 80.3 117.38 80.31 117.7 80.31 118.01 80.31 118.32 80.31 118.63 80.31 118.94 80.31 119.25 80.31 119.56 80.31 119.87 80.31 120.19 80.31"/>
      </g>
    </g>
  </g>
</g>
  <g class="guide ylabels" font-size="2.82" font-family="'PT Sans Caption','Helvetica Neue','Helvetica',sans-serif" fill="#6C606B" id="img-dc4423af-11">
    <text x="13.37" y="80.32" text-anchor="end" dy="0.35em">0.000</text>
    <text x="13.37" y="65.65" text-anchor="end" dy="0.35em">0.005</text>
    <text x="13.37" y="50.99" text-anchor="end" dy="0.35em">0.010</text>
    <text x="13.37" y="36.33" text-anchor="end" dy="0.35em">0.015</text>
    <text x="13.37" y="21.66" text-anchor="end" dy="0.35em">0.020</text>
    <text x="13.37" y="7" text-anchor="end" dy="0.35em">0.025</text>
  </g>
</g>
<defs>
  <clipPath id="img-dc4423af-4">
  <path d="M14.37,5 L 147.4 5 147.4 82.32 14.37 82.32" />
</clipPath>
</defs>
</svg>
