<?xml version="1.0" encoding="UTF-8"?>
<svg xmlns="http://www.w3.org/2000/svg"
     xmlns:xlink="http://www.w3.org/1999/xlink"
     xmlns:gadfly="http://www.gadflyjl.org/ns"
     version="1.2"
     width="203.2mm" height="101.6mm" viewBox="0 0 203.2 101.6"
     stroke="none"
     fill="#000000"
     stroke-width="0.3"
     font-size="3.88"
>
<g class="plotroot xscalable yscalable" id="img-110109c0-1">
  <g font-size="3.88" font-family="'PT Sans','Helvetica Neue','Helvetica',sans-serif" fill="#564A55" stroke="#000000" stroke-opacity="0.000" id="img-110109c0-2">
    <text x="108.66" y="89.99" text-anchor="middle" dy="0.6em">Parametric bootstrap estimates of σ₁</text>
  </g>
  <g class="guide xlabels" font-size="2.82" font-family="'PT Sans Caption','Helvetica Neue','Helvetica',sans-serif" fill="#6C606B" id="img-110109c0-3">
    <text x="21.11" y="83.32" text-anchor="middle" dy="0.6em">0</text>
    <text x="108.66" y="83.32" text-anchor="middle" dy="0.6em">50</text>
    <text x="196.2" y="83.32" text-anchor="middle" dy="0.6em">100</text>
  </g>
<g clip-path="url(#img-110109c0-4)">
  <g id="img-110109c0-5">
    <g pointer-events="visible" opacity="1" fill="#000000" fill-opacity="0.000" stroke="#000000" stroke-opacity="0.000" class="guide background" id="img-110109c0-6">
      <rect x="19.11" y="5" width="179.09" height="77.32"/>
    </g>
    <g class="guide ygridlines xfixed" stroke-dasharray="0.5,0.5" stroke-width="0.2" stroke="#D0D0E0" id="img-110109c0-7">
      <path fill="none" d="M19.11,80.31 L 198.2 80.31"/>
      <path fill="none" d="M19.11,55.88 L 198.2 55.88"/>
      <path fill="none" d="M19.11,31.44 L 198.2 31.44"/>
      <path fill="none" d="M19.11,7 L 198.2 7"/>
    </g>
    <g class="guide xgridlines yfixed" stroke-dasharray="0.5,0.5" stroke-width="0.2" stroke="#D0D0E0" id="img-110109c0-8">
      <path fill="none" d="M21.11,5 L 21.11 82.32"/>
      <path fill="none" d="M108.66,5 L 108.66 82.32"/>
      <path fill="none" d="M196.2,5 L 196.2 82.32"/>
    </g>
    <g class="plotpanel" id="img-110109c0-9">
      <g shape-rendering="crispEdges" stroke-width="0.3" id="img-110109c0-10">
        <g stroke="#000000" stroke-opacity="0.000" class="geometry" fill="#00BFFF" id="img-110109c0-11">
          <rect x="21.09" y="30.91" width="1.15" height="49.4"/>
          <rect x="22.19" y="80.12" width="1.15" height="0.19"/>
          <rect x="23.28" y="79.91" width="1.15" height="0.4"/>
          <rect x="24.38" y="79.84" width="1.15" height="0.48"/>
          <rect x="25.48" y="79.7" width="1.15" height="0.61"/>
          <rect x="26.57" y="79.53" width="1.15" height="0.79"/>
          <rect x="27.67" y="79.35" width="1.15" height="0.96"/>
          <rect x="28.77" y="79.3" width="1.15" height="1.02"/>
          <rect x="29.87" y="79.14" width="1.15" height="1.18"/>
          <rect x="30.96" y="78.82" width="1.15" height="1.5"/>
          <rect x="32.06" y="78.83" width="1.15" height="1.49"/>
          <rect x="33.16" y="78.6" width="1.15" height="1.71"/>
          <rect x="34.25" y="78.51" width="1.15" height="1.81"/>
          <rect x="35.35" y="78.26" width="1.15" height="2.06"/>
          <rect x="36.45" y="78.13" width="1.15" height="2.19"/>
          <rect x="37.55" y="77.86" width="1.15" height="2.46"/>
          <rect x="38.64" y="77.61" width="1.15" height="2.71"/>
          <rect x="39.74" y="77.45" width="1.15" height="2.86"/>
          <rect x="40.84" y="77.45" width="1.15" height="2.87"/>
          <rect x="41.94" y="77.11" width="1.15" height="3.2"/>
          <rect x="43.03" y="76.97" width="1.15" height="3.34"/>
          <rect x="44.13" y="76.41" width="1.15" height="3.91"/>
          <rect x="45.23" y="76.35" width="1.15" height="3.97"/>
          <rect x="46.32" y="76.34" width="1.15" height="3.98"/>
          <rect x="47.42" y="75.93" width="1.15" height="4.39"/>
          <rect x="48.52" y="75.69" width="1.15" height="4.63"/>
          <rect x="49.62" y="75.65" width="1.15" height="4.67"/>
          <rect x="50.71" y="75.23" width="1.15" height="5.09"/>
          <rect x="51.81" y="75.24" width="1.15" height="5.07"/>
          <rect x="52.91" y="74.93" width="1.15" height="5.38"/>
          <rect x="54" y="74.49" width="1.15" height="5.82"/>
          <rect x="55.1" y="74.79" width="1.15" height="5.53"/>
          <rect x="56.2" y="74.05" width="1.15" height="6.27"/>
          <rect x="57.3" y="74.42" width="1.15" height="5.89"/>
          <rect x="58.39" y="73.85" width="1.15" height="6.46"/>
          <rect x="59.49" y="73.84" width="1.15" height="6.48"/>
          <rect x="60.59" y="73.57" width="1.15" height="6.75"/>
          <rect x="61.69" y="73.35" width="1.15" height="6.96"/>
          <rect x="62.78" y="73.51" width="1.15" height="6.8"/>
          <rect x="63.88" y="73.36" width="1.15" height="6.96"/>
          <rect x="64.98" y="72.98" width="1.15" height="7.34"/>
          <rect x="66.07" y="73.2" width="1.15" height="7.11"/>
          <rect x="67.17" y="72.66" width="1.15" height="7.65"/>
          <rect x="68.27" y="72.76" width="1.15" height="7.56"/>
          <rect x="69.37" y="72.52" width="1.15" height="7.8"/>
          <rect x="70.46" y="72.47" width="1.15" height="7.84"/>
          <rect x="71.56" y="72.54" width="1.15" height="7.77"/>
          <rect x="72.66" y="72.12" width="1.15" height="8.2"/>
          <rect x="73.75" y="72.34" width="1.15" height="7.98"/>
          <rect x="74.85" y="72.15" width="1.15" height="8.16"/>
          <rect x="75.95" y="72.27" width="1.15" height="8.05"/>
          <rect x="77.05" y="72.38" width="1.15" height="7.94"/>
          <rect x="78.14" y="72.16" width="1.15" height="8.16"/>
          <rect x="79.24" y="72.63" width="1.15" height="7.68"/>
          <rect x="80.34" y="73.06" width="1.15" height="7.25"/>
          <rect x="81.44" y="72.63" width="1.15" height="7.69"/>
          <rect x="82.53" y="72.47" width="1.15" height="7.84"/>
          <rect x="83.63" y="72.78" width="1.15" height="7.54"/>
          <rect x="84.73" y="73.03" width="1.15" height="7.28"/>
          <rect x="85.82" y="73.26" width="1.15" height="7.05"/>
          <rect x="86.92" y="73.48" width="1.15" height="6.84"/>
          <rect x="88.02" y="73.74" width="1.15" height="6.58"/>
          <rect x="89.12" y="73.69" width="1.15" height="6.63"/>
          <rect x="90.21" y="73.86" width="1.15" height="6.45"/>
          <rect x="91.31" y="74.07" width="1.15" height="6.25"/>
          <rect x="92.41" y="74.01" width="1.15" height="6.31"/>
          <rect x="93.5" y="74.6" width="1.15" height="5.72"/>
          <rect x="94.6" y="74.61" width="1.15" height="5.7"/>
          <rect x="95.7" y="74.75" width="1.15" height="5.56"/>
          <rect x="96.8" y="75.1" width="1.15" height="5.22"/>
          <rect x="97.89" y="75.29" width="1.15" height="5.02"/>
          <rect x="98.99" y="75.3" width="1.15" height="5.01"/>
          <rect x="100.09" y="75.75" width="1.15" height="4.57"/>
          <rect x="101.19" y="75.85" width="1.15" height="4.47"/>
          <rect x="102.28" y="76.04" width="1.15" height="4.27"/>
          <rect x="103.38" y="76.08" width="1.15" height="4.23"/>
          <rect x="104.48" y="76.52" width="1.15" height="3.8"/>
          <rect x="105.57" y="76.7" width="1.15" height="3.61"/>
          <rect x="106.67" y="76.76" width="1.15" height="3.56"/>
          <rect x="107.77" y="76.96" width="1.15" height="3.36"/>
          <rect x="108.87" y="76.97" width="1.15" height="3.34"/>
          <rect x="109.96" y="77.52" width="1.15" height="2.8"/>
          <rect x="111.06" y="77.37" width="1.15" height="2.94"/>
          <rect x="112.16" y="77.69" width="1.15" height="2.63"/>
          <rect x="113.25" y="77.69" width="1.15" height="2.62"/>
          <rect x="114.35" y="77.89" width="1.15" height="2.43"/>
          <rect x="115.45" y="78.25" width="1.15" height="2.06"/>
          <rect x="116.55" y="78.15" width="1.15" height="2.17"/>
          <rect x="117.64" y="78.46" width="1.15" height="1.86"/>
          <rect x="118.74" y="78.49" width="1.15" height="1.83"/>
          <rect x="119.84" y="78.8" width="1.15" height="1.51"/>
          <rect x="120.94" y="78.91" width="1.15" height="1.41"/>
          <rect x="122.03" y="78.79" width="1.15" height="1.53"/>
          <rect x="123.13" y="79.07" width="1.15" height="1.24"/>
          <rect x="124.23" y="79.23" width="1.15" height="1.08"/>
          <rect x="125.32" y="79.3" width="1.15" height="1.01"/>
          <rect x="126.42" y="79.36" width="1.15" height="0.95"/>
          <rect x="127.52" y="79.41" width="1.15" height="0.9"/>
          <rect x="128.62" y="79.44" width="1.15" height="0.87"/>
          <rect x="129.71" y="79.52" width="1.15" height="0.8"/>
          <rect x="130.81" y="79.57" width="1.15" height="0.74"/>
          <rect x="131.91" y="79.64" width="1.15" height="0.67"/>
          <rect x="133" y="79.69" width="1.15" height="0.62"/>
          <rect x="134.1" y="79.77" width="1.15" height="0.54"/>
          <rect x="135.2" y="79.83" width="1.15" height="0.49"/>
          <rect x="136.3" y="79.81" width="1.15" height="0.5"/>
          <rect x="137.39" y="79.89" width="1.15" height="0.43"/>
          <rect x="138.49" y="79.96" width="1.15" height="0.36"/>
          <rect x="139.59" y="79.99" width="1.15" height="0.33"/>
          <rect x="140.69" y="80.03" width="1.15" height="0.28"/>
          <rect x="141.78" y="80.06" width="1.15" height="0.25"/>
          <rect x="142.88" y="80.03" width="1.15" height="0.28"/>
          <rect x="143.98" y="80.12" width="1.15" height="0.2"/>
          <rect x="145.07" y="80.1" width="1.15" height="0.22"/>
          <rect x="146.17" y="80.11" width="1.15" height="0.2"/>
          <rect x="147.27" y="80.15" width="1.15" height="0.17"/>
          <rect x="148.37" y="80.19" width="1.15" height="0.12"/>
          <rect x="149.46" y="80.18" width="1.15" height="0.14"/>
          <rect x="150.56" y="80.22" width="1.15" height="0.09"/>
          <rect x="151.66" y="80.19" width="1.15" height="0.12"/>
          <rect x="152.75" y="80.22" width="1.15" height="0.09"/>
          <rect x="153.85" y="80.22" width="1.15" height="0.09"/>
          <rect x="154.95" y="80.24" width="1.15" height="0.08"/>
          <rect x="156.05" y="80.23" width="1.15" height="0.09"/>
          <rect x="157.14" y="80.26" width="1.15" height="0.06"/>
          <rect x="158.24" y="80.26" width="1.15" height="0.06"/>
          <rect x="159.34" y="80.3" width="1.15" height="0.02"/>
          <rect x="160.44" y="80.3" width="1.15" height="0.02"/>
          <rect x="161.53" y="80.27" width="1.15" height="0.04"/>
          <rect x="162.63" y="80.28" width="1.15" height="0.03"/>
          <rect x="163.73" y="80.3" width="1.15" height="0.02"/>
          <rect x="164.82" y="80.31" width="1.15" height="0.01"/>
          <rect x="165.92" y="80.3" width="1.15" height="0.01"/>
          <rect x="167.02" y="80.3" width="1.15" height="0.02"/>
          <rect x="168.12" y="80.31" width="1.15" height="0.01"/>
          <rect x="169.21" y="80.3" width="1.15" height="0.02"/>
          <rect x="170.31" y="80.3" width="1.15" height="0.01"/>
          <rect x="171.41" y="80.3" width="1.15" height="0.01"/>
          <rect x="172.5" y="80.31" width="1.15" height="0.01"/>
          <rect x="173.6" y="80.31" width="1.15" height="0.01"/>
          <rect x="174.7" y="80.3" width="1.15" height="0.01"/>
          <rect x="175.8" y="80.31" width="1.15" height="0.01"/>
          <rect x="176.89" y="80.31" width="1.15" height="0.01"/>
          <rect x="177.99" y="80.31" width="1.15" height="0.01"/>
          <rect x="179.09" y="80.31" width="1.15" height="0.01"/>
          <rect x="180.19" y="80.31" width="1.15" height="0.01"/>
          <rect x="181.28" y="80.31" width="1.15" height="0.01"/>
          <rect x="182.38" y="80.31" width="1.15" height="0.01"/>
          <rect x="183.48" y="80.31" width="1.15" height="0.01"/>
          <rect x="184.57" y="80.31" width="1.15" height="0.01"/>
        </g>
      </g>
    </g>
  </g>
</g>
  <g class="guide ylabels" font-size="2.82" font-family="'PT Sans Caption','Helvetica Neue','Helvetica',sans-serif" fill="#6C606B" id="img-110109c0-12">
    <text x="18.11" y="80.31" text-anchor="end" dy="0.35em">0</text>
    <text x="18.11" y="55.88" text-anchor="end" dy="0.35em">5.0×10³</text>
    <text x="18.11" y="31.44" text-anchor="end" dy="0.35em">1.0×10⁴</text>
    <text x="18.11" y="7" text-anchor="end" dy="0.35em">1.5×10⁴</text>
  </g>
</g>
<defs>
  <clipPath id="img-110109c0-4">
  <path d="M19.11,5 L 198.2 5 198.2 82.32 19.11 82.32" />
</clipPath>
</defs>
</svg>
