<?xml version="1.0" encoding="UTF-8"?>
<svg xmlns="http://www.w3.org/2000/svg"
     xmlns:xlink="http://www.w3.org/1999/xlink"
     xmlns:gadfly="http://www.gadflyjl.org/ns"
     version="1.2"
     width="203.2mm" height="101.6mm" viewBox="0 0 203.2 101.6"
     stroke="none"
     fill="#000000"
     stroke-width="0.3"
     font-size="3.88"
>
<g class="plotroot xscalable yscalable" id="img-a5a3f5c1-1">
  <g font-size="3.88" font-family="'PT Sans','Helvetica Neue','Helvetica',sans-serif" fill="#564A55" stroke="#000000" stroke-opacity="0.000" id="img-a5a3f5c1-2">
    <text x="105.45" y="89.99" text-anchor="middle" dy="0.6em">Parametric bootstrap estimates of σ₁</text>
  </g>
  <g class="guide xlabels" font-size="2.82" font-family="'PT Sans Caption','Helvetica Neue','Helvetica',sans-serif" fill="#6C606B" id="img-a5a3f5c1-3">
    <text x="14.69" y="83.32" text-anchor="middle" dy="0.6em">-50</text>
    <text x="75.2" y="83.32" text-anchor="middle" dy="0.6em">0</text>
    <text x="135.7" y="83.32" text-anchor="middle" dy="0.6em">50</text>
    <text x="196.2" y="83.32" text-anchor="middle" dy="0.6em">100</text>
  </g>
<g clip-path="url(#img-a5a3f5c1-4)">
  <g id="img-a5a3f5c1-5">
    <g pointer-events="visible" opacity="1" fill="#000000" fill-opacity="0.000" stroke="#000000" stroke-opacity="0.000" class="guide background" id="img-a5a3f5c1-6">
      <rect x="12.69" y="5" width="185.51" height="77.32"/>
    </g>
    <g class="guide ygridlines xfixed" stroke-dasharray="0.5,0.5" stroke-width="0.2" stroke="#D0D0E0" id="img-a5a3f5c1-7">
      <path fill="none" d="M12.69,80.32 L 198.2 80.32"/>
      <path fill="none" d="M12.69,55.88 L 198.2 55.88"/>
      <path fill="none" d="M12.69,31.44 L 198.2 31.44"/>
      <path fill="none" d="M12.69,7 L 198.2 7"/>
    </g>
    <g class="guide xgridlines yfixed" stroke-dasharray="0.5,0.5" stroke-width="0.2" stroke="#D0D0E0" id="img-a5a3f5c1-8">
      <path fill="none" d="M14.69,5 L 14.69 82.32"/>
      <path fill="none" d="M75.2,5 L 75.2 82.32"/>
      <path fill="none" d="M135.7,5 L 135.7 82.32"/>
      <path fill="none" d="M196.2,5 L 196.2 82.32"/>
    </g>
    <g class="plotpanel" id="img-a5a3f5c1-9">
      <g stroke-width="0.3" fill="#000000" fill-opacity="0.000" class="geometry" id="img-a5a3f5c1-10">
        <g stroke-dasharray="none" stroke="#00BFFF" id="img-a5a3f5c1-11">
          <path fill="none" d="M68.25,80.29 L 68.75 80.24 69.26 80.11 69.76 79.78 70.26 79.07 70.76 77.63 71.26 74.97 71.76 70.51 72.26 63.75 72.76 54.52 73.26 43.3 73.76 31.39 74.26 20.71 74.76 13.38 75.26 10.97 75.76 13.98 76.26 21.61 76.76 32.07 77.26 43.24 77.76 53.29 78.26 61.16 78.76 66.55 79.27 69.73 79.77 71.26 80.27 71.71 80.77 71.51 81.27 70.98 81.77 70.27 82.27 69.49 82.77 68.66 83.27 67.81 83.77 66.93 84.27 66.04 84.77 65.12 85.27 64.17 85.77 63.21 86.27 62.23 86.77 61.23 87.27 60.23 87.77 59.22 88.27 58.18 88.77 57.13 89.28 56.04 89.78 54.91 90.28 53.76 90.78 52.58 91.28 51.39 91.78 50.21 92.28 49.05 92.78 47.9 93.28 46.77 93.78 45.65 94.28 44.53 94.78 43.41 95.28 42.29 95.78 41.18 96.28 40.08 96.78 38.98 97.28 37.91 97.78 36.85 98.28 35.82 98.78 34.8 99.29 33.8 99.79 32.81 100.29 31.83 100.79 30.87 101.29 29.94 101.79 29.04 102.29 28.19 102.79 27.39 103.29 26.64 103.79 25.92 104.29 25.22 104.79 24.52 105.29 23.81 105.79 23.09 106.29 22.37 106.79 21.66 107.29 20.97 107.79 20.31 108.29 19.68 108.79 19.08 109.3 18.52 109.8 18 110.3 17.53 110.8 17.13 111.3 16.8 111.8 16.57 112.3 16.44 112.8 16.43 113.3 16.53 113.8 16.75 114.3 17.06 114.8 17.45 115.3 17.89 115.8 18.33 116.3 18.77 116.8 19.2 117.3 19.64 117.8 20.12 118.3 20.69 118.8 21.36 119.31 22.13 119.81 22.98 120.31 23.89 120.81 24.81 121.31 25.7 121.81 26.57 122.31 27.42 122.81 28.24 123.31 29.07 123.81 29.93 124.31 30.83 124.81 31.78 125.31 32.77 125.81 33.79 126.31 34.84 126.81 35.9 127.31 36.96 127.81 38.01 128.31 39.06 128.82 40.11 129.32 41.16 129.82 42.22 130.32 43.28 130.82 44.35 131.32 45.4 131.82 46.44 132.32 47.47 132.82 48.48 133.32 49.47 133.82 50.43 134.32 51.37 134.82 52.29 135.32 53.19 135.82 54.07 136.32 54.95 136.82 55.83 137.32 56.7 137.82 57.57 138.32 58.43 138.83 59.29 139.33 60.14 139.83 61 140.33 61.84 140.83 62.68 141.33 63.51 141.83 64.31 142.33 65.1 142.83 65.85 143.33 66.58 143.83 67.29 144.33 67.97 144.83 68.63 145.33 69.26 145.83 69.88 146.33 70.46 146.83 71.01 147.33 71.52 147.83 71.97 148.33 72.38 148.84 72.76 149.34 73.11 149.84 73.44 150.34 73.77 150.84 74.09 151.34 74.4 151.84 74.72 152.34 75.02 152.84 75.31 153.34 75.59 153.84 75.86 154.34 76.12 154.84 76.38 155.34 76.63 155.84 76.88 156.34 77.12 156.84 77.34 157.34 77.55 157.84 77.74 158.34 77.91 158.85 78.06 159.35 78.19 159.85 78.32 160.35 78.44 160.85 78.55 161.35 78.67 161.85 78.78 162.35 78.89 162.85 78.99 163.35 79.09 163.85 79.18 164.35 79.26 164.85 79.34 165.35 79.4 165.85 79.46 166.35 79.51 166.85 79.56 167.35 79.6 167.85 79.64 168.35 79.69 168.86 79.73 169.36 79.79 169.86 79.84 170.36 79.89 170.86 79.94 171.36 79.98 171.86 80.02 172.36 80.05 172.86 80.08 173.36 80.1 173.86 80.13 174.36 80.15 174.86 80.16 175.36 80.18 175.86 80.19 176.36 80.2 176.86 80.21 177.36 80.21 177.86 80.21 178.36 80.21 178.87 80.21 179.37 80.22 179.87 80.22 180.37 80.23 180.87 80.23 181.37 80.24 181.87 80.25 182.37 80.26 182.87 80.27 183.37 80.27 183.87 80.28 184.37 80.29 184.87 80.29 185.37 80.29 185.87 80.3 186.37 80.3 186.87 80.3 187.37 80.3 187.87 80.3 188.37 80.3 188.88 80.3 189.38 80.31 189.88 80.31 190.38 80.31 190.88 80.31 191.38 80.31 191.88 80.31 192.38 80.31 192.88 80.31 193.38 80.31 193.88 80.31 194.38 80.31 194.88 80.31 195.38 80.31 195.88 80.31"/>
        </g>
      </g>
    </g>
  </g>
</g>
  <g class="guide ylabels" font-size="2.82" font-family="'PT Sans Caption','Helvetica Neue','Helvetica',sans-serif" fill="#6C606B" id="img-a5a3f5c1-12">
    <text x="11.69" y="80.32" text-anchor="end" dy="0.35em">0.00</text>
    <text x="11.69" y="55.88" text-anchor="end" dy="0.35em">0.01</text>
    <text x="11.69" y="31.44" text-anchor="end" dy="0.35em">0.02</text>
    <text x="11.69" y="7" text-anchor="end" dy="0.35em">0.03</text>
  </g>
</g>
<defs>
  <clipPath id="img-a5a3f5c1-4">
  <path d="M12.69,5 L 198.2 5 198.2 82.32 12.69 82.32" />
</clipPath>
</defs>
</svg>
