<?xml version="1.0" encoding="UTF-8"?>
<svg xmlns="http://www.w3.org/2000/svg"
     xmlns:xlink="http://www.w3.org/1999/xlink"
     xmlns:gadfly="http://www.gadflyjl.org/ns"
     version="1.2"
     width="141.42mm" height="100mm" viewBox="0 0 141.42 100"
     stroke="none"
     fill="#000000"
     stroke-width="0.3"
     font-size="3.88"
>
<defs>
  <marker id="arrow" markerWidth="15" markerHeight="7" refX="5" refY="3.5" orient="auto" markerUnits="strokeWidth">
    <path d="M0,0 L15,3.5 L0,7 z" stroke="context-stroke" fill="context-stroke"/>
  </marker>
</defs>
<g class="plotroot xscalable yscalable" id="img-65ae5e9d-1">
  <g font-size="3.88" font-family="'PT Sans','Helvetica Neue','Helvetica',sans-serif" fill="#564A55" stroke="#000000" stroke-opacity="0.000" id="img-65ae5e9d-2">
    <g transform="translate(74.56,88.39)">
      <g class="primitive">
        <text text-anchor="middle" dy="0.6em">Parametric bootstrap estimates of σ</text>
      </g>
    </g>
  </g>
  <g class="guide xlabels" font-size="2.82" font-family="'PT Sans Caption','Helvetica Neue','Helvetica',sans-serif" fill="#6C606B" id="img-65ae5e9d-3">
    <g transform="translate(14.69,81.72)">
      <g class="primitive">
        <text text-anchor="middle" dy="0.6em">0</text>
      </g>
    </g>
    <g transform="translate(38.64,81.72)">
      <g class="primitive">
        <text text-anchor="middle" dy="0.6em">20</text>
      </g>
    </g>
    <g transform="translate(62.58,81.72)">
      <g class="primitive">
        <text text-anchor="middle" dy="0.6em">40</text>
      </g>
    </g>
    <g transform="translate(86.53,81.72)">
      <g class="primitive">
        <text text-anchor="middle" dy="0.6em">60</text>
      </g>
    </g>
    <g transform="translate(110.48,81.72)">
      <g class="primitive">
        <text text-anchor="middle" dy="0.6em">80</text>
      </g>
    </g>
    <g transform="translate(134.42,81.72)">
      <g class="primitive">
        <text text-anchor="middle" dy="0.6em">100</text>
      </g>
    </g>
  </g>
  <g clip-path="url(#img-65ae5e9d-4)">
    <g id="img-65ae5e9d-5">
      <g pointer-events="visible" fill="#000000" fill-opacity="0.000" stroke="#000000" stroke-opacity="0.000" class="guide background" id="img-65ae5e9d-6">
        <g transform="translate(74.56,42.86)" id="img-65ae5e9d-7">
          <path d="M-61.86,-37.86 L 61.86 -37.86 61.86 37.86 -61.86 37.86 z" class="primitive"/>
        </g>
      </g>
      <g class="guide ygridlines xfixed" stroke-dasharray="0.5,0.5" stroke-width="0.2" stroke="#D0D0E0" id="img-65ae5e9d-8">
        <g transform="translate(74.56,78.71)" id="img-65ae5e9d-9">
          <path fill="none" d="M-61.86,0 L 61.86 0" class="primitive"/>
        </g>
        <g transform="translate(74.56,66.76)" id="img-65ae5e9d-10">
          <path fill="none" d="M-61.86,0 L 61.86 0" class="primitive"/>
        </g>
        <g transform="translate(74.56,54.81)" id="img-65ae5e9d-11">
          <path fill="none" d="M-61.86,0 L 61.86 0" class="primitive"/>
        </g>
        <g transform="translate(74.56,42.86)" id="img-65ae5e9d-12">
          <path fill="none" d="M-61.86,0 L 61.86 0" class="primitive"/>
        </g>
        <g transform="translate(74.56,30.9)" id="img-65ae5e9d-13">
          <path fill="none" d="M-61.86,0 L 61.86 0" class="primitive"/>
        </g>
        <g transform="translate(74.56,18.95)" id="img-65ae5e9d-14">
          <path fill="none" d="M-61.86,0 L 61.86 0" class="primitive"/>
        </g>
        <g transform="translate(74.56,7)" id="img-65ae5e9d-15">
          <path fill="none" d="M-61.86,0 L 61.86 0" class="primitive"/>
        </g>
      </g>
      <g class="guide xgridlines yfixed" stroke-dasharray="0.5,0.5" stroke-width="0.2" stroke="#D0D0E0" id="img-65ae5e9d-16">
        <g transform="translate(14.69,42.86)" id="img-65ae5e9d-17">
          <path fill="none" d="M0,-37.86 L 0 37.86" class="primitive"/>
        </g>
        <g transform="translate(38.64,42.86)" id="img-65ae5e9d-18">
          <path fill="none" d="M0,-37.86 L 0 37.86" class="primitive"/>
        </g>
        <g transform="translate(62.58,42.86)" id="img-65ae5e9d-19">
          <path fill="none" d="M0,-37.86 L 0 37.86" class="primitive"/>
        </g>
        <g transform="translate(86.53,42.86)" id="img-65ae5e9d-20">
          <path fill="none" d="M0,-37.86 L 0 37.86" class="primitive"/>
        </g>
        <g transform="translate(110.48,42.86)" id="img-65ae5e9d-21">
          <path fill="none" d="M0,-37.86 L 0 37.86" class="primitive"/>
        </g>
        <g transform="translate(134.42,42.86)" id="img-65ae5e9d-22">
          <path fill="none" d="M0,-37.86 L 0 37.86" class="primitive"/>
        </g>
      </g>
      <g class="plotpanel" id="img-65ae5e9d-23">
        <metadata>
          <boundingbox value="12.693333333333328mm 5.0mm 123.72802290397618mm 75.715mm"/>
          <unitbox value="-1.6704527073031452 0.06167329010667224 103.3409054146063 -0.0633465802133445"/>
        </metadata>
        <g stroke-width="0.3" fill="#000000" fill-opacity="0.000" class="geometry" id="img-65ae5e9d-24">
          <g class="color_LCHab{Float32}(70.0f0,60.0f0,240.0f0)" stroke-dasharray="none" stroke="#00BFFF" id="img-65ae5e9d-25">
            <g transform="translate(76.94,60.56)" id="img-65ae5e9d-26">
              <path fill="none" d="M-39.27,18.15 L -38.96 18.15 -38.65 18.15 -38.34 18.15 -38.03 18.15 -37.73 18.15 -37.42 18.15 -37.11 18.15 -36.8 18.14 -36.49 18.14 -36.19 18.13 -35.88 18.13 -35.57 18.13 -35.26 18.12 -34.95 18.12 -34.65 18.12 -34.34 18.12 -34.03 18.11 -33.72 18.11 -33.41 18.1 -33.11 18.09 -32.8 18.08 -32.49 18.07 -32.18 18.06 -31.88 18.04 -31.57 18.02 -31.26 17.98 -30.95 17.95 -30.64 17.91 -30.34 17.89 -30.03 17.87 -29.72 17.85 -29.41 17.81 -29.1 17.76 -28.8 17.7 -28.49 17.61 -28.18 17.5 -27.87 17.39 -27.56 17.27 -27.26 17.16 -26.95 17.05 -26.64 16.94 -26.33 16.82 -26.02 16.68 -25.72 16.53 -25.41 16.35 -25.1 16.15 -24.79 15.92 -24.48 15.65 -24.18 15.33 -23.87 14.97 -23.56 14.56 -23.25 14.13 -22.94 13.67 -22.64 13.19 -22.33 12.69 -22.02 12.17 -21.71 11.63 -21.4 11.04 -21.1 10.4 -20.79 9.73 -20.48 9.01 -20.17 8.28 -19.86 7.51 -19.56 6.7 -19.25 5.81 -18.94 4.85 -18.63 3.82 -18.32 2.72 -18.02 1.56 -17.71 0.35 -17.4 -0.89 -17.09 -2.16 -16.78 -3.46 -16.48 -4.76 -16.17 -6.06 -15.86 -7.36 -15.55 -8.66 -15.24 -9.99 -14.94 -11.38 -14.63 -12.87 -14.32 -14.44 -14.01 -16.07 -13.7 -17.71 -13.4 -19.29 -13.09 -20.8 -12.78 -22.25 -12.47 -23.68 -12.16 -25.15 -11.86 -26.67 -11.55 -28.22 -11.24 -29.77 -10.93 -31.29 -10.63 -32.74 -10.32 -34.13 -10.01 -35.46 -9.7 -36.75 -9.39 -38 -9.09 -39.19 -8.78 -40.28 -8.47 -41.32 -8.16 -42.35 -7.85 -43.43 -7.55 -44.57 -7.24 -45.69 -6.93 -46.69 -6.62 -47.47 -6.31 -47.99 -6.01 -48.28 -5.7 -48.45 -5.39 -48.58 -5.08 -48.73 -4.77 -48.88 -4.47 -49 -4.16 -49.06 -3.85 -49.04 -3.54 -48.97 -3.23 -48.86 -2.93 -48.69 -2.62 -48.42 -2.31 -48.02 -2 -47.47 -1.69 -46.77 -1.39 -45.94 -1.08 -45.02 -0.77 -44.03 -0.46 -42.97 -0.15 -41.85 0.15 -40.67 0.46 -39.4 0.77 -38.07 1.08 -36.69 1.39 -35.31 1.69 -33.97 2 -32.7 2.31 -31.49 2.62 -30.31 2.93 -29.14 3.23 -27.95 3.54 -26.72 3.85 -25.43 4.16 -24.09 4.47 -22.66 4.77 -21.14 5.08 -19.54 5.39 -17.93 5.7 -16.36 6.01 -14.9 6.31 -13.59 6.62 -12.41 6.93 -11.32 7.24 -10.25 7.55 -9.13 7.85 -7.93 8.16 -6.67 8.47 -5.37 8.78 -4.1 9.09 -2.88 9.39 -1.73 9.7 -0.63 10.01 0.44 10.32 1.5 10.63 2.55 10.93 3.56 11.24 4.51 11.55 5.37 11.86 6.15 12.16 6.86 12.47 7.54 12.78 8.21 13.09 8.88 13.4 9.56 13.7 10.22 14.01 10.84 14.32 11.4 14.63 11.88 14.94 12.28 15.24 12.63 15.55 12.94 15.86 13.25 16.17 13.58 16.48 13.92 16.78 14.26 17.09 14.57 17.4 14.86 17.71 15.15 18.02 15.42 18.32 15.69 18.63 15.93 18.94 16.15 19.25 16.32 19.56 16.46 19.86 16.58 20.17 16.68 20.48 16.78 20.79 16.88 21.1 16.98 21.4 17.07 21.71 17.15 22.02 17.22 22.33 17.28 22.64 17.33 22.94 17.39 23.25 17.45 23.56 17.51 23.87 17.57 24.18 17.63 24.48 17.69 24.79 17.74 25.1 17.78 25.41 17.82 25.72 17.85 26.02 17.88 26.33 17.91 26.64 17.95 26.95 17.98 27.26 18.01 27.56 18.03 27.87 18.04 28.18 18.05 28.49 18.07 28.8 18.08 29.1 18.09 29.41 18.1 29.72 18.11 30.03 18.11 30.34 18.11 30.64 18.11 30.95 18.11 31.26 18.11 31.57 18.11 31.88 18.12 32.18 18.12 32.49 18.12 32.8 18.12 33.11 18.12 33.41 18.13 33.72 18.13 34.03 18.13 34.34 18.13 34.65 18.14 34.95 18.13 35.26 18.13 35.57 18.13 35.88 18.13 36.19 18.14 36.49 18.14 36.8 18.14 37.11 18.15 37.42 18.15 37.73 18.15 38.03 18.15 38.34 18.15 38.65 18.15 38.96 18.15 39.27 18.15" class="primitive"/>
            </g>
          </g>
        </g>
      </g>
    </g>
  </g>
  <g class="guide ylabels" font-size="2.82" font-family="'PT Sans Caption','Helvetica Neue','Helvetica',sans-serif" fill="#6C606B" id="img-65ae5e9d-27">
    <g transform="translate(11.69,78.71)" id="img-65ae5e9d-28">
      <g class="primitive">
        <text text-anchor="end" dy="0.35em">0.00</text>
      </g>
    </g>
    <g transform="translate(11.69,66.76)" id="img-65ae5e9d-29">
      <g class="primitive">
        <text text-anchor="end" dy="0.35em">0.01</text>
      </g>
    </g>
    <g transform="translate(11.69,54.81)" id="img-65ae5e9d-30">
      <g class="primitive">
        <text text-anchor="end" dy="0.35em">0.02</text>
      </g>
    </g>
    <g transform="translate(11.69,42.86)" id="img-65ae5e9d-31">
      <g class="primitive">
        <text text-anchor="end" dy="0.35em">0.03</text>
      </g>
    </g>
    <g transform="translate(11.69,30.9)" id="img-65ae5e9d-32">
      <g class="primitive">
        <text text-anchor="end" dy="0.35em">0.04</text>
      </g>
    </g>
    <g transform="translate(11.69,18.95)" id="img-65ae5e9d-33">
      <g class="primitive">
        <text text-anchor="end" dy="0.35em">0.05</text>
      </g>
    </g>
    <g transform="translate(11.69,7)" id="img-65ae5e9d-34">
      <g class="primitive">
        <text text-anchor="end" dy="0.35em">0.06</text>
      </g>
    </g>
  </g>
</g>
<defs>
  <clipPath id="img-65ae5e9d-4">
    <path d="M12.69,5 L 136.42 5 136.42 80.72 12.69 80.72" />
  </clipPath>
</defs>
</svg>
