<?xml version="1.0" encoding="UTF-8"?>
<svg xmlns="http://www.w3.org/2000/svg"
     xmlns:xlink="http://www.w3.org/1999/xlink"
     xmlns:gadfly="http://www.gadflyjl.org/ns"
     version="1.2"
     width="141.42mm" height="100mm" viewBox="0 0 141.42 100"
     stroke="none"
     fill="#000000"
     stroke-width="0.3"
     font-size="3.88"
>
<g class="plotroot xscalable yscalable" id="img-344283c9-1">
  <g font-size="3.88" font-family="'PT Sans','Helvetica Neue','Helvetica',sans-serif" fill="#564A55" stroke="#000000" stroke-opacity="0.000" id="img-344283c9-2">
    <g transform="translate(74.56,88.39)">
      <g class="primitive">
        <text text-anchor="middle" dy="0.6em">Parametric bootstrap estimates of σ</text>
      </g>
    </g>
  </g>
  <g class="guide xlabels" font-size="2.82" font-family="'PT Sans Caption','Helvetica Neue','Helvetica',sans-serif" fill="#6C606B" id="img-344283c9-3">
    <g transform="translate(14.69,81.72)">
      <g class="primitive">
        <text text-anchor="middle" dy="0.6em">0</text>
      </g>
    </g>
    <g transform="translate(44.63,81.72)">
      <g class="primitive">
        <text text-anchor="middle" dy="0.6em">25</text>
      </g>
    </g>
    <g transform="translate(74.56,81.72)">
      <g class="primitive">
        <text text-anchor="middle" dy="0.6em">50</text>
      </g>
    </g>
    <g transform="translate(104.49,81.72)">
      <g class="primitive">
        <text text-anchor="middle" dy="0.6em">75</text>
      </g>
    </g>
    <g transform="translate(134.42,81.72)">
      <g class="primitive">
        <text text-anchor="middle" dy="0.6em">100</text>
      </g>
    </g>
  </g>
  <g clip-path="url(#img-344283c9-4)">
    <g id="img-344283c9-5">
      <g pointer-events="visible" opacity="1" fill="#000000" fill-opacity="0.000" stroke="#000000" stroke-opacity="0.000" class="guide background" id="img-344283c9-6">
        <g transform="translate(74.56,42.86)">
          <path d="M-61.86,-37.86 L 61.86 -37.86 61.86 37.86 -61.86 37.86 z" class="primitive"/>
        </g>
      </g>
      <g class="guide ygridlines xfixed" stroke-dasharray="0.5,0.5" stroke-width="0.2" stroke="#D0D0E0" id="img-344283c9-7">
        <g transform="translate(74.56,78.71)">
          <path fill="none" d="M-61.86,0 L 61.86 0" class="primitive"/>
        </g>
        <g transform="translate(74.56,66.76)">
          <path fill="none" d="M-61.86,0 L 61.86 0" class="primitive"/>
        </g>
        <g transform="translate(74.56,54.81)">
          <path fill="none" d="M-61.86,0 L 61.86 0" class="primitive"/>
        </g>
        <g transform="translate(74.56,42.86)">
          <path fill="none" d="M-61.86,0 L 61.86 0" class="primitive"/>
        </g>
        <g transform="translate(74.56,30.9)">
          <path fill="none" d="M-61.86,0 L 61.86 0" class="primitive"/>
        </g>
        <g transform="translate(74.56,18.95)">
          <path fill="none" d="M-61.86,0 L 61.86 0" class="primitive"/>
        </g>
        <g transform="translate(74.56,7)">
          <path fill="none" d="M-61.86,0 L 61.86 0" class="primitive"/>
        </g>
      </g>
      <g class="guide xgridlines yfixed" stroke-dasharray="0.5,0.5" stroke-width="0.2" stroke="#D0D0E0" id="img-344283c9-8">
        <g transform="translate(14.69,42.86)">
          <path fill="none" d="M0,-37.86 L 0 37.86" class="primitive"/>
        </g>
        <g transform="translate(44.63,42.86)">
          <path fill="none" d="M0,-37.86 L 0 37.86" class="primitive"/>
        </g>
        <g transform="translate(74.56,42.86)">
          <path fill="none" d="M0,-37.86 L 0 37.86" class="primitive"/>
        </g>
        <g transform="translate(104.49,42.86)">
          <path fill="none" d="M0,-37.86 L 0 37.86" class="primitive"/>
        </g>
        <g transform="translate(134.42,42.86)">
          <path fill="none" d="M0,-37.86 L 0 37.86" class="primitive"/>
        </g>
      </g>
      <g class="plotpanel" id="img-344283c9-9">
        <metadata>
          <boundingbox value="12.693333333333328mm 5.0mm 123.72802290397618mm 75.715mm"/>
          <unitbox value="-1.6704527073031452 0.06167329010667224 103.3409054146063 -0.0633465802133445"/>
        </metadata>
        <g stroke-width="0.3" fill="#000000" fill-opacity="0.000" class="geometry" id="img-344283c9-10">
          <g class="color_LCHab{Float32}(70.0f0,60.0f0,240.0f0)" stroke-dasharray="none" stroke="#00BFFF" id="img-344283c9-11">
            <g transform="translate(77.39,60.46)">
              <path fill="none" d="M-39.03,18.26 L -38.73 18.26 -38.42 18.26 -38.12 18.26 -37.81 18.26 -37.5 18.26 -37.2 18.26 -36.89 18.25 -36.59 18.25 -36.28 18.24 -35.97 18.23 -35.67 18.22 -35.36 18.21 -35.05 18.2 -34.75 18.2 -34.44 18.2 -34.14 18.2 -33.83 18.21 -33.52 18.21 -33.22 18.21 -32.91 18.22 -32.61 18.22 -32.3 18.21 -31.99 18.21 -31.69 18.19 -31.38 18.17 -31.07 18.14 -30.77 18.1 -30.46 18.04 -30.16 17.98 -29.85 17.91 -29.54 17.84 -29.24 17.77 -28.93 17.7 -28.63 17.63 -28.32 17.55 -28.01 17.43 -27.71 17.29 -27.4 17.13 -27.09 16.96 -26.79 16.78 -26.48 16.6 -26.18 16.43 -25.87 16.25 -25.56 16.07 -25.26 15.87 -24.95 15.64 -24.65 15.37 -24.34 15.04 -24.03 14.67 -23.73 14.26 -23.42 13.82 -23.11 13.35 -22.81 12.84 -22.5 12.28 -22.2 11.67 -21.89 11.02 -21.58 10.34 -21.28 9.63 -20.97 8.88 -20.67 8.08 -20.36 7.24 -20.05 6.38 -19.75 5.51 -19.44 4.65 -19.13 3.8 -18.83 2.95 -18.52 2.05 -18.22 1.1 -17.91 0.04 -17.6 -1.13 -17.3 -2.42 -16.99 -3.82 -16.69 -5.29 -16.38 -6.78 -16.07 -8.23 -15.77 -9.67 -15.46 -11.11 -15.15 -12.58 -14.85 -14.1 -14.54 -15.64 -14.24 -17.16 -13.93 -18.65 -13.62 -20.13 -13.32 -21.64 -13.01 -23.24 -12.71 -24.94 -12.4 -26.7 -12.09 -28.48 -11.79 -30.19 -11.48 -31.79 -11.17 -33.25 -10.87 -34.57 -10.56 -35.79 -10.26 -36.9 -9.95 -37.94 -9.64 -38.93 -9.34 -39.91 -9.03 -40.87 -8.73 -41.82 -8.42 -42.73 -8.11 -43.62 -7.81 -44.48 -7.5 -45.3 -7.19 -46.06 -6.89 -46.75 -6.58 -47.37 -6.28 -47.94 -5.97 -48.44 -5.66 -48.88 -5.36 -49.25 -5.05 -49.55 -4.75 -49.74 -4.44 -49.79 -4.13 -49.67 -3.83 -49.37 -3.52 -48.92 -3.21 -48.38 -2.91 -47.81 -2.6 -47.24 -2.3 -46.64 -1.99 -45.95 -1.68 -45.12 -1.38 -44.11 -1.07 -42.94 -0.77 -41.67 -0.46 -40.41 -0.15 -39.2 0.15 -38.06 0.46 -36.96 0.77 -35.85 1.07 -34.7 1.38 -33.49 1.68 -32.27 1.99 -31.06 2.3 -29.88 2.6 -28.65 2.91 -27.31 3.21 -25.82 3.52 -24.21 3.83 -22.56 4.13 -20.99 4.44 -19.56 4.75 -18.28 5.05 -17.1 5.36 -15.94 5.66 -14.73 5.97 -13.44 6.28 -12.1 6.58 -10.75 6.89 -9.4 7.19 -8.09 7.5 -6.81 7.81 -5.56 8.11 -4.36 8.42 -3.19 8.73 -2.07 9.03 -1.02 9.34 -0.04 9.64 0.9 9.95 1.81 10.26 2.74 10.56 3.68 10.87 4.6 11.17 5.48 11.48 6.29 11.79 7.03 12.09 7.72 12.4 8.39 12.71 9.05 13.01 9.7 13.32 10.33 13.62 10.92 13.93 11.44 14.24 11.88 14.54 12.25 14.85 12.58 15.15 12.89 15.46 13.22 15.77 13.58 16.07 13.97 16.38 14.34 16.69 14.69 16.99 15 17.3 15.27 17.6 15.51 17.91 15.73 18.22 15.93 18.52 16.11 18.83 16.26 19.13 16.39 19.44 16.51 19.75 16.64 20.05 16.77 20.36 16.91 20.67 17.04 20.97 17.18 21.28 17.31 21.58 17.45 21.89 17.56 22.2 17.66 22.5 17.74 22.81 17.78 23.11 17.8 23.42 17.82 23.73 17.83 24.03 17.85 24.34 17.89 24.65 17.93 24.95 17.98 25.26 18.02 25.56 18.06 25.87 18.09 26.18 18.11 26.48 18.13 26.79 18.14 27.09 18.15 27.4 18.16 27.71 18.17 28.01 18.19 28.32 18.2 28.63 18.22 28.93 18.23 29.24 18.23 29.54 18.24 29.85 18.24 30.16 18.24 30.46 18.24 30.77 18.23 31.07 18.24 31.38 18.24 31.69 18.24 31.99 18.24 32.3 18.25 32.61 18.25 32.91 18.25 33.22 18.25 33.52 18.25 33.83 18.24 34.14 18.24 34.44 18.24 34.75 18.24 35.05 18.24 35.36 18.24 35.67 18.24 35.97 18.24 36.28 18.24 36.59 18.25 36.89 18.25 37.2 18.26 37.5 18.26 37.81 18.26 38.12 18.26 38.42 18.26 38.73 18.26 39.03 18.26" class="primitive"/>
            </g>
          </g>
        </g>
      </g>
    </g>
  </g>
  <g class="guide ylabels" font-size="2.82" font-family="'PT Sans Caption','Helvetica Neue','Helvetica',sans-serif" fill="#6C606B" id="img-344283c9-12">
    <g transform="translate(11.69,78.71)">
      <g class="primitive">
        <text text-anchor="end" dy="0.35em">0.00</text>
      </g>
    </g>
    <g transform="translate(11.69,66.76)">
      <g class="primitive">
        <text text-anchor="end" dy="0.35em">0.01</text>
      </g>
    </g>
    <g transform="translate(11.69,54.81)">
      <g class="primitive">
        <text text-anchor="end" dy="0.35em">0.02</text>
      </g>
    </g>
    <g transform="translate(11.69,42.86)">
      <g class="primitive">
        <text text-anchor="end" dy="0.35em">0.03</text>
      </g>
    </g>
    <g transform="translate(11.69,30.9)">
      <g class="primitive">
        <text text-anchor="end" dy="0.35em">0.04</text>
      </g>
    </g>
    <g transform="translate(11.69,18.95)">
      <g class="primitive">
        <text text-anchor="end" dy="0.35em">0.05</text>
      </g>
    </g>
    <g transform="translate(11.69,7)">
      <g class="primitive">
        <text text-anchor="end" dy="0.35em">0.06</text>
      </g>
    </g>
  </g>
</g>
<defs>
  <clipPath id="img-344283c9-4">
    <path d="M12.69,5 L 136.42 5 136.42 80.72 12.69 80.72" />
  </clipPath>
</defs>
</svg>
