<?xml version="1.0" encoding="UTF-8"?>
<svg xmlns="http://www.w3.org/2000/svg"
     xmlns:xlink="http://www.w3.org/1999/xlink"
     xmlns:gadfly="http://www.gadflyjl.org/ns"
     version="1.2"
     width="152.4mm" height="101.6mm" viewBox="0 0 152.4 101.6"
     stroke="none"
     fill="#000000"
     stroke-width="0.3"
     font-size="3.88"
>
<defs>
  <marker id="arrow" markerWidth="15" markerHeight="7" refX="5" refY="3.5" orient="auto" markerUnits="strokeWidth">
    <path d="M0,0 L15,3.5 L0,7 z" stroke="context-stroke" fill="context-stroke"/>
  </marker>
</defs>
<g class="plotroot xscalable yscalable" id="img-64d1b465-1">
  <g font-size="3.88" font-family="'PT Sans','Helvetica Neue','Helvetica',sans-serif" fill="#564A55" stroke="#000000" stroke-opacity="0.000" id="img-64d1b465-2">
    <g transform="translate(80.05,89.99)">
      <g class="primitive">
        <text text-anchor="middle" dy="0.6em">Parametric bootstrap estimates of σ₁</text>
      </g>
    </g>
  </g>
  <g class="guide xlabels" font-size="2.82" font-family="'PT Sans Caption','Helvetica Neue','Helvetica',sans-serif" fill="#6C606B" id="img-64d1b465-3">
    <g transform="translate(14.69,83.32)">
      <g class="primitive">
        <text text-anchor="middle" dy="0.6em">-50</text>
      </g>
    </g>
    <g transform="translate(58.26,83.32)">
      <g class="primitive">
        <text text-anchor="middle" dy="0.6em">0</text>
      </g>
    </g>
    <g transform="translate(101.83,83.32)">
      <g class="primitive">
        <text text-anchor="middle" dy="0.6em">50</text>
      </g>
    </g>
    <g transform="translate(145.4,83.32)">
      <g class="primitive">
        <text text-anchor="middle" dy="0.6em">100</text>
      </g>
    </g>
  </g>
  <g clip-path="url(#img-64d1b465-4)">
    <g id="img-64d1b465-5">
      <g pointer-events="visible" fill="#000000" fill-opacity="0.000" stroke="#000000" stroke-opacity="0.000" class="guide background" id="img-64d1b465-6">
        <g transform="translate(80.05,43.66)" id="img-64d1b465-7">
          <path d="M-67.35,-38.66 L 67.35 -38.66 67.35 38.66 -67.35 38.66 z" class="primitive"/>
        </g>
      </g>
      <g class="guide ygridlines xfixed" stroke-dasharray="0.5,0.5" stroke-width="0.2" stroke="#D0D0E0" id="img-64d1b465-8">
        <g transform="translate(80.05,80.32)" id="img-64d1b465-9">
          <path fill="none" d="M-67.35,0 L 67.35 0" class="primitive"/>
        </g>
        <g transform="translate(80.05,55.88)" id="img-64d1b465-10">
          <path fill="none" d="M-67.35,0 L 67.35 0" class="primitive"/>
        </g>
        <g transform="translate(80.05,31.44)" id="img-64d1b465-11">
          <path fill="none" d="M-67.35,0 L 67.35 0" class="primitive"/>
        </g>
        <g transform="translate(80.05,7)" id="img-64d1b465-12">
          <path fill="none" d="M-67.35,0 L 67.35 0" class="primitive"/>
        </g>
      </g>
      <g class="guide xgridlines yfixed" stroke-dasharray="0.5,0.5" stroke-width="0.2" stroke="#D0D0E0" id="img-64d1b465-13">
        <g transform="translate(14.69,43.66)" id="img-64d1b465-14">
          <path fill="none" d="M0,-38.66 L 0 38.66" class="primitive"/>
        </g>
        <g transform="translate(58.26,43.66)" id="img-64d1b465-15">
          <path fill="none" d="M0,-38.66 L 0 38.66" class="primitive"/>
        </g>
        <g transform="translate(101.83,43.66)" id="img-64d1b465-16">
          <path fill="none" d="M0,-38.66 L 0 38.66" class="primitive"/>
        </g>
        <g transform="translate(145.4,43.66)" id="img-64d1b465-17">
          <path fill="none" d="M0,-38.66 L 0 38.66" class="primitive"/>
        </g>
      </g>
      <g class="plotpanel" id="img-64d1b465-18">
        <metadata>
          <boundingbox value="12.693333333333328mm 5.0mm 134.70666666666665mm 77.315mm"/>
          <unitbox value="-52.295215750280526 0.030818386414785515 154.59043150056104 -0.03163677282957103"/>
        </metadata>
        <g stroke-width="0.3" fill="#000000" fill-opacity="0.000" class="geometry" id="img-64d1b465-19">
          <g class="color_LCHab{Float32}(70.0f0,60.0f0,240.0f0)" stroke-dasharray="none" stroke="#00BFFF" id="img-64d1b465-20">
            <g transform="translate(99.22,57.24)" id="img-64d1b465-21">
              <path fill="none" d="M-45.95,23.05 L -45.59 23 -45.23 22.87 -44.87 22.55 -44.51 21.84 -44.15 20.39 -43.79 17.73 -43.43 13.27 -43.07 6.51 -42.71 -2.72 -42.35 -13.93 -41.99 -25.84 -41.63 -36.52 -41.27 -43.86 -40.91 -46.27 -40.55 -43.25 -40.19 -35.62 -39.83 -25.16 -39.47 -14 -39.11 -3.94 -38.75 3.93 -38.38 9.32 -38.02 12.5 -37.66 14.03 -37.3 14.47 -36.94 14.27 -36.58 13.74 -36.22 13.04 -35.86 12.25 -35.5 11.43 -35.14 10.57 -34.78 9.7 -34.42 8.8 -34.06 7.88 -33.7 6.94 -33.34 5.97 -32.98 4.99 -32.62 4 -32.26 3 -31.9 1.98 -31.54 0.95 -31.18 -0.11 -30.82 -1.2 -30.46 -2.32 -30.1 -3.48 -29.73 -4.66 -29.37 -5.85 -29.01 -7.03 -28.65 -8.19 -28.29 -9.33 -27.93 -10.46 -27.57 -11.59 -27.21 -12.71 -26.85 -13.83 -26.49 -14.94 -26.13 -16.06 -25.77 -17.16 -25.41 -18.25 -25.05 -19.33 -24.69 -20.38 -24.33 -21.42 -23.97 -22.43 -23.61 -23.44 -23.25 -24.42 -22.89 -25.4 -22.53 -26.36 -22.17 -27.3 -21.81 -28.2 -21.45 -29.05 -21.08 -29.84 -20.72 -30.59 -20.36 -31.31 -20 -32.01 -19.64 -32.72 -19.28 -33.43 -18.92 -34.15 -18.56 -34.87 -18.2 -35.58 -17.84 -36.27 -17.48 -36.93 -17.12 -37.56 -16.76 -38.16 -16.4 -38.71 -16.04 -39.23 -15.68 -39.7 -15.32 -40.11 -14.96 -40.43 -14.6 -40.67 -14.24 -40.8 -13.88 -40.81 -13.52 -40.71 -13.16 -40.49 -12.79 -40.17 -12.43 -39.78 -12.07 -39.35 -11.71 -38.9 -11.35 -38.47 -10.99 -38.04 -10.63 -37.6 -10.27 -37.11 -9.91 -36.55 -9.55 -35.88 -9.19 -35.11 -8.83 -34.25 -8.47 -33.35 -8.11 -32.43 -7.75 -31.53 -7.39 -30.66 -7.03 -29.82 -6.67 -28.99 -6.31 -28.16 -5.95 -27.3 -5.59 -26.4 -5.23 -25.46 -4.87 -24.47 -4.51 -23.44 -4.14 -22.39 -3.78 -21.34 -3.42 -20.28 -3.06 -19.23 -2.7 -18.18 -2.34 -17.12 -1.98 -16.07 -1.62 -15.01 -1.26 -13.95 -0.9 -12.89 -0.54 -11.84 -0.18 -10.79 0.18 -9.76 0.54 -8.75 0.9 -7.77 1.26 -6.8 1.62 -5.86 1.98 -4.95 2.34 -4.05 2.7 -3.16 3.06 -2.28 3.42 -1.41 3.78 -0.53 4.14 0.33 4.51 1.19 4.87 2.05 5.23 2.91 5.59 3.76 5.95 4.61 6.31 5.45 6.67 6.27 7.03 7.08 7.39 7.86 7.75 8.62 8.11 9.35 8.47 10.05 8.83 10.73 9.19 11.39 9.55 12.03 9.91 12.64 10.27 13.23 10.63 13.78 10.99 14.28 11.35 14.74 11.71 15.15 12.07 15.52 12.43 15.87 12.79 16.21 13.16 16.53 13.52 16.85 13.88 17.17 14.24 17.48 14.6 17.78 14.96 18.08 15.32 18.36 15.68 18.63 16.04 18.89 16.4 19.14 16.76 19.4 17.12 19.64 17.48 19.88 17.84 20.11 18.2 20.32 18.56 20.5 18.92 20.67 19.28 20.82 19.64 20.96 20 21.08 20.36 21.2 20.72 21.32 21.08 21.43 21.45 21.54 21.81 21.65 22.17 21.75 22.53 21.85 22.89 21.94 23.25 22.03 23.61 22.1 23.97 22.17 24.33 22.22 24.69 22.27 25.05 22.32 25.41 22.36 25.77 22.41 26.13 22.45 26.49 22.5 26.85 22.55 27.21 22.6 27.57 22.66 27.93 22.71 28.29 22.75 28.65 22.79 29.01 22.82 29.37 22.84 29.73 22.87 30.1 22.89 30.46 22.91 30.82 22.93 31.18 22.94 31.54 22.96 31.9 22.96 32.26 22.97 32.62 22.97 32.98 22.98 33.34 22.98 33.7 22.98 34.06 22.98 34.42 22.98 34.78 22.99 35.14 23 35.5 23.01 35.86 23.01 36.22 23.02 36.58 23.03 36.94 23.04 37.3 23.04 37.66 23.05 38.02 23.05 38.38 23.06 38.75 23.06 39.11 23.06 39.47 23.06 39.83 23.06 40.19 23.07 40.55 23.07 40.91 23.07 41.27 23.07 41.63 23.07 41.99 23.07 42.35 23.08 42.71 23.08 43.07 23.08 43.43 23.08 43.79 23.08 44.15 23.08 44.51 23.08 44.87 23.08 45.23 23.08 45.59 23.08 45.95 23.07" class="primitive"/>
            </g>
          </g>
        </g>
      </g>
    </g>
  </g>
  <g class="guide ylabels" font-size="2.82" font-family="'PT Sans Caption','Helvetica Neue','Helvetica',sans-serif" fill="#6C606B" id="img-64d1b465-22">
    <g transform="translate(11.69,80.32)" id="img-64d1b465-23">
      <g class="primitive">
        <text text-anchor="end" dy="0.35em">0.00</text>
      </g>
    </g>
    <g transform="translate(11.69,55.88)" id="img-64d1b465-24">
      <g class="primitive">
        <text text-anchor="end" dy="0.35em">0.01</text>
      </g>
    </g>
    <g transform="translate(11.69,31.44)" id="img-64d1b465-25">
      <g class="primitive">
        <text text-anchor="end" dy="0.35em">0.02</text>
      </g>
    </g>
    <g transform="translate(11.69,7)" id="img-64d1b465-26">
      <g class="primitive">
        <text text-anchor="end" dy="0.35em">0.03</text>
      </g>
    </g>
  </g>
</g>
<defs>
  <clipPath id="img-64d1b465-4">
    <path d="M12.69,5 L 147.4 5 147.4 82.32 12.69 82.32" />
  </clipPath>
</defs>
</svg>
