<?xml version="1.0" encoding="UTF-8"?>
<svg xmlns="http://www.w3.org/2000/svg"
     xmlns:xlink="http://www.w3.org/1999/xlink"
     xmlns:gadfly="http://www.gadflyjl.org/ns"
     version="1.2"
     width="152.4mm" height="101.6mm" viewBox="0 0 152.4 101.6"
     stroke="none"
     fill="#000000"
     stroke-width="0.3"
     font-size="3.88"
>
<defs>
  <marker id="arrow" markerWidth="15" markerHeight="7" refX="5" refY="3.5" orient="auto" markerUnits="strokeWidth">
    <path d="M0,0 L15,3.5 L0,7 z" stroke="context-stroke" fill="context-stroke"/>
  </marker>
</defs>
<g class="plotroot xscalable yscalable" id="img-96ccbad3-1">
  <g font-size="3.88" font-family="'PT Sans','Helvetica Neue','Helvetica',sans-serif" fill="#564A55" stroke="#000000" stroke-opacity="0.000" id="img-96ccbad3-2">
    <g transform="translate(79.21,89.99)">
      <g class="primitive">
        <text text-anchor="middle" dy="0.6em">Parametric bootstrap estimates of θ₁</text>
      </g>
    </g>
  </g>
  <g class="guide xlabels" font-size="2.82" font-family="'PT Sans Caption','Helvetica Neue','Helvetica',sans-serif" fill="#6C606B" id="img-96ccbad3-3">
    <g transform="translate(13.02,83.32)">
      <g class="primitive">
        <text text-anchor="middle" dy="0.6em">-1</text>
      </g>
    </g>
    <g transform="translate(39.5,83.32)">
      <g class="primitive">
        <text text-anchor="middle" dy="0.6em">0</text>
      </g>
    </g>
    <g transform="translate(65.97,83.32)">
      <g class="primitive">
        <text text-anchor="middle" dy="0.6em">1</text>
      </g>
    </g>
    <g transform="translate(92.45,83.32)">
      <g class="primitive">
        <text text-anchor="middle" dy="0.6em">2</text>
      </g>
    </g>
    <g transform="translate(118.92,83.32)">
      <g class="primitive">
        <text text-anchor="middle" dy="0.6em">3</text>
      </g>
    </g>
    <g transform="translate(145.4,83.32)">
      <g class="primitive">
        <text text-anchor="middle" dy="0.6em">4</text>
      </g>
    </g>
  </g>
  <g clip-path="url(#img-96ccbad3-4)">
    <g id="img-96ccbad3-5">
      <g pointer-events="visible" fill="#000000" fill-opacity="0.000" stroke="#000000" stroke-opacity="0.000" class="guide background" id="img-96ccbad3-6">
        <g transform="translate(79.21,43.66)" id="img-96ccbad3-7">
          <path d="M-68.19,-38.66 L 68.19 -38.66 68.19 38.66 -68.19 38.66 z" class="primitive"/>
        </g>
      </g>
      <g class="guide ygridlines xfixed" stroke-dasharray="0.5,0.5" stroke-width="0.2" stroke="#D0D0E0" id="img-96ccbad3-8">
        <g transform="translate(79.21,80.32)" id="img-96ccbad3-9">
          <path fill="none" d="M-68.19,0 L 68.19 0" class="primitive"/>
        </g>
        <g transform="translate(79.21,55.88)" id="img-96ccbad3-10">
          <path fill="none" d="M-68.19,0 L 68.19 0" class="primitive"/>
        </g>
        <g transform="translate(79.21,31.44)" id="img-96ccbad3-11">
          <path fill="none" d="M-68.19,0 L 68.19 0" class="primitive"/>
        </g>
        <g transform="translate(79.21,7)" id="img-96ccbad3-12">
          <path fill="none" d="M-68.19,0 L 68.19 0" class="primitive"/>
        </g>
      </g>
      <g class="guide xgridlines yfixed" stroke-dasharray="0.5,0.5" stroke-width="0.2" stroke="#D0D0E0" id="img-96ccbad3-13">
        <g transform="translate(13.02,43.66)" id="img-96ccbad3-14">
          <path fill="none" d="M0,-38.66 L 0 38.66" class="primitive"/>
        </g>
        <g transform="translate(39.5,43.66)" id="img-96ccbad3-15">
          <path fill="none" d="M0,-38.66 L 0 38.66" class="primitive"/>
        </g>
        <g transform="translate(65.97,43.66)" id="img-96ccbad3-16">
          <path fill="none" d="M0,-38.66 L 0 38.66" class="primitive"/>
        </g>
        <g transform="translate(92.45,43.66)" id="img-96ccbad3-17">
          <path fill="none" d="M0,-38.66 L 0 38.66" class="primitive"/>
        </g>
        <g transform="translate(118.92,43.66)" id="img-96ccbad3-18">
          <path fill="none" d="M0,-38.66 L 0 38.66" class="primitive"/>
        </g>
        <g transform="translate(145.4,43.66)" id="img-96ccbad3-19">
          <path fill="none" d="M0,-38.66 L 0 38.66" class="primitive"/>
        </g>
      </g>
      <g class="plotpanel" id="img-96ccbad3-20">
        <metadata>
          <boundingbox value="11.02000000000001mm 5.0mm 136.38mm 77.315mm"/>
          <unitbox value="-1.0755401117993655 1.5409193207392757 5.151080223598731 -1.5818386414785515"/>
        </metadata>
        <g stroke-width="0.3" fill="#000000" fill-opacity="0.000" class="geometry" id="img-96ccbad3-21">
          <g class="color_LCHab{Float32}(70.0f0,60.0f0,240.0f0)" stroke-dasharray="none" stroke="#00BFFF" id="img-96ccbad3-22">
            <g transform="translate(79.12,65.32)" id="img-96ccbad3-23">
              <path fill="none" d="M-42.97,14.98 L -42.63 14.89 -42.29 14.59 -41.96 13.65 -41.62 11.24 -41.28 6.05 -40.95 -3.18 -40.61 -16.49 -40.27 -31.53 -39.94 -43.66 -39.6 -48.2 -39.26 -43.35 -38.92 -31.52 -38.59 -17.64 -38.25 -6.1 -37.91 1.19 -37.58 4.56 -37.24 5.39 -36.9 4.91 -36.57 3.9 -36.23 2.69 -35.89 1.41 -35.55 0.1 -35.22 -1.23 -34.88 -2.6 -34.54 -4.02 -34.21 -5.51 -33.87 -7.1 -33.53 -8.78 -33.2 -10.52 -32.86 -12.28 -32.52 -14.03 -32.18 -15.75 -31.85 -17.45 -31.51 -19.09 -31.17 -20.65 -30.84 -22.11 -30.5 -23.47 -30.16 -24.77 -29.83 -26.07 -29.49 -27.4 -29.15 -28.76 -28.81 -30.09 -28.48 -31.35 -28.14 -32.49 -27.8 -33.54 -27.47 -34.5 -27.13 -35.42 -26.79 -36.31 -26.46 -37.18 -26.12 -38.04 -25.78 -38.89 -25.44 -39.7 -25.11 -40.44 -24.77 -41.04 -24.43 -41.48 -24.1 -41.73 -23.76 -41.85 -23.42 -41.87 -23.08 -41.79 -22.75 -41.61 -22.41 -41.3 -22.07 -40.87 -21.74 -40.36 -21.4 -39.82 -21.06 -39.3 -20.73 -38.82 -20.39 -38.35 -20.05 -37.86 -19.71 -37.28 -19.38 -36.54 -19.04 -35.61 -18.7 -34.49 -18.37 -33.22 -18.03 -31.87 -17.69 -30.49 -17.36 -29.13 -17.02 -27.8 -16.68 -26.5 -16.34 -25.23 -16.01 -23.98 -15.67 -22.74 -15.33 -21.49 -15 -20.2 -14.66 -18.86 -14.32 -17.49 -13.99 -16.11 -13.65 -14.76 -13.31 -13.44 -12.97 -12.18 -12.64 -10.98 -12.3 -9.83 -11.96 -8.72 -11.63 -7.63 -11.29 -6.56 -10.95 -5.54 -10.62 -4.61 -10.28 -3.75 -9.94 -2.95 -9.6 -2.17 -9.27 -1.39 -8.93 -0.59 -8.59 0.22 -8.26 1.04 -7.92 1.86 -7.58 2.66 -7.25 3.42 -6.91 4.11 -6.57 4.72 -6.23 5.27 -5.9 5.76 -5.56 6.21 -5.22 6.64 -4.89 7.06 -4.55 7.48 -4.21 7.91 -3.88 8.35 -3.54 8.79 -3.2 9.22 -2.86 9.63 -2.53 10 -2.19 10.32 -1.85 10.61 -1.52 10.87 -1.18 11.12 -0.84 11.38 -0.51 11.63 -0.17 11.87 0.17 12.09 0.51 12.29 0.84 12.47 1.18 12.63 1.52 12.78 1.85 12.92 2.19 13.04 2.53 13.14 2.86 13.23 3.2 13.32 3.54 13.43 3.88 13.55 4.21 13.67 4.55 13.77 4.89 13.85 5.22 13.92 5.56 13.98 5.9 14.04 6.23 14.11 6.57 14.18 6.91 14.24 7.25 14.3 7.58 14.35 7.92 14.39 8.26 14.42 8.59 14.46 8.93 14.5 9.27 14.54 9.6 14.58 9.94 14.62 10.28 14.64 10.62 14.66 10.95 14.68 11.29 14.69 11.63 14.7 11.96 14.72 12.3 14.73 12.64 14.75 12.97 14.77 13.31 14.79 13.65 14.81 13.99 14.83 14.32 14.84 14.66 14.86 15 14.87 15.33 14.88 15.67 14.89 16.01 14.9 16.34 14.92 16.68 14.93 17.02 14.94 17.36 14.95 17.69 14.95 18.03 14.95 18.37 14.95 18.7 14.95 19.04 14.95 19.38 14.95 19.71 14.95 20.05 14.95 20.39 14.96 20.73 14.97 21.06 14.98 21.4 14.99 21.74 14.99 22.07 14.99 22.41 14.99 22.75 14.99 23.08 14.98 23.42 14.98 23.76 14.98 24.1 14.98 24.43 14.98 24.77 14.98 25.11 14.99 25.44 14.99 25.78 14.99 26.12 15 26.46 15 26.79 15 27.13 15 27.47 15 27.8 15 28.14 15 28.48 15 28.81 15 29.15 15 29.49 15 29.83 15 30.16 15 30.5 15 30.84 15 31.17 15 31.51 15 31.85 15 32.18 15 32.52 15 32.86 15 33.2 15 33.53 15 33.87 15 34.21 15 34.54 15 34.88 15 35.22 15 35.55 14.99 35.89 14.99 36.23 14.99 36.57 14.99 36.9 15 37.24 15 37.58 15 37.91 15 38.25 15 38.59 15 38.92 15 39.26 14.99 39.6 14.99 39.94 14.99 40.27 14.99 40.61 15 40.95 15 41.28 15 41.62 15 41.96 15 42.29 15 42.63 15 42.97 14.99" class="primitive"/>
            </g>
          </g>
        </g>
      </g>
    </g>
  </g>
  <g class="guide ylabels" font-size="2.82" font-family="'PT Sans Caption','Helvetica Neue','Helvetica',sans-serif" fill="#6C606B" id="img-96ccbad3-24">
    <g transform="translate(10.02,80.32)" id="img-96ccbad3-25">
      <g class="primitive">
        <text text-anchor="end" dy="0.35em">0.0</text>
      </g>
    </g>
    <g transform="translate(10.02,55.88)" id="img-96ccbad3-26">
      <g class="primitive">
        <text text-anchor="end" dy="0.35em">0.5</text>
      </g>
    </g>
    <g transform="translate(10.02,31.44)" id="img-96ccbad3-27">
      <g class="primitive">
        <text text-anchor="end" dy="0.35em">1.0</text>
      </g>
    </g>
    <g transform="translate(10.02,7)" id="img-96ccbad3-28">
      <g class="primitive">
        <text text-anchor="end" dy="0.35em">1.5</text>
      </g>
    </g>
  </g>
</g>
<defs>
  <clipPath id="img-96ccbad3-4">
    <path d="M11.02,5 L 147.4 5 147.4 82.32 11.02 82.32" />
  </clipPath>
</defs>
</svg>
