<?xml version="1.0" encoding="UTF-8"?>
<svg xmlns="http://www.w3.org/2000/svg"
     xmlns:xlink="http://www.w3.org/1999/xlink"
     xmlns:gadfly="http://www.gadflyjl.org/ns"
     version="1.2"
     width="152.4mm" height="101.6mm" viewBox="0 0 152.4 101.6"
     stroke="none"
     fill="#000000"
     stroke-width="0.3"
     font-size="3.88"
>
<defs>
  <marker id="arrow" markerWidth="15" markerHeight="7" refX="5" refY="3.5" orient="auto" markerUnits="strokeWidth">
    <path d="M0,0 L15,3.5 L0,7 z" stroke="context-stroke" fill="context-stroke"/>
  </marker>
</defs>
<g class="plotroot xscalable yscalable" id="img-8868d4c3-1">
  <g font-size="3.88" font-family="'PT Sans','Helvetica Neue','Helvetica',sans-serif" fill="#564A55" stroke="#000000" stroke-opacity="0.000" id="img-8868d4c3-2">
    <g transform="translate(83.24,89.99)">
      <g class="primitive">
        <text text-anchor="middle" dy="0.6em">Scaled and shifted u₃</text>
      </g>
    </g>
  </g>
  <g class="guide xlabels" font-size="2.82" font-family="'PT Sans Caption','Helvetica Neue','Helvetica',sans-serif" fill="#6C606B" id="img-8868d4c3-3">
    <g transform="translate(21.07,83.32)">
      <g class="primitive">
        <text text-anchor="middle" dy="0.6em">-5</text>
      </g>
    </g>
    <g transform="translate(83.24,83.32)">
      <g class="primitive">
        <text text-anchor="middle" dy="0.6em">0</text>
      </g>
    </g>
    <g transform="translate(145.4,83.32)">
      <g class="primitive">
        <text text-anchor="middle" dy="0.6em">5</text>
      </g>
    </g>
  </g>
  <g clip-path="url(#img-8868d4c3-4)">
    <g id="img-8868d4c3-5">
      <g pointer-events="visible" fill="#000000" fill-opacity="0.000" stroke="#000000" stroke-opacity="0.000" class="guide background" id="img-8868d4c3-6">
        <g transform="translate(83.24,43.66)" id="img-8868d4c3-7">
          <path d="M-64.16,-38.66 L 64.16 -38.66 64.16 38.66 -64.16 38.66 z" class="primitive"/>
        </g>
      </g>
      <g class="guide ygridlines xfixed" stroke-dasharray="0.5,0.5" stroke-width="0.2" stroke="#D0D0E0" id="img-8868d4c3-8">
        <g transform="translate(83.24,80.31)" id="img-8868d4c3-9">
          <path fill="none" d="M-64.16,0 L 64.16 0" class="primitive"/>
        </g>
        <g transform="translate(83.24,61.99)" id="img-8868d4c3-10">
          <path fill="none" d="M-64.16,0 L 64.16 0" class="primitive"/>
        </g>
        <g transform="translate(83.24,43.66)" id="img-8868d4c3-11">
          <path fill="none" d="M-64.16,0 L 64.16 0" class="primitive"/>
        </g>
        <g transform="translate(83.24,25.33)" id="img-8868d4c3-12">
          <path fill="none" d="M-64.16,0 L 64.16 0" class="primitive"/>
        </g>
        <g transform="translate(83.24,7)" id="img-8868d4c3-13">
          <path fill="none" d="M-64.16,0 L 64.16 0" class="primitive"/>
        </g>
      </g>
      <g class="guide xgridlines yfixed" stroke-dasharray="0.5,0.5" stroke-width="0.2" stroke="#D0D0E0" id="img-8868d4c3-14">
        <g transform="translate(21.07,43.66)" id="img-8868d4c3-15">
          <path fill="none" d="M0,-38.66 L 0 38.66" class="primitive"/>
        </g>
        <g transform="translate(83.24,43.66)" id="img-8868d4c3-16">
          <path fill="none" d="M0,-38.66 L 0 38.66" class="primitive"/>
        </g>
        <g transform="translate(145.4,43.66)" id="img-8868d4c3-17">
          <path fill="none" d="M0,-38.66 L 0 38.66" class="primitive"/>
        </g>
      </g>
      <g class="plotpanel" id="img-8868d4c3-18">
        <metadata>
          <boundingbox value="19.071666666666687mm 5.0mm 128.32833333333332mm 77.315mm"/>
          <unitbox value="-5.160864377924045 31.091181886380685 10.32172875584809 -42.18236377276138"/>
        </metadata>
        <g stroke-width="0.3" fill="#000000" fill-opacity="0.000" class="geometry" id="img-8868d4c3-19">
          <g class="color_LCHab{Float32}(70.0f0,60.0f0,240.0f0)" stroke-dasharray="none" stroke="#00BFFF" id="img-8868d4c3-20">
            <g transform="translate(83.24,46.64)" id="img-8868d4c3-21">
              <path fill="none" d="M-62.16,-30.02 L -61.39 -28.91 -60.61 -27.8 -59.83 -26.71 -59.06 -25.64 -58.28 -24.58 -57.5 -23.53 -56.72 -22.49 -55.95 -21.47 -55.17 -20.47 -54.39 -19.47 -53.62 -18.49 -52.84 -17.53 -52.06 -16.57 -51.29 -15.63 -50.51 -14.71 -49.73 -13.8 -48.95 -12.9 -48.18 -12.02 -47.4 -11.15 -46.62 -10.29 -45.85 -9.45 -45.07 -8.62 -44.29 -7.8 -43.51 -7 -42.74 -6.22 -41.96 -5.44 -41.18 -4.68 -40.41 -3.94 -39.63 -3.21 -38.85 -2.49 -38.08 -1.79 -37.3 -1.1 -36.52 -0.42 -35.74 0.24 -34.97 0.89 -34.19 1.52 -33.41 2.14 -32.64 2.74 -31.86 3.33 -31.08 3.91 -30.31 4.47 -29.53 5.02 -28.75 5.56 -27.97 6.08 -27.2 6.59 -26.42 7.08 -25.64 7.56 -24.87 8.02 -24.09 8.47 -23.31 8.91 -22.53 9.33 -21.76 9.73 -20.98 10.13 -20.2 10.51 -19.43 10.87 -18.65 11.22 -17.87 11.56 -17.1 11.88 -16.32 12.19 -15.54 12.48 -14.76 12.76 -13.99 13.02 -13.21 13.27 -12.43 13.51 -11.66 13.73 -10.88 13.94 -10.1 14.13 -9.32 14.31 -8.55 14.48 -7.77 14.63 -6.99 14.76 -6.22 14.89 -5.44 14.99 -4.66 15.09 -3.89 15.16 -3.11 15.23 -2.33 15.28 -1.55 15.31 -0.78 15.34 0 15.34 0.78 15.34 1.55 15.31 2.33 15.28 3.11 15.23 3.89 15.16 4.66 15.09 5.44 14.99 6.22 14.89 6.99 14.76 7.77 14.63 8.55 14.48 9.32 14.31 10.1 14.13 10.88 13.94 11.66 13.73 12.43 13.51 13.21 13.28 13.99 13.03 14.76 12.76 15.54 12.48 16.32 12.19 17.1 11.88 17.87 11.56 18.65 11.23 19.43 10.88 20.2 10.52 20.98 10.14 21.76 9.75 22.53 9.34 23.31 8.92 24.09 8.49 24.87 8.04 25.64 7.58 26.42 7.1 27.2 6.61 27.97 6.1 28.75 5.58 29.53 5.05 30.31 4.51 31.08 3.94 31.86 3.37 32.64 2.78 33.41 2.18 34.19 1.56 34.97 0.93 35.74 0.29 36.52 -0.37 37.3 -1.04 38.08 -1.73 38.85 -2.43 39.63 -3.14 40.41 -3.87 41.18 -4.61 41.96 -5.37 42.74 -6.14 43.51 -6.92 44.29 -7.72 45.07 -8.53 45.85 -9.35 46.62 -10.19 47.4 -11.04 48.18 -11.9 48.95 -12.78 49.73 -13.68 50.51 -14.58 51.29 -15.5 52.06 -16.44 52.84 -17.38 53.62 -18.34 54.39 -19.32 55.17 -20.31 55.95 -21.31 56.72 -22.32 57.5 -23.35 58.28 -24.39 59.06 -25.45 59.83 -26.52 60.61 -27.6 61.39 -28.7 62.16 -29.81" class="primitive"/>
            </g>
          </g>
        </g>
      </g>
    </g>
  </g>
  <g class="guide ylabels" font-size="2.82" font-family="'PT Sans Caption','Helvetica Neue','Helvetica',sans-serif" fill="#6C606B" id="img-8868d4c3-22">
    <g transform="translate(18.07,80.31)" id="img-8868d4c3-23">
      <g class="primitive">
        <text text-anchor="end" dy="0.35em">-10</text>
      </g>
    </g>
    <g transform="translate(18.07,61.99)" id="img-8868d4c3-24">
      <g class="primitive">
        <text text-anchor="end" dy="0.35em">0</text>
      </g>
    </g>
    <g transform="translate(18.07,43.66)" id="img-8868d4c3-25">
      <g class="primitive">
        <text text-anchor="end" dy="0.35em">10</text>
      </g>
    </g>
    <g transform="translate(18.07,25.33)" id="img-8868d4c3-26">
      <g class="primitive">
        <text text-anchor="end" dy="0.35em">20</text>
      </g>
    </g>
    <g transform="translate(18.07,7)" id="img-8868d4c3-27">
      <g class="primitive">
        <text text-anchor="end" dy="0.35em">30</text>
      </g>
    </g>
  </g>
  <g font-size="3.88" font-family="'PT Sans','Helvetica Neue','Helvetica',sans-serif" fill="#564A55" stroke="#000000" stroke-opacity="0.000" id="img-8868d4c3-28">
    <g transform="translate(8.81,41.66)" id="img-8868d4c3-29">
      <g class="primitive">
        <text text-anchor="middle" dy="0.35em" transform="rotate(-90,0, 2)">Shifted deviance contribution</text>
      </g>
    </g>
  </g>
</g>
<defs>
  <clipPath id="img-8868d4c3-4">
    <path d="M19.07,5 L 147.4 5 147.4 82.32 19.07 82.32" />
  </clipPath>
</defs>
</svg>
