<?xml version="1.0" encoding="UTF-8"?>
<svg xmlns="http://www.w3.org/2000/svg"
     xmlns:xlink="http://www.w3.org/1999/xlink"
     xmlns:gadfly="http://www.gadflyjl.org/ns"
     version="1.2"
     width="141.42mm" height="100mm" viewBox="0 0 141.42 100"
     stroke="none"
     fill="#000000"
     stroke-width="0.3"
     font-size="3.88"
>
<g class="plotroot xscalable" id="img-deaaeafd-1">
  <g font-size="3.88" font-family="'PT Sans','Helvetica Neue','Helvetica',sans-serif" fill="#564A55" stroke="#000000" stroke-opacity="0.000" id="img-deaaeafd-2">
    <g transform="translate(76.55,88.39)">
      <g class="primitive">
        <text text-anchor="middle" dy="0.6em">Centered age (yr)</text>
      </g>
    </g>
  </g>
  <g class="guide xlabels" font-size="2.82" font-family="'PT Sans Caption','Helvetica Neue','Helvetica',sans-serif" fill="#6C606B" id="img-deaaeafd-3">
    <g transform="translate(18.69,81.72)">
      <g class="primitive">
        <text text-anchor="middle" dy="0.6em">-20</text>
      </g>
    </g>
    <g transform="translate(47.62,81.72)">
      <g class="primitive">
        <text text-anchor="middle" dy="0.6em">-10</text>
      </g>
    </g>
    <g transform="translate(76.55,81.72)">
      <g class="primitive">
        <text text-anchor="middle" dy="0.6em">0</text>
      </g>
    </g>
    <g transform="translate(105.49,81.72)">
      <g class="primitive">
        <text text-anchor="middle" dy="0.6em">10</text>
      </g>
    </g>
    <g transform="translate(134.42,81.72)">
      <g class="primitive">
        <text text-anchor="middle" dy="0.6em">20</text>
      </g>
    </g>
  </g>
  <g clip-path="url(#img-deaaeafd-4)">
    <g id="img-deaaeafd-5">
      <g pointer-events="visible" opacity="0" fill="#000000" fill-opacity="0.000" stroke="#000000" stroke-opacity="0.000" class="guide background" id="img-deaaeafd-6">
        <g transform="translate(76.55,42.86)">
          <path d="M-59.87,-37.86 L 59.87 -37.86 59.87 37.86 -59.87 37.86 z" class="primitive"/>
        </g>
      </g>
      <g class="guide ygridlines xfixed" stroke-dasharray="0.5,0.5" stroke-width="0.2" stroke="#D0D0E0" id="img-deaaeafd-7">
        <g transform="translate(76.55,42.86)">
          <path fill="none" d="M-59.87,0 L 59.87 0" class="primitive"/>
        </g>
      </g>
      <g class="guide xgridlines yfixed" stroke-dasharray="0.5,0.5" stroke-width="0.2" stroke="#D0D0E0" id="img-deaaeafd-8">
        <g transform="translate(18.69,42.86)">
          <path fill="none" d="M0,-37.86 L 0 37.86" class="primitive"/>
        </g>
        <g transform="translate(47.62,42.86)">
          <path fill="none" d="M0,-37.86 L 0 37.86" class="primitive"/>
        </g>
        <g transform="translate(76.55,42.86)">
          <path fill="none" d="M0,-37.86 L 0 37.86" class="primitive"/>
        </g>
        <g transform="translate(105.49,42.86)">
          <path fill="none" d="M0,-37.86 L 0 37.86" class="primitive"/>
        </g>
        <g transform="translate(134.42,42.86)">
          <path fill="none" d="M0,-37.86 L 0 37.86" class="primitive"/>
        </g>
      </g>
      <g class="plotpanel" id="img-deaaeafd-9">
        <metadata>
          <boundingbox value="16.685000000000002mm 5.0mm 119.73635623730951mm 75.715mm"/>
          <unitbox value="-20.691226185106135 2.5 41.38245237021227 -2.0"/>
        </metadata>
        <g stroke-width="0.3" fill="#000000" fill-opacity="0.000" class="geometry" id="img-deaaeafd-10">
          <g class="color_LCHab{Float32}(70.0f0,60.0f0,240.0f0)" stroke-dasharray="none" stroke="#00BFFF" id="img-deaaeafd-11">
            <g transform="translate(85,47.08)">
              <path fill="none" d="M-47.68,7.85 L -47.55 7.79 -47.42 7.73 -47.3 7.67 -47.17 7.61 -47.04 7.55 -46.91 7.49 -46.79 7.43 -46.66 7.38 -46.53 7.32 -46.4 7.26 -46.28 7.2 -46.15 7.14 -46.02 7.08 -45.9 7.03 -45.77 6.97 -45.64 6.91 -45.51 6.85 -45.39 6.79 -45.26 6.74 -45.13 6.68 -45 6.62 -44.88 6.56 -44.75 6.51 -44.62 6.45 -44.49 6.39 -44.37 6.34 -44.24 6.28 -44.11 6.22 -43.99 6.17 -43.86 6.11 -43.73 6.06 -43.6 6 -43.48 5.95 -43.35 5.89 -43.22 5.83 -43.09 5.78 -42.97 5.72 -42.84 5.67 -42.71 5.61 -42.59 5.56 -42.46 5.5 -42.33 5.45 -42.2 5.4 -42.08 5.34 -41.95 5.29 -41.82 5.23 -41.69 5.18 -41.57 5.12 -41.44 5.07 -41.31 5.02 -41.18 4.96 -41.06 4.91 -40.93 4.86 -40.8 4.8 -40.68 4.75 -40.55 4.7 -40.42 4.65 -40.29 4.59 -40.17 4.54 -40.04 4.49 -39.91 4.44 -39.78 4.38 -39.66 4.33 -39.53 4.28 -39.4 4.23 -39.28 4.18 -39.15 4.12 -39.02 4.07 -38.89 4.02 -38.77 3.97 -38.64 3.92 -38.51 3.87 -38.38 3.82 -38.26 3.77 -38.13 3.71 -38 3.66 -37.87 3.61 -37.75 3.56 -37.62 3.51 -37.49 3.46 -37.37 3.41 -37.24 3.36 -37.11 3.31 -36.98 3.26 -36.86 3.21 -36.73 3.16 -36.6 3.11 -36.47 3.06 -36.35 3.01 -36.22 2.97 -36.09 2.92 -35.97 2.87 -35.84 2.82 -35.71 2.77 -35.58 2.72 -35.46 2.67 -35.33 2.62 -35.2 2.57 -35.07 2.53 -34.95 2.48 -34.82 2.43 -34.69 2.38 -34.56 2.33 -34.44 2.28 -34.31 2.24 -34.18 2.19 -34.06 2.14 -33.93 2.09 -33.8 2.05 -33.67 2 -33.55 1.95 -33.42 1.91 -33.29 1.86 -33.16 1.81 -33.04 1.76 -32.91 1.72 -32.78 1.67 -32.66 1.62 -32.53 1.58 -32.4 1.53 -32.27 1.48 -32.15 1.44 -32.02 1.39 -31.89 1.35 -31.76 1.3 -31.64 1.25 -31.51 1.21 -31.38 1.16 -31.25 1.12 -31.13 1.07 -31 1.03 -30.87 0.98 -30.75 0.94 -30.62 0.89 -30.49 0.85 -30.36 0.8 -30.24 0.76 -30.11 0.71 -29.98 0.67 -29.85 0.62 -29.73 0.58 -29.6 0.54 -29.47 0.49 -29.34 0.45 -29.22 0.4 -29.09 0.36 -28.96 0.32 -28.84 0.27 -28.71 0.23 -28.58 0.19 -28.45 0.14 -28.33 0.1 -28.2 0.06 -28.07 0.01 -27.94 -0.03 -27.82 -0.07 -27.69 -0.11 -27.56 -0.15 -27.44 -0.2 -27.31 -0.24 -27.18 -0.28 -27.05 -0.32 -26.93 -0.36 -26.8 -0.4 -26.67 -0.44 -26.54 -0.49 -26.42 -0.53 -26.29 -0.57 -26.16 -0.61 -26.03 -0.65 -25.91 -0.69 -25.78 -0.73 -25.65 -0.77 -25.53 -0.81 -25.4 -0.85 -25.27 -0.89 -25.14 -0.93 -25.02 -0.96 -24.89 -1 -24.76 -1.04 -24.63 -1.08 -24.51 -1.12 -24.38 -1.16 -24.25 -1.19 -24.13 -1.23 -24 -1.27 -23.87 -1.31 -23.74 -1.34 -23.62 -1.38 -23.49 -1.42 -23.36 -1.46 -23.23 -1.49 -23.11 -1.53 -22.98 -1.56 -22.85 -1.6 -22.72 -1.64 -22.6 -1.67 -22.47 -1.71 -22.34 -1.74 -22.22 -1.78 -22.09 -1.81 -21.96 -1.85 -21.83 -1.88 -21.71 -1.92 -21.58 -1.95 -21.45 -1.99 -21.32 -2.03 -21.2 -2.06 -21.07 -2.1 -20.94 -2.13 -20.82 -2.17 -20.69 -2.21 -20.56 -2.24 -20.43 -2.28 -20.31 -2.31 -20.18 -2.35 -20.05 -2.38 -19.92 -2.42 -19.8 -2.45 -19.67 -2.49 -19.54 -2.52 -19.41 -2.56 -19.29 -2.59 -19.16 -2.63 -19.03 -2.66 -18.91 -2.7 -18.78 -2.73 -18.65 -2.77 -18.52 -2.8 -18.4 -2.84 -18.27 -2.87 -18.14 -2.91 -18.01 -2.94 -17.89 -2.98 -17.76 -3.02 -17.63 -3.05 -17.51 -3.09 -17.38 -3.12 -17.25 -3.15 -17.12 -3.19 -17 -3.22 -16.87 -3.26 -16.74 -3.29 -16.61 -3.32 -16.49 -3.36 -16.36 -3.39 -16.23 -3.42 -16.1 -3.45 -15.98 -3.48 -15.85 -3.52 -15.72 -3.54 -15.6 -3.57 -15.47 -3.6 -15.34 -3.63 -15.21 -3.66 -15.09 -3.69 -14.96 -3.71 -14.83 -3.74 -14.7 -3.77 -14.58 -3.8 -14.45 -3.82 -14.32 -3.85 -14.2 -3.88 -14.07 -3.9 -13.94 -3.93 -13.81 -3.95 -13.69 -3.98 -13.56 -4 -13.43 -4.03 -13.3 -4.05 -13.18 -4.08 -13.05 -4.1 -12.92 -4.12 -12.79 -4.14 -12.67 -4.15 -12.54 -4.16 -12.41 -4.18 -12.29 -4.19 -12.16 -4.2 -12.03 -4.22 -11.9 -4.23 -11.78 -4.24 -11.65 -4.25 -11.52 -4.26 -11.39 -4.28 -11.27 -4.29 -11.14 -4.3 -11.01 -4.31 -10.89 -4.32 -10.76 -4.33 -10.63 -4.34 -10.5 -4.35 -10.38 -4.36 -10.25 -4.37 -10.12 -4.38 -9.99 -4.39 -9.87 -4.4 -9.74 -4.4 -9.61 -4.41 -9.48 -4.42 -9.36 -4.43 -9.23 -4.43 -9.1 -4.44 -8.98 -4.45 -8.85 -4.46 -8.72 -4.46 -8.59 -4.47 -8.47 -4.47 -8.34 -4.48 -8.21 -4.48 -8.08 -4.49 -7.96 -4.49 -7.83 -4.5 -7.7 -4.5 -7.57 -4.51 -7.45 -4.51 -7.32 -4.52 -7.19 -4.52 -7.07 -4.52 -6.94 -4.52 -6.81 -4.52 -6.68 -4.52 -6.56 -4.51 -6.43 -4.51 -6.3 -4.51 -6.17 -4.51 -6.05 -4.51 -5.92 -4.5 -5.79 -4.5 -5.67 -4.5 -5.54 -4.49 -5.41 -4.49 -5.28 -4.49 -5.16 -4.49 -5.03 -4.48 -4.9 -4.48 -4.77 -4.48 -4.65 -4.47 -4.52 -4.47 -4.39 -4.47 -4.26 -4.46 -4.14 -4.46 -4.01 -4.46 -3.88 -4.45 -3.76 -4.44 -3.63 -4.44 -3.5 -4.43 -3.37 -4.43 -3.25 -4.42 -3.12 -4.41 -2.99 -4.41 -2.86 -4.4 -2.74 -4.39 -2.61 -4.39 -2.48 -4.38 -2.36 -4.37 -2.23 -4.36 -2.1 -4.35 -1.97 -4.35 -1.85 -4.34 -1.72 -4.33 -1.59 -4.32 -1.46 -4.31 -1.34 -4.3 -1.21 -4.3 -1.08 -4.29 -0.95 -4.29 -0.83 -4.28 -0.7 -4.28 -0.57 -4.27 -0.45 -4.26 -0.32 -4.26 -0.19 -4.25 -0.06 -4.24 0.06 -4.24 0.19 -4.23 0.32 -4.22 0.45 -4.21 0.57 -4.21 0.7 -4.2 0.83 -4.19 0.95 -4.18 1.08 -4.18 1.21 -4.17 1.34 -4.16 1.46 -4.15 1.59 -4.14 1.72 -4.13 1.85 -4.12 1.97 -4.1 2.1 -4.09 2.23 -4.08 2.36 -4.07 2.48 -4.05 2.61 -4.04 2.74 -4.03 2.86 -4.01 2.99 -4 3.12 -3.98 3.25 -3.97 3.37 -3.96 3.5 -3.94 3.63 -3.93 3.76 -3.91 3.88 -3.9 4.01 -3.88 4.14 -3.87 4.26 -3.85 4.39 -3.84 4.52 -3.82 4.65 -3.81 4.77 -3.8 4.9 -3.79 5.03 -3.77 5.16 -3.76 5.28 -3.75 5.41 -3.73 5.54 -3.72 5.67 -3.7 5.79 -3.69 5.92 -3.68 6.05 -3.66 6.17 -3.65 6.3 -3.63 6.43 -3.62 6.56 -3.6 6.68 -3.59 6.81 -3.58 6.94 -3.56 7.07 -3.55 7.19 -3.53 7.32 -3.52 7.45 -3.51 7.57 -3.5 7.7 -3.49 7.83 -3.48 7.96 -3.47 8.08 -3.46 8.21 -3.46 8.34 -3.45 8.47 -3.44 8.59 -3.43 8.72 -3.42 8.85 -3.41 8.98 -3.4 9.1 -3.39 9.23 -3.38 9.36 -3.37 9.48 -3.35 9.61 -3.34 9.74 -3.33 9.87 -3.32 9.99 -3.31 10.12 -3.3 10.25 -3.29 10.38 -3.28 10.5 -3.27 10.63 -3.26 10.76 -3.25 10.89 -3.24 11.01 -3.23 11.14 -3.22 11.27 -3.21 11.39 -3.2 11.52 -3.19 11.65 -3.18 11.78 -3.16 11.9 -3.15 12.03 -3.14 12.16 -3.13 12.29 -3.11 12.41 -3.1 12.54 -3.09 12.67 -3.07 12.79 -3.06 12.92 -3.05 13.05 -3.03 13.18 -3.02 13.3 -3 13.43 -2.98 13.56 -2.97 13.69 -2.95 13.81 -2.93 13.94 -2.92 14.07 -2.9 14.2 -2.88 14.32 -2.86 14.45 -2.84 14.58 -2.83 14.7 -2.81 14.83 -2.79 14.96 -2.77 15.09 -2.75 15.21 -2.73 15.34 -2.71 15.47 -2.69 15.6 -2.67 15.72 -2.65 15.85 -2.63 15.98 -2.61 16.1 -2.59 16.23 -2.57 16.36 -2.55 16.49 -2.52 16.61 -2.5 16.74 -2.48 16.87 -2.46 17 -2.44 17.12 -2.41 17.25 -2.39 17.38 -2.37 17.51 -2.34 17.63 -2.32 17.76 -2.29 17.89 -2.27 18.01 -2.24 18.14 -2.22 18.27 -2.19 18.4 -2.17 18.52 -2.14 18.65 -2.11 18.78 -2.09 18.91 -2.06 19.03 -2.03 19.16 -2.01 19.29 -1.98 19.41 -1.95 19.54 -1.92 19.67 -1.89 19.8 -1.86 19.92 -1.84 20.05 -1.81 20.18 -1.78 20.31 -1.75 20.43 -1.72 20.56 -1.69 20.69 -1.66 20.82 -1.63 20.94 -1.6 21.07 -1.57 21.2 -1.54 21.32 -1.5 21.45 -1.47 21.58 -1.44 21.71 -1.41 21.83 -1.38 21.96 -1.35 22.09 -1.31 22.22 -1.28 22.34 -1.25 22.47 -1.21 22.6 -1.18 22.72 -1.15 22.85 -1.11 22.98 -1.08 23.11 -1.05 23.23 -1.01 23.36 -0.98 23.49 -0.94 23.62 -0.91 23.74 -0.87 23.87 -0.84 24 -0.8 24.13 -0.77 24.25 -0.73 24.38 -0.7 24.51 -0.66 24.63 -0.62 24.76 -0.59 24.89 -0.55 25.02 -0.51 25.14 -0.48 25.27 -0.44 25.4 -0.4 25.53 -0.36 25.65 -0.33 25.78 -0.29 25.91 -0.25 26.03 -0.21 26.16 -0.17 26.29 -0.13 26.42 -0.09 26.54 -0.06 26.67 -0.02 26.8 0.02 26.93 0.06 27.05 0.1 27.18 0.14 27.31 0.18 27.44 0.23 27.56 0.27 27.69 0.31 27.82 0.35 27.94 0.39 28.07 0.43 28.2 0.47 28.33 0.51 28.45 0.56 28.58 0.6 28.71 0.64 28.84 0.68 28.96 0.73 29.09 0.77 29.22 0.81 29.34 0.86 29.47 0.9 29.6 0.94 29.73 0.99 29.85 1.03 29.98 1.08 30.11 1.12 30.24 1.17 30.36 1.21 30.49 1.26 30.62 1.3 30.75 1.35 30.87 1.39 31 1.44 31.13 1.48 31.25 1.53 31.38 1.58 31.51 1.62 31.64 1.67 31.76 1.72 31.89 1.77 32.02 1.81 32.15 1.86 32.27 1.91 32.4 1.96 32.53 2.01 32.66 2.05 32.78 2.1 32.91 2.15 33.04 2.2 33.16 2.25 33.29 2.3 33.42 2.35 33.55 2.4 33.67 2.45 33.8 2.5 33.93 2.55 34.06 2.6 34.18 2.66 34.31 2.71 34.44 2.76 34.56 2.81 34.69 2.86 34.82 2.91 34.95 2.97 35.07 3.02 35.2 3.07 35.33 3.12 35.46 3.18 35.58 3.23 35.71 3.29 35.84 3.34 35.97 3.39 36.09 3.45 36.22 3.5 36.35 3.56 36.47 3.61 36.6 3.67 36.73 3.72 36.86 3.78 36.98 3.83 37.11 3.89 37.24 3.95 37.37 4 37.49 4.06 37.62 4.12 37.75 4.17 37.87 4.23 38 4.29 38.13 4.35 38.26 4.4 38.38 4.46 38.51 4.52 38.64 4.58 38.77 4.64 38.89 4.7 39.02 4.76 39.15 4.81 39.28 4.87 39.4 4.93 39.53 4.99 39.66 5.06 39.78 5.12 39.91 5.18 40.04 5.24 40.17 5.3 40.29 5.36 40.42 5.42 40.55 5.49 40.68 5.55 40.8 5.61 40.93 5.67 41.06 5.74 41.18 5.8 41.31 5.86 41.44 5.93 41.57 5.99 41.69 6.05 41.82 6.12 41.95 6.18 42.08 6.25 42.2 6.31 42.33 6.38 42.46 6.44 42.59 6.51 42.71 6.57 42.84 6.64 42.97 6.71 43.09 6.77 43.22 6.84 43.35 6.91 43.48 6.97 43.6 7.04 43.73 7.11 43.86 7.18 43.99 7.24 44.11 7.31 44.24 7.38 44.37 7.45 44.49 7.52 44.62 7.59 44.75 7.66 44.88 7.73 45 7.8 45.13 7.87 45.26 7.94 45.39 8.01 45.51 8.08 45.64 8.15 45.77 8.22 45.9 8.29 46.02 8.36 46.15 8.43 46.28 8.51 46.4 8.58 46.53 8.65 46.66 8.72 46.79 8.8 46.91 8.87 47.04 8.94 47.17 9.02 47.3 9.09 47.42 9.16 47.55 9.24 47.68 9.31" class="primitive"/>
            </g>
          </g>
        </g>
      </g>
    </g>
  </g>
  <g class="guide ylabels" font-size="2.82" font-family="'PT Sans Caption','Helvetica Neue','Helvetica',sans-serif" fill="#6C606B" id="img-deaaeafd-12">
    <g transform="translate(15.68,61.79)">
      <g class="primitive">
        <text text-anchor="end" dy="0.35em">N</text>
      </g>
    </g>
    <g transform="translate(15.68,23.93)">
      <g class="primitive">
        <text text-anchor="end" dy="0.35em">Y</text>
      </g>
    </g>
  </g>
  <g font-size="3.88" font-family="'PT Sans','Helvetica Neue','Helvetica',sans-serif" fill="#564A55" stroke="#000000" stroke-opacity="0.000" id="img-deaaeafd-13">
    <g transform="translate(8.81,40.86)">
      <g class="primitive">
        <text text-anchor="middle" dy="0.35em" transform="rotate(-90,0, 2)">Contraception use</text>
      </g>
    </g>
  </g>
</g>
<defs>
  <clipPath id="img-deaaeafd-4">
    <path d="M16.69,5 L 136.42 5 136.42 80.72 16.69 80.72" />
  </clipPath>
</defs>
</svg>
