<?xml version="1.0" encoding="UTF-8"?>
<svg xmlns="http://www.w3.org/2000/svg"
     xmlns:xlink="http://www.w3.org/1999/xlink"
     xmlns:gadfly="http://www.gadflyjl.org/ns"
     version="1.2"
     width="203.2mm" height="101.6mm" viewBox="0 0 203.2 101.6"
     stroke="none"
     fill="#000000"
     stroke-width="0.3"
     font-size="3.88"
>
<g class="plotroot xscalable yscalable" id="img-3de6bd06-1">
  <g font-size="3.88" font-family="'PT Sans','Helvetica Neue','Helvetica',sans-serif" fill="#564A55" stroke="#000000" stroke-opacity="0.000" id="img-3de6bd06-2">
    <text x="104.61" y="89.99" text-anchor="middle" dy="0.6em">β₁</text>
  </g>
  <g class="guide xlabels" font-size="2.82" font-family="'PT Sans Caption','Helvetica Neue','Helvetica',sans-serif" fill="#6C606B" id="img-3de6bd06-3">
    <text x="13.02" y="83.32" text-anchor="middle" dy="0.6em">19</text>
    <text x="35.92" y="83.32" text-anchor="middle" dy="0.6em">20</text>
    <text x="58.82" y="83.32" text-anchor="middle" dy="0.6em">21</text>
    <text x="81.71" y="83.32" text-anchor="middle" dy="0.6em">22</text>
    <text x="104.61" y="83.32" text-anchor="middle" dy="0.6em">23</text>
    <text x="127.51" y="83.32" text-anchor="middle" dy="0.6em">24</text>
    <text x="150.41" y="83.32" text-anchor="middle" dy="0.6em">25</text>
    <text x="173.3" y="83.32" text-anchor="middle" dy="0.6em">26</text>
    <text x="196.2" y="83.32" text-anchor="middle" dy="0.6em">27</text>
  </g>
<g clip-path="url(#img-3de6bd06-4)">
  <g id="img-3de6bd06-5">
    <g pointer-events="visible" opacity="1" fill="#000000" fill-opacity="0.000" stroke="#000000" stroke-opacity="0.000" class="guide background" id="img-3de6bd06-6">
      <rect x="11.02" y="5" width="187.18" height="77.32"/>
    </g>
    <g class="guide ygridlines xfixed" stroke-dasharray="0.5,0.5" stroke-width="0.2" stroke="#D0D0E0" id="img-3de6bd06-7">
      <path fill="none" d="M11.02,80.32 L 198.2 80.32"/>
      <path fill="none" d="M11.02,68.1 L 198.2 68.1"/>
      <path fill="none" d="M11.02,55.88 L 198.2 55.88"/>
      <path fill="none" d="M11.02,43.66 L 198.2 43.66"/>
      <path fill="none" d="M11.02,31.44 L 198.2 31.44"/>
      <path fill="none" d="M11.02,19.22 L 198.2 19.22"/>
      <path fill="none" d="M11.02,7 L 198.2 7"/>
    </g>
    <g class="guide xgridlines yfixed" stroke-dasharray="0.5,0.5" stroke-width="0.2" stroke="#D0D0E0" id="img-3de6bd06-8">
      <path fill="none" d="M13.02,5 L 13.02 82.32"/>
      <path fill="none" d="M35.92,5 L 35.92 82.32"/>
      <path fill="none" d="M58.82,5 L 58.82 82.32"/>
      <path fill="none" d="M81.71,5 L 81.71 82.32"/>
      <path fill="none" d="M104.61,5 L 104.61 82.32"/>
      <path fill="none" d="M127.51,5 L 127.51 82.32"/>
      <path fill="none" d="M150.41,5 L 150.41 82.32"/>
      <path fill="none" d="M173.3,5 L 173.3 82.32"/>
      <path fill="none" d="M196.2,5 L 196.2 82.32"/>
    </g>
    <g class="plotpanel" id="img-3de6bd06-9">
      <g stroke-width="0.3" fill="#000000" fill-opacity="0.000" class="geometry" id="img-3de6bd06-10">
        <g stroke-dasharray="none" stroke="#00BFFF" id="img-3de6bd06-11">
          <path fill="none" d="M23.47,80.31 L 24.08 80.31 24.7 80.31 25.32 80.31 25.94 80.31 26.55 80.31 27.17 80.31 27.79 80.31 28.41 80.31 29.02 80.3 29.64 80.3 30.26 80.29 30.88 80.29 31.5 80.28 32.11 80.27 32.73 80.27 33.35 80.27 33.97 80.27 34.58 80.27 35.2 80.27 35.82 80.27 36.44 80.26 37.05 80.26 37.67 80.25 38.29 80.24 38.91 80.23 39.52 80.23 40.14 80.22 40.76 80.21 41.38 80.2 41.99 80.19 42.61 80.18 43.23 80.17 43.85 80.15 44.47 80.13 45.08 80.11 45.7 80.1 46.32 80.08 46.94 80.07 47.55 80.05 48.17 80.03 48.79 80.01 49.41 79.97 50.02 79.93 50.64 79.89 51.26 79.84 51.88 79.78 52.49 79.71 53.11 79.64 53.73 79.56 54.35 79.47 54.96 79.36 55.58 79.23 56.2 79.07 56.82 78.89 57.43 78.69 58.05 78.46 58.67 78.21 59.29 77.93 59.91 77.64 60.52 77.33 61.14 77.01 61.76 76.69 62.38 76.36 62.99 76.04 63.61 75.72 64.23 75.41 64.85 75.1 65.46 74.8 66.08 74.5 66.7 74.17 67.32 73.81 67.93 73.39 68.55 72.91 69.17 72.36 69.79 71.72 70.4 71 71.02 70.2 71.64 69.35 72.26 68.44 72.88 67.51 73.49 66.56 74.11 65.59 74.73 64.61 75.35 63.6 75.96 62.56 76.58 61.46 77.2 60.31 77.82 59.1 78.43 57.83 79.05 56.51 79.67 55.15 80.29 53.79 80.9 52.42 81.52 51.07 82.14 49.75 82.76 48.47 83.37 47.22 83.99 45.99 84.61 44.79 85.23 43.6 85.85 42.42 86.46 41.23 87.08 40.04 87.7 38.84 88.32 37.63 88.93 36.41 89.55 35.2 90.17 34 90.79 32.83 91.4 31.67 92.02 30.51 92.64 29.31 93.26 28.04 93.87 26.69 94.49 25.23 95.11 23.7 95.73 22.14 96.34 20.61 96.96 19.18 97.58 17.92 98.2 16.87 98.81 16.05 99.43 15.46 100.05 15.05 100.67 14.78 101.29 14.59 101.9 14.44 102.52 14.31 103.14 14.2 103.76 14.16 104.37 14.21 104.99 14.43 105.61 14.84 106.23 15.46 106.84 16.28 107.46 17.23 108.08 18.25 108.7 19.28 109.31 20.25 109.93 21.14 110.55 21.96 111.17 22.73 111.78 23.48 112.4 24.28 113.02 25.15 113.64 26.11 114.26 27.18 114.87 28.35 115.49 29.59 116.11 30.9 116.73 32.25 117.34 33.61 117.96 34.97 118.58 36.32 119.2 37.66 119.81 38.98 120.43 40.3 121.05 41.61 121.67 42.92 122.28 44.22 122.9 45.52 123.52 46.81 124.14 48.09 124.75 49.36 125.37 50.63 125.99 51.9 126.61 53.17 127.22 54.44 127.84 55.71 128.46 56.95 129.08 58.18 129.7 59.38 130.31 60.55 130.93 61.69 131.55 62.8 132.17 63.88 132.78 64.91 133.4 65.9 134.02 66.84 134.64 67.72 135.25 68.53 135.87 69.28 136.49 69.98 137.11 70.62 137.72 71.24 138.34 71.83 138.96 72.4 139.58 72.96 140.19 73.5 140.81 74.02 141.43 74.5 142.05 74.93 142.67 75.31 143.28 75.62 143.9 75.88 144.52 76.08 145.14 76.26 145.75 76.44 146.37 76.63 146.99 76.85 147.61 77.11 148.22 77.39 148.84 77.69 149.46 77.98 150.08 78.26 150.69 78.5 151.31 78.72 151.93 78.9 152.55 79.05 153.16 79.17 153.78 79.28 154.4 79.36 155.02 79.43 155.64 79.5 156.25 79.55 156.87 79.61 157.49 79.66 158.11 79.72 158.72 79.79 159.34 79.86 159.96 79.94 160.58 80.01 161.19 80.07 161.81 80.12 162.43 80.16 163.05 80.18 163.66 80.2 164.28 80.21 164.9 80.21 165.52 80.21 166.13 80.21 166.75 80.22 167.37 80.22 167.99 80.22 168.6 80.23 169.22 80.24 169.84 80.24 170.46 80.25 171.08 80.25 171.69 80.26 172.31 80.27 172.93 80.28 173.55 80.28 174.16 80.29 174.78 80.3 175.4 80.3 176.02 80.31 176.63 80.31 177.25 80.31 177.87 80.31 178.49 80.31 179.1 80.31 179.72 80.31 180.34 80.31 180.96 80.31"/>
        </g>
      </g>
    </g>
  </g>
</g>
  <g class="guide ylabels" font-size="2.82" font-family="'PT Sans Caption','Helvetica Neue','Helvetica',sans-serif" fill="#6C606B" id="img-3de6bd06-12">
    <text x="10.02" y="80.32" text-anchor="end" dy="0.35em">0.0</text>
    <text x="10.02" y="68.1" text-anchor="end" dy="0.35em">0.1</text>
    <text x="10.02" y="55.88" text-anchor="end" dy="0.35em">0.2</text>
    <text x="10.02" y="43.66" text-anchor="end" dy="0.35em">0.3</text>
    <text x="10.02" y="31.44" text-anchor="end" dy="0.35em">0.4</text>
    <text x="10.02" y="19.22" text-anchor="end" dy="0.35em">0.5</text>
    <text x="10.02" y="7" text-anchor="end" dy="0.35em">0.6</text>
  </g>
</g>
<defs>
  <clipPath id="img-3de6bd06-4">
  <path d="M11.02,5 L 198.2 5 198.2 82.32 11.02 82.32" />
</clipPath>
</defs>
</svg>
