<?xml version="1.0" encoding="UTF-8"?>
<svg xmlns="http://www.w3.org/2000/svg"
     xmlns:xlink="http://www.w3.org/1999/xlink"
     xmlns:gadfly="http://www.gadflyjl.org/ns"
     version="1.2"
     width="203.2mm" height="101.6mm" viewBox="0 0 203.2 101.6"
     stroke="none"
     fill="#000000"
     stroke-width="0.3"
     font-size="3.88"
>
<g class="plotroot xscalable yscalable" id="img-297e4750-1">
  <g font-size="3.88" font-family="'PT Sans','Helvetica Neue','Helvetica',sans-serif" fill="#564A55" stroke="#000000" stroke-opacity="0.000" id="img-297e4750-2">
    <text x="103.44" y="89.99" text-anchor="middle" dy="0.6em">σ₁</text>
  </g>
  <g class="guide xlabels" font-size="2.82" font-family="'PT Sans Caption','Helvetica Neue','Helvetica',sans-serif" fill="#6C606B" id="img-297e4750-3">
    <text x="10.67" y="83.32" text-anchor="middle" dy="0.6em">0.0</text>
    <text x="72.52" y="83.32" text-anchor="middle" dy="0.6em">0.5</text>
    <text x="134.36" y="83.32" text-anchor="middle" dy="0.6em">1.0</text>
    <text x="196.2" y="83.32" text-anchor="middle" dy="0.6em">1.5</text>
  </g>
<g clip-path="url(#img-297e4750-4)">
  <g id="img-297e4750-5">
    <g pointer-events="visible" opacity="1" fill="#000000" fill-opacity="0.000" stroke="#000000" stroke-opacity="0.000" class="guide background" id="img-297e4750-6">
      <rect x="8.67" y="5" width="189.53" height="77.32"/>
    </g>
    <g class="guide ygridlines xfixed" stroke-dasharray="0.5,0.5" stroke-width="0.2" stroke="#D0D0E0" id="img-297e4750-7">
      <path fill="none" d="M8.67,80.31 L 198.2 80.31"/>
      <path fill="none" d="M8.67,61.99 L 198.2 61.99"/>
      <path fill="none" d="M8.67,43.66 L 198.2 43.66"/>
      <path fill="none" d="M8.67,25.33 L 198.2 25.33"/>
      <path fill="none" d="M8.67,7 L 198.2 7"/>
    </g>
    <g class="guide xgridlines yfixed" stroke-dasharray="0.5,0.5" stroke-width="0.2" stroke="#D0D0E0" id="img-297e4750-8">
      <path fill="none" d="M10.67,5 L 10.67 82.32"/>
      <path fill="none" d="M72.52,5 L 72.52 82.32"/>
      <path fill="none" d="M134.36,5 L 134.36 82.32"/>
      <path fill="none" d="M196.2,5 L 196.2 82.32"/>
    </g>
    <g class="plotpanel" id="img-297e4750-9">
      <g stroke-width="0.3" fill="#000000" fill-opacity="0.000" class="geometry" id="img-297e4750-10">
        <g stroke-dasharray="none" stroke="#00BFFF" id="img-297e4750-11">
          <path fill="none" d="M48.37,80.31 L 48.93 80.31 49.49 80.31 50.04 80.31 50.6 80.31 51.15 80.31 51.71 80.31 52.27 80.31 52.82 80.31 53.38 80.3 53.94 80.29 54.49 80.28 55.05 80.26 55.61 80.24 56.16 80.22 56.72 80.19 57.28 80.16 57.83 80.14 58.39 80.12 58.95 80.1 59.5 80.08 60.06 80.08 60.61 80.07 61.17 80.07 61.73 80.07 62.28 80.07 62.84 80.07 63.4 80.07 63.95 80.06 64.51 80.04 65.07 80.02 65.62 79.98 66.18 79.93 66.74 79.88 67.29 79.81 67.85 79.74 68.4 79.65 68.96 79.57 69.52 79.47 70.07 79.37 70.63 79.26 71.19 79.13 71.74 78.98 72.3 78.81 72.86 78.61 73.41 78.38 73.97 78.13 74.53 77.84 75.08 77.54 75.64 77.21 76.2 76.87 76.75 76.51 77.31 76.14 77.86 75.75 78.42 75.35 78.98 74.93 79.53 74.48 80.09 74.01 80.65 73.52 81.2 73 81.76 72.44 82.32 71.85 82.87 71.22 83.43 70.54 83.99 69.8 84.54 69 85.1 68.14 85.66 67.23 86.21 66.28 86.77 65.31 87.32 64.34 87.88 63.41 88.44 62.52 88.99 61.68 89.55 60.88 90.11 60.11 90.66 59.33 91.22 58.52 91.78 57.66 92.33 56.72 92.89 55.7 93.45 54.61 94 53.45 94.56 52.26 95.12 51.06 95.67 49.86 96.23 48.69 96.78 47.53 97.34 46.39 97.9 45.22 98.45 44.03 99.01 42.78 99.57 41.48 100.12 40.16 100.68 38.83 101.24 37.53 101.79 36.29 102.35 35.13 102.91 34.05 103.46 33.05 104.02 32.11 104.58 31.23 105.13 30.44 105.69 29.75 106.24 29.18 106.8 28.74 107.36 28.42 107.91 28.2 108.47 28.03 109.03 27.86 109.58 27.63 110.14 27.32 110.7 26.91 111.25 26.41 111.81 25.85 112.37 25.29 112.92 24.77 113.48 24.35 114.04 24.06 114.59 23.93 115.15 23.97 115.7 24.19 116.26 24.57 116.82 25.08 117.37 25.7 117.93 26.4 118.49 27.15 119.04 27.94 119.6 28.75 120.16 29.59 120.71 30.47 121.27 31.4 121.83 32.38 122.38 33.42 122.94 34.53 123.5 35.7 124.05 36.92 124.61 38.18 125.16 39.48 125.72 40.78 126.28 42.08 126.83 43.34 127.39 44.53 127.95 45.65 128.5 46.68 129.06 47.63 129.62 48.5 130.17 49.32 130.73 50.1 131.29 50.86 131.84 51.62 132.4 52.4 132.96 53.19 133.51 54.02 134.07 54.9 134.62 55.84 135.18 56.83 135.74 57.86 136.29 58.92 136.85 59.97 137.41 61 137.96 61.97 138.52 62.89 139.08 63.75 139.63 64.56 140.19 65.35 140.75 66.11 141.3 66.86 141.86 67.57 142.41 68.26 142.97 68.9 143.53 69.5 144.08 70.06 144.64 70.59 145.2 71.1 145.75 71.59 146.31 72.08 146.87 72.56 147.42 73.02 147.98 73.46 148.54 73.88 149.09 74.25 149.65 74.6 150.21 74.91 150.76 75.21 151.32 75.48 151.87 75.73 152.43 75.98 152.99 76.21 153.54 76.43 154.1 76.64 154.66 76.86 155.21 77.09 155.77 77.32 156.33 77.56 156.88 77.81 157.44 78.06 158 78.3 158.55 78.54 159.11 78.75 159.67 78.94 160.22 79.1 160.78 79.24 161.33 79.35 161.89 79.45 162.45 79.53 163 79.6 163.56 79.66 164.12 79.72 164.67 79.78 165.23 79.83 165.79 79.87 166.34 79.91 166.9 79.94 167.46 79.96 168.01 79.98 168.57 80 169.13 80.01 169.68 80.03 170.24 80.05 170.79 80.06 171.35 80.07 171.91 80.07 172.46 80.08 173.02 80.08 173.58 80.08 174.13 80.08 174.69 80.09 175.25 80.1 175.8 80.12 176.36 80.15 176.92 80.17 177.47 80.2 178.03 80.22 178.59 80.23 179.14 80.25 179.7 80.26 180.25 80.26 180.81 80.27 181.37 80.27 181.92 80.28 182.48 80.28 183.04 80.29 183.59 80.29 184.15 80.3 184.71 80.3 185.26 80.31 185.82 80.31 186.38 80.31 186.93 80.31 187.49 80.31 188.05 80.31 188.6 80.31 189.16 80.31 189.71 80.31 190.27 80.31"/>
        </g>
      </g>
    </g>
  </g>
</g>
  <g class="guide ylabels" font-size="2.82" font-family="'PT Sans Caption','Helvetica Neue','Helvetica',sans-serif" fill="#6C606B" id="img-297e4750-12">
    <text x="7.67" y="80.31" text-anchor="end" dy="0.35em">0</text>
    <text x="7.67" y="61.99" text-anchor="end" dy="0.35em">1</text>
    <text x="7.67" y="43.66" text-anchor="end" dy="0.35em">2</text>
    <text x="7.67" y="25.33" text-anchor="end" dy="0.35em">3</text>
    <text x="7.67" y="7" text-anchor="end" dy="0.35em">4</text>
  </g>
</g>
<defs>
  <clipPath id="img-297e4750-4">
  <path d="M8.67,5 L 198.2 5 198.2 82.32 8.67 82.32" />
</clipPath>
</defs>
</svg>
