<?xml version="1.0" encoding="UTF-8"?>
<svg xmlns="http://www.w3.org/2000/svg"
     xmlns:xlink="http://www.w3.org/1999/xlink"
     xmlns:gadfly="http://www.gadflyjl.org/ns"
     version="1.2"
     width="203.2mm" height="101.6mm" viewBox="0 0 203.2 101.6"
     stroke="none"
     fill="#000000"
     stroke-width="0.3"
     font-size="3.88"
>
<g class="plotroot xscalable yscalable" id="img-943cd62e-1">
  <g font-size="3.88" font-family="'PT Sans','Helvetica Neue','Helvetica',sans-serif" fill="#564A55" stroke="#000000" stroke-opacity="0.000" id="img-943cd62e-2">
    <text x="104.27" y="89.99" text-anchor="middle" dy="0.6em">σ</text>
  </g>
  <g class="guide xlabels" font-size="2.82" font-family="'PT Sans Caption','Helvetica Neue','Helvetica',sans-serif" fill="#6C606B" id="img-943cd62e-3">
    <text x="12.35" y="83.32" text-anchor="middle" dy="0.6em">0.3</text>
    <text x="49.12" y="83.32" text-anchor="middle" dy="0.6em">0.4</text>
    <text x="85.89" y="83.32" text-anchor="middle" dy="0.6em">0.5</text>
    <text x="122.66" y="83.32" text-anchor="middle" dy="0.6em">0.6</text>
    <text x="159.43" y="83.32" text-anchor="middle" dy="0.6em">0.7</text>
    <text x="196.2" y="83.32" text-anchor="middle" dy="0.6em">0.8</text>
  </g>
<g clip-path="url(#img-943cd62e-4)">
  <g id="img-943cd62e-5">
    <g pointer-events="visible" opacity="1" fill="#000000" fill-opacity="0.000" stroke="#000000" stroke-opacity="0.000" class="guide background" id="img-943cd62e-6">
      <rect x="10.35" y="5" width="187.85" height="77.32"/>
    </g>
    <g class="guide ygridlines xfixed" stroke-dasharray="0.5,0.5" stroke-width="0.2" stroke="#D0D0E0" id="img-943cd62e-7">
      <path fill="none" d="M10.35,80.31 L 198.2 80.31"/>
      <path fill="none" d="M10.35,55.88 L 198.2 55.88"/>
      <path fill="none" d="M10.35,31.44 L 198.2 31.44"/>
      <path fill="none" d="M10.35,7 L 198.2 7"/>
    </g>
    <g class="guide xgridlines yfixed" stroke-dasharray="0.5,0.5" stroke-width="0.2" stroke="#D0D0E0" id="img-943cd62e-8">
      <path fill="none" d="M12.35,5 L 12.35 82.32"/>
      <path fill="none" d="M49.12,5 L 49.12 82.32"/>
      <path fill="none" d="M85.89,5 L 85.89 82.32"/>
      <path fill="none" d="M122.66,5 L 122.66 82.32"/>
      <path fill="none" d="M159.43,5 L 159.43 82.32"/>
      <path fill="none" d="M196.2,5 L 196.2 82.32"/>
    </g>
    <g class="plotpanel" id="img-943cd62e-9">
      <g stroke-width="0.3" fill="#000000" fill-opacity="0.000" class="geometry" id="img-943cd62e-10">
        <g stroke-dasharray="none" stroke="#00BFFF" id="img-943cd62e-11">
          <path fill="none" d="M43.27,80.31 L 43.73 80.31 44.2 80.31 44.67 80.31 45.14 80.31 45.6 80.31 46.07 80.31 46.54 80.31 47 80.31 47.47 80.31 47.94 80.3 48.41 80.3 48.87 80.29 49.34 80.29 49.81 80.28 50.28 80.28 50.74 80.27 51.21 80.27 51.68 80.27 52.15 80.27 52.61 80.27 53.08 80.27 53.55 80.26 54.02 80.25 54.48 80.24 54.95 80.23 55.42 80.22 55.89 80.2 56.35 80.19 56.82 80.18 57.29 80.17 57.75 80.16 58.22 80.15 58.69 80.14 59.16 80.13 59.62 80.11 60.09 80.09 60.56 80.06 61.03 80.02 61.49 79.97 61.96 79.91 62.43 79.84 62.9 79.76 63.36 79.68 63.83 79.59 64.3 79.49 64.77 79.38 65.23 79.27 65.7 79.16 66.17 79.06 66.64 78.96 67.1 78.88 67.57 78.81 68.04 78.76 68.51 78.72 68.97 78.68 69.44 78.64 69.91 78.58 70.37 78.49 70.84 78.38 71.31 78.23 71.78 78.05 72.24 77.83 72.71 77.57 73.18 77.28 73.65 76.96 74.11 76.62 74.58 76.25 75.05 75.86 75.52 75.45 75.98 75.02 76.45 74.58 76.92 74.13 77.39 73.67 77.85 73.18 78.32 72.66 78.79 72.09 79.26 71.45 79.72 70.73 80.19 69.91 80.66 68.98 81.12 67.95 81.59 66.82 82.06 65.61 82.53 64.35 82.99 63.07 83.46 61.82 83.93 60.62 84.4 59.49 84.86 58.43 85.33 57.42 85.8 56.43 86.27 55.45 86.73 54.44 87.2 53.4 87.67 52.32 88.14 51.22 88.6 50.14 89.07 49.09 89.54 48.12 90.01 47.23 90.47 46.43 90.94 45.69 91.41 44.96 91.88 44.19 92.34 43.33 92.81 42.35 93.28 41.24 93.74 40.01 94.21 38.71 94.68 37.38 95.15 36.08 95.61 34.86 96.08 33.76 96.55 32.79 97.02 31.98 97.48 31.32 97.95 30.79 98.42 30.36 98.89 30.01 99.35 29.7 99.82 29.42 100.29 29.14 100.76 28.87 101.22 28.6 101.69 28.34 102.16 28.08 102.63 27.83 103.09 27.6 103.56 27.41 104.03 27.28 104.5 27.23 104.96 27.27 105.43 27.42 105.9 27.68 106.36 28.04 106.83 28.48 107.3 28.99 107.77 29.55 108.23 30.17 108.7 30.84 109.17 31.57 109.64 32.36 110.1 33.22 110.57 34.15 111.04 35.15 111.51 36.19 111.97 37.26 112.44 38.35 112.91 39.43 113.38 40.5 113.84 41.56 114.31 42.6 114.78 43.65 115.25 44.69 115.71 45.73 116.18 46.77 116.65 47.81 117.11 48.85 117.58 49.91 118.05 50.98 118.52 52.09 118.98 53.21 119.45 54.36 119.92 55.51 120.39 56.65 120.85 57.76 121.32 58.81 121.79 59.8 122.26 60.71 122.72 61.54 123.19 62.29 123.66 62.96 124.13 63.59 124.59 64.17 125.06 64.75 125.53 65.32 126 65.92 126.46 66.54 126.93 67.18 127.4 67.85 127.87 68.53 128.33 69.22 128.8 69.9 129.27 70.57 129.73 71.2 130.2 71.79 130.67 72.33 131.14 72.83 131.6 73.3 132.07 73.73 132.54 74.14 133.01 74.54 133.47 74.94 133.94 75.32 134.41 75.7 134.88 76.06 135.34 76.41 135.81 76.73 136.28 77.03 136.75 77.3 137.21 77.54 137.68 77.76 138.15 77.97 138.62 78.17 139.08 78.36 139.55 78.55 140.02 78.74 140.48 78.92 140.95 79.08 141.42 79.23 141.89 79.36 142.35 79.46 142.82 79.55 143.29 79.61 143.76 79.66 144.22 79.7 144.69 79.73 145.16 79.76 145.63 79.78 146.09 79.81 146.56 79.84 147.03 79.87 147.5 79.91 147.96 79.95 148.43 79.98 148.9 80.01 149.37 80.05 149.83 80.07 150.3 80.09 150.77 80.11 151.24 80.13 151.7 80.14 152.17 80.14 152.64 80.15 153.1 80.16 153.57 80.16 154.04 80.17 154.51 80.18 154.97 80.2 155.44 80.22 155.91 80.24 156.38 80.25 156.84 80.27 157.31 80.28 157.78 80.29 158.25 80.3 158.71 80.31 159.18 80.31 159.65 80.31 160.12 80.31 160.58 80.31 161.05 80.31 161.52 80.31 161.99 80.31 162.45 80.31"/>
        </g>
      </g>
    </g>
  </g>
</g>
  <g class="guide ylabels" font-size="2.82" font-family="'PT Sans Caption','Helvetica Neue','Helvetica',sans-serif" fill="#6C606B" id="img-943cd62e-12">
    <text x="9.35" y="80.31" text-anchor="end" dy="0.35em">0</text>
    <text x="9.35" y="55.88" text-anchor="end" dy="0.35em">5</text>
    <text x="9.35" y="31.44" text-anchor="end" dy="0.35em">10</text>
    <text x="9.35" y="7" text-anchor="end" dy="0.35em">15</text>
  </g>
</g>
<defs>
  <clipPath id="img-943cd62e-4">
  <path d="M10.35,5 L 198.2 5 198.2 82.32 10.35 82.32" />
</clipPath>
</defs>
</svg>
