<?xml version="1.0" encoding="UTF-8"?>
<svg xmlns="http://www.w3.org/2000/svg"
     xmlns:xlink="http://www.w3.org/1999/xlink"
     xmlns:gadfly="http://www.gadflyjl.org/ns"
     version="1.2"
     width="141.42mm" height="100mm" viewBox="0 0 141.42 100"
     stroke="none"
     fill="#000000"
     stroke-width="0.3"
     font-size="3.88"
>
<g class="plotroot xscalable yscalable" id="img-1ce068fb-1">
  <g font-size="3.88" font-family="'PT Sans','Helvetica Neue','Helvetica',sans-serif" fill="#564A55" stroke="#000000" stroke-opacity="0.000" id="img-1ce068fb-2">
    <g transform="translate(72.55,88.39)">
      <g class="primitive">
        <text text-anchor="middle" dy="0.6em">σ₁</text>
      </g>
    </g>
  </g>
  <g class="guide xlabels" font-size="2.82" font-family="'PT Sans Caption','Helvetica Neue','Helvetica',sans-serif" fill="#6C606B" id="img-1ce068fb-3">
    <g transform="translate(10.67,81.72)">
      <g class="primitive">
        <text text-anchor="middle" dy="0.6em">0.0</text>
      </g>
    </g>
    <g transform="translate(51.92,81.72)">
      <g class="primitive">
        <text text-anchor="middle" dy="0.6em">0.5</text>
      </g>
    </g>
    <g transform="translate(93.17,81.72)">
      <g class="primitive">
        <text text-anchor="middle" dy="0.6em">1.0</text>
      </g>
    </g>
    <g transform="translate(134.42,81.72)">
      <g class="primitive">
        <text text-anchor="middle" dy="0.6em">1.5</text>
      </g>
    </g>
  </g>
  <g clip-path="url(#img-1ce068fb-4)">
    <g id="img-1ce068fb-5">
      <g pointer-events="visible" opacity="0" fill="#000000" fill-opacity="0.000" stroke="#000000" stroke-opacity="0.000" class="guide background" id="img-1ce068fb-6">
        <g transform="translate(72.55,42.86)">
          <path d="M-63.87,-37.86 L 63.87 -37.86 63.87 37.86 -63.87 37.86 z" class="primitive"/>
        </g>
      </g>
      <g class="guide ygridlines xfixed" stroke-dasharray="0.5,0.5" stroke-width="0.2" stroke="#D0D0E0" id="img-1ce068fb-7">
        <g transform="translate(72.55,78.71)">
          <path fill="none" d="M-63.87,0 L 63.87 0" class="primitive"/>
        </g>
        <g transform="translate(72.55,54.81)">
          <path fill="none" d="M-63.87,0 L 63.87 0" class="primitive"/>
        </g>
        <g transform="translate(72.55,30.9)">
          <path fill="none" d="M-63.87,0 L 63.87 0" class="primitive"/>
        </g>
        <g transform="translate(72.55,7)">
          <path fill="none" d="M-63.87,0 L 63.87 0" class="primitive"/>
        </g>
      </g>
      <g class="guide xgridlines yfixed" stroke-dasharray="0.5,0.5" stroke-width="0.2" stroke="#D0D0E0" id="img-1ce068fb-8">
        <g transform="translate(10.67,42.86)">
          <path fill="none" d="M0,-37.86 L 0 37.86" class="primitive"/>
        </g>
        <g transform="translate(51.92,42.86)">
          <path fill="none" d="M0,-37.86 L 0 37.86" class="primitive"/>
        </g>
        <g transform="translate(93.17,42.86)">
          <path fill="none" d="M0,-37.86 L 0 37.86" class="primitive"/>
        </g>
        <g transform="translate(134.42,42.86)">
          <path fill="none" d="M0,-37.86 L 0 37.86" class="primitive"/>
        </g>
      </g>
      <g class="plotpanel" id="img-1ce068fb-9">
        <metadata>
          <boundingbox value="8.673333333333332mm 5.0mm 127.74802290397618mm 75.715mm"/>
          <unitbox value="-0.02424281155851587 3.083664505333612 1.5484856231170319 -3.167329010667225"/>
        </metadata>
        <g stroke-width="0.3" fill="#000000" fill-opacity="0.000" class="geometry" id="img-1ce068fb-10">
          <g class="color_LCHab{Float32}(70.0f0,60.0f0,240.0f0)" stroke-dasharray="none" stroke="#00BFFF" id="img-1ce068fb-11">
            <g transform="translate(80.41,57.31)">
              <path fill="none" d="M-45.88,21.41 L -45.52 21.41 -45.16 21.41 -44.8 21.41 -44.44 21.41 -44.08 21.41 -43.72 21.41 -43.36 21.41 -43 21.4 -42.64 21.4 -42.28 21.39 -41.92 21.38 -41.56 21.37 -41.2 21.36 -40.84 21.35 -40.48 21.33 -40.12 21.32 -39.76 21.31 -39.4 21.3 -39.04 21.29 -38.68 21.28 -38.32 21.28 -37.96 21.28 -37.6 21.27 -37.24 21.26 -36.88 21.25 -36.52 21.24 -36.16 21.22 -35.8 21.19 -35.44 21.15 -35.08 21.11 -34.72 21.05 -34.36 20.99 -34 20.92 -33.64 20.85 -33.28 20.78 -32.92 20.71 -32.56 20.64 -32.2 20.58 -31.84 20.52 -31.48 20.45 -31.12 20.36 -30.76 20.24 -30.4 20.09 -30.05 19.91 -29.69 19.68 -29.33 19.43 -28.97 19.15 -28.61 18.86 -28.25 18.57 -27.89 18.29 -27.53 18.01 -27.17 17.74 -26.81 17.46 -26.45 17.15 -26.09 16.81 -25.73 16.42 -25.37 15.97 -25.01 15.48 -24.65 14.93 -24.29 14.34 -23.93 13.73 -23.57 13.08 -23.21 12.42 -22.85 11.74 -22.49 11.04 -22.13 10.3 -21.77 9.53 -21.41 8.73 -21.05 7.89 -20.69 7.03 -20.33 6.15 -19.97 5.27 -19.61 4.37 -19.25 3.46 -18.89 2.52 -18.53 1.53 -18.17 0.48 -17.81 -0.64 -17.45 -1.82 -17.09 -3.05 -16.73 -4.32 -16.37 -5.57 -16.01 -6.81 -15.65 -8 -15.29 -9.14 -14.93 -10.24 -14.57 -11.33 -14.21 -12.43 -13.85 -13.59 -13.49 -14.84 -13.13 -16.19 -12.77 -17.66 -12.41 -19.24 -12.05 -20.91 -11.69 -22.63 -11.33 -24.39 -10.97 -26.14 -10.61 -27.87 -10.25 -29.54 -9.9 -31.17 -9.54 -32.74 -9.18 -34.27 -8.82 -35.77 -8.46 -37.24 -8.1 -38.67 -7.74 -40.07 -7.38 -41.4 -7.02 -42.66 -6.66 -43.81 -6.3 -44.85 -5.94 -45.75 -5.58 -46.52 -5.22 -47.16 -4.86 -47.7 -4.5 -48.14 -4.14 -48.51 -3.78 -48.83 -3.42 -49.1 -3.06 -49.32 -2.7 -49.5 -2.34 -49.61 -1.98 -49.64 -1.62 -49.58 -1.26 -49.41 -0.9 -49.14 -0.54 -48.77 -0.18 -48.32 0.18 -47.82 0.54 -47.31 0.9 -46.79 1.26 -46.29 1.62 -45.81 1.98 -45.33 2.34 -44.82 2.7 -44.24 3.06 -43.58 3.42 -42.8 3.78 -41.91 4.14 -40.93 4.5 -39.89 4.86 -38.83 5.22 -37.8 5.58 -36.81 5.94 -35.89 6.3 -35.02 6.66 -34.17 7.02 -33.29 7.38 -32.36 7.74 -31.34 8.1 -30.21 8.46 -28.98 8.82 -27.67 9.18 -26.3 9.54 -24.89 9.9 -23.46 10.25 -22.02 10.61 -20.58 10.97 -19.14 11.33 -17.69 11.69 -16.23 12.05 -14.75 12.41 -13.26 12.77 -11.77 13.13 -10.29 13.49 -8.84 13.85 -7.42 14.21 -6.06 14.57 -4.76 14.93 -3.51 15.29 -2.31 15.65 -1.15 16.01 -0.04 16.37 1.05 16.73 2.1 17.09 3.12 17.45 4.09 17.81 5.01 18.17 5.86 18.53 6.65 18.89 7.36 19.25 8 19.61 8.58 19.97 9.12 20.33 9.64 20.69 10.14 21.05 10.64 21.41 11.15 21.77 11.67 22.13 12.2 22.49 12.74 22.85 13.28 23.21 13.82 23.57 14.36 23.93 14.89 24.29 15.42 24.65 15.93 25.01 16.43 25.37 16.9 25.73 17.33 26.09 17.72 26.45 18.05 26.81 18.34 27.17 18.57 27.53 18.77 27.89 18.93 28.25 19.08 28.61 19.21 28.97 19.34 29.33 19.47 29.69 19.6 30.05 19.73 30.4 19.86 30.76 19.99 31.12 20.1 31.48 20.21 31.84 20.31 32.2 20.4 32.56 20.48 32.92 20.56 33.28 20.64 33.64 20.72 34 20.81 34.36 20.89 34.72 20.98 35.08 21.06 35.44 21.13 35.8 21.19 36.16 21.24 36.52 21.28 36.88 21.3 37.24 21.31 37.6 21.32 37.96 21.32 38.32 21.32 38.68 21.32 39.04 21.32 39.4 21.32 39.76 21.33 40.12 21.34 40.48 21.35 40.84 21.36 41.2 21.37 41.56 21.38 41.92 21.39 42.28 21.4 42.64 21.4 43 21.4 43.36 21.41 43.72 21.41 44.08 21.41 44.44 21.41 44.8 21.41 45.16 21.41 45.52 21.41 45.88 21.41" class="primitive"/>
            </g>
          </g>
        </g>
      </g>
    </g>
  </g>
  <g class="guide ylabels" font-size="2.82" font-family="'PT Sans Caption','Helvetica Neue','Helvetica',sans-serif" fill="#6C606B" id="img-1ce068fb-12">
    <g transform="translate(7.67,78.71)">
      <g class="primitive">
        <text text-anchor="end" dy="0.35em">0</text>
      </g>
    </g>
    <g transform="translate(7.67,54.81)">
      <g class="primitive">
        <text text-anchor="end" dy="0.35em">1</text>
      </g>
    </g>
    <g transform="translate(7.67,30.9)">
      <g class="primitive">
        <text text-anchor="end" dy="0.35em">2</text>
      </g>
    </g>
    <g transform="translate(7.67,7)">
      <g class="primitive">
        <text text-anchor="end" dy="0.35em">3</text>
      </g>
    </g>
  </g>
</g>
<defs>
  <clipPath id="img-1ce068fb-4">
    <path d="M8.67,5 L 136.42 5 136.42 80.72 8.67 80.72" />
  </clipPath>
</defs>
</svg>
