<?xml version="1.0" encoding="UTF-8"?>
<svg xmlns="http://www.w3.org/2000/svg"
     xmlns:xlink="http://www.w3.org/1999/xlink"
     xmlns:gadfly="http://www.gadflyjl.org/ns"
     version="1.2"
     width="203.2mm" height="101.6mm" viewBox="0 0 203.2 101.6"
     stroke="none"
     fill="#000000"
     stroke-width="0.3"
     font-size="3.88"
>
<g class="plotroot xscalable yscalable" id="img-7c42ad64-1">
  <g font-size="3.88" font-family="'PT Sans','Helvetica Neue','Helvetica',sans-serif" fill="#564A55" stroke="#000000" stroke-opacity="0.000" id="img-7c42ad64-2">
    <text x="104.27" y="89.99" text-anchor="middle" dy="0.6em">σ</text>
  </g>
  <g class="guide xlabels" font-size="2.82" font-family="'PT Sans Caption','Helvetica Neue','Helvetica',sans-serif" fill="#6C606B" id="img-7c42ad64-3">
    <text x="12.35" y="83.32" text-anchor="middle" dy="0.6em">0.4</text>
    <text x="58.31" y="83.32" text-anchor="middle" dy="0.6em">0.5</text>
    <text x="104.27" y="83.32" text-anchor="middle" dy="0.6em">0.6</text>
    <text x="150.24" y="83.32" text-anchor="middle" dy="0.6em">0.7</text>
    <text x="196.2" y="83.32" text-anchor="middle" dy="0.6em">0.8</text>
  </g>
<g clip-path="url(#img-7c42ad64-4)">
  <g id="img-7c42ad64-5">
    <g pointer-events="visible" opacity="1" fill="#000000" fill-opacity="0.000" stroke="#000000" stroke-opacity="0.000" class="guide background" id="img-7c42ad64-6">
      <rect x="10.35" y="5" width="187.85" height="77.32"/>
    </g>
    <g class="guide ygridlines xfixed" stroke-dasharray="0.5,0.5" stroke-width="0.2" stroke="#D0D0E0" id="img-7c42ad64-7">
      <path fill="none" d="M10.35,80.31 L 198.2 80.31"/>
      <path fill="none" d="M10.35,55.88 L 198.2 55.88"/>
      <path fill="none" d="M10.35,31.44 L 198.2 31.44"/>
      <path fill="none" d="M10.35,7 L 198.2 7"/>
    </g>
    <g class="guide xgridlines yfixed" stroke-dasharray="0.5,0.5" stroke-width="0.2" stroke="#D0D0E0" id="img-7c42ad64-8">
      <path fill="none" d="M12.35,5 L 12.35 82.32"/>
      <path fill="none" d="M58.31,5 L 58.31 82.32"/>
      <path fill="none" d="M104.27,5 L 104.27 82.32"/>
      <path fill="none" d="M150.24,5 L 150.24 82.32"/>
      <path fill="none" d="M196.2,5 L 196.2 82.32"/>
    </g>
    <g class="plotpanel" id="img-7c42ad64-9">
      <g stroke-width="0.3" fill="#000000" fill-opacity="0.000" class="geometry" id="img-7c42ad64-10">
        <g stroke-dasharray="none" stroke="#00BFFF" id="img-7c42ad64-11">
          <path fill="none" d="M15.51,80.31 L 16.04 80.31 16.57 80.31 17.1 80.31 17.63 80.31 18.17 80.31 18.7 80.31 19.23 80.31 19.76 80.31 20.3 80.31 20.83 80.3 21.36 80.29 21.89 80.28 22.43 80.27 22.96 80.26 23.49 80.24 24.02 80.22 24.56 80.2 25.09 80.18 25.62 80.16 26.15 80.14 26.69 80.12 27.22 80.11 27.75 80.09 28.28 80.07 28.82 80.04 29.35 80.01 29.88 79.97 30.41 79.92 30.95 79.86 31.48 79.79 32.01 79.72 32.54 79.63 33.08 79.54 33.61 79.44 34.14 79.33 34.67 79.22 35.2 79.1 35.74 78.98 36.27 78.86 36.8 78.73 37.33 78.6 37.87 78.47 38.4 78.33 38.93 78.19 39.46 78.04 40 77.89 40.53 77.73 41.06 77.56 41.59 77.37 42.13 77.17 42.66 76.94 43.19 76.69 43.72 76.39 44.26 76.06 44.79 75.68 45.32 75.26 45.85 74.79 46.39 74.3 46.92 73.77 47.45 73.22 47.98 72.64 48.52 72.05 49.05 71.44 49.58 70.81 50.11 70.16 50.65 69.48 51.18 68.78 51.71 68.06 52.24 67.31 52.78 66.54 53.31 65.75 53.84 64.96 54.37 64.16 54.9 63.37 55.44 62.58 55.97 61.8 56.5 61 57.03 60.19 57.57 59.33 58.1 58.42 58.63 57.44 59.16 56.39 59.7 55.27 60.23 54.09 60.76 52.87 61.29 51.64 61.83 50.4 62.36 49.19 62.89 48.01 63.42 46.88 63.96 45.78 64.49 44.73 65.02 43.7 65.55 42.7 66.09 41.7 66.62 40.7 67.15 39.7 67.68 38.72 68.22 37.76 68.75 36.84 69.28 35.96 69.81 35.15 70.35 34.4 70.88 33.73 71.41 33.11 71.94 32.56 72.47 32.05 73.01 31.57 73.54 31.11 74.07 30.65 74.6 30.18 75.14 29.7 75.67 29.21 76.2 28.72 76.73 28.27 77.27 27.87 77.8 27.55 78.33 27.33 78.86 27.22 79.4 27.22 79.93 27.29 80.46 27.42 80.99 27.57 81.53 27.7 82.06 27.81 82.59 27.91 83.12 27.99 83.66 28.11 84.19 28.28 84.72 28.54 85.25 28.9 85.79 29.39 86.32 30 86.85 30.72 87.38 31.54 87.92 32.43 88.45 33.38 88.98 34.36 89.51 35.35 90.04 36.35 90.58 37.33 91.11 38.31 91.64 39.28 92.17 40.23 92.71 41.18 93.24 42.12 93.77 43.04 94.3 43.96 94.84 44.86 95.37 45.75 95.9 46.63 96.43 47.5 96.97 48.36 97.5 49.21 98.03 50.04 98.56 50.85 99.1 51.66 99.63 52.48 100.16 53.32 100.69 54.18 101.23 55.1 101.76 56.06 102.29 57.07 102.82 58.12 103.36 59.18 103.89 60.24 104.42 61.28 104.95 62.27 105.49 63.22 106.02 64.1 106.55 64.92 107.08 65.68 107.61 66.37 108.15 67 108.68 67.58 109.21 68.11 109.74 68.6 110.28 69.06 110.81 69.51 111.34 69.95 111.87 70.37 112.41 70.79 112.94 71.21 113.47 71.61 114 72 114.54 72.39 115.07 72.77 115.6 73.16 116.13 73.56 116.67 73.97 117.2 74.39 117.73 74.81 118.26 75.23 118.8 75.65 119.33 76.04 119.86 76.42 120.39 76.77 120.93 77.09 121.46 77.39 121.99 77.66 122.52 77.9 123.06 78.11 123.59 78.31 124.12 78.48 124.65 78.64 125.19 78.78 125.72 78.92 126.25 79.04 126.78 79.16 127.31 79.26 127.85 79.35 128.38 79.42 128.91 79.47 129.44 79.5 129.98 79.52 130.51 79.53 131.04 79.54 131.57 79.55 132.11 79.57 132.64 79.6 133.17 79.64 133.7 79.69 134.24 79.75 134.77 79.8 135.3 79.85 135.83 79.9 136.37 79.93 136.9 79.96 137.43 79.99 137.96 80 138.5 80.01 139.03 80.02 139.56 80.04 140.09 80.05 140.63 80.07 141.16 80.1 141.69 80.12 142.22 80.15 142.76 80.18 143.29 80.21 143.82 80.23 144.35 80.26 144.88 80.27 145.42 80.29 145.95 80.3 146.48 80.3 147.01 80.31 147.55 80.31 148.08 80.31 148.61 80.31 149.14 80.31 149.68 80.31 150.21 80.31 150.74 80.31 151.27 80.31"/>
        </g>
      </g>
    </g>
  </g>
</g>
  <g class="guide ylabels" font-size="2.82" font-family="'PT Sans Caption','Helvetica Neue','Helvetica',sans-serif" fill="#6C606B" id="img-7c42ad64-12">
    <text x="9.35" y="80.31" text-anchor="end" dy="0.35em">0</text>
    <text x="9.35" y="55.88" text-anchor="end" dy="0.35em">5</text>
    <text x="9.35" y="31.44" text-anchor="end" dy="0.35em">10</text>
    <text x="9.35" y="7" text-anchor="end" dy="0.35em">15</text>
  </g>
</g>
<defs>
  <clipPath id="img-7c42ad64-4">
  <path d="M10.35,5 L 198.2 5 198.2 82.32 10.35 82.32" />
</clipPath>
</defs>
</svg>
