<?xml version="1.0" encoding="UTF-8"?>
<svg xmlns="http://www.w3.org/2000/svg"
     xmlns:xlink="http://www.w3.org/1999/xlink"
     xmlns:gadfly="http://www.gadflyjl.org/ns"
     version="1.2"
     width="141.42mm" height="100mm" viewBox="0 0 141.42 100"
     stroke="none"
     fill="#000000"
     stroke-width="0.3"
     font-size="3.88"
>
<g class="plotroot xscalable yscalable" id="img-3b8dcf40-1">
  <g font-size="3.88" font-family="'PT Sans','Helvetica Neue','Helvetica',sans-serif" fill="#564A55" stroke="#000000" stroke-opacity="0.000" id="img-3b8dcf40-2">
    <g transform="translate(73.72,88.39)">
      <g class="primitive">
        <text text-anchor="middle" dy="0.6em">σ₁</text>
      </g>
    </g>
  </g>
  <g class="guide xlabels" font-size="2.82" font-family="'PT Sans Caption','Helvetica Neue','Helvetica',sans-serif" fill="#6C606B" id="img-3b8dcf40-3">
    <g transform="translate(13.02,81.71)">
      <g class="primitive">
        <text text-anchor="middle" dy="0.6em">0</text>
      </g>
    </g>
    <g transform="translate(37.3,81.71)">
      <g class="primitive">
        <text text-anchor="middle" dy="0.6em">1</text>
      </g>
    </g>
    <g transform="translate(61.58,81.71)">
      <g class="primitive">
        <text text-anchor="middle" dy="0.6em">2</text>
      </g>
    </g>
    <g transform="translate(85.86,81.71)">
      <g class="primitive">
        <text text-anchor="middle" dy="0.6em">3</text>
      </g>
    </g>
    <g transform="translate(110.14,81.71)">
      <g class="primitive">
        <text text-anchor="middle" dy="0.6em">4</text>
      </g>
    </g>
    <g transform="translate(134.42,81.71)">
      <g class="primitive">
        <text text-anchor="middle" dy="0.6em">5</text>
      </g>
    </g>
  </g>
  <g clip-path="url(#img-3b8dcf40-4)">
    <g id="img-3b8dcf40-5">
      <g pointer-events="visible" opacity="1" fill="#000000" fill-opacity="0.000" stroke="#000000" stroke-opacity="0.000" class="guide background" id="img-3b8dcf40-6">
        <g transform="translate(73.72,42.86)">
          <path d="M-62.7,-37.86 L 62.7 -37.86 62.7 37.86 -62.7 37.86 z" class="primitive"/>
        </g>
      </g>
      <g class="guide ygridlines xfixed" stroke-dasharray="0.5,0.5" stroke-width="0.2" stroke="#D0D0E0" id="img-3b8dcf40-7">
        <g transform="translate(73.72,78.71)">
          <path fill="none" d="M-62.7,0 L 62.7 0" class="primitive"/>
        </g>
        <g transform="translate(73.72,42.86)">
          <path fill="none" d="M-62.7,0 L 62.7 0" class="primitive"/>
        </g>
        <g transform="translate(73.72,7)">
          <path fill="none" d="M-62.7,0 L 62.7 0" class="primitive"/>
        </g>
      </g>
      <g class="guide xgridlines yfixed" stroke-dasharray="0.5,0.5" stroke-width="0.2" stroke="#D0D0E0" id="img-3b8dcf40-8">
        <g transform="translate(13.02,42.86)">
          <path fill="none" d="M0,-37.86 L 0 37.86" class="primitive"/>
        </g>
        <g transform="translate(37.3,42.86)">
          <path fill="none" d="M0,-37.86 L 0 37.86" class="primitive"/>
        </g>
        <g transform="translate(61.58,42.86)">
          <path fill="none" d="M0,-37.86 L 0 37.86" class="primitive"/>
        </g>
        <g transform="translate(85.86,42.86)">
          <path fill="none" d="M0,-37.86 L 0 37.86" class="primitive"/>
        </g>
        <g transform="translate(110.14,42.86)">
          <path fill="none" d="M0,-37.86 L 0 37.86" class="primitive"/>
        </g>
        <g transform="translate(134.42,42.86)">
          <path fill="none" d="M0,-37.86 L 0 37.86" class="primitive"/>
        </g>
      </g>
      <g class="plotpanel" id="img-3b8dcf40-9">
        <metadata>
          <boundingbox value="11.019999999999996mm 5.0mm 125.40135623730951mm 75.71499999999999mm"/>
          <unitbox value="-0.08237140267570389 1.0278881684445373 5.164742805351407 -1.055776336889075"/>
        </metadata>
        <g stroke-width="0.3" fill="#000000" fill-opacity="0.000" class="geometry" id="img-3b8dcf40-10">
          <g class="color_LCHab{Float32}(70.0f0,60.0f0,240.0f0)" stroke-dasharray="none" stroke="#00BFFF" id="img-3b8dcf40-11">
            <g transform="translate(88.2,58.19)">
              <path fill="none" d="M-42.24,20.53 L -41.91 20.53 -41.58 20.53 -41.25 20.53 -40.92 20.53 -40.59 20.53 -40.26 20.53 -39.92 20.53 -39.59 20.52 -39.26 20.52 -38.93 20.51 -38.6 20.5 -38.27 20.49 -37.94 20.47 -37.6 20.46 -37.27 20.44 -36.94 20.42 -36.61 20.41 -36.28 20.39 -35.95 20.38 -35.62 20.38 -35.29 20.38 -34.95 20.38 -34.62 20.38 -34.29 20.38 -33.96 20.37 -33.63 20.36 -33.3 20.34 -32.97 20.31 -32.63 20.27 -32.3 20.22 -31.97 20.17 -31.64 20.1 -31.31 20.03 -30.98 19.94 -30.65 19.85 -30.32 19.74 -29.98 19.62 -29.65 19.47 -29.32 19.31 -28.99 19.11 -28.66 18.89 -28.33 18.65 -28 18.39 -27.66 18.11 -27.33 17.83 -27 17.55 -26.67 17.28 -26.34 17.01 -26.01 16.77 -25.68 16.53 -25.35 16.31 -25.01 16.1 -24.68 15.87 -24.35 15.63 -24.02 15.35 -23.69 15.01 -23.36 14.61 -23.03 14.14 -22.7 13.58 -22.36 12.96 -22.03 12.26 -21.7 11.52 -21.37 10.74 -21.04 9.93 -20.71 9.12 -20.38 8.3 -20.04 7.48 -19.71 6.65 -19.38 5.81 -19.05 4.95 -18.72 4.05 -18.39 3.1 -18.06 2.09 -17.73 1.01 -17.39 -0.12 -17.06 -1.31 -16.73 -2.54 -16.4 -3.82 -16.07 -5.11 -15.74 -6.41 -15.41 -7.7 -15.07 -8.97 -14.74 -10.21 -14.41 -11.44 -14.08 -12.66 -13.75 -13.9 -13.42 -15.17 -13.09 -16.49 -12.76 -17.86 -12.42 -19.28 -12.09 -20.72 -11.76 -22.17 -11.43 -23.6 -11.1 -24.99 -10.77 -26.33 -10.44 -27.64 -10.11 -28.91 -9.77 -30.17 -9.44 -31.44 -9.11 -32.71 -8.78 -34.01 -8.45 -35.32 -8.12 -36.64 -7.79 -37.95 -7.45 -39.24 -7.12 -40.49 -6.79 -41.7 -6.46 -42.86 -6.13 -43.94 -5.8 -44.95 -5.47 -45.88 -5.14 -46.74 -4.8 -47.51 -4.47 -48.21 -4.14 -48.83 -3.81 -49.36 -3.48 -49.78 -3.15 -50.07 -2.82 -50.22 -2.48 -50.22 -2.15 -50.09 -1.82 -49.85 -1.49 -49.53 -1.16 -49.18 -0.83 -48.8 -0.5 -48.4 -0.17 -47.98 0.17 -47.5 0.5 -46.92 0.83 -46.21 1.16 -45.33 1.49 -44.29 1.82 -43.1 2.15 -41.78 2.48 -40.37 2.82 -38.94 3.15 -37.54 3.48 -36.2 3.81 -34.95 4.14 -33.79 4.47 -32.73 4.8 -31.74 5.14 -30.8 5.47 -29.88 5.8 -28.95 6.13 -27.97 6.46 -26.93 6.79 -25.82 7.12 -24.63 7.45 -23.37 7.79 -22.08 8.12 -20.79 8.45 -19.53 8.78 -18.32 9.11 -17.17 9.44 -16.06 9.77 -14.98 10.11 -13.9 10.44 -12.78 10.77 -11.62 11.1 -10.42 11.43 -9.18 11.76 -7.92 12.09 -6.67 12.42 -5.45 12.76 -4.26 13.09 -3.1 13.42 -1.97 13.75 -0.85 14.08 0.26 14.41 1.36 14.74 2.45 15.07 3.52 15.41 4.56 15.74 5.55 16.07 6.47 16.4 7.34 16.73 8.14 17.06 8.89 17.39 9.59 17.73 10.25 18.06 10.88 18.39 11.47 18.72 12.02 19.05 12.54 19.38 13.01 19.71 13.44 20.04 13.82 20.38 14.16 20.71 14.46 21.04 14.73 21.37 14.98 21.7 15.21 22.03 15.43 22.36 15.64 22.7 15.87 23.03 16.1 23.36 16.33 23.69 16.57 24.02 16.82 24.35 17.06 24.68 17.3 25.01 17.54 25.35 17.76 25.68 17.98 26.01 18.2 26.34 18.4 26.67 18.6 27 18.8 27.33 18.98 27.66 19.15 28 19.3 28.33 19.43 28.66 19.54 28.99 19.62 29.32 19.68 29.65 19.73 29.98 19.76 30.32 19.8 30.65 19.84 30.98 19.89 31.31 19.94 31.64 19.99 31.97 20.05 32.3 20.11 32.63 20.16 32.97 20.21 33.3 20.26 33.63 20.3 33.96 20.34 34.29 20.37 34.62 20.4 34.95 20.42 35.29 20.44 35.62 20.45 35.95 20.46 36.28 20.46 36.61 20.47 36.94 20.48 37.27 20.48 37.6 20.49 37.94 20.5 38.27 20.51 38.6 20.51 38.93 20.52 39.26 20.52 39.59 20.52 39.92 20.53 40.26 20.53 40.59 20.53 40.92 20.53 41.25 20.53 41.58 20.53 41.91 20.53 42.24 20.53" class="primitive"/>
            </g>
          </g>
        </g>
      </g>
    </g>
  </g>
  <g class="guide ylabels" font-size="2.82" font-family="'PT Sans Caption','Helvetica Neue','Helvetica',sans-serif" fill="#6C606B" id="img-3b8dcf40-12">
    <g transform="translate(10.02,78.71)">
      <g class="primitive">
        <text text-anchor="end" dy="0.35em">0.0</text>
      </g>
    </g>
    <g transform="translate(10.02,42.86)">
      <g class="primitive">
        <text text-anchor="end" dy="0.35em">0.5</text>
      </g>
    </g>
    <g transform="translate(10.02,7)">
      <g class="primitive">
        <text text-anchor="end" dy="0.35em">1.0</text>
      </g>
    </g>
  </g>
</g>
<defs>
  <clipPath id="img-3b8dcf40-4">
    <path d="M11.02,5 L 136.42 5 136.42 80.71 11.02 80.71" />
  </clipPath>
</defs>
</svg>
