<?xml version="1.0" encoding="UTF-8"?>
<svg xmlns="http://www.w3.org/2000/svg"
     xmlns:xlink="http://www.w3.org/1999/xlink"
     xmlns:gadfly="http://www.gadflyjl.org/ns"
     version="1.2"
     width="203.2mm" height="101.6mm" viewBox="0 0 203.2 101.6"
     stroke="none"
     fill="#000000"
     stroke-width="0.3"
     font-size="3.88"
>
<g class="plotroot xscalable yscalable" id="img-297e4750-1">
  <g font-size="3.88" font-family="'PT Sans','Helvetica Neue','Helvetica',sans-serif" fill="#564A55" stroke="#000000" stroke-opacity="0.000" id="img-297e4750-2">
    <g transform="translate(103.44,89.99)">
      <g class="primitive">
        <text text-anchor="middle" dy="0.6em">σ₁</text>
      </g>
    </g>
  </g>
  <g class="guide xlabels" font-size="2.82" font-family="'PT Sans Caption','Helvetica Neue','Helvetica',sans-serif" fill="#6C606B" id="img-297e4750-3">
    <g transform="translate(10.67,83.32)">
      <g class="primitive">
        <text text-anchor="middle" dy="0.6em">0.0</text>
      </g>
    </g>
    <g transform="translate(72.52,83.32)">
      <g class="primitive">
        <text text-anchor="middle" dy="0.6em">0.5</text>
      </g>
    </g>
    <g transform="translate(134.36,83.32)">
      <g class="primitive">
        <text text-anchor="middle" dy="0.6em">1.0</text>
      </g>
    </g>
    <g transform="translate(196.2,83.32)">
      <g class="primitive">
        <text text-anchor="middle" dy="0.6em">1.5</text>
      </g>
    </g>
  </g>
  <g clip-path="url(#img-297e4750-4)">
    <g id="img-297e4750-5">
      <g pointer-events="visible" opacity="1" fill="#000000" fill-opacity="0.000" stroke="#000000" stroke-opacity="0.000" class="guide background" id="img-297e4750-6">
        <g transform="translate(103.44,43.66)">
          <path d="M-94.76,-38.66 L 94.76 -38.66 94.76 38.66 -94.76 38.66 z" class="primitive"/>
        </g>
      </g>
      <g class="guide ygridlines xfixed" stroke-dasharray="0.5,0.5" stroke-width="0.2" stroke="#D0D0E0" id="img-297e4750-7">
        <g transform="translate(103.44,80.31)">
          <path fill="none" d="M-94.76,0 L 94.76 0" class="primitive"/>
        </g>
        <g transform="translate(103.44,61.99)">
          <path fill="none" d="M-94.76,0 L 94.76 0" class="primitive"/>
        </g>
        <g transform="translate(103.44,43.66)">
          <path fill="none" d="M-94.76,0 L 94.76 0" class="primitive"/>
        </g>
        <g transform="translate(103.44,25.33)">
          <path fill="none" d="M-94.76,0 L 94.76 0" class="primitive"/>
        </g>
        <g transform="translate(103.44,7)">
          <path fill="none" d="M-94.76,0 L 94.76 0" class="primitive"/>
        </g>
      </g>
      <g class="guide xgridlines yfixed" stroke-dasharray="0.5,0.5" stroke-width="0.2" stroke="#D0D0E0" id="img-297e4750-8">
        <g transform="translate(10.67,43.66)">
          <path fill="none" d="M0,-38.66 L 0 38.66" class="primitive"/>
        </g>
        <g transform="translate(72.52,43.66)">
          <path fill="none" d="M0,-38.66 L 0 38.66" class="primitive"/>
        </g>
        <g transform="translate(134.36,43.66)">
          <path fill="none" d="M0,-38.66 L 0 38.66" class="primitive"/>
        </g>
        <g transform="translate(196.2,43.66)">
          <path fill="none" d="M0,-38.66 L 0 38.66" class="primitive"/>
        </g>
      </g>
      <g class="plotpanel" id="img-297e4750-9">
        <metadata>
          <boundingbox value="8.673333333333346mm 5.0mm 189.52666666666667mm 77.315mm"/>
          <unitbox value="-0.016170182184052605 4.109118188638068 1.532340364368105 -4.2182363772761375"/>
        </metadata>
        <g stroke-width="0.3" fill="#000000" fill-opacity="0.000" class="geometry" id="img-297e4750-10">
          <g stroke-dasharray="none" stroke="#00BFFF" id="img-297e4750-11">
            <g transform="translate(119.32,64.4)">
              <path fill="none" d="M-70.95,15.91 L -70.39 15.91 -69.84 15.91 -69.28 15.91 -68.72 15.91 -68.17 15.91 -67.61 15.91 -67.05 15.91 -66.5 15.9 -65.94 15.9 -65.38 15.89 -64.83 15.88 -64.27 15.86 -63.72 15.84 -63.16 15.82 -62.6 15.79 -62.05 15.76 -61.49 15.74 -60.93 15.71 -60.38 15.7 -59.82 15.68 -59.26 15.67 -58.71 15.67 -58.15 15.67 -57.59 15.67 -57.04 15.67 -56.48 15.67 -55.92 15.67 -55.37 15.66 -54.81 15.64 -54.26 15.62 -53.7 15.58 -53.14 15.53 -52.59 15.47 -52.03 15.41 -51.47 15.33 -50.92 15.25 -50.36 15.17 -49.8 15.07 -49.25 14.97 -48.69 14.86 -48.13 14.73 -47.58 14.58 -47.02 14.41 -46.46 14.21 -45.91 13.98 -45.35 13.73 -44.8 13.44 -44.24 13.13 -43.68 12.81 -43.13 12.47 -42.57 12.11 -42.01 11.74 -41.46 11.35 -40.9 10.95 -40.34 10.52 -39.79 10.08 -39.23 9.61 -38.67 9.12 -38.12 8.6 -37.56 8.04 -37 7.45 -36.45 6.82 -35.89 6.14 -35.34 5.4 -34.78 4.6 -34.22 3.74 -33.67 2.83 -33.11 1.87 -32.55 0.9 -32 -0.06 -31.44 -0.99 -30.88 -1.88 -30.33 -2.72 -29.77 -3.52 -29.21 -4.29 -28.66 -5.07 -28.1 -5.88 -27.55 -6.74 -26.99 -7.68 -26.43 -8.7 -25.88 -9.8 -25.32 -10.95 -24.76 -12.14 -24.21 -13.34 -23.65 -14.54 -23.09 -15.71 -22.54 -16.87 -21.98 -18.02 -21.42 -19.18 -20.87 -20.37 -20.31 -21.62 -19.75 -22.92 -19.2 -24.25 -18.64 -25.58 -18.09 -26.87 -17.53 -28.11 -16.97 -29.27 -16.42 -30.35 -15.86 -31.36 -15.3 -32.29 -14.75 -33.17 -14.19 -33.96 -13.63 -34.65 -13.08 -35.22 -12.52 -35.66 -11.96 -35.98 -11.41 -36.2 -10.85 -36.37 -10.29 -36.54 -9.74 -36.77 -9.18 -37.08 -8.63 -37.49 -8.07 -37.99 -7.51 -38.55 -6.96 -39.11 -6.4 -39.63 -5.84 -40.05 -5.29 -40.34 -4.73 -40.47 -4.17 -40.43 -3.62 -40.21 -3.06 -39.83 -2.5 -39.32 -1.95 -38.7 -1.39 -38 -0.83 -37.25 -0.28 -36.46 0.28 -35.65 0.83 -34.81 1.39 -33.93 1.95 -33 2.5 -32.02 3.06 -30.98 3.62 -29.87 4.17 -28.7 4.73 -27.48 5.29 -26.22 5.84 -24.92 6.4 -23.62 6.96 -22.32 7.51 -21.07 8.07 -19.87 8.63 -18.75 9.18 -17.72 9.74 -16.77 10.29 -15.9 10.85 -15.09 11.41 -14.31 11.96 -13.54 12.52 -12.78 13.08 -12.01 13.63 -11.21 14.19 -10.38 14.75 -9.5 15.3 -8.56 15.86 -7.57 16.42 -6.54 16.97 -5.48 17.53 -4.43 18.09 -3.41 18.64 -2.43 19.2 -1.52 19.75 -0.65 20.31 0.16 20.87 0.95 21.42 1.71 21.98 2.45 22.54 3.17 23.09 3.85 23.65 4.5 24.21 5.1 24.76 5.66 25.32 6.19 25.88 6.69 26.43 7.19 26.99 7.68 27.55 8.16 28.1 8.62 28.66 9.06 29.21 9.47 29.77 9.85 30.33 10.2 30.88 10.51 31.44 10.8 32 11.08 32.55 11.33 33.11 11.57 33.67 11.8 34.22 12.03 34.78 12.24 35.34 12.46 35.89 12.68 36.45 12.92 37 13.16 37.56 13.41 38.12 13.66 38.67 13.9 39.23 14.14 39.79 14.35 40.34 14.54 40.9 14.7 41.46 14.84 42.01 14.95 42.57 15.05 43.13 15.13 43.68 15.2 44.24 15.26 44.8 15.32 45.35 15.38 45.91 15.43 46.46 15.47 47.02 15.5 47.58 15.53 48.13 15.56 48.69 15.58 49.25 15.6 49.8 15.61 50.36 15.63 50.92 15.64 51.47 15.66 52.03 15.67 52.59 15.67 53.14 15.68 53.7 15.68 54.26 15.68 54.81 15.68 55.37 15.69 55.92 15.7 56.48 15.72 57.04 15.74 57.59 15.77 58.15 15.79 58.71 15.82 59.26 15.83 59.82 15.85 60.38 15.85 60.93 15.86 61.49 15.87 62.05 15.87 62.6 15.88 63.16 15.88 63.72 15.89 64.27 15.89 64.83 15.9 65.38 15.9 65.94 15.91 66.5 15.91 67.05 15.91 67.61 15.91 68.17 15.91 68.72 15.91 69.28 15.91 69.84 15.91 70.39 15.91 70.95 15.91" class="primitive"/>
            </g>
          </g>
        </g>
      </g>
    </g>
  </g>
  <g class="guide ylabels" font-size="2.82" font-family="'PT Sans Caption','Helvetica Neue','Helvetica',sans-serif" fill="#6C606B" id="img-297e4750-12">
    <g transform="translate(7.67,80.31)">
      <g class="primitive">
        <text text-anchor="end" dy="0.35em">0</text>
      </g>
    </g>
    <g transform="translate(7.67,61.99)">
      <g class="primitive">
        <text text-anchor="end" dy="0.35em">1</text>
      </g>
    </g>
    <g transform="translate(7.67,43.66)">
      <g class="primitive">
        <text text-anchor="end" dy="0.35em">2</text>
      </g>
    </g>
    <g transform="translate(7.67,25.33)">
      <g class="primitive">
        <text text-anchor="end" dy="0.35em">3</text>
      </g>
    </g>
    <g transform="translate(7.67,7)">
      <g class="primitive">
        <text text-anchor="end" dy="0.35em">4</text>
      </g>
    </g>
  </g>
</g>
<defs>
  <clipPath id="img-297e4750-4">
    <path d="M8.67,5 L 198.2 5 198.2 82.32 8.67 82.32" />
  </clipPath>
</defs>
</svg>
