<?xml version="1.0" encoding="UTF-8"?>
<svg xmlns="http://www.w3.org/2000/svg"
     xmlns:xlink="http://www.w3.org/1999/xlink"
     xmlns:gadfly="http://www.gadflyjl.org/ns"
     version="1.2"
     width="203.2mm" height="101.6mm" viewBox="0 0 203.2 101.6"
     stroke="none"
     fill="#000000"
     stroke-width="0.3"
     font-size="3.88"
>
<g class="plotroot xscalable yscalable" id="img-7c42ad64-1">
  <g font-size="3.88" font-family="'PT Sans','Helvetica Neue','Helvetica',sans-serif" fill="#564A55" stroke="#000000" stroke-opacity="0.000" id="img-7c42ad64-2">
    <g transform="translate(104.27,89.99)">
      <g class="primitive">
        <text text-anchor="middle" dy="0.6em">σ</text>
      </g>
    </g>
  </g>
  <g class="guide xlabels" font-size="2.82" font-family="'PT Sans Caption','Helvetica Neue','Helvetica',sans-serif" fill="#6C606B" id="img-7c42ad64-3">
    <g transform="translate(12.35,83.32)">
      <g class="primitive">
        <text text-anchor="middle" dy="0.6em">0.4</text>
      </g>
    </g>
    <g transform="translate(58.31,83.32)">
      <g class="primitive">
        <text text-anchor="middle" dy="0.6em">0.5</text>
      </g>
    </g>
    <g transform="translate(104.27,83.32)">
      <g class="primitive">
        <text text-anchor="middle" dy="0.6em">0.6</text>
      </g>
    </g>
    <g transform="translate(150.24,83.32)">
      <g class="primitive">
        <text text-anchor="middle" dy="0.6em">0.7</text>
      </g>
    </g>
    <g transform="translate(196.2,83.32)">
      <g class="primitive">
        <text text-anchor="middle" dy="0.6em">0.8</text>
      </g>
    </g>
  </g>
  <g clip-path="url(#img-7c42ad64-4)">
    <g id="img-7c42ad64-5">
      <g pointer-events="visible" opacity="1" fill="#000000" fill-opacity="0.000" stroke="#000000" stroke-opacity="0.000" class="guide background" id="img-7c42ad64-6">
        <g transform="translate(104.27,43.66)">
          <path d="M-93.93,-38.66 L 93.93 -38.66 93.93 38.66 -93.93 38.66 z" class="primitive"/>
        </g>
      </g>
      <g class="guide ygridlines xfixed" stroke-dasharray="0.5,0.5" stroke-width="0.2" stroke="#D0D0E0" id="img-7c42ad64-7">
        <g transform="translate(104.27,80.31)">
          <path fill="none" d="M-93.93,0 L 93.93 0" class="primitive"/>
        </g>
        <g transform="translate(104.27,55.88)">
          <path fill="none" d="M-93.93,0 L 93.93 0" class="primitive"/>
        </g>
        <g transform="translate(104.27,31.44)">
          <path fill="none" d="M-93.93,0 L 93.93 0" class="primitive"/>
        </g>
        <g transform="translate(104.27,7)">
          <path fill="none" d="M-93.93,0 L 93.93 0" class="primitive"/>
        </g>
      </g>
      <g class="guide xgridlines yfixed" stroke-dasharray="0.5,0.5" stroke-width="0.2" stroke="#D0D0E0" id="img-7c42ad64-8">
        <g transform="translate(12.35,43.66)">
          <path fill="none" d="M0,-38.66 L 0 38.66" class="primitive"/>
        </g>
        <g transform="translate(58.31,43.66)">
          <path fill="none" d="M0,-38.66 L 0 38.66" class="primitive"/>
        </g>
        <g transform="translate(104.27,43.66)">
          <path fill="none" d="M0,-38.66 L 0 38.66" class="primitive"/>
        </g>
        <g transform="translate(150.24,43.66)">
          <path fill="none" d="M0,-38.66 L 0 38.66" class="primitive"/>
        </g>
        <g transform="translate(196.2,43.66)">
          <path fill="none" d="M0,-38.66 L 0 38.66" class="primitive"/>
        </g>
      </g>
      <g class="plotpanel" id="img-7c42ad64-9">
        <metadata>
          <boundingbox value="10.346666666666664mm 5.0mm 187.85333333333332mm 77.315mm"/>
          <unitbox value="0.39564870548988323 15.409193207392757 0.4087025890202336 -15.818386414785516"/>
        </metadata>
        <g stroke-width="0.3" fill="#000000" fill-opacity="0.000" class="geometry" id="img-7c42ad64-10">
          <g stroke-dasharray="none" stroke="#00BFFF" id="img-7c42ad64-11">
            <g transform="translate(83.39,63.83)">
              <path fill="none" d="M-67.88,16.48 L -67.35 16.48 -66.82 16.48 -66.29 16.48 -65.75 16.48 -65.22 16.48 -64.69 16.48 -64.16 16.48 -63.62 16.48 -63.09 16.47 -62.56 16.47 -62.03 16.46 -61.5 16.45 -60.96 16.44 -60.43 16.42 -59.9 16.41 -59.37 16.39 -58.83 16.37 -58.3 16.35 -57.77 16.33 -57.24 16.31 -56.7 16.29 -56.17 16.27 -55.64 16.26 -55.11 16.23 -54.57 16.21 -54.04 16.17 -53.51 16.13 -52.98 16.08 -52.44 16.03 -51.91 15.96 -51.38 15.88 -50.85 15.8 -50.31 15.71 -49.78 15.61 -49.25 15.5 -48.72 15.39 -48.18 15.27 -47.65 15.15 -47.12 15.03 -46.59 14.9 -46.05 14.77 -45.52 14.64 -44.99 14.5 -44.46 14.36 -43.93 14.21 -43.39 14.05 -42.86 13.89 -42.33 13.72 -41.8 13.54 -41.26 13.34 -40.73 13.11 -40.2 12.85 -39.67 12.56 -39.13 12.22 -38.6 11.84 -38.07 11.42 -37.54 10.96 -37 10.46 -36.47 9.94 -35.94 9.38 -35.41 8.81 -34.87 8.22 -34.34 7.61 -33.81 6.98 -33.28 6.32 -32.74 5.65 -32.21 4.95 -31.68 4.23 -31.15 3.48 -30.61 2.71 -30.08 1.92 -29.55 1.13 -29.02 0.33 -28.48 -0.46 -27.95 -1.25 -27.42 -2.04 -26.89 -2.83 -26.36 -3.65 -25.82 -4.5 -25.29 -5.41 -24.76 -6.39 -24.23 -7.44 -23.69 -8.56 -23.16 -9.74 -22.63 -10.96 -22.1 -12.19 -21.56 -13.43 -21.03 -14.64 -20.5 -15.82 -19.97 -16.96 -19.43 -18.05 -18.9 -19.1 -18.37 -20.13 -17.84 -21.14 -17.3 -22.14 -16.77 -23.13 -16.24 -24.13 -15.71 -25.11 -15.17 -26.07 -14.64 -26.99 -14.11 -27.87 -13.58 -28.68 -13.04 -29.43 -12.51 -30.11 -11.98 -30.72 -11.45 -31.28 -10.91 -31.79 -10.38 -32.26 -9.85 -32.72 -9.32 -33.18 -8.79 -33.65 -8.25 -34.13 -7.72 -34.62 -7.19 -35.11 -6.66 -35.56 -6.12 -35.97 -5.59 -36.28 -5.06 -36.5 -4.53 -36.61 -3.99 -36.62 -3.46 -36.54 -2.93 -36.41 -2.4 -36.27 -1.86 -36.13 -1.33 -36.02 -0.8 -35.93 -0.27 -35.84 0.27 -35.73 0.8 -35.55 1.33 -35.3 1.86 -34.93 2.4 -34.44 2.93 -33.83 3.46 -33.11 3.99 -32.3 4.53 -31.4 5.06 -30.45 5.59 -29.47 6.12 -28.48 6.66 -27.49 7.19 -26.5 7.72 -25.52 8.25 -24.56 8.79 -23.6 9.32 -22.65 9.85 -21.71 10.38 -20.79 10.91 -19.87 11.45 -18.97 11.98 -18.08 12.51 -17.2 13.04 -16.33 13.58 -15.47 14.11 -14.62 14.64 -13.79 15.17 -12.98 15.71 -12.17 16.24 -11.35 16.77 -10.52 17.3 -9.65 17.84 -8.73 18.37 -7.77 18.9 -6.76 19.43 -5.71 19.97 -4.65 20.5 -3.59 21.03 -2.55 21.56 -1.56 22.1 -0.62 22.63 0.27 23.16 1.09 23.69 1.84 24.23 2.54 24.76 3.17 25.29 3.75 25.82 4.28 26.36 4.77 26.89 5.23 27.42 5.68 27.95 6.11 28.48 6.54 29.02 6.96 29.55 7.37 30.08 7.77 30.61 8.17 31.15 8.55 31.68 8.94 32.21 9.33 32.74 9.73 33.28 10.14 33.81 10.56 34.34 10.98 34.87 11.4 35.41 11.81 35.94 12.21 36.47 12.58 37 12.93 37.54 13.26 38.07 13.55 38.6 13.82 39.13 14.07 39.67 14.28 40.2 14.47 40.73 14.65 41.26 14.8 41.8 14.95 42.33 15.08 42.86 15.21 43.39 15.32 43.93 15.43 44.46 15.52 44.99 15.59 45.52 15.64 46.05 15.67 46.59 15.69 47.12 15.7 47.65 15.71 48.18 15.72 48.72 15.74 49.25 15.77 49.78 15.81 50.31 15.86 50.85 15.91 51.38 15.97 51.91 16.02 52.44 16.06 52.98 16.1 53.51 16.13 54.04 16.15 54.57 16.17 55.11 16.18 55.64 16.19 56.17 16.2 56.7 16.22 57.24 16.24 57.77 16.26 58.3 16.29 58.83 16.32 59.37 16.35 59.9 16.38 60.43 16.4 60.96 16.42 61.5 16.44 62.03 16.45 62.56 16.46 63.09 16.47 63.62 16.48 64.16 16.48 64.69 16.48 65.22 16.48 65.75 16.48 66.29 16.48 66.82 16.48 67.35 16.48 67.88 16.48" class="primitive"/>
            </g>
          </g>
        </g>
      </g>
    </g>
  </g>
  <g class="guide ylabels" font-size="2.82" font-family="'PT Sans Caption','Helvetica Neue','Helvetica',sans-serif" fill="#6C606B" id="img-7c42ad64-12">
    <g transform="translate(9.35,80.31)">
      <g class="primitive">
        <text text-anchor="end" dy="0.35em">0</text>
      </g>
    </g>
    <g transform="translate(9.35,55.88)">
      <g class="primitive">
        <text text-anchor="end" dy="0.35em">5</text>
      </g>
    </g>
    <g transform="translate(9.35,31.44)">
      <g class="primitive">
        <text text-anchor="end" dy="0.35em">10</text>
      </g>
    </g>
    <g transform="translate(9.35,7)">
      <g class="primitive">
        <text text-anchor="end" dy="0.35em">15</text>
      </g>
    </g>
  </g>
</g>
<defs>
  <clipPath id="img-7c42ad64-4">
    <path d="M10.35,5 L 198.2 5 198.2 82.32 10.35 82.32" />
  </clipPath>
</defs>
</svg>
