<?xml version="1.0" encoding="UTF-8"?>
<svg xmlns="http://www.w3.org/2000/svg"
     xmlns:xlink="http://www.w3.org/1999/xlink"
     xmlns:gadfly="http://www.gadflyjl.org/ns"
     version="1.2"
     width="141.42mm" height="100mm" viewBox="0 0 141.42 100"
     stroke="none"
     fill="#000000"
     stroke-width="0.3"
     font-size="3.88"
>
<defs>
  <marker id="arrow" markerWidth="15" markerHeight="7" refX="5" refY="3.5" orient="auto" markerUnits="strokeWidth">
    <path d="M0,0 L15,3.5 L0,7 z" stroke="context-stroke" fill="context-stroke"/>
  </marker>
</defs>
<g class="plotroot xscalable yscalable" id="img-9b9d9bf7-1">
  <g font-size="3.88" font-family="'PT Sans','Helvetica Neue','Helvetica',sans-serif" fill="#564A55" stroke="#000000" stroke-opacity="0.000" id="img-9b9d9bf7-2">
    <g transform="translate(81.57,88.39)">
      <g class="primitive">
        <text text-anchor="middle" dy="0.6em">Standard Normal quantiles</text>
      </g>
    </g>
  </g>
  <g class="guide xlabels" font-size="2.82" font-family="'PT Sans Caption','Helvetica Neue','Helvetica',sans-serif" fill="#6C606B" id="img-9b9d9bf7-3">
    <g transform="translate(28.72,81.72)">
      <g class="primitive">
        <text text-anchor="middle" dy="0.6em">-3</text>
      </g>
    </g>
    <g transform="translate(46.34,81.72)">
      <g class="primitive">
        <text text-anchor="middle" dy="0.6em">-2</text>
      </g>
    </g>
    <g transform="translate(63.96,81.72)">
      <g class="primitive">
        <text text-anchor="middle" dy="0.6em">-1</text>
      </g>
    </g>
    <g transform="translate(81.57,81.72)">
      <g class="primitive">
        <text text-anchor="middle" dy="0.6em">0</text>
      </g>
    </g>
    <g transform="translate(99.19,81.72)">
      <g class="primitive">
        <text text-anchor="middle" dy="0.6em">1</text>
      </g>
    </g>
    <g transform="translate(116.81,81.72)">
      <g class="primitive">
        <text text-anchor="middle" dy="0.6em">2</text>
      </g>
    </g>
    <g transform="translate(134.42,81.72)">
      <g class="primitive">
        <text text-anchor="middle" dy="0.6em">3</text>
      </g>
    </g>
  </g>
  <g clip-path="url(#img-9b9d9bf7-4)">
    <g id="img-9b9d9bf7-5">
      <g pointer-events="visible" fill="#000000" fill-opacity="0.000" stroke="#000000" stroke-opacity="0.000" class="guide background" id="img-9b9d9bf7-6">
        <g transform="translate(81.57,42.86)" id="img-9b9d9bf7-7">
          <path d="M-54.85,-37.86 L 54.85 -37.86 54.85 37.86 -54.85 37.86 z" class="primitive"/>
        </g>
      </g>
      <g class="guide ygridlines xfixed" stroke-dasharray="0.5,0.5" stroke-width="0.2" stroke="#D0D0E0" id="img-9b9d9bf7-8">
        <g transform="translate(81.57,78.71)" id="img-9b9d9bf7-9">
          <path fill="none" d="M-54.85,0 L 54.85 0" class="primitive"/>
        </g>
        <g transform="translate(81.57,64.37)" id="img-9b9d9bf7-10">
          <path fill="none" d="M-54.85,0 L 54.85 0" class="primitive"/>
        </g>
        <g transform="translate(81.57,50.03)" id="img-9b9d9bf7-11">
          <path fill="none" d="M-54.85,0 L 54.85 0" class="primitive"/>
        </g>
        <g transform="translate(81.57,35.69)" id="img-9b9d9bf7-12">
          <path fill="none" d="M-54.85,0 L 54.85 0" class="primitive"/>
        </g>
        <g transform="translate(81.57,21.34)" id="img-9b9d9bf7-13">
          <path fill="none" d="M-54.85,0 L 54.85 0" class="primitive"/>
        </g>
        <g transform="translate(81.57,7)" id="img-9b9d9bf7-14">
          <path fill="none" d="M-54.85,0 L 54.85 0" class="primitive"/>
        </g>
      </g>
      <g class="guide xgridlines yfixed" stroke-dasharray="0.5,0.5" stroke-width="0.2" stroke="#D0D0E0" id="img-9b9d9bf7-15">
        <g transform="translate(28.72,42.86)" id="img-9b9d9bf7-16">
          <path fill="none" d="M0,-37.86 L 0 37.86" class="primitive"/>
        </g>
        <g transform="translate(46.34,42.86)" id="img-9b9d9bf7-17">
          <path fill="none" d="M0,-37.86 L 0 37.86" class="primitive"/>
        </g>
        <g transform="translate(63.96,42.86)" id="img-9b9d9bf7-18">
          <path fill="none" d="M0,-37.86 L 0 37.86" class="primitive"/>
        </g>
        <g transform="translate(81.57,42.86)" id="img-9b9d9bf7-19">
          <path fill="none" d="M0,-37.86 L 0 37.86" class="primitive"/>
        </g>
        <g transform="translate(99.19,42.86)" id="img-9b9d9bf7-20">
          <path fill="none" d="M0,-37.86 L 0 37.86" class="primitive"/>
        </g>
        <g transform="translate(116.81,42.86)" id="img-9b9d9bf7-21">
          <path fill="none" d="M0,-37.86 L 0 37.86" class="primitive"/>
        </g>
        <g transform="translate(134.42,42.86)" id="img-9b9d9bf7-22">
          <path fill="none" d="M0,-37.86 L 0 37.86" class="primitive"/>
        </g>
      </g>
      <g class="plotpanel" id="img-9b9d9bf7-23">
        <metadata>
          <boundingbox value="26.724999999999994mm 5.0mm 109.69635623730952mm 75.715mm"/>
          <unitbox value="-3.113532769029971 5139.440842222687 6.227065538059942 -5278.881684445375"/>
        </metadata>
        <g stroke-width="0.3" fill="#000000" fill-opacity="0.000" class="geometry" id="img-9b9d9bf7-24">
          <g class="color_LCHab{Float32}(70.0f0,60.0f0,240.0f0)" stroke-dasharray="none" stroke="#00BFFF" id="img-9b9d9bf7-25">
            <g transform="translate(81.57,43.82)" id="img-9b9d9bf7-26">
              <path fill="none" d="M-50.7,22.2 L -44.25 20.19 -40.98 19.13 -38.71 18.35 -36.94 17.68 -35.48 17.1 -34.23 16.62 -33.13 16.21 -32.15 15.84 -31.26 15.49 -30.44 15.19 -29.68 14.9 -28.98 14.64 -28.31 14.37 -27.69 14.12 -27.1 13.89 -26.53 13.66 -26 13.44 -25.48 13.23 -24.99 13.02 -24.52 12.8 -24.06 12.59 -23.62 12.42 -23.19 12.24 -22.78 12.07 -22.38 11.89 -21.99 11.73 -21.61 11.58 -21.24 11.43 -20.88 11.27 -20.52 11.12 -20.18 10.96 -19.84 10.79 -19.51 10.64 -19.19 10.5 -18.87 10.36 -18.56 10.23 -18.26 10.09 -17.96 9.96 -17.66 9.83 -17.37 9.7 -17.09 9.58 -16.81 9.45 -16.53 9.32 -16.26 9.2 -15.99 9.08 -15.73 8.95 -15.47 8.82 -15.21 8.7 -14.95 8.57 -14.7 8.46 -14.45 8.34 -14.21 8.22 -13.96 8.11 -13.72 8 -13.48 7.88 -13.25 7.76 -13.02 7.65 -12.78 7.54 -12.56 7.44 -12.33 7.33 -12.1 7.22 -11.88 7.11 -11.66 7 -11.44 6.89 -11.22 6.79 -11.01 6.69 -10.8 6.58 -10.58 6.47 -10.37 6.37 -10.16 6.26 -9.95 6.15 -9.75 6.06 -9.54 5.95 -9.34 5.86 -9.14 5.77 -8.94 5.66 -8.73 5.56 -8.54 5.45 -8.34 5.36 -8.14 5.25 -7.94 5.14 -7.75 5.06 -7.56 4.96 -7.36 4.86 -7.17 4.76 -6.98 4.66 -6.79 4.56 -6.6 4.46 -6.41 4.37 -6.22 4.26 -6.03 4.15 -5.85 4.05 -5.66 3.95 -5.47 3.87 -5.29 3.77 -5.1 3.67 -4.92 3.58 -4.74 3.48 -4.55 3.38 -4.37 3.29 -4.19 3.2 -4.01 3.11 -3.83 3.01 -3.65 2.91 -3.47 2.82 -3.29 2.72 -3.11 2.63 -2.93 2.54 -2.75 2.44 -2.57 2.34 -2.39 2.24 -2.21 2.15 -2.04 2.06 -1.86 1.96 -1.68 1.87 -1.5 1.76 -1.33 1.67 -1.15 1.58 -0.97 1.47 -0.8 1.38 -0.62 1.28 -0.44 1.19 -0.26 1.08 -0.09 0.98 0.09 0.88 0.26 0.79 0.44 0.69 0.62 0.6 0.8 0.5 0.97 0.4 1.15 0.3 1.33 0.19 1.5 0.1 1.68 0.01 1.86 -0.1 2.04 -0.2 2.21 -0.3 2.39 -0.4 2.57 -0.5 2.75 -0.59 2.93 -0.7 3.11 -0.81 3.29 -0.91 3.47 -1.02 3.65 -1.13 3.83 -1.23 4.01 -1.34 4.19 -1.45 4.37 -1.56 4.55 -1.66 4.74 -1.76 4.92 -1.86 5.1 -1.96 5.29 -2.08 5.47 -2.2 5.66 -2.31 5.85 -2.42 6.03 -2.53 6.22 -2.65 6.41 -2.75 6.6 -2.87 6.79 -2.98 6.98 -3.1 7.17 -3.21 7.36 -3.32 7.56 -3.43 7.75 -3.54 7.94 -3.66 8.14 -3.78 8.34 -3.9 8.54 -4.02 8.73 -4.15 8.94 -4.28 9.14 -4.39 9.34 -4.52 9.54 -4.64 9.75 -4.76 9.95 -4.89 10.16 -5.02 10.37 -5.14 10.58 -5.27 10.8 -5.4 11.01 -5.54 11.22 -5.66 11.44 -5.78 11.66 -5.92 11.88 -6.06 12.1 -6.21 12.33 -6.36 12.56 -6.51 12.78 -6.67 13.02 -6.8 13.25 -6.95 13.48 -7.1 13.72 -7.26 13.96 -7.41 14.21 -7.56 14.45 -7.74 14.7 -7.89 14.95 -8.07 15.21 -8.23 15.47 -8.39 15.73 -8.58 15.99 -8.76 16.26 -8.92 16.53 -9.11 16.81 -9.28 17.09 -9.45 17.37 -9.63 17.66 -9.84 17.96 -10.05 18.26 -10.25 18.56 -10.45 18.87 -10.66 19.19 -10.88 19.51 -11.08 19.84 -11.32 20.18 -11.53 20.52 -11.77 20.88 -12.03 21.24 -12.27 21.61 -12.53 21.99 -12.78 22.38 -13.04 22.78 -13.32 23.19 -13.64 23.62 -13.93 24.06 -14.24 24.52 -14.56 24.99 -14.92 25.48 -15.27 26 -15.67 26.53 -16.07 27.1 -16.49 27.69 -16.9 28.31 -17.4 28.98 -17.9 29.68 -18.45 30.44 -19.06 31.26 -19.69 32.15 -20.39 33.13 -21.11 34.23 -21.95 35.48 -22.96 36.94 -24.08 38.71 -25.61 40.98 -27.26 44.25 -29.99 50.7 -35.61" class="primitive"/>
            </g>
          </g>
        </g>
      </g>
    </g>
  </g>
  <g class="guide ylabels" font-size="2.82" font-family="'PT Sans Caption','Helvetica Neue','Helvetica',sans-serif" fill="#6C606B" id="img-9b9d9bf7-27">
    <g transform="translate(25.72,78.71)" id="img-9b9d9bf7-28">
      <g class="primitive">
        <text text-anchor="end" dy="0.35em">0</text>
      </g>
    </g>
    <g transform="translate(25.72,64.37)" id="img-9b9d9bf7-29">
      <g class="primitive">
        <text text-anchor="end" dy="0.35em">1.0×10³</text>
      </g>
    </g>
    <g transform="translate(25.72,50.03)" id="img-9b9d9bf7-30">
      <g class="primitive">
        <text text-anchor="end" dy="0.35em">2.0×10³</text>
      </g>
    </g>
    <g transform="translate(25.72,35.69)" id="img-9b9d9bf7-31">
      <g class="primitive">
        <text text-anchor="end" dy="0.35em">3.0×10³</text>
      </g>
    </g>
    <g transform="translate(25.72,21.34)" id="img-9b9d9bf7-32">
      <g class="primitive">
        <text text-anchor="end" dy="0.35em">4.0×10³</text>
      </g>
    </g>
    <g transform="translate(25.72,7)" id="img-9b9d9bf7-33">
      <g class="primitive">
        <text text-anchor="end" dy="0.35em">5.0×10³</text>
      </g>
    </g>
  </g>
  <g font-size="3.88" font-family="'PT Sans','Helvetica Neue','Helvetica',sans-serif" fill="#564A55" stroke="#000000" stroke-opacity="0.000" id="img-9b9d9bf7-34">
    <g transform="translate(8.81,40.86)" id="img-9b9d9bf7-35">
      <g class="primitive">
        <text text-anchor="middle" dy="0.35em" transform="rotate(-90,0, 2)">σ²</text>
      </g>
    </g>
  </g>
</g>
<defs>
  <clipPath id="img-9b9d9bf7-4">
    <path d="M26.72,5 L 136.42 5 136.42 80.72 26.72 80.72" />
  </clipPath>
</defs>
</svg>
