<?xml version="1.0" encoding="UTF-8"?>
<svg xmlns="http://www.w3.org/2000/svg"
     xmlns:xlink="http://www.w3.org/1999/xlink"
     xmlns:gadfly="http://www.gadflyjl.org/ns"
     version="1.2"
     width="152.4mm" height="101.6mm" viewBox="0 0 152.4 101.6"
     stroke="none"
     fill="#000000"
     stroke-width="0.3"
     font-size="3.88"
>
<g class="plotroot xscalable yscalable" id="img-a1b39c55-1">
  <g font-size="3.88" font-family="'PT Sans','Helvetica Neue','Helvetica',sans-serif" fill="#564A55" stroke="#000000" stroke-opacity="0.000" id="img-a1b39c55-2">
    <text x="87.06" y="89.99" text-anchor="middle" dy="0.6em">Standard Normal Quantiles</text>
  </g>
  <g class="guide xlabels" font-size="2.82" font-family="'PT Sans Caption','Helvetica Neue','Helvetica',sans-serif" fill="#6C606B" id="img-a1b39c55-3">
    <text x="28.73" y="83.32" text-anchor="middle" dy="0.6em">-3</text>
    <text x="48.17" y="83.32" text-anchor="middle" dy="0.6em">-2</text>
    <text x="67.62" y="83.32" text-anchor="middle" dy="0.6em">-1</text>
    <text x="87.06" y="83.32" text-anchor="middle" dy="0.6em">0</text>
    <text x="106.51" y="83.32" text-anchor="middle" dy="0.6em">1</text>
    <text x="125.95" y="83.32" text-anchor="middle" dy="0.6em">2</text>
    <text x="145.4" y="83.32" text-anchor="middle" dy="0.6em">3</text>
  </g>
<g clip-path="url(#img-a1b39c55-4)">
  <g id="img-a1b39c55-5">
    <g pointer-events="visible" opacity="1" fill="#000000" fill-opacity="0.000" stroke="#000000" stroke-opacity="0.000" class="guide background" id="img-a1b39c55-6">
      <rect x="26.73" y="5" width="120.67" height="77.32"/>
    </g>
    <g class="guide ygridlines xfixed" stroke-dasharray="0.5,0.5" stroke-width="0.2" stroke="#D0D0E0" id="img-a1b39c55-7">
      <path fill="none" d="M26.73,80.31 L 147.4 80.31"/>
      <path fill="none" d="M26.73,68.1 L 147.4 68.1"/>
      <path fill="none" d="M26.73,55.88 L 147.4 55.88"/>
      <path fill="none" d="M26.73,43.66 L 147.4 43.66"/>
      <path fill="none" d="M26.73,31.44 L 147.4 31.44"/>
      <path fill="none" d="M26.73,19.22 L 147.4 19.22"/>
      <path fill="none" d="M26.73,7 L 147.4 7"/>
    </g>
    <g class="guide xgridlines yfixed" stroke-dasharray="0.5,0.5" stroke-width="0.2" stroke="#D0D0E0" id="img-a1b39c55-8">
      <path fill="none" d="M28.73,5 L 28.73 82.32"/>
      <path fill="none" d="M48.17,5 L 48.17 82.32"/>
      <path fill="none" d="M67.62,5 L 67.62 82.32"/>
      <path fill="none" d="M87.06,5 L 87.06 82.32"/>
      <path fill="none" d="M106.51,5 L 106.51 82.32"/>
      <path fill="none" d="M125.95,5 L 125.95 82.32"/>
      <path fill="none" d="M145.4,5 L 145.4 82.32"/>
    </g>
    <g class="plotpanel" id="img-a1b39c55-9">
      <g stroke-width="0.3" fill="#000000" fill-opacity="0.000" class="geometry" id="img-a1b39c55-10">
        <g stroke-dasharray="none" stroke="#00BFFF" id="img-a1b39c55-11">
          <path fill="none" d="M31.09,80.31 L 38.21 80.31 41.82 80.31 44.33 80.31 46.29 80.31 47.9 80.31 49.28 80.31 50.49 80.31 51.57 80.31 52.56 80.31 53.46 80.31 54.3 80.31 55.08 80.31 55.81 80.31 56.5 80.31 57.15 80.31 57.77 80.31 58.36 80.31 58.93 80.31 59.48 80.31 60 80.31 60.5 80.31 60.99 80.31 61.46 80.31 61.92 80.31 62.36 80.28 62.79 80.15 63.21 80.01 63.62 79.88 64.02 79.76 64.41 79.63 64.79 79.5 65.16 79.38 65.52 79.25 65.88 79.14 66.23 79.02 66.57 78.9 66.91 78.79 67.24 78.66 67.56 78.55 67.88 78.43 68.2 78.32 68.51 78.21 68.81 78.1 69.11 78 69.41 77.9 69.7 77.79 69.99 77.67 70.28 77.57 70.56 77.46 70.83 77.36 71.11 77.25 71.38 77.15 71.65 77.04 71.91 76.93 72.18 76.83 72.44 76.73 72.7 76.63 72.95 76.52 73.2 76.42 73.45 76.32 73.7 76.21 73.95 76.11 74.19 76 74.43 75.9 74.67 75.81 74.91 75.71 75.15 75.61 75.38 75.49 75.61 75.39 75.84 75.3 76.07 75.2 76.3 75.1 76.53 74.99 76.75 74.88 76.98 74.78 77.2 74.67 77.42 74.58 77.64 74.48 77.86 74.37 78.08 74.28 78.29 74.18 78.51 74.07 78.72 73.98 78.94 73.87 79.15 73.76 79.36 73.66 79.57 73.56 79.78 73.46 79.99 73.35 80.2 73.25 80.4 73.14 80.61 73.04 80.81 72.92 81.02 72.83 81.22 72.72 81.43 72.61 81.63 72.5 81.83 72.41 82.04 72.3 82.24 72.19 82.44 72.09 82.64 71.98 82.84 71.87 83.04 71.77 83.24 71.67 83.43 71.57 83.63 71.45 83.83 71.34 84.03 71.23 84.23 71.13 84.42 71.02 84.62 70.91 84.82 70.81 85.01 70.7 85.21 70.59 85.4 70.48 85.6 70.37 85.79 70.26 85.99 70.15 86.18 70.04 86.38 69.92 86.58 69.81 86.77 69.71 86.97 69.6 87.16 69.49 87.35 69.38 87.55 69.27 87.75 69.16 87.94 69.04 88.14 68.93 88.33 68.82 88.53 68.7 88.72 68.59 88.92 68.48 89.11 68.37 89.31 68.24 89.51 68.12 89.7 68.01 89.9 67.89 90.1 67.77 90.29 67.64 90.49 67.52 90.69 67.41 90.89 67.29 91.09 67.17 91.29 67.05 91.49 66.92 91.69 66.8 91.89 66.68 92.09 66.54 92.29 66.4 92.49 66.26 92.7 66.12 92.9 65.99 93.11 65.85 93.31 65.71 93.52 65.58 93.72 65.45 93.93 65.31 94.14 65.17 94.35 65.05 94.56 64.91 94.77 64.77 94.98 64.62 95.19 64.48 95.4 64.33 95.62 64.19 95.83 64.05 96.05 63.91 96.27 63.76 96.48 63.59 96.7 63.44 96.93 63.27 97.15 63.12 97.37 62.96 97.6 62.79 97.82 62.62 98.05 62.46 98.28 62.29 98.51 62.1 98.74 61.92 98.98 61.76 99.22 61.59 99.45 61.4 99.69 61.23 99.93 61.05 100.18 60.85 100.42 60.67 100.67 60.47 100.92 60.28 101.18 60.09 101.43 59.89 101.69 59.71 101.95 59.51 102.21 59.3 102.48 59.09 102.74 58.87 103.02 58.64 103.29 58.41 103.57 58.19 103.85 57.97 104.13 57.74 104.42 57.5 104.71 57.26 105.01 57.01 105.31 56.75 105.62 56.49 105.93 56.23 106.24 55.96 106.56 55.71 106.89 55.43 107.22 55.14 107.55 54.83 107.9 54.55 108.25 54.24 108.6 53.9 108.97 53.57 109.34 53.24 109.72 52.91 110.11 52.57 110.5 52.19 110.91 51.81 111.33 51.4 111.76 51.01 112.21 50.59 112.66 50.15 113.13 49.72 113.62 49.25 114.13 48.81 114.65 48.24 115.19 47.76 115.76 47.21 116.35 46.62 116.97 46.02 117.63 45.36 118.32 44.7 119.05 43.89 119.83 43.15 120.66 42.25 121.57 41.3 122.55 40.18 123.64 39.03 124.85 37.51 126.23 35.8 127.84 33.84 129.79 31.45 132.3 28.33 135.91 23.59 143.03 13.72"/>
        </g>
      </g>
    </g>
  </g>
</g>
  <g class="guide ylabels" font-size="2.82" font-family="'PT Sans Caption','Helvetica Neue','Helvetica',sans-serif" fill="#6C606B" id="img-a1b39c55-12">
    <text x="25.72" y="80.31" text-anchor="end" dy="0.35em">0</text>
    <text x="25.72" y="68.1" text-anchor="end" dy="0.35em">1.0×10³</text>
    <text x="25.72" y="55.88" text-anchor="end" dy="0.35em">2.0×10³</text>
    <text x="25.72" y="43.66" text-anchor="end" dy="0.35em">3.0×10³</text>
    <text x="25.72" y="31.44" text-anchor="end" dy="0.35em">4.0×10³</text>
    <text x="25.72" y="19.22" text-anchor="end" dy="0.35em">5.0×10³</text>
    <text x="25.72" y="7" text-anchor="end" dy="0.35em">6.0×10³</text>
  </g>
  <g font-size="3.88" font-family="'PT Sans','Helvetica Neue','Helvetica',sans-serif" fill="#564A55" stroke="#000000" stroke-opacity="0.000" id="img-a1b39c55-13">
    <text x="8.81" y="41.66" text-anchor="middle" dy="0.35em" transform="rotate(-90, 8.81, 43.66)">σ₁²</text>
  </g>
</g>
<defs>
  <clipPath id="img-a1b39c55-4">
  <path d="M26.73,5 L 147.4 5 147.4 82.32 26.73 82.32" />
</clipPath>
</defs>
</svg>
