<?xml version="1.0" encoding="UTF-8"?>
<svg xmlns="http://www.w3.org/2000/svg"
     xmlns:xlink="http://www.w3.org/1999/xlink"
     xmlns:gadfly="http://www.gadflyjl.org/ns"
     version="1.2"
     width="203.2mm" height="101.6mm" viewBox="0 0 203.2 101.6"
     stroke="none"
     fill="#000000"
     stroke-width="0.3"
     font-size="3.88"
>
<g class="plotroot xscalable yscalable" id="img-d4da0e1d-1">
  <g font-size="3.88" font-family="'PT Sans','Helvetica Neue','Helvetica',sans-serif" fill="#564A55" stroke="#000000" stroke-opacity="0.000" id="img-d4da0e1d-2">
    <text x="104.61" y="89.99" text-anchor="middle" dy="0.6em">σ₁</text>
  </g>
  <g class="guide xlabels" font-size="2.82" font-family="'PT Sans Caption','Helvetica Neue','Helvetica',sans-serif" fill="#6C606B" id="img-d4da0e1d-3">
    <text x="13.02" y="83.32" text-anchor="middle" dy="0.6em">0</text>
    <text x="58.82" y="83.32" text-anchor="middle" dy="0.6em">20</text>
    <text x="104.61" y="83.32" text-anchor="middle" dy="0.6em">40</text>
    <text x="150.4" y="83.32" text-anchor="middle" dy="0.6em">60</text>
    <text x="196.2" y="83.32" text-anchor="middle" dy="0.6em">80</text>
  </g>
<g clip-path="url(#img-d4da0e1d-4)">
  <g id="img-d4da0e1d-5">
    <g pointer-events="visible" opacity="1" fill="#000000" fill-opacity="0.000" stroke="#000000" stroke-opacity="0.000" class="guide background" id="img-d4da0e1d-6">
      <rect x="11.02" y="5" width="187.18" height="77.32"/>
    </g>
    <g class="guide xgridlines yfixed" stroke-dasharray="0.5,0.5" stroke-width="0.2" stroke="#D0D0E0" id="img-d4da0e1d-7">
      <path fill="none" d="M13.02,5 L 13.02 82.32"/>
      <path fill="none" d="M58.82,5 L 58.82 82.32"/>
      <path fill="none" d="M104.61,5 L 104.61 82.32"/>
      <path fill="none" d="M150.4,5 L 150.4 82.32"/>
      <path fill="none" d="M196.2,5 L 196.2 82.32"/>
    </g>
    <g class="guide ygridlines xfixed" stroke-dasharray="0.5,0.5" stroke-width="0.2" stroke="#D0D0E0" id="img-d4da0e1d-8">
      <path fill="none" d="M11.02,80.31 L 198.2 80.31"/>
      <path fill="none" d="M11.02,72.98 L 198.2 72.98"/>
      <path fill="none" d="M11.02,14.33 L 198.2 14.33"/>
      <path fill="none" d="M11.02,7 L 198.2 7"/>
    </g>
    <g class="plotpanel" id="img-d4da0e1d-9">
      <g class="yfixed" id="img-d4da0e1d-10">
        <g stroke-dasharray="none" stroke-width="0.3" stroke="#FF0000" id="img-d4da0e1d-11">
          <path fill="none" d="M110.6,5 L 110.6 82.32"/>
        </g>
        <g stroke-dasharray="none" stroke-width="0.3" stroke="#FF0000" id="img-d4da0e1d-12">
          <path fill="none" d="M13.02,5 L 13.02 82.32"/>
        </g>
      </g>
      <g class="yfixed" id="img-d4da0e1d-13">
        <g stroke-dasharray="none" stroke-width="0.3" stroke="#FFA500" id="img-d4da0e1d-14">
          <path fill="none" d="M126.3,5 L 126.3 82.32"/>
        </g>
        <g stroke-dasharray="none" stroke-width="0.3" stroke="#FFA500" id="img-d4da0e1d-15">
          <path fill="none" d="M21.75,5 L 21.75 82.32"/>
        </g>
      </g>
      <g stroke-width="0.3" fill="#000000" fill-opacity="0.000" class="geometry" stroke-dasharray="none" stroke="#00BFFF" id="img-d4da0e1d-16">
        <path fill="none" d="M13.02,80.17 L 13.02 79.88 13.02 79.58 13.02 79.29 13.02 79 13.02 78.7 13.02 78.41 13.02 78.12 13.02 77.82 13.02 77.53 13.02 77.24 13.02 76.94 13.02 76.65 13.02 76.36 13.02 76.06 13.02 75.77 13.02 75.48 13.02 75.18 13.02 74.89 13.02 74.6 13.02 74.3 13.02 74.01 13.02 73.72 13.02 73.42 20.58 73.13 23.94 72.84 26.05 72.54 28.12 72.25 29.79 71.96 30.91 71.66 32.44 71.37 34 71.08 35.11 70.78 36.21 70.49 37.14 70.2 38.17 69.9 39.01 69.61 39.87 69.32 40.8 69.02 41.75 68.73 42.65 68.44 43.29 68.14 44.23 67.85 45.01 67.56 45.56 67.26 46.25 66.97 46.97 66.68 47.7 66.39 48.36 66.09 49 65.8 49.51 65.51 49.93 65.21 50.59 64.92 51.19 64.63 51.87 64.33 52.28 64.04 52.89 63.75 53.43 63.45 53.97 63.16 54.55 62.87 55.09 62.57 55.69 62.28 56.1 61.99 56.55 61.69 56.97 61.4 57.49 61.11 57.84 60.81 58.22 60.52 58.67 60.23 59.12 59.93 59.54 59.64 60.02 59.35 60.37 59.05 60.93 58.76 61.39 58.47 61.88 58.17 62.38 57.88 62.86 57.59 63.25 57.29 63.69 57 64.13 56.71 64.57 56.41 64.87 56.12 65.26 55.83 65.66 55.53 65.92 55.24 66.41 54.95 66.85 54.65 67.38 54.36 67.72 54.07 68.11 53.77 68.57 53.48 68.92 53.19 69.3 52.9 69.69 52.6 70.11 52.31 70.49 52.02 70.89 51.72 71.24 51.43 71.65 51.14 72.08 50.84 72.5 50.55 72.93 50.26 73.33 49.96 73.65 49.67 73.96 49.38 74.29 49.08 74.6 48.79 75.13 48.5 75.45 48.2 75.87 47.91 76.25 47.62 76.61 47.32 76.93 47.03 77.33 46.74 77.72 46.44 78.15 46.15 78.5 45.86 78.87 45.56 79.28 45.27 79.69 44.98 80.11 44.68 80.47 44.39 80.74 44.1 81.16 43.8 81.45 43.51 81.73 43.22 82.05 42.92 82.47 42.63 82.92 42.34 83.23 42.04 83.58 41.75 83.94 41.46 84.26 41.16 84.58 40.87 84.96 40.58 85.33 40.29 85.76 39.99 86.12 39.7 86.5 39.41 86.96 39.11 87.28 38.82 87.66 38.53 87.98 38.23 88.27 37.94 88.61 37.65 89.06 37.35 89.37 37.06 89.76 36.77 90.16 36.47 90.43 36.18 90.8 35.89 91.15 35.59 91.48 35.3 91.87 35.01 92.2 34.71 92.59 34.42 93.01 34.13 93.34 33.83 93.69 33.54 94.06 33.25 94.43 32.95 94.83 32.66 95.19 32.37 95.63 32.07 95.93 31.78 96.23 31.49 96.56 31.19 96.86 30.9 97.2 30.61 97.44 30.31 97.89 30.02 98.29 29.73 98.72 29.43 99.19 29.14 99.55 28.85 100 28.55 100.42 28.26 100.85 27.97 101.33 27.67 101.73 27.38 102.2 27.09 102.62 26.8 103.09 26.5 103.43 26.21 103.86 25.92 104.38 25.62 104.74 25.33 105.23 25.04 105.59 24.74 106.02 24.45 106.51 24.16 106.9 23.86 107.24 23.57 107.76 23.28 108.18 22.98 108.76 22.69 109.33 22.4 109.89 22.1 110.24 21.81 110.79 21.52 111.19 21.22 111.69 20.93 112.24 20.64 112.7 20.34 113.23 20.05 113.94 19.76 114.52 19.46 115.08 19.17 115.39 18.88 115.84 18.58 116.48 18.29 117.09 18 117.85 17.7 118.4 17.41 119.11 17.12 119.87 16.82 120.5 16.53 121.07 16.24 121.89 15.94 122.75 15.65 123.5 15.36 124.43 15.06 125.18 14.77 125.9 14.48 126.73 14.18 127.32 13.89 128.06 13.6 129.01 13.31 129.9 13.01 131.05 12.72 131.92 12.43 133.09 12.13 134.14 11.84 135.2 11.55 136.1 11.25 137.18 10.96 138.28 10.67 139.38 10.37 140.9 10.08 142.03 9.79 144.35 9.49 146.2 9.2 148.44 8.91 151.06 8.61 153.95 8.32 158.01 8.03 162.69 7.73 168.64 7.44 182.81 7.15"/>
      </g>
    </g>
  </g>
</g>
  <g class="guide ylabels" font-size="2.82" font-family="'PT Sans Caption','Helvetica Neue','Helvetica',sans-serif" fill="#6C606B" id="img-d4da0e1d-17">
    <text x="10.02" y="80.31" text-anchor="end" dy="0.35em">0.0</text>
    <text x="10.02" y="72.98" text-anchor="end" dy="0.35em">0.1</text>
    <text x="10.02" y="14.33" text-anchor="end" dy="0.35em">0.9</text>
    <text x="10.02" y="7" text-anchor="end" dy="0.35em">1.0</text>
  </g>
</g>
<defs>
  <clipPath id="img-d4da0e1d-4">
  <path d="M11.02,5 L 198.2 5 198.2 82.32 11.02 82.32" />
</clipPath>
</defs>
</svg>
