<?xml version="1.0" encoding="UTF-8"?>
<svg xmlns="http://www.w3.org/2000/svg"
     xmlns:xlink="http://www.w3.org/1999/xlink"
     xmlns:gadfly="http://www.gadflyjl.org/ns"
     version="1.2"
     width="203.2mm" height="101.6mm" viewBox="0 0 203.2 101.6"
     stroke="none"
     fill="#000000"
     stroke-width="0.3"
     font-size="3.88"
>
<g class="plotroot xscalable yscalable" id="img-110109c0-1">
  <g font-size="3.88" font-family="'PT Sans','Helvetica Neue','Helvetica',sans-serif" fill="#564A55" stroke="#000000" stroke-opacity="0.000" id="img-110109c0-2">
    <text x="108.08" y="89.99" text-anchor="middle" dy="0.6em">Standard Normal Quantiles</text>
  </g>
  <g class="guide xlabels" font-size="2.82" font-family="'PT Sans Caption','Helvetica Neue','Helvetica',sans-serif" fill="#6C606B" id="img-110109c0-3">
    <text x="19.96" y="83.32" text-anchor="middle" dy="0.6em">-3</text>
    <text x="49.33" y="83.32" text-anchor="middle" dy="0.6em">-2</text>
    <text x="78.71" y="83.32" text-anchor="middle" dy="0.6em">-1</text>
    <text x="108.08" y="83.32" text-anchor="middle" dy="0.6em">0</text>
    <text x="137.45" y="83.32" text-anchor="middle" dy="0.6em">1</text>
    <text x="166.83" y="83.32" text-anchor="middle" dy="0.6em">2</text>
    <text x="196.2" y="83.32" text-anchor="middle" dy="0.6em">3</text>
  </g>
<g clip-path="url(#img-110109c0-4)">
  <g id="img-110109c0-5">
    <g pointer-events="visible" opacity="1" fill="#000000" fill-opacity="0.000" stroke="#000000" stroke-opacity="0.000" class="guide background" id="img-110109c0-6">
      <rect x="17.96" y="5" width="180.24" height="77.32"/>
    </g>
    <g class="guide ygridlines xfixed" stroke-dasharray="0.5,0.5" stroke-width="0.2" stroke="#D0D0E0" id="img-110109c0-7">
      <path fill="none" d="M17.96,80.32 L 198.2 80.32"/>
      <path fill="none" d="M17.96,61.99 L 198.2 61.99"/>
      <path fill="none" d="M17.96,43.66 L 198.2 43.66"/>
      <path fill="none" d="M17.96,25.33 L 198.2 25.33"/>
      <path fill="none" d="M17.96,7 L 198.2 7"/>
    </g>
    <g class="guide xgridlines yfixed" stroke-dasharray="0.5,0.5" stroke-width="0.2" stroke="#D0D0E0" id="img-110109c0-8">
      <path fill="none" d="M19.96,5 L 19.96 82.32"/>
      <path fill="none" d="M49.33,5 L 49.33 82.32"/>
      <path fill="none" d="M78.71,5 L 78.71 82.32"/>
      <path fill="none" d="M108.08,5 L 108.08 82.32"/>
      <path fill="none" d="M137.45,5 L 137.45 82.32"/>
      <path fill="none" d="M166.83,5 L 166.83 82.32"/>
      <path fill="none" d="M196.2,5 L 196.2 82.32"/>
    </g>
    <g class="plotpanel" id="img-110109c0-9">
      <g stroke-width="0.3" fill="#000000" fill-opacity="0.000" class="geometry" id="img-110109c0-10">
        <g stroke-dasharray="none" stroke="#00BFFF" id="img-110109c0-11">
          <path fill="none" d="M23.54,80.32 L 34.29 80.32 39.75 80.32 43.54 80.32 46.48 80.32 48.92 80.32 51 80.32 52.83 80.32 54.47 80.32 55.96 80.32 57.32 80.32 58.59 80.32 59.76 80.32 60.87 80.32 61.91 80.32 62.9 80.32 63.83 80.32 64.73 80.32 65.59 80.32 66.41 80.32 67.2 80.32 67.96 80.32 68.7 80.32 69.41 80.32 70.1 80.32 70.77 78.72 71.42 76.92 72.05 75.76 72.67 74.87 73.27 74.12 73.86 73.46 74.43 72.83 74.99 72.28 75.54 71.76 76.08 71.31 76.61 70.87 77.13 70.45 77.64 70.07 78.13 69.66 78.63 69.3 79.11 68.94 79.58 68.61 80.05 68.28 80.51 67.97 80.97 67.7 81.41 67.42 81.86 67.13 82.29 66.84 82.72 66.57 83.15 66.31 83.57 66.05 83.98 65.8 84.39 65.56 84.8 65.31 85.2 65.07 85.59 64.84 85.99 64.61 86.38 64.4 86.76 64.17 87.14 63.96 87.52 63.74 87.9 63.52 88.27 63.31 88.64 63.1 89 62.9 89.36 62.71 89.72 62.52 90.08 62.32 90.43 62.11 90.78 61.91 91.13 61.75 91.48 61.57 91.82 61.38 92.17 61.18 92.51 60.98 92.84 60.8 93.18 60.62 93.51 60.47 93.85 60.28 94.18 60.1 94.51 59.94 94.83 59.77 95.16 59.6 95.48 59.44 95.8 59.26 96.12 59.09 96.44 58.93 96.76 58.77 97.08 58.61 97.39 58.44 97.71 58.28 98.02 58.11 98.33 57.96 98.64 57.78 98.95 57.63 99.26 57.46 99.57 57.3 99.87 57.14 100.18 57.01 100.49 56.85 100.79 56.69 101.09 56.54 101.4 56.38 101.7 56.22 102 56.07 102.3 55.94 102.6 55.79 102.9 55.63 103.2 55.47 103.5 55.33 103.79 55.18 104.09 55.04 104.39 54.89 104.68 54.75 104.98 54.61 105.28 54.46 105.57 54.31 105.87 54.17 106.16 54.03 106.46 53.89 106.75 53.75 107.05 53.59 107.34 53.45 107.64 53.31 107.93 53.18 108.23 53.04 108.52 52.9 108.82 52.77 109.11 52.62 109.4 52.48 109.7 52.34 109.99 52.2 110.29 52.06 110.59 51.93 110.88 51.79 111.18 51.66 111.47 51.51 111.77 51.37 112.07 51.24 112.36 51.09 112.66 50.96 112.96 50.8 113.26 50.66 113.56 50.53 113.86 50.39 114.16 50.26 114.46 50.12 114.76 49.98 115.07 49.84 115.37 49.7 115.67 49.54 115.98 49.39 116.28 49.23 116.59 49.08 116.9 48.94 117.21 48.79 117.52 48.64 117.83 48.49 118.14 48.35 118.45 48.2 118.77 48.06 119.08 47.92 119.4 47.77 119.72 47.62 120.03 47.47 120.36 47.32 120.68 47.17 121 47.03 121.33 46.88 121.65 46.73 121.98 46.58 122.31 46.41 122.64 46.26 122.98 46.09 123.31 45.93 123.65 45.78 123.99 45.61 124.33 45.44 124.68 45.28 125.03 45.11 125.37 44.93 125.73 44.76 126.08 44.6 126.44 44.44 126.8 44.26 127.16 44.09 127.52 43.92 127.89 43.74 128.26 43.57 128.64 43.38 129.02 43.2 129.4 43.03 129.78 42.84 130.17 42.68 130.56 42.5 130.96 42.31 131.36 42.12 131.77 41.93 132.18 41.72 132.59 41.52 133.01 41.32 133.44 41.13 133.87 40.93 134.3 40.72 134.74 40.51 135.19 40.3 135.65 40.07 136.11 39.85 136.57 39.63 137.05 39.4 137.53 39.19 138.02 38.95 138.52 38.72 139.03 38.46 139.55 38.23 140.08 37.98 140.62 37.7 141.17 37.44 141.73 37.18 142.3 36.91 142.89 36.65 143.49 36.35 144.11 36.05 144.74 35.73 145.39 35.43 146.06 35.11 146.75 34.78 147.46 34.46 148.2 34.11 148.96 33.78 149.75 33.36 150.57 33.01 151.43 32.61 152.32 32.19 153.26 31.77 154.25 31.3 155.29 30.84 156.39 30.28 157.57 29.77 158.83 29.16 160.2 28.53 161.69 27.79 163.32 27.04 165.16 26.08 167.24 25 169.67 23.79 172.62 22.36 176.41 20.54 181.87 17.87 192.62 12.66"/>
        </g>
      </g>
    </g>
  </g>
</g>
  <g class="guide ylabels" font-size="2.82" font-family="'PT Sans Caption','Helvetica Neue','Helvetica',sans-serif" fill="#6C606B" id="img-110109c0-12">
    <text x="16.96" y="80.32" text-anchor="end" dy="0.35em">0</text>
    <text x="16.96" y="61.99" text-anchor="end" dy="0.35em">20</text>
    <text x="16.96" y="43.66" text-anchor="end" dy="0.35em">40</text>
    <text x="16.96" y="25.33" text-anchor="end" dy="0.35em">60</text>
    <text x="16.96" y="7" text-anchor="end" dy="0.35em">80</text>
  </g>
  <g font-size="3.88" font-family="'PT Sans','Helvetica Neue','Helvetica',sans-serif" fill="#564A55" stroke="#000000" stroke-opacity="0.000" id="img-110109c0-13">
    <text x="8.81" y="41.66" text-anchor="middle" dy="0.35em" transform="rotate(-90, 8.81, 43.66)">σ₁</text>
  </g>
</g>
<defs>
  <clipPath id="img-110109c0-4">
  <path d="M17.96,5 L 198.2 5 198.2 82.32 17.96 82.32" />
</clipPath>
</defs>
</svg>
