<?xml version="1.0" encoding="UTF-8"?>
<svg xmlns="http://www.w3.org/2000/svg"
     xmlns:xlink="http://www.w3.org/1999/xlink"
     xmlns:gadfly="http://www.gadflyjl.org/ns"
     version="1.2"
     width="203.2mm" height="101.6mm" viewBox="0 0 203.2 101.6"
     stroke="none"
     fill="#000000"
     stroke-width="0.3"
     font-size="3.88"
>
<g class="plotroot xscalable yscalable" id="img-a379e6ab-1">
  <g font-size="3.88" font-family="'PT Sans','Helvetica Neue','Helvetica',sans-serif" fill="#564A55" stroke="#000000" stroke-opacity="0.000" id="img-a379e6ab-2">
    <text x="109.75" y="89.99" text-anchor="middle" dy="0.6em">Standard Normal Quantiles</text>
  </g>
  <g class="guide xlabels" font-size="2.82" font-family="'PT Sans Caption','Helvetica Neue','Helvetica',sans-serif" fill="#6C606B" id="img-a379e6ab-3">
    <text x="23.31" y="83.32" text-anchor="middle" dy="0.6em">-3</text>
    <text x="52.12" y="83.32" text-anchor="middle" dy="0.6em">-2</text>
    <text x="80.94" y="83.32" text-anchor="middle" dy="0.6em">-1</text>
    <text x="109.75" y="83.32" text-anchor="middle" dy="0.6em">0</text>
    <text x="138.57" y="83.32" text-anchor="middle" dy="0.6em">1</text>
    <text x="167.38" y="83.32" text-anchor="middle" dy="0.6em">2</text>
    <text x="196.2" y="83.32" text-anchor="middle" dy="0.6em">3</text>
  </g>
<g clip-path="url(#img-a379e6ab-4)">
  <g id="img-a379e6ab-5">
    <g pointer-events="visible" opacity="1" fill="#000000" fill-opacity="0.000" stroke="#000000" stroke-opacity="0.000" class="guide background" id="img-a379e6ab-6">
      <rect x="21.31" y="5" width="176.89" height="77.32"/>
    </g>
    <g class="guide ygridlines xfixed" stroke-dasharray="0.5,0.5" stroke-width="0.2" stroke="#D0D0E0" id="img-a379e6ab-7">
      <path fill="none" d="M21.31,80.32 L 198.2 80.32"/>
      <path fill="none" d="M21.31,55.88 L 198.2 55.88"/>
      <path fill="none" d="M21.31,31.44 L 198.2 31.44"/>
      <path fill="none" d="M21.31,7 L 198.2 7"/>
    </g>
    <g class="guide xgridlines yfixed" stroke-dasharray="0.5,0.5" stroke-width="0.2" stroke="#D0D0E0" id="img-a379e6ab-8">
      <path fill="none" d="M23.31,5 L 23.31 82.32"/>
      <path fill="none" d="M52.12,5 L 52.12 82.32"/>
      <path fill="none" d="M80.94,5 L 80.94 82.32"/>
      <path fill="none" d="M109.75,5 L 109.75 82.32"/>
      <path fill="none" d="M138.57,5 L 138.57 82.32"/>
      <path fill="none" d="M167.38,5 L 167.38 82.32"/>
      <path fill="none" d="M196.2,5 L 196.2 82.32"/>
    </g>
    <g class="plotpanel" id="img-a379e6ab-9">
      <g stroke-width="0.3" fill="#000000" fill-opacity="0.000" class="geometry" stroke-dasharray="none" stroke="#00BFFF" id="img-a379e6ab-10">
        <path fill="none" d="M26.82,67.69 L 37.36 64.48 42.72 62.89 46.44 61.79 49.33 60.83 51.71 60.22 53.76 59.45 55.56 58.78 57.16 58.29 58.62 57.87 59.96 57.44 61.2 57.09 62.35 56.72 63.44 56.31 64.46 55.97 65.43 55.66 66.35 55.48 67.23 55.26 68.07 54.95 68.87 54.77 69.65 54.54 70.4 54.28 71.12 53.98 71.82 53.77 72.49 53.55 73.15 53.36 73.79 53.18 74.41 52.99 75.01 52.83 75.6 52.63 76.18 52.44 76.74 52.29 77.29 52.16 77.83 52.01 78.36 51.85 78.88 51.68 79.39 51.51 79.89 51.36 80.38 51.2 80.86 51.06 81.33 50.94 81.8 50.77 82.26 50.66 82.71 50.54 83.16 50.43 83.59 50.31 84.03 50.16 84.46 50.03 84.88 49.88 85.29 49.79 85.71 49.66 86.11 49.57 86.51 49.43 86.91 49.32 87.31 49.17 87.7 49.06 88.08 48.95 88.46 48.86 88.84 48.76 89.21 48.61 89.58 48.51 89.95 48.4 90.32 48.3 90.68 48.19 91.04 48.09 91.39 47.99 91.74 47.89 92.09 47.81 92.44 47.69 92.79 47.59 93.13 47.51 93.47 47.42 93.81 47.33 94.14 47.23 94.48 47.11 94.81 47.02 95.14 46.92 95.46 46.79 95.79 46.7 96.11 46.6 96.44 46.53 96.76 46.44 97.08 46.34 97.39 46.25 97.71 46.16 98.02 46.08 98.34 45.99 98.65 45.91 98.96 45.79 99.27 45.7 99.58 45.61 99.88 45.54 100.19 45.44 100.49 45.35 100.8 45.27 101.1 45.18 101.4 45.08 101.7 44.98 102 44.9 102.3 44.78 102.6 44.69 102.9 44.62 103.2 44.5 103.49 44.41 103.79 44.33 104.08 44.23 104.38 44.13 104.67 44.04 104.96 43.96 105.26 43.86 105.55 43.75 105.84 43.68 106.13 43.6 106.42 43.52 106.71 43.42 107 43.29 107.29 43.21 107.58 43.13 107.87 43.05 108.16 42.97 108.45 42.91 108.74 42.8 109.03 42.72 109.32 42.62 109.61 42.56 109.9 42.45 110.19 42.36 110.47 42.29 110.76 42.19 111.05 42.09 111.34 42 111.63 41.92 111.92 41.83 112.21 41.72 112.5 41.61 112.79 41.52 113.08 41.4 113.37 41.32 113.66 41.24 113.96 41.15 114.25 41.05 114.54 40.99 114.83 40.9 115.13 40.82 115.42 40.72 115.72 40.63 116.01 40.55 116.31 40.48 116.61 40.39 116.9 40.32 117.2 40.24 117.5 40.15 117.8 40.08 118.1 39.97 118.4 39.89 118.71 39.8 119.01 39.7 119.32 39.61 119.62 39.51 119.93 39.42 120.24 39.33 120.55 39.24 120.86 39.16 121.17 39.09 121.48 38.99 121.8 38.86 122.11 38.75 122.43 38.64 122.75 38.56 123.07 38.44 123.39 38.36 123.72 38.25 124.04 38.17 124.37 38.06 124.7 37.97 125.03 37.87 125.36 37.78 125.7 37.67 126.04 37.57 126.38 37.47 126.72 37.36 127.06 37.24 127.41 37.15 127.76 37.05 128.11 36.93 128.47 36.81 128.83 36.72 129.19 36.61 129.55 36.51 129.92 36.4 130.29 36.3 130.67 36.19 131.04 36.07 131.42 35.96 131.81 35.84 132.2 35.74 132.59 35.62 132.99 35.51 133.39 35.38 133.8 35.21 134.21 35.07 134.63 34.93 135.05 34.82 135.48 34.7 135.91 34.54 136.35 34.44 136.8 34.3 137.25 34.13 137.71 34.03 138.17 33.92 138.65 33.73 139.13 33.62 139.62 33.46 140.12 33.29 140.63 33.18 141.14 33.06 141.67 32.9 142.21 32.73 142.76 32.56 143.32 32.38 143.9 32.25 144.49 32.08 145.1 31.94 145.72 31.76 146.36 31.58 147.01 31.4 147.69 31.21 148.39 30.97 149.11 30.76 149.86 30.59 150.63 30.37 151.44 30.14 152.28 29.89 153.16 29.6 154.08 29.34 155.04 29.03 156.07 28.78 157.15 28.5 158.31 28.24 159.54 27.82 160.88 27.44 162.34 27.03 163.95 26.64 165.75 26.11 167.79 25.4 170.18 24.83 173.07 23.86 176.79 22.89 182.14 21.65 192.69 19.12"/>
      </g>
    </g>
  </g>
</g>
  <g class="guide ylabels" font-size="2.82" font-family="'PT Sans Caption','Helvetica Neue','Helvetica',sans-serif" fill="#6C606B" id="img-a379e6ab-11">
    <text x="20.3" y="80.32" text-anchor="end" dy="0.35em">1450</text>
    <text x="20.3" y="55.88" text-anchor="end" dy="0.35em">1500</text>
    <text x="20.3" y="31.44" text-anchor="end" dy="0.35em">1550</text>
    <text x="20.3" y="7" text-anchor="end" dy="0.35em">1600</text>
  </g>
  <g font-size="3.88" font-family="'PT Sans','Helvetica Neue','Helvetica',sans-serif" fill="#564A55" stroke="#000000" stroke-opacity="0.000" id="img-a379e6ab-12">
    <text x="8.81" y="41.66" text-anchor="middle" dy="0.35em" transform="rotate(-90, 8.81, 43.66)">β₁</text>
  </g>
</g>
<defs>
  <clipPath id="img-a379e6ab-4">
  <path d="M21.31,5 L 198.2 5 198.2 82.32 21.31 82.32" />
</clipPath>
</defs>
</svg>
