<?xml version="1.0" encoding="UTF-8"?>
<svg xmlns="http://www.w3.org/2000/svg"
     xmlns:xlink="http://www.w3.org/1999/xlink"
     xmlns:gadfly="http://www.gadflyjl.org/ns"
     version="1.2"
     width="203.2mm" height="101.6mm" viewBox="0 0 203.2 101.6"
     stroke="none"
     fill="#000000"
     stroke-width="0.3"
     font-size="3.88"
>
<g class="plotroot xscalable yscalable" id="img-1a0b75ab-1">
  <g font-size="3.88" font-family="'PT Sans','Helvetica Neue','Helvetica',sans-serif" fill="#564A55" stroke="#000000" stroke-opacity="0.000" id="img-1a0b75ab-2">
    <text x="104.61" y="89.99" text-anchor="middle" dy="0.6em">σ₁</text>
  </g>
  <g class="guide xlabels" font-size="2.82" font-family="'PT Sans Caption','Helvetica Neue','Helvetica',sans-serif" fill="#6C606B" id="img-1a0b75ab-3">
    <text x="13.02" y="83.32" text-anchor="middle" dy="0.6em">0</text>
    <text x="58.82" y="83.32" text-anchor="middle" dy="0.6em">20</text>
    <text x="104.61" y="83.32" text-anchor="middle" dy="0.6em">40</text>
    <text x="150.4" y="83.32" text-anchor="middle" dy="0.6em">60</text>
    <text x="196.2" y="83.32" text-anchor="middle" dy="0.6em">80</text>
  </g>
<g clip-path="url(#img-1a0b75ab-4)">
  <g id="img-1a0b75ab-5">
    <g pointer-events="visible" opacity="1" fill="#000000" fill-opacity="0.000" stroke="#000000" stroke-opacity="0.000" class="guide background" id="img-1a0b75ab-6">
      <rect x="11.02" y="5" width="187.18" height="77.32"/>
    </g>
    <g class="guide xgridlines yfixed" stroke-dasharray="0.5,0.5" stroke-width="0.2" stroke="#D0D0E0" id="img-1a0b75ab-7">
      <path fill="none" d="M13.02,5 L 13.02 82.32"/>
      <path fill="none" d="M58.82,5 L 58.82 82.32"/>
      <path fill="none" d="M104.61,5 L 104.61 82.32"/>
      <path fill="none" d="M150.4,5 L 150.4 82.32"/>
      <path fill="none" d="M196.2,5 L 196.2 82.32"/>
    </g>
    <g class="guide ygridlines xfixed" stroke-dasharray="0.5,0.5" stroke-width="0.2" stroke="#D0D0E0" id="img-1a0b75ab-8">
      <path fill="none" d="M11.02,80.31 L 198.2 80.31"/>
      <path fill="none" d="M11.02,72.98 L 198.2 72.98"/>
      <path fill="none" d="M11.02,14.33 L 198.2 14.33"/>
      <path fill="none" d="M11.02,7 L 198.2 7"/>
    </g>
    <g class="plotpanel" id="img-1a0b75ab-9">
      <g class="yfixed" id="img-1a0b75ab-10">
        <g stroke-dasharray="none" stroke-width="0.3" stroke="#FF0000" id="img-1a0b75ab-11">
          <path fill="none" d="M110.2,5 L 110.2 82.32"/>
        </g>
        <g stroke-dasharray="none" stroke-width="0.3" stroke="#FF0000" id="img-1a0b75ab-12">
          <path fill="none" d="M13.02,5 L 13.02 82.32"/>
        </g>
      </g>
      <g class="yfixed" id="img-1a0b75ab-13">
        <g stroke-dasharray="none" stroke-width="0.3" stroke="#FFA500" id="img-1a0b75ab-14">
          <path fill="none" d="M125.56,5 L 125.56 82.32"/>
        </g>
        <g stroke-dasharray="none" stroke-width="0.3" stroke="#FFA500" id="img-1a0b75ab-15">
          <path fill="none" d="M13.02,5 L 13.02 82.32"/>
        </g>
      </g>
      <g stroke-width="0.3" fill="#000000" fill-opacity="0.000" class="geometry" id="img-1a0b75ab-16">
        <g stroke-dasharray="none" stroke="#00BFFF" id="img-1a0b75ab-17">
          <path fill="none" d="M13.02,80.17 L 13.02 79.88 13.02 79.58 13.02 79.29 13.02 79 13.02 78.7 13.02 78.41 13.02 78.12 13.02 77.82 13.02 77.53 13.02 77.24 13.02 76.94 13.02 76.65 13.02 76.36 13.02 76.06 13.02 75.77 13.02 75.48 13.02 75.18 13.02 74.89 13.02 74.6 13.02 74.3 13.02 74.01 13.02 73.72 13.02 73.42 13.02 73.13 17 72.84 21.51 72.54 24.39 72.25 26.62 71.96 28.49 71.66 30.15 71.37 31.73 71.08 33.1 70.78 34.4 70.49 35.52 70.2 36.62 69.9 37.66 69.61 38.62 69.32 39.63 69.02 40.54 68.73 41.43 68.44 42.27 68.14 43.1 67.85 43.87 67.56 44.55 67.26 45.23 66.97 45.95 66.68 46.69 66.39 47.37 66.09 48.01 65.8 48.65 65.51 49.28 65.21 49.89 64.92 50.51 64.63 51.12 64.33 51.69 64.04 52.26 63.75 52.79 63.45 53.35 63.16 53.89 62.87 54.44 62.57 54.99 62.28 55.52 61.99 56.03 61.69 56.53 61.4 57 61.11 57.48 60.81 57.97 60.52 58.51 60.23 58.99 59.93 59.41 59.64 59.85 59.35 60.33 59.05 60.83 58.76 61.33 58.47 61.77 58.17 62.22 57.88 62.61 57.59 63.07 57.29 63.52 57 63.92 56.71 64.34 56.41 64.78 56.12 65.17 55.83 65.63 55.53 66.04 55.24 66.46 54.95 66.84 54.65 67.25 54.36 67.67 54.07 68.07 53.77 68.49 53.48 68.88 53.19 69.33 52.9 69.71 52.6 70.12 52.31 70.52 52.02 70.91 51.72 71.25 51.43 71.65 51.14 72.06 50.84 72.43 50.55 72.83 50.26 73.22 49.96 73.59 49.67 73.93 49.38 74.29 49.08 74.7 48.79 75.09 48.5 75.44 48.2 75.81 47.91 76.18 47.62 76.54 47.32 76.9 47.03 77.24 46.74 77.62 46.44 77.99 46.15 78.35 45.86 78.7 45.56 79.05 45.27 79.4 44.98 79.79 44.68 80.15 44.39 80.49 44.1 80.82 43.8 81.18 43.51 81.52 43.22 81.85 42.92 82.21 42.63 82.58 42.34 82.92 42.04 83.26 41.75 83.61 41.46 83.94 41.16 84.29 40.87 84.62 40.58 85 40.29 85.35 39.99 85.67 39.7 86.04 39.41 86.38 39.11 86.75 38.82 87.1 38.53 87.45 38.23 87.78 37.94 88.12 37.65 88.45 37.35 88.82 37.06 89.16 36.77 89.52 36.47 89.91 36.18 90.29 35.89 90.68 35.59 91.05 35.3 91.41 35.01 91.79 34.71 92.17 34.42 92.53 34.13 92.89 33.83 93.25 33.54 93.62 33.25 93.96 32.95 94.32 32.66 94.7 32.37 95.07 32.07 95.45 31.78 95.83 31.49 96.19 31.19 96.56 30.9 96.93 30.61 97.3 30.31 97.73 30.02 98.11 29.73 98.53 29.43 98.92 29.14 99.31 28.85 99.74 28.55 100.16 28.26 100.56 27.97 100.97 27.67 101.44 27.38 101.85 27.09 102.24 26.8 102.65 26.5 103.1 26.21 103.52 25.92 103.95 25.62 104.41 25.33 104.84 25.04 105.29 24.74 105.74 24.45 106.18 24.16 106.64 23.86 107.06 23.57 107.51 23.28 107.98 22.98 108.45 22.69 108.94 22.4 109.45 22.1 109.96 21.81 110.46 21.52 110.93 21.22 111.44 20.93 111.95 20.64 112.48 20.34 113.01 20.05 113.57 19.76 114.13 19.46 114.67 19.17 115.24 18.88 115.76 18.58 116.36 18.29 116.95 18 117.58 17.7 118.17 17.41 118.8 17.12 119.49 16.82 120.14 16.53 120.8 16.24 121.46 15.94 122.13 15.65 122.88 15.36 123.62 15.06 124.41 14.77 125.16 14.48 125.95 14.18 126.78 13.89 127.6 13.6 128.48 13.31 129.29 13.01 130.34 12.72 131.21 12.43 132.2 12.13 133.26 11.84 134.32 11.55 135.5 11.25 136.64 10.96 138.03 10.67 139.31 10.37 140.82 10.08 142.41 9.79 144.25 9.49 146.12 9.2 148.54 8.91 151.22 8.61 154.24 8.32 157.82 8.03 162.36 7.73 169.04 7.44 182.06 7.15"/>
        </g>
      </g>
    </g>
  </g>
</g>
  <g class="guide ylabels" font-size="2.82" font-family="'PT Sans Caption','Helvetica Neue','Helvetica',sans-serif" fill="#6C606B" id="img-1a0b75ab-18">
    <text x="10.02" y="80.31" text-anchor="end" dy="0.35em">0.0</text>
    <text x="10.02" y="72.98" text-anchor="end" dy="0.35em">0.1</text>
    <text x="10.02" y="14.33" text-anchor="end" dy="0.35em">0.9</text>
    <text x="10.02" y="7" text-anchor="end" dy="0.35em">1.0</text>
  </g>
</g>
<defs>
  <clipPath id="img-1a0b75ab-4">
  <path d="M11.02,5 L 198.2 5 198.2 82.32 11.02 82.32" />
</clipPath>
</defs>
</svg>
