<?xml version="1.0" encoding="UTF-8"?>
<svg xmlns="http://www.w3.org/2000/svg"
     xmlns:xlink="http://www.w3.org/1999/xlink"
     xmlns:gadfly="http://www.gadflyjl.org/ns"
     version="1.2"
     width="203.2mm" height="101.6mm" viewBox="0 0 203.2 101.6"
     stroke="none"
     fill="#000000"
     stroke-width="0.3"
     font-size="3.88"
>
<g class="plotroot xscalable yscalable" id="img-a5a3f5c1-1">
  <g font-size="3.88" font-family="'PT Sans','Helvetica Neue','Helvetica',sans-serif" fill="#564A55" stroke="#000000" stroke-opacity="0.000" id="img-a5a3f5c1-2">
    <text x="107.7" y="89.99" text-anchor="middle" dy="0.6em">Standard Normal quantiles</text>
  </g>
  <g class="guide xlabels" font-size="2.82" font-family="'PT Sans Caption','Helvetica Neue','Helvetica',sans-serif" fill="#6C606B" id="img-a5a3f5c1-3">
    <text x="19.2" y="83.32" text-anchor="middle" dy="0.6em">-3</text>
    <text x="48.7" y="83.32" text-anchor="middle" dy="0.6em">-2</text>
    <text x="78.2" y="83.32" text-anchor="middle" dy="0.6em">-1</text>
    <text x="107.7" y="83.32" text-anchor="middle" dy="0.6em">0</text>
    <text x="137.2" y="83.32" text-anchor="middle" dy="0.6em">1</text>
    <text x="166.7" y="83.32" text-anchor="middle" dy="0.6em">2</text>
    <text x="196.2" y="83.32" text-anchor="middle" dy="0.6em">3</text>
  </g>
<g clip-path="url(#img-a5a3f5c1-4)">
  <g id="img-a5a3f5c1-5">
    <g pointer-events="visible" opacity="1" fill="#000000" fill-opacity="0.000" stroke="#000000" stroke-opacity="0.000" class="guide background" id="img-a5a3f5c1-6">
      <rect x="17.2" y="5" width="181" height="77.32"/>
    </g>
    <g class="guide ygridlines xfixed" stroke-dasharray="0.5,0.5" stroke-width="0.2" stroke="#D0D0E0" id="img-a5a3f5c1-7">
      <path fill="none" d="M17.2,80.32 L 198.2 80.32"/>
      <path fill="none" d="M17.2,61.99 L 198.2 61.99"/>
      <path fill="none" d="M17.2,43.66 L 198.2 43.66"/>
      <path fill="none" d="M17.2,25.33 L 198.2 25.33"/>
      <path fill="none" d="M17.2,7 L 198.2 7"/>
    </g>
    <g class="guide xgridlines yfixed" stroke-dasharray="0.5,0.5" stroke-width="0.2" stroke="#D0D0E0" id="img-a5a3f5c1-8">
      <path fill="none" d="M19.2,5 L 19.2 82.32"/>
      <path fill="none" d="M48.7,5 L 48.7 82.32"/>
      <path fill="none" d="M78.2,5 L 78.2 82.32"/>
      <path fill="none" d="M107.7,5 L 107.7 82.32"/>
      <path fill="none" d="M137.2,5 L 137.2 82.32"/>
      <path fill="none" d="M166.7,5 L 166.7 82.32"/>
      <path fill="none" d="M196.2,5 L 196.2 82.32"/>
    </g>
    <g class="plotpanel" id="img-a5a3f5c1-9">
      <g stroke-width="0.3" fill="#000000" fill-opacity="0.000" class="geometry" id="img-a5a3f5c1-10">
        <g stroke-dasharray="none" stroke="#00BFFF" id="img-a5a3f5c1-11">
          <path fill="none" d="M22.79,53.05 L 33.59 50.97 39.07 49.93 42.88 49.19 45.84 48.57 48.28 48.04 50.38 47.61 52.21 47.24 53.86 46.92 55.35 46.61 56.72 46.35 57.99 46.1 59.17 45.87 60.28 45.65 61.33 45.44 62.32 45.25 63.26 45.05 64.16 44.87 65.02 44.7 65.85 44.52 66.64 44.35 67.41 44.18 68.15 44.04 68.86 43.9 69.55 43.76 70.23 43.62 70.88 43.49 71.52 43.37 72.14 43.25 72.74 43.12 73.33 43 73.91 42.88 74.47 42.75 75.02 42.63 75.56 42.52 76.09 42.41 76.61 42.31 77.12 42.2 77.63 42.1 78.12 42.01 78.6 41.91 79.08 41.82 79.55 41.71 80.01 41.62 80.47 41.52 80.92 41.44 81.36 41.34 81.8 41.25 82.23 41.15 82.66 41.05 83.08 40.97 83.5 40.88 83.91 40.79 84.32 40.71 84.72 40.63 85.12 40.54 85.51 40.46 85.9 40.38 86.29 40.3 86.67 40.22 87.05 40.14 87.43 40.06 87.8 39.98 88.17 39.9 88.54 39.82 88.9 39.75 89.26 39.68 89.62 39.6 89.98 39.52 90.33 39.45 90.68 39.37 91.03 39.29 91.37 39.22 91.72 39.15 92.06 39.08 92.4 39.02 92.74 38.94 93.07 38.87 93.4 38.8 93.74 38.73 94.07 38.65 94.39 38.58 94.72 38.52 95.05 38.45 95.37 38.38 95.69 38.31 96.01 38.24 96.33 38.17 96.65 38.1 96.97 38.04 97.28 37.96 97.6 37.89 97.91 37.82 98.22 37.75 98.53 37.69 98.84 37.63 99.15 37.56 99.46 37.49 99.77 37.43 100.07 37.36 100.38 37.3 100.68 37.24 100.99 37.17 101.29 37.11 101.59 37.04 101.89 36.98 102.19 36.91 102.5 36.85 102.8 36.79 103.1 36.72 103.39 36.66 103.69 36.59 103.99 36.53 104.29 36.46 104.59 36.4 104.88 36.34 105.18 36.27 105.48 36.21 105.77 36.15 106.07 36.08 106.37 36.02 106.66 35.95 106.96 35.89 107.26 35.82 107.55 35.75 107.85 35.69 108.14 35.62 108.44 35.56 108.73 35.5 109.03 35.44 109.33 35.37 109.62 35.31 109.92 35.24 110.22 35.18 110.51 35.12 110.81 35.05 111.11 34.99 111.41 34.92 111.7 34.85 112 34.79 112.3 34.73 112.6 34.66 112.9 34.59 113.2 34.53 113.5 34.46 113.81 34.39 114.11 34.32 114.41 34.26 114.72 34.19 115.02 34.12 115.33 34.05 115.63 33.98 115.94 33.92 116.25 33.86 116.56 33.79 116.87 33.71 117.18 33.64 117.49 33.57 117.8 33.5 118.12 33.43 118.43 33.36 118.75 33.29 119.07 33.22 119.39 33.15 119.71 33.08 120.03 33.01 120.35 32.94 120.68 32.87 121 32.8 121.33 32.73 121.66 32.65 121.99 32.58 122.33 32.5 122.66 32.42 123 32.35 123.34 32.28 123.68 32.2 124.02 32.13 124.37 32.05 124.72 31.97 125.07 31.9 125.42 31.82 125.78 31.74 126.14 31.66 126.5 31.59 126.86 31.51 127.23 31.43 127.6 31.35 127.97 31.26 128.35 31.17 128.73 31.08 129.11 30.98 129.5 30.9 129.89 30.82 130.28 30.73 130.68 30.63 131.08 30.55 131.49 30.45 131.9 30.35 132.32 30.26 132.74 30.16 133.16 30.06 133.6 29.97 134.03 29.86 134.48 29.76 134.93 29.66 135.38 29.56 135.85 29.46 136.32 29.36 136.79 29.26 137.28 29.13 137.77 29.02 138.27 28.9 138.78 28.79 139.3 28.67 139.84 28.55 140.38 28.43 140.93 28.3 141.49 28.18 142.07 28.04 142.66 27.9 143.26 27.77 143.88 27.62 144.52 27.48 145.17 27.33 145.84 27.18 146.54 27.01 147.25 26.85 147.99 26.68 148.76 26.5 149.55 26.31 150.37 26.12 151.24 25.9 152.13 25.69 153.08 25.46 154.07 25.24 155.11 24.98 156.22 24.72 157.41 24.43 158.67 24.11 160.04 23.78 161.54 23.42 163.18 23.05 165.02 22.62 167.12 22.11 169.56 21.55 172.52 20.79 176.33 19.99 181.81 18.68 192.61 16.06"/>
        </g>
      </g>
    </g>
  </g>
</g>
  <g class="guide ylabels" font-size="2.82" font-family="'PT Sans Caption','Helvetica Neue','Helvetica',sans-serif" fill="#6C606B" id="img-a5a3f5c1-12">
    <text x="16.2" y="80.32" text-anchor="end" dy="0.35em">0</text>
    <text x="16.2" y="61.99" text-anchor="end" dy="0.35em">20</text>
    <text x="16.2" y="43.66" text-anchor="end" dy="0.35em">40</text>
    <text x="16.2" y="25.33" text-anchor="end" dy="0.35em">60</text>
    <text x="16.2" y="7" text-anchor="end" dy="0.35em">80</text>
  </g>
  <g font-size="3.88" font-family="'PT Sans','Helvetica Neue','Helvetica',sans-serif" fill="#564A55" stroke="#000000" stroke-opacity="0.000" id="img-a5a3f5c1-13">
    <text x="9.85" y="43.66" text-anchor="end" dy="0.35em">σ</text>
  </g>
</g>
<defs>
  <clipPath id="img-a5a3f5c1-4">
  <path d="M17.2,5 L 198.2 5 198.2 82.32 17.2 82.32" />
</clipPath>
</defs>
</svg>
