<?xml version="1.0" encoding="UTF-8"?>
<svg xmlns="http://www.w3.org/2000/svg"
     xmlns:xlink="http://www.w3.org/1999/xlink"
     xmlns:gadfly="http://www.gadflyjl.org/ns"
     version="1.2"
     width="203.2mm" height="101.6mm" viewBox="0 0 203.2 101.6"
     stroke="none"
     fill="#000000"
     stroke-width="0.3"
     font-size="3.88"
>
<defs>
  <marker id="arrow" markerWidth="15" markerHeight="7" refX="5" refY="3.5" orient="auto" markerUnits="strokeWidth">
    <path d="M0,0 L15,3.5 L0,7 z" stroke="context-stroke" fill="context-stroke"/>
  </marker>
</defs>
<g class="plotroot xscalable yscalable" id="img-394fdf55-1">
  <g font-size="3.88" font-family="'PT Sans','Helvetica Neue','Helvetica',sans-serif" fill="#564A55" stroke="#000000" stroke-opacity="0.000" id="img-394fdf55-2">
    <g transform="translate(105.11,89.99)">
      <g class="primitive">
        <text text-anchor="middle" dy="0.6em">κ⁻¹</text>
      </g>
    </g>
  </g>
  <g class="guide xlabels" font-size="2.82" font-family="'PT Sans Caption','Helvetica Neue','Helvetica',sans-serif" fill="#6C606B" id="img-394fdf55-3">
    <g transform="translate(14.02,83.32)">
      <g class="primitive">
        <text text-anchor="middle" dy="0.6em">0.0</text>
      </g>
    </g>
    <g transform="translate(59.56,83.32)">
      <g class="primitive">
        <text text-anchor="middle" dy="0.6em">0.1</text>
      </g>
    </g>
    <g transform="translate(105.11,83.32)">
      <g class="primitive">
        <text text-anchor="middle" dy="0.6em">0.2</text>
      </g>
    </g>
    <g transform="translate(150.66,83.32)">
      <g class="primitive">
        <text text-anchor="middle" dy="0.6em">0.3</text>
      </g>
    </g>
    <g transform="translate(196.2,83.32)">
      <g class="primitive">
        <text text-anchor="middle" dy="0.6em">0.4</text>
      </g>
    </g>
  </g>
  <g clip-path="url(#img-394fdf55-4)">
    <g id="img-394fdf55-5">
      <g pointer-events="visible" fill="#000000" fill-opacity="0.000" stroke="#000000" stroke-opacity="0.000" class="guide background" id="img-394fdf55-6">
        <g transform="translate(105.11,43.66)" id="img-394fdf55-7">
          <path d="M-93.09,-38.66 L 93.09 -38.66 93.09 38.66 -93.09 38.66 z" class="primitive"/>
        </g>
      </g>
      <g class="guide ygridlines xfixed" stroke-dasharray="0.5,0.5" stroke-width="0.2" stroke="#D0D0E0" id="img-394fdf55-8">
        <g transform="translate(105.11,80.32)" id="img-394fdf55-9">
          <path fill="none" d="M-93.09,0 L 93.09 0" class="primitive"/>
        </g>
        <g transform="translate(105.11,55.88)" id="img-394fdf55-10">
          <path fill="none" d="M-93.09,0 L 93.09 0" class="primitive"/>
        </g>
        <g transform="translate(105.11,31.44)" id="img-394fdf55-11">
          <path fill="none" d="M-93.09,0 L 93.09 0" class="primitive"/>
        </g>
        <g transform="translate(105.11,7)" id="img-394fdf55-12">
          <path fill="none" d="M-93.09,0 L 93.09 0" class="primitive"/>
        </g>
      </g>
      <g class="guide xgridlines yfixed" stroke-dasharray="0.5,0.5" stroke-width="0.2" stroke="#D0D0E0" id="img-394fdf55-13">
        <g transform="translate(14.02,43.66)" id="img-394fdf55-14">
          <path fill="none" d="M0,-38.66 L 0 38.66" class="primitive"/>
        </g>
        <g transform="translate(59.56,43.66)" id="img-394fdf55-15">
          <path fill="none" d="M0,-38.66 L 0 38.66" class="primitive"/>
        </g>
        <g transform="translate(105.11,43.66)" id="img-394fdf55-16">
          <path fill="none" d="M0,-38.66 L 0 38.66" class="primitive"/>
        </g>
        <g transform="translate(150.66,43.66)" id="img-394fdf55-17">
          <path fill="none" d="M0,-38.66 L 0 38.66" class="primitive"/>
        </g>
        <g transform="translate(196.2,43.66)" id="img-394fdf55-18">
          <path fill="none" d="M0,-38.66 L 0 38.66" class="primitive"/>
        </g>
      </g>
      <g class="plotpanel" id="img-394fdf55-19">
        <metadata>
          <boundingbox value="12.02000000000001mm 5.0mm 186.17999999999998mm 77.315mm"/>
          <unitbox value="-0.00439126138983423 308.18386414785516 0.4087825227796684 -316.3677282957103"/>
        </metadata>
        <g shape-rendering="crispEdges" stroke-width="0.3" id="img-394fdf55-20">
          <g stroke="#000000" stroke-opacity="0.000" class="geometry" fill="#00BFFF" id="img-394fdf55-21">
            <g transform="translate(42.71,80.19)" id="img-394fdf55-22">
              <path d="M-0.48,-0.12 L 0.48 -0.12 0.48 0.12 -0.48 0.12 z" class="primitive"/>
            </g>
            <g transform="translate(43.62,80.32)" id="img-394fdf55-23">
              <path d="M-0.48,-0 L 0.48 -0 0.48 0 -0.48 0 z" class="primitive"/>
            </g>
            <g transform="translate(44.53,80.19)" id="img-394fdf55-24">
              <path d="M-0.48,-0.12 L 0.48 -0.12 0.48 0.12 -0.48 0.12 z" class="primitive"/>
            </g>
            <g transform="translate(45.45,80.07)" id="img-394fdf55-25">
              <path d="M-0.48,-0.24 L 0.48 -0.24 0.48 0.24 -0.48 0.24 z" class="primitive"/>
            </g>
            <g transform="translate(46.36,80.32)" id="img-394fdf55-26">
              <path d="M-0.48,-0 L 0.48 -0 0.48 0 -0.48 0 z" class="primitive"/>
            </g>
            <g transform="translate(47.27,80.07)" id="img-394fdf55-27">
              <path d="M-0.48,-0.24 L 0.48 -0.24 0.48 0.24 -0.48 0.24 z" class="primitive"/>
            </g>
            <g transform="translate(48.18,79.95)" id="img-394fdf55-28">
              <path d="M-0.48,-0.37 L 0.48 -0.37 0.48 0.37 -0.48 0.37 z" class="primitive"/>
            </g>
            <g transform="translate(49.1,79.7)" id="img-394fdf55-29">
              <path d="M-0.48,-0.61 L 0.48 -0.61 0.48 0.61 -0.48 0.61 z" class="primitive"/>
            </g>
            <g transform="translate(50.01,79.7)" id="img-394fdf55-30">
              <path d="M-0.48,-0.61 L 0.48 -0.61 0.48 0.61 -0.48 0.61 z" class="primitive"/>
            </g>
            <g transform="translate(50.92,79.09)" id="img-394fdf55-31">
              <path d="M-0.48,-1.22 L 0.48 -1.22 0.48 1.22 -0.48 1.22 z" class="primitive"/>
            </g>
            <g transform="translate(51.83,79.46)" id="img-394fdf55-32">
              <path d="M-0.48,-0.86 L 0.48 -0.86 0.48 0.86 -0.48 0.86 z" class="primitive"/>
            </g>
            <g transform="translate(52.75,78.85)" id="img-394fdf55-33">
              <path d="M-0.48,-1.47 L 0.48 -1.47 0.48 1.47 -0.48 1.47 z" class="primitive"/>
            </g>
            <g transform="translate(53.66,78.48)" id="img-394fdf55-34">
              <path d="M-0.48,-1.83 L 0.48 -1.83 0.48 1.83 -0.48 1.83 z" class="primitive"/>
            </g>
            <g transform="translate(54.57,77.5)" id="img-394fdf55-35">
              <path d="M-0.48,-2.81 L 0.48 -2.81 0.48 2.81 -0.48 2.81 z" class="primitive"/>
            </g>
            <g transform="translate(55.48,77.38)" id="img-394fdf55-36">
              <path d="M-0.48,-2.93 L 0.48 -2.93 0.48 2.93 -0.48 2.93 z" class="primitive"/>
            </g>
            <g transform="translate(56.4,76.89)" id="img-394fdf55-37">
              <path d="M-0.48,-3.42 L 0.48 -3.42 0.48 3.42 -0.48 3.42 z" class="primitive"/>
            </g>
            <g transform="translate(57.31,76.65)" id="img-394fdf55-38">
              <path d="M-0.48,-3.67 L 0.48 -3.67 0.48 3.67 -0.48 3.67 z" class="primitive"/>
            </g>
            <g transform="translate(58.22,73.35)" id="img-394fdf55-39">
              <path d="M-0.48,-6.96 L 0.48 -6.96 0.48 6.96 -0.48 6.96 z" class="primitive"/>
            </g>
            <g transform="translate(59.13,73.23)" id="img-394fdf55-40">
              <path d="M-0.48,-7.09 L 0.48 -7.09 0.48 7.09 -0.48 7.09 z" class="primitive"/>
            </g>
            <g transform="translate(60.05,72.62)" id="img-394fdf55-41">
              <path d="M-0.48,-7.7 L 0.48 -7.7 0.48 7.7 -0.48 7.7 z" class="primitive"/>
            </g>
            <g transform="translate(60.96,71.03)" id="img-394fdf55-42">
              <path d="M-0.48,-9.29 L 0.48 -9.29 0.48 9.29 -0.48 9.29 z" class="primitive"/>
            </g>
            <g transform="translate(61.87,69.44)" id="img-394fdf55-43">
              <path d="M-0.48,-10.88 L 0.48 -10.88 0.48 10.88 -0.48 10.88 z" class="primitive"/>
            </g>
            <g transform="translate(62.78,69.07)" id="img-394fdf55-44">
              <path d="M-0.48,-11.24 L 0.48 -11.24 0.48 11.24 -0.48 11.24 z" class="primitive"/>
            </g>
            <g transform="translate(63.7,68.83)" id="img-394fdf55-45">
              <path d="M-0.48,-11.49 L 0.48 -11.49 0.48 11.49 -0.48 11.49 z" class="primitive"/>
            </g>
            <g transform="translate(64.61,64.92)" id="img-394fdf55-46">
              <path d="M-0.48,-15.4 L 0.48 -15.4 0.48 15.4 -0.48 15.4 z" class="primitive"/>
            </g>
            <g transform="translate(65.52,64.31)" id="img-394fdf55-47">
              <path d="M-0.48,-16.01 L 0.48 -16.01 0.48 16.01 -0.48 16.01 z" class="primitive"/>
            </g>
            <g transform="translate(66.43,63.82)" id="img-394fdf55-48">
              <path d="M-0.48,-16.5 L 0.48 -16.5 0.48 16.5 -0.48 16.5 z" class="primitive"/>
            </g>
            <g transform="translate(67.35,62.48)" id="img-394fdf55-49">
              <path d="M-0.48,-17.84 L 0.48 -17.84 0.48 17.84 -0.48 17.84 z" class="primitive"/>
            </g>
            <g transform="translate(68.26,62.35)" id="img-394fdf55-50">
              <path d="M-0.48,-17.96 L 0.48 -17.96 0.48 17.96 -0.48 17.96 z" class="primitive"/>
            </g>
            <g transform="translate(69.17,57.59)" id="img-394fdf55-51">
              <path d="M-0.48,-22.73 L 0.48 -22.73 0.48 22.73 -0.48 22.73 z" class="primitive"/>
            </g>
            <g transform="translate(70.08,59.54)" id="img-394fdf55-52">
              <path d="M-0.48,-20.77 L 0.48 -20.77 0.48 20.77 -0.48 20.77 z" class="primitive"/>
            </g>
            <g transform="translate(71,59.3)" id="img-394fdf55-53">
              <path d="M-0.48,-21.02 L 0.48 -21.02 0.48 21.02 -0.48 21.02 z" class="primitive"/>
            </g>
            <g transform="translate(71.91,57.83)" id="img-394fdf55-54">
              <path d="M-0.48,-22.48 L 0.48 -22.48 0.48 22.48 -0.48 22.48 z" class="primitive"/>
            </g>
            <g transform="translate(72.82,53.43)" id="img-394fdf55-55">
              <path d="M-0.48,-26.88 L 0.48 -26.88 0.48 26.88 -0.48 26.88 z" class="primitive"/>
            </g>
            <g transform="translate(73.73,56.37)" id="img-394fdf55-56">
              <path d="M-0.48,-23.95 L 0.48 -23.95 0.48 23.95 -0.48 23.95 z" class="primitive"/>
            </g>
            <g transform="translate(74.65,52.09)" id="img-394fdf55-57">
              <path d="M-0.48,-28.23 L 0.48 -28.23 0.48 28.23 -0.48 28.23 z" class="primitive"/>
            </g>
            <g transform="translate(75.56,51.6)" id="img-394fdf55-58">
              <path d="M-0.48,-28.72 L 0.48 -28.72 0.48 28.72 -0.48 28.72 z" class="primitive"/>
            </g>
            <g transform="translate(76.47,50.5)" id="img-394fdf55-59">
              <path d="M-0.48,-29.81 L 0.48 -29.81 0.48 29.81 -0.48 29.81 z" class="primitive"/>
            </g>
            <g transform="translate(77.38,52.33)" id="img-394fdf55-60">
              <path d="M-0.48,-27.98 L 0.48 -27.98 0.48 27.98 -0.48 27.98 z" class="primitive"/>
            </g>
            <g transform="translate(78.3,52.94)" id="img-394fdf55-61">
              <path d="M-0.48,-27.37 L 0.48 -27.37 0.48 27.37 -0.48 27.37 z" class="primitive"/>
            </g>
            <g transform="translate(79.21,50.62)" id="img-394fdf55-62">
              <path d="M-0.48,-29.69 L 0.48 -29.69 0.48 29.69 -0.48 29.69 z" class="primitive"/>
            </g>
            <g transform="translate(80.12,53.31)" id="img-394fdf55-63">
              <path d="M-0.48,-27 L 0.48 -27 0.48 27 -0.48 27 z" class="primitive"/>
            </g>
            <g transform="translate(81.03,50.38)" id="img-394fdf55-64">
              <path d="M-0.48,-29.94 L 0.48 -29.94 0.48 29.94 -0.48 29.94 z" class="primitive"/>
            </g>
            <g transform="translate(81.95,48.55)" id="img-394fdf55-65">
              <path d="M-0.48,-31.77 L 0.48 -31.77 0.48 31.77 -0.48 31.77 z" class="primitive"/>
            </g>
            <g transform="translate(82.86,50.13)" id="img-394fdf55-66">
              <path d="M-0.48,-30.18 L 0.48 -30.18 0.48 30.18 -0.48 30.18 z" class="primitive"/>
            </g>
            <g transform="translate(83.77,51.97)" id="img-394fdf55-67">
              <path d="M-0.48,-28.35 L 0.48 -28.35 0.48 28.35 -0.48 28.35 z" class="primitive"/>
            </g>
            <g transform="translate(84.68,50.62)" id="img-394fdf55-68">
              <path d="M-0.48,-29.69 L 0.48 -29.69 0.48 29.69 -0.48 29.69 z" class="primitive"/>
            </g>
            <g transform="translate(85.6,52.09)" id="img-394fdf55-69">
              <path d="M-0.48,-28.23 L 0.48 -28.23 0.48 28.23 -0.48 28.23 z" class="primitive"/>
            </g>
            <g transform="translate(86.51,51.11)" id="img-394fdf55-70">
              <path d="M-0.48,-29.2 L 0.48 -29.2 0.48 29.2 -0.48 29.2 z" class="primitive"/>
            </g>
            <g transform="translate(87.42,55.02)" id="img-394fdf55-71">
              <path d="M-0.48,-25.29 L 0.48 -25.29 0.48 25.29 -0.48 25.29 z" class="primitive"/>
            </g>
            <g transform="translate(88.33,51.36)" id="img-394fdf55-72">
              <path d="M-0.48,-28.96 L 0.48 -28.96 0.48 28.96 -0.48 28.96 z" class="primitive"/>
            </g>
            <g transform="translate(89.25,50.38)" id="img-394fdf55-73">
              <path d="M-0.48,-29.94 L 0.48 -29.94 0.48 29.94 -0.48 29.94 z" class="primitive"/>
            </g>
            <g transform="translate(90.16,56.24)" id="img-394fdf55-74">
              <path d="M-0.48,-24.07 L 0.48 -24.07 0.48 24.07 -0.48 24.07 z" class="primitive"/>
            </g>
            <g transform="translate(91.07,55.39)" id="img-394fdf55-75">
              <path d="M-0.48,-24.93 L 0.48 -24.93 0.48 24.93 -0.48 24.93 z" class="primitive"/>
            </g>
            <g transform="translate(91.98,56.98)" id="img-394fdf55-76">
              <path d="M-0.48,-23.34 L 0.48 -23.34 0.48 23.34 -0.48 23.34 z" class="primitive"/>
            </g>
            <g transform="translate(92.9,59.18)" id="img-394fdf55-77">
              <path d="M-0.48,-21.14 L 0.48 -21.14 0.48 21.14 -0.48 21.14 z" class="primitive"/>
            </g>
            <g transform="translate(93.81,59.42)" id="img-394fdf55-78">
              <path d="M-0.48,-20.89 L 0.48 -20.89 0.48 20.89 -0.48 20.89 z" class="primitive"/>
            </g>
            <g transform="translate(94.72,57.71)" id="img-394fdf55-79">
              <path d="M-0.48,-22.61 L 0.48 -22.61 0.48 22.61 -0.48 22.61 z" class="primitive"/>
            </g>
            <g transform="translate(95.63,60.28)" id="img-394fdf55-80">
              <path d="M-0.48,-20.04 L 0.48 -20.04 0.48 20.04 -0.48 20.04 z" class="primitive"/>
            </g>
            <g transform="translate(96.55,61.5)" id="img-394fdf55-81">
              <path d="M-0.48,-18.82 L 0.48 -18.82 0.48 18.82 -0.48 18.82 z" class="primitive"/>
            </g>
            <g transform="translate(97.46,64.92)" id="img-394fdf55-82">
              <path d="M-0.48,-15.4 L 0.48 -15.4 0.48 15.4 -0.48 15.4 z" class="primitive"/>
            </g>
            <g transform="translate(98.37,61.74)" id="img-394fdf55-83">
              <path d="M-0.48,-18.57 L 0.48 -18.57 0.48 18.57 -0.48 18.57 z" class="primitive"/>
            </g>
            <g transform="translate(99.28,63.45)" id="img-394fdf55-84">
              <path d="M-0.48,-16.86 L 0.48 -16.86 0.48 16.86 -0.48 16.86 z" class="primitive"/>
            </g>
            <g transform="translate(100.2,65.04)" id="img-394fdf55-85">
              <path d="M-0.48,-15.27 L 0.48 -15.27 0.48 15.27 -0.48 15.27 z" class="primitive"/>
            </g>
            <g transform="translate(101.11,66.14)" id="img-394fdf55-86">
              <path d="M-0.48,-14.17 L 0.48 -14.17 0.48 14.17 -0.48 14.17 z" class="primitive"/>
            </g>
            <g transform="translate(102.02,69.68)" id="img-394fdf55-87">
              <path d="M-0.48,-10.63 L 0.48 -10.63 0.48 10.63 -0.48 10.63 z" class="primitive"/>
            </g>
            <g transform="translate(102.93,70.78)" id="img-394fdf55-88">
              <path d="M-0.48,-9.53 L 0.48 -9.53 0.48 9.53 -0.48 9.53 z" class="primitive"/>
            </g>
            <g transform="translate(103.85,66.75)" id="img-394fdf55-89">
              <path d="M-0.48,-13.56 L 0.48 -13.56 0.48 13.56 -0.48 13.56 z" class="primitive"/>
            </g>
            <g transform="translate(104.76,69.68)" id="img-394fdf55-90">
              <path d="M-0.48,-10.63 L 0.48 -10.63 0.48 10.63 -0.48 10.63 z" class="primitive"/>
            </g>
            <g transform="translate(105.67,69.56)" id="img-394fdf55-91">
              <path d="M-0.48,-10.75 L 0.48 -10.75 0.48 10.75 -0.48 10.75 z" class="primitive"/>
            </g>
            <g transform="translate(106.58,70.42)" id="img-394fdf55-92">
              <path d="M-0.48,-9.9 L 0.48 -9.9 0.48 9.9 -0.48 9.9 z" class="primitive"/>
            </g>
            <g transform="translate(107.5,72.37)" id="img-394fdf55-93">
              <path d="M-0.48,-7.94 L 0.48 -7.94 0.48 7.94 -0.48 7.94 z" class="primitive"/>
            </g>
            <g transform="translate(108.41,72.98)" id="img-394fdf55-94">
              <path d="M-0.48,-7.33 L 0.48 -7.33 0.48 7.33 -0.48 7.33 z" class="primitive"/>
            </g>
            <g transform="translate(109.32,73.47)" id="img-394fdf55-95">
              <path d="M-0.48,-6.84 L 0.48 -6.84 0.48 6.84 -0.48 6.84 z" class="primitive"/>
            </g>
            <g transform="translate(110.23,73.72)" id="img-394fdf55-96">
              <path d="M-0.48,-6.6 L 0.48 -6.6 0.48 6.6 -0.48 6.6 z" class="primitive"/>
            </g>
            <g transform="translate(111.15,75.06)" id="img-394fdf55-97">
              <path d="M-0.48,-5.25 L 0.48 -5.25 0.48 5.25 -0.48 5.25 z" class="primitive"/>
            </g>
            <g transform="translate(112.06,74.08)" id="img-394fdf55-98">
              <path d="M-0.48,-6.23 L 0.48 -6.23 0.48 6.23 -0.48 6.23 z" class="primitive"/>
            </g>
            <g transform="translate(112.97,74.69)" id="img-394fdf55-99">
              <path d="M-0.48,-5.62 L 0.48 -5.62 0.48 5.62 -0.48 5.62 z" class="primitive"/>
            </g>
            <g transform="translate(113.88,74.82)" id="img-394fdf55-100">
              <path d="M-0.48,-5.5 L 0.48 -5.5 0.48 5.5 -0.48 5.5 z" class="primitive"/>
            </g>
            <g transform="translate(114.8,75.31)" id="img-394fdf55-101">
              <path d="M-0.48,-5.01 L 0.48 -5.01 0.48 5.01 -0.48 5.01 z" class="primitive"/>
            </g>
            <g transform="translate(115.71,74.82)" id="img-394fdf55-102">
              <path d="M-0.48,-5.5 L 0.48 -5.5 0.48 5.5 -0.48 5.5 z" class="primitive"/>
            </g>
            <g transform="translate(116.62,77.02)" id="img-394fdf55-103">
              <path d="M-0.48,-3.3 L 0.48 -3.3 0.48 3.3 -0.48 3.3 z" class="primitive"/>
            </g>
            <g transform="translate(117.53,77.38)" id="img-394fdf55-104">
              <path d="M-0.48,-2.93 L 0.48 -2.93 0.48 2.93 -0.48 2.93 z" class="primitive"/>
            </g>
            <g transform="translate(118.45,77.75)" id="img-394fdf55-105">
              <path d="M-0.48,-2.57 L 0.48 -2.57 0.48 2.57 -0.48 2.57 z" class="primitive"/>
            </g>
            <g transform="translate(119.36,77.14)" id="img-394fdf55-106">
              <path d="M-0.48,-3.18 L 0.48 -3.18 0.48 3.18 -0.48 3.18 z" class="primitive"/>
            </g>
            <g transform="translate(120.27,77.38)" id="img-394fdf55-107">
              <path d="M-0.48,-2.93 L 0.48 -2.93 0.48 2.93 -0.48 2.93 z" class="primitive"/>
            </g>
            <g transform="translate(121.18,78.73)" id="img-394fdf55-108">
              <path d="M-0.48,-1.59 L 0.48 -1.59 0.48 1.59 -0.48 1.59 z" class="primitive"/>
            </g>
            <g transform="translate(122.1,77.75)" id="img-394fdf55-109">
              <path d="M-0.48,-2.57 L 0.48 -2.57 0.48 2.57 -0.48 2.57 z" class="primitive"/>
            </g>
            <g transform="translate(123.01,78.85)" id="img-394fdf55-110">
              <path d="M-0.48,-1.47 L 0.48 -1.47 0.48 1.47 -0.48 1.47 z" class="primitive"/>
            </g>
            <g transform="translate(123.92,77.75)" id="img-394fdf55-111">
              <path d="M-0.48,-2.57 L 0.48 -2.57 0.48 2.57 -0.48 2.57 z" class="primitive"/>
            </g>
            <g transform="translate(124.83,78.12)" id="img-394fdf55-112">
              <path d="M-0.48,-2.2 L 0.48 -2.2 0.48 2.2 -0.48 2.2 z" class="primitive"/>
            </g>
            <g transform="translate(125.75,78.97)" id="img-394fdf55-113">
              <path d="M-0.48,-1.34 L 0.48 -1.34 0.48 1.34 -0.48 1.34 z" class="primitive"/>
            </g>
            <g transform="translate(126.66,78.73)" id="img-394fdf55-114">
              <path d="M-0.48,-1.59 L 0.48 -1.59 0.48 1.59 -0.48 1.59 z" class="primitive"/>
            </g>
            <g transform="translate(127.57,78.97)" id="img-394fdf55-115">
              <path d="M-0.48,-1.34 L 0.48 -1.34 0.48 1.34 -0.48 1.34 z" class="primitive"/>
            </g>
            <g transform="translate(128.48,79.34)" id="img-394fdf55-116">
              <path d="M-0.48,-0.98 L 0.48 -0.98 0.48 0.98 -0.48 0.98 z" class="primitive"/>
            </g>
            <g transform="translate(129.4,78.85)" id="img-394fdf55-117">
              <path d="M-0.48,-1.47 L 0.48 -1.47 0.48 1.47 -0.48 1.47 z" class="primitive"/>
            </g>
            <g transform="translate(130.31,78.48)" id="img-394fdf55-118">
              <path d="M-0.48,-1.83 L 0.48 -1.83 0.48 1.83 -0.48 1.83 z" class="primitive"/>
            </g>
            <g transform="translate(131.22,79.22)" id="img-394fdf55-119">
              <path d="M-0.48,-1.1 L 0.48 -1.1 0.48 1.1 -0.48 1.1 z" class="primitive"/>
            </g>
            <g transform="translate(132.13,79.58)" id="img-394fdf55-120">
              <path d="M-0.48,-0.73 L 0.48 -0.73 0.48 0.73 -0.48 0.73 z" class="primitive"/>
            </g>
            <g transform="translate(133.05,79.7)" id="img-394fdf55-121">
              <path d="M-0.48,-0.61 L 0.48 -0.61 0.48 0.61 -0.48 0.61 z" class="primitive"/>
            </g>
            <g transform="translate(133.96,79.46)" id="img-394fdf55-122">
              <path d="M-0.48,-0.86 L 0.48 -0.86 0.48 0.86 -0.48 0.86 z" class="primitive"/>
            </g>
            <g transform="translate(134.87,79.83)" id="img-394fdf55-123">
              <path d="M-0.48,-0.49 L 0.48 -0.49 0.48 0.49 -0.48 0.49 z" class="primitive"/>
            </g>
            <g transform="translate(135.78,79.7)" id="img-394fdf55-124">
              <path d="M-0.48,-0.61 L 0.48 -0.61 0.48 0.61 -0.48 0.61 z" class="primitive"/>
            </g>
            <g transform="translate(136.7,79.58)" id="img-394fdf55-125">
              <path d="M-0.48,-0.73 L 0.48 -0.73 0.48 0.73 -0.48 0.73 z" class="primitive"/>
            </g>
            <g transform="translate(137.61,80.32)" id="img-394fdf55-126">
              <path d="M-0.48,-0 L 0.48 -0 0.48 0 -0.48 0 z" class="primitive"/>
            </g>
            <g transform="translate(138.52,79.95)" id="img-394fdf55-127">
              <path d="M-0.48,-0.37 L 0.48 -0.37 0.48 0.37 -0.48 0.37 z" class="primitive"/>
            </g>
            <g transform="translate(139.43,80.07)" id="img-394fdf55-128">
              <path d="M-0.48,-0.24 L 0.48 -0.24 0.48 0.24 -0.48 0.24 z" class="primitive"/>
            </g>
            <g transform="translate(140.35,80.32)" id="img-394fdf55-129">
              <path d="M-0.48,-0 L 0.48 -0 0.48 0 -0.48 0 z" class="primitive"/>
            </g>
            <g transform="translate(141.26,80.19)" id="img-394fdf55-130">
              <path d="M-0.48,-0.12 L 0.48 -0.12 0.48 0.12 -0.48 0.12 z" class="primitive"/>
            </g>
            <g transform="translate(142.17,79.95)" id="img-394fdf55-131">
              <path d="M-0.48,-0.37 L 0.48 -0.37 0.48 0.37 -0.48 0.37 z" class="primitive"/>
            </g>
            <g transform="translate(143.08,80.32)" id="img-394fdf55-132">
              <path d="M-0.48,-0 L 0.48 -0 0.48 0 -0.48 0 z" class="primitive"/>
            </g>
            <g transform="translate(144,80.32)" id="img-394fdf55-133">
              <path d="M-0.48,-0 L 0.48 -0 0.48 0 -0.48 0 z" class="primitive"/>
            </g>
            <g transform="translate(144.91,80.19)" id="img-394fdf55-134">
              <path d="M-0.48,-0.12 L 0.48 -0.12 0.48 0.12 -0.48 0.12 z" class="primitive"/>
            </g>
            <g transform="translate(145.82,80.07)" id="img-394fdf55-135">
              <path d="M-0.48,-0.24 L 0.48 -0.24 0.48 0.24 -0.48 0.24 z" class="primitive"/>
            </g>
            <g transform="translate(146.73,80.32)" id="img-394fdf55-136">
              <path d="M-0.48,-0 L 0.48 -0 0.48 0 -0.48 0 z" class="primitive"/>
            </g>
            <g transform="translate(147.65,80.32)" id="img-394fdf55-137">
              <path d="M-0.48,-0 L 0.48 -0 0.48 0 -0.48 0 z" class="primitive"/>
            </g>
            <g transform="translate(148.56,80.19)" id="img-394fdf55-138">
              <path d="M-0.48,-0.12 L 0.48 -0.12 0.48 0.12 -0.48 0.12 z" class="primitive"/>
            </g>
            <g transform="translate(149.47,80.19)" id="img-394fdf55-139">
              <path d="M-0.48,-0.12 L 0.48 -0.12 0.48 0.12 -0.48 0.12 z" class="primitive"/>
            </g>
            <g transform="translate(150.38,80.19)" id="img-394fdf55-140">
              <path d="M-0.48,-0.12 L 0.48 -0.12 0.48 0.12 -0.48 0.12 z" class="primitive"/>
            </g>
            <g transform="translate(151.3,80.32)" id="img-394fdf55-141">
              <path d="M-0.48,-0 L 0.48 -0 0.48 0 -0.48 0 z" class="primitive"/>
            </g>
            <g transform="translate(152.21,80.19)" id="img-394fdf55-142">
              <path d="M-0.48,-0.12 L 0.48 -0.12 0.48 0.12 -0.48 0.12 z" class="primitive"/>
            </g>
            <g transform="translate(153.12,80.19)" id="img-394fdf55-143">
              <path d="M-0.48,-0.12 L 0.48 -0.12 0.48 0.12 -0.48 0.12 z" class="primitive"/>
            </g>
            <g transform="translate(154.03,80.32)" id="img-394fdf55-144">
              <path d="M-0.48,-0 L 0.48 -0 0.48 0 -0.48 0 z" class="primitive"/>
            </g>
            <g transform="translate(154.95,80.19)" id="img-394fdf55-145">
              <path d="M-0.48,-0.12 L 0.48 -0.12 0.48 0.12 -0.48 0.12 z" class="primitive"/>
            </g>
            <g transform="translate(155.86,80.32)" id="img-394fdf55-146">
              <path d="M-0.48,-0 L 0.48 -0 0.48 0 -0.48 0 z" class="primitive"/>
            </g>
            <g transform="translate(156.77,80.32)" id="img-394fdf55-147">
              <path d="M-0.48,-0 L 0.48 -0 0.48 0 -0.48 0 z" class="primitive"/>
            </g>
            <g transform="translate(157.68,80.32)" id="img-394fdf55-148">
              <path d="M-0.48,-0 L 0.48 -0 0.48 0 -0.48 0 z" class="primitive"/>
            </g>
            <g transform="translate(158.6,80.32)" id="img-394fdf55-149">
              <path d="M-0.48,-0 L 0.48 -0 0.48 0 -0.48 0 z" class="primitive"/>
            </g>
            <g transform="translate(159.51,80.32)" id="img-394fdf55-150">
              <path d="M-0.48,-0 L 0.48 -0 0.48 0 -0.48 0 z" class="primitive"/>
            </g>
            <g transform="translate(160.42,80.32)" id="img-394fdf55-151">
              <path d="M-0.48,-0 L 0.48 -0 0.48 0 -0.48 0 z" class="primitive"/>
            </g>
            <g transform="translate(161.33,80.19)" id="img-394fdf55-152">
              <path d="M-0.48,-0.12 L 0.48 -0.12 0.48 0.12 -0.48 0.12 z" class="primitive"/>
            </g>
            <g transform="translate(162.25,80.32)" id="img-394fdf55-153">
              <path d="M-0.48,-0 L 0.48 -0 0.48 0 -0.48 0 z" class="primitive"/>
            </g>
            <g transform="translate(163.16,80.19)" id="img-394fdf55-154">
              <path d="M-0.48,-0.12 L 0.48 -0.12 0.48 0.12 -0.48 0.12 z" class="primitive"/>
            </g>
            <g transform="translate(164.07,80.32)" id="img-394fdf55-155">
              <path d="M-0.48,-0 L 0.48 -0 0.48 0 -0.48 0 z" class="primitive"/>
            </g>
            <g transform="translate(164.98,80.32)" id="img-394fdf55-156">
              <path d="M-0.48,-0 L 0.48 -0 0.48 0 -0.48 0 z" class="primitive"/>
            </g>
            <g transform="translate(165.9,80.32)" id="img-394fdf55-157">
              <path d="M-0.48,-0 L 0.48 -0 0.48 0 -0.48 0 z" class="primitive"/>
            </g>
            <g transform="translate(166.81,80.32)" id="img-394fdf55-158">
              <path d="M-0.48,-0 L 0.48 -0 0.48 0 -0.48 0 z" class="primitive"/>
            </g>
            <g transform="translate(167.72,80.32)" id="img-394fdf55-159">
              <path d="M-0.48,-0 L 0.48 -0 0.48 0 -0.48 0 z" class="primitive"/>
            </g>
            <g transform="translate(168.63,80.19)" id="img-394fdf55-160">
              <path d="M-0.48,-0.12 L 0.48 -0.12 0.48 0.12 -0.48 0.12 z" class="primitive"/>
            </g>
            <g transform="translate(169.55,80.19)" id="img-394fdf55-161">
              <path d="M-0.48,-0.12 L 0.48 -0.12 0.48 0.12 -0.48 0.12 z" class="primitive"/>
            </g>
            <g transform="translate(170.46,80.32)" id="img-394fdf55-162">
              <path d="M-0.48,-0 L 0.48 -0 0.48 0 -0.48 0 z" class="primitive"/>
            </g>
            <g transform="translate(171.37,80.32)" id="img-394fdf55-163">
              <path d="M-0.48,-0 L 0.48 -0 0.48 0 -0.48 0 z" class="primitive"/>
            </g>
            <g transform="translate(172.28,80.32)" id="img-394fdf55-164">
              <path d="M-0.48,-0 L 0.48 -0 0.48 0 -0.48 0 z" class="primitive"/>
            </g>
            <g transform="translate(173.2,80.19)" id="img-394fdf55-165">
              <path d="M-0.48,-0.12 L 0.48 -0.12 0.48 0.12 -0.48 0.12 z" class="primitive"/>
            </g>
            <g transform="translate(174.11,80.32)" id="img-394fdf55-166">
              <path d="M-0.48,-0 L 0.48 -0 0.48 0 -0.48 0 z" class="primitive"/>
            </g>
            <g transform="translate(175.02,80.32)" id="img-394fdf55-167">
              <path d="M-0.48,-0 L 0.48 -0 0.48 0 -0.48 0 z" class="primitive"/>
            </g>
            <g transform="translate(175.93,80.32)" id="img-394fdf55-168">
              <path d="M-0.48,-0 L 0.48 -0 0.48 0 -0.48 0 z" class="primitive"/>
            </g>
            <g transform="translate(176.85,80.32)" id="img-394fdf55-169">
              <path d="M-0.48,-0 L 0.48 -0 0.48 0 -0.48 0 z" class="primitive"/>
            </g>
            <g transform="translate(177.76,80.32)" id="img-394fdf55-170">
              <path d="M-0.48,-0 L 0.48 -0 0.48 0 -0.48 0 z" class="primitive"/>
            </g>
            <g transform="translate(178.67,80.19)" id="img-394fdf55-171">
              <path d="M-0.48,-0.12 L 0.48 -0.12 0.48 0.12 -0.48 0.12 z" class="primitive"/>
            </g>
          </g>
        </g>
      </g>
    </g>
  </g>
  <g class="guide ylabels" font-size="2.82" font-family="'PT Sans Caption','Helvetica Neue','Helvetica',sans-serif" fill="#6C606B" id="img-394fdf55-172">
    <g transform="translate(11.02,80.32)" id="img-394fdf55-173">
      <g class="primitive">
        <text text-anchor="end" dy="0.35em">0</text>
      </g>
    </g>
    <g transform="translate(11.02,55.88)" id="img-394fdf55-174">
      <g class="primitive">
        <text text-anchor="end" dy="0.35em">100</text>
      </g>
    </g>
    <g transform="translate(11.02,31.44)" id="img-394fdf55-175">
      <g class="primitive">
        <text text-anchor="end" dy="0.35em">200</text>
      </g>
    </g>
    <g transform="translate(11.02,7)" id="img-394fdf55-176">
      <g class="primitive">
        <text text-anchor="end" dy="0.35em">300</text>
      </g>
    </g>
  </g>
</g>
<defs>
  <clipPath id="img-394fdf55-4">
    <path d="M12.02,5 L 198.2 5 198.2 82.32 12.02 82.32" />
  </clipPath>
</defs>
</svg>
