<?xml version="1.0" encoding="UTF-8"?>
<svg xmlns="http://www.w3.org/2000/svg"
     xmlns:xlink="http://www.w3.org/1999/xlink"
     xmlns:gadfly="http://www.gadflyjl.org/ns"
     version="1.2"
     width="203.2mm" height="101.6mm" viewBox="0 0 203.2 101.6"
     stroke="none"
     fill="#000000"
     stroke-width="0.3"
     font-size="3.88"
>
<g class="plotroot xscalable yscalable" id="img-44426433-1">
  <g font-size="3.88" font-family="'PT Sans','Helvetica Neue','Helvetica',sans-serif" fill="#564A55" stroke="#000000" stroke-opacity="0.000" id="img-44426433-2">
    <g transform="translate(105.11,89.99)">
      <g class="primitive">
        <text text-anchor="middle" dy="0.6em">ρ₁₂</text>
      </g>
    </g>
  </g>
  <g class="guide xlabels" font-size="2.82" font-family="'PT Sans Caption','Helvetica Neue','Helvetica',sans-serif" fill="#6C606B" id="img-44426433-3">
    <g transform="translate(14.02,83.32)">
      <g class="primitive">
        <text text-anchor="middle" dy="0.6em">-0.5</text>
      </g>
    </g>
    <g transform="translate(74.75,83.32)">
      <g class="primitive">
        <text text-anchor="middle" dy="0.6em">0.0</text>
      </g>
    </g>
    <g transform="translate(135.47,83.32)">
      <g class="primitive">
        <text text-anchor="middle" dy="0.6em">0.5</text>
      </g>
    </g>
    <g transform="translate(196.2,83.32)">
      <g class="primitive">
        <text text-anchor="middle" dy="0.6em">1.0</text>
      </g>
    </g>
  </g>
  <g clip-path="url(#img-44426433-4)">
    <g id="img-44426433-5">
      <g pointer-events="visible" opacity="1" fill="#000000" fill-opacity="0.000" stroke="#000000" stroke-opacity="0.000" class="guide background" id="img-44426433-6">
        <g transform="translate(105.11,43.66)">
          <path d="M-93.09,-38.66 L 93.09 -38.66 93.09 38.66 -93.09 38.66 z" class="primitive"/>
        </g>
      </g>
      <g class="guide ygridlines xfixed" stroke-dasharray="0.5,0.5" stroke-width="0.2" stroke="#D0D0E0" id="img-44426433-7">
        <g transform="translate(105.11,80.31)">
          <path fill="none" d="M-93.09,0 L 93.09 0" class="primitive"/>
        </g>
        <g transform="translate(105.11,65.65)">
          <path fill="none" d="M-93.09,0 L 93.09 0" class="primitive"/>
        </g>
        <g transform="translate(105.11,50.99)">
          <path fill="none" d="M-93.09,0 L 93.09 0" class="primitive"/>
        </g>
        <g transform="translate(105.11,36.33)">
          <path fill="none" d="M-93.09,0 L 93.09 0" class="primitive"/>
        </g>
        <g transform="translate(105.11,21.66)">
          <path fill="none" d="M-93.09,0 L 93.09 0" class="primitive"/>
        </g>
        <g transform="translate(105.11,7)">
          <path fill="none" d="M-93.09,0 L 93.09 0" class="primitive"/>
        </g>
      </g>
      <g class="guide xgridlines yfixed" stroke-dasharray="0.5,0.5" stroke-width="0.2" stroke="#D0D0E0" id="img-44426433-8">
        <g transform="translate(14.02,43.66)">
          <path fill="none" d="M0,-38.66 L 0 38.66" class="primitive"/>
        </g>
        <g transform="translate(74.75,43.66)">
          <path fill="none" d="M0,-38.66 L 0 38.66" class="primitive"/>
        </g>
        <g transform="translate(135.47,43.66)">
          <path fill="none" d="M0,-38.66 L 0 38.66" class="primitive"/>
        </g>
        <g transform="translate(196.2,43.66)">
          <path fill="none" d="M0,-38.66 L 0 38.66" class="primitive"/>
        </g>
      </g>
      <g class="plotpanel" id="img-44426433-9">
        <metadata>
          <boundingbox value="12.02000000000001mm 5.0mm 186.17999999999998mm 77.315mm"/>
          <unitbox value="-0.5164672302118783 256.81988678987926 1.5329344604237565 -263.6397735797586"/>
        </metadata>
        <g shape-rendering="crispEdges" stroke-width="0.3" id="img-44426433-10">
          <g stroke="#000000" stroke-opacity="0.000" class="geometry" fill="#00BFFF" id="img-44426433-11">
            <g transform="translate(69.23,80.17)">
              <path d="M-0.42,-0.15 L 0.42 -0.15 0.42 0.15 -0.42 0.15 z" class="primitive"/>
            </g>
            <g transform="translate(70.03,80.32)">
              <path d="M-0.42,-0 L 0.42 -0 0.42 0 -0.42 0 z" class="primitive"/>
            </g>
            <g transform="translate(70.82,80.32)">
              <path d="M-0.42,-0 L 0.42 -0 0.42 0 -0.42 0 z" class="primitive"/>
            </g>
            <g transform="translate(71.62,80.32)">
              <path d="M-0.42,-0 L 0.42 -0 0.42 0 -0.42 0 z" class="primitive"/>
            </g>
            <g transform="translate(72.42,80.32)">
              <path d="M-0.42,-0 L 0.42 -0 0.42 0 -0.42 0 z" class="primitive"/>
            </g>
            <g transform="translate(73.21,80.32)">
              <path d="M-0.42,-0 L 0.42 -0 0.42 0 -0.42 0 z" class="primitive"/>
            </g>
            <g transform="translate(74.01,80.32)">
              <path d="M-0.42,-0 L 0.42 -0 0.42 0 -0.42 0 z" class="primitive"/>
            </g>
            <g transform="translate(74.81,80.32)">
              <path d="M-0.42,-0 L 0.42 -0 0.42 0 -0.42 0 z" class="primitive"/>
            </g>
            <g transform="translate(75.61,80.32)">
              <path d="M-0.42,-0 L 0.42 -0 0.42 0 -0.42 0 z" class="primitive"/>
            </g>
            <g transform="translate(76.4,80.32)">
              <path d="M-0.42,-0 L 0.42 -0 0.42 0 -0.42 0 z" class="primitive"/>
            </g>
            <g transform="translate(77.2,80.32)">
              <path d="M-0.42,-0 L 0.42 -0 0.42 0 -0.42 0 z" class="primitive"/>
            </g>
            <g transform="translate(78,80.17)">
              <path d="M-0.42,-0.15 L 0.42 -0.15 0.42 0.15 -0.42 0.15 z" class="primitive"/>
            </g>
            <g transform="translate(78.79,80.32)">
              <path d="M-0.42,-0 L 0.42 -0 0.42 0 -0.42 0 z" class="primitive"/>
            </g>
            <g transform="translate(79.59,80.17)">
              <path d="M-0.42,-0.15 L 0.42 -0.15 0.42 0.15 -0.42 0.15 z" class="primitive"/>
            </g>
            <g transform="translate(80.39,80.32)">
              <path d="M-0.42,-0 L 0.42 -0 0.42 0 -0.42 0 z" class="primitive"/>
            </g>
            <g transform="translate(81.18,80.17)">
              <path d="M-0.42,-0.15 L 0.42 -0.15 0.42 0.15 -0.42 0.15 z" class="primitive"/>
            </g>
            <g transform="translate(81.98,80.17)">
              <path d="M-0.42,-0.15 L 0.42 -0.15 0.42 0.15 -0.42 0.15 z" class="primitive"/>
            </g>
            <g transform="translate(82.78,80.32)">
              <path d="M-0.42,-0 L 0.42 -0 0.42 0 -0.42 0 z" class="primitive"/>
            </g>
            <g transform="translate(83.57,80.32)">
              <path d="M-0.42,-0 L 0.42 -0 0.42 0 -0.42 0 z" class="primitive"/>
            </g>
            <g transform="translate(84.37,80.17)">
              <path d="M-0.42,-0.15 L 0.42 -0.15 0.42 0.15 -0.42 0.15 z" class="primitive"/>
            </g>
            <g transform="translate(85.17,80.32)">
              <path d="M-0.42,-0 L 0.42 -0 0.42 0 -0.42 0 z" class="primitive"/>
            </g>
            <g transform="translate(85.96,80.17)">
              <path d="M-0.42,-0.15 L 0.42 -0.15 0.42 0.15 -0.42 0.15 z" class="primitive"/>
            </g>
            <g transform="translate(86.76,80.17)">
              <path d="M-0.42,-0.15 L 0.42 -0.15 0.42 0.15 -0.42 0.15 z" class="primitive"/>
            </g>
            <g transform="translate(87.56,80.32)">
              <path d="M-0.42,-0 L 0.42 -0 0.42 0 -0.42 0 z" class="primitive"/>
            </g>
            <g transform="translate(88.35,80.17)">
              <path d="M-0.42,-0.15 L 0.42 -0.15 0.42 0.15 -0.42 0.15 z" class="primitive"/>
            </g>
            <g transform="translate(89.15,79.88)">
              <path d="M-0.42,-0.44 L 0.42 -0.44 0.42 0.44 -0.42 0.44 z" class="primitive"/>
            </g>
            <g transform="translate(89.95,79.88)">
              <path d="M-0.42,-0.44 L 0.42 -0.44 0.42 0.44 -0.42 0.44 z" class="primitive"/>
            </g>
            <g transform="translate(90.74,80.32)">
              <path d="M-0.42,-0 L 0.42 -0 0.42 0 -0.42 0 z" class="primitive"/>
            </g>
            <g transform="translate(91.54,80.02)">
              <path d="M-0.42,-0.29 L 0.42 -0.29 0.42 0.29 -0.42 0.29 z" class="primitive"/>
            </g>
            <g transform="translate(92.34,79.73)">
              <path d="M-0.42,-0.59 L 0.42 -0.59 0.42 0.59 -0.42 0.59 z" class="primitive"/>
            </g>
            <g transform="translate(93.13,79.88)">
              <path d="M-0.42,-0.44 L 0.42 -0.44 0.42 0.44 -0.42 0.44 z" class="primitive"/>
            </g>
            <g transform="translate(93.93,79.88)">
              <path d="M-0.42,-0.44 L 0.42 -0.44 0.42 0.44 -0.42 0.44 z" class="primitive"/>
            </g>
            <g transform="translate(94.73,80.02)">
              <path d="M-0.42,-0.29 L 0.42 -0.29 0.42 0.29 -0.42 0.29 z" class="primitive"/>
            </g>
            <g transform="translate(95.52,80.17)">
              <path d="M-0.42,-0.15 L 0.42 -0.15 0.42 0.15 -0.42 0.15 z" class="primitive"/>
            </g>
            <g transform="translate(96.32,79.58)">
              <path d="M-0.42,-0.73 L 0.42 -0.73 0.42 0.73 -0.42 0.73 z" class="primitive"/>
            </g>
            <g transform="translate(97.12,79.73)">
              <path d="M-0.42,-0.59 L 0.42 -0.59 0.42 0.59 -0.42 0.59 z" class="primitive"/>
            </g>
            <g transform="translate(97.91,79.58)">
              <path d="M-0.42,-0.73 L 0.42 -0.73 0.42 0.73 -0.42 0.73 z" class="primitive"/>
            </g>
            <g transform="translate(98.71,80.17)">
              <path d="M-0.42,-0.15 L 0.42 -0.15 0.42 0.15 -0.42 0.15 z" class="primitive"/>
            </g>
            <g transform="translate(99.51,79.58)">
              <path d="M-0.42,-0.73 L 0.42 -0.73 0.42 0.73 -0.42 0.73 z" class="primitive"/>
            </g>
            <g transform="translate(100.3,79.73)">
              <path d="M-0.42,-0.59 L 0.42 -0.59 0.42 0.59 -0.42 0.59 z" class="primitive"/>
            </g>
            <g transform="translate(101.1,79.44)">
              <path d="M-0.42,-0.88 L 0.42 -0.88 0.42 0.88 -0.42 0.88 z" class="primitive"/>
            </g>
            <g transform="translate(101.9,79.29)">
              <path d="M-0.42,-1.03 L 0.42 -1.03 0.42 1.03 -0.42 1.03 z" class="primitive"/>
            </g>
            <g transform="translate(102.69,79.44)">
              <path d="M-0.42,-0.88 L 0.42 -0.88 0.42 0.88 -0.42 0.88 z" class="primitive"/>
            </g>
            <g transform="translate(103.49,80.02)">
              <path d="M-0.42,-0.29 L 0.42 -0.29 0.42 0.29 -0.42 0.29 z" class="primitive"/>
            </g>
            <g transform="translate(104.29,79.88)">
              <path d="M-0.42,-0.44 L 0.42 -0.44 0.42 0.44 -0.42 0.44 z" class="primitive"/>
            </g>
            <g transform="translate(105.08,78.41)">
              <path d="M-0.42,-1.91 L 0.42 -1.91 0.42 1.91 -0.42 1.91 z" class="primitive"/>
            </g>
            <g transform="translate(105.88,79.73)">
              <path d="M-0.42,-0.59 L 0.42 -0.59 0.42 0.59 -0.42 0.59 z" class="primitive"/>
            </g>
            <g transform="translate(106.68,79)">
              <path d="M-0.42,-1.32 L 0.42 -1.32 0.42 1.32 -0.42 1.32 z" class="primitive"/>
            </g>
            <g transform="translate(107.47,79.44)">
              <path d="M-0.42,-0.88 L 0.42 -0.88 0.42 0.88 -0.42 0.88 z" class="primitive"/>
            </g>
            <g transform="translate(108.27,79.58)">
              <path d="M-0.42,-0.73 L 0.42 -0.73 0.42 0.73 -0.42 0.73 z" class="primitive"/>
            </g>
            <g transform="translate(109.07,78.41)">
              <path d="M-0.42,-1.91 L 0.42 -1.91 0.42 1.91 -0.42 1.91 z" class="primitive"/>
            </g>
            <g transform="translate(109.86,78.41)">
              <path d="M-0.42,-1.91 L 0.42 -1.91 0.42 1.91 -0.42 1.91 z" class="primitive"/>
            </g>
            <g transform="translate(110.66,78.12)">
              <path d="M-0.42,-2.2 L 0.42 -2.2 0.42 2.2 -0.42 2.2 z" class="primitive"/>
            </g>
            <g transform="translate(111.46,79.14)">
              <path d="M-0.42,-1.17 L 0.42 -1.17 0.42 1.17 -0.42 1.17 z" class="primitive"/>
            </g>
            <g transform="translate(112.25,78.12)">
              <path d="M-0.42,-2.2 L 0.42 -2.2 0.42 2.2 -0.42 2.2 z" class="primitive"/>
            </g>
            <g transform="translate(113.05,77.09)">
              <path d="M-0.42,-3.23 L 0.42 -3.23 0.42 3.23 -0.42 3.23 z" class="primitive"/>
            </g>
            <g transform="translate(113.85,78.12)">
              <path d="M-0.42,-2.2 L 0.42 -2.2 0.42 2.2 -0.42 2.2 z" class="primitive"/>
            </g>
            <g transform="translate(114.64,76.94)">
              <path d="M-0.42,-3.37 L 0.42 -3.37 0.42 3.37 -0.42 3.37 z" class="primitive"/>
            </g>
            <g transform="translate(115.44,76.5)">
              <path d="M-0.42,-3.81 L 0.42 -3.81 0.42 3.81 -0.42 3.81 z" class="primitive"/>
            </g>
            <g transform="translate(116.24,78.12)">
              <path d="M-0.42,-2.2 L 0.42 -2.2 0.42 2.2 -0.42 2.2 z" class="primitive"/>
            </g>
            <g transform="translate(117.03,78.7)">
              <path d="M-0.42,-1.61 L 0.42 -1.61 0.42 1.61 -0.42 1.61 z" class="primitive"/>
            </g>
            <g transform="translate(117.83,76.94)">
              <path d="M-0.42,-3.37 L 0.42 -3.37 0.42 3.37 -0.42 3.37 z" class="primitive"/>
            </g>
            <g transform="translate(118.63,77.09)">
              <path d="M-0.42,-3.23 L 0.42 -3.23 0.42 3.23 -0.42 3.23 z" class="primitive"/>
            </g>
            <g transform="translate(119.42,77.38)">
              <path d="M-0.42,-2.93 L 0.42 -2.93 0.42 2.93 -0.42 2.93 z" class="primitive"/>
            </g>
            <g transform="translate(120.22,76.94)">
              <path d="M-0.42,-3.37 L 0.42 -3.37 0.42 3.37 -0.42 3.37 z" class="primitive"/>
            </g>
            <g transform="translate(121.02,76.65)">
              <path d="M-0.42,-3.67 L 0.42 -3.67 0.42 3.67 -0.42 3.67 z" class="primitive"/>
            </g>
            <g transform="translate(121.81,75.62)">
              <path d="M-0.42,-4.69 L 0.42 -4.69 0.42 4.69 -0.42 4.69 z" class="primitive"/>
            </g>
            <g transform="translate(122.61,73.72)">
              <path d="M-0.42,-6.6 L 0.42 -6.6 0.42 6.6 -0.42 6.6 z" class="primitive"/>
            </g>
            <g transform="translate(123.41,76.36)">
              <path d="M-0.42,-3.96 L 0.42 -3.96 0.42 3.96 -0.42 3.96 z" class="primitive"/>
            </g>
            <g transform="translate(124.2,74.3)">
              <path d="M-0.42,-6.01 L 0.42 -6.01 0.42 6.01 -0.42 6.01 z" class="primitive"/>
            </g>
            <g transform="translate(125,74.89)">
              <path d="M-0.42,-5.43 L 0.42 -5.43 0.42 5.43 -0.42 5.43 z" class="primitive"/>
            </g>
            <g transform="translate(125.8,72.25)">
              <path d="M-0.42,-8.06 L 0.42 -8.06 0.42 8.06 -0.42 8.06 z" class="primitive"/>
            </g>
            <g transform="translate(126.6,75.18)">
              <path d="M-0.42,-5.13 L 0.42 -5.13 0.42 5.13 -0.42 5.13 z" class="primitive"/>
            </g>
            <g transform="translate(127.39,75.33)">
              <path d="M-0.42,-4.99 L 0.42 -4.99 0.42 4.99 -0.42 4.99 z" class="primitive"/>
            </g>
            <g transform="translate(128.19,70.64)">
              <path d="M-0.42,-9.68 L 0.42 -9.68 0.42 9.68 -0.42 9.68 z" class="primitive"/>
            </g>
            <g transform="translate(128.99,71.66)">
              <path d="M-0.42,-8.65 L 0.42 -8.65 0.42 8.65 -0.42 8.65 z" class="primitive"/>
            </g>
            <g transform="translate(129.78,71.66)">
              <path d="M-0.42,-8.65 L 0.42 -8.65 0.42 8.65 -0.42 8.65 z" class="primitive"/>
            </g>
            <g transform="translate(130.58,69.32)">
              <path d="M-0.42,-11 L 0.42 -11 0.42 11 -0.42 11 z" class="primitive"/>
            </g>
            <g transform="translate(131.38,70.49)">
              <path d="M-0.42,-9.82 L 0.42 -9.82 0.42 9.82 -0.42 9.82 z" class="primitive"/>
            </g>
            <g transform="translate(132.17,70.78)">
              <path d="M-0.42,-9.53 L 0.42 -9.53 0.42 9.53 -0.42 9.53 z" class="primitive"/>
            </g>
            <g transform="translate(132.97,71.37)">
              <path d="M-0.42,-8.94 L 0.42 -8.94 0.42 8.94 -0.42 8.94 z" class="primitive"/>
            </g>
            <g transform="translate(133.77,66.68)">
              <path d="M-0.42,-13.64 L 0.42 -13.64 0.42 13.64 -0.42 13.64 z" class="primitive"/>
            </g>
            <g transform="translate(134.56,67.26)">
              <path d="M-0.42,-13.05 L 0.42 -13.05 0.42 13.05 -0.42 13.05 z" class="primitive"/>
            </g>
            <g transform="translate(135.36,66.09)">
              <path d="M-0.42,-14.22 L 0.42 -14.22 0.42 14.22 -0.42 14.22 z" class="primitive"/>
            </g>
            <g transform="translate(136.16,64.33)">
              <path d="M-0.42,-15.98 L 0.42 -15.98 0.42 15.98 -0.42 15.98 z" class="primitive"/>
            </g>
            <g transform="translate(136.95,67.56)">
              <path d="M-0.42,-12.76 L 0.42 -12.76 0.42 12.76 -0.42 12.76 z" class="primitive"/>
            </g>
            <g transform="translate(137.75,64.04)">
              <path d="M-0.42,-16.28 L 0.42 -16.28 0.42 16.28 -0.42 16.28 z" class="primitive"/>
            </g>
            <g transform="translate(138.55,63.01)">
              <path d="M-0.42,-17.3 L 0.42 -17.3 0.42 17.3 -0.42 17.3 z" class="primitive"/>
            </g>
            <g transform="translate(139.34,61.99)">
              <path d="M-0.42,-18.33 L 0.42 -18.33 0.42 18.33 -0.42 18.33 z" class="primitive"/>
            </g>
            <g transform="translate(140.14,65.36)">
              <path d="M-0.42,-14.96 L 0.42 -14.96 0.42 14.96 -0.42 14.96 z" class="primitive"/>
            </g>
            <g transform="translate(140.94,63.89)">
              <path d="M-0.42,-16.42 L 0.42 -16.42 0.42 16.42 -0.42 16.42 z" class="primitive"/>
            </g>
            <g transform="translate(141.73,60.23)">
              <path d="M-0.42,-20.09 L 0.42 -20.09 0.42 20.09 -0.42 20.09 z" class="primitive"/>
            </g>
            <g transform="translate(142.53,58.76)">
              <path d="M-0.42,-21.55 L 0.42 -21.55 0.42 21.55 -0.42 21.55 z" class="primitive"/>
            </g>
            <g transform="translate(143.33,56.85)">
              <path d="M-0.42,-23.46 L 0.42 -23.46 0.42 23.46 -0.42 23.46 z" class="primitive"/>
            </g>
            <g transform="translate(144.12,56.27)">
              <path d="M-0.42,-24.05 L 0.42 -24.05 0.42 24.05 -0.42 24.05 z" class="primitive"/>
            </g>
            <g transform="translate(144.92,55.09)">
              <path d="M-0.42,-25.22 L 0.42 -25.22 0.42 25.22 -0.42 25.22 z" class="primitive"/>
            </g>
            <g transform="translate(145.72,53.63)">
              <path d="M-0.42,-26.69 L 0.42 -26.69 0.42 26.69 -0.42 26.69 z" class="primitive"/>
            </g>
            <g transform="translate(146.51,56.85)">
              <path d="M-0.42,-23.46 L 0.42 -23.46 0.42 23.46 -0.42 23.46 z" class="primitive"/>
            </g>
            <g transform="translate(147.31,52.9)">
              <path d="M-0.42,-27.42 L 0.42 -27.42 0.42 27.42 -0.42 27.42 z" class="primitive"/>
            </g>
            <g transform="translate(148.11,52.31)">
              <path d="M-0.42,-28.01 L 0.42 -28.01 0.42 28.01 -0.42 28.01 z" class="primitive"/>
            </g>
            <g transform="translate(148.9,54.51)">
              <path d="M-0.42,-25.81 L 0.42 -25.81 0.42 25.81 -0.42 25.81 z" class="primitive"/>
            </g>
            <g transform="translate(149.7,53.19)">
              <path d="M-0.42,-27.13 L 0.42 -27.13 0.42 27.13 -0.42 27.13 z" class="primitive"/>
            </g>
            <g transform="translate(150.5,49.38)">
              <path d="M-0.42,-30.94 L 0.42 -30.94 0.42 30.94 -0.42 30.94 z" class="primitive"/>
            </g>
            <g transform="translate(151.29,50.4)">
              <path d="M-0.42,-29.91 L 0.42 -29.91 0.42 29.91 -0.42 29.91 z" class="primitive"/>
            </g>
            <g transform="translate(152.09,48.79)">
              <path d="M-0.42,-31.53 L 0.42 -31.53 0.42 31.53 -0.42 31.53 z" class="primitive"/>
            </g>
            <g transform="translate(152.89,50.55)">
              <path d="M-0.42,-29.77 L 0.42 -29.77 0.42 29.77 -0.42 29.77 z" class="primitive"/>
            </g>
            <g transform="translate(153.68,50.7)">
              <path d="M-0.42,-29.62 L 0.42 -29.62 0.42 29.62 -0.42 29.62 z" class="primitive"/>
            </g>
            <g transform="translate(154.48,51.43)">
              <path d="M-0.42,-28.89 L 0.42 -28.89 0.42 28.89 -0.42 28.89 z" class="primitive"/>
            </g>
            <g transform="translate(155.28,46)">
              <path d="M-0.42,-34.31 L 0.42 -34.31 0.42 34.31 -0.42 34.31 z" class="primitive"/>
            </g>
            <g transform="translate(156.07,48.5)">
              <path d="M-0.42,-31.82 L 0.42 -31.82 0.42 31.82 -0.42 31.82 z" class="primitive"/>
            </g>
            <g transform="translate(156.87,50.7)">
              <path d="M-0.42,-29.62 L 0.42 -29.62 0.42 29.62 -0.42 29.62 z" class="primitive"/>
            </g>
            <g transform="translate(157.67,50.99)">
              <path d="M-0.42,-29.33 L 0.42 -29.33 0.42 29.33 -0.42 29.33 z" class="primitive"/>
            </g>
            <g transform="translate(158.46,49.38)">
              <path d="M-0.42,-30.94 L 0.42 -30.94 0.42 30.94 -0.42 30.94 z" class="primitive"/>
            </g>
            <g transform="translate(159.26,46.74)">
              <path d="M-0.42,-33.58 L 0.42 -33.58 0.42 33.58 -0.42 33.58 z" class="primitive"/>
            </g>
            <g transform="translate(160.06,49.96)">
              <path d="M-0.42,-30.35 L 0.42 -30.35 0.42 30.35 -0.42 30.35 z" class="primitive"/>
            </g>
            <g transform="translate(160.85,52.16)">
              <path d="M-0.42,-28.15 L 0.42 -28.15 0.42 28.15 -0.42 28.15 z" class="primitive"/>
            </g>
            <g transform="translate(161.65,49.52)">
              <path d="M-0.42,-30.79 L 0.42 -30.79 0.42 30.79 -0.42 30.79 z" class="primitive"/>
            </g>
            <g transform="translate(162.45,50.84)">
              <path d="M-0.42,-29.47 L 0.42 -29.47 0.42 29.47 -0.42 29.47 z" class="primitive"/>
            </g>
            <g transform="translate(163.24,48.06)">
              <path d="M-0.42,-32.26 L 0.42 -32.26 0.42 32.26 -0.42 32.26 z" class="primitive"/>
            </g>
            <g transform="translate(164.04,47.91)">
              <path d="M-0.42,-32.41 L 0.42 -32.41 0.42 32.41 -0.42 32.41 z" class="primitive"/>
            </g>
            <g transform="translate(164.84,54.07)">
              <path d="M-0.42,-26.25 L 0.42 -26.25 0.42 26.25 -0.42 26.25 z" class="primitive"/>
            </g>
            <g transform="translate(165.63,52.31)">
              <path d="M-0.42,-28.01 L 0.42 -28.01 0.42 28.01 -0.42 28.01 z" class="primitive"/>
            </g>
            <g transform="translate(166.43,54.36)">
              <path d="M-0.42,-25.95 L 0.42 -25.95 0.42 25.95 -0.42 25.95 z" class="primitive"/>
            </g>
            <g transform="translate(167.23,58.17)">
              <path d="M-0.42,-22.14 L 0.42 -22.14 0.42 22.14 -0.42 22.14 z" class="primitive"/>
            </g>
            <g transform="translate(168.02,54.07)">
              <path d="M-0.42,-26.25 L 0.42 -26.25 0.42 26.25 -0.42 26.25 z" class="primitive"/>
            </g>
            <g transform="translate(168.82,58.91)">
              <path d="M-0.42,-21.41 L 0.42 -21.41 0.42 21.41 -0.42 21.41 z" class="primitive"/>
            </g>
            <g transform="translate(169.62,63.89)">
              <path d="M-0.42,-16.42 L 0.42 -16.42 0.42 16.42 -0.42 16.42 z" class="primitive"/>
            </g>
            <g transform="translate(170.41,59.93)">
              <path d="M-0.42,-20.38 L 0.42 -20.38 0.42 20.38 -0.42 20.38 z" class="primitive"/>
            </g>
            <g transform="translate(171.21,63.01)">
              <path d="M-0.42,-17.3 L 0.42 -17.3 0.42 17.3 -0.42 17.3 z" class="primitive"/>
            </g>
            <g transform="translate(172.01,64.48)">
              <path d="M-0.42,-15.84 L 0.42 -15.84 0.42 15.84 -0.42 15.84 z" class="primitive"/>
            </g>
            <g transform="translate(172.8,64.63)">
              <path d="M-0.42,-15.69 L 0.42 -15.69 0.42 15.69 -0.42 15.69 z" class="primitive"/>
            </g>
            <g transform="translate(173.6,68.73)">
              <path d="M-0.42,-11.58 L 0.42 -11.58 0.42 11.58 -0.42 11.58 z" class="primitive"/>
            </g>
            <g transform="translate(174.4,70.49)">
              <path d="M-0.42,-9.82 L 0.42 -9.82 0.42 9.82 -0.42 9.82 z" class="primitive"/>
            </g>
            <g transform="translate(175.19,70.49)">
              <path d="M-0.42,-9.82 L 0.42 -9.82 0.42 9.82 -0.42 9.82 z" class="primitive"/>
            </g>
            <g transform="translate(175.99,69.76)">
              <path d="M-0.42,-10.56 L 0.42 -10.56 0.42 10.56 -0.42 10.56 z" class="primitive"/>
            </g>
            <g transform="translate(176.79,72.69)">
              <path d="M-0.42,-7.62 L 0.42 -7.62 0.42 7.62 -0.42 7.62 z" class="primitive"/>
            </g>
            <g transform="translate(177.59,74.6)">
              <path d="M-0.42,-5.72 L 0.42 -5.72 0.42 5.72 -0.42 5.72 z" class="primitive"/>
            </g>
            <g transform="translate(178.38,74.74)">
              <path d="M-0.42,-5.57 L 0.42 -5.57 0.42 5.57 -0.42 5.57 z" class="primitive"/>
            </g>
            <g transform="translate(179.18,74.74)">
              <path d="M-0.42,-5.57 L 0.42 -5.57 0.42 5.57 -0.42 5.57 z" class="primitive"/>
            </g>
            <g transform="translate(179.98,76.65)">
              <path d="M-0.42,-3.67 L 0.42 -3.67 0.42 3.67 -0.42 3.67 z" class="primitive"/>
            </g>
            <g transform="translate(180.77,77.38)">
              <path d="M-0.42,-2.93 L 0.42 -2.93 0.42 2.93 -0.42 2.93 z" class="primitive"/>
            </g>
            <g transform="translate(181.57,77.97)">
              <path d="M-0.42,-2.35 L 0.42 -2.35 0.42 2.35 -0.42 2.35 z" class="primitive"/>
            </g>
            <g transform="translate(182.37,78.56)">
              <path d="M-0.42,-1.76 L 0.42 -1.76 0.42 1.76 -0.42 1.76 z" class="primitive"/>
            </g>
            <g transform="translate(183.16,78.7)">
              <path d="M-0.42,-1.61 L 0.42 -1.61 0.42 1.61 -0.42 1.61 z" class="primitive"/>
            </g>
            <g transform="translate(183.96,79.73)">
              <path d="M-0.42,-0.59 L 0.42 -0.59 0.42 0.59 -0.42 0.59 z" class="primitive"/>
            </g>
            <g transform="translate(184.76,79.73)">
              <path d="M-0.42,-0.59 L 0.42 -0.59 0.42 0.59 -0.42 0.59 z" class="primitive"/>
            </g>
            <g transform="translate(185.55,80.02)">
              <path d="M-0.42,-0.29 L 0.42 -0.29 0.42 0.29 -0.42 0.29 z" class="primitive"/>
            </g>
            <g transform="translate(186.35,80.17)">
              <path d="M-0.42,-0.15 L 0.42 -0.15 0.42 0.15 -0.42 0.15 z" class="primitive"/>
            </g>
            <g transform="translate(187.15,79.88)">
              <path d="M-0.42,-0.44 L 0.42 -0.44 0.42 0.44 -0.42 0.44 z" class="primitive"/>
            </g>
            <g transform="translate(187.94,80.17)">
              <path d="M-0.42,-0.15 L 0.42 -0.15 0.42 0.15 -0.42 0.15 z" class="primitive"/>
            </g>
          </g>
        </g>
      </g>
    </g>
  </g>
  <g class="guide ylabels" font-size="2.82" font-family="'PT Sans Caption','Helvetica Neue','Helvetica',sans-serif" fill="#6C606B" id="img-44426433-12">
    <g transform="translate(11.02,80.31)">
      <g class="primitive">
        <text text-anchor="end" dy="0.35em">0</text>
      </g>
    </g>
    <g transform="translate(11.02,65.65)">
      <g class="primitive">
        <text text-anchor="end" dy="0.35em">50</text>
      </g>
    </g>
    <g transform="translate(11.02,50.99)">
      <g class="primitive">
        <text text-anchor="end" dy="0.35em">100</text>
      </g>
    </g>
    <g transform="translate(11.02,36.33)">
      <g class="primitive">
        <text text-anchor="end" dy="0.35em">150</text>
      </g>
    </g>
    <g transform="translate(11.02,21.66)">
      <g class="primitive">
        <text text-anchor="end" dy="0.35em">200</text>
      </g>
    </g>
    <g transform="translate(11.02,7)">
      <g class="primitive">
        <text text-anchor="end" dy="0.35em">250</text>
      </g>
    </g>
  </g>
</g>
<defs>
  <clipPath id="img-44426433-4">
    <path d="M12.02,5 L 198.2 5 198.2 82.32 12.02 82.32" />
  </clipPath>
</defs>
</svg>
