<?xml version="1.0" encoding="UTF-8"?>
<svg xmlns="http://www.w3.org/2000/svg"
     xmlns:xlink="http://www.w3.org/1999/xlink"
     xmlns:gadfly="http://www.gadflyjl.org/ns"
     version="1.2"
     width="203.2mm" height="101.6mm" viewBox="0 0 203.2 101.6"
     stroke="none"
     fill="#000000"
     stroke-width="0.3"
     font-size="3.88"
>
<g class="plotroot xscalable yscalable" id="img-f8defcc4-1">
  <g font-size="3.88" font-family="'PT Sans','Helvetica Neue','Helvetica',sans-serif" fill="#564A55" stroke="#000000" stroke-opacity="0.000" id="img-f8defcc4-2">
    <text x="103.44" y="89.99" text-anchor="middle" dy="0.6em">θ₃</text>
  </g>
  <g class="guide xlabels" font-size="2.82" font-family="'PT Sans Caption','Helvetica Neue','Helvetica',sans-serif" fill="#6C606B" id="img-f8defcc4-3">
    <text x="10.67" y="83.32" text-anchor="middle" dy="0.6em">-0.1</text>
    <text x="41.59" y="83.32" text-anchor="middle" dy="0.6em">0.0</text>
    <text x="72.52" y="83.32" text-anchor="middle" dy="0.6em">0.1</text>
    <text x="103.44" y="83.32" text-anchor="middle" dy="0.6em">0.2</text>
    <text x="134.36" y="83.32" text-anchor="middle" dy="0.6em">0.3</text>
    <text x="165.28" y="83.32" text-anchor="middle" dy="0.6em">0.4</text>
    <text x="196.2" y="83.32" text-anchor="middle" dy="0.6em">0.5</text>
  </g>
<g clip-path="url(#img-f8defcc4-4)">
  <g id="img-f8defcc4-5">
    <g pointer-events="visible" opacity="1" fill="#000000" fill-opacity="0.000" stroke="#000000" stroke-opacity="0.000" class="guide background" id="img-f8defcc4-6">
      <rect x="8.67" y="5" width="189.53" height="77.32"/>
    </g>
    <g class="guide ygridlines xfixed" stroke-dasharray="0.5,0.5" stroke-width="0.2" stroke="#D0D0E0" id="img-f8defcc4-7">
      <path fill="none" d="M8.67,80.31 L 198.2 80.31"/>
      <path fill="none" d="M8.67,61.99 L 198.2 61.99"/>
      <path fill="none" d="M8.67,43.66 L 198.2 43.66"/>
      <path fill="none" d="M8.67,25.33 L 198.2 25.33"/>
      <path fill="none" d="M8.67,7 L 198.2 7"/>
    </g>
    <g class="guide xgridlines yfixed" stroke-dasharray="0.5,0.5" stroke-width="0.2" stroke="#D0D0E0" id="img-f8defcc4-8">
      <path fill="none" d="M10.67,5 L 10.67 82.32"/>
      <path fill="none" d="M41.59,5 L 41.59 82.32"/>
      <path fill="none" d="M72.52,5 L 72.52 82.32"/>
      <path fill="none" d="M103.44,5 L 103.44 82.32"/>
      <path fill="none" d="M134.36,5 L 134.36 82.32"/>
      <path fill="none" d="M165.28,5 L 165.28 82.32"/>
      <path fill="none" d="M196.2,5 L 196.2 82.32"/>
    </g>
    <g class="plotpanel" id="img-f8defcc4-9">
      <g stroke-width="0.3" fill="#000000" fill-opacity="0.000" class="geometry" id="img-f8defcc4-10">
        <g stroke-dasharray="none" stroke="#00BFFF" id="img-f8defcc4-11">
          <path fill="none" d="M31.83,80.31 L 32.38 80.3 32.93 80.29 33.48 80.26 34.03 80.19 34.58 80.08 35.13 79.87 35.67 79.54 36.22 79.01 36.77 78.24 37.32 77.17 37.87 75.78 38.42 74.09 38.97 72.19 39.52 70.23 40.07 68.41 40.62 66.93 41.16 66 41.71 65.74 42.26 66.19 42.81 67.27 43.36 68.82 43.91 70.65 44.46 72.53 45.01 74.29 45.56 75.8 46.1 77 46.65 77.88 47.2 78.48 47.75 78.86 48.3 79.06 48.85 79.15 49.4 79.16 49.95 79.13 50.5 79.07 51.04 79 51.59 78.91 52.14 78.8 52.69 78.68 53.24 78.53 53.79 78.35 54.34 78.14 54.89 77.92 55.44 77.67 55.99 77.43 56.53 77.19 57.08 76.96 57.63 76.77 58.18 76.6 58.73 76.47 59.28 76.37 59.83 76.3 60.38 76.25 60.93 76.2 61.47 76.14 62.02 76.06 62.57 75.95 63.12 75.78 63.67 75.56 64.22 75.28 64.77 74.94 65.32 74.55 65.87 74.12 66.41 73.67 66.96 73.21 67.51 72.74 68.06 72.27 68.61 71.8 69.16 71.32 69.71 70.83 70.26 70.32 70.81 69.79 71.35 69.23 71.9 68.64 72.45 68.03 73 67.4 73.55 66.74 74.1 66.06 74.65 65.37 75.2 64.65 75.75 63.9 76.3 63.13 76.84 62.34 77.39 61.51 77.94 60.64 78.49 59.74 79.04 58.81 79.59 57.83 80.14 56.81 80.69 55.76 81.24 54.68 81.78 53.58 82.33 52.46 82.88 51.34 83.43 50.21 83.98 49.07 84.53 47.89 85.08 46.68 85.63 45.42 86.18 44.09 86.72 42.69 87.27 41.23 87.82 39.71 88.37 38.16 88.92 36.61 89.47 35.08 90.02 33.62 90.57 32.23 91.12 30.93 91.66 29.73 92.21 28.62 92.76 27.57 93.31 26.57 93.86 25.58 94.41 24.59 94.96 23.57 95.51 22.53 96.06 21.47 96.61 20.41 97.15 19.36 97.7 18.33 98.25 17.35 98.8 16.43 99.35 15.58 99.9 14.83 100.45 14.18 101 13.67 101.55 13.29 102.09 13.05 102.64 12.94 103.19 12.96 103.74 13.06 104.29 13.24 104.84 13.46 105.39 13.72 105.94 14.02 106.49 14.36 107.03 14.76 107.58 15.26 108.13 15.87 108.68 16.61 109.23 17.47 109.78 18.44 110.33 19.5 110.88 20.59 111.43 21.7 111.98 22.79 112.52 23.85 113.07 24.88 113.62 25.87 114.17 26.83 114.72 27.79 115.27 28.76 115.82 29.76 116.37 30.81 116.92 31.93 117.46 33.14 118.01 34.46 118.56 35.88 119.11 37.39 119.66 38.97 120.21 40.58 120.76 42.2 121.31 43.79 121.86 45.33 122.4 46.8 122.95 48.21 123.5 49.55 124.05 50.83 124.6 52.06 125.15 53.25 125.7 54.42 126.25 55.57 126.8 56.7 127.34 57.83 127.89 58.96 128.44 60.09 128.99 61.22 129.54 62.34 130.09 63.43 130.64 64.49 131.19 65.5 131.74 66.45 132.29 67.31 132.83 68.1 133.38 68.81 133.93 69.46 134.48 70.07 135.03 70.64 135.58 71.21 136.13 71.78 136.68 72.35 137.23 72.93 137.77 73.51 138.32 74.06 138.87 74.58 139.42 75.06 139.97 75.48 140.52 75.86 141.07 76.18 141.62 76.47 142.17 76.72 142.71 76.96 143.26 77.18 143.81 77.39 144.36 77.58 144.91 77.76 145.46 77.94 146.01 78.09 146.56 78.24 147.11 78.38 147.66 78.51 148.2 78.62 148.75 78.73 149.3 78.83 149.85 78.93 150.4 79.03 150.95 79.12 151.5 79.22 152.05 79.31 152.6 79.41 153.14 79.5 153.69 79.6 154.24 79.69 154.79 79.77 155.34 79.84 155.89 79.9 156.44 79.95 156.99 79.99 157.54 80.02 158.08 80.03 158.63 80.05 159.18 80.05 159.73 80.06 160.28 80.08 160.83 80.09 161.38 80.11 161.93 80.14 162.48 80.16 163.02 80.19 163.57 80.22 164.12 80.24 164.67 80.26 165.22 80.28 165.77 80.29 166.32 80.3 166.87 80.31 167.42 80.31 167.97 80.31 168.51 80.31 169.06 80.31 169.61 80.31 170.16 80.31 170.71 80.31 171.26 80.31 171.81 80.31"/>
        </g>
      </g>
    </g>
  </g>
</g>
  <g class="guide ylabels" font-size="2.82" font-family="'PT Sans Caption','Helvetica Neue','Helvetica',sans-serif" fill="#6C606B" id="img-f8defcc4-12">
    <text x="7.67" y="80.31" text-anchor="end" dy="0.35em">0</text>
    <text x="7.67" y="61.99" text-anchor="end" dy="0.35em">2</text>
    <text x="7.67" y="43.66" text-anchor="end" dy="0.35em">4</text>
    <text x="7.67" y="25.33" text-anchor="end" dy="0.35em">6</text>
    <text x="7.67" y="7" text-anchor="end" dy="0.35em">8</text>
  </g>
</g>
<defs>
  <clipPath id="img-f8defcc4-4">
  <path d="M8.67,5 L 198.2 5 198.2 82.32 8.67 82.32" />
</clipPath>
</defs>
</svg>
