<?xml version="1.0" encoding="UTF-8"?>
<svg xmlns="http://www.w3.org/2000/svg"
     xmlns:xlink="http://www.w3.org/1999/xlink"
     xmlns:gadfly="http://www.gadflyjl.org/ns"
     version="1.2"
     width="141.42mm" height="100mm" viewBox="0 0 141.42 100"
     stroke="none"
     fill="#000000"
     stroke-width="0.3"
     font-size="3.88"
>
<defs>
  <marker id="arrow" markerWidth="15" markerHeight="7" refX="5" refY="3.5" orient="auto" markerUnits="strokeWidth">
    <path d="M0,0 L15,3.5 L0,7 z" stroke="context-stroke" fill="context-stroke"/>
  </marker>
</defs>
<g class="plotroot xscalable yscalable" id="img-628ffec1-1">
  <g font-size="3.88" font-family="'PT Sans','Helvetica Neue','Helvetica',sans-serif" fill="#564A55" stroke="#000000" stroke-opacity="0.000" id="img-628ffec1-2">
    <g transform="translate(74.22,88.39)">
      <g class="primitive">
        <text text-anchor="middle" dy="0.6em">κ⁻¹</text>
      </g>
    </g>
  </g>
  <g class="guide xlabels" font-size="2.82" font-family="'PT Sans Caption','Helvetica Neue','Helvetica',sans-serif" fill="#6C606B" id="img-628ffec1-3">
    <g transform="translate(14.02,81.72)">
      <g class="primitive">
        <text text-anchor="middle" dy="0.6em">0.0</text>
      </g>
    </g>
    <g transform="translate(44.12,81.72)">
      <g class="primitive">
        <text text-anchor="middle" dy="0.6em">0.1</text>
      </g>
    </g>
    <g transform="translate(74.22,81.72)">
      <g class="primitive">
        <text text-anchor="middle" dy="0.6em">0.2</text>
      </g>
    </g>
    <g transform="translate(104.32,81.72)">
      <g class="primitive">
        <text text-anchor="middle" dy="0.6em">0.3</text>
      </g>
    </g>
    <g transform="translate(134.42,81.72)">
      <g class="primitive">
        <text text-anchor="middle" dy="0.6em">0.4</text>
      </g>
    </g>
  </g>
  <g clip-path="url(#img-628ffec1-4)">
    <g id="img-628ffec1-5">
      <g pointer-events="visible" fill="#000000" fill-opacity="0.000" stroke="#000000" stroke-opacity="0.000" class="guide background" id="img-628ffec1-6">
        <g transform="translate(74.22,42.86)" id="img-628ffec1-7">
          <path d="M-62.2,-37.86 L 62.2 -37.86 62.2 37.86 -62.2 37.86 z" class="primitive"/>
        </g>
      </g>
      <g class="guide ygridlines xfixed" stroke-dasharray="0.5,0.5" stroke-width="0.2" stroke="#D0D0E0" id="img-628ffec1-8">
        <g transform="translate(74.22,78.71)" id="img-628ffec1-9">
          <path fill="none" d="M-62.2,0 L 62.2 0" class="primitive"/>
        </g>
        <g transform="translate(74.22,54.81)" id="img-628ffec1-10">
          <path fill="none" d="M-62.2,0 L 62.2 0" class="primitive"/>
        </g>
        <g transform="translate(74.22,30.9)" id="img-628ffec1-11">
          <path fill="none" d="M-62.2,0 L 62.2 0" class="primitive"/>
        </g>
        <g transform="translate(74.22,7)" id="img-628ffec1-12">
          <path fill="none" d="M-62.2,0 L 62.2 0" class="primitive"/>
        </g>
      </g>
      <g class="guide xgridlines yfixed" stroke-dasharray="0.5,0.5" stroke-width="0.2" stroke="#D0D0E0" id="img-628ffec1-13">
        <g transform="translate(14.02,42.86)" id="img-628ffec1-14">
          <path fill="none" d="M0,-37.86 L 0 37.86" class="primitive"/>
        </g>
        <g transform="translate(44.12,42.86)" id="img-628ffec1-15">
          <path fill="none" d="M0,-37.86 L 0 37.86" class="primitive"/>
        </g>
        <g transform="translate(74.22,42.86)" id="img-628ffec1-16">
          <path fill="none" d="M0,-37.86 L 0 37.86" class="primitive"/>
        </g>
        <g transform="translate(104.32,42.86)" id="img-628ffec1-17">
          <path fill="none" d="M0,-37.86 L 0 37.86" class="primitive"/>
        </g>
        <g transform="translate(134.42,42.86)" id="img-628ffec1-18">
          <path fill="none" d="M0,-37.86 L 0 37.86" class="primitive"/>
        </g>
      </g>
      <g class="plotpanel" id="img-628ffec1-19">
        <metadata>
          <boundingbox value="12.02000000000001mm 5.0mm 124.4013562373095mm 75.715mm"/>
          <unitbox value="-0.006644443426560831 308.3664505333612 0.41328888685312165 -316.7329010667225"/>
        </metadata>
        <g shape-rendering="crispEdges" stroke-width="0.3" id="img-628ffec1-20">
          <g stroke="#000000" stroke-opacity="0.000" class="geometry" fill="#00BFFF" id="img-628ffec1-21">
            <g transform="translate(32.98,78.6)" id="img-628ffec1-22">
              <path d="M-0.33,-0.12 L 0.33 -0.12 0.33 0.12 -0.33 0.12 z" class="primitive"/>
            </g>
            <g transform="translate(33.58,78.72)" id="img-628ffec1-23">
              <path d="M-0.33,-0 L 0.33 -0 0.33 0 -0.33 0 z" class="primitive"/>
            </g>
            <g transform="translate(34.19,78.6)" id="img-628ffec1-24">
              <path d="M-0.33,-0.12 L 0.33 -0.12 0.33 0.12 -0.33 0.12 z" class="primitive"/>
            </g>
            <g transform="translate(34.79,78.48)" id="img-628ffec1-25">
              <path d="M-0.33,-0.24 L 0.33 -0.24 0.33 0.24 -0.33 0.24 z" class="primitive"/>
            </g>
            <g transform="translate(35.39,78.72)" id="img-628ffec1-26">
              <path d="M-0.33,-0 L 0.33 -0 0.33 0 -0.33 0 z" class="primitive"/>
            </g>
            <g transform="translate(35.99,78.48)" id="img-628ffec1-27">
              <path d="M-0.33,-0.24 L 0.33 -0.24 0.33 0.24 -0.33 0.24 z" class="primitive"/>
            </g>
            <g transform="translate(36.6,78.36)" id="img-628ffec1-28">
              <path d="M-0.33,-0.36 L 0.33 -0.36 0.33 0.36 -0.33 0.36 z" class="primitive"/>
            </g>
            <g transform="translate(37.2,78.12)" id="img-628ffec1-29">
              <path d="M-0.33,-0.6 L 0.33 -0.6 0.33 0.6 -0.33 0.6 z" class="primitive"/>
            </g>
            <g transform="translate(37.8,78.12)" id="img-628ffec1-30">
              <path d="M-0.33,-0.6 L 0.33 -0.6 0.33 0.6 -0.33 0.6 z" class="primitive"/>
            </g>
            <g transform="translate(38.41,77.52)" id="img-628ffec1-31">
              <path d="M-0.33,-1.2 L 0.33 -1.2 0.33 1.2 -0.33 1.2 z" class="primitive"/>
            </g>
            <g transform="translate(39.01,77.88)" id="img-628ffec1-32">
              <path d="M-0.33,-0.84 L 0.33 -0.84 0.33 0.84 -0.33 0.84 z" class="primitive"/>
            </g>
            <g transform="translate(39.61,77.28)" id="img-628ffec1-33">
              <path d="M-0.33,-1.43 L 0.33 -1.43 0.33 1.43 -0.33 1.43 z" class="primitive"/>
            </g>
            <g transform="translate(40.22,76.92)" id="img-628ffec1-34">
              <path d="M-0.33,-1.79 L 0.33 -1.79 0.33 1.79 -0.33 1.79 z" class="primitive"/>
            </g>
            <g transform="translate(40.82,75.97)" id="img-628ffec1-35">
              <path d="M-0.33,-2.75 L 0.33 -2.75 0.33 2.75 -0.33 2.75 z" class="primitive"/>
            </g>
            <g transform="translate(41.42,75.85)" id="img-628ffec1-36">
              <path d="M-0.33,-2.87 L 0.33 -2.87 0.33 2.87 -0.33 2.87 z" class="primitive"/>
            </g>
            <g transform="translate(42.03,75.37)" id="img-628ffec1-37">
              <path d="M-0.33,-3.35 L 0.33 -3.35 0.33 3.35 -0.33 3.35 z" class="primitive"/>
            </g>
            <g transform="translate(42.63,75.13)" id="img-628ffec1-38">
              <path d="M-0.33,-3.59 L 0.33 -3.59 0.33 3.59 -0.33 3.59 z" class="primitive"/>
            </g>
            <g transform="translate(43.23,71.9)" id="img-628ffec1-39">
              <path d="M-0.33,-6.81 L 0.33 -6.81 0.33 6.81 -0.33 6.81 z" class="primitive"/>
            </g>
            <g transform="translate(43.83,71.78)" id="img-628ffec1-40">
              <path d="M-0.33,-6.93 L 0.33 -6.93 0.33 6.93 -0.33 6.93 z" class="primitive"/>
            </g>
            <g transform="translate(44.44,71.18)" id="img-628ffec1-41">
              <path d="M-0.33,-7.53 L 0.33 -7.53 0.33 7.53 -0.33 7.53 z" class="primitive"/>
            </g>
            <g transform="translate(45.04,69.63)" id="img-628ffec1-42">
              <path d="M-0.33,-9.08 L 0.33 -9.08 0.33 9.08 -0.33 9.08 z" class="primitive"/>
            </g>
            <g transform="translate(45.64,68.08)" id="img-628ffec1-43">
              <path d="M-0.33,-10.64 L 0.33 -10.64 0.33 10.64 -0.33 10.64 z" class="primitive"/>
            </g>
            <g transform="translate(46.25,67.48)" id="img-628ffec1-44">
              <path d="M-0.33,-11.24 L 0.33 -11.24 0.33 11.24 -0.33 11.24 z" class="primitive"/>
            </g>
            <g transform="translate(46.85,67.72)" id="img-628ffec1-45">
              <path d="M-0.33,-11 L 0.33 -11 0.33 11 -0.33 11 z" class="primitive"/>
            </g>
            <g transform="translate(47.45,63.65)" id="img-628ffec1-46">
              <path d="M-0.33,-15.06 L 0.33 -15.06 0.33 15.06 -0.33 15.06 z" class="primitive"/>
            </g>
            <g transform="translate(48.06,63.06)" id="img-628ffec1-47">
              <path d="M-0.33,-15.66 L 0.33 -15.66 0.33 15.66 -0.33 15.66 z" class="primitive"/>
            </g>
            <g transform="translate(48.66,62.58)" id="img-628ffec1-48">
              <path d="M-0.33,-16.14 L 0.33 -16.14 0.33 16.14 -0.33 16.14 z" class="primitive"/>
            </g>
            <g transform="translate(49.26,61.26)" id="img-628ffec1-49">
              <path d="M-0.33,-17.45 L 0.33 -17.45 0.33 17.45 -0.33 17.45 z" class="primitive"/>
            </g>
            <g transform="translate(49.86,61.38)" id="img-628ffec1-50">
              <path d="M-0.33,-17.33 L 0.33 -17.33 0.33 17.33 -0.33 17.33 z" class="primitive"/>
            </g>
            <g transform="translate(50.47,56.12)" id="img-628ffec1-51">
              <path d="M-0.33,-22.59 L 0.33 -22.59 0.33 22.59 -0.33 22.59 z" class="primitive"/>
            </g>
            <g transform="translate(51.07,58.52)" id="img-628ffec1-52">
              <path d="M-0.33,-20.2 L 0.33 -20.2 0.33 20.2 -0.33 20.2 z" class="primitive"/>
            </g>
            <g transform="translate(51.67,58.4)" id="img-628ffec1-53">
              <path d="M-0.33,-20.32 L 0.33 -20.32 0.33 20.32 -0.33 20.32 z" class="primitive"/>
            </g>
            <g transform="translate(52.28,56.36)" id="img-628ffec1-54">
              <path d="M-0.33,-22.35 L 0.33 -22.35 0.33 22.35 -0.33 22.35 z" class="primitive"/>
            </g>
            <g transform="translate(52.88,52.66)" id="img-628ffec1-55">
              <path d="M-0.33,-26.06 L 0.33 -26.06 0.33 26.06 -0.33 26.06 z" class="primitive"/>
            </g>
            <g transform="translate(53.48,55.29)" id="img-628ffec1-56">
              <path d="M-0.33,-23.43 L 0.33 -23.43 0.33 23.43 -0.33 23.43 z" class="primitive"/>
            </g>
            <g transform="translate(54.09,50.87)" id="img-628ffec1-57">
              <path d="M-0.33,-27.85 L 0.33 -27.85 0.33 27.85 -0.33 27.85 z" class="primitive"/>
            </g>
            <g transform="translate(54.69,50.75)" id="img-628ffec1-58">
              <path d="M-0.33,-27.97 L 0.33 -27.97 0.33 27.97 -0.33 27.97 z" class="primitive"/>
            </g>
            <g transform="translate(55.29,49.79)" id="img-628ffec1-59">
              <path d="M-0.33,-28.93 L 0.33 -28.93 0.33 28.93 -0.33 28.93 z" class="primitive"/>
            </g>
            <g transform="translate(55.89,51.1)" id="img-628ffec1-60">
              <path d="M-0.33,-27.61 L 0.33 -27.61 0.33 27.61 -0.33 27.61 z" class="primitive"/>
            </g>
            <g transform="translate(56.5,51.94)" id="img-628ffec1-61">
              <path d="M-0.33,-26.77 L 0.33 -26.77 0.33 26.77 -0.33 26.77 z" class="primitive"/>
            </g>
            <g transform="translate(57.1,50.15)" id="img-628ffec1-62">
              <path d="M-0.33,-28.57 L 0.33 -28.57 0.33 28.57 -0.33 28.57 z" class="primitive"/>
            </g>
            <g transform="translate(57.7,51.94)" id="img-628ffec1-63">
              <path d="M-0.33,-26.77 L 0.33 -26.77 0.33 26.77 -0.33 26.77 z" class="primitive"/>
            </g>
            <g transform="translate(58.31,49.31)" id="img-628ffec1-64">
              <path d="M-0.33,-29.4 L 0.33 -29.4 0.33 29.4 -0.33 29.4 z" class="primitive"/>
            </g>
            <g transform="translate(58.91,47.88)" id="img-628ffec1-65">
              <path d="M-0.33,-30.84 L 0.33 -30.84 0.33 30.84 -0.33 30.84 z" class="primitive"/>
            </g>
            <g transform="translate(59.51,49.07)" id="img-628ffec1-66">
              <path d="M-0.33,-29.64 L 0.33 -29.64 0.33 29.64 -0.33 29.64 z" class="primitive"/>
            </g>
            <g transform="translate(60.12,50.99)" id="img-628ffec1-67">
              <path d="M-0.33,-27.73 L 0.33 -27.73 0.33 27.73 -0.33 27.73 z" class="primitive"/>
            </g>
            <g transform="translate(60.72,49.55)" id="img-628ffec1-68">
              <path d="M-0.33,-29.16 L 0.33 -29.16 0.33 29.16 -0.33 29.16 z" class="primitive"/>
            </g>
            <g transform="translate(61.32,50.99)" id="img-628ffec1-69">
              <path d="M-0.33,-27.73 L 0.33 -27.73 0.33 27.73 -0.33 27.73 z" class="primitive"/>
            </g>
            <g transform="translate(61.92,50.27)" id="img-628ffec1-70">
              <path d="M-0.33,-28.45 L 0.33 -28.45 0.33 28.45 -0.33 28.45 z" class="primitive"/>
            </g>
            <g transform="translate(62.53,54.09)" id="img-628ffec1-71">
              <path d="M-0.33,-24.62 L 0.33 -24.62 0.33 24.62 -0.33 24.62 z" class="primitive"/>
            </g>
            <g transform="translate(63.13,50.27)" id="img-628ffec1-72">
              <path d="M-0.33,-28.45 L 0.33 -28.45 0.33 28.45 -0.33 28.45 z" class="primitive"/>
            </g>
            <g transform="translate(63.73,49.43)" id="img-628ffec1-73">
              <path d="M-0.33,-29.28 L 0.33 -29.28 0.33 29.28 -0.33 29.28 z" class="primitive"/>
            </g>
            <g transform="translate(64.34,55.17)" id="img-628ffec1-74">
              <path d="M-0.33,-23.55 L 0.33 -23.55 0.33 23.55 -0.33 23.55 z" class="primitive"/>
            </g>
            <g transform="translate(64.94,54.45)" id="img-628ffec1-75">
              <path d="M-0.33,-24.26 L 0.33 -24.26 0.33 24.26 -0.33 24.26 z" class="primitive"/>
            </g>
            <g transform="translate(65.54,55.77)" id="img-628ffec1-76">
              <path d="M-0.33,-22.95 L 0.33 -22.95 0.33 22.95 -0.33 22.95 z" class="primitive"/>
            </g>
            <g transform="translate(66.15,58.04)" id="img-628ffec1-77">
              <path d="M-0.33,-20.68 L 0.33 -20.68 0.33 20.68 -0.33 20.68 z" class="primitive"/>
            </g>
            <g transform="translate(66.75,58.28)" id="img-628ffec1-78">
              <path d="M-0.33,-20.44 L 0.33 -20.44 0.33 20.44 -0.33 20.44 z" class="primitive"/>
            </g>
            <g transform="translate(67.35,56.84)" id="img-628ffec1-79">
              <path d="M-0.33,-21.87 L 0.33 -21.87 0.33 21.87 -0.33 21.87 z" class="primitive"/>
            </g>
            <g transform="translate(67.96,58.99)" id="img-628ffec1-80">
              <path d="M-0.33,-19.72 L 0.33 -19.72 0.33 19.72 -0.33 19.72 z" class="primitive"/>
            </g>
            <g transform="translate(68.56,60.19)" id="img-628ffec1-81">
              <path d="M-0.33,-18.53 L 0.33 -18.53 0.33 18.53 -0.33 18.53 z" class="primitive"/>
            </g>
            <g transform="translate(69.16,63.65)" id="img-628ffec1-82">
              <path d="M-0.33,-15.06 L 0.33 -15.06 0.33 15.06 -0.33 15.06 z" class="primitive"/>
            </g>
            <g transform="translate(69.76,60.55)" id="img-628ffec1-83">
              <path d="M-0.33,-18.17 L 0.33 -18.17 0.33 18.17 -0.33 18.17 z" class="primitive"/>
            </g>
            <g transform="translate(70.37,62.22)" id="img-628ffec1-84">
              <path d="M-0.33,-16.49 L 0.33 -16.49 0.33 16.49 -0.33 16.49 z" class="primitive"/>
            </g>
            <g transform="translate(70.97,63.89)" id="img-628ffec1-85">
              <path d="M-0.33,-14.82 L 0.33 -14.82 0.33 14.82 -0.33 14.82 z" class="primitive"/>
            </g>
            <g transform="translate(71.57,64.73)" id="img-628ffec1-86">
              <path d="M-0.33,-13.98 L 0.33 -13.98 0.33 13.98 -0.33 13.98 z" class="primitive"/>
            </g>
            <g transform="translate(72.18,68.32)" id="img-628ffec1-87">
              <path d="M-0.33,-10.4 L 0.33 -10.4 0.33 10.4 -0.33 10.4 z" class="primitive"/>
            </g>
            <g transform="translate(72.78,69.39)" id="img-628ffec1-88">
              <path d="M-0.33,-9.32 L 0.33 -9.32 0.33 9.32 -0.33 9.32 z" class="primitive"/>
            </g>
            <g transform="translate(73.38,65.45)" id="img-628ffec1-89">
              <path d="M-0.33,-13.27 L 0.33 -13.27 0.33 13.27 -0.33 13.27 z" class="primitive"/>
            </g>
            <g transform="translate(73.99,68.32)" id="img-628ffec1-90">
              <path d="M-0.33,-10.4 L 0.33 -10.4 0.33 10.4 -0.33 10.4 z" class="primitive"/>
            </g>
            <g transform="translate(74.59,68.2)" id="img-628ffec1-91">
              <path d="M-0.33,-10.52 L 0.33 -10.52 0.33 10.52 -0.33 10.52 z" class="primitive"/>
            </g>
            <g transform="translate(75.19,69.03)" id="img-628ffec1-92">
              <path d="M-0.33,-9.68 L 0.33 -9.68 0.33 9.68 -0.33 9.68 z" class="primitive"/>
            </g>
            <g transform="translate(75.79,70.95)" id="img-628ffec1-93">
              <path d="M-0.33,-7.77 L 0.33 -7.77 0.33 7.77 -0.33 7.77 z" class="primitive"/>
            </g>
            <g transform="translate(76.4,71.54)" id="img-628ffec1-94">
              <path d="M-0.33,-7.17 L 0.33 -7.17 0.33 7.17 -0.33 7.17 z" class="primitive"/>
            </g>
            <g transform="translate(77,71.9)" id="img-628ffec1-95">
              <path d="M-0.33,-6.81 L 0.33 -6.81 0.33 6.81 -0.33 6.81 z" class="primitive"/>
            </g>
            <g transform="translate(77.6,72.38)" id="img-628ffec1-96">
              <path d="M-0.33,-6.33 L 0.33 -6.33 0.33 6.33 -0.33 6.33 z" class="primitive"/>
            </g>
            <g transform="translate(78.21,73.81)" id="img-628ffec1-97">
              <path d="M-0.33,-4.9 L 0.33 -4.9 0.33 4.9 -0.33 4.9 z" class="primitive"/>
            </g>
            <g transform="translate(78.81,72.38)" id="img-628ffec1-98">
              <path d="M-0.33,-6.33 L 0.33 -6.33 0.33 6.33 -0.33 6.33 z" class="primitive"/>
            </g>
            <g transform="translate(79.41,73.22)" id="img-628ffec1-99">
              <path d="M-0.33,-5.5 L 0.33 -5.5 0.33 5.5 -0.33 5.5 z" class="primitive"/>
            </g>
            <g transform="translate(80.02,73.34)" id="img-628ffec1-100">
              <path d="M-0.33,-5.38 L 0.33 -5.38 0.33 5.38 -0.33 5.38 z" class="primitive"/>
            </g>
            <g transform="translate(80.62,73.93)" id="img-628ffec1-101">
              <path d="M-0.33,-4.78 L 0.33 -4.78 0.33 4.78 -0.33 4.78 z" class="primitive"/>
            </g>
            <g transform="translate(81.22,73.1)" id="img-628ffec1-102">
              <path d="M-0.33,-5.62 L 0.33 -5.62 0.33 5.62 -0.33 5.62 z" class="primitive"/>
            </g>
            <g transform="translate(81.82,75.61)" id="img-628ffec1-103">
              <path d="M-0.33,-3.11 L 0.33 -3.11 0.33 3.11 -0.33 3.11 z" class="primitive"/>
            </g>
            <g transform="translate(82.43,75.85)" id="img-628ffec1-104">
              <path d="M-0.33,-2.87 L 0.33 -2.87 0.33 2.87 -0.33 2.87 z" class="primitive"/>
            </g>
            <g transform="translate(83.03,76.2)" id="img-628ffec1-105">
              <path d="M-0.33,-2.51 L 0.33 -2.51 0.33 2.51 -0.33 2.51 z" class="primitive"/>
            </g>
            <g transform="translate(83.63,75.61)" id="img-628ffec1-106">
              <path d="M-0.33,-3.11 L 0.33 -3.11 0.33 3.11 -0.33 3.11 z" class="primitive"/>
            </g>
            <g transform="translate(84.24,75.85)" id="img-628ffec1-107">
              <path d="M-0.33,-2.87 L 0.33 -2.87 0.33 2.87 -0.33 2.87 z" class="primitive"/>
            </g>
            <g transform="translate(84.84,77.16)" id="img-628ffec1-108">
              <path d="M-0.33,-1.55 L 0.33 -1.55 0.33 1.55 -0.33 1.55 z" class="primitive"/>
            </g>
            <g transform="translate(85.44,76.2)" id="img-628ffec1-109">
              <path d="M-0.33,-2.51 L 0.33 -2.51 0.33 2.51 -0.33 2.51 z" class="primitive"/>
            </g>
            <g transform="translate(86.05,77.4)" id="img-628ffec1-110">
              <path d="M-0.33,-1.31 L 0.33 -1.31 0.33 1.31 -0.33 1.31 z" class="primitive"/>
            </g>
            <g transform="translate(86.65,76.09)" id="img-628ffec1-111">
              <path d="M-0.33,-2.63 L 0.33 -2.63 0.33 2.63 -0.33 2.63 z" class="primitive"/>
            </g>
            <g transform="translate(87.25,76.56)" id="img-628ffec1-112">
              <path d="M-0.33,-2.15 L 0.33 -2.15 0.33 2.15 -0.33 2.15 z" class="primitive"/>
            </g>
            <g transform="translate(87.86,77.4)" id="img-628ffec1-113">
              <path d="M-0.33,-1.31 L 0.33 -1.31 0.33 1.31 -0.33 1.31 z" class="primitive"/>
            </g>
            <g transform="translate(88.46,77.28)" id="img-628ffec1-114">
              <path d="M-0.33,-1.43 L 0.33 -1.43 0.33 1.43 -0.33 1.43 z" class="primitive"/>
            </g>
            <g transform="translate(89.06,77.28)" id="img-628ffec1-115">
              <path d="M-0.33,-1.43 L 0.33 -1.43 0.33 1.43 -0.33 1.43 z" class="primitive"/>
            </g>
            <g transform="translate(89.66,77.76)" id="img-628ffec1-116">
              <path d="M-0.33,-0.96 L 0.33 -0.96 0.33 0.96 -0.33 0.96 z" class="primitive"/>
            </g>
            <g transform="translate(90.27,77.28)" id="img-628ffec1-117">
              <path d="M-0.33,-1.43 L 0.33 -1.43 0.33 1.43 -0.33 1.43 z" class="primitive"/>
            </g>
            <g transform="translate(90.87,77.04)" id="img-628ffec1-118">
              <path d="M-0.33,-1.67 L 0.33 -1.67 0.33 1.67 -0.33 1.67 z" class="primitive"/>
            </g>
            <g transform="translate(91.47,77.52)" id="img-628ffec1-119">
              <path d="M-0.33,-1.2 L 0.33 -1.2 0.33 1.2 -0.33 1.2 z" class="primitive"/>
            </g>
            <g transform="translate(92.08,78)" id="img-628ffec1-120">
              <path d="M-0.33,-0.72 L 0.33 -0.72 0.33 0.72 -0.33 0.72 z" class="primitive"/>
            </g>
            <g transform="translate(92.68,78.12)" id="img-628ffec1-121">
              <path d="M-0.33,-0.6 L 0.33 -0.6 0.33 0.6 -0.33 0.6 z" class="primitive"/>
            </g>
            <g transform="translate(93.28,77.88)" id="img-628ffec1-122">
              <path d="M-0.33,-0.84 L 0.33 -0.84 0.33 0.84 -0.33 0.84 z" class="primitive"/>
            </g>
            <g transform="translate(93.89,78.24)" id="img-628ffec1-123">
              <path d="M-0.33,-0.48 L 0.33 -0.48 0.33 0.48 -0.33 0.48 z" class="primitive"/>
            </g>
            <g transform="translate(94.49,78.12)" id="img-628ffec1-124">
              <path d="M-0.33,-0.6 L 0.33 -0.6 0.33 0.6 -0.33 0.6 z" class="primitive"/>
            </g>
            <g transform="translate(95.09,78)" id="img-628ffec1-125">
              <path d="M-0.33,-0.72 L 0.33 -0.72 0.33 0.72 -0.33 0.72 z" class="primitive"/>
            </g>
            <g transform="translate(95.69,78.72)" id="img-628ffec1-126">
              <path d="M-0.33,-0 L 0.33 -0 0.33 0 -0.33 0 z" class="primitive"/>
            </g>
            <g transform="translate(96.3,78.48)" id="img-628ffec1-127">
              <path d="M-0.33,-0.24 L 0.33 -0.24 0.33 0.24 -0.33 0.24 z" class="primitive"/>
            </g>
            <g transform="translate(96.9,78.36)" id="img-628ffec1-128">
              <path d="M-0.33,-0.36 L 0.33 -0.36 0.33 0.36 -0.33 0.36 z" class="primitive"/>
            </g>
            <g transform="translate(97.5,78.72)" id="img-628ffec1-129">
              <path d="M-0.33,-0 L 0.33 -0 0.33 0 -0.33 0 z" class="primitive"/>
            </g>
            <g transform="translate(98.11,78.6)" id="img-628ffec1-130">
              <path d="M-0.33,-0.12 L 0.33 -0.12 0.33 0.12 -0.33 0.12 z" class="primitive"/>
            </g>
            <g transform="translate(98.71,78.36)" id="img-628ffec1-131">
              <path d="M-0.33,-0.36 L 0.33 -0.36 0.33 0.36 -0.33 0.36 z" class="primitive"/>
            </g>
            <g transform="translate(99.31,78.72)" id="img-628ffec1-132">
              <path d="M-0.33,-0 L 0.33 -0 0.33 0 -0.33 0 z" class="primitive"/>
            </g>
            <g transform="translate(99.92,78.72)" id="img-628ffec1-133">
              <path d="M-0.33,-0 L 0.33 -0 0.33 0 -0.33 0 z" class="primitive"/>
            </g>
            <g transform="translate(100.52,78.6)" id="img-628ffec1-134">
              <path d="M-0.33,-0.12 L 0.33 -0.12 0.33 0.12 -0.33 0.12 z" class="primitive"/>
            </g>
            <g transform="translate(101.12,78.48)" id="img-628ffec1-135">
              <path d="M-0.33,-0.24 L 0.33 -0.24 0.33 0.24 -0.33 0.24 z" class="primitive"/>
            </g>
            <g transform="translate(101.72,78.72)" id="img-628ffec1-136">
              <path d="M-0.33,-0 L 0.33 -0 0.33 0 -0.33 0 z" class="primitive"/>
            </g>
            <g transform="translate(102.33,78.72)" id="img-628ffec1-137">
              <path d="M-0.33,-0 L 0.33 -0 0.33 0 -0.33 0 z" class="primitive"/>
            </g>
            <g transform="translate(102.93,78.6)" id="img-628ffec1-138">
              <path d="M-0.33,-0.12 L 0.33 -0.12 0.33 0.12 -0.33 0.12 z" class="primitive"/>
            </g>
            <g transform="translate(103.53,78.6)" id="img-628ffec1-139">
              <path d="M-0.33,-0.12 L 0.33 -0.12 0.33 0.12 -0.33 0.12 z" class="primitive"/>
            </g>
            <g transform="translate(104.14,78.6)" id="img-628ffec1-140">
              <path d="M-0.33,-0.12 L 0.33 -0.12 0.33 0.12 -0.33 0.12 z" class="primitive"/>
            </g>
            <g transform="translate(104.74,78.72)" id="img-628ffec1-141">
              <path d="M-0.33,-0 L 0.33 -0 0.33 0 -0.33 0 z" class="primitive"/>
            </g>
            <g transform="translate(105.34,78.6)" id="img-628ffec1-142">
              <path d="M-0.33,-0.12 L 0.33 -0.12 0.33 0.12 -0.33 0.12 z" class="primitive"/>
            </g>
            <g transform="translate(105.95,78.6)" id="img-628ffec1-143">
              <path d="M-0.33,-0.12 L 0.33 -0.12 0.33 0.12 -0.33 0.12 z" class="primitive"/>
            </g>
            <g transform="translate(106.55,78.72)" id="img-628ffec1-144">
              <path d="M-0.33,-0 L 0.33 -0 0.33 0 -0.33 0 z" class="primitive"/>
            </g>
            <g transform="translate(107.15,78.6)" id="img-628ffec1-145">
              <path d="M-0.33,-0.12 L 0.33 -0.12 0.33 0.12 -0.33 0.12 z" class="primitive"/>
            </g>
            <g transform="translate(107.76,78.72)" id="img-628ffec1-146">
              <path d="M-0.33,-0 L 0.33 -0 0.33 0 -0.33 0 z" class="primitive"/>
            </g>
            <g transform="translate(108.36,78.72)" id="img-628ffec1-147">
              <path d="M-0.33,-0 L 0.33 -0 0.33 0 -0.33 0 z" class="primitive"/>
            </g>
            <g transform="translate(108.96,78.72)" id="img-628ffec1-148">
              <path d="M-0.33,-0 L 0.33 -0 0.33 0 -0.33 0 z" class="primitive"/>
            </g>
            <g transform="translate(109.56,78.72)" id="img-628ffec1-149">
              <path d="M-0.33,-0 L 0.33 -0 0.33 0 -0.33 0 z" class="primitive"/>
            </g>
            <g transform="translate(110.17,78.72)" id="img-628ffec1-150">
              <path d="M-0.33,-0 L 0.33 -0 0.33 0 -0.33 0 z" class="primitive"/>
            </g>
            <g transform="translate(110.77,78.72)" id="img-628ffec1-151">
              <path d="M-0.33,-0 L 0.33 -0 0.33 0 -0.33 0 z" class="primitive"/>
            </g>
            <g transform="translate(111.37,78.6)" id="img-628ffec1-152">
              <path d="M-0.33,-0.12 L 0.33 -0.12 0.33 0.12 -0.33 0.12 z" class="primitive"/>
            </g>
            <g transform="translate(111.98,78.72)" id="img-628ffec1-153">
              <path d="M-0.33,-0 L 0.33 -0 0.33 0 -0.33 0 z" class="primitive"/>
            </g>
            <g transform="translate(112.58,78.6)" id="img-628ffec1-154">
              <path d="M-0.33,-0.12 L 0.33 -0.12 0.33 0.12 -0.33 0.12 z" class="primitive"/>
            </g>
            <g transform="translate(113.18,78.72)" id="img-628ffec1-155">
              <path d="M-0.33,-0 L 0.33 -0 0.33 0 -0.33 0 z" class="primitive"/>
            </g>
            <g transform="translate(113.79,78.72)" id="img-628ffec1-156">
              <path d="M-0.33,-0 L 0.33 -0 0.33 0 -0.33 0 z" class="primitive"/>
            </g>
            <g transform="translate(114.39,78.72)" id="img-628ffec1-157">
              <path d="M-0.33,-0 L 0.33 -0 0.33 0 -0.33 0 z" class="primitive"/>
            </g>
            <g transform="translate(114.99,78.72)" id="img-628ffec1-158">
              <path d="M-0.33,-0 L 0.33 -0 0.33 0 -0.33 0 z" class="primitive"/>
            </g>
            <g transform="translate(115.59,78.72)" id="img-628ffec1-159">
              <path d="M-0.33,-0 L 0.33 -0 0.33 0 -0.33 0 z" class="primitive"/>
            </g>
            <g transform="translate(116.2,78.6)" id="img-628ffec1-160">
              <path d="M-0.33,-0.12 L 0.33 -0.12 0.33 0.12 -0.33 0.12 z" class="primitive"/>
            </g>
            <g transform="translate(116.8,78.6)" id="img-628ffec1-161">
              <path d="M-0.33,-0.12 L 0.33 -0.12 0.33 0.12 -0.33 0.12 z" class="primitive"/>
            </g>
            <g transform="translate(117.4,78.72)" id="img-628ffec1-162">
              <path d="M-0.33,-0 L 0.33 -0 0.33 0 -0.33 0 z" class="primitive"/>
            </g>
            <g transform="translate(118.01,78.72)" id="img-628ffec1-163">
              <path d="M-0.33,-0 L 0.33 -0 0.33 0 -0.33 0 z" class="primitive"/>
            </g>
            <g transform="translate(118.61,78.72)" id="img-628ffec1-164">
              <path d="M-0.33,-0 L 0.33 -0 0.33 0 -0.33 0 z" class="primitive"/>
            </g>
            <g transform="translate(119.21,78.6)" id="img-628ffec1-165">
              <path d="M-0.33,-0.12 L 0.33 -0.12 0.33 0.12 -0.33 0.12 z" class="primitive"/>
            </g>
            <g transform="translate(119.82,78.72)" id="img-628ffec1-166">
              <path d="M-0.33,-0 L 0.33 -0 0.33 0 -0.33 0 z" class="primitive"/>
            </g>
            <g transform="translate(120.42,78.72)" id="img-628ffec1-167">
              <path d="M-0.33,-0 L 0.33 -0 0.33 0 -0.33 0 z" class="primitive"/>
            </g>
            <g transform="translate(121.02,78.72)" id="img-628ffec1-168">
              <path d="M-0.33,-0 L 0.33 -0 0.33 0 -0.33 0 z" class="primitive"/>
            </g>
            <g transform="translate(121.62,78.72)" id="img-628ffec1-169">
              <path d="M-0.33,-0 L 0.33 -0 0.33 0 -0.33 0 z" class="primitive"/>
            </g>
            <g transform="translate(122.23,78.72)" id="img-628ffec1-170">
              <path d="M-0.33,-0 L 0.33 -0 0.33 0 -0.33 0 z" class="primitive"/>
            </g>
            <g transform="translate(122.83,78.6)" id="img-628ffec1-171">
              <path d="M-0.33,-0.12 L 0.33 -0.12 0.33 0.12 -0.33 0.12 z" class="primitive"/>
            </g>
          </g>
        </g>
      </g>
    </g>
  </g>
  <g class="guide ylabels" font-size="2.82" font-family="'PT Sans Caption','Helvetica Neue','Helvetica',sans-serif" fill="#6C606B" id="img-628ffec1-172">
    <g transform="translate(11.02,78.71)" id="img-628ffec1-173">
      <g class="primitive">
        <text text-anchor="end" dy="0.35em">0</text>
      </g>
    </g>
    <g transform="translate(11.02,54.81)" id="img-628ffec1-174">
      <g class="primitive">
        <text text-anchor="end" dy="0.35em">100</text>
      </g>
    </g>
    <g transform="translate(11.02,30.9)" id="img-628ffec1-175">
      <g class="primitive">
        <text text-anchor="end" dy="0.35em">200</text>
      </g>
    </g>
    <g transform="translate(11.02,7)" id="img-628ffec1-176">
      <g class="primitive">
        <text text-anchor="end" dy="0.35em">300</text>
      </g>
    </g>
  </g>
</g>
<defs>
  <clipPath id="img-628ffec1-4">
    <path d="M12.02,5 L 136.42 5 136.42 80.72 12.02 80.72" />
  </clipPath>
</defs>
</svg>
