<?xml version="1.0" encoding="UTF-8"?>
<svg xmlns="http://www.w3.org/2000/svg"
     xmlns:xlink="http://www.w3.org/1999/xlink"
     xmlns:gadfly="http://www.gadflyjl.org/ns"
     version="1.2"
     width="141.42mm" height="100mm" viewBox="0 0 141.42 100"
     stroke="none"
     fill="#000000"
     stroke-width="0.3"
     font-size="3.88"
>
<g class="plotroot xscalable yscalable" id="img-b1400f14-1">
  <g font-size="3.88" font-family="'PT Sans','Helvetica Neue','Helvetica',sans-serif" fill="#564A55" stroke="#000000" stroke-opacity="0.000" id="img-b1400f14-2">
    <g transform="translate(74.22,88.39)">
      <g class="primitive">
        <text text-anchor="middle" dy="0.6em">κ⁻¹</text>
      </g>
    </g>
  </g>
  <g class="guide xlabels" font-size="2.82" font-family="'PT Sans Caption','Helvetica Neue','Helvetica',sans-serif" fill="#6C606B" id="img-b1400f14-3">
    <g transform="translate(14.02,81.72)">
      <g class="primitive">
        <text text-anchor="middle" dy="0.6em">0.00</text>
      </g>
    </g>
    <g transform="translate(44.12,81.72)">
      <g class="primitive">
        <text text-anchor="middle" dy="0.6em">0.25</text>
      </g>
    </g>
    <g transform="translate(74.22,81.72)">
      <g class="primitive">
        <text text-anchor="middle" dy="0.6em">0.50</text>
      </g>
    </g>
    <g transform="translate(104.32,81.72)">
      <g class="primitive">
        <text text-anchor="middle" dy="0.6em">0.75</text>
      </g>
    </g>
    <g transform="translate(134.42,81.72)">
      <g class="primitive">
        <text text-anchor="middle" dy="0.6em">1.00</text>
      </g>
    </g>
  </g>
  <g clip-path="url(#img-b1400f14-4)">
    <g id="img-b1400f14-5">
      <g pointer-events="visible" opacity="1" fill="#000000" fill-opacity="0.000" stroke="#000000" stroke-opacity="0.000" class="guide background" id="img-b1400f14-6">
        <g transform="translate(74.22,42.86)">
          <path d="M-62.2,-37.86 L 62.2 -37.86 62.2 37.86 -62.2 37.86 z" class="primitive"/>
        </g>
      </g>
      <g class="guide ygridlines xfixed" stroke-dasharray="0.5,0.5" stroke-width="0.2" stroke="#D0D0E0" id="img-b1400f14-7">
        <g transform="translate(74.22,78.71)">
          <path fill="none" d="M-62.2,0 L 62.2 0" class="primitive"/>
        </g>
        <g transform="translate(74.22,60.79)">
          <path fill="none" d="M-62.2,0 L 62.2 0" class="primitive"/>
        </g>
        <g transform="translate(74.22,42.86)">
          <path fill="none" d="M-62.2,0 L 62.2 0" class="primitive"/>
        </g>
        <g transform="translate(74.22,24.93)">
          <path fill="none" d="M-62.2,0 L 62.2 0" class="primitive"/>
        </g>
        <g transform="translate(74.22,7)">
          <path fill="none" d="M-62.2,0 L 62.2 0" class="primitive"/>
        </g>
      </g>
      <g class="guide xgridlines yfixed" stroke-dasharray="0.5,0.5" stroke-width="0.2" stroke="#D0D0E0" id="img-b1400f14-8">
        <g transform="translate(14.02,42.86)">
          <path fill="none" d="M0,-37.86 L 0 37.86" class="primitive"/>
        </g>
        <g transform="translate(44.12,42.86)">
          <path fill="none" d="M0,-37.86 L 0 37.86" class="primitive"/>
        </g>
        <g transform="translate(74.22,42.86)">
          <path fill="none" d="M0,-37.86 L 0 37.86" class="primitive"/>
        </g>
        <g transform="translate(104.32,42.86)">
          <path fill="none" d="M0,-37.86 L 0 37.86" class="primitive"/>
        </g>
        <g transform="translate(134.42,42.86)">
          <path fill="none" d="M0,-37.86 L 0 37.86" class="primitive"/>
        </g>
      </g>
      <g class="plotpanel" id="img-b1400f14-9">
        <metadata>
          <boundingbox value="12.02000000000001mm 5.0mm 124.4013562373095mm 75.715mm"/>
          <unitbox value="-0.016611108566402077 411.15526737781494 1.033222217132804 -422.31053475563"/>
        </metadata>
        <g shape-rendering="crispEdges" stroke-width="0.3" id="img-b1400f14-10">
          <g stroke="#000000" stroke-opacity="0.000" class="geometry" fill="#00BFFF" id="img-b1400f14-11">
            <g transform="translate(14.38,50.03)">
              <path d="M-0.38,-28.69 L 0.38 -28.69 0.38 28.69 -0.38 28.69 z" class="primitive"/>
            </g>
            <g transform="translate(15.09,78.63)">
              <path d="M-0.38,-0.09 L 0.38 -0.09 0.38 0.09 -0.38 0.09 z" class="primitive"/>
            </g>
            <g transform="translate(15.8,78.27)">
              <path d="M-0.38,-0.45 L 0.38 -0.45 0.38 0.45 -0.38 0.45 z" class="primitive"/>
            </g>
            <g transform="translate(16.52,78.54)">
              <path d="M-0.38,-0.18 L 0.38 -0.18 0.38 0.18 -0.38 0.18 z" class="primitive"/>
            </g>
            <g transform="translate(17.23,78.36)">
              <path d="M-0.38,-0.36 L 0.38 -0.36 0.38 0.36 -0.38 0.36 z" class="primitive"/>
            </g>
            <g transform="translate(17.95,78.27)">
              <path d="M-0.38,-0.45 L 0.38 -0.45 0.38 0.45 -0.38 0.45 z" class="primitive"/>
            </g>
            <g transform="translate(18.66,77.82)">
              <path d="M-0.38,-0.9 L 0.38 -0.9 0.38 0.9 -0.38 0.9 z" class="primitive"/>
            </g>
            <g transform="translate(19.37,78.09)">
              <path d="M-0.38,-0.63 L 0.38 -0.63 0.38 0.63 -0.38 0.63 z" class="primitive"/>
            </g>
            <g transform="translate(20.09,77.91)">
              <path d="M-0.38,-0.81 L 0.38 -0.81 0.38 0.81 -0.38 0.81 z" class="primitive"/>
            </g>
            <g transform="translate(20.8,77.46)">
              <path d="M-0.38,-1.26 L 0.38 -1.26 0.38 1.26 -0.38 1.26 z" class="primitive"/>
            </g>
            <g transform="translate(21.52,77.1)">
              <path d="M-0.38,-1.61 L 0.38 -1.61 0.38 1.61 -0.38 1.61 z" class="primitive"/>
            </g>
            <g transform="translate(22.23,75.94)">
              <path d="M-0.38,-2.78 L 0.38 -2.78 0.38 2.78 -0.38 2.78 z" class="primitive"/>
            </g>
            <g transform="translate(22.94,76.83)">
              <path d="M-0.38,-1.88 L 0.38 -1.88 0.38 1.88 -0.38 1.88 z" class="primitive"/>
            </g>
            <g transform="translate(23.66,76.2)">
              <path d="M-0.38,-2.51 L 0.38 -2.51 0.38 2.51 -0.38 2.51 z" class="primitive"/>
            </g>
            <g transform="translate(24.37,75.94)">
              <path d="M-0.38,-2.78 L 0.38 -2.78 0.38 2.78 -0.38 2.78 z" class="primitive"/>
            </g>
            <g transform="translate(25.08,74.59)">
              <path d="M-0.38,-4.12 L 0.38 -4.12 0.38 4.12 -0.38 4.12 z" class="primitive"/>
            </g>
            <g transform="translate(25.8,74.41)">
              <path d="M-0.38,-4.3 L 0.38 -4.3 0.38 4.3 -0.38 4.3 z" class="primitive"/>
            </g>
            <g transform="translate(26.51,72.17)">
              <path d="M-0.38,-6.54 L 0.38 -6.54 0.38 6.54 -0.38 6.54 z" class="primitive"/>
            </g>
            <g transform="translate(27.23,71.45)">
              <path d="M-0.38,-7.26 L 0.38 -7.26 0.38 7.26 -0.38 7.26 z" class="primitive"/>
            </g>
            <g transform="translate(27.94,69.84)">
              <path d="M-0.38,-8.87 L 0.38 -8.87 0.38 8.87 -0.38 8.87 z" class="primitive"/>
            </g>
            <g transform="translate(28.65,70.92)">
              <path d="M-0.38,-7.8 L 0.38 -7.8 0.38 7.8 -0.38 7.8 z" class="primitive"/>
            </g>
            <g transform="translate(29.37,67.42)">
              <path d="M-0.38,-11.3 L 0.38 -11.3 0.38 11.3 -0.38 11.3 z" class="primitive"/>
            </g>
            <g transform="translate(30.08,65.72)">
              <path d="M-0.38,-13 L 0.38 -13 0.38 13 -0.38 13 z" class="primitive"/>
            </g>
            <g transform="translate(30.79,61.68)">
              <path d="M-0.38,-17.03 L 0.38 -17.03 0.38 17.03 -0.38 17.03 z" class="primitive"/>
            </g>
            <g transform="translate(31.51,61.95)">
              <path d="M-0.38,-16.76 L 0.38 -16.76 0.38 16.76 -0.38 16.76 z" class="primitive"/>
            </g>
            <g transform="translate(32.22,58.81)">
              <path d="M-0.38,-19.9 L 0.38 -19.9 0.38 19.9 -0.38 19.9 z" class="primitive"/>
            </g>
            <g transform="translate(32.94,56.66)">
              <path d="M-0.38,-22.05 L 0.38 -22.05 0.38 22.05 -0.38 22.05 z" class="primitive"/>
            </g>
            <g transform="translate(33.65,55.41)">
              <path d="M-0.38,-23.31 L 0.38 -23.31 0.38 23.31 -0.38 23.31 z" class="primitive"/>
            </g>
            <g transform="translate(34.36,56.12)">
              <path d="M-0.38,-22.59 L 0.38 -22.59 0.38 22.59 -0.38 22.59 z" class="primitive"/>
            </g>
            <g transform="translate(35.08,53.35)">
              <path d="M-0.38,-25.37 L 0.38 -25.37 0.38 25.37 -0.38 25.37 z" class="primitive"/>
            </g>
            <g transform="translate(35.79,50.48)">
              <path d="M-0.38,-28.24 L 0.38 -28.24 0.38 28.24 -0.38 28.24 z" class="primitive"/>
            </g>
            <g transform="translate(36.51,52.45)">
              <path d="M-0.38,-26.27 L 0.38 -26.27 0.38 26.27 -0.38 26.27 z" class="primitive"/>
            </g>
            <g transform="translate(37.22,49.94)">
              <path d="M-0.38,-28.78 L 0.38 -28.78 0.38 28.78 -0.38 28.78 z" class="primitive"/>
            </g>
            <g transform="translate(37.93,50.3)">
              <path d="M-0.38,-28.42 L 0.38 -28.42 0.38 28.42 -0.38 28.42 z" class="primitive"/>
            </g>
            <g transform="translate(38.65,51.46)">
              <path d="M-0.38,-27.25 L 0.38 -27.25 0.38 27.25 -0.38 27.25 z" class="primitive"/>
            </g>
            <g transform="translate(39.36,52.09)">
              <path d="M-0.38,-26.62 L 0.38 -26.62 0.38 26.62 -0.38 26.62 z" class="primitive"/>
            </g>
            <g transform="translate(40.07,51.19)">
              <path d="M-0.38,-27.52 L 0.38 -27.52 0.38 27.52 -0.38 27.52 z" class="primitive"/>
            </g>
            <g transform="translate(40.79,53.26)">
              <path d="M-0.38,-25.46 L 0.38 -25.46 0.38 25.46 -0.38 25.46 z" class="primitive"/>
            </g>
            <g transform="translate(41.5,53.44)">
              <path d="M-0.38,-25.28 L 0.38 -25.28 0.38 25.28 -0.38 25.28 z" class="primitive"/>
            </g>
            <g transform="translate(42.22,55.59)">
              <path d="M-0.38,-23.13 L 0.38 -23.13 0.38 23.13 -0.38 23.13 z" class="primitive"/>
            </g>
            <g transform="translate(42.93,51.55)">
              <path d="M-0.38,-27.16 L 0.38 -27.16 0.38 27.16 -0.38 27.16 z" class="primitive"/>
            </g>
            <g transform="translate(43.64,58.46)">
              <path d="M-0.38,-20.26 L 0.38 -20.26 0.38 20.26 -0.38 20.26 z" class="primitive"/>
            </g>
            <g transform="translate(44.36,55.05)">
              <path d="M-0.38,-23.67 L 0.38 -23.67 0.38 23.67 -0.38 23.67 z" class="primitive"/>
            </g>
            <g transform="translate(45.07,56.04)">
              <path d="M-0.38,-22.68 L 0.38 -22.68 0.38 22.68 -0.38 22.68 z" class="primitive"/>
            </g>
            <g transform="translate(45.79,58.81)">
              <path d="M-0.38,-19.9 L 0.38 -19.9 0.38 19.9 -0.38 19.9 z" class="primitive"/>
            </g>
            <g transform="translate(46.5,61.32)">
              <path d="M-0.38,-17.39 L 0.38 -17.39 0.38 17.39 -0.38 17.39 z" class="primitive"/>
            </g>
            <g transform="translate(47.21,59.8)">
              <path d="M-0.38,-18.91 L 0.38 -18.91 0.38 18.91 -0.38 18.91 z" class="primitive"/>
            </g>
            <g transform="translate(47.93,59.71)">
              <path d="M-0.38,-19 L 0.38 -19 0.38 19 -0.38 19 z" class="primitive"/>
            </g>
            <g transform="translate(48.64,62.76)">
              <path d="M-0.38,-15.96 L 0.38 -15.96 0.38 15.96 -0.38 15.96 z" class="primitive"/>
            </g>
            <g transform="translate(49.35,63.21)">
              <path d="M-0.38,-15.51 L 0.38 -15.51 0.38 15.51 -0.38 15.51 z" class="primitive"/>
            </g>
            <g transform="translate(50.07,65.36)">
              <path d="M-0.38,-13.36 L 0.38 -13.36 0.38 13.36 -0.38 13.36 z" class="primitive"/>
            </g>
            <g transform="translate(50.78,65.99)">
              <path d="M-0.38,-12.73 L 0.38 -12.73 0.38 12.73 -0.38 12.73 z" class="primitive"/>
            </g>
            <g transform="translate(51.5,67.24)">
              <path d="M-0.38,-11.47 L 0.38 -11.47 0.38 11.47 -0.38 11.47 z" class="primitive"/>
            </g>
            <g transform="translate(52.21,68.14)">
              <path d="M-0.38,-10.58 L 0.38 -10.58 0.38 10.58 -0.38 10.58 z" class="primitive"/>
            </g>
            <g transform="translate(52.92,68.59)">
              <path d="M-0.38,-10.13 L 0.38 -10.13 0.38 10.13 -0.38 10.13 z" class="primitive"/>
            </g>
            <g transform="translate(53.64,70.29)">
              <path d="M-0.38,-8.43 L 0.38 -8.43 0.38 8.43 -0.38 8.43 z" class="primitive"/>
            </g>
            <g transform="translate(54.35,70.29)">
              <path d="M-0.38,-8.43 L 0.38 -8.43 0.38 8.43 -0.38 8.43 z" class="primitive"/>
            </g>
            <g transform="translate(55.07,70.65)">
              <path d="M-0.38,-8.07 L 0.38 -8.07 0.38 8.07 -0.38 8.07 z" class="primitive"/>
            </g>
            <g transform="translate(55.78,71.72)">
              <path d="M-0.38,-6.99 L 0.38 -6.99 0.38 6.99 -0.38 6.99 z" class="primitive"/>
            </g>
            <g transform="translate(56.49,72.71)">
              <path d="M-0.38,-6.01 L 0.38 -6.01 0.38 6.01 -0.38 6.01 z" class="primitive"/>
            </g>
            <g transform="translate(57.21,71.9)">
              <path d="M-0.38,-6.81 L 0.38 -6.81 0.38 6.81 -0.38 6.81 z" class="primitive"/>
            </g>
            <g transform="translate(57.92,74.14)">
              <path d="M-0.38,-4.57 L 0.38 -4.57 0.38 4.57 -0.38 4.57 z" class="primitive"/>
            </g>
            <g transform="translate(58.63,74.05)">
              <path d="M-0.38,-4.66 L 0.38 -4.66 0.38 4.66 -0.38 4.66 z" class="primitive"/>
            </g>
            <g transform="translate(59.35,74.41)">
              <path d="M-0.38,-4.3 L 0.38 -4.3 0.38 4.3 -0.38 4.3 z" class="primitive"/>
            </g>
            <g transform="translate(60.06,74.14)">
              <path d="M-0.38,-4.57 L 0.38 -4.57 0.38 4.57 -0.38 4.57 z" class="primitive"/>
            </g>
            <g transform="translate(60.78,75.67)">
              <path d="M-0.38,-3.05 L 0.38 -3.05 0.38 3.05 -0.38 3.05 z" class="primitive"/>
            </g>
            <g transform="translate(61.49,74.41)">
              <path d="M-0.38,-4.3 L 0.38 -4.3 0.38 4.3 -0.38 4.3 z" class="primitive"/>
            </g>
            <g transform="translate(62.2,75.31)">
              <path d="M-0.38,-3.41 L 0.38 -3.41 0.38 3.41 -0.38 3.41 z" class="primitive"/>
            </g>
            <g transform="translate(62.92,76.12)">
              <path d="M-0.38,-2.6 L 0.38 -2.6 0.38 2.6 -0.38 2.6 z" class="primitive"/>
            </g>
            <g transform="translate(63.63,75.04)">
              <path d="M-0.38,-3.68 L 0.38 -3.68 0.38 3.68 -0.38 3.68 z" class="primitive"/>
            </g>
            <g transform="translate(64.34,76.2)">
              <path d="M-0.38,-2.51 L 0.38 -2.51 0.38 2.51 -0.38 2.51 z" class="primitive"/>
            </g>
            <g transform="translate(65.06,76.56)">
              <path d="M-0.38,-2.15 L 0.38 -2.15 0.38 2.15 -0.38 2.15 z" class="primitive"/>
            </g>
            <g transform="translate(65.77,76.38)">
              <path d="M-0.38,-2.33 L 0.38 -2.33 0.38 2.33 -0.38 2.33 z" class="primitive"/>
            </g>
            <g transform="translate(66.49,76.92)">
              <path d="M-0.38,-1.79 L 0.38 -1.79 0.38 1.79 -0.38 1.79 z" class="primitive"/>
            </g>
            <g transform="translate(67.2,77.01)">
              <path d="M-0.38,-1.7 L 0.38 -1.7 0.38 1.7 -0.38 1.7 z" class="primitive"/>
            </g>
            <g transform="translate(67.91,76.83)">
              <path d="M-0.38,-1.88 L 0.38 -1.88 0.38 1.88 -0.38 1.88 z" class="primitive"/>
            </g>
            <g transform="translate(68.63,77.01)">
              <path d="M-0.38,-1.7 L 0.38 -1.7 0.38 1.7 -0.38 1.7 z" class="primitive"/>
            </g>
            <g transform="translate(69.34,77.1)">
              <path d="M-0.38,-1.61 L 0.38 -1.61 0.38 1.61 -0.38 1.61 z" class="primitive"/>
            </g>
            <g transform="translate(70.06,78.18)">
              <path d="M-0.38,-0.54 L 0.38 -0.54 0.38 0.54 -0.38 0.54 z" class="primitive"/>
            </g>
            <g transform="translate(70.77,77.01)">
              <path d="M-0.38,-1.7 L 0.38 -1.7 0.38 1.7 -0.38 1.7 z" class="primitive"/>
            </g>
            <g transform="translate(71.48,77.46)">
              <path d="M-0.38,-1.26 L 0.38 -1.26 0.38 1.26 -0.38 1.26 z" class="primitive"/>
            </g>
            <g transform="translate(72.2,77.73)">
              <path d="M-0.38,-0.99 L 0.38 -0.99 0.38 0.99 -0.38 0.99 z" class="primitive"/>
            </g>
            <g transform="translate(72.91,77.91)">
              <path d="M-0.38,-0.81 L 0.38 -0.81 0.38 0.81 -0.38 0.81 z" class="primitive"/>
            </g>
            <g transform="translate(73.62,77.73)">
              <path d="M-0.38,-0.99 L 0.38 -0.99 0.38 0.99 -0.38 0.99 z" class="primitive"/>
            </g>
            <g transform="translate(74.34,78.09)">
              <path d="M-0.38,-0.63 L 0.38 -0.63 0.38 0.63 -0.38 0.63 z" class="primitive"/>
            </g>
            <g transform="translate(75.05,78)">
              <path d="M-0.38,-0.72 L 0.38 -0.72 0.38 0.72 -0.38 0.72 z" class="primitive"/>
            </g>
            <g transform="translate(75.77,78.27)">
              <path d="M-0.38,-0.45 L 0.38 -0.45 0.38 0.45 -0.38 0.45 z" class="primitive"/>
            </g>
            <g transform="translate(76.48,77.82)">
              <path d="M-0.38,-0.9 L 0.38 -0.9 0.38 0.9 -0.38 0.9 z" class="primitive"/>
            </g>
            <g transform="translate(77.19,78.18)">
              <path d="M-0.38,-0.54 L 0.38 -0.54 0.38 0.54 -0.38 0.54 z" class="primitive"/>
            </g>
            <g transform="translate(77.91,78)">
              <path d="M-0.38,-0.72 L 0.38 -0.72 0.38 0.72 -0.38 0.72 z" class="primitive"/>
            </g>
            <g transform="translate(78.62,78.45)">
              <path d="M-0.38,-0.27 L 0.38 -0.27 0.38 0.27 -0.38 0.27 z" class="primitive"/>
            </g>
            <g transform="translate(79.34,78.09)">
              <path d="M-0.38,-0.63 L 0.38 -0.63 0.38 0.63 -0.38 0.63 z" class="primitive"/>
            </g>
            <g transform="translate(80.05,78.27)">
              <path d="M-0.38,-0.45 L 0.38 -0.45 0.38 0.45 -0.38 0.45 z" class="primitive"/>
            </g>
            <g transform="translate(80.76,78.18)">
              <path d="M-0.38,-0.54 L 0.38 -0.54 0.38 0.54 -0.38 0.54 z" class="primitive"/>
            </g>
            <g transform="translate(81.48,78.18)">
              <path d="M-0.38,-0.54 L 0.38 -0.54 0.38 0.54 -0.38 0.54 z" class="primitive"/>
            </g>
            <g transform="translate(82.19,78.54)">
              <path d="M-0.38,-0.18 L 0.38 -0.18 0.38 0.18 -0.38 0.18 z" class="primitive"/>
            </g>
            <g transform="translate(82.9,78.36)">
              <path d="M-0.38,-0.36 L 0.38 -0.36 0.38 0.36 -0.38 0.36 z" class="primitive"/>
            </g>
            <g transform="translate(83.62,77.91)">
              <path d="M-0.38,-0.81 L 0.38 -0.81 0.38 0.81 -0.38 0.81 z" class="primitive"/>
            </g>
            <g transform="translate(84.33,78.18)">
              <path d="M-0.38,-0.54 L 0.38 -0.54 0.38 0.54 -0.38 0.54 z" class="primitive"/>
            </g>
            <g transform="translate(85.05,78.27)">
              <path d="M-0.38,-0.45 L 0.38 -0.45 0.38 0.45 -0.38 0.45 z" class="primitive"/>
            </g>
            <g transform="translate(85.76,78.45)">
              <path d="M-0.38,-0.27 L 0.38 -0.27 0.38 0.27 -0.38 0.27 z" class="primitive"/>
            </g>
            <g transform="translate(86.47,78.63)">
              <path d="M-0.38,-0.09 L 0.38 -0.09 0.38 0.09 -0.38 0.09 z" class="primitive"/>
            </g>
            <g transform="translate(87.19,78.54)">
              <path d="M-0.38,-0.18 L 0.38 -0.18 0.38 0.18 -0.38 0.18 z" class="primitive"/>
            </g>
            <g transform="translate(87.9,78.63)">
              <path d="M-0.38,-0.09 L 0.38 -0.09 0.38 0.09 -0.38 0.09 z" class="primitive"/>
            </g>
            <g transform="translate(88.61,78.63)">
              <path d="M-0.38,-0.09 L 0.38 -0.09 0.38 0.09 -0.38 0.09 z" class="primitive"/>
            </g>
            <g transform="translate(89.33,78.54)">
              <path d="M-0.38,-0.18 L 0.38 -0.18 0.38 0.18 -0.38 0.18 z" class="primitive"/>
            </g>
            <g transform="translate(90.04,78.45)">
              <path d="M-0.38,-0.27 L 0.38 -0.27 0.38 0.27 -0.38 0.27 z" class="primitive"/>
            </g>
            <g transform="translate(90.76,78.45)">
              <path d="M-0.38,-0.27 L 0.38 -0.27 0.38 0.27 -0.38 0.27 z" class="primitive"/>
            </g>
            <g transform="translate(91.47,78.54)">
              <path d="M-0.38,-0.18 L 0.38 -0.18 0.38 0.18 -0.38 0.18 z" class="primitive"/>
            </g>
            <g transform="translate(92.18,78.54)">
              <path d="M-0.38,-0.18 L 0.38 -0.18 0.38 0.18 -0.38 0.18 z" class="primitive"/>
            </g>
            <g transform="translate(92.9,78.63)">
              <path d="M-0.38,-0.09 L 0.38 -0.09 0.38 0.09 -0.38 0.09 z" class="primitive"/>
            </g>
            <g transform="translate(93.61,78.36)">
              <path d="M-0.38,-0.36 L 0.38 -0.36 0.38 0.36 -0.38 0.36 z" class="primitive"/>
            </g>
            <g transform="translate(94.33,78.72)">
              <path d="M-0.38,-0 L 0.38 -0 0.38 0 -0.38 0 z" class="primitive"/>
            </g>
            <g transform="translate(95.04,78.72)">
              <path d="M-0.38,-0 L 0.38 -0 0.38 0 -0.38 0 z" class="primitive"/>
            </g>
            <g transform="translate(95.75,78.72)">
              <path d="M-0.38,-0 L 0.38 -0 0.38 0 -0.38 0 z" class="primitive"/>
            </g>
            <g transform="translate(96.47,78.54)">
              <path d="M-0.38,-0.18 L 0.38 -0.18 0.38 0.18 -0.38 0.18 z" class="primitive"/>
            </g>
            <g transform="translate(97.18,78.54)">
              <path d="M-0.38,-0.18 L 0.38 -0.18 0.38 0.18 -0.38 0.18 z" class="primitive"/>
            </g>
            <g transform="translate(97.89,78.72)">
              <path d="M-0.38,-0 L 0.38 -0 0.38 0 -0.38 0 z" class="primitive"/>
            </g>
            <g transform="translate(98.61,78.27)">
              <path d="M-0.38,-0.45 L 0.38 -0.45 0.38 0.45 -0.38 0.45 z" class="primitive"/>
            </g>
            <g transform="translate(99.32,78.63)">
              <path d="M-0.38,-0.09 L 0.38 -0.09 0.38 0.09 -0.38 0.09 z" class="primitive"/>
            </g>
            <g transform="translate(100.04,78.54)">
              <path d="M-0.38,-0.18 L 0.38 -0.18 0.38 0.18 -0.38 0.18 z" class="primitive"/>
            </g>
            <g transform="translate(100.75,78.54)">
              <path d="M-0.38,-0.18 L 0.38 -0.18 0.38 0.18 -0.38 0.18 z" class="primitive"/>
            </g>
            <g transform="translate(101.46,78.54)">
              <path d="M-0.38,-0.18 L 0.38 -0.18 0.38 0.18 -0.38 0.18 z" class="primitive"/>
            </g>
            <g transform="translate(102.18,78.72)">
              <path d="M-0.38,-0 L 0.38 -0 0.38 0 -0.38 0 z" class="primitive"/>
            </g>
            <g transform="translate(102.89,78.72)">
              <path d="M-0.38,-0 L 0.38 -0 0.38 0 -0.38 0 z" class="primitive"/>
            </g>
            <g transform="translate(103.61,78.63)">
              <path d="M-0.38,-0.09 L 0.38 -0.09 0.38 0.09 -0.38 0.09 z" class="primitive"/>
            </g>
            <g transform="translate(104.32,78.72)">
              <path d="M-0.38,-0 L 0.38 -0 0.38 0 -0.38 0 z" class="primitive"/>
            </g>
            <g transform="translate(105.03,78.72)">
              <path d="M-0.38,-0 L 0.38 -0 0.38 0 -0.38 0 z" class="primitive"/>
            </g>
            <g transform="translate(105.75,78.72)">
              <path d="M-0.38,-0 L 0.38 -0 0.38 0 -0.38 0 z" class="primitive"/>
            </g>
            <g transform="translate(106.46,78.63)">
              <path d="M-0.38,-0.09 L 0.38 -0.09 0.38 0.09 -0.38 0.09 z" class="primitive"/>
            </g>
            <g transform="translate(107.17,78.54)">
              <path d="M-0.38,-0.18 L 0.38 -0.18 0.38 0.18 -0.38 0.18 z" class="primitive"/>
            </g>
            <g transform="translate(107.89,78.72)">
              <path d="M-0.38,-0 L 0.38 -0 0.38 0 -0.38 0 z" class="primitive"/>
            </g>
            <g transform="translate(108.6,78.63)">
              <path d="M-0.38,-0.09 L 0.38 -0.09 0.38 0.09 -0.38 0.09 z" class="primitive"/>
            </g>
            <g transform="translate(109.32,78.54)">
              <path d="M-0.38,-0.18 L 0.38 -0.18 0.38 0.18 -0.38 0.18 z" class="primitive"/>
            </g>
            <g transform="translate(110.03,78.72)">
              <path d="M-0.38,-0 L 0.38 -0 0.38 0 -0.38 0 z" class="primitive"/>
            </g>
            <g transform="translate(110.74,78.72)">
              <path d="M-0.38,-0 L 0.38 -0 0.38 0 -0.38 0 z" class="primitive"/>
            </g>
            <g transform="translate(111.46,78.72)">
              <path d="M-0.38,-0 L 0.38 -0 0.38 0 -0.38 0 z" class="primitive"/>
            </g>
            <g transform="translate(112.17,78.72)">
              <path d="M-0.38,-0 L 0.38 -0 0.38 0 -0.38 0 z" class="primitive"/>
            </g>
            <g transform="translate(112.88,78.72)">
              <path d="M-0.38,-0 L 0.38 -0 0.38 0 -0.38 0 z" class="primitive"/>
            </g>
            <g transform="translate(113.6,78.72)">
              <path d="M-0.38,-0 L 0.38 -0 0.38 0 -0.38 0 z" class="primitive"/>
            </g>
            <g transform="translate(114.31,78.72)">
              <path d="M-0.38,-0 L 0.38 -0 0.38 0 -0.38 0 z" class="primitive"/>
            </g>
            <g transform="translate(115.03,78.72)">
              <path d="M-0.38,-0 L 0.38 -0 0.38 0 -0.38 0 z" class="primitive"/>
            </g>
            <g transform="translate(115.74,78.72)">
              <path d="M-0.38,-0 L 0.38 -0 0.38 0 -0.38 0 z" class="primitive"/>
            </g>
            <g transform="translate(116.45,78.72)">
              <path d="M-0.38,-0 L 0.38 -0 0.38 0 -0.38 0 z" class="primitive"/>
            </g>
            <g transform="translate(117.17,78.54)">
              <path d="M-0.38,-0.18 L 0.38 -0.18 0.38 0.18 -0.38 0.18 z" class="primitive"/>
            </g>
            <g transform="translate(117.88,78.72)">
              <path d="M-0.38,-0 L 0.38 -0 0.38 0 -0.38 0 z" class="primitive"/>
            </g>
            <g transform="translate(118.6,78.72)">
              <path d="M-0.38,-0 L 0.38 -0 0.38 0 -0.38 0 z" class="primitive"/>
            </g>
            <g transform="translate(119.31,78.72)">
              <path d="M-0.38,-0 L 0.38 -0 0.38 0 -0.38 0 z" class="primitive"/>
            </g>
            <g transform="translate(120.02,78.72)">
              <path d="M-0.38,-0 L 0.38 -0 0.38 0 -0.38 0 z" class="primitive"/>
            </g>
            <g transform="translate(120.74,78.54)">
              <path d="M-0.38,-0.18 L 0.38 -0.18 0.38 0.18 -0.38 0.18 z" class="primitive"/>
            </g>
          </g>
        </g>
      </g>
    </g>
  </g>
  <g class="guide ylabels" font-size="2.82" font-family="'PT Sans Caption','Helvetica Neue','Helvetica',sans-serif" fill="#6C606B" id="img-b1400f14-12">
    <g transform="translate(11.02,78.71)">
      <g class="primitive">
        <text text-anchor="end" dy="0.35em">0</text>
      </g>
    </g>
    <g transform="translate(11.02,60.79)">
      <g class="primitive">
        <text text-anchor="end" dy="0.35em">100</text>
      </g>
    </g>
    <g transform="translate(11.02,42.86)">
      <g class="primitive">
        <text text-anchor="end" dy="0.35em">200</text>
      </g>
    </g>
    <g transform="translate(11.02,24.93)">
      <g class="primitive">
        <text text-anchor="end" dy="0.35em">300</text>
      </g>
    </g>
    <g transform="translate(11.02,7)">
      <g class="primitive">
        <text text-anchor="end" dy="0.35em">400</text>
      </g>
    </g>
  </g>
</g>
<defs>
  <clipPath id="img-b1400f14-4">
    <path d="M12.02,5 L 136.42 5 136.42 80.72 12.02 80.72" />
  </clipPath>
</defs>
</svg>
