<?xml version="1.0" encoding="UTF-8"?>
<svg xmlns="http://www.w3.org/2000/svg"
     xmlns:xlink="http://www.w3.org/1999/xlink"
     xmlns:gadfly="http://www.gadflyjl.org/ns"
     version="1.2"
     width="141.42mm" height="100mm" viewBox="0 0 141.42 100"
     stroke="none"
     fill="#000000"
     stroke-width="0.3"
     font-size="3.88"
>
<g class="plotroot xscalable yscalable" id="img-35925cd9-1">
  <g font-size="3.88" font-family="'PT Sans','Helvetica Neue','Helvetica',sans-serif" fill="#564A55" stroke="#000000" stroke-opacity="0.000" id="img-35925cd9-2">
    <g transform="translate(76.59,88.39)">
      <g class="primitive">
        <text text-anchor="middle" dy="0.6em">ρ₁₂</text>
      </g>
    </g>
  </g>
  <g class="guide xlabels" font-size="2.82" font-family="'PT Sans Caption','Helvetica Neue','Helvetica',sans-serif" fill="#6C606B" id="img-35925cd9-3">
    <g transform="translate(18.77,81.72)">
      <g class="primitive">
        <text text-anchor="middle" dy="0.6em">-1.0</text>
      </g>
    </g>
    <g transform="translate(41.9,81.72)">
      <g class="primitive">
        <text text-anchor="middle" dy="0.6em">-0.5</text>
      </g>
    </g>
    <g transform="translate(65.03,81.72)">
      <g class="primitive">
        <text text-anchor="middle" dy="0.6em">0.0</text>
      </g>
    </g>
    <g transform="translate(88.16,81.72)">
      <g class="primitive">
        <text text-anchor="middle" dy="0.6em">0.5</text>
      </g>
    </g>
    <g transform="translate(111.29,81.72)">
      <g class="primitive">
        <text text-anchor="middle" dy="0.6em">1.0</text>
      </g>
    </g>
    <g transform="translate(134.42,81.72)">
      <g class="primitive">
        <text text-anchor="middle" dy="0.6em">1.5</text>
      </g>
    </g>
  </g>
  <g clip-path="url(#img-35925cd9-4)">
    <g id="img-35925cd9-5">
      <g pointer-events="visible" opacity="0" fill="#000000" fill-opacity="0.000" stroke="#000000" stroke-opacity="0.000" class="guide background" id="img-35925cd9-6">
        <g transform="translate(76.59,42.86)">
          <path d="M-59.83,-37.86 L 59.83 -37.86 59.83 37.86 -59.83 37.86 z" class="primitive"/>
        </g>
      </g>
      <g class="guide ygridlines xfixed" stroke-dasharray="0.5,0.5" stroke-width="0.2" stroke="#D0D0E0" id="img-35925cd9-7">
        <g transform="translate(76.59,78.72)">
          <path fill="none" d="M-59.83,0 L 59.83 0" class="primitive"/>
        </g>
        <g transform="translate(76.59,54.81)">
          <path fill="none" d="M-59.83,0 L 59.83 0" class="primitive"/>
        </g>
        <g transform="translate(76.59,30.91)">
          <path fill="none" d="M-59.83,0 L 59.83 0" class="primitive"/>
        </g>
        <g transform="translate(76.59,7)">
          <path fill="none" d="M-59.83,0 L 59.83 0" class="primitive"/>
        </g>
      </g>
      <g class="guide xgridlines yfixed" stroke-dasharray="0.5,0.5" stroke-width="0.2" stroke="#D0D0E0" id="img-35925cd9-8">
        <g transform="translate(18.77,42.86)">
          <path fill="none" d="M0,-37.86 L 0 37.86" class="primitive"/>
        </g>
        <g transform="translate(41.9,42.86)">
          <path fill="none" d="M0,-37.86 L 0 37.86" class="primitive"/>
        </g>
        <g transform="translate(65.03,42.86)">
          <path fill="none" d="M0,-37.86 L 0 37.86" class="primitive"/>
        </g>
        <g transform="translate(88.16,42.86)">
          <path fill="none" d="M0,-37.86 L 0 37.86" class="primitive"/>
        </g>
        <g transform="translate(111.29,42.86)">
          <path fill="none" d="M0,-37.86 L 0 37.86" class="primitive"/>
        </g>
        <g transform="translate(134.42,42.86)">
          <path fill="none" d="M0,-37.86 L 0 37.86" class="primitive"/>
        </g>
      </g>
      <g class="plotpanel" id="img-35925cd9-9">
        <metadata>
          <boundingbox value="16.76666666666668mm 5.0mm 119.65468957064283mm 75.715mm"/>
          <unitbox value="-1.0432321423243798 3083.6645053336124 2.5864642846487595 -3167.329010667225"/>
        </metadata>
        <g shape-rendering="crispEdges" stroke-width="0.3" id="img-35925cd9-10">
          <g stroke="#000000" stroke-opacity="0.000" class="geometry" fill="#00BFFF" id="img-35925cd9-11">
            <g transform="translate(19.08,71.44)">
              <path d="M-0.33,-7.28 L 0.33 -7.28 0.33 7.28 -0.33 7.28 z" class="primitive"/>
            </g>
            <g transform="translate(19.69,78.61)">
              <path d="M-0.33,-0.11 L 0.33 -0.11 0.33 0.11 -0.33 0.11 z" class="primitive"/>
            </g>
            <g transform="translate(20.31,78.56)">
              <path d="M-0.33,-0.16 L 0.33 -0.16 0.33 0.16 -0.33 0.16 z" class="primitive"/>
            </g>
            <g transform="translate(20.93,78.52)">
              <path d="M-0.33,-0.19 L 0.33 -0.19 0.33 0.19 -0.33 0.19 z" class="primitive"/>
            </g>
            <g transform="translate(21.54,78.42)">
              <path d="M-0.33,-0.3 L 0.33 -0.3 0.33 0.3 -0.33 0.3 z" class="primitive"/>
            </g>
            <g transform="translate(22.16,78.37)">
              <path d="M-0.33,-0.35 L 0.33 -0.35 0.33 0.35 -0.33 0.35 z" class="primitive"/>
            </g>
            <g transform="translate(22.78,78.21)">
              <path d="M-0.33,-0.5 L 0.33 -0.5 0.33 0.5 -0.33 0.5 z" class="primitive"/>
            </g>
            <g transform="translate(23.39,78.24)">
              <path d="M-0.33,-0.48 L 0.33 -0.48 0.33 0.48 -0.33 0.48 z" class="primitive"/>
            </g>
            <g transform="translate(24.01,78.09)">
              <path d="M-0.33,-0.62 L 0.33 -0.62 0.33 0.62 -0.33 0.62 z" class="primitive"/>
            </g>
            <g transform="translate(24.63,78.07)">
              <path d="M-0.33,-0.65 L 0.33 -0.65 0.33 0.65 -0.33 0.65 z" class="primitive"/>
            </g>
            <g transform="translate(25.24,77.94)">
              <path d="M-0.33,-0.78 L 0.33 -0.78 0.33 0.78 -0.33 0.78 z" class="primitive"/>
            </g>
            <g transform="translate(25.86,78.02)">
              <path d="M-0.33,-0.69 L 0.33 -0.69 0.33 0.69 -0.33 0.69 z" class="primitive"/>
            </g>
            <g transform="translate(26.48,77.68)">
              <path d="M-0.33,-1.04 L 0.33 -1.04 0.33 1.04 -0.33 1.04 z" class="primitive"/>
            </g>
            <g transform="translate(27.09,77.75)">
              <path d="M-0.33,-0.97 L 0.33 -0.97 0.33 0.97 -0.33 0.97 z" class="primitive"/>
            </g>
            <g transform="translate(27.71,77.53)">
              <path d="M-0.33,-1.18 L 0.33 -1.18 0.33 1.18 -0.33 1.18 z" class="primitive"/>
            </g>
            <g transform="translate(28.33,77.64)">
              <path d="M-0.33,-1.08 L 0.33 -1.08 0.33 1.08 -0.33 1.08 z" class="primitive"/>
            </g>
            <g transform="translate(28.94,77.42)">
              <path d="M-0.33,-1.29 L 0.33 -1.29 0.33 1.29 -0.33 1.29 z" class="primitive"/>
            </g>
            <g transform="translate(29.56,77.62)">
              <path d="M-0.33,-1.1 L 0.33 -1.1 0.33 1.1 -0.33 1.1 z" class="primitive"/>
            </g>
            <g transform="translate(30.18,77.58)">
              <path d="M-0.33,-1.14 L 0.33 -1.14 0.33 1.14 -0.33 1.14 z" class="primitive"/>
            </g>
            <g transform="translate(30.79,77.32)">
              <path d="M-0.33,-1.4 L 0.33 -1.4 0.33 1.4 -0.33 1.4 z" class="primitive"/>
            </g>
            <g transform="translate(31.41,77.5)">
              <path d="M-0.33,-1.22 L 0.33 -1.22 0.33 1.22 -0.33 1.22 z" class="primitive"/>
            </g>
            <g transform="translate(32.03,77.56)">
              <path d="M-0.33,-1.16 L 0.33 -1.16 0.33 1.16 -0.33 1.16 z" class="primitive"/>
            </g>
            <g transform="translate(32.65,77.34)">
              <path d="M-0.33,-1.37 L 0.33 -1.37 0.33 1.37 -0.33 1.37 z" class="primitive"/>
            </g>
            <g transform="translate(33.26,77.26)">
              <path d="M-0.33,-1.46 L 0.33 -1.46 0.33 1.46 -0.33 1.46 z" class="primitive"/>
            </g>
            <g transform="translate(33.88,77.09)">
              <path d="M-0.33,-1.63 L 0.33 -1.63 0.33 1.63 -0.33 1.63 z" class="primitive"/>
            </g>
            <g transform="translate(34.5,77.56)">
              <path d="M-0.33,-1.16 L 0.33 -1.16 0.33 1.16 -0.33 1.16 z" class="primitive"/>
            </g>
            <g transform="translate(35.11,77.41)">
              <path d="M-0.33,-1.3 L 0.33 -1.3 0.33 1.3 -0.33 1.3 z" class="primitive"/>
            </g>
            <g transform="translate(35.73,77.41)">
              <path d="M-0.33,-1.3 L 0.33 -1.3 0.33 1.3 -0.33 1.3 z" class="primitive"/>
            </g>
            <g transform="translate(36.35,77.48)">
              <path d="M-0.33,-1.23 L 0.33 -1.23 0.33 1.23 -0.33 1.23 z" class="primitive"/>
            </g>
            <g transform="translate(36.96,77.42)">
              <path d="M-0.33,-1.29 L 0.33 -1.29 0.33 1.29 -0.33 1.29 z" class="primitive"/>
            </g>
            <g transform="translate(37.58,77.28)">
              <path d="M-0.33,-1.43 L 0.33 -1.43 0.33 1.43 -0.33 1.43 z" class="primitive"/>
            </g>
            <g transform="translate(38.2,77.3)">
              <path d="M-0.33,-1.41 L 0.33 -1.41 0.33 1.41 -0.33 1.41 z" class="primitive"/>
            </g>
            <g transform="translate(38.81,77.39)">
              <path d="M-0.33,-1.33 L 0.33 -1.33 0.33 1.33 -0.33 1.33 z" class="primitive"/>
            </g>
            <g transform="translate(39.43,77.29)">
              <path d="M-0.33,-1.42 L 0.33 -1.42 0.33 1.42 -0.33 1.42 z" class="primitive"/>
            </g>
            <g transform="translate(40.05,77.53)">
              <path d="M-0.33,-1.18 L 0.33 -1.18 0.33 1.18 -0.33 1.18 z" class="primitive"/>
            </g>
            <g transform="translate(40.66,77.5)">
              <path d="M-0.33,-1.22 L 0.33 -1.22 0.33 1.22 -0.33 1.22 z" class="primitive"/>
            </g>
            <g transform="translate(41.28,77.4)">
              <path d="M-0.33,-1.31 L 0.33 -1.31 0.33 1.31 -0.33 1.31 z" class="primitive"/>
            </g>
            <g transform="translate(41.9,77.52)">
              <path d="M-0.33,-1.2 L 0.33 -1.2 0.33 1.2 -0.33 1.2 z" class="primitive"/>
            </g>
            <g transform="translate(42.51,77.41)">
              <path d="M-0.33,-1.3 L 0.33 -1.3 0.33 1.3 -0.33 1.3 z" class="primitive"/>
            </g>
            <g transform="translate(43.13,77.66)">
              <path d="M-0.33,-1.05 L 0.33 -1.05 0.33 1.05 -0.33 1.05 z" class="primitive"/>
            </g>
            <g transform="translate(43.75,77.63)">
              <path d="M-0.33,-1.09 L 0.33 -1.09 0.33 1.09 -0.33 1.09 z" class="primitive"/>
            </g>
            <g transform="translate(44.36,77.47)">
              <path d="M-0.33,-1.24 L 0.33 -1.24 0.33 1.24 -0.33 1.24 z" class="primitive"/>
            </g>
            <g transform="translate(44.98,77.69)">
              <path d="M-0.33,-1.03 L 0.33 -1.03 0.33 1.03 -0.33 1.03 z" class="primitive"/>
            </g>
            <g transform="translate(45.6,77.53)">
              <path d="M-0.33,-1.18 L 0.33 -1.18 0.33 1.18 -0.33 1.18 z" class="primitive"/>
            </g>
            <g transform="translate(46.22,77.66)">
              <path d="M-0.33,-1.05 L 0.33 -1.05 0.33 1.05 -0.33 1.05 z" class="primitive"/>
            </g>
            <g transform="translate(46.83,77.87)">
              <path d="M-0.33,-0.85 L 0.33 -0.85 0.33 0.85 -0.33 0.85 z" class="primitive"/>
            </g>
            <g transform="translate(47.45,77.93)">
              <path d="M-0.33,-0.79 L 0.33 -0.79 0.33 0.79 -0.33 0.79 z" class="primitive"/>
            </g>
            <g transform="translate(48.07,77.79)">
              <path d="M-0.33,-0.92 L 0.33 -0.92 0.33 0.92 -0.33 0.92 z" class="primitive"/>
            </g>
            <g transform="translate(48.68,77.84)">
              <path d="M-0.33,-0.87 L 0.33 -0.87 0.33 0.87 -0.33 0.87 z" class="primitive"/>
            </g>
            <g transform="translate(49.3,77.78)">
              <path d="M-0.33,-0.93 L 0.33 -0.93 0.33 0.93 -0.33 0.93 z" class="primitive"/>
            </g>
            <g transform="translate(49.92,77.83)">
              <path d="M-0.33,-0.88 L 0.33 -0.88 0.33 0.88 -0.33 0.88 z" class="primitive"/>
            </g>
            <g transform="translate(50.53,77.78)">
              <path d="M-0.33,-0.93 L 0.33 -0.93 0.33 0.93 -0.33 0.93 z" class="primitive"/>
            </g>
            <g transform="translate(51.15,77.85)">
              <path d="M-0.33,-0.86 L 0.33 -0.86 0.33 0.86 -0.33 0.86 z" class="primitive"/>
            </g>
            <g transform="translate(51.77,77.91)">
              <path d="M-0.33,-0.8 L 0.33 -0.8 0.33 0.8 -0.33 0.8 z" class="primitive"/>
            </g>
            <g transform="translate(52.38,77.79)">
              <path d="M-0.33,-0.92 L 0.33 -0.92 0.33 0.92 -0.33 0.92 z" class="primitive"/>
            </g>
            <g transform="translate(53,78.07)">
              <path d="M-0.33,-0.65 L 0.33 -0.65 0.33 0.65 -0.33 0.65 z" class="primitive"/>
            </g>
            <g transform="translate(53.62,77.93)">
              <path d="M-0.33,-0.79 L 0.33 -0.79 0.33 0.79 -0.33 0.79 z" class="primitive"/>
            </g>
            <g transform="translate(54.23,77.91)">
              <path d="M-0.33,-0.8 L 0.33 -0.8 0.33 0.8 -0.33 0.8 z" class="primitive"/>
            </g>
            <g transform="translate(54.85,77.99)">
              <path d="M-0.33,-0.73 L 0.33 -0.73 0.33 0.73 -0.33 0.73 z" class="primitive"/>
            </g>
            <g transform="translate(55.47,78.08)">
              <path d="M-0.33,-0.63 L 0.33 -0.63 0.33 0.63 -0.33 0.63 z" class="primitive"/>
            </g>
            <g transform="translate(56.08,78.08)">
              <path d="M-0.33,-0.63 L 0.33 -0.63 0.33 0.63 -0.33 0.63 z" class="primitive"/>
            </g>
            <g transform="translate(56.7,78.03)">
              <path d="M-0.33,-0.68 L 0.33 -0.68 0.33 0.68 -0.33 0.68 z" class="primitive"/>
            </g>
            <g transform="translate(57.32,78.08)">
              <path d="M-0.33,-0.63 L 0.33 -0.63 0.33 0.63 -0.33 0.63 z" class="primitive"/>
            </g>
            <g transform="translate(57.94,78.14)">
              <path d="M-0.33,-0.57 L 0.33 -0.57 0.33 0.57 -0.33 0.57 z" class="primitive"/>
            </g>
            <g transform="translate(58.55,78.11)">
              <path d="M-0.33,-0.61 L 0.33 -0.61 0.33 0.61 -0.33 0.61 z" class="primitive"/>
            </g>
            <g transform="translate(59.17,78.19)">
              <path d="M-0.33,-0.53 L 0.33 -0.53 0.33 0.53 -0.33 0.53 z" class="primitive"/>
            </g>
            <g transform="translate(59.79,78.19)">
              <path d="M-0.33,-0.53 L 0.33 -0.53 0.33 0.53 -0.33 0.53 z" class="primitive"/>
            </g>
            <g transform="translate(60.4,78.24)">
              <path d="M-0.33,-0.48 L 0.33 -0.48 0.33 0.48 -0.33 0.48 z" class="primitive"/>
            </g>
            <g transform="translate(61.02,78.18)">
              <path d="M-0.33,-0.54 L 0.33 -0.54 0.33 0.54 -0.33 0.54 z" class="primitive"/>
            </g>
            <g transform="translate(61.64,78.24)">
              <path d="M-0.33,-0.48 L 0.33 -0.48 0.33 0.48 -0.33 0.48 z" class="primitive"/>
            </g>
            <g transform="translate(62.25,78.34)">
              <path d="M-0.33,-0.37 L 0.33 -0.37 0.33 0.37 -0.33 0.37 z" class="primitive"/>
            </g>
            <g transform="translate(62.87,78.24)">
              <path d="M-0.33,-0.48 L 0.33 -0.48 0.33 0.48 -0.33 0.48 z" class="primitive"/>
            </g>
            <g transform="translate(63.49,78.32)">
              <path d="M-0.33,-0.39 L 0.33 -0.39 0.33 0.39 -0.33 0.39 z" class="primitive"/>
            </g>
            <g transform="translate(64.1,78.27)">
              <path d="M-0.33,-0.44 L 0.33 -0.44 0.33 0.44 -0.33 0.44 z" class="primitive"/>
            </g>
            <g transform="translate(64.72,78.27)">
              <path d="M-0.33,-0.44 L 0.33 -0.44 0.33 0.44 -0.33 0.44 z" class="primitive"/>
            </g>
            <g transform="translate(65.34,78.3)">
              <path d="M-0.33,-0.42 L 0.33 -0.42 0.33 0.42 -0.33 0.42 z" class="primitive"/>
            </g>
            <g transform="translate(65.95,78.32)">
              <path d="M-0.33,-0.39 L 0.33 -0.39 0.33 0.39 -0.33 0.39 z" class="primitive"/>
            </g>
            <g transform="translate(66.57,78.2)">
              <path d="M-0.33,-0.51 L 0.33 -0.51 0.33 0.51 -0.33 0.51 z" class="primitive"/>
            </g>
            <g transform="translate(67.19,78.38)">
              <path d="M-0.33,-0.33 L 0.33 -0.33 0.33 0.33 -0.33 0.33 z" class="primitive"/>
            </g>
            <g transform="translate(67.8,78.26)">
              <path d="M-0.33,-0.45 L 0.33 -0.45 0.33 0.45 -0.33 0.45 z" class="primitive"/>
            </g>
            <g transform="translate(68.42,78.33)">
              <path d="M-0.33,-0.38 L 0.33 -0.38 0.33 0.38 -0.33 0.38 z" class="primitive"/>
            </g>
            <g transform="translate(69.04,78.27)">
              <path d="M-0.33,-0.44 L 0.33 -0.44 0.33 0.44 -0.33 0.44 z" class="primitive"/>
            </g>
            <g transform="translate(69.65,78.34)">
              <path d="M-0.33,-0.37 L 0.33 -0.37 0.33 0.37 -0.33 0.37 z" class="primitive"/>
            </g>
            <g transform="translate(70.27,78.4)">
              <path d="M-0.33,-0.31 L 0.33 -0.31 0.33 0.31 -0.33 0.31 z" class="primitive"/>
            </g>
            <g transform="translate(70.89,78.44)">
              <path d="M-0.33,-0.27 L 0.33 -0.27 0.33 0.27 -0.33 0.27 z" class="primitive"/>
            </g>
            <g transform="translate(71.51,78.34)">
              <path d="M-0.33,-0.37 L 0.33 -0.37 0.33 0.37 -0.33 0.37 z" class="primitive"/>
            </g>
            <g transform="translate(72.12,78.31)">
              <path d="M-0.33,-0.41 L 0.33 -0.41 0.33 0.41 -0.33 0.41 z" class="primitive"/>
            </g>
            <g transform="translate(72.74,78.33)">
              <path d="M-0.33,-0.38 L 0.33 -0.38 0.33 0.38 -0.33 0.38 z" class="primitive"/>
            </g>
            <g transform="translate(73.36,78.46)">
              <path d="M-0.33,-0.25 L 0.33 -0.25 0.33 0.25 -0.33 0.25 z" class="primitive"/>
            </g>
            <g transform="translate(73.97,78.55)">
              <path d="M-0.33,-0.17 L 0.33 -0.17 0.33 0.17 -0.33 0.17 z" class="primitive"/>
            </g>
            <g transform="translate(74.59,78.44)">
              <path d="M-0.33,-0.27 L 0.33 -0.27 0.33 0.27 -0.33 0.27 z" class="primitive"/>
            </g>
            <g transform="translate(75.21,78.42)">
              <path d="M-0.33,-0.3 L 0.33 -0.3 0.33 0.3 -0.33 0.3 z" class="primitive"/>
            </g>
            <g transform="translate(75.82,78.45)">
              <path d="M-0.33,-0.26 L 0.33 -0.26 0.33 0.26 -0.33 0.26 z" class="primitive"/>
            </g>
            <g transform="translate(76.44,78.43)">
              <path d="M-0.33,-0.29 L 0.33 -0.29 0.33 0.29 -0.33 0.29 z" class="primitive"/>
            </g>
            <g transform="translate(77.06,78.39)">
              <path d="M-0.33,-0.32 L 0.33 -0.32 0.33 0.32 -0.33 0.32 z" class="primitive"/>
            </g>
            <g transform="translate(77.67,78.43)">
              <path d="M-0.33,-0.29 L 0.33 -0.29 0.33 0.29 -0.33 0.29 z" class="primitive"/>
            </g>
            <g transform="translate(78.29,78.44)">
              <path d="M-0.33,-0.27 L 0.33 -0.27 0.33 0.27 -0.33 0.27 z" class="primitive"/>
            </g>
            <g transform="translate(78.91,78.45)">
              <path d="M-0.33,-0.26 L 0.33 -0.26 0.33 0.26 -0.33 0.26 z" class="primitive"/>
            </g>
            <g transform="translate(79.52,78.45)">
              <path d="M-0.33,-0.26 L 0.33 -0.26 0.33 0.26 -0.33 0.26 z" class="primitive"/>
            </g>
            <g transform="translate(80.14,78.49)">
              <path d="M-0.33,-0.23 L 0.33 -0.23 0.33 0.23 -0.33 0.23 z" class="primitive"/>
            </g>
            <g transform="translate(80.76,78.43)">
              <path d="M-0.33,-0.29 L 0.33 -0.29 0.33 0.29 -0.33 0.29 z" class="primitive"/>
            </g>
            <g transform="translate(81.37,78.58)">
              <path d="M-0.33,-0.13 L 0.33 -0.13 0.33 0.13 -0.33 0.13 z" class="primitive"/>
            </g>
            <g transform="translate(81.99,78.54)">
              <path d="M-0.33,-0.18 L 0.33 -0.18 0.33 0.18 -0.33 0.18 z" class="primitive"/>
            </g>
            <g transform="translate(82.61,78.64)">
              <path d="M-0.33,-0.07 L 0.33 -0.07 0.33 0.07 -0.33 0.07 z" class="primitive"/>
            </g>
            <g transform="translate(83.22,78.49)">
              <path d="M-0.33,-0.23 L 0.33 -0.23 0.33 0.23 -0.33 0.23 z" class="primitive"/>
            </g>
            <g transform="translate(83.84,78.39)">
              <path d="M-0.33,-0.32 L 0.33 -0.32 0.33 0.32 -0.33 0.32 z" class="primitive"/>
            </g>
            <g transform="translate(84.46,78.6)">
              <path d="M-0.33,-0.12 L 0.33 -0.12 0.33 0.12 -0.33 0.12 z" class="primitive"/>
            </g>
            <g transform="translate(85.08,78.51)">
              <path d="M-0.33,-0.2 L 0.33 -0.2 0.33 0.2 -0.33 0.2 z" class="primitive"/>
            </g>
            <g transform="translate(85.69,78.55)">
              <path d="M-0.33,-0.17 L 0.33 -0.17 0.33 0.17 -0.33 0.17 z" class="primitive"/>
            </g>
            <g transform="translate(86.31,78.55)">
              <path d="M-0.33,-0.17 L 0.33 -0.17 0.33 0.17 -0.33 0.17 z" class="primitive"/>
            </g>
            <g transform="translate(86.93,78.56)">
              <path d="M-0.33,-0.16 L 0.33 -0.16 0.33 0.16 -0.33 0.16 z" class="primitive"/>
            </g>
            <g transform="translate(87.54,78.51)">
              <path d="M-0.33,-0.2 L 0.33 -0.2 0.33 0.2 -0.33 0.2 z" class="primitive"/>
            </g>
            <g transform="translate(88.16,78.54)">
              <path d="M-0.33,-0.18 L 0.33 -0.18 0.33 0.18 -0.33 0.18 z" class="primitive"/>
            </g>
            <g transform="translate(88.78,78.57)">
              <path d="M-0.33,-0.14 L 0.33 -0.14 0.33 0.14 -0.33 0.14 z" class="primitive"/>
            </g>
            <g transform="translate(89.39,78.6)">
              <path d="M-0.33,-0.12 L 0.33 -0.12 0.33 0.12 -0.33 0.12 z" class="primitive"/>
            </g>
            <g transform="translate(90.01,78.55)">
              <path d="M-0.33,-0.17 L 0.33 -0.17 0.33 0.17 -0.33 0.17 z" class="primitive"/>
            </g>
            <g transform="translate(90.63,78.52)">
              <path d="M-0.33,-0.19 L 0.33 -0.19 0.33 0.19 -0.33 0.19 z" class="primitive"/>
            </g>
            <g transform="translate(91.24,78.57)">
              <path d="M-0.33,-0.14 L 0.33 -0.14 0.33 0.14 -0.33 0.14 z" class="primitive"/>
            </g>
            <g transform="translate(91.86,78.61)">
              <path d="M-0.33,-0.11 L 0.33 -0.11 0.33 0.11 -0.33 0.11 z" class="primitive"/>
            </g>
            <g transform="translate(92.48,78.5)">
              <path d="M-0.33,-0.22 L 0.33 -0.22 0.33 0.22 -0.33 0.22 z" class="primitive"/>
            </g>
            <g transform="translate(93.09,78.6)">
              <path d="M-0.33,-0.12 L 0.33 -0.12 0.33 0.12 -0.33 0.12 z" class="primitive"/>
            </g>
            <g transform="translate(93.71,78.58)">
              <path d="M-0.33,-0.13 L 0.33 -0.13 0.33 0.13 -0.33 0.13 z" class="primitive"/>
            </g>
            <g transform="translate(94.33,78.55)">
              <path d="M-0.33,-0.17 L 0.33 -0.17 0.33 0.17 -0.33 0.17 z" class="primitive"/>
            </g>
            <g transform="translate(94.94,78.55)">
              <path d="M-0.33,-0.17 L 0.33 -0.17 0.33 0.17 -0.33 0.17 z" class="primitive"/>
            </g>
            <g transform="translate(95.56,78.55)">
              <path d="M-0.33,-0.17 L 0.33 -0.17 0.33 0.17 -0.33 0.17 z" class="primitive"/>
            </g>
            <g transform="translate(96.18,78.57)">
              <path d="M-0.33,-0.14 L 0.33 -0.14 0.33 0.14 -0.33 0.14 z" class="primitive"/>
            </g>
            <g transform="translate(96.8,78.63)">
              <path d="M-0.33,-0.08 L 0.33 -0.08 0.33 0.08 -0.33 0.08 z" class="primitive"/>
            </g>
            <g transform="translate(97.41,78.56)">
              <path d="M-0.33,-0.16 L 0.33 -0.16 0.33 0.16 -0.33 0.16 z" class="primitive"/>
            </g>
            <g transform="translate(98.03,78.51)">
              <path d="M-0.33,-0.2 L 0.33 -0.2 0.33 0.2 -0.33 0.2 z" class="primitive"/>
            </g>
            <g transform="translate(98.65,78.6)">
              <path d="M-0.33,-0.12 L 0.33 -0.12 0.33 0.12 -0.33 0.12 z" class="primitive"/>
            </g>
            <g transform="translate(99.26,78.57)">
              <path d="M-0.33,-0.14 L 0.33 -0.14 0.33 0.14 -0.33 0.14 z" class="primitive"/>
            </g>
            <g transform="translate(99.88,78.56)">
              <path d="M-0.33,-0.16 L 0.33 -0.16 0.33 0.16 -0.33 0.16 z" class="primitive"/>
            </g>
            <g transform="translate(100.5,78.62)">
              <path d="M-0.33,-0.1 L 0.33 -0.1 0.33 0.1 -0.33 0.1 z" class="primitive"/>
            </g>
            <g transform="translate(101.11,78.64)">
              <path d="M-0.33,-0.07 L 0.33 -0.07 0.33 0.07 -0.33 0.07 z" class="primitive"/>
            </g>
            <g transform="translate(101.73,78.61)">
              <path d="M-0.33,-0.11 L 0.33 -0.11 0.33 0.11 -0.33 0.11 z" class="primitive"/>
            </g>
            <g transform="translate(102.35,78.58)">
              <path d="M-0.33,-0.13 L 0.33 -0.13 0.33 0.13 -0.33 0.13 z" class="primitive"/>
            </g>
            <g transform="translate(102.96,78.61)">
              <path d="M-0.33,-0.11 L 0.33 -0.11 0.33 0.11 -0.33 0.11 z" class="primitive"/>
            </g>
            <g transform="translate(103.58,78.61)">
              <path d="M-0.33,-0.11 L 0.33 -0.11 0.33 0.11 -0.33 0.11 z" class="primitive"/>
            </g>
            <g transform="translate(104.2,78.66)">
              <path d="M-0.33,-0.06 L 0.33 -0.06 0.33 0.06 -0.33 0.06 z" class="primitive"/>
            </g>
            <g transform="translate(104.81,78.61)">
              <path d="M-0.33,-0.11 L 0.33 -0.11 0.33 0.11 -0.33 0.11 z" class="primitive"/>
            </g>
            <g transform="translate(105.43,78.63)">
              <path d="M-0.33,-0.08 L 0.33 -0.08 0.33 0.08 -0.33 0.08 z" class="primitive"/>
            </g>
            <g transform="translate(106.05,78.66)">
              <path d="M-0.33,-0.06 L 0.33 -0.06 0.33 0.06 -0.33 0.06 z" class="primitive"/>
            </g>
            <g transform="translate(106.66,78.61)">
              <path d="M-0.33,-0.11 L 0.33 -0.11 0.33 0.11 -0.33 0.11 z" class="primitive"/>
            </g>
            <g transform="translate(107.28,78.6)">
              <path d="M-0.33,-0.12 L 0.33 -0.12 0.33 0.12 -0.33 0.12 z" class="primitive"/>
            </g>
            <g transform="translate(107.9,78.63)">
              <path d="M-0.33,-0.08 L 0.33 -0.08 0.33 0.08 -0.33 0.08 z" class="primitive"/>
            </g>
            <g transform="translate(108.51,78.7)">
              <path d="M-0.33,-0.01 L 0.33 -0.01 0.33 0.01 -0.33 0.01 z" class="primitive"/>
            </g>
            <g transform="translate(109.13,78.58)">
              <path d="M-0.33,-0.13 L 0.33 -0.13 0.33 0.13 -0.33 0.13 z" class="primitive"/>
            </g>
            <g transform="translate(109.75,78.62)">
              <path d="M-0.33,-0.1 L 0.33 -0.1 0.33 0.1 -0.33 0.1 z" class="primitive"/>
            </g>
            <g transform="translate(110.37,78.6)">
              <path d="M-0.33,-0.12 L 0.33 -0.12 0.33 0.12 -0.33 0.12 z" class="primitive"/>
            </g>
            <g transform="translate(110.98,47.63)">
              <path d="M-0.33,-31.09 L 0.33 -31.09 0.33 31.09 -0.33 31.09 z" class="primitive"/>
            </g>
          </g>
        </g>
      </g>
    </g>
  </g>
  <g class="guide ylabels" font-size="2.82" font-family="'PT Sans Caption','Helvetica Neue','Helvetica',sans-serif" fill="#6C606B" id="img-35925cd9-12">
    <g transform="translate(15.77,78.72)">
      <g class="primitive">
        <text text-anchor="end" dy="0.35em">0</text>
      </g>
    </g>
    <g transform="translate(15.77,54.81)">
      <g class="primitive">
        <text text-anchor="end" dy="0.35em">1×10³</text>
      </g>
    </g>
    <g transform="translate(15.77,30.91)">
      <g class="primitive">
        <text text-anchor="end" dy="0.35em">2×10³</text>
      </g>
    </g>
    <g transform="translate(15.77,7)">
      <g class="primitive">
        <text text-anchor="end" dy="0.35em">3×10³</text>
      </g>
    </g>
  </g>
</g>
<defs>
  <clipPath id="img-35925cd9-4">
    <path d="M16.77,5 L 136.42 5 136.42 80.72 16.77 80.72" />
  </clipPath>
</defs>
</svg>
