<?xml version="1.0" encoding="UTF-8"?>
<svg xmlns="http://www.w3.org/2000/svg"
     xmlns:xlink="http://www.w3.org/1999/xlink"
     xmlns:gadfly="http://www.gadflyjl.org/ns"
     version="1.2"
     width="141.42mm" height="100mm" viewBox="0 0 141.42 100"
     stroke="none"
     fill="#000000"
     stroke-width="0.3"
     font-size="3.88"
>
<defs>
  <marker id="arrow" markerWidth="15" markerHeight="7" refX="5" refY="3.5" orient="auto" markerUnits="strokeWidth">
    <path d="M0,0 L15,3.5 L0,7 z" stroke="context-stroke" fill="context-stroke"/>
  </marker>
</defs>
<g class="plotroot xscalable yscalable" id="img-6df538fd-1">
  <g font-size="3.88" font-family="'PT Sans','Helvetica Neue','Helvetica',sans-serif" fill="#564A55" stroke="#000000" stroke-opacity="0.000" id="img-6df538fd-2">
    <g transform="translate(77.53,88.39)">
      <g class="primitive">
        <text text-anchor="middle" dy="0.6em">Scaled and shifted u₁</text>
      </g>
    </g>
  </g>
  <g class="guide xlabels" font-size="2.82" font-family="'PT Sans Caption','Helvetica Neue','Helvetica',sans-serif" fill="#6C606B" id="img-6df538fd-3">
    <g transform="translate(20.63,81.72)">
      <g class="primitive">
        <text text-anchor="middle" dy="0.6em">-5</text>
      </g>
    </g>
    <g transform="translate(77.53,81.72)">
      <g class="primitive">
        <text text-anchor="middle" dy="0.6em">0</text>
      </g>
    </g>
    <g transform="translate(134.42,81.72)">
      <g class="primitive">
        <text text-anchor="middle" dy="0.6em">5</text>
      </g>
    </g>
  </g>
  <g clip-path="url(#img-6df538fd-4)">
    <g id="img-6df538fd-5">
      <g pointer-events="visible" fill="#000000" fill-opacity="0.000" stroke="#000000" stroke-opacity="0.000" class="guide background" id="img-6df538fd-6">
        <g transform="translate(77.53,42.86)" id="img-6df538fd-7">
          <path d="M-58.89,-37.86 L 58.89 -37.86 58.89 37.86 -58.89 37.86 z" class="primitive"/>
        </g>
      </g>
      <g class="guide ygridlines xfixed" stroke-dasharray="0.5,0.5" stroke-width="0.2" stroke="#D0D0E0" id="img-6df538fd-8">
        <g transform="translate(77.53,78.71)" id="img-6df538fd-9">
          <path fill="none" d="M-58.89,0 L 58.89 0" class="primitive"/>
        </g>
        <g transform="translate(77.53,42.86)" id="img-6df538fd-10">
          <path fill="none" d="M-58.89,0 L 58.89 0" class="primitive"/>
        </g>
        <g transform="translate(77.53,7)" id="img-6df538fd-11">
          <path fill="none" d="M-58.89,0 L 58.89 0" class="primitive"/>
        </g>
      </g>
      <g class="guide xgridlines yfixed" stroke-dasharray="0.5,0.5" stroke-width="0.2" stroke="#D0D0E0" id="img-6df538fd-12">
        <g transform="translate(20.63,42.86)" id="img-6df538fd-13">
          <path fill="none" d="M0,-37.86 L 0 37.86" class="primitive"/>
        </g>
        <g transform="translate(77.53,42.86)" id="img-6df538fd-14">
          <path fill="none" d="M0,-37.86 L 0 37.86" class="primitive"/>
        </g>
        <g transform="translate(134.42,42.86)" id="img-6df538fd-15">
          <path fill="none" d="M0,-37.86 L 0 37.86" class="primitive"/>
        </g>
      </g>
      <g class="plotpanel" id="img-6df538fd-16">
        <metadata>
          <boundingbox value="18.63166666666666mm 5.0mm 117.78968957064285mm 75.715mm"/>
          <unitbox value="-5.175762848773602 1.0278881684445373 10.351525697547203 -1.055776336889075"/>
        </metadata>
        <g stroke-width="0.3" fill="#000000" fill-opacity="0.000" class="geometry" id="img-6df538fd-17">
          <g class="color_LCHab{Float32}(70.0f0,60.0f0,240.0f0)" stroke-dasharray="none" stroke="#00BFFF" id="img-6df538fd-18">
            <g transform="translate(77.53,60.82)" id="img-6df538fd-19">
              <path fill="none" d="M-56.89,17.89 L -56.18 17.89 -55.47 17.89 -54.76 17.89 -54.05 17.89 -53.34 17.89 -52.63 17.89 -51.92 17.89 -51.21 17.89 -50.49 17.88 -49.78 17.88 -49.07 17.88 -48.36 17.87 -47.65 17.87 -46.94 17.86 -46.23 17.86 -45.52 17.85 -44.8 17.83 -44.09 17.82 -43.38 17.8 -42.67 17.78 -41.96 17.76 -41.25 17.73 -40.54 17.69 -39.83 17.64 -39.12 17.59 -38.4 17.53 -37.69 17.45 -36.98 17.37 -36.27 17.26 -35.56 17.14 -34.85 17 -34.14 16.83 -33.43 16.64 -32.71 16.41 -32 16.15 -31.29 15.85 -30.58 15.51 -29.87 15.12 -29.16 14.68 -28.45 14.17 -27.74 13.61 -27.03 12.97 -26.31 12.25 -25.6 11.46 -24.89 10.57 -24.18 9.6 -23.47 8.52 -22.76 7.34 -22.05 6.05 -21.34 4.64 -20.62 3.13 -19.91 1.49 -19.2 -0.26 -18.49 -2.14 -17.78 -4.12 -17.07 -6.22 -16.36 -8.43 -15.65 -10.73 -14.93 -13.13 -14.22 -15.61 -13.51 -18.16 -12.8 -20.76 -12.09 -23.4 -11.38 -26.05 -10.67 -28.71 -9.96 -31.35 -9.25 -33.94 -8.53 -36.47 -7.82 -38.91 -7.11 -41.24 -6.4 -43.44 -5.69 -45.47 -4.98 -47.33 -4.27 -48.99 -3.56 -50.42 -2.84 -51.63 -2.13 -52.58 -1.42 -53.26 -0.71 -53.68 -0 -53.82 0.71 -53.68 1.42 -53.26 2.13 -52.57 2.84 -51.6 3.56 -50.38 4.27 -48.92 4.98 -47.22 5.69 -45.32 6.4 -43.22 7.11 -40.96 7.82 -38.55 8.53 -36.02 9.25 -33.39 9.96 -30.69 10.67 -27.95 11.38 -25.18 12.09 -22.42 12.8 -19.67 13.51 -16.97 14.22 -14.33 14.93 -11.76 15.65 -9.29 16.36 -6.91 17.07 -4.65 17.78 -2.51 18.49 -0.49 19.2 1.39 19.91 3.15 20.62 4.77 21.34 6.27 22.05 7.64 22.76 8.89 23.47 10.02 24.18 11.03 24.89 11.95 25.6 12.76 26.31 13.48 27.03 14.12 27.74 14.67 28.45 15.16 29.16 15.59 29.87 15.95 30.58 16.27 31.29 16.54 32 16.77 32.71 16.97 33.43 17.13 34.14 17.27 34.85 17.38 35.56 17.48 36.27 17.56 36.98 17.62 37.69 17.68 38.4 17.72 39.12 17.76 39.83 17.79 40.54 17.81 41.25 17.83 41.96 17.84 42.67 17.85 43.38 17.86 44.09 17.87 44.8 17.88 45.52 17.88 46.23 17.88 46.94 17.89 47.65 17.89 48.36 17.89 49.07 17.89 49.78 17.89 50.49 17.89 51.21 17.89 51.92 17.89 52.63 17.89 53.34 17.89 54.05 17.89 54.76 17.89 55.47 17.89 56.18 17.89 56.89 17.89" class="primitive"/>
            </g>
          </g>
        </g>
      </g>
    </g>
  </g>
  <g class="guide ylabels" font-size="2.82" font-family="'PT Sans Caption','Helvetica Neue','Helvetica',sans-serif" fill="#6C606B" id="img-6df538fd-20">
    <g transform="translate(17.63,78.71)" id="img-6df538fd-21">
      <g class="primitive">
        <text text-anchor="end" dy="0.35em">0.0</text>
      </g>
    </g>
    <g transform="translate(17.63,42.86)" id="img-6df538fd-22">
      <g class="primitive">
        <text text-anchor="end" dy="0.35em">0.5</text>
      </g>
    </g>
    <g transform="translate(17.63,7)" id="img-6df538fd-23">
      <g class="primitive">
        <text text-anchor="end" dy="0.35em">1.0</text>
      </g>
    </g>
  </g>
  <g font-size="3.88" font-family="'PT Sans','Helvetica Neue','Helvetica',sans-serif" fill="#564A55" stroke="#000000" stroke-opacity="0.000" id="img-6df538fd-24">
    <g transform="translate(8.81,40.86)" id="img-6df538fd-25">
      <g class="primitive">
        <text text-anchor="middle" dy="0.35em" transform="rotate(-90,0, 2)">Conditional density</text>
      </g>
    </g>
  </g>
</g>
<defs>
  <clipPath id="img-6df538fd-4">
    <path d="M18.63,5 L 136.42 5 136.42 80.72 18.63 80.72" />
  </clipPath>
</defs>
</svg>
