<?xml version="1.0" encoding="UTF-8"?>
<svg xmlns="http://www.w3.org/2000/svg"
     xmlns:xlink="http://www.w3.org/1999/xlink"
     xmlns:gadfly="http://www.gadflyjl.org/ns"
     version="1.2"
     width="203.2mm" height="101.6mm" viewBox="0 0 203.2 101.6"
     stroke="none"
     fill="#000000"
     stroke-width="0.3"
     font-size="3.88"
>
<defs>
  <marker id="arrow" markerWidth="15" markerHeight="7" refX="5" refY="3.5" orient="auto" markerUnits="strokeWidth">
    <path d="M0,0 L15,3.5 L0,7 z" stroke="context-stroke" fill="context-stroke"/>
  </marker>
</defs>
<g class="plotroot xscalable yscalable" id="img-6928bc76-1">
  <g font-size="3.88" font-family="'PT Sans','Helvetica Neue','Helvetica',sans-serif" fill="#564A55" stroke="#000000" stroke-opacity="0.000" id="img-6928bc76-2">
    <g transform="translate(105.11,89.99)">
      <g class="primitive">
        <text text-anchor="middle" dy="0.6em">θ₃</text>
      </g>
    </g>
  </g>
  <g class="guide xlabels" font-size="2.82" font-family="'PT Sans Caption','Helvetica Neue','Helvetica',sans-serif" fill="#6C606B" id="img-6928bc76-3">
    <g transform="translate(14.02,83.32)">
      <g class="primitive">
        <text text-anchor="middle" dy="0.6em">0.0</text>
      </g>
    </g>
    <g transform="translate(59.56,83.32)">
      <g class="primitive">
        <text text-anchor="middle" dy="0.6em">0.1</text>
      </g>
    </g>
    <g transform="translate(105.11,83.32)">
      <g class="primitive">
        <text text-anchor="middle" dy="0.6em">0.2</text>
      </g>
    </g>
    <g transform="translate(150.66,83.32)">
      <g class="primitive">
        <text text-anchor="middle" dy="0.6em">0.3</text>
      </g>
    </g>
    <g transform="translate(196.2,83.32)">
      <g class="primitive">
        <text text-anchor="middle" dy="0.6em">0.4</text>
      </g>
    </g>
  </g>
  <g clip-path="url(#img-6928bc76-4)">
    <g id="img-6928bc76-5">
      <g pointer-events="visible" fill="#000000" fill-opacity="0.000" stroke="#000000" stroke-opacity="0.000" class="guide background" id="img-6928bc76-6">
        <g transform="translate(105.11,43.66)" id="img-6928bc76-7">
          <path d="M-93.09,-38.66 L 93.09 -38.66 93.09 38.66 -93.09 38.66 z" class="primitive"/>
        </g>
      </g>
      <g class="guide ygridlines xfixed" stroke-dasharray="0.5,0.5" stroke-width="0.2" stroke="#D0D0E0" id="img-6928bc76-8">
        <g transform="translate(105.11,80.32)" id="img-6928bc76-9">
          <path fill="none" d="M-93.09,0 L 93.09 0" class="primitive"/>
        </g>
        <g transform="translate(105.11,61.99)" id="img-6928bc76-10">
          <path fill="none" d="M-93.09,0 L 93.09 0" class="primitive"/>
        </g>
        <g transform="translate(105.11,43.66)" id="img-6928bc76-11">
          <path fill="none" d="M-93.09,0 L 93.09 0" class="primitive"/>
        </g>
        <g transform="translate(105.11,25.33)" id="img-6928bc76-12">
          <path fill="none" d="M-93.09,0 L 93.09 0" class="primitive"/>
        </g>
        <g transform="translate(105.11,7)" id="img-6928bc76-13">
          <path fill="none" d="M-93.09,0 L 93.09 0" class="primitive"/>
        </g>
      </g>
      <g class="guide xgridlines yfixed" stroke-dasharray="0.5,0.5" stroke-width="0.2" stroke="#D0D0E0" id="img-6928bc76-14">
        <g transform="translate(14.02,43.66)" id="img-6928bc76-15">
          <path fill="none" d="M0,-38.66 L 0 38.66" class="primitive"/>
        </g>
        <g transform="translate(59.56,43.66)" id="img-6928bc76-16">
          <path fill="none" d="M0,-38.66 L 0 38.66" class="primitive"/>
        </g>
        <g transform="translate(105.11,43.66)" id="img-6928bc76-17">
          <path fill="none" d="M0,-38.66 L 0 38.66" class="primitive"/>
        </g>
        <g transform="translate(150.66,43.66)" id="img-6928bc76-18">
          <path fill="none" d="M0,-38.66 L 0 38.66" class="primitive"/>
        </g>
        <g transform="translate(196.2,43.66)" id="img-6928bc76-19">
          <path fill="none" d="M0,-38.66 L 0 38.66" class="primitive"/>
        </g>
      </g>
      <g class="plotpanel" id="img-6928bc76-20">
        <metadata>
          <boundingbox value="12.02000000000001mm 5.0mm 186.17999999999998mm 77.315mm"/>
          <unitbox value="-0.00439126138983423 410.91181886380684 0.4087825227796684 -421.82363772761374"/>
        </metadata>
        <g shape-rendering="crispEdges" stroke-width="0.3" id="img-6928bc76-21">
          <g stroke="#000000" stroke-opacity="0.000" class="geometry" fill="#00BFFF" id="img-6928bc76-22">
            <g transform="translate(14.61,52.09)" id="img-6928bc76-23">
              <path d="M-0.62,-28.23 L 0.62 -28.23 0.62 28.23 -0.62 28.23 z" class="primitive"/>
            </g>
            <g transform="translate(15.79,80.04)" id="img-6928bc76-24">
              <path d="M-0.62,-0.27 L 0.62 -0.27 0.62 0.27 -0.62 0.27 z" class="primitive"/>
            </g>
            <g transform="translate(16.98,80.32)" id="img-6928bc76-25">
              <path d="M-0.62,-0 L 0.62 -0 0.62 0 -0.62 0 z" class="primitive"/>
            </g>
            <g transform="translate(18.16,80.22)" id="img-6928bc76-26">
              <path d="M-0.62,-0.09 L 0.62 -0.09 0.62 0.09 -0.62 0.09 z" class="primitive"/>
            </g>
            <g transform="translate(19.34,80.13)" id="img-6928bc76-27">
              <path d="M-0.62,-0.18 L 0.62 -0.18 0.62 0.18 -0.62 0.18 z" class="primitive"/>
            </g>
            <g transform="translate(20.53,80.04)" id="img-6928bc76-28">
              <path d="M-0.62,-0.27 L 0.62 -0.27 0.62 0.27 -0.62 0.27 z" class="primitive"/>
            </g>
            <g transform="translate(21.71,80.22)" id="img-6928bc76-29">
              <path d="M-0.62,-0.09 L 0.62 -0.09 0.62 0.09 -0.62 0.09 z" class="primitive"/>
            </g>
            <g transform="translate(22.89,80.13)" id="img-6928bc76-30">
              <path d="M-0.62,-0.18 L 0.62 -0.18 0.62 0.18 -0.62 0.18 z" class="primitive"/>
            </g>
            <g transform="translate(24.07,80.04)" id="img-6928bc76-31">
              <path d="M-0.62,-0.27 L 0.62 -0.27 0.62 0.27 -0.62 0.27 z" class="primitive"/>
            </g>
            <g transform="translate(25.26,80.13)" id="img-6928bc76-32">
              <path d="M-0.62,-0.18 L 0.62 -0.18 0.62 0.18 -0.62 0.18 z" class="primitive"/>
            </g>
            <g transform="translate(26.44,80.04)" id="img-6928bc76-33">
              <path d="M-0.62,-0.27 L 0.62 -0.27 0.62 0.27 -0.62 0.27 z" class="primitive"/>
            </g>
            <g transform="translate(27.62,79.77)" id="img-6928bc76-34">
              <path d="M-0.62,-0.55 L 0.62 -0.55 0.62 0.55 -0.62 0.55 z" class="primitive"/>
            </g>
            <g transform="translate(28.8,79.95)" id="img-6928bc76-35">
              <path d="M-0.62,-0.37 L 0.62 -0.37 0.62 0.37 -0.62 0.37 z" class="primitive"/>
            </g>
            <g transform="translate(29.99,79.86)" id="img-6928bc76-36">
              <path d="M-0.62,-0.46 L 0.62 -0.46 0.62 0.46 -0.62 0.46 z" class="primitive"/>
            </g>
            <g transform="translate(31.17,80.22)" id="img-6928bc76-37">
              <path d="M-0.62,-0.09 L 0.62 -0.09 0.62 0.09 -0.62 0.09 z" class="primitive"/>
            </g>
            <g transform="translate(32.35,79.86)" id="img-6928bc76-38">
              <path d="M-0.62,-0.46 L 0.62 -0.46 0.62 0.46 -0.62 0.46 z" class="primitive"/>
            </g>
            <g transform="translate(33.54,79.58)" id="img-6928bc76-39">
              <path d="M-0.62,-0.73 L 0.62 -0.73 0.62 0.73 -0.62 0.73 z" class="primitive"/>
            </g>
            <g transform="translate(34.72,79.95)" id="img-6928bc76-40">
              <path d="M-0.62,-0.37 L 0.62 -0.37 0.62 0.37 -0.62 0.37 z" class="primitive"/>
            </g>
            <g transform="translate(35.9,79.12)" id="img-6928bc76-41">
              <path d="M-0.62,-1.19 L 0.62 -1.19 0.62 1.19 -0.62 1.19 z" class="primitive"/>
            </g>
            <g transform="translate(37.08,79.31)" id="img-6928bc76-42">
              <path d="M-0.62,-1.01 L 0.62 -1.01 0.62 1.01 -0.62 1.01 z" class="primitive"/>
            </g>
            <g transform="translate(38.27,79.31)" id="img-6928bc76-43">
              <path d="M-0.62,-1.01 L 0.62 -1.01 0.62 1.01 -0.62 1.01 z" class="primitive"/>
            </g>
            <g transform="translate(39.45,79.12)" id="img-6928bc76-44">
              <path d="M-0.62,-1.19 L 0.62 -1.19 0.62 1.19 -0.62 1.19 z" class="primitive"/>
            </g>
            <g transform="translate(40.63,79.22)" id="img-6928bc76-45">
              <path d="M-0.62,-1.1 L 0.62 -1.1 0.62 1.1 -0.62 1.1 z" class="primitive"/>
            </g>
            <g transform="translate(41.82,79.03)" id="img-6928bc76-46">
              <path d="M-0.62,-1.28 L 0.62 -1.28 0.62 1.28 -0.62 1.28 z" class="primitive"/>
            </g>
            <g transform="translate(43,79.4)" id="img-6928bc76-47">
              <path d="M-0.62,-0.92 L 0.62 -0.92 0.62 0.92 -0.62 0.92 z" class="primitive"/>
            </g>
            <g transform="translate(44.18,79.22)" id="img-6928bc76-48">
              <path d="M-0.62,-1.1 L 0.62 -1.1 0.62 1.1 -0.62 1.1 z" class="primitive"/>
            </g>
            <g transform="translate(45.36,79.58)" id="img-6928bc76-49">
              <path d="M-0.62,-0.73 L 0.62 -0.73 0.62 0.73 -0.62 0.73 z" class="primitive"/>
            </g>
            <g transform="translate(46.55,79.31)" id="img-6928bc76-50">
              <path d="M-0.62,-1.01 L 0.62 -1.01 0.62 1.01 -0.62 1.01 z" class="primitive"/>
            </g>
            <g transform="translate(47.73,79.22)" id="img-6928bc76-51">
              <path d="M-0.62,-1.1 L 0.62 -1.1 0.62 1.1 -0.62 1.1 z" class="primitive"/>
            </g>
            <g transform="translate(48.91,78.94)" id="img-6928bc76-52">
              <path d="M-0.62,-1.37 L 0.62 -1.37 0.62 1.37 -0.62 1.37 z" class="primitive"/>
            </g>
            <g transform="translate(50.09,78.12)" id="img-6928bc76-53">
              <path d="M-0.62,-2.2 L 0.62 -2.2 0.62 2.2 -0.62 2.2 z" class="primitive"/>
            </g>
            <g transform="translate(51.28,79.22)" id="img-6928bc76-54">
              <path d="M-0.62,-1.1 L 0.62 -1.1 0.62 1.1 -0.62 1.1 z" class="primitive"/>
            </g>
            <g transform="translate(52.46,78.12)" id="img-6928bc76-55">
              <path d="M-0.62,-2.2 L 0.62 -2.2 0.62 2.2 -0.62 2.2 z" class="primitive"/>
            </g>
            <g transform="translate(53.64,77.84)" id="img-6928bc76-56">
              <path d="M-0.62,-2.47 L 0.62 -2.47 0.62 2.47 -0.62 2.47 z" class="primitive"/>
            </g>
            <g transform="translate(54.83,77.75)" id="img-6928bc76-57">
              <path d="M-0.62,-2.57 L 0.62 -2.57 0.62 2.57 -0.62 2.57 z" class="primitive"/>
            </g>
            <g transform="translate(56.01,78.02)" id="img-6928bc76-58">
              <path d="M-0.62,-2.29 L 0.62 -2.29 0.62 2.29 -0.62 2.29 z" class="primitive"/>
            </g>
            <g transform="translate(57.19,77.84)" id="img-6928bc76-59">
              <path d="M-0.62,-2.47 L 0.62 -2.47 0.62 2.47 -0.62 2.47 z" class="primitive"/>
            </g>
            <g transform="translate(58.37,77.84)" id="img-6928bc76-60">
              <path d="M-0.62,-2.47 L 0.62 -2.47 0.62 2.47 -0.62 2.47 z" class="primitive"/>
            </g>
            <g transform="translate(59.56,76.28)" id="img-6928bc76-61">
              <path d="M-0.62,-4.03 L 0.62 -4.03 0.62 4.03 -0.62 4.03 z" class="primitive"/>
            </g>
            <g transform="translate(60.74,77.11)" id="img-6928bc76-62">
              <path d="M-0.62,-3.21 L 0.62 -3.21 0.62 3.21 -0.62 3.21 z" class="primitive"/>
            </g>
            <g transform="translate(61.92,76.56)" id="img-6928bc76-63">
              <path d="M-0.62,-3.76 L 0.62 -3.76 0.62 3.76 -0.62 3.76 z" class="primitive"/>
            </g>
            <g transform="translate(63.11,76.37)" id="img-6928bc76-64">
              <path d="M-0.62,-3.94 L 0.62 -3.94 0.62 3.94 -0.62 3.94 z" class="primitive"/>
            </g>
            <g transform="translate(64.29,76.56)" id="img-6928bc76-65">
              <path d="M-0.62,-3.76 L 0.62 -3.76 0.62 3.76 -0.62 3.76 z" class="primitive"/>
            </g>
            <g transform="translate(65.47,76.1)" id="img-6928bc76-66">
              <path d="M-0.62,-4.22 L 0.62 -4.22 0.62 4.22 -0.62 4.22 z" class="primitive"/>
            </g>
            <g transform="translate(66.65,74.54)" id="img-6928bc76-67">
              <path d="M-0.62,-5.77 L 0.62 -5.77 0.62 5.77 -0.62 5.77 z" class="primitive"/>
            </g>
            <g transform="translate(67.84,76.37)" id="img-6928bc76-68">
              <path d="M-0.62,-3.94 L 0.62 -3.94 0.62 3.94 -0.62 3.94 z" class="primitive"/>
            </g>
            <g transform="translate(69.02,74.17)" id="img-6928bc76-69">
              <path d="M-0.62,-6.14 L 0.62 -6.14 0.62 6.14 -0.62 6.14 z" class="primitive"/>
            </g>
            <g transform="translate(70.2,74.27)" id="img-6928bc76-70">
              <path d="M-0.62,-6.05 L 0.62 -6.05 0.62 6.05 -0.62 6.05 z" class="primitive"/>
            </g>
            <g transform="translate(71.38,74.72)" id="img-6928bc76-71">
              <path d="M-0.62,-5.59 L 0.62 -5.59 0.62 5.59 -0.62 5.59 z" class="primitive"/>
            </g>
            <g transform="translate(72.57,74.08)" id="img-6928bc76-72">
              <path d="M-0.62,-6.23 L 0.62 -6.23 0.62 6.23 -0.62 6.23 z" class="primitive"/>
            </g>
            <g transform="translate(73.75,71.61)" id="img-6928bc76-73">
              <path d="M-0.62,-8.71 L 0.62 -8.71 0.62 8.71 -0.62 8.71 z" class="primitive"/>
            </g>
            <g transform="translate(74.93,73.63)" id="img-6928bc76-74">
              <path d="M-0.62,-6.69 L 0.62 -6.69 0.62 6.69 -0.62 6.69 z" class="primitive"/>
            </g>
            <g transform="translate(76.12,71.98)" id="img-6928bc76-75">
              <path d="M-0.62,-8.34 L 0.62 -8.34 0.62 8.34 -0.62 8.34 z" class="primitive"/>
            </g>
            <g transform="translate(77.3,73.08)" id="img-6928bc76-76">
              <path d="M-0.62,-7.24 L 0.62 -7.24 0.62 7.24 -0.62 7.24 z" class="primitive"/>
            </g>
            <g transform="translate(78.48,70.6)" id="img-6928bc76-77">
              <path d="M-0.62,-9.71 L 0.62 -9.71 0.62 9.71 -0.62 9.71 z" class="primitive"/>
            </g>
            <g transform="translate(79.66,71.43)" id="img-6928bc76-78">
              <path d="M-0.62,-8.89 L 0.62 -8.89 0.62 8.89 -0.62 8.89 z" class="primitive"/>
            </g>
            <g transform="translate(80.85,70.51)" id="img-6928bc76-79">
              <path d="M-0.62,-9.81 L 0.62 -9.81 0.62 9.81 -0.62 9.81 z" class="primitive"/>
            </g>
            <g transform="translate(82.03,70.42)" id="img-6928bc76-80">
              <path d="M-0.62,-9.9 L 0.62 -9.9 0.62 9.9 -0.62 9.9 z" class="primitive"/>
            </g>
            <g transform="translate(83.21,69.5)" id="img-6928bc76-81">
              <path d="M-0.62,-10.81 L 0.62 -10.81 0.62 10.81 -0.62 10.81 z" class="primitive"/>
            </g>
            <g transform="translate(84.4,68.22)" id="img-6928bc76-82">
              <path d="M-0.62,-12.1 L 0.62 -12.1 0.62 12.1 -0.62 12.1 z" class="primitive"/>
            </g>
            <g transform="translate(85.58,68.49)" id="img-6928bc76-83">
              <path d="M-0.62,-11.82 L 0.62 -11.82 0.62 11.82 -0.62 11.82 z" class="primitive"/>
            </g>
            <g transform="translate(86.76,65.56)" id="img-6928bc76-84">
              <path d="M-0.62,-14.75 L 0.62 -14.75 0.62 14.75 -0.62 14.75 z" class="primitive"/>
            </g>
            <g transform="translate(87.94,66.48)" id="img-6928bc76-85">
              <path d="M-0.62,-13.84 L 0.62 -13.84 0.62 13.84 -0.62 13.84 z" class="primitive"/>
            </g>
            <g transform="translate(89.13,67.21)" id="img-6928bc76-86">
              <path d="M-0.62,-13.11 L 0.62 -13.11 0.62 13.11 -0.62 13.11 z" class="primitive"/>
            </g>
            <g transform="translate(90.31,66.2)" id="img-6928bc76-87">
              <path d="M-0.62,-14.11 L 0.62 -14.11 0.62 14.11 -0.62 14.11 z" class="primitive"/>
            </g>
            <g transform="translate(91.49,66.57)" id="img-6928bc76-88">
              <path d="M-0.62,-13.75 L 0.62 -13.75 0.62 13.75 -0.62 13.75 z" class="primitive"/>
            </g>
            <g transform="translate(92.67,65.29)" id="img-6928bc76-89">
              <path d="M-0.62,-15.03 L 0.62 -15.03 0.62 15.03 -0.62 15.03 z" class="primitive"/>
            </g>
            <g transform="translate(93.86,66.48)" id="img-6928bc76-90">
              <path d="M-0.62,-13.84 L 0.62 -13.84 0.62 13.84 -0.62 13.84 z" class="primitive"/>
            </g>
            <g transform="translate(95.04,63.91)" id="img-6928bc76-91">
              <path d="M-0.62,-16.4 L 0.62 -16.4 0.62 16.4 -0.62 16.4 z" class="primitive"/>
            </g>
            <g transform="translate(96.22,63.27)" id="img-6928bc76-92">
              <path d="M-0.62,-17.05 L 0.62 -17.05 0.62 17.05 -0.62 17.05 z" class="primitive"/>
            </g>
            <g transform="translate(97.41,64.37)" id="img-6928bc76-93">
              <path d="M-0.62,-15.95 L 0.62 -15.95 0.62 15.95 -0.62 15.95 z" class="primitive"/>
            </g>
            <g transform="translate(98.59,63.64)" id="img-6928bc76-94">
              <path d="M-0.62,-16.68 L 0.62 -16.68 0.62 16.68 -0.62 16.68 z" class="primitive"/>
            </g>
            <g transform="translate(99.77,63.64)" id="img-6928bc76-95">
              <path d="M-0.62,-16.68 L 0.62 -16.68 0.62 16.68 -0.62 16.68 z" class="primitive"/>
            </g>
            <g transform="translate(100.95,62.63)" id="img-6928bc76-96">
              <path d="M-0.62,-17.69 L 0.62 -17.69 0.62 17.69 -0.62 17.69 z" class="primitive"/>
            </g>
            <g transform="translate(102.14,60.89)" id="img-6928bc76-97">
              <path d="M-0.62,-19.43 L 0.62 -19.43 0.62 19.43 -0.62 19.43 z" class="primitive"/>
            </g>
            <g transform="translate(103.32,62.9)" id="img-6928bc76-98">
              <path d="M-0.62,-17.41 L 0.62 -17.41 0.62 17.41 -0.62 17.41 z" class="primitive"/>
            </g>
            <g transform="translate(104.5,64.28)" id="img-6928bc76-99">
              <path d="M-0.62,-16.04 L 0.62 -16.04 0.62 16.04 -0.62 16.04 z" class="primitive"/>
            </g>
            <g transform="translate(105.69,60.7)" id="img-6928bc76-100">
              <path d="M-0.62,-19.61 L 0.62 -19.61 0.62 19.61 -0.62 19.61 z" class="primitive"/>
            </g>
            <g transform="translate(106.87,62.44)" id="img-6928bc76-101">
              <path d="M-0.62,-17.87 L 0.62 -17.87 0.62 17.87 -0.62 17.87 z" class="primitive"/>
            </g>
            <g transform="translate(108.05,64)" id="img-6928bc76-102">
              <path d="M-0.62,-16.31 L 0.62 -16.31 0.62 16.31 -0.62 16.31 z" class="primitive"/>
            </g>
            <g transform="translate(109.23,64.46)" id="img-6928bc76-103">
              <path d="M-0.62,-15.85 L 0.62 -15.85 0.62 15.85 -0.62 15.85 z" class="primitive"/>
            </g>
            <g transform="translate(110.42,61.99)" id="img-6928bc76-104">
              <path d="M-0.62,-18.33 L 0.62 -18.33 0.62 18.33 -0.62 18.33 z" class="primitive"/>
            </g>
            <g transform="translate(111.6,64.37)" id="img-6928bc76-105">
              <path d="M-0.62,-15.95 L 0.62 -15.95 0.62 15.95 -0.62 15.95 z" class="primitive"/>
            </g>
            <g transform="translate(112.78,60.89)" id="img-6928bc76-106">
              <path d="M-0.62,-19.43 L 0.62 -19.43 0.62 19.43 -0.62 19.43 z" class="primitive"/>
            </g>
            <g transform="translate(113.96,64.74)" id="img-6928bc76-107">
              <path d="M-0.62,-15.58 L 0.62 -15.58 0.62 15.58 -0.62 15.58 z" class="primitive"/>
            </g>
            <g transform="translate(115.15,63.91)" id="img-6928bc76-108">
              <path d="M-0.62,-16.4 L 0.62 -16.4 0.62 16.4 -0.62 16.4 z" class="primitive"/>
            </g>
            <g transform="translate(116.33,66.02)" id="img-6928bc76-109">
              <path d="M-0.62,-14.3 L 0.62 -14.3 0.62 14.3 -0.62 14.3 z" class="primitive"/>
            </g>
            <g transform="translate(117.51,64.46)" id="img-6928bc76-110">
              <path d="M-0.62,-15.85 L 0.62 -15.85 0.62 15.85 -0.62 15.85 z" class="primitive"/>
            </g>
            <g transform="translate(118.7,67.67)" id="img-6928bc76-111">
              <path d="M-0.62,-12.65 L 0.62 -12.65 0.62 12.65 -0.62 12.65 z" class="primitive"/>
            </g>
            <g transform="translate(119.88,64.19)" id="img-6928bc76-112">
              <path d="M-0.62,-16.13 L 0.62 -16.13 0.62 16.13 -0.62 16.13 z" class="primitive"/>
            </g>
            <g transform="translate(121.06,66.66)" id="img-6928bc76-113">
              <path d="M-0.62,-13.65 L 0.62 -13.65 0.62 13.65 -0.62 13.65 z" class="primitive"/>
            </g>
            <g transform="translate(122.24,67.3)" id="img-6928bc76-114">
              <path d="M-0.62,-13.01 L 0.62 -13.01 0.62 13.01 -0.62 13.01 z" class="primitive"/>
            </g>
            <g transform="translate(123.43,67.85)" id="img-6928bc76-115">
              <path d="M-0.62,-12.46 L 0.62 -12.46 0.62 12.46 -0.62 12.46 z" class="primitive"/>
            </g>
            <g transform="translate(124.61,67.03)" id="img-6928bc76-116">
              <path d="M-0.62,-13.29 L 0.62 -13.29 0.62 13.29 -0.62 13.29 z" class="primitive"/>
            </g>
            <g transform="translate(125.79,67.48)" id="img-6928bc76-117">
              <path d="M-0.62,-12.83 L 0.62 -12.83 0.62 12.83 -0.62 12.83 z" class="primitive"/>
            </g>
            <g transform="translate(126.98,67.85)" id="img-6928bc76-118">
              <path d="M-0.62,-12.46 L 0.62 -12.46 0.62 12.46 -0.62 12.46 z" class="primitive"/>
            </g>
            <g transform="translate(128.16,69.5)" id="img-6928bc76-119">
              <path d="M-0.62,-10.81 L 0.62 -10.81 0.62 10.81 -0.62 10.81 z" class="primitive"/>
            </g>
            <g transform="translate(129.34,69.13)" id="img-6928bc76-120">
              <path d="M-0.62,-11.18 L 0.62 -11.18 0.62 11.18 -0.62 11.18 z" class="primitive"/>
            </g>
            <g transform="translate(130.52,71.98)" id="img-6928bc76-121">
              <path d="M-0.62,-8.34 L 0.62 -8.34 0.62 8.34 -0.62 8.34 z" class="primitive"/>
            </g>
            <g transform="translate(131.71,70.05)" id="img-6928bc76-122">
              <path d="M-0.62,-10.26 L 0.62 -10.26 0.62 10.26 -0.62 10.26 z" class="primitive"/>
            </g>
            <g transform="translate(132.89,72.16)" id="img-6928bc76-123">
              <path d="M-0.62,-8.16 L 0.62 -8.16 0.62 8.16 -0.62 8.16 z" class="primitive"/>
            </g>
            <g transform="translate(134.07,72.71)" id="img-6928bc76-124">
              <path d="M-0.62,-7.61 L 0.62 -7.61 0.62 7.61 -0.62 7.61 z" class="primitive"/>
            </g>
            <g transform="translate(135.25,71.7)" id="img-6928bc76-125">
              <path d="M-0.62,-8.61 L 0.62 -8.61 0.62 8.61 -0.62 8.61 z" class="primitive"/>
            </g>
            <g transform="translate(136.44,73.08)" id="img-6928bc76-126">
              <path d="M-0.62,-7.24 L 0.62 -7.24 0.62 7.24 -0.62 7.24 z" class="primitive"/>
            </g>
            <g transform="translate(137.62,74.45)" id="img-6928bc76-127">
              <path d="M-0.62,-5.87 L 0.62 -5.87 0.62 5.87 -0.62 5.87 z" class="primitive"/>
            </g>
            <g transform="translate(138.8,73.26)" id="img-6928bc76-128">
              <path d="M-0.62,-7.06 L 0.62 -7.06 0.62 7.06 -0.62 7.06 z" class="primitive"/>
            </g>
            <g transform="translate(139.99,73.99)" id="img-6928bc76-129">
              <path d="M-0.62,-6.32 L 0.62 -6.32 0.62 6.32 -0.62 6.32 z" class="primitive"/>
            </g>
            <g transform="translate(141.17,75.64)" id="img-6928bc76-130">
              <path d="M-0.62,-4.67 L 0.62 -4.67 0.62 4.67 -0.62 4.67 z" class="primitive"/>
            </g>
            <g transform="translate(142.35,74.91)" id="img-6928bc76-131">
              <path d="M-0.62,-5.41 L 0.62 -5.41 0.62 5.41 -0.62 5.41 z" class="primitive"/>
            </g>
            <g transform="translate(143.53,75.27)" id="img-6928bc76-132">
              <path d="M-0.62,-5.04 L 0.62 -5.04 0.62 5.04 -0.62 5.04 z" class="primitive"/>
            </g>
            <g transform="translate(144.72,76.19)" id="img-6928bc76-133">
              <path d="M-0.62,-4.12 L 0.62 -4.12 0.62 4.12 -0.62 4.12 z" class="primitive"/>
            </g>
            <g transform="translate(145.9,76.1)" id="img-6928bc76-134">
              <path d="M-0.62,-4.22 L 0.62 -4.22 0.62 4.22 -0.62 4.22 z" class="primitive"/>
            </g>
            <g transform="translate(147.08,78.12)" id="img-6928bc76-135">
              <path d="M-0.62,-2.2 L 0.62 -2.2 0.62 2.2 -0.62 2.2 z" class="primitive"/>
            </g>
            <g transform="translate(148.27,77.47)" id="img-6928bc76-136">
              <path d="M-0.62,-2.84 L 0.62 -2.84 0.62 2.84 -0.62 2.84 z" class="primitive"/>
            </g>
            <g transform="translate(149.45,77.47)" id="img-6928bc76-137">
              <path d="M-0.62,-2.84 L 0.62 -2.84 0.62 2.84 -0.62 2.84 z" class="primitive"/>
            </g>
            <g transform="translate(150.63,77.47)" id="img-6928bc76-138">
              <path d="M-0.62,-2.84 L 0.62 -2.84 0.62 2.84 -0.62 2.84 z" class="primitive"/>
            </g>
            <g transform="translate(151.81,78.12)" id="img-6928bc76-139">
              <path d="M-0.62,-2.2 L 0.62 -2.2 0.62 2.2 -0.62 2.2 z" class="primitive"/>
            </g>
            <g transform="translate(153,77.38)" id="img-6928bc76-140">
              <path d="M-0.62,-2.93 L 0.62 -2.93 0.62 2.93 -0.62 2.93 z" class="primitive"/>
            </g>
            <g transform="translate(154.18,78.21)" id="img-6928bc76-141">
              <path d="M-0.62,-2.11 L 0.62 -2.11 0.62 2.11 -0.62 2.11 z" class="primitive"/>
            </g>
            <g transform="translate(155.36,78.57)" id="img-6928bc76-142">
              <path d="M-0.62,-1.74 L 0.62 -1.74 0.62 1.74 -0.62 1.74 z" class="primitive"/>
            </g>
            <g transform="translate(156.54,78.57)" id="img-6928bc76-143">
              <path d="M-0.62,-1.74 L 0.62 -1.74 0.62 1.74 -0.62 1.74 z" class="primitive"/>
            </g>
            <g transform="translate(157.73,79.4)" id="img-6928bc76-144">
              <path d="M-0.62,-0.92 L 0.62 -0.92 0.62 0.92 -0.62 0.92 z" class="primitive"/>
            </g>
            <g transform="translate(158.91,79.77)" id="img-6928bc76-145">
              <path d="M-0.62,-0.55 L 0.62 -0.55 0.62 0.55 -0.62 0.55 z" class="primitive"/>
            </g>
            <g transform="translate(160.09,79.12)" id="img-6928bc76-146">
              <path d="M-0.62,-1.19 L 0.62 -1.19 0.62 1.19 -0.62 1.19 z" class="primitive"/>
            </g>
            <g transform="translate(161.28,78.94)" id="img-6928bc76-147">
              <path d="M-0.62,-1.37 L 0.62 -1.37 0.62 1.37 -0.62 1.37 z" class="primitive"/>
            </g>
            <g transform="translate(162.46,79.22)" id="img-6928bc76-148">
              <path d="M-0.62,-1.1 L 0.62 -1.1 0.62 1.1 -0.62 1.1 z" class="primitive"/>
            </g>
            <g transform="translate(163.64,79.67)" id="img-6928bc76-149">
              <path d="M-0.62,-0.64 L 0.62 -0.64 0.62 0.64 -0.62 0.64 z" class="primitive"/>
            </g>
            <g transform="translate(164.82,79.86)" id="img-6928bc76-150">
              <path d="M-0.62,-0.46 L 0.62 -0.46 0.62 0.46 -0.62 0.46 z" class="primitive"/>
            </g>
            <g transform="translate(166.01,79.77)" id="img-6928bc76-151">
              <path d="M-0.62,-0.55 L 0.62 -0.55 0.62 0.55 -0.62 0.55 z" class="primitive"/>
            </g>
            <g transform="translate(167.19,79.49)" id="img-6928bc76-152">
              <path d="M-0.62,-0.82 L 0.62 -0.82 0.62 0.82 -0.62 0.82 z" class="primitive"/>
            </g>
            <g transform="translate(168.37,79.86)" id="img-6928bc76-153">
              <path d="M-0.62,-0.46 L 0.62 -0.46 0.62 0.46 -0.62 0.46 z" class="primitive"/>
            </g>
            <g transform="translate(169.56,79.86)" id="img-6928bc76-154">
              <path d="M-0.62,-0.46 L 0.62 -0.46 0.62 0.46 -0.62 0.46 z" class="primitive"/>
            </g>
            <g transform="translate(170.74,80.04)" id="img-6928bc76-155">
              <path d="M-0.62,-0.27 L 0.62 -0.27 0.62 0.27 -0.62 0.27 z" class="primitive"/>
            </g>
            <g transform="translate(171.92,79.77)" id="img-6928bc76-156">
              <path d="M-0.62,-0.55 L 0.62 -0.55 0.62 0.55 -0.62 0.55 z" class="primitive"/>
            </g>
            <g transform="translate(173.1,80.04)" id="img-6928bc76-157">
              <path d="M-0.62,-0.27 L 0.62 -0.27 0.62 0.27 -0.62 0.27 z" class="primitive"/>
            </g>
            <g transform="translate(174.29,79.95)" id="img-6928bc76-158">
              <path d="M-0.62,-0.37 L 0.62 -0.37 0.62 0.37 -0.62 0.37 z" class="primitive"/>
            </g>
            <g transform="translate(175.47,79.95)" id="img-6928bc76-159">
              <path d="M-0.62,-0.37 L 0.62 -0.37 0.62 0.37 -0.62 0.37 z" class="primitive"/>
            </g>
            <g transform="translate(176.65,80.04)" id="img-6928bc76-160">
              <path d="M-0.62,-0.27 L 0.62 -0.27 0.62 0.27 -0.62 0.27 z" class="primitive"/>
            </g>
            <g transform="translate(177.84,80.13)" id="img-6928bc76-161">
              <path d="M-0.62,-0.18 L 0.62 -0.18 0.62 0.18 -0.62 0.18 z" class="primitive"/>
            </g>
            <g transform="translate(179.02,80.13)" id="img-6928bc76-162">
              <path d="M-0.62,-0.18 L 0.62 -0.18 0.62 0.18 -0.62 0.18 z" class="primitive"/>
            </g>
            <g transform="translate(180.2,80.22)" id="img-6928bc76-163">
              <path d="M-0.62,-0.09 L 0.62 -0.09 0.62 0.09 -0.62 0.09 z" class="primitive"/>
            </g>
            <g transform="translate(181.38,80.13)" id="img-6928bc76-164">
              <path d="M-0.62,-0.18 L 0.62 -0.18 0.62 0.18 -0.62 0.18 z" class="primitive"/>
            </g>
            <g transform="translate(182.57,80.22)" id="img-6928bc76-165">
              <path d="M-0.62,-0.09 L 0.62 -0.09 0.62 0.09 -0.62 0.09 z" class="primitive"/>
            </g>
            <g transform="translate(183.75,80.32)" id="img-6928bc76-166">
              <path d="M-0.62,-0 L 0.62 -0 0.62 0 -0.62 0 z" class="primitive"/>
            </g>
            <g transform="translate(184.93,80.32)" id="img-6928bc76-167">
              <path d="M-0.62,-0 L 0.62 -0 0.62 0 -0.62 0 z" class="primitive"/>
            </g>
            <g transform="translate(186.11,80.32)" id="img-6928bc76-168">
              <path d="M-0.62,-0 L 0.62 -0 0.62 0 -0.62 0 z" class="primitive"/>
            </g>
            <g transform="translate(187.3,80.22)" id="img-6928bc76-169">
              <path d="M-0.62,-0.09 L 0.62 -0.09 0.62 0.09 -0.62 0.09 z" class="primitive"/>
            </g>
            <g transform="translate(188.48,80.13)" id="img-6928bc76-170">
              <path d="M-0.62,-0.18 L 0.62 -0.18 0.62 0.18 -0.62 0.18 z" class="primitive"/>
            </g>
            <g transform="translate(189.66,80.22)" id="img-6928bc76-171">
              <path d="M-0.62,-0.09 L 0.62 -0.09 0.62 0.09 -0.62 0.09 z" class="primitive"/>
            </g>
            <g transform="translate(190.85,80.22)" id="img-6928bc76-172">
              <path d="M-0.62,-0.09 L 0.62 -0.09 0.62 0.09 -0.62 0.09 z" class="primitive"/>
            </g>
          </g>
        </g>
      </g>
    </g>
  </g>
  <g class="guide ylabels" font-size="2.82" font-family="'PT Sans Caption','Helvetica Neue','Helvetica',sans-serif" fill="#6C606B" id="img-6928bc76-173">
    <g transform="translate(11.02,80.32)" id="img-6928bc76-174">
      <g class="primitive">
        <text text-anchor="end" dy="0.35em">0</text>
      </g>
    </g>
    <g transform="translate(11.02,61.99)" id="img-6928bc76-175">
      <g class="primitive">
        <text text-anchor="end" dy="0.35em">100</text>
      </g>
    </g>
    <g transform="translate(11.02,43.66)" id="img-6928bc76-176">
      <g class="primitive">
        <text text-anchor="end" dy="0.35em">200</text>
      </g>
    </g>
    <g transform="translate(11.02,25.33)" id="img-6928bc76-177">
      <g class="primitive">
        <text text-anchor="end" dy="0.35em">300</text>
      </g>
    </g>
    <g transform="translate(11.02,7)" id="img-6928bc76-178">
      <g class="primitive">
        <text text-anchor="end" dy="0.35em">400</text>
      </g>
    </g>
  </g>
</g>
<defs>
  <clipPath id="img-6928bc76-4">
    <path d="M12.02,5 L 198.2 5 198.2 82.32 12.02 82.32" />
  </clipPath>
</defs>
</svg>
