<?xml version="1.0" encoding="UTF-8"?>
<svg xmlns="http://www.w3.org/2000/svg"
     xmlns:xlink="http://www.w3.org/1999/xlink"
     xmlns:gadfly="http://www.gadflyjl.org/ns"
     version="1.2"
     width="203.2mm" height="101.6mm" viewBox="0 0 203.2 101.6"
     stroke="none"
     fill="#000000"
     stroke-width="0.3"
     font-size="3.88"
>
<g class="plotroot xscalable yscalable" id="img-ba85f6c6-1">
  <g font-size="3.88" font-family="'PT Sans','Helvetica Neue','Helvetica',sans-serif" fill="#564A55" stroke="#000000" stroke-opacity="0.000" id="img-ba85f6c6-2">
    <g transform="translate(104.61,89.99)">
      <g class="primitive">
        <text text-anchor="middle" dy="0.6em">σ₁</text>
      </g>
    </g>
  </g>
  <g class="guide xlabels" font-size="2.82" font-family="'PT Sans Caption','Helvetica Neue','Helvetica',sans-serif" fill="#6C606B" id="img-ba85f6c6-3">
    <g transform="translate(13.02,83.31)">
      <g class="primitive">
        <text text-anchor="middle" dy="0.6em">0</text>
      </g>
    </g>
    <g transform="translate(49.66,83.31)">
      <g class="primitive">
        <text text-anchor="middle" dy="0.6em">1</text>
      </g>
    </g>
    <g transform="translate(86.29,83.31)">
      <g class="primitive">
        <text text-anchor="middle" dy="0.6em">2</text>
      </g>
    </g>
    <g transform="translate(122.93,83.31)">
      <g class="primitive">
        <text text-anchor="middle" dy="0.6em">3</text>
      </g>
    </g>
    <g transform="translate(159.56,83.31)">
      <g class="primitive">
        <text text-anchor="middle" dy="0.6em">4</text>
      </g>
    </g>
    <g transform="translate(196.2,83.31)">
      <g class="primitive">
        <text text-anchor="middle" dy="0.6em">5</text>
      </g>
    </g>
  </g>
  <g clip-path="url(#img-ba85f6c6-4)">
    <g id="img-ba85f6c6-5">
      <g pointer-events="visible" opacity="1" fill="#000000" fill-opacity="0.000" stroke="#000000" stroke-opacity="0.000" class="guide background" id="img-ba85f6c6-6">
        <g transform="translate(104.61,43.66)">
          <path d="M-93.59,-38.66 L 93.59 -38.66 93.59 38.66 -93.59 38.66 z" class="primitive"/>
        </g>
      </g>
      <g class="guide ygridlines xfixed" stroke-dasharray="0.5,0.5" stroke-width="0.2" stroke="#D0D0E0" id="img-ba85f6c6-7">
        <g transform="translate(104.61,80.31)">
          <path fill="none" d="M-93.59,0 L 93.59 0" class="primitive"/>
        </g>
        <g transform="translate(104.61,43.66)">
          <path fill="none" d="M-93.59,0 L 93.59 0" class="primitive"/>
        </g>
        <g transform="translate(104.61,7)">
          <path fill="none" d="M-93.59,0 L 93.59 0" class="primitive"/>
        </g>
      </g>
      <g class="guide xgridlines yfixed" stroke-dasharray="0.5,0.5" stroke-width="0.2" stroke="#D0D0E0" id="img-ba85f6c6-8">
        <g transform="translate(13.02,43.66)">
          <path fill="none" d="M0,-38.66 L 0 38.66" class="primitive"/>
        </g>
        <g transform="translate(49.66,43.66)">
          <path fill="none" d="M0,-38.66 L 0 38.66" class="primitive"/>
        </g>
        <g transform="translate(86.29,43.66)">
          <path fill="none" d="M0,-38.66 L 0 38.66" class="primitive"/>
        </g>
        <g transform="translate(122.93,43.66)">
          <path fill="none" d="M0,-38.66 L 0 38.66" class="primitive"/>
        </g>
        <g transform="translate(159.56,43.66)">
          <path fill="none" d="M0,-38.66 L 0 38.66" class="primitive"/>
        </g>
        <g transform="translate(196.2,43.66)">
          <path fill="none" d="M0,-38.66 L 0 38.66" class="primitive"/>
        </g>
      </g>
      <g class="plotpanel" id="img-ba85f6c6-9">
        <metadata>
          <boundingbox value="11.02000000000001mm 5.0mm 187.18mm 77.31499999999998mm"/>
          <unitbox value="-0.054591112566874114 1.027279547159517 5.109182225133749 -1.0545590943190344"/>
        </metadata>
        <g stroke-width="0.3" fill="#000000" fill-opacity="0.000" class="geometry" id="img-ba85f6c6-10">
          <g stroke-dasharray="none" stroke="#00BFFF" id="img-ba85f6c6-11">
            <g transform="translate(123.97,59.12)">
              <path fill="none" d="M-63.11,21.2 L -62.61 21.2 -62.12 21.2 -61.62 21.2 -61.13 21.2 -60.63 21.2 -60.14 21.2 -59.64 21.2 -59.15 21.19 -58.65 21.19 -58.16 21.19 -57.66 21.18 -57.17 21.18 -56.67 21.17 -56.18 21.16 -55.68 21.16 -55.19 21.15 -54.69 21.15 -54.2 21.15 -53.7 21.15 -53.21 21.15 -52.71 21.16 -52.22 21.16 -51.72 21.16 -51.23 21.16 -50.73 21.15 -50.24 21.14 -49.74 21.12 -49.25 21.08 -48.75 21.05 -48.26 21 -47.76 20.95 -47.27 20.89 -46.77 20.83 -46.28 20.77 -45.78 20.7 -45.29 20.64 -44.79 20.56 -44.3 20.48 -43.8 20.38 -43.31 20.28 -42.81 20.17 -42.32 20.06 -41.82 19.94 -41.33 19.82 -40.83 19.69 -40.34 19.56 -39.84 19.41 -39.35 19.25 -38.85 19.06 -38.36 18.85 -37.86 18.6 -37.37 18.33 -36.87 18.02 -36.38 17.67 -35.88 17.28 -35.39 16.86 -34.89 16.4 -34.4 15.9 -33.9 15.37 -33.41 14.81 -32.91 14.22 -32.42 13.6 -31.92 12.96 -31.43 12.3 -30.93 11.64 -30.44 10.99 -29.94 10.33 -29.45 9.68 -28.95 9.03 -28.46 8.37 -27.96 7.68 -27.47 6.94 -26.97 6.14 -26.48 5.27 -25.98 4.32 -25.49 3.29 -24.99 2.2 -24.5 1.04 -24.01 -0.16 -23.51 -1.38 -23.02 -2.63 -22.52 -3.9 -22.03 -5.18 -21.53 -6.47 -21.04 -7.78 -20.54 -9.13 -20.05 -10.5 -19.55 -11.91 -19.06 -13.35 -18.56 -14.8 -18.07 -16.26 -17.57 -17.72 -17.08 -19.16 -16.58 -20.57 -16.09 -21.97 -15.59 -23.35 -15.1 -24.71 -14.6 -26.08 -14.11 -27.45 -13.61 -28.84 -13.12 -30.23 -12.62 -31.63 -12.13 -33.03 -11.63 -34.4 -11.14 -35.74 -10.64 -37.03 -10.15 -38.26 -9.65 -39.42 -9.16 -40.52 -8.66 -41.56 -8.17 -42.55 -7.67 -43.5 -7.18 -44.42 -6.68 -45.3 -6.19 -46.15 -5.69 -46.93 -5.2 -47.62 -4.7 -48.19 -4.21 -48.62 -3.71 -48.88 -3.22 -48.98 -2.72 -48.93 -2.23 -48.77 -1.73 -48.53 -1.24 -48.23 -0.74 -47.9 -0.25 -47.54 0.25 -47.16 0.74 -46.76 1.24 -46.33 1.73 -45.87 2.23 -45.38 2.72 -44.85 3.22 -44.3 3.71 -43.7 4.21 -43.06 4.7 -42.38 5.2 -41.67 5.69 -40.93 6.19 -40.19 6.68 -39.45 7.18 -38.72 7.67 -37.99 8.17 -37.26 8.66 -36.52 9.16 -35.72 9.65 -34.85 10.15 -33.87 10.64 -32.77 11.14 -31.54 11.63 -30.18 12.13 -28.71 12.62 -27.17 13.12 -25.57 13.61 -23.97 14.11 -22.39 14.6 -20.86 15.1 -19.39 15.59 -17.99 16.09 -16.64 16.58 -15.34 17.08 -14.07 17.57 -12.81 18.07 -11.54 18.56 -10.27 19.06 -8.99 19.55 -7.71 20.05 -6.43 20.54 -5.18 21.04 -3.96 21.53 -2.8 22.03 -1.71 22.52 -0.68 23.02 0.27 23.51 1.17 24.01 2.03 24.5 2.87 24.99 3.7 25.49 4.55 25.98 5.41 26.48 6.28 26.97 7.14 27.47 7.97 27.96 8.76 28.46 9.49 28.95 10.15 29.45 10.73 29.94 11.23 30.44 11.68 30.93 12.07 31.43 12.44 31.92 12.79 32.42 13.15 32.91 13.52 33.41 13.91 33.9 14.32 34.4 14.75 34.89 15.18 35.39 15.61 35.88 16.03 36.38 16.42 36.87 16.79 37.37 17.13 37.86 17.44 38.36 17.73 38.85 18 39.35 18.25 39.84 18.48 40.34 18.7 40.83 18.9 41.33 19.08 41.82 19.23 42.32 19.37 42.81 19.49 43.31 19.6 43.8 19.7 44.3 19.8 44.79 19.9 45.29 19.99 45.78 20.09 46.28 20.18 46.77 20.27 47.27 20.36 47.76 20.44 48.26 20.52 48.75 20.59 49.25 20.65 49.74 20.7 50.24 20.75 50.73 20.8 51.23 20.84 51.72 20.88 52.22 20.92 52.71 20.96 53.21 20.99 53.7 21.03 54.2 21.06 54.69 21.08 55.19 21.11 55.68 21.13 56.18 21.14 56.67 21.16 57.17 21.17 57.66 21.18 58.16 21.18 58.65 21.19 59.15 21.19 59.64 21.2 60.14 21.2 60.63 21.2 61.13 21.2 61.62 21.2 62.12 21.2 62.61 21.2 63.11 21.2" class="primitive"/>
            </g>
          </g>
        </g>
      </g>
    </g>
  </g>
  <g class="guide ylabels" font-size="2.82" font-family="'PT Sans Caption','Helvetica Neue','Helvetica',sans-serif" fill="#6C606B" id="img-ba85f6c6-12">
    <g transform="translate(10.02,80.31)">
      <g class="primitive">
        <text text-anchor="end" dy="0.35em">0.0</text>
      </g>
    </g>
    <g transform="translate(10.02,43.66)">
      <g class="primitive">
        <text text-anchor="end" dy="0.35em">0.5</text>
      </g>
    </g>
    <g transform="translate(10.02,7)">
      <g class="primitive">
        <text text-anchor="end" dy="0.35em">1.0</text>
      </g>
    </g>
  </g>
</g>
<defs>
  <clipPath id="img-ba85f6c6-4">
    <path d="M11.02,5 L 198.2 5 198.2 82.31 11.02 82.31" />
  </clipPath>
</defs>
</svg>
