<?xml version="1.0" encoding="UTF-8"?>
<svg xmlns="http://www.w3.org/2000/svg"
     xmlns:xlink="http://www.w3.org/1999/xlink"
     xmlns:gadfly="http://www.gadflyjl.org/ns"
     version="1.2"
     width="203.2mm" height="101.6mm" viewBox="0 0 203.2 101.6"
     stroke="none"
     fill="#000000"
     stroke-width="0.3"
     font-size="3.88"
>
<g class="plotroot xscalable yscalable" id="img-fe97490b-1">
  <g font-size="3.88" font-family="'PT Sans','Helvetica Neue','Helvetica',sans-serif" fill="#564A55" stroke="#000000" stroke-opacity="0.000" id="img-fe97490b-2">
    <g transform="translate(107.48,89.99)">
      <g class="primitive">
        <text text-anchor="middle" dy="0.6em">ρ₁₂</text>
      </g>
    </g>
  </g>
  <g class="guide xlabels" font-size="2.82" font-family="'PT Sans Caption','Helvetica Neue','Helvetica',sans-serif" fill="#6C606B" id="img-fe97490b-3">
    <g transform="translate(18.77,83.32)">
      <g class="primitive">
        <text text-anchor="middle" dy="0.6em">-1.0</text>
      </g>
    </g>
    <g transform="translate(54.25,83.32)">
      <g class="primitive">
        <text text-anchor="middle" dy="0.6em">-0.5</text>
      </g>
    </g>
    <g transform="translate(89.74,83.32)">
      <g class="primitive">
        <text text-anchor="middle" dy="0.6em">0.0</text>
      </g>
    </g>
    <g transform="translate(125.23,83.32)">
      <g class="primitive">
        <text text-anchor="middle" dy="0.6em">0.5</text>
      </g>
    </g>
    <g transform="translate(160.71,83.32)">
      <g class="primitive">
        <text text-anchor="middle" dy="0.6em">1.0</text>
      </g>
    </g>
    <g transform="translate(196.2,83.32)">
      <g class="primitive">
        <text text-anchor="middle" dy="0.6em">1.5</text>
      </g>
    </g>
  </g>
  <g clip-path="url(#img-fe97490b-4)">
    <g id="img-fe97490b-5">
      <g pointer-events="visible" opacity="1" fill="#000000" fill-opacity="0.000" stroke="#000000" stroke-opacity="0.000" class="guide background" id="img-fe97490b-6">
        <g transform="translate(107.48,43.66)">
          <path d="M-90.72,-38.66 L 90.72 -38.66 90.72 38.66 -90.72 38.66 z" class="primitive"/>
        </g>
      </g>
      <g class="guide ygridlines xfixed" stroke-dasharray="0.5,0.5" stroke-width="0.2" stroke="#D0D0E0" id="img-fe97490b-7">
        <g transform="translate(107.48,80.31)">
          <path fill="none" d="M-90.72,0 L 90.72 0" class="primitive"/>
        </g>
        <g transform="translate(107.48,55.88)">
          <path fill="none" d="M-90.72,0 L 90.72 0" class="primitive"/>
        </g>
        <g transform="translate(107.48,31.44)">
          <path fill="none" d="M-90.72,0 L 90.72 0" class="primitive"/>
        </g>
        <g transform="translate(107.48,7)">
          <path fill="none" d="M-90.72,0 L 90.72 0" class="primitive"/>
        </g>
      </g>
      <g class="guide xgridlines yfixed" stroke-dasharray="0.5,0.5" stroke-width="0.2" stroke="#D0D0E0" id="img-fe97490b-8">
        <g transform="translate(18.77,43.66)">
          <path fill="none" d="M0,-38.66 L 0 38.66" class="primitive"/>
        </g>
        <g transform="translate(54.25,43.66)">
          <path fill="none" d="M0,-38.66 L 0 38.66" class="primitive"/>
        </g>
        <g transform="translate(89.74,43.66)">
          <path fill="none" d="M0,-38.66 L 0 38.66" class="primitive"/>
        </g>
        <g transform="translate(125.23,43.66)">
          <path fill="none" d="M0,-38.66 L 0 38.66" class="primitive"/>
        </g>
        <g transform="translate(160.71,43.66)">
          <path fill="none" d="M0,-38.66 L 0 38.66" class="primitive"/>
        </g>
        <g transform="translate(196.2,43.66)">
          <path fill="none" d="M0,-38.66 L 0 38.66" class="primitive"/>
        </g>
      </g>
      <g class="plotpanel" id="img-fe97490b-9">
        <metadata>
          <boundingbox value="16.76666666666668mm 5.0mm 181.4333333333333mm 77.315mm"/>
          <unitbox value="-1.0281795979710688 3081.8386414785514 2.5563591959421377 -3163.677282957103"/>
        </metadata>
        <g shape-rendering="crispEdges" stroke-width="0.3" id="img-fe97490b-10">
          <g stroke="#000000" stroke-opacity="0.000" class="geometry" fill="#00BFFF" id="img-fe97490b-11">
            <g transform="translate(19.24,73.22)">
              <path d="M-0.5,-7.1 L 0.5 -7.1 0.5 7.1 -0.5 7.1 z" class="primitive"/>
            </g>
            <g transform="translate(20.19,80.18)">
              <path d="M-0.5,-0.13 L 0.5 -0.13 0.5 0.13 -0.5 0.13 z" class="primitive"/>
            </g>
            <g transform="translate(21.13,80.28)">
              <path d="M-0.5,-0.04 L 0.5 -0.04 0.5 0.04 -0.5 0.04 z" class="primitive"/>
            </g>
            <g transform="translate(22.08,80.14)">
              <path d="M-0.5,-0.17 L 0.5 -0.17 0.5 0.17 -0.5 0.17 z" class="primitive"/>
            </g>
            <g transform="translate(23.03,80.19)">
              <path d="M-0.5,-0.12 L 0.5 -0.12 0.5 0.12 -0.5 0.12 z" class="primitive"/>
            </g>
            <g transform="translate(23.97,79.89)">
              <path d="M-0.5,-0.43 L 0.5 -0.43 0.5 0.43 -0.5 0.43 z" class="primitive"/>
            </g>
            <g transform="translate(24.92,79.9)">
              <path d="M-0.5,-0.42 L 0.5 -0.42 0.5 0.42 -0.5 0.42 z" class="primitive"/>
            </g>
            <g transform="translate(25.86,79.74)">
              <path d="M-0.5,-0.57 L 0.5 -0.57 0.5 0.57 -0.5 0.57 z" class="primitive"/>
            </g>
            <g transform="translate(26.81,79.78)">
              <path d="M-0.5,-0.54 L 0.5 -0.54 0.5 0.54 -0.5 0.54 z" class="primitive"/>
            </g>
            <g transform="translate(27.76,79.55)">
              <path d="M-0.5,-0.77 L 0.5 -0.77 0.5 0.77 -0.5 0.77 z" class="primitive"/>
            </g>
            <g transform="translate(28.7,79.53)">
              <path d="M-0.5,-0.78 L 0.5 -0.78 0.5 0.78 -0.5 0.78 z" class="primitive"/>
            </g>
            <g transform="translate(29.65,79.44)">
              <path d="M-0.5,-0.88 L 0.5 -0.88 0.5 0.88 -0.5 0.88 z" class="primitive"/>
            </g>
            <g transform="translate(30.6,79.29)">
              <path d="M-0.5,-1.03 L 0.5 -1.03 0.5 1.03 -0.5 1.03 z" class="primitive"/>
            </g>
            <g transform="translate(31.54,79.29)">
              <path d="M-0.5,-1.03 L 0.5 -1.03 0.5 1.03 -0.5 1.03 z" class="primitive"/>
            </g>
            <g transform="translate(32.49,79.25)">
              <path d="M-0.5,-1.06 L 0.5 -1.06 0.5 1.06 -0.5 1.06 z" class="primitive"/>
            </g>
            <g transform="translate(33.43,79.33)">
              <path d="M-0.5,-0.99 L 0.5 -0.99 0.5 0.99 -0.5 0.99 z" class="primitive"/>
            </g>
            <g transform="translate(34.38,79.04)">
              <path d="M-0.5,-1.27 L 0.5 -1.27 0.5 1.27 -0.5 1.27 z" class="primitive"/>
            </g>
            <g transform="translate(35.33,79)">
              <path d="M-0.5,-1.32 L 0.5 -1.32 0.5 1.32 -0.5 1.32 z" class="primitive"/>
            </g>
            <g transform="translate(36.27,78.95)">
              <path d="M-0.5,-1.37 L 0.5 -1.37 0.5 1.37 -0.5 1.37 z" class="primitive"/>
            </g>
            <g transform="translate(37.22,78.74)">
              <path d="M-0.5,-1.58 L 0.5 -1.58 0.5 1.58 -0.5 1.58 z" class="primitive"/>
            </g>
            <g transform="translate(38.17,79.03)">
              <path d="M-0.5,-1.28 L 0.5 -1.28 0.5 1.28 -0.5 1.28 z" class="primitive"/>
            </g>
            <g transform="translate(39.11,79.01)">
              <path d="M-0.5,-1.31 L 0.5 -1.31 0.5 1.31 -0.5 1.31 z" class="primitive"/>
            </g>
            <g transform="translate(40.06,78.95)">
              <path d="M-0.5,-1.37 L 0.5 -1.37 0.5 1.37 -0.5 1.37 z" class="primitive"/>
            </g>
            <g transform="translate(41,78.81)">
              <path d="M-0.5,-1.5 L 0.5 -1.5 0.5 1.5 -0.5 1.5 z" class="primitive"/>
            </g>
            <g transform="translate(41.95,79)">
              <path d="M-0.5,-1.32 L 0.5 -1.32 0.5 1.32 -0.5 1.32 z" class="primitive"/>
            </g>
            <g transform="translate(42.9,79.01)">
              <path d="M-0.5,-1.31 L 0.5 -1.31 0.5 1.31 -0.5 1.31 z" class="primitive"/>
            </g>
            <g transform="translate(43.84,79.06)">
              <path d="M-0.5,-1.26 L 0.5 -1.26 0.5 1.26 -0.5 1.26 z" class="primitive"/>
            </g>
            <g transform="translate(44.79,79.03)">
              <path d="M-0.5,-1.28 L 0.5 -1.28 0.5 1.28 -0.5 1.28 z" class="primitive"/>
            </g>
            <g transform="translate(45.74,79.11)">
              <path d="M-0.5,-1.21 L 0.5 -1.21 0.5 1.21 -0.5 1.21 z" class="primitive"/>
            </g>
            <g transform="translate(46.68,79.08)">
              <path d="M-0.5,-1.23 L 0.5 -1.23 0.5 1.23 -0.5 1.23 z" class="primitive"/>
            </g>
            <g transform="translate(47.63,79.13)">
              <path d="M-0.5,-1.19 L 0.5 -1.19 0.5 1.19 -0.5 1.19 z" class="primitive"/>
            </g>
            <g transform="translate(48.58,79.01)">
              <path d="M-0.5,-1.31 L 0.5 -1.31 0.5 1.31 -0.5 1.31 z" class="primitive"/>
            </g>
            <g transform="translate(49.52,79.02)">
              <path d="M-0.5,-1.3 L 0.5 -1.3 0.5 1.3 -0.5 1.3 z" class="primitive"/>
            </g>
            <g transform="translate(50.47,79.11)">
              <path d="M-0.5,-1.21 L 0.5 -1.21 0.5 1.21 -0.5 1.21 z" class="primitive"/>
            </g>
            <g transform="translate(51.41,78.92)">
              <path d="M-0.5,-1.39 L 0.5 -1.39 0.5 1.39 -0.5 1.39 z" class="primitive"/>
            </g>
            <g transform="translate(52.36,79.19)">
              <path d="M-0.5,-1.12 L 0.5 -1.12 0.5 1.12 -0.5 1.12 z" class="primitive"/>
            </g>
            <g transform="translate(53.31,79.08)">
              <path d="M-0.5,-1.23 L 0.5 -1.23 0.5 1.23 -0.5 1.23 z" class="primitive"/>
            </g>
            <g transform="translate(54.25,79.18)">
              <path d="M-0.5,-1.14 L 0.5 -1.14 0.5 1.14 -0.5 1.14 z" class="primitive"/>
            </g>
            <g transform="translate(55.2,79.03)">
              <path d="M-0.5,-1.28 L 0.5 -1.28 0.5 1.28 -0.5 1.28 z" class="primitive"/>
            </g>
            <g transform="translate(56.15,79.19)">
              <path d="M-0.5,-1.12 L 0.5 -1.12 0.5 1.12 -0.5 1.12 z" class="primitive"/>
            </g>
            <g transform="translate(57.09,79.22)">
              <path d="M-0.5,-1.1 L 0.5 -1.1 0.5 1.1 -0.5 1.1 z" class="primitive"/>
            </g>
            <g transform="translate(58.04,79.29)">
              <path d="M-0.5,-1.03 L 0.5 -1.03 0.5 1.03 -0.5 1.03 z" class="primitive"/>
            </g>
            <g transform="translate(58.98,79.22)">
              <path d="M-0.5,-1.1 L 0.5 -1.1 0.5 1.1 -0.5 1.1 z" class="primitive"/>
            </g>
            <g transform="translate(59.93,79.39)">
              <path d="M-0.5,-0.93 L 0.5 -0.93 0.5 0.93 -0.5 0.93 z" class="primitive"/>
            </g>
            <g transform="translate(60.88,79.36)">
              <path d="M-0.5,-0.95 L 0.5 -0.95 0.5 0.95 -0.5 0.95 z" class="primitive"/>
            </g>
            <g transform="translate(61.82,79.37)">
              <path d="M-0.5,-0.94 L 0.5 -0.94 0.5 0.94 -0.5 0.94 z" class="primitive"/>
            </g>
            <g transform="translate(62.77,79.24)">
              <path d="M-0.5,-1.08 L 0.5 -1.08 0.5 1.08 -0.5 1.08 z" class="primitive"/>
            </g>
            <g transform="translate(63.72,79.5)">
              <path d="M-0.5,-0.82 L 0.5 -0.82 0.5 0.82 -0.5 0.82 z" class="primitive"/>
            </g>
            <g transform="translate(64.66,79.41)">
              <path d="M-0.5,-0.9 L 0.5 -0.9 0.5 0.9 -0.5 0.9 z" class="primitive"/>
            </g>
            <g transform="translate(65.61,79.41)">
              <path d="M-0.5,-0.9 L 0.5 -0.9 0.5 0.9 -0.5 0.9 z" class="primitive"/>
            </g>
            <g transform="translate(66.56,79.51)">
              <path d="M-0.5,-0.81 L 0.5 -0.81 0.5 0.81 -0.5 0.81 z" class="primitive"/>
            </g>
            <g transform="translate(67.5,79.45)">
              <path d="M-0.5,-0.87 L 0.5 -0.87 0.5 0.87 -0.5 0.87 z" class="primitive"/>
            </g>
            <g transform="translate(68.45,79.36)">
              <path d="M-0.5,-0.95 L 0.5 -0.95 0.5 0.95 -0.5 0.95 z" class="primitive"/>
            </g>
            <g transform="translate(69.39,79.64)">
              <path d="M-0.5,-0.67 L 0.5 -0.67 0.5 0.67 -0.5 0.67 z" class="primitive"/>
            </g>
            <g transform="translate(70.34,79.56)">
              <path d="M-0.5,-0.76 L 0.5 -0.76 0.5 0.76 -0.5 0.76 z" class="primitive"/>
            </g>
            <g transform="translate(71.29,79.47)">
              <path d="M-0.5,-0.84 L 0.5 -0.84 0.5 0.84 -0.5 0.84 z" class="primitive"/>
            </g>
            <g transform="translate(72.23,79.58)">
              <path d="M-0.5,-0.73 L 0.5 -0.73 0.5 0.73 -0.5 0.73 z" class="primitive"/>
            </g>
            <g transform="translate(73.18,79.39)">
              <path d="M-0.5,-0.93 L 0.5 -0.93 0.5 0.93 -0.5 0.93 z" class="primitive"/>
            </g>
            <g transform="translate(74.13,79.8)">
              <path d="M-0.5,-0.51 L 0.5 -0.51 0.5 0.51 -0.5 0.51 z" class="primitive"/>
            </g>
            <g transform="translate(75.07,79.73)">
              <path d="M-0.5,-0.59 L 0.5 -0.59 0.5 0.59 -0.5 0.59 z" class="primitive"/>
            </g>
            <g transform="translate(76.02,79.44)">
              <path d="M-0.5,-0.88 L 0.5 -0.88 0.5 0.88 -0.5 0.88 z" class="primitive"/>
            </g>
            <g transform="translate(76.96,79.67)">
              <path d="M-0.5,-0.65 L 0.5 -0.65 0.5 0.65 -0.5 0.65 z" class="primitive"/>
            </g>
            <g transform="translate(77.91,79.77)">
              <path d="M-0.5,-0.55 L 0.5 -0.55 0.5 0.55 -0.5 0.55 z" class="primitive"/>
            </g>
            <g transform="translate(78.86,79.61)">
              <path d="M-0.5,-0.71 L 0.5 -0.71 0.5 0.71 -0.5 0.71 z" class="primitive"/>
            </g>
            <g transform="translate(79.8,79.62)">
              <path d="M-0.5,-0.7 L 0.5 -0.7 0.5 0.7 -0.5 0.7 z" class="primitive"/>
            </g>
            <g transform="translate(80.75,79.58)">
              <path d="M-0.5,-0.73 L 0.5 -0.73 0.5 0.73 -0.5 0.73 z" class="primitive"/>
            </g>
            <g transform="translate(81.7,79.74)">
              <path d="M-0.5,-0.57 L 0.5 -0.57 0.5 0.57 -0.5 0.57 z" class="primitive"/>
            </g>
            <g transform="translate(82.64,79.73)">
              <path d="M-0.5,-0.59 L 0.5 -0.59 0.5 0.59 -0.5 0.59 z" class="primitive"/>
            </g>
            <g transform="translate(83.59,79.83)">
              <path d="M-0.5,-0.49 L 0.5 -0.49 0.5 0.49 -0.5 0.49 z" class="primitive"/>
            </g>
            <g transform="translate(84.54,79.81)">
              <path d="M-0.5,-0.5 L 0.5 -0.5 0.5 0.5 -0.5 0.5 z" class="primitive"/>
            </g>
            <g transform="translate(85.48,79.75)">
              <path d="M-0.5,-0.56 L 0.5 -0.56 0.5 0.56 -0.5 0.56 z" class="primitive"/>
            </g>
            <g transform="translate(86.43,79.85)">
              <path d="M-0.5,-0.46 L 0.5 -0.46 0.5 0.46 -0.5 0.46 z" class="primitive"/>
            </g>
            <g transform="translate(87.37,79.84)">
              <path d="M-0.5,-0.48 L 0.5 -0.48 0.5 0.48 -0.5 0.48 z" class="primitive"/>
            </g>
            <g transform="translate(88.32,79.9)">
              <path d="M-0.5,-0.42 L 0.5 -0.42 0.5 0.42 -0.5 0.42 z" class="primitive"/>
            </g>
            <g transform="translate(89.27,79.88)">
              <path d="M-0.5,-0.44 L 0.5 -0.44 0.5 0.44 -0.5 0.44 z" class="primitive"/>
            </g>
            <g transform="translate(90.21,79.97)">
              <path d="M-0.5,-0.34 L 0.5 -0.34 0.5 0.34 -0.5 0.34 z" class="primitive"/>
            </g>
            <g transform="translate(91.16,80.02)">
              <path d="M-0.5,-0.29 L 0.5 -0.29 0.5 0.29 -0.5 0.29 z" class="primitive"/>
            </g>
            <g transform="translate(92.11,79.97)">
              <path d="M-0.5,-0.34 L 0.5 -0.34 0.5 0.34 -0.5 0.34 z" class="primitive"/>
            </g>
            <g transform="translate(93.05,79.84)">
              <path d="M-0.5,-0.48 L 0.5 -0.48 0.5 0.48 -0.5 0.48 z" class="primitive"/>
            </g>
            <g transform="translate(94,79.95)">
              <path d="M-0.5,-0.37 L 0.5 -0.37 0.5 0.37 -0.5 0.37 z" class="primitive"/>
            </g>
            <g transform="translate(94.94,79.99)">
              <path d="M-0.5,-0.33 L 0.5 -0.33 0.5 0.33 -0.5 0.33 z" class="primitive"/>
            </g>
            <g transform="translate(95.89,79.94)">
              <path d="M-0.5,-0.38 L 0.5 -0.38 0.5 0.38 -0.5 0.38 z" class="primitive"/>
            </g>
            <g transform="translate(96.84,79.97)">
              <path d="M-0.5,-0.34 L 0.5 -0.34 0.5 0.34 -0.5 0.34 z" class="primitive"/>
            </g>
            <g transform="translate(97.78,79.99)">
              <path d="M-0.5,-0.33 L 0.5 -0.33 0.5 0.33 -0.5 0.33 z" class="primitive"/>
            </g>
            <g transform="translate(98.73,79.94)">
              <path d="M-0.5,-0.38 L 0.5 -0.38 0.5 0.38 -0.5 0.38 z" class="primitive"/>
            </g>
            <g transform="translate(99.68,80.01)">
              <path d="M-0.5,-0.31 L 0.5 -0.31 0.5 0.31 -0.5 0.31 z" class="primitive"/>
            </g>
            <g transform="translate(100.62,80.01)">
              <path d="M-0.5,-0.31 L 0.5 -0.31 0.5 0.31 -0.5 0.31 z" class="primitive"/>
            </g>
            <g transform="translate(101.57,80.11)">
              <path d="M-0.5,-0.21 L 0.5 -0.21 0.5 0.21 -0.5 0.21 z" class="primitive"/>
            </g>
            <g transform="translate(102.52,79.91)">
              <path d="M-0.5,-0.4 L 0.5 -0.4 0.5 0.4 -0.5 0.4 z" class="primitive"/>
            </g>
            <g transform="translate(103.46,80.02)">
              <path d="M-0.5,-0.29 L 0.5 -0.29 0.5 0.29 -0.5 0.29 z" class="primitive"/>
            </g>
            <g transform="translate(104.41,79.96)">
              <path d="M-0.5,-0.35 L 0.5 -0.35 0.5 0.35 -0.5 0.35 z" class="primitive"/>
            </g>
            <g transform="translate(105.35,80.06)">
              <path d="M-0.5,-0.26 L 0.5 -0.26 0.5 0.26 -0.5 0.26 z" class="primitive"/>
            </g>
            <g transform="translate(106.3,80.02)">
              <path d="M-0.5,-0.29 L 0.5 -0.29 0.5 0.29 -0.5 0.29 z" class="primitive"/>
            </g>
            <g transform="translate(107.25,80.1)">
              <path d="M-0.5,-0.22 L 0.5 -0.22 0.5 0.22 -0.5 0.22 z" class="primitive"/>
            </g>
            <g transform="translate(108.19,80.06)">
              <path d="M-0.5,-0.26 L 0.5 -0.26 0.5 0.26 -0.5 0.26 z" class="primitive"/>
            </g>
            <g transform="translate(109.14,80.05)">
              <path d="M-0.5,-0.27 L 0.5 -0.27 0.5 0.27 -0.5 0.27 z" class="primitive"/>
            </g>
            <g transform="translate(110.09,80.01)">
              <path d="M-0.5,-0.31 L 0.5 -0.31 0.5 0.31 -0.5 0.31 z" class="primitive"/>
            </g>
            <g transform="translate(111.03,80.06)">
              <path d="M-0.5,-0.26 L 0.5 -0.26 0.5 0.26 -0.5 0.26 z" class="primitive"/>
            </g>
            <g transform="translate(111.98,80.05)">
              <path d="M-0.5,-0.27 L 0.5 -0.27 0.5 0.27 -0.5 0.27 z" class="primitive"/>
            </g>
            <g transform="translate(112.92,80.12)">
              <path d="M-0.5,-0.2 L 0.5 -0.2 0.5 0.2 -0.5 0.2 z" class="primitive"/>
            </g>
            <g transform="translate(113.87,80.08)">
              <path d="M-0.5,-0.23 L 0.5 -0.23 0.5 0.23 -0.5 0.23 z" class="primitive"/>
            </g>
            <g transform="translate(114.82,80.02)">
              <path d="M-0.5,-0.29 L 0.5 -0.29 0.5 0.29 -0.5 0.29 z" class="primitive"/>
            </g>
            <g transform="translate(115.76,80.06)">
              <path d="M-0.5,-0.26 L 0.5 -0.26 0.5 0.26 -0.5 0.26 z" class="primitive"/>
            </g>
            <g transform="translate(116.71,80.11)">
              <path d="M-0.5,-0.21 L 0.5 -0.21 0.5 0.21 -0.5 0.21 z" class="primitive"/>
            </g>
            <g transform="translate(117.66,80.11)">
              <path d="M-0.5,-0.21 L 0.5 -0.21 0.5 0.21 -0.5 0.21 z" class="primitive"/>
            </g>
            <g transform="translate(118.6,80.17)">
              <path d="M-0.5,-0.15 L 0.5 -0.15 0.5 0.15 -0.5 0.15 z" class="primitive"/>
            </g>
            <g transform="translate(119.55,80.07)">
              <path d="M-0.5,-0.24 L 0.5 -0.24 0.5 0.24 -0.5 0.24 z" class="primitive"/>
            </g>
            <g transform="translate(120.5,80.06)">
              <path d="M-0.5,-0.26 L 0.5 -0.26 0.5 0.26 -0.5 0.26 z" class="primitive"/>
            </g>
            <g transform="translate(121.44,80.14)">
              <path d="M-0.5,-0.17 L 0.5 -0.17 0.5 0.17 -0.5 0.17 z" class="primitive"/>
            </g>
            <g transform="translate(122.39,80.16)">
              <path d="M-0.5,-0.16 L 0.5 -0.16 0.5 0.16 -0.5 0.16 z" class="primitive"/>
            </g>
            <g transform="translate(123.33,80.14)">
              <path d="M-0.5,-0.17 L 0.5 -0.17 0.5 0.17 -0.5 0.17 z" class="primitive"/>
            </g>
            <g transform="translate(124.28,80.14)">
              <path d="M-0.5,-0.17 L 0.5 -0.17 0.5 0.17 -0.5 0.17 z" class="primitive"/>
            </g>
            <g transform="translate(125.23,80.19)">
              <path d="M-0.5,-0.12 L 0.5 -0.12 0.5 0.12 -0.5 0.12 z" class="primitive"/>
            </g>
            <g transform="translate(126.17,80.12)">
              <path d="M-0.5,-0.2 L 0.5 -0.2 0.5 0.2 -0.5 0.2 z" class="primitive"/>
            </g>
            <g transform="translate(127.12,80.19)">
              <path d="M-0.5,-0.12 L 0.5 -0.12 0.5 0.12 -0.5 0.12 z" class="primitive"/>
            </g>
            <g transform="translate(128.07,80.16)">
              <path d="M-0.5,-0.16 L 0.5 -0.16 0.5 0.16 -0.5 0.16 z" class="primitive"/>
            </g>
            <g transform="translate(129.01,80.06)">
              <path d="M-0.5,-0.26 L 0.5 -0.26 0.5 0.26 -0.5 0.26 z" class="primitive"/>
            </g>
            <g transform="translate(129.96,80.22)">
              <path d="M-0.5,-0.1 L 0.5 -0.1 0.5 0.1 -0.5 0.1 z" class="primitive"/>
            </g>
            <g transform="translate(130.9,80.11)">
              <path d="M-0.5,-0.21 L 0.5 -0.21 0.5 0.21 -0.5 0.21 z" class="primitive"/>
            </g>
            <g transform="translate(131.85,80.23)">
              <path d="M-0.5,-0.09 L 0.5 -0.09 0.5 0.09 -0.5 0.09 z" class="primitive"/>
            </g>
            <g transform="translate(132.8,80.14)">
              <path d="M-0.5,-0.17 L 0.5 -0.17 0.5 0.17 -0.5 0.17 z" class="primitive"/>
            </g>
            <g transform="translate(133.74,80.08)">
              <path d="M-0.5,-0.23 L 0.5 -0.23 0.5 0.23 -0.5 0.23 z" class="primitive"/>
            </g>
            <g transform="translate(134.69,80.13)">
              <path d="M-0.5,-0.18 L 0.5 -0.18 0.5 0.18 -0.5 0.18 z" class="primitive"/>
            </g>
            <g transform="translate(135.64,80.24)">
              <path d="M-0.5,-0.07 L 0.5 -0.07 0.5 0.07 -0.5 0.07 z" class="primitive"/>
            </g>
            <g transform="translate(136.58,80.18)">
              <path d="M-0.5,-0.13 L 0.5 -0.13 0.5 0.13 -0.5 0.13 z" class="primitive"/>
            </g>
            <g transform="translate(137.53,80.21)">
              <path d="M-0.5,-0.11 L 0.5 -0.11 0.5 0.11 -0.5 0.11 z" class="primitive"/>
            </g>
            <g transform="translate(138.48,80.22)">
              <path d="M-0.5,-0.1 L 0.5 -0.1 0.5 0.1 -0.5 0.1 z" class="primitive"/>
            </g>
            <g transform="translate(139.42,80.22)">
              <path d="M-0.5,-0.1 L 0.5 -0.1 0.5 0.1 -0.5 0.1 z" class="primitive"/>
            </g>
            <g transform="translate(140.37,80.14)">
              <path d="M-0.5,-0.17 L 0.5 -0.17 0.5 0.17 -0.5 0.17 z" class="primitive"/>
            </g>
            <g transform="translate(141.31,80.17)">
              <path d="M-0.5,-0.15 L 0.5 -0.15 0.5 0.15 -0.5 0.15 z" class="primitive"/>
            </g>
            <g transform="translate(142.26,80.18)">
              <path d="M-0.5,-0.13 L 0.5 -0.13 0.5 0.13 -0.5 0.13 z" class="primitive"/>
            </g>
            <g transform="translate(143.21,80.18)">
              <path d="M-0.5,-0.13 L 0.5 -0.13 0.5 0.13 -0.5 0.13 z" class="primitive"/>
            </g>
            <g transform="translate(144.15,80.21)">
              <path d="M-0.5,-0.11 L 0.5 -0.11 0.5 0.11 -0.5 0.11 z" class="primitive"/>
            </g>
            <g transform="translate(145.1,80.25)">
              <path d="M-0.5,-0.06 L 0.5 -0.06 0.5 0.06 -0.5 0.06 z" class="primitive"/>
            </g>
            <g transform="translate(146.05,80.27)">
              <path d="M-0.5,-0.05 L 0.5 -0.05 0.5 0.05 -0.5 0.05 z" class="primitive"/>
            </g>
            <g transform="translate(146.99,80.18)">
              <path d="M-0.5,-0.13 L 0.5 -0.13 0.5 0.13 -0.5 0.13 z" class="primitive"/>
            </g>
            <g transform="translate(147.94,80.23)">
              <path d="M-0.5,-0.09 L 0.5 -0.09 0.5 0.09 -0.5 0.09 z" class="primitive"/>
            </g>
            <g transform="translate(148.88,80.19)">
              <path d="M-0.5,-0.12 L 0.5 -0.12 0.5 0.12 -0.5 0.12 z" class="primitive"/>
            </g>
            <g transform="translate(149.83,80.23)">
              <path d="M-0.5,-0.09 L 0.5 -0.09 0.5 0.09 -0.5 0.09 z" class="primitive"/>
            </g>
            <g transform="translate(150.78,80.22)">
              <path d="M-0.5,-0.1 L 0.5 -0.1 0.5 0.1 -0.5 0.1 z" class="primitive"/>
            </g>
            <g transform="translate(151.72,80.12)">
              <path d="M-0.5,-0.2 L 0.5 -0.2 0.5 0.2 -0.5 0.2 z" class="primitive"/>
            </g>
            <g transform="translate(152.67,80.22)">
              <path d="M-0.5,-0.1 L 0.5 -0.1 0.5 0.1 -0.5 0.1 z" class="primitive"/>
            </g>
            <g transform="translate(153.62,80.18)">
              <path d="M-0.5,-0.13 L 0.5 -0.13 0.5 0.13 -0.5 0.13 z" class="primitive"/>
            </g>
            <g transform="translate(154.56,80.22)">
              <path d="M-0.5,-0.1 L 0.5 -0.1 0.5 0.1 -0.5 0.1 z" class="primitive"/>
            </g>
            <g transform="translate(155.51,80.19)">
              <path d="M-0.5,-0.12 L 0.5 -0.12 0.5 0.12 -0.5 0.12 z" class="primitive"/>
            </g>
            <g transform="translate(156.45,80.16)">
              <path d="M-0.5,-0.16 L 0.5 -0.16 0.5 0.16 -0.5 0.16 z" class="primitive"/>
            </g>
            <g transform="translate(157.4,80.21)">
              <path d="M-0.5,-0.11 L 0.5 -0.11 0.5 0.11 -0.5 0.11 z" class="primitive"/>
            </g>
            <g transform="translate(158.35,80.13)">
              <path d="M-0.5,-0.18 L 0.5 -0.18 0.5 0.18 -0.5 0.18 z" class="primitive"/>
            </g>
            <g transform="translate(159.29,80.22)">
              <path d="M-0.5,-0.1 L 0.5 -0.1 0.5 0.1 -0.5 0.1 z" class="primitive"/>
            </g>
            <g transform="translate(160.24,46.77)">
              <path d="M-0.5,-33.54 L 0.5 -33.54 0.5 33.54 -0.5 33.54 z" class="primitive"/>
            </g>
          </g>
        </g>
      </g>
    </g>
  </g>
  <g class="guide ylabels" font-size="2.82" font-family="'PT Sans Caption','Helvetica Neue','Helvetica',sans-serif" fill="#6C606B" id="img-fe97490b-12">
    <g transform="translate(15.77,80.31)">
      <g class="primitive">
        <text text-anchor="end" dy="0.35em">0</text>
      </g>
    </g>
    <g transform="translate(15.77,55.88)">
      <g class="primitive">
        <text text-anchor="end" dy="0.35em">1×10³</text>
      </g>
    </g>
    <g transform="translate(15.77,31.44)">
      <g class="primitive">
        <text text-anchor="end" dy="0.35em">2×10³</text>
      </g>
    </g>
    <g transform="translate(15.77,7)">
      <g class="primitive">
        <text text-anchor="end" dy="0.35em">3×10³</text>
      </g>
    </g>
  </g>
</g>
<defs>
  <clipPath id="img-fe97490b-4">
    <path d="M16.77,5 L 198.2 5 198.2 82.32 16.77 82.32" />
  </clipPath>
</defs>
</svg>
