<?xml version="1.0" encoding="UTF-8"?>
<svg xmlns="http://www.w3.org/2000/svg"
     xmlns:xlink="http://www.w3.org/1999/xlink"
     xmlns:gadfly="http://www.gadflyjl.org/ns"
     version="1.2"
     width="203.2mm" height="101.6mm" viewBox="0 0 203.2 101.6"
     stroke="none"
     fill="#000000"
     stroke-width="0.3"
     font-size="3.88"
>
<g class="plotroot xscalable yscalable" id="img-f8defcc4-1">
  <g font-size="3.88" font-family="'PT Sans','Helvetica Neue','Helvetica',sans-serif" fill="#564A55" stroke="#000000" stroke-opacity="0.000" id="img-f8defcc4-2">
    <g transform="translate(103.44,89.99)">
      <g class="primitive">
        <text text-anchor="middle" dy="0.6em">θ₃</text>
      </g>
    </g>
  </g>
  <g class="guide xlabels" font-size="2.82" font-family="'PT Sans Caption','Helvetica Neue','Helvetica',sans-serif" fill="#6C606B" id="img-f8defcc4-3">
    <g transform="translate(10.67,83.32)">
      <g class="primitive">
        <text text-anchor="middle" dy="0.6em">-0.1</text>
      </g>
    </g>
    <g transform="translate(41.59,83.32)">
      <g class="primitive">
        <text text-anchor="middle" dy="0.6em">0.0</text>
      </g>
    </g>
    <g transform="translate(72.52,83.32)">
      <g class="primitive">
        <text text-anchor="middle" dy="0.6em">0.1</text>
      </g>
    </g>
    <g transform="translate(103.44,83.32)">
      <g class="primitive">
        <text text-anchor="middle" dy="0.6em">0.2</text>
      </g>
    </g>
    <g transform="translate(134.36,83.32)">
      <g class="primitive">
        <text text-anchor="middle" dy="0.6em">0.3</text>
      </g>
    </g>
    <g transform="translate(165.28,83.32)">
      <g class="primitive">
        <text text-anchor="middle" dy="0.6em">0.4</text>
      </g>
    </g>
    <g transform="translate(196.2,83.32)">
      <g class="primitive">
        <text text-anchor="middle" dy="0.6em">0.5</text>
      </g>
    </g>
  </g>
  <g clip-path="url(#img-f8defcc4-4)">
    <g id="img-f8defcc4-5">
      <g pointer-events="visible" opacity="1" fill="#000000" fill-opacity="0.000" stroke="#000000" stroke-opacity="0.000" class="guide background" id="img-f8defcc4-6">
        <g transform="translate(103.44,43.66)">
          <path d="M-94.76,-38.66 L 94.76 -38.66 94.76 38.66 -94.76 38.66 z" class="primitive"/>
        </g>
      </g>
      <g class="guide ygridlines xfixed" stroke-dasharray="0.5,0.5" stroke-width="0.2" stroke="#D0D0E0" id="img-f8defcc4-7">
        <g transform="translate(103.44,80.31)">
          <path fill="none" d="M-94.76,0 L 94.76 0" class="primitive"/>
        </g>
        <g transform="translate(103.44,61.99)">
          <path fill="none" d="M-94.76,0 L 94.76 0" class="primitive"/>
        </g>
        <g transform="translate(103.44,43.66)">
          <path fill="none" d="M-94.76,0 L 94.76 0" class="primitive"/>
        </g>
        <g transform="translate(103.44,25.33)">
          <path fill="none" d="M-94.76,0 L 94.76 0" class="primitive"/>
        </g>
        <g transform="translate(103.44,7)">
          <path fill="none" d="M-94.76,0 L 94.76 0" class="primitive"/>
        </g>
      </g>
      <g class="guide xgridlines yfixed" stroke-dasharray="0.5,0.5" stroke-width="0.2" stroke="#D0D0E0" id="img-f8defcc4-8">
        <g transform="translate(10.67,43.66)">
          <path fill="none" d="M0,-38.66 L 0 38.66" class="primitive"/>
        </g>
        <g transform="translate(41.59,43.66)">
          <path fill="none" d="M0,-38.66 L 0 38.66" class="primitive"/>
        </g>
        <g transform="translate(72.52,43.66)">
          <path fill="none" d="M0,-38.66 L 0 38.66" class="primitive"/>
        </g>
        <g transform="translate(103.44,43.66)">
          <path fill="none" d="M0,-38.66 L 0 38.66" class="primitive"/>
        </g>
        <g transform="translate(134.36,43.66)">
          <path fill="none" d="M0,-38.66 L 0 38.66" class="primitive"/>
        </g>
        <g transform="translate(165.28,43.66)">
          <path fill="none" d="M0,-38.66 L 0 38.66" class="primitive"/>
        </g>
        <g transform="translate(196.2,43.66)">
          <path fill="none" d="M0,-38.66 L 0 38.66" class="primitive"/>
        </g>
      </g>
      <g class="plotpanel" id="img-f8defcc4-9">
        <metadata>
          <boundingbox value="8.673333333333346mm 5.0mm 189.52666666666664mm 77.315mm"/>
          <unitbox value="-0.10646807287362105 8.218236377276137 0.612936145747242 -8.436472754552275"/>
        </metadata>
        <g stroke-width="0.3" fill="#000000" fill-opacity="0.000" class="geometry" id="img-f8defcc4-10">
          <g stroke-dasharray="none" stroke="#00BFFF" id="img-f8defcc4-11">
            <g transform="translate(101.82,60.15)">
              <path fill="none" d="M-69.99,20.16 L -69.44 20.15 -68.89 20.14 -68.34 20.11 -67.79 20.04 -67.24 19.93 -66.69 19.72 -66.15 19.39 -65.6 18.86 -65.05 18.09 -64.5 17.02 -63.95 15.63 -63.4 13.94 -62.85 12.04 -62.3 10.08 -61.75 8.26 -61.2 6.78 -60.66 5.85 -60.11 5.59 -59.56 6.04 -59.01 7.12 -58.46 8.67 -57.91 10.5 -57.36 12.38 -56.81 14.14 -56.26 15.65 -55.72 16.85 -55.17 17.73 -54.62 18.33 -54.07 18.71 -53.52 18.91 -52.97 19 -52.42 19.01 -51.87 18.98 -51.32 18.92 -50.78 18.85 -50.23 18.76 -49.68 18.65 -49.13 18.53 -48.58 18.38 -48.03 18.2 -47.48 17.99 -46.93 17.77 -46.38 17.52 -45.84 17.28 -45.29 17.04 -44.74 16.81 -44.19 16.62 -43.64 16.45 -43.09 16.32 -42.54 16.22 -41.99 16.15 -41.44 16.1 -40.89 16.05 -40.35 15.99 -39.8 15.92 -39.25 15.8 -38.7 15.63 -38.15 15.41 -37.6 15.13 -37.05 14.79 -36.5 14.4 -35.95 13.97 -35.41 13.52 -34.86 13.06 -34.31 12.59 -33.76 12.12 -33.21 11.65 -32.66 11.17 -32.11 10.68 -31.56 10.17 -31.01 9.64 -30.47 9.08 -29.92 8.49 -29.37 7.88 -28.82 7.25 -28.27 6.59 -27.72 5.92 -27.17 5.22 -26.62 4.5 -26.07 3.75 -25.52 2.98 -24.98 2.19 -24.43 1.36 -23.88 0.49 -23.33 -0.41 -22.78 -1.34 -22.23 -2.32 -21.68 -3.34 -21.13 -4.39 -20.58 -5.47 -20.04 -6.57 -19.49 -7.69 -18.94 -8.81 -18.39 -9.94 -17.84 -11.08 -17.29 -12.25 -16.74 -13.47 -16.19 -14.73 -15.64 -16.06 -15.1 -17.46 -14.55 -18.92 -14 -20.44 -13.45 -21.99 -12.9 -23.54 -12.35 -25.07 -11.8 -26.53 -11.25 -27.92 -10.7 -29.22 -10.16 -30.42 -9.61 -31.53 -9.06 -32.58 -8.51 -33.58 -7.96 -34.57 -7.41 -35.56 -6.86 -36.58 -6.31 -37.62 -5.76 -38.67 -5.21 -39.74 -4.67 -40.79 -4.12 -41.82 -3.57 -42.8 -3.02 -43.72 -2.47 -44.57 -1.92 -45.32 -1.37 -45.97 -0.82 -46.48 -0.27 -46.86 0.27 -47.1 0.82 -47.21 1.37 -47.19 1.92 -47.09 2.47 -46.91 3.02 -46.69 3.57 -46.43 4.12 -46.13 4.67 -45.79 5.21 -45.38 5.76 -44.89 6.31 -44.28 6.86 -43.54 7.41 -42.68 7.96 -41.7 8.51 -40.65 9.06 -39.56 9.61 -38.45 10.16 -37.36 10.7 -36.3 11.25 -35.27 11.8 -34.28 12.35 -33.32 12.9 -32.36 13.45 -31.39 14 -30.39 14.55 -29.34 15.1 -28.22 15.64 -27 16.19 -25.69 16.74 -24.27 17.29 -22.76 17.84 -21.18 18.39 -19.57 18.94 -17.95 19.49 -16.36 20.04 -14.82 20.58 -13.35 21.13 -11.94 21.68 -10.6 22.23 -9.32 22.78 -8.09 23.33 -6.9 23.88 -5.73 24.43 -4.58 24.98 -3.45 25.52 -2.32 26.07 -1.19 26.62 -0.06 27.17 1.07 27.72 2.19 28.27 3.28 28.82 4.35 29.37 5.35 29.92 6.3 30.47 7.16 31.01 7.95 31.56 8.66 32.11 9.31 32.66 9.92 33.21 10.49 33.76 11.06 34.31 11.63 34.86 12.21 35.41 12.78 35.95 13.36 36.5 13.91 37.05 14.43 37.6 14.91 38.15 15.33 38.7 15.71 39.25 16.03 39.8 16.32 40.35 16.57 40.89 16.81 41.44 17.03 41.99 17.24 42.54 17.43 43.09 17.61 43.64 17.79 44.19 17.95 44.74 18.09 45.29 18.23 45.84 18.36 46.38 18.47 46.93 18.58 47.48 18.69 48.03 18.78 48.58 18.88 49.13 18.97 49.68 19.07 50.23 19.16 50.78 19.26 51.32 19.35 51.87 19.45 52.42 19.54 52.97 19.62 53.52 19.69 54.07 19.75 54.62 19.8 55.17 19.84 55.72 19.87 56.26 19.88 56.81 19.9 57.36 19.9 57.91 19.91 58.46 19.93 59.01 19.94 59.56 19.96 60.11 19.99 60.66 20.02 61.2 20.04 61.75 20.07 62.3 20.09 62.85 20.11 63.4 20.13 63.95 20.14 64.5 20.15 65.05 20.16 65.6 20.16 66.15 20.16 66.69 20.16 67.24 20.16 67.79 20.16 68.34 20.17 68.89 20.17 69.44 20.16 69.99 20.16" class="primitive"/>
            </g>
          </g>
        </g>
      </g>
    </g>
  </g>
  <g class="guide ylabels" font-size="2.82" font-family="'PT Sans Caption','Helvetica Neue','Helvetica',sans-serif" fill="#6C606B" id="img-f8defcc4-12">
    <g transform="translate(7.67,80.31)">
      <g class="primitive">
        <text text-anchor="end" dy="0.35em">0</text>
      </g>
    </g>
    <g transform="translate(7.67,61.99)">
      <g class="primitive">
        <text text-anchor="end" dy="0.35em">2</text>
      </g>
    </g>
    <g transform="translate(7.67,43.66)">
      <g class="primitive">
        <text text-anchor="end" dy="0.35em">4</text>
      </g>
    </g>
    <g transform="translate(7.67,25.33)">
      <g class="primitive">
        <text text-anchor="end" dy="0.35em">6</text>
      </g>
    </g>
    <g transform="translate(7.67,7)">
      <g class="primitive">
        <text text-anchor="end" dy="0.35em">8</text>
      </g>
    </g>
  </g>
</g>
<defs>
  <clipPath id="img-f8defcc4-4">
    <path d="M8.67,5 L 198.2 5 198.2 82.32 8.67 82.32" />
  </clipPath>
</defs>
</svg>
