<?xml version="1.0" encoding="UTF-8"?>
<svg xmlns="http://www.w3.org/2000/svg"
     xmlns:xlink="http://www.w3.org/1999/xlink"
     xmlns:gadfly="http://www.gadflyjl.org/ns"
     version="1.2"
     width="141.42mm" height="100mm" viewBox="0 0 141.42 100"
     stroke="none"
     fill="#000000"
     stroke-width="0.3"
     font-size="3.88"
>
<defs>
  <marker id="arrow" markerWidth="15" markerHeight="7" refX="5" refY="3.5" orient="auto" markerUnits="strokeWidth">
    <path d="M0,0 L15,3.5 L0,7 z" stroke="context-stroke" fill="context-stroke"/>
  </marker>
</defs>
<g class="plotroot xscalable yscalable" id="img-7e26105e-1">
  <g font-size="3.88" font-family="'PT Sans','Helvetica Neue','Helvetica',sans-serif" fill="#564A55" stroke="#000000" stroke-opacity="0.000" id="img-7e26105e-2">
    <g transform="translate(72.55,88.39)">
      <g class="primitive">
        <text text-anchor="middle" dy="0.6em">σ</text>
      </g>
    </g>
  </g>
  <g class="guide xlabels" font-size="2.82" font-family="'PT Sans Caption','Helvetica Neue','Helvetica',sans-serif" fill="#6C606B" id="img-7e26105e-3">
    <g transform="translate(10.67,81.72)">
      <g class="primitive">
        <text text-anchor="middle" dy="0.6em">0.0</text>
      </g>
    </g>
    <g transform="translate(51.92,81.72)">
      <g class="primitive">
        <text text-anchor="middle" dy="0.6em">0.5</text>
      </g>
    </g>
    <g transform="translate(93.17,81.72)">
      <g class="primitive">
        <text text-anchor="middle" dy="0.6em">1.0</text>
      </g>
    </g>
    <g transform="translate(134.42,81.72)">
      <g class="primitive">
        <text text-anchor="middle" dy="0.6em">1.5</text>
      </g>
    </g>
  </g>
  <g clip-path="url(#img-7e26105e-4)">
    <g id="img-7e26105e-5">
      <g pointer-events="visible" fill="#000000" fill-opacity="0.000" stroke="#000000" stroke-opacity="0.000" class="guide background" id="img-7e26105e-6">
        <g transform="translate(72.55,42.86)" id="img-7e26105e-7">
          <path d="M-63.87,-37.86 L 63.87 -37.86 63.87 37.86 -63.87 37.86 z" class="primitive"/>
        </g>
      </g>
      <g class="guide ygridlines xfixed" stroke-dasharray="0.5,0.5" stroke-width="0.2" stroke="#D0D0E0" id="img-7e26105e-8">
        <g transform="translate(72.55,78.71)" id="img-7e26105e-9">
          <path fill="none" d="M-63.87,0 L 63.87 0" class="primitive"/>
        </g>
        <g transform="translate(72.55,60.79)" id="img-7e26105e-10">
          <path fill="none" d="M-63.87,0 L 63.87 0" class="primitive"/>
        </g>
        <g transform="translate(72.55,42.86)" id="img-7e26105e-11">
          <path fill="none" d="M-63.87,0 L 63.87 0" class="primitive"/>
        </g>
        <g transform="translate(72.55,24.93)" id="img-7e26105e-12">
          <path fill="none" d="M-63.87,0 L 63.87 0" class="primitive"/>
        </g>
        <g transform="translate(72.55,7)" id="img-7e26105e-13">
          <path fill="none" d="M-63.87,0 L 63.87 0" class="primitive"/>
        </g>
      </g>
      <g class="guide xgridlines yfixed" stroke-dasharray="0.5,0.5" stroke-width="0.2" stroke="#D0D0E0" id="img-7e26105e-14">
        <g transform="translate(10.67,42.86)" id="img-7e26105e-15">
          <path fill="none" d="M0,-37.86 L 0 37.86" class="primitive"/>
        </g>
        <g transform="translate(51.92,42.86)" id="img-7e26105e-16">
          <path fill="none" d="M0,-37.86 L 0 37.86" class="primitive"/>
        </g>
        <g transform="translate(93.17,42.86)" id="img-7e26105e-17">
          <path fill="none" d="M0,-37.86 L 0 37.86" class="primitive"/>
        </g>
        <g transform="translate(134.42,42.86)" id="img-7e26105e-18">
          <path fill="none" d="M0,-37.86 L 0 37.86" class="primitive"/>
        </g>
      </g>
      <g class="plotpanel" id="img-7e26105e-19">
        <metadata>
          <boundingbox value="8.673333333333332mm 5.0mm 127.74802290397618mm 75.715mm"/>
          <unitbox value="-0.02424281155851587 4.111552673778149 1.5484856231170319 -4.2231053475563"/>
        </metadata>
        <g stroke-width="0.3" fill="#000000" fill-opacity="0.000" class="geometry" id="img-7e26105e-20">
          <g class="color_LCHab{Float32}(70.0f0,60.0f0,240.0f0)" stroke-dasharray="none" stroke="#00BFFF" id="img-7e26105e-21">
            <g transform="translate(86.19,61.34)" id="img-7e26105e-22">
              <path fill="none" d="M-42.41,17.37 L -42.07 17.37 -41.74 17.37 -41.41 17.37 -41.08 17.37 -40.74 17.37 -40.41 17.37 -40.08 17.37 -39.75 17.36 -39.41 17.36 -39.08 17.35 -38.75 17.34 -38.42 17.33 -38.08 17.32 -37.75 17.3 -37.42 17.28 -37.09 17.26 -36.75 17.23 -36.42 17.2 -36.09 17.16 -35.75 17.11 -35.42 17.05 -35.09 16.99 -34.76 16.92 -34.42 16.84 -34.09 16.76 -33.76 16.67 -33.43 16.58 -33.09 16.47 -32.76 16.35 -32.43 16.22 -32.1 16.06 -31.76 15.89 -31.43 15.71 -31.1 15.53 -30.77 15.35 -30.43 15.17 -30.1 15 -29.77 14.81 -29.44 14.61 -29.1 14.38 -28.77 14.1 -28.44 13.77 -28.1 13.37 -27.77 12.9 -27.44 12.36 -27.11 11.76 -26.77 11.1 -26.44 10.39 -26.11 9.65 -25.78 8.89 -25.44 8.12 -25.11 7.34 -24.78 6.56 -24.45 5.76 -24.11 4.95 -23.78 4.1 -23.45 3.2 -23.12 2.25 -22.78 1.21 -22.45 0.08 -22.12 -1.16 -21.79 -2.51 -21.45 -3.97 -21.12 -5.52 -20.79 -7.14 -20.46 -8.8 -20.12 -10.47 -19.79 -12.12 -19.46 -13.74 -19.12 -15.32 -18.79 -16.89 -18.46 -18.49 -18.13 -20.15 -17.79 -21.9 -17.46 -23.73 -17.13 -25.61 -16.8 -27.48 -16.46 -29.26 -16.13 -30.9 -15.8 -32.35 -15.47 -33.63 -15.13 -34.76 -14.8 -35.78 -14.47 -36.73 -14.14 -37.64 -13.8 -38.54 -13.47 -39.44 -13.14 -40.35 -12.81 -41.3 -12.47 -42.3 -12.14 -43.34 -11.81 -44.4 -11.47 -45.47 -11.14 -46.48 -10.81 -47.39 -10.48 -48.15 -10.14 -48.72 -9.81 -49.08 -9.48 -49.22 -9.15 -49.18 -8.81 -48.99 -8.48 -48.71 -8.15 -48.41 -7.82 -48.14 -7.48 -47.92 -7.15 -47.77 -6.82 -47.66 -6.49 -47.54 -6.15 -47.36 -5.82 -47.05 -5.49 -46.57 -5.16 -45.87 -4.82 -44.94 -4.49 -43.78 -4.16 -42.43 -3.82 -40.93 -3.49 -39.33 -3.16 -37.68 -2.83 -36.04 -2.49 -34.43 -2.16 -32.89 -1.83 -31.41 -1.5 -29.99 -1.16 -28.62 -0.83 -27.25 -0.5 -25.85 -0.17 -24.38 0.17 -22.85 0.5 -21.25 0.83 -19.64 1.16 -18.07 1.5 -16.58 1.83 -15.21 2.16 -13.96 2.49 -12.8 2.83 -11.7 3.16 -10.62 3.49 -9.55 3.82 -8.46 4.16 -7.37 4.49 -6.28 4.82 -5.22 5.16 -4.19 5.49 -3.2 5.82 -2.24 6.15 -1.3 6.49 -0.36 6.82 0.6 7.15 1.57 7.48 2.54 7.82 3.49 8.15 4.37 8.48 5.17 8.81 5.87 9.15 6.47 9.48 7.01 9.81 7.5 10.14 7.99 10.48 8.5 10.81 9.05 11.14 9.64 11.47 10.25 11.81 10.87 12.14 11.49 12.47 12.08 12.81 12.63 13.14 13.13 13.47 13.59 13.8 14 14.14 14.37 14.47 14.69 14.8 14.97 15.13 15.22 15.47 15.44 15.8 15.63 16.13 15.79 16.46 15.93 16.8 16.05 17.13 16.15 17.46 16.23 17.79 16.29 18.13 16.34 18.46 16.38 18.79 16.42 19.12 16.46 19.46 16.51 19.79 16.57 20.12 16.63 20.46 16.7 20.79 16.77 21.12 16.84 21.45 16.91 21.79 16.96 22.12 17.01 22.45 17.05 22.78 17.07 23.12 17.1 23.45 17.12 23.78 17.13 24.11 17.15 24.45 17.17 24.78 17.19 25.11 17.21 25.44 17.23 25.78 17.25 26.11 17.27 26.44 17.29 26.77 17.31 27.11 17.32 27.44 17.34 27.77 17.35 28.1 17.36 28.44 17.36 28.77 17.37 29.1 17.37 29.44 17.37 29.77 17.37 30.1 17.37 30.43 17.37 30.77 17.37 31.1 17.37 31.43 17.37 31.76 17.37 32.1 17.37 32.43 17.37 32.76 17.37 33.09 17.37 33.43 17.37 33.76 17.37 34.09 17.37 34.42 17.37 34.76 17.37 35.09 17.36 35.42 17.36 35.75 17.35 36.09 17.34 36.42 17.34 36.75 17.33 37.09 17.33 37.42 17.32 37.75 17.33 38.08 17.33 38.42 17.34 38.75 17.34 39.08 17.35 39.41 17.36 39.75 17.36 40.08 17.37 40.41 17.37 40.74 17.37 41.08 17.37 41.41 17.37 41.74 17.37 42.07 17.37 42.41 17.37" class="primitive"/>
            </g>
          </g>
        </g>
      </g>
    </g>
  </g>
  <g class="guide ylabels" font-size="2.82" font-family="'PT Sans Caption','Helvetica Neue','Helvetica',sans-serif" fill="#6C606B" id="img-7e26105e-23">
    <g transform="translate(7.67,78.71)" id="img-7e26105e-24">
      <g class="primitive">
        <text text-anchor="end" dy="0.35em">0</text>
      </g>
    </g>
    <g transform="translate(7.67,60.79)" id="img-7e26105e-25">
      <g class="primitive">
        <text text-anchor="end" dy="0.35em">1</text>
      </g>
    </g>
    <g transform="translate(7.67,42.86)" id="img-7e26105e-26">
      <g class="primitive">
        <text text-anchor="end" dy="0.35em">2</text>
      </g>
    </g>
    <g transform="translate(7.67,24.93)" id="img-7e26105e-27">
      <g class="primitive">
        <text text-anchor="end" dy="0.35em">3</text>
      </g>
    </g>
    <g transform="translate(7.67,7)" id="img-7e26105e-28">
      <g class="primitive">
        <text text-anchor="end" dy="0.35em">4</text>
      </g>
    </g>
  </g>
</g>
<defs>
  <clipPath id="img-7e26105e-4">
    <path d="M8.67,5 L 136.42 5 136.42 80.72 8.67 80.72" />
  </clipPath>
</defs>
</svg>
