<?xml version="1.0" encoding="UTF-8"?>
<svg xmlns="http://www.w3.org/2000/svg"
     xmlns:xlink="http://www.w3.org/1999/xlink"
     xmlns:gadfly="http://www.gadflyjl.org/ns"
     version="1.2"
     width="203.2mm" height="101.6mm" viewBox="0 0 203.2 101.6"
     stroke="none"
     fill="#000000"
     stroke-width="0.3"
     font-size="3.88"
>
<g class="plotroot xscalable yscalable" id="img-f2b48a63-1">
  <g font-size="3.88" font-family="'PT Sans','Helvetica Neue','Helvetica',sans-serif" fill="#564A55" stroke="#000000" stroke-opacity="0.000" id="img-f2b48a63-2">
    <text x="107.12" y="89.99" text-anchor="middle" dy="0.6em">Parametric bootstrap estimates of σ²</text>
  </g>
  <g class="guide xlabels" font-size="2.82" font-family="'PT Sans Caption','Helvetica Neue','Helvetica',sans-serif" fill="#6C606B" id="img-f2b48a63-3">
    <text x="18.04" y="83.32" text-anchor="middle" dy="0.6em">0</text>
    <text x="62.58" y="83.32" text-anchor="middle" dy="0.6em">2.0×10³</text>
    <text x="107.12" y="83.32" text-anchor="middle" dy="0.6em">4.0×10³</text>
    <text x="151.66" y="83.32" text-anchor="middle" dy="0.6em">6.0×10³</text>
    <text x="196.2" y="83.32" text-anchor="middle" dy="0.6em">8.0×10³</text>
  </g>
<g clip-path="url(#img-f2b48a63-4)">
  <g id="img-f2b48a63-5">
    <g pointer-events="visible" opacity="1" fill="#000000" fill-opacity="0.000" stroke="#000000" stroke-opacity="0.000" class="guide background" id="img-f2b48a63-6">
      <rect x="16.04" y="5" width="182.16" height="77.32"/>
    </g>
    <g class="guide ygridlines xfixed" stroke-dasharray="0.5,0.5" stroke-width="0.2" stroke="#D0D0E0" id="img-f2b48a63-7">
      <path fill="none" d="M16.04,80.32 L 198.2 80.32"/>
      <path fill="none" d="M16.04,68.1 L 198.2 68.1"/>
      <path fill="none" d="M16.04,55.88 L 198.2 55.88"/>
      <path fill="none" d="M16.04,43.66 L 198.2 43.66"/>
      <path fill="none" d="M16.04,31.44 L 198.2 31.44"/>
      <path fill="none" d="M16.04,19.22 L 198.2 19.22"/>
      <path fill="none" d="M16.04,7 L 198.2 7"/>
    </g>
    <g class="guide xgridlines yfixed" stroke-dasharray="0.5,0.5" stroke-width="0.2" stroke="#D0D0E0" id="img-f2b48a63-8">
      <path fill="none" d="M18.04,5 L 18.04 82.32"/>
      <path fill="none" d="M62.58,5 L 62.58 82.32"/>
      <path fill="none" d="M107.12,5 L 107.12 82.32"/>
      <path fill="none" d="M151.66,5 L 151.66 82.32"/>
      <path fill="none" d="M196.2,5 L 196.2 82.32"/>
    </g>
    <g class="plotpanel" id="img-f2b48a63-9">
      <g stroke-width="0.3" fill="#000000" fill-opacity="0.000" class="geometry" stroke-dasharray="none" stroke="#00BFFF" id="img-f2b48a63-10">
        <path fill="none" d="M24.4,80.31 L 24.97 80.31 25.54 80.31 26.11 80.31 26.68 80.31 27.25 80.31 27.83 80.31 28.4 80.3 28.97 80.28 29.54 80.26 30.11 80.24 30.68 80.21 31.25 80.17 31.83 80.12 32.4 80.05 32.97 79.96 33.54 79.85 34.11 79.71 34.68 79.54 35.25 79.34 35.83 79.1 36.4 78.84 36.97 78.54 37.54 78.2 38.11 77.79 38.68 77.3 39.25 76.73 39.83 76.08 40.4 75.36 40.97 74.59 41.54 73.78 42.11 72.94 42.68 72.08 43.25 71.18 43.83 70.21 44.4 69.13 44.97 67.92 45.54 66.55 46.11 65.03 46.68 63.35 47.25 61.54 47.83 59.64 48.4 57.68 48.97 55.74 49.54 53.83 50.11 51.98 50.68 50.14 51.25 48.27 51.83 46.29 52.4 44.17 52.97 41.97 53.54 39.75 54.11 37.58 54.68 35.49 55.25 33.41 55.83 31.34 56.4 29.29 56.97 27.36 57.54 25.57 58.11 23.9 58.68 22.28 59.25 20.67 59.83 19.06 60.4 17.51 60.97 16.06 61.54 14.73 62.11 13.53 62.68 12.47 63.25 11.56 63.83 10.81 64.4 10.18 64.97 9.61 65.54 9.04 66.11 8.46 66.68 7.93 67.25 7.53 67.83 7.33 68.4 7.33 68.97 7.53 69.54 7.86 70.11 8.28 70.68 8.77 71.25 9.34 71.83 10 72.4 10.8 72.97 11.71 73.54 12.71 74.11 13.74 74.68 14.78 75.25 15.8 75.83 16.8 76.4 17.82 76.97 18.88 77.54 20.02 78.11 21.22 78.68 22.47 79.26 23.74 79.83 25.08 80.4 26.53 80.97 28.11 81.54 29.78 82.11 31.44 82.68 33.02 83.26 34.51 83.83 35.92 84.4 37.25 84.97 38.53 85.54 39.77 86.11 41 86.68 42.29 87.26 43.62 87.83 44.96 88.4 46.26 88.97 47.52 89.54 48.74 90.11 49.94 90.68 51.14 91.26 52.33 91.83 53.52 92.4 54.69 92.97 55.84 93.54 56.96 94.11 58.04 94.68 59.08 95.26 60.09 95.83 61.05 96.4 61.95 96.97 62.79 97.54 63.6 98.11 64.39 98.68 65.17 99.26 65.93 99.83 66.66 100.4 67.35 100.97 67.99 101.54 68.58 102.11 69.11 102.68 69.6 103.26 70.06 103.83 70.51 104.4 70.97 104.97 71.44 105.54 71.93 106.11 72.4 106.68 72.84 107.26 73.23 107.83 73.59 108.4 73.95 108.97 74.32 109.54 74.69 110.11 75.05 110.68 75.37 111.26 75.63 111.83 75.83 112.4 76 112.97 76.19 113.54 76.4 114.11 76.65 114.68 76.9 115.26 77.14 115.83 77.37 116.4 77.58 116.97 77.79 117.54 77.98 118.11 78.15 118.68 78.29 119.26 78.4 119.83 78.48 120.4 78.55 120.97 78.62 121.54 78.72 122.11 78.84 122.68 78.97 123.26 79.11 123.83 79.23 124.4 79.33 124.97 79.41 125.54 79.49 126.11 79.57 126.68 79.64 127.26 79.71 127.83 79.76 128.4 79.8 128.97 79.82 129.54 79.83 130.11 79.85 130.68 79.86 131.26 79.88 131.83 79.9 132.4 79.91 132.97 79.93 133.54 79.94 134.11 79.96 134.68 79.99 135.26 80.01 135.83 80.04 136.4 80.06 136.97 80.07 137.54 80.08 138.11 80.1 138.68 80.11 139.26 80.13 139.83 80.15 140.4 80.17 140.97 80.19 141.54 80.2 142.11 80.21 142.68 80.21 143.26 80.21 143.83 80.22 144.4 80.22 144.97 80.23 145.54 80.23 146.11 80.24 146.68 80.24 147.26 80.25 147.83 80.25 148.4 80.26 148.97 80.26 149.54 80.27 150.11 80.27 150.68 80.28 151.26 80.29 151.83 80.3 152.4 80.3 152.97 80.3 153.54 80.29 154.11 80.29 154.68 80.29 155.26 80.29 155.83 80.29 156.4 80.3 156.97 80.3 157.54 80.31 158.11 80.31 158.68 80.31 159.26 80.31 159.83 80.31 160.4 80.31 160.97 80.31 161.54 80.31 162.11 80.31 162.69 80.31 163.26 80.31 163.83 80.31 164.4 80.31 164.97 80.31 165.54 80.31 166.11 80.31 166.69 80.31 167.26 80.31 167.83 80.31 168.4 80.31 168.97 80.31 169.54 80.31 170.11 80.31"/>
      </g>
    </g>
  </g>
</g>
  <g class="guide ylabels" font-size="2.82" font-family="'PT Sans Caption','Helvetica Neue','Helvetica',sans-serif" fill="#6C606B" id="img-f2b48a63-11">
    <text x="15.04" y="80.32" text-anchor="end" dy="0.35em">0.0000</text>
    <text x="15.04" y="68.1" text-anchor="end" dy="0.35em">0.0001</text>
    <text x="15.04" y="55.88" text-anchor="end" dy="0.35em">0.0002</text>
    <text x="15.04" y="43.66" text-anchor="end" dy="0.35em">0.0003</text>
    <text x="15.04" y="31.44" text-anchor="end" dy="0.35em">0.0004</text>
    <text x="15.04" y="19.22" text-anchor="end" dy="0.35em">0.0005</text>
    <text x="15.04" y="7" text-anchor="end" dy="0.35em">0.0006</text>
  </g>
</g>
<defs>
  <clipPath id="img-f2b48a63-4">
  <path d="M16.04,5 L 198.2 5 198.2 82.32 16.04 82.32" />
</clipPath>
</defs>
</svg>
